<?xml version="1.0" encoding="UTF-8" standalone="no"?>
<svg
   viewBox="0 0 483 527.48"
   version="1.1"
   id="svg22336"
   sodipodi:docname="House Baratheon of Dragonstone GoT.svg"
   inkscape:version="1.2.1 (9c6d41e410, 2022-07-14)"
   xmlns:inkscape="http://www.inkscape.org/namespaces/inkscape"
   xmlns:sodipodi="http://sodipodi.sourceforge.net/DTD/sodipodi-0.dtd"
   xmlns="http://www.w3.org/2000/svg"
   xmlns:svg="http://www.w3.org/2000/svg">
  <sodipodi:namedview
     id="namedview22338"
     pagecolor="#ffffff"
     bordercolor="#000000"
     borderopacity="0.25"
     inkscape:showpageshadow="2"
     inkscape:pageopacity="0.0"
     inkscape:pagecheckerboard="0"
     inkscape:deskcolor="#d1d1d1"
     showgrid="false"
     inkscape:zoom="0.79339504"
     inkscape:cx="10.713452"
     inkscape:cy="339.04926"
     inkscape:window-width="1920"
     inkscape:window-height="1017"
     inkscape:window-x="-8"
     inkscape:window-y="-8"
     inkscape:window-maximized="1"
     inkscape:current-layer="svg22336" />
  <defs
     id="defs22128">
    <style
       id="style22126">.cls-1{fill:#d3c5ab;}.cls-2{fill:#ecb74d;}.cls-2,.cls-3,.cls-4,.cls-5,.cls-6,.cls-7{stroke:#000;}.cls-2,.cls-4,.cls-5{stroke-miterlimit:10;}.cls-3,.cls-5,.cls-7{fill:none;}.cls-3,.cls-6{stroke-linecap:round;stroke-linejoin:round;}.cls-4{fill:#b55a57;}.cls-6{fill:#eeb951;}.cls-7{stroke-width:3px;}</style>
    <radialGradient
       id="rg"
       gradientUnits="userSpaceOnUse"
       cx="220"
       cy="220"
       r="405"
       gradientTransform="matrix(0.80510068,0,0,0.80302287,0.0498012,-0.642922)">
      <stop
         style="stop-color:#ffffff;stop-opacity:.3"
         offset="0"
         id="stop753" />
      <stop
         style="stop-color:#ffffff;stop-opacity:.2"
         offset=".2"
         id="stop755" />
      <stop
         style="stop-color:#666666;stop-opacity:.1"
         offset=".6"
         id="stop757" />
      <stop
         style="stop-color:#000000;stop-opacity:.13"
         offset="1"
         id="stop759" />
    </radialGradient>
  </defs>
  <title
     id="title22130">House Baratheon of Dragonstone</title>
  <g
     id="Layer_2"
     data-name="Layer 2">
    <path
       class="cls-1"
       d="M927,122.76V328.6a314.37,314.37,0,0,1-2.28,38c-.11.93-.24,1.86-.36,2.79s-.24,1.86-.39,2.79q-.7,5.05-1.61,10c-.07.44-.15.87-.23,1.31-.15.8-.29,1.6-.45,2.39s-.34,1.8-.51,2.69l-.45,2.22-.24,1.16c-.15.71-.3,1.44-.47,2.15q-.8,3.55-1.61,7l-.58,2.32-.52,2q-1.52,5.88-3.27,11.61c-.29,1-.59,1.94-.9,2.92l-.6,1.88c-.19.63-.39,1.25-.6,1.86l-1.1,3.26c-.37,1.09-.68,2-1,3-.47,1.28-.92,2.55-1.39,3.81-.36,1-.73,2-1.11,3l-.19.49c-.43,1.14-.87,2.25-1.32,3.37s-.87,2.16-1.32,3.19a3.35,3.35,0,0,1-.18.42c-.4,1-.8,2-1.25,3s-.75,1.75-1.13,2.62l-.66,1.49c-.47,1.07-.95,2.12-1.44,3.15s-.9,2-1.36,2.93l-1,2.12c-.3.63-.6,1.25-.91,1.88-.63,1.32-1.31,2.64-2,4q-2.53,5-5.19,9.77l-2,3.57-.11.21q-2.13,3.71-4.33,7.33c-.71,1.2-1.46,2.39-2.18,3.54-.1.16-.19.31-.3.46-.55.89-1.12,1.78-1.69,2.66l-.66,1c-.65,1-1.31,2-2,3l-.13.18c-.66,1-1.32,2-2,3l-.45.67q-2.26,3.28-4.54,6.46l-.31.42c-.8,1.07-1.54,2.14-2.31,3.19s-1.66,2.23-2.5,3.32q-2.29,3-4.61,6l-.8,1c-.73.93-1.48,1.85-2.22,2.76L854,526.61l-.57.69L851,530.1q-2.83,3.32-5.72,6.53c-.75.85-1.52,1.69-2.29,2.51l-2.22,2.39q-3,3.19-5.93,6.24-2.76,2.83-5.53,5.59c-.91.91-1.84,1.82-2.76,2.71s-1.85,1.78-2.78,2.67l-2.28,2.11c-.68.65-1.36,1.28-2.05,1.91a448.64,448.64,0,0,1-61.76,47.47c-.86.55-1.73,1.1-2.58,1.6q-6.42,4.07-12.46,7.63l-2.41,1.4-2.36,1.36-2.34,1.35-2.22,1.28c-8.35,4.68-15.91,8.59-22.38,11.76l-1.61.8c-10.63,5.15-18.11,8.22-21,9.35l-.42.18-.61.23-.14.06h-.08l-.23-.1-.21,0-1.07-.42-.55-.23c-.87-.34-2-.8-3.36-1.38l-.47-.18c-1.76-.8-3.88-1.67-6.33-2.77l-1.39-.61a443.16,443.16,0,0,1-39.74-20.6c-.8-.45-1.61-.92-2.36-1.38a473.14,473.14,0,0,1-44.78-30l-2.62-2c-1-.75-2-1.52-2.95-2.29l-2.81-2.21c-6.19-4.92-12.43-10.15-18.64-15.69L558.08,566q-2.3-2.05-4.59-4.2l-1.67-1.57L550,558.54l-2-1.94c-1.12-1.07-2.24-2.16-3.34-3.26-.84-.8-1.69-1.67-2.52-2.51l-.24-.26q-1.25-1.25-2.5-2.51c-.66-.68-1.32-1.36-2-2l-2-2.07-.13-.15-2.1-2.24q-3.36-3.61-6.66-7.36c-.68-.8-1.36-1.55-2-2.35-.57-.65-1.12-1.28-1.66-1.94l-2-2.39q-4.26-5.11-8.39-10.48-1.13-1.45-2.24-2.92c-1.89-2.47-3.73-5-5.57-7.55l-1.68-2.39c-.13-.16-.24-.34-.36-.5-.59-.85-1.19-1.7-1.77-2.55-.95-1.38-1.89-2.77-2.82-4.17q-1.11-1.64-2.18-3.31l-.15-.24-2.22-3.47c-.07-.13-.15-.24-.22-.37-.71-1.14-1.41-2.27-2.1-3.4s-1.49-2.46-2.21-3.7-1.44-2.39-2.13-3.67q-4.6-8-8.77-16.47c-.35-.69-.69-1.38-1-2.08-.22-.44-.44-.89-.65-1.35-.43-.87-.8-1.75-1.25-2.63a27.17,27.17,0,0,1-1.15-2.47l-.23-.48c-.26-.58-.52-1.16-.8-1.75l-.26-.57c-.26-.58-.52-1.18-.8-1.77q-1.44-3.26-2.78-6.58c-.42-1-.8-2-1.23-3.07-.1-.26-.21-.53-.31-.8-.4-1-.8-2-1.16-3s-.68-1.82-1-2.74l-.23-.65c-.18-.45-.34-.91-.5-1.36q-1-2.69-1.89-5.44c-.21-.6-.4-1.21-.6-1.8-.26-.8-.51-1.54-.75-2.31-.14-.42-.26-.8-.39-1.22-.26-.8-.5-1.6-.75-2.39-.31-1-.61-2.06-.92-3.1-.18-.65-.39-1.28-.57-2-.37-1.28-.74-2.58-1.08-3.89-.19-.68-.37-1.35-.55-2-.13-.5-.26-1-.39-1.51-.32-1.22-.63-2.46-.92-3.7-.18-.7-.35-1.4-.52-2.11-.07-.29-.13-.57-.19-.85-.37-1.55-.71-3.11-1.07-4.69-.26-1.16-.5-2.33-.74-3.5-.14-.71-.29-1.43-.43-2.14s-.32-1.6-.47-2.45a2.13,2.13,0,0,0-.1-.47c-.15-.8-.3-1.64-.45-2.48s-.31-1.84-.47-2.77-.3-1.8-.45-2.71q-.87-5.52-1.56-11.17A314.73,314.73,0,0,1,447,328.58V122.76Z"
       transform="translate(-445.5 -121.26)"
       id="path22132" />
  </g>
  <g
     id="Layer_8"
     data-name="Layer 8">
    <path
       class="cls-2"
       d="M627.67,254.25s-7.17-10.5-6.42-19.33,3.25-20.5-8-25c-9.32-3.73-8.23-10.15-7.58-12.24a.25.25,0,0,1,.48,0c.82,2.17,4,9,12.11,9.67,9.67.83,13.67,15.75,13.83,18.29s0,18.13,13.25,17.71c0,0-10.42-10.25-9.42-16.58s5.75-11.67,5.75-13.33,2.92-8.33-9.25-11.25-15.75-7.25-15.58-14.33c.15-6.48,6.52-14.08,9.19-17.18a.19.19,0,0,1,.32.18c-1.14,3.42-4.7,15.35-.43,18.91,5,4.17,15.17,2.72,23,3,6.92.25,11.08,8.83,9.83,14.58a4.72,4.72,0,0,0,4-4.17c.33-3.67-.17-11.58,10.5-16.67s18.5-8.92,19.25-18.42-7.33-6.58-6.75-16.75,2.5-11.75,2.5-11.75a85.06,85.06,0,0,0,2.58,9.33c1.17,2.92,8.42,11.75,8.75,20.58S697,188.92,687,198.83c0,0,24.5,4.5,31.17-3.17s4.67-9.5,2.67-19.92,8.42-18.25,8.42-18.25-3.58,8.25-.75,16,6.92,16.08,5.75,23.42-4.92,11.42-12.83,13.42-27.17-3.17-36.83,5.17c0,0,11.67,8.83,12.42,20.25,0,0,8.33-10.17,14.5-10.5s19.75.5,27.08-3.5c7.18-3.92,11.58-5,12.5-15.75s-8-21.25-8-21.25a28.57,28.57,0,0,1,11.75,10.75c4.69,7.94,7.42,16.26-4.75,29.42-12.31,13.31-38.17,8.33-38.75,25.83,0,0,11.33-9.58,18.83-10.33s18.42.92,22.25-2.75,10.17-5.92,11.08-20.83a29.06,29.06,0,0,1,0,18.67c-3.17,8.76-11.13,11.5-23,13.73a12.47,12.47,0,0,0-7.3,4.25,33.44,33.44,0,0,0-7.33,16.1c-2,12.75-42.92,31.69-42.92,31.69l-63.5-31.82,8.17-15.2"
       transform="translate(-445.5 -121.26)"
       id="path22135" />
    <g
       id="Layer_9"
       data-name="Layer 9">
      <path
         class="cls-3"
         d="M699.17,279.08s4.33-5.92,5.17-7.5,6.5-9,6.75-13.75.17-7,.17-7"
         transform="translate(-445.5 -121.26)"
         id="path22137" />
      <path
         class="cls-3"
         d="M711.25,266.58s6.5-18.92,19.92-21.25"
         transform="translate(-445.5 -121.26)"
         id="path22139" />
      <path
         class="cls-3"
         d="M697,235.08s-3.33,8.08-5.08,10.75,0,14.42,0,14.42"
         transform="translate(-445.5 -121.26)"
         id="path22141" />
      <path
         class="cls-3"
         d="M691.92,245.83s-11.17-13.92-12.25-19.5,1.23-10.8,5.07-10.72"
         transform="translate(-445.5 -121.26)"
         id="path22143" />
      <path
         class="cls-3"
         d="M681,283.38s5.13-11,3.63-21.37-15-35.62-15-40.25c0-5,2.63-10.62,11.75-14.75"
         transform="translate(-445.5 -121.26)"
         id="path22145" />
      <path
         class="cls-3"
         d="M669,275.75s4.25-4.62,4.5-15.5-8.45-26.07-10.62-33.37-2-10.5,5.31-15.62"
         transform="translate(-445.5 -121.26)"
         id="path22147" />
      <path
         class="cls-3"
         d="M658,230.72s-10.62-10.6,1.13-23.72"
         transform="translate(-445.5 -121.26)"
         id="path22149" />
      <path
         class="cls-3"
         d="M662.06,205.25s6.67-9,24.94-6.42"
         transform="translate(-445.5 -121.26)"
         id="path22151" />
      <path
         class="cls-3"
         d="M644.38,242.63s6.5,5.38,13.5,7.5"
         transform="translate(-445.5 -121.26)"
         id="path22153" />
      <path
         class="cls-3"
         d="M644.38,196.75s7.63-.87,6.25,10.25c-1.07,8.65-5.84,9.06-7.56,14.64a11.86,11.86,0,0,0,1.52,9.88c2.66,4.12,7.62,10.56,13.29,12"
         transform="translate(-445.5 -121.26)"
         id="path22155" />
    </g>
  </g>
  <g
     id="Layer_7"
     data-name="Layer 7">
    <path
       class="cls-4"
       d="M546.83,276.5c.5-.5,17.67-15,25.17-18.67s31-12.83,52.33-6.5c20.77,6.17,48.82,26.21,67,26.64.79,0,1.57.05,2.36.11,3.25.25,15.88-2.58,39.92-15.75,0,0,16.33-10.67,44.83-7.67s38,15,45.32,31L829.24,321l-15.33,73.5L785.5,452.25,766,495.63,736,522.5l-26,44.08-19,21.75L665,585l-28.85-30.5-16.65-38-25.91-57.37L568.17,400.5l-18.32-54.25L538.08,303Z"
       transform="translate(-445.5 -121.26)"
       id="path22159" />
  </g>
  <g
     id="Layer_5"
     data-name="Layer 5">
    <path
       class="cls-2"
       d="M698.31,594.46q-1.06.9-2,1.89c-1.82,1.85-6.57,5.6-15.45,6-11.83.5-24.67-3.33-30.5-26.17,0,0-25.67,2.17-27.33-43.17,0,0-13.33-5.33-20.83-26.67-5.27-15-5.85-21.92-5.73-24.71a2.4,2.4,0,0,0-1.39-2.29c-5.11-2.38-20.77-12-24.38-41L569,415.5s-17-13.17-20.83-31.5-4.5-39.33-4.5-39.33-8.33-17.17-10.33-25.83-1.83-27.33,5.5-36.83S547,269.5,547,266.33s-4-6.17-2.67-13.33,5.5-7.67,5.5-7.67A27,27,0,0,0,551.17,260c3,7.67,2.67,22.67-2.33,42.5s3.5,24.5,4.33,24.33c0,0,12.67-16.5,10.33-41.83,0,0,2.33,3.17,3.17,10.5s.83,26.33-1.83,36-7.17,24-2.83,39.17S574,393,574,393s5.5-10.33,4.67-40.83c0,0,6.17,8.83,6.17,19.17S583,415,583.67,422.67c.6,6.88,5.36,17.52,13.31,23.84a13,13,0,0,1,4.85,7.87,27.52,27.52,0,0,1,.17,7.78s6.83-2.33,8.33-14.83-3-20.5-6.67-27.5-.5-18.33-.5-18.33-.5,9,5,13.83,9.17,10,9,17.33-.5,56.5,4.5,69.33,8.5,15.5,8.5,15.5a57.49,57.49,0,0,0,3.67-19.33c0-10.33-5.67-16.5-5.67-27.17V460.33s7.67,16.5,10.67,23.5,7.33,16.83,5.5,35.67-2.17,23,.33,27.5,8.17,6.5,8.17,6.5,9-12.17,9-19-2.17-25.5.33-31A27.68,27.68,0,0,1,668,495s-.5,15,3,20,4.83,23.5-2,42.5,8.33,27.33,17,22,4.5-12.17,0-20.83-3.67-17.17,0-27.5,3.17-23.5,3.17-23.5,6,.5,5.33,21S694,556.5,703,563.5c0,0,5.17-17.33,13.83-28.5,0,0-4.17-10.83-7.83-18.33s.83-20.67,7.83-25c0,0-3.17,9.17,0,16.17S728,526.67,728,526.67s10.67-12.5,11.33-21-6.5-21.83-5-29,7.08-16.08,9.58-19.25,1.92-15.58,1.92-15.58,5.83-1.17,5.5,7.83-3,17.89-4.08,23-4.42,11,5.42,23.71c0,0,12.67-9.83,13.67-24.17s-1.83-22-4.33-26.83S765.83,422,768.67,419c0,0,.17,12.83,1.67,17.33s4.55,10.44,6.08,15.23a.05.05,0,0,0,.11,0c.2-2.17,1.62-16.59,5.31-23.06,4-7,1.67-17.33,1.67-17.33s-3.5-6.5-.33-12.67,3.5-27,3.5-27a15.75,15.75,0,0,1,5.17,11.67c0,7.5.5,19.67,5.17,24.67A58.08,58.08,0,0,0,803.5,381c0-15.67-2-26-4.33-30.83s2.17-20.83,2.17-20.83,3.83,21.17,13.33,30.83c0,0-2-10.33,1-14.5s2.67-14.67,1.17-17.83S806.33,306.5,806.17,302s-1.17-8.83,1.5-14.5c0,0,3.67,12.67,7.5,14.67S823.5,311,823.5,311s-3-40-2.5-45.67,7-12.5,7-12.5-3.67,12-1.33,17,13.17,19.83,15.5,33,2.67,30-9.33,43.33c0,0,8.5,20.33-9.17,36.83,0,0,7.83,18.17-5.33,28.5S801,433,801,433s1.33,21.83-5.83,29.33-12.83,8.5-12.83,8.5,1.17,25.17-29,42.33c0,0-1.89,16.47-22.83,25.17,0,0,4.67,14.83-5.67,27.17s-19,10.67-19,10.67S705.3,588.56,698.31,594.46Z"
       transform="translate(-445.5 -121.26)"
       id="path22162" />
    <g
       id="Layer_6"
       data-name="Layer 6">
      <path
         class="cls-3"
         d="M703.13,563.13a43.85,43.85,0,0,1,1.42,8.63,1.15,1.15,0,0,0,1.6,1c5.15-2.15,20.4-10.78,16.23-36.65"
         transform="translate(-445.5 -121.26)"
         id="path22164" />
      <path
         class="cls-3"
         d="M731.25,533.25s14.13-11.62,16.13-17.12,1-12.62-2.37-18.87-7.25-20.62-.87-30.75"
         transform="translate(-445.5 -121.26)"
         id="path22166" />
      <path
         class="cls-3"
         d="M768.63,486.13s10.38-2.75,3.75-27"
         transform="translate(-445.5 -121.26)"
         id="path22168" />
      <path
         class="cls-3"
         d="M776.5,451.83a51.5,51.5,0,0,1,5.83,19"
         transform="translate(-445.5 -121.26)"
         id="path22170" />
      <path
         class="cls-3"
         d="M752.63,496a44.94,44.94,0,0,1,.75,17.75"
         transform="translate(-445.5 -121.26)"
         id="path22172" />
      <path
         class="cls-3"
         d="M788,405.67a95.19,95.19,0,0,0,2.42,15.25c1.92,7.5-5.5,21-4.92,31.33s5.33,8,6.5-.42-.33-9.83,2.92-14.5"
         transform="translate(-445.5 -121.26)"
         id="path22174" />
      <line
         class="cls-3"
         x1="355.58"
         y1="312.91"
         x2="355"
         y2="299.16"
         id="line22176" />
      <path
         class="cls-3"
         d="M802.75,414.33s.25-5.06,8.58-9.75c6.61-3.72,7.23-13.37,7-20.16a18.18,18.18,0,0,0-1.09-6,114.74,114.74,0,0,0-7.92-15.33"
         transform="translate(-445.5 -121.26)"
         id="path22178" />
      <path
         class="cls-3"
         d="M813.92,358.92a30.06,30.06,0,0,0,4.46,6.58"
         transform="translate(-445.5 -121.26)"
         id="path22180" />
      <path
         class="cls-3"
         d="M823,329.75s2.33,6.17,1.42,10.92-1.62,7.25-.6,10.75"
         transform="translate(-445.5 -121.26)"
         id="path22182" />
      <path
         class="cls-3"
         d="M829.25,325.5s-.33,13.67,3.58,20.75"
         transform="translate(-445.5 -121.26)"
         id="path22184" />
      <path
         class="cls-3"
         d="M825.92,280.58a82.69,82.69,0,0,1,5.12,9.33c2,4.42,7,17.17,3.88,40.42"
         transform="translate(-445.5 -121.26)"
         id="path22186" />
      <path
         class="cls-3"
         d="M661.67,567.75s.33,17.33,19.08,20.58"
         transform="translate(-445.5 -121.26)"
         id="path22188" />
      <path
         class="cls-3"
         d="M697.17,579s.58,13.42-14.16,14.5-25.48-1.67-25.73-21.92a28.6,28.6,0,0,1,2.83-13.17,49.18,49.18,0,0,0,4.25-13.5"
         transform="translate(-445.5 -121.26)"
         id="path22190" />
      <path
         class="cls-3"
         d="M648.42,566.58s-12.08-3.42-12.75-15.25,2.51-19.22,2.5-24S639.25,509,639.25,509"
         transform="translate(-445.5 -121.26)"
         id="path22192" />
      <path
         class="cls-3"
         d="M605.63,468.75s-.37,6.88-1,14,3,12.5,3,18.5,6.25,16.38,11.88,21.25"
         transform="translate(-445.5 -121.26)"
         id="path22194" />
      <path
         class="cls-3"
         d="M596.09,480s-2.59-5.33,5.91-17.83"
         transform="translate(-445.5 -121.26)"
         id="path22196" />
      <path
         class="cls-3"
         d="M578.33,413.83s.67,16.25,1.5,18.33,4.33,12.42,9.08,17.92a23.11,23.11,0,0,1,5.25,12.08"
         transform="translate(-445.5 -121.26)"
         id="path22198" />
      <path
         class="cls-3"
         d="M559.83,327.42s-8.25,12.92-9.58,18.5.92,20.83,2.33,27.08,1.25,19,15.58,29.5"
         transform="translate(-445.5 -121.26)"
         id="path22200" />
      <path
         class="cls-3"
         d="M538.33,294a2.77,2.77,0,0,0-1.42,2.58c.17,1.75,2.5,13.08,3.25,16.25s-.08,8.33.42,10,2.58,7.75,4.25,9.17"
         transform="translate(-445.5 -121.26)"
         id="path22202" />
      <path
         class="cls-5"
         d="M703.13,563.13a43.85,43.85,0,0,1,1.42,8.63,1.15,1.15,0,0,0,1.6,1c5.15-2.15,20.4-10.78,16.23-36.65"
         transform="translate(-445.5 -121.26)"
         id="path22204" />
      <path
         class="cls-5"
         d="M731.25,533.25s14.13-11.62,16.13-17.12,1-12.62-2.37-18.87-7.25-20.62-.87-30.75"
         transform="translate(-445.5 -121.26)"
         id="path22206" />
      <path
         class="cls-5"
         d="M768.63,486.13s10.38-2.75,3.75-27"
         transform="translate(-445.5 -121.26)"
         id="path22208" />
      <path
         class="cls-5"
         d="M776.5,451.83a51.5,51.5,0,0,1,5.83,19"
         transform="translate(-445.5 -121.26)"
         id="path22210" />
      <path
         class="cls-5"
         d="M752.63,496a44.94,44.94,0,0,1,.75,17.75"
         transform="translate(-445.5 -121.26)"
         id="path22212" />
      <path
         class="cls-5"
         d="M788,405.67a95.19,95.19,0,0,0,2.42,15.25c1.92,7.5-5.5,21-4.92,31.33s5.33,8,6.5-.42-.33-9.83,2.92-14.5"
         transform="translate(-445.5 -121.26)"
         id="path22214" />
      <line
         class="cls-5"
         x1="355.58"
         y1="312.91"
         x2="355"
         y2="299.16"
         id="line22216" />
      <path
         class="cls-5"
         d="M802.75,414.33s.25-5.06,8.58-9.75c6.61-3.72,7.23-13.37,7-20.16a18.18,18.18,0,0,0-1.09-6,114.74,114.74,0,0,0-7.92-15.33"
         transform="translate(-445.5 -121.26)"
         id="path22218" />
      <path
         class="cls-5"
         d="M813.92,358.92a30.06,30.06,0,0,0,4.46,6.58"
         transform="translate(-445.5 -121.26)"
         id="path22220" />
      <path
         class="cls-5"
         d="M823,329.75s2.33,6.17,1.42,10.92-1.62,7.25-.6,10.75"
         transform="translate(-445.5 -121.26)"
         id="path22222" />
      <path
         class="cls-5"
         d="M829.25,325.5s-.33,13.67,3.58,20.75"
         transform="translate(-445.5 -121.26)"
         id="path22224" />
      <path
         class="cls-5"
         d="M825.92,280.58a82.69,82.69,0,0,1,5.12,9.33c2,4.42,7,17.17,3.88,40.42"
         transform="translate(-445.5 -121.26)"
         id="path22226" />
      <path
         class="cls-5"
         d="M661.67,567.75s.33,17.33,19.08,20.58"
         transform="translate(-445.5 -121.26)"
         id="path22228" />
      <path
         class="cls-5"
         d="M697.17,579s.58,13.42-14.16,14.5-25.48-1.67-25.73-21.92a28.6,28.6,0,0,1,2.83-13.17,49.18,49.18,0,0,0,4.25-13.5"
         transform="translate(-445.5 -121.26)"
         id="path22230" />
      <path
         class="cls-5"
         d="M648.42,566.58s-12.08-3.42-12.75-15.25,2.51-19.22,2.5-24S639.25,509,639.25,509"
         transform="translate(-445.5 -121.26)"
         id="path22232" />
      <path
         class="cls-5"
         d="M605.63,468.75s-.37,6.88-1,14,3,12.5,3,18.5,6.25,16.38,11.88,21.25"
         transform="translate(-445.5 -121.26)"
         id="path22234" />
      <path
         class="cls-5"
         d="M596.09,480s-2.59-5.33,5.91-17.83"
         transform="translate(-445.5 -121.26)"
         id="path22236" />
      <path
         class="cls-5"
         d="M578.33,413.83s.67,16.25,1.5,18.33,4.33,12.42,9.08,17.92a23.11,23.11,0,0,1,5.25,12.08"
         transform="translate(-445.5 -121.26)"
         id="path22238" />
      <path
         class="cls-5"
         d="M559.83,327.42s-8.25,12.92-9.58,18.5.92,20.83,2.33,27.08,1.25,19,15.58,29.5"
         transform="translate(-445.5 -121.26)"
         id="path22240" />
      <path
         class="cls-5"
         d="M538.33,294a2.77,2.77,0,0,0-1.42,2.58c.17,1.75,2.5,13.08,3.25,16.25s-.08,8.33.42,10,2.58,7.75,4.25,9.17"
         transform="translate(-445.5 -121.26)"
         id="path22242" />
    </g>
  </g>
  <g
     id="Layer_12"
     data-name="Layer 12">
    <path
       d="M668.64,323l.36-.34C669,322.73,668.9,322.84,668.64,323Z"
       transform="translate(-445.5 -121.26)"
       id="path22246" />
    <ellipse
       cx="260.33"
       cy="272.74"
       rx="2.08"
       ry="2.08"
       id="ellipse22248" />
    <path
       d="M757.88,283.38s18.24,11,18.62,22.08c.37,10.8-8,18.21-27.56,8.7a.24.24,0,0,0-.28.38c3.21,3.28,12.76,13.64,13,20.71.26,8.5-8.37,14.67-17.37,5.33s-4.37-13.08-17.87-16.08c0,0,10,11,7.37,19.75s-5.5,9.63-12,8.63c0,0,5.13-21.13-16.37-29.13.46,0,12.08,22.26,1.37,28.25,0,0-4-18.25-15.25-16.12.87.58,16.42,20.4-6.34,28.62,0,0-10.91-9.75-10.78-16.5s7.5-13,7.5-13-9.63-3.88-17.38,16.25c0,0-6.88-4.5-2.88-17,0,0,3.28-7.62,7-11.28-2.78,1.34-20.25,4.5-18.63,28.28,0,0-9.75.79-11.59-12.32a13.29,13.29,0,0,1,6.91-13.71l.18-.1s-6-5.79-15,9.54a18.13,18.13,0,0,1-6.45,6.51c-4.36,2.52-7.12,1.83-11.28-1.79-3.87-3.38-2.28-9-.57-12.73a49.07,49.07,0,0,1,11.2-15.15s-13.63,6.88-21.13,4.12-14.63-17.5,12.13-35.24c0,0-33.31,1.57-33.52,36.67a24.38,24.38,0,0,0-.12,2.82c.64,5.75-.62,27.49,29.38,34.63,0,0,21.67,4.83,36,5.5s30.76,1.62,28.26,9.5c0,0-1.63,3.75-4,4.62s6.87,3.63,7.12,8.13-7.12-8-15.62-9-20.38,6.25-31.5,5.5c0,0,12,26.63,34.12,19.37a13.83,13.83,0,0,1-4.58,3.36,11.17,11.17,0,0,0-5.54,5.92c-1.21,3.07-3.89,7.23-9.8,10.48,0,0,1.19,2.5,5.81.12,0,0,3.56,3.88-9,13,0,0,1.09,2.25,7.47-1.88a127.21,127.21,0,0,1-8.5,17.09s2.28,1,5.39-.9l.78,9.76L648,475.75,647,486.13s1.27,3.76,40,3.76,33.86-7.94,33.86-7.94,2.07-20.61.77-20.61c-5,0-21.94-28.39-21.75-33,0,0,2.62-1.75,3.06-3.87s-9.25,1.18-15.09-4.69-11.6-8.13-14.23-25.94c0,0-1.24-3.5-8.24-4.12-5.25-.47-7.73-.1-8.93-1.62a1.62,1.62,0,0,1,1.18-2.55,22.4,22.4,0,0,1,12.18,2.1c6.75,3.5,6.81,1.63,7.69,4.69s-1.56,8.63,3.5,15.19,11.31,13.56,25.44,15.25,35.31-3.31,45.62,6c0,0,2.69-7.94-4.5-12,0,0-.18-1.87,4.38-.94s8.12,1.63,9.06-2.5-.06-16-15.94-17.06-20.81-11.31-26.75-14.19c-5.44-2.63-10.3-6.21-18-8.14a2.86,2.86,0,0,1-2.18-3c.33-3.08,1.94-8,8.87-8.68,9.92-1.05,40.12.87,55.62-4.46,1-.34,7.4-2.64,8.38-3,3.8-1.38,14.22-5.53,18.75-19.63C795.38,317.62,790.88,286.12,757.88,283.38Zm-52,105.54a5.08,5.08,0,1,1-5.08,5.08A5.09,5.09,0,0,1,705.83,388.92Z"
       transform="translate(-445.5 -121.26)"
       id="path22250" />
    <path
       d="M702,371.25c-.41.29,14,7,21.88,12.75,0,0,18.75-8.5,17-14,0,0-8.25,2.5-13.12,1.38S709.88,365.63,702,371.25Z"
       transform="translate(-445.5 -121.26)"
       id="path22252" />
  </g>
  <g
     id="Layer_10"
     data-name="Layer 10">
    <path
       class="cls-6"
       d="M721.79,477.5c-.33.62-1.41.38-1.41,1.75s2,.5,1.24,2.63a6.72,6.72,0,0,1-2.62,3.24c-24.38-6.12-71.62.76-71.62.76-1.87-4.18-1.34-11.08-.87-14.72a4.08,4.08,0,0,0-1-3.25c-.8-.89-1-2.76-.93-4.22a3.71,3.71,0,0,0,.67.06,3.67,3.67,0,0,0,.94-.12c4.22,4.27,11.27,2.69,12.93,2.25,1.88-.5,5-3.5,6.26-3.71s3,1.83,3.5,2.45,7.62.26,9.12-.12c1.06-.27,4.23-3.41,6-5.22a3.58,3.58,0,0,0,1.23.22,4.16,4.16,0,0,0,.88-.1c4,5.37,11.15,4,12.78,3.85s4.5-2.13,6.24-2.5,3.76,3.87,4.76,4.25,9.5.12,9.5.12a32.28,32.28,0,0,1,2.74-2.78,3.67,3.67,0,0,0,1.77.45l.34,0c-.44,2.43-2.36,4.51-2.44,4.85S722.12,476.88,721.79,477.5Z"
       transform="translate(-445.5 -121.26)"
       id="path22255" />
    <path
       class="cls-6"
       d="M682.29,458s-1.66,1.73-3.41,1.26-.12-2.8-.69-3.45-1.5,1-2.25-.37-1.31-3.77,2.25-4.15c0,0-1.25-5.87,1.63-5.31s2.13,1.69,2.13,1.69-.25-2.37,1.38-2.37a2.86,2.86,0,0,1,3,2.25c.13,1.19,1.94-2.19,3.25-1.25a3.51,3.51,0,0,1,1.5,1.75s1,2-1.62,3.25c0,0,5.13-.14,5.19,1s-.5,3.08-2.19,3.5,2.25,2.71-2.19,4.25c0,0-2.06-.5-2.4-1.7A3.78,3.78,0,0,1,682.29,458Z"
       transform="translate(-445.5 -121.26)"
       id="path22257" />
    <path
       class="cls-6"
       d="M720.88,461.22s-2.32,1.55-3.63,1.57.13-4.16-.75-4.85-3.31,1.48-3.06-2.1,1.68-3.81,3.71-3.67-2.4-4.67,5.41-3.42c0,0,3.63-6.06,6,.56,0,0,4.31-.94,4.44,2.13s-1.13,5.93-5.44,7.68a4.07,4.07,0,0,1-3.33,3.65A3.61,3.61,0,0,1,720.88,461.22Z"
       transform="translate(-445.5 -121.26)"
       id="path22259" />
    <path
       class="cls-6"
       d="M641.6,460.46s-5.6-2.79-5.64-7,3.29-4.58,5-2.46c0,0,4.25-5.42,5.54-.25,0,0,4.63-1.08,5,1.75s5,.58,4.79,2.67-2.54,1.67-2.75,3.46,1.25,1.54,1.33,3-1,3.79-3.58,3a6.87,6.87,0,0,1-3.43-1.93,3.71,3.71,0,0,1-3.24,1A3.55,3.55,0,0,1,641.6,460.46Z"
       transform="translate(-445.5 -121.26)"
       id="path22261" />
  </g>
  <g
     id="Layer_11"
     data-name="Layer 11">
    <path
       d="M720.36,458.61a.49.49,0,0,1-.18,0,10.66,10.66,0,0,1-3.49-2.8.5.5,0,0,1,.77-.63,9.87,9.87,0,0,0,3.08,2.5.5.5,0,0,1-.18,1Z"
       transform="translate(-445.5 -121.26)"
       id="path22264" />
    <path
       d="M722.43,456.26A.5.5,0,0,1,722,456a4.81,4.81,0,0,0-2.67-2.43.5.5,0,0,1,.27-1,5.82,5.82,0,0,1,3.28,2.93.5.5,0,0,1-.44.73Z"
       transform="translate(-445.5 -121.26)"
       id="path22266" />
    <path
       d="M724.23,456a.49.49,0,0,1-.2,0,.5.5,0,0,1-.26-.66,14.46,14.46,0,0,1,2.08-3.5.5.5,0,0,1,.72.69,13.76,13.76,0,0,0-1.88,3.2A.5.5,0,0,1,724.23,456Z"
       transform="translate(-445.5 -121.26)"
       id="path22268" />
    <path
       d="M727,457.62a.5.5,0,0,1-.39-.81,13.7,13.7,0,0,0,1.62-2.47.5.5,0,1,1,.94.33,14.49,14.49,0,0,1-1.78,2.77A.5.5,0,0,1,727,457.62Z"
       transform="translate(-445.5 -121.26)"
       id="path22270" />
    <path
       d="M681.56,456.33a.5.5,0,0,1-.4-.2,4.26,4.26,0,0,0-3-1.33.5.5,0,0,1,0-1h0a5.21,5.21,0,0,1,3.79,1.74.5.5,0,0,1-.11.7A.49.49,0,0,1,681.56,456.33Z"
       transform="translate(-445.5 -121.26)"
       id="path22272" />
    <path
       d="M682.8,453.59a.5.5,0,0,1-.22-.05,7.44,7.44,0,0,1-2.65-3,.5.5,0,0,1,.9-.44,6.55,6.55,0,0,0,2.2,2.57.5.5,0,0,1-.22.95Z"
       transform="translate(-445.5 -121.26)"
       id="path22274" />
    <path
       d="M685.22,452.67h0a.5.5,0,0,1-.5-.5v-2.92a.5.5,0,0,1,.5-.5h0a.5.5,0,0,1,.5.5v2.92A.5.5,0,0,1,685.22,452.67Z"
       transform="translate(-445.5 -121.26)"
       id="path22276" />
    <path
       d="M687.12,453.2a.5.5,0,0,1-.18-1s2.23-.9,2.36-2.49a.51.51,0,0,1,.54-.46.5.5,0,0,1,.46.54c-.19,2.2-2.88,3.28-3,3.33A.49.49,0,0,1,687.12,453.2Z"
       transform="translate(-445.5 -121.26)"
       id="path22278" />
    <path
       d="M690.21,458.61a.5.5,0,0,1-.5-.44,1.4,1.4,0,0,0-1-1.3.5.5,0,0,1-.37-.6.5.5,0,0,1,.59-.38,2.39,2.39,0,0,1,1.75,2.17.5.5,0,0,1-.44.55Z"
       transform="translate(-445.5 -121.26)"
       id="path22280" />
    <path
       d="M642.58,458.07a.49.49,0,0,1-.33-.12c-.25-.22-2.45-2.17-2.5-3.64a.5.5,0,0,1,.48-.52.52.52,0,0,1,.52.48c0,.78,1.34,2.2,2.16,2.92a.5.5,0,0,1-.33.88Z"
       transform="translate(-445.5 -121.26)"
       id="path22282" />
    <path
       d="M647,457.39l-.17,0a.5.5,0,0,1-.3-.64,15.08,15.08,0,0,1,2-3.8.5.5,0,0,1,.75.66,14.45,14.45,0,0,0-1.78,3.48A.5.5,0,0,1,647,457.39Z"
       transform="translate(-445.5 -121.26)"
       id="path22284" />
    <path
       d="M648.73,459.45h0a.5.5,0,0,1,0-1c.47-.07,2.37-1,2.4-1.58a.53.53,0,0,1,.52-.48.5.5,0,0,1,.48.52C652.07,458.34,649.26,459.45,648.73,459.45Z"
       transform="translate(-445.5 -121.26)"
       id="path22286" />
    <path
       d="M652.21,462.79a16.46,16.46,0,0,1-3.79-.66.5.5,0,0,1,.29-1,15.67,15.67,0,0,0,3.5.62.5.5,0,0,1,0,1Z"
       transform="translate(-445.5 -121.26)"
       id="path22288" />
    <path
       d="M646.27,474.75a.5.5,0,0,1-.19-1c7.31-2.91,18.72-2.92,29.76-2.92,2.35,0,4.68,0,6.95,0,11.63-.14,34.69,2.41,38.61,2.86l-.11-5.12c-2.06-.07-10.23-.33-11.9-.4-1.23-.05-2-1.08-2.73-2-.52-.67-1-1.27-1.47-1.27-1,.05-1.91,1.65-2.16,2.21a.5.5,0,0,1-.45.29c-.34,0-8.45.08-10.19,0-1,0-2.35-1.19-3.75-2.4-.79-.68-2.07-1.85-2.49-1.79-.93.67-6.38,4.88-6.44,4.93a.5.5,0,0,1-.26.1c-.77.07-7.54.67-8.84.32A8.16,8.16,0,0,1,668.2,467a8.57,8.57,0,0,0-2.63-1.7c-.73-.14-1.68.81-2.61,1.73a14.2,14.2,0,0,1-1.76,1.57c-1.71,1.2-12.75,1.11-14.94,1.08a.5.5,0,0,1,0-1h0c5,.07,13.24-.12,14.35-.9a13.42,13.42,0,0,0,1.62-1.46c1.17-1.16,2.27-2.26,3.51-2a8.71,8.71,0,0,1,3.06,1.9,8.29,8.29,0,0,0,2.06,1.4c.83.22,5.5-.08,8.35-.33.82-.63,5.47-4.23,6.4-4.88s2,.45,3.68,1.88c1.09.95,2.46,2.13,3.14,2.16,1.52.07,8.29,0,9.83,0,.37-.72,1.41-2.42,2.87-2.5,1-.07,1.66.81,2.31,1.65s1.22,1.56,2,1.6c1.89.08,12.25.41,12.36.42a.5.5,0,0,1,.48.49l.13,6.17a.5.5,0,0,1-.16.38.51.51,0,0,1-.39.13c-.26,0-26.44-3.07-39.05-2.92-2.27,0-4.6,0-7,0-10.95,0-22.27,0-29.39,2.85A.51.51,0,0,1,646.27,474.75Z"
       transform="translate(-445.5 -121.26)"
       id="path22290" />
    <path
       d="M646.27,482.25a.5.5,0,0,1-.09-1c.42-.08,42.5-8,74.87-1.64a.5.5,0,0,1-.19,1c-32.18-6.3-74.07,1.56-74.49,1.64Z"
       transform="translate(-445.5 -121.26)"
       id="path22292" />
    <path
       d="M651.17,473.33a.5.5,0,0,1-.5-.5v-3.68a.5.5,0,0,1,1,0v3.68A.5.5,0,0,1,651.17,473.33Z"
       transform="translate(-445.5 -121.26)"
       id="path22294" />
    <path
       d="M655.58,472.61a.5.5,0,0,1-.5-.5v-3a.5.5,0,0,1,1,0v3A.5.5,0,0,1,655.58,472.61Z"
       transform="translate(-445.5 -121.26)"
       id="path22296" />
    <path
       d="M670.18,468.33h-8.83a.5.5,0,0,1,0-1h8.83a.5.5,0,0,1,0,1Z"
       transform="translate(-445.5 -121.26)"
       id="path22298" />
    <path
       d="M702.58,472.61a.5.5,0,0,1-.5-.5v-5.2a.5.5,0,0,1,.5-.5h5.36a.5.5,0,0,1,0,1h-4.86v4.7A.5.5,0,0,1,702.58,472.61Z"
       transform="translate(-445.5 -121.26)"
       id="path22300" />
    <path
       d="M660.07,472.17a.5.5,0,0,1-.5-.5v-3.18a.5.5,0,1,1,1,0v3.18A.5.5,0,0,1,660.07,472.17Z"
       transform="translate(-445.5 -121.26)"
       id="path22302" />
    <path
       d="M665.42,472a.5.5,0,0,1-.5-.5v-3.63a.5.5,0,1,1,1,0v3.63A.5.5,0,0,1,665.42,472Z"
       transform="translate(-445.5 -121.26)"
       id="path22304" />
    <path
       d="M670.75,472a.5.5,0,0,1-.5-.5v-3.38a.5.5,0,1,1,1,0v3.38A.5.5,0,0,1,670.75,472Z"
       transform="translate(-445.5 -121.26)"
       id="path22306" />
    <path
       d="M674.08,471.48a.5.5,0,0,1-.5-.5v-2.86a.5.5,0,0,1,1,0V471A.5.5,0,0,1,674.08,471.48Z"
       transform="translate(-445.5 -121.26)"
       id="path22308" />
    <path
       d="M693.25,472a.5.5,0,0,1-.5-.5v-3.14l-12.83-.07v3.11a.5.5,0,0,1-1,0v-3.61a.5.5,0,0,1,.15-.35.59.59,0,0,1,.36-.15l13.83.08a.5.5,0,0,1,.5.5v3.63A.5.5,0,0,1,693.25,472Z"
       transform="translate(-445.5 -121.26)"
       id="path22310" />
    <path
       d="M683.66,471.83a.5.5,0,0,1-.5-.5v-3.58a.5.5,0,0,1,1,0v3.58A.5.5,0,0,1,683.66,471.83Z"
       transform="translate(-445.5 -121.26)"
       id="path22312" />
    <path
       d="M688.45,471.83a.5.5,0,0,1-.5-.5v-3.58a.5.5,0,0,1,1,0v3.58A.5.5,0,0,1,688.45,471.83Z"
       transform="translate(-445.5 -121.26)"
       id="path22314" />
    <path
       d="M697.83,472.46a.5.5,0,0,1-.5-.5v-5a.5.5,0,0,1,1,0v5A.5.5,0,0,1,697.83,472.46Z"
       transform="translate(-445.5 -121.26)"
       id="path22316" />
    <path
       d="M693.25,468.33a.5.5,0,0,1-.5-.5v-.91a.5.5,0,0,1,1,0v.91A.5.5,0,0,1,693.25,468.33Z"
       transform="translate(-445.5 -121.26)"
       id="path22318" />
    <path
       d="M706.92,473.08a.5.5,0,0,1-.5-.5v-5.66a.5.5,0,0,1,1,0v5.66A.5.5,0,0,1,706.92,473.08Z"
       transform="translate(-445.5 -121.26)"
       id="path22320" />
    <path
       d="M712,473.69a.5.5,0,0,1-.5-.5v-5.37a.5.5,0,1,1,1,0v5.37A.5.5,0,0,1,712,473.69Z"
       transform="translate(-445.5 -121.26)"
       id="path22322" />
    <path
       d="M716.42,474.15a.5.5,0,0,1-.5-.5v-5.56a.5.5,0,0,1,1,0v5.56A.5.5,0,0,1,716.42,474.15Z"
       transform="translate(-445.5 -121.26)"
       id="path22324" />
    <path
       d="M645.25,464.25a4.25,4.25,0,0,1-.76-.07,4.28,4.28,0,1,1,.76.07Zm0-7.33a3.17,3.17,0,0,0-.58,6.28,3.28,3.28,0,0,0,1.39-.05,3.17,3.17,0,0,0-.81-6.23Z"
       transform="translate(-445.5 -121.26)"
       id="path22326" />
    <path
       d="M685.22,460a4.18,4.18,0,1,1,1.1-.15l-.11,0A4.7,4.7,0,0,1,685.22,460Zm.88-.6h0Zm-.88-6.73a3.17,3.17,0,1,0,.68,6.26l.08,0a3.16,3.16,0,0,0-.76-6.23Z"
       transform="translate(-445.5 -121.26)"
       id="path22328" />
    <path
       d="M723.89,463.29a4.14,4.14,0,0,1-2-.51,4.17,4.17,0,1,1,6.18-3.66,4.14,4.14,0,0,1-3.78,4.15Zm0-7.33a3.17,3.17,0,0,0-1.53,5.94,3.22,3.22,0,0,0,1.82.37,3.16,3.16,0,0,0-.29-6.31Z"
       transform="translate(-445.5 -121.26)"
       id="path22330" />
  </g>
  <g
     id="Layer_3"
     data-name="Layer 3">
    <path
       class="cls-7"
       d="M927,122.76V328.6a313.88,313.88,0,0,1-2.28,38c-.11.93-.24,1.86-.36,2.79,0,.2,0,.4-.08.59-.09.74-.19,1.47-.31,2.2-.46,3.37-1,6.69-1.6,10-.07.44-.15.87-.23,1.31-.16.8-.29,1.6-.45,2.4s-.34,1.79-.51,2.69l-.45,2.22-.24,1.15c-.15.71-.3,1.44-.46,2.15-.54,2.37-1.07,4.71-1.61,7l-.58,2.32-.52,2q-1.53,5.88-3.27,11.61c-.29,1-.59,1.94-.9,2.92l-.6,1.88c-.2.63-.4,1.24-.61,1.86-.37,1.09-.73,2.17-1.1,3.25s-.68,2-1,3c-.47,1.28-.93,2.56-1.39,3.81-.36,1-.73,2-1.11,3l-.19.5c-.43,1.14-.87,2.25-1.32,3.36s-.87,2.17-1.31,3.2c0,.15-.12.28-.18.42-.4,1-.8,2-1.25,3s-.76,1.75-1.13,2.62l-.66,1.49c-.48,1.07-1,2.11-1.44,3.15s-.9,2-1.36,2.93l-1,2.12c-.29.63-.6,1.25-.91,1.87-.63,1.33-1.31,2.64-2,4q-2.52,5-5.19,9.77l-2,3.57-.12.21c-1.42,2.47-2.86,4.92-4.33,7.33-.71,1.2-1.46,2.4-2.18,3.54-.11.16-.2.32-.3.47-.55.89-1.12,1.78-1.69,2.66l-.65,1c-.65,1-1.31,2-2,3l-.13.18c-.65,1-1.31,2-2,3l-.45.67q-2.25,3.29-4.54,6.46l-.31.43c-.8,1.07-1.54,2.14-2.31,3.19s-1.66,2.23-2.5,3.32c-1.52,2-3.06,4-4.61,6l-.81,1q-1.09,1.39-2.22,2.76L854,526.61l-.57.69c-.8.94-1.6,1.87-2.41,2.8q-2.82,3.32-5.72,6.53c-.75.85-1.52,1.69-2.29,2.51s-1.47,1.6-2.22,2.4q-3,3.2-5.93,6.24-2.76,2.82-5.53,5.59c-.92.91-1.84,1.82-2.76,2.71s-1.85,1.78-2.79,2.66l-2.28,2.12c-.68.65-1.36,1.28-2,1.91a449.24,449.24,0,0,1-61.76,47.47c-.86.55-1.72,1.1-2.57,1.6q-6.43,4.06-12.47,7.63l-2.41,1.4-2.36,1.37-2.33,1.34-2.23,1.29c-8.34,4.68-15.9,8.59-22.38,11.76l-1.6.8c-10.64,5.15-18.12,8.22-21,9.35l-.42.17-.61.24-.14,0h-.08l-.23-.09-.21,0-1.07-.42-.54-.23c-.87-.34-2-.8-3.37-1.38l-.46-.18c-1.76-.8-3.89-1.67-6.33-2.77l-1.39-.61a442.25,442.25,0,0,1-39.75-20.6c-.8-.44-1.6-.92-2.35-1.38a474,474,0,0,1-44.78-30l-2.63-2c-1-.75-2-1.51-2.94-2.29l-2.81-2.21c-6.19-4.92-12.43-10.15-18.64-15.69L558.08,566q-2.31-2.05-4.59-4.2l-1.67-1.57L550,558.54l-2-1.94c-1.12-1.07-2.23-2.17-3.33-3.27-.85-.79-1.69-1.66-2.52-2.5l-.24-.26c-.84-.83-1.67-1.67-2.5-2.51-.66-.68-1.32-1.36-2-2l-2-2.06-.13-.15-2.1-2.25q-3.36-3.6-6.66-7.36c-.68-.79-1.36-1.54-2.05-2.34-.57-.65-1.12-1.29-1.66-1.94q-1-1.2-2-2.4-4.28-5.1-8.39-10.48c-.76-1-1.5-1.93-2.24-2.92-1.89-2.47-3.73-5-5.57-7.55-.55-.8-1.12-1.59-1.68-2.39-.13-.16-.24-.34-.36-.5-.59-.86-1.19-1.7-1.77-2.56-.94-1.38-1.89-2.77-2.81-4.17-.74-1.09-1.47-2.2-2.19-3.31a1,1,0,0,0-.15-.24l-2.22-3.48-.22-.36c-.7-1.14-1.41-2.27-2.1-3.4s-1.49-2.46-2.21-3.71-1.43-2.39-2.13-3.67q-4.61-8-8.77-16.46c-.35-.69-.69-1.38-1-2.09-.22-.44-.44-.88-.65-1.35-.43-.87-.8-1.74-1.25-2.63a25.91,25.91,0,0,1-1.15-2.47l-.23-.48c-.27-.58-.53-1.16-.81-1.75l-.26-.57c-.27-.59-.52-1.19-.8-1.78q-1.44-3.25-2.79-6.57c-.42-1-.8-2-1.23-3.08-.1-.25-.21-.52-.31-.79-.4-1-.8-2-1.16-3s-.69-1.82-1-2.74l-.24-.65c-.17-.44-.33-.91-.49-1.35q-1-2.7-1.9-5.44c-.21-.6-.4-1.2-.6-1.8-.26-.8-.51-1.54-.75-2.32-.14-.41-.27-.8-.4-1.22-.25-.8-.49-1.59-.75-2.39-.31-1-.61-2.06-.92-3.11-.19-.64-.39-1.28-.57-1.95-.37-1.29-.74-2.58-1.09-3.89-.19-.68-.37-1.35-.55-2-.13-.5-.27-1-.4-1.51-.32-1.22-.62-2.45-.92-3.7-.18-.7-.34-1.4-.52-2.11-.07-.28-.13-.56-.19-.85-.37-1.55-.72-3.11-1.07-4.69-.26-1.16-.5-2.33-.74-3.5-.13-.71-.29-1.43-.42-2.14s-.32-1.59-.48-2.45a1.86,1.86,0,0,0-.09-.47c-.16-.8-.3-1.64-.45-2.48s-.32-1.84-.48-2.77-.29-1.8-.45-2.71q-.57-3.7-1.07-7.47c-.17-1.23-.33-2.47-.48-3.71A312.7,312.7,0,0,1,447,328.58V122.76Z"
       transform="translate(-445.5 -121.26)"
       id="path22333" />
  </g>
  <path
     id="shine"
     d="M 1.6600024,0.963124 V 207.34 c 0,229.66454 239.9199976,319.6031 239.9199976,319.6031 0,0 239.92,-89.93856 239.92,-319.6031 V 0.963124 Z"
     style="fill:url(#rg);stroke:#000000;stroke-width:2.41218" />
</svg>
