<?xml version="1.0" encoding="UTF-8" standalone="no"?>
<svg
   viewBox="0 0 600 660"
   version="1.1"
   id="svg29"
   sodipodi:docname="House_Beesbury.svg"
   inkscape:version="1.2.1 (9c6d41e410, 2022-07-14)"
   xmlns:inkscape="http://www.inkscape.org/namespaces/inkscape"
   xmlns:sodipodi="http://sodipodi.sourceforge.net/DTD/sodipodi-0.dtd"
   xmlns:xlink="http://www.w3.org/1999/xlink"
   xmlns="http://www.w3.org/2000/svg"
   xmlns:svg="http://www.w3.org/2000/svg">
   <sodipodi:namedview
      id="namedview31"
      pagecolor="#ffffff"
      bordercolor="#000000"
      borderopacity="0.25"
      inkscape:showpageshadow="2"
      inkscape:pageopacity="0.0"
      inkscape:pagecheckerboard="0"
      inkscape:deskcolor="#d1d1d1"
      showgrid="false"
      inkscape:zoom="0.45254834"
      inkscape:cx="-118.21942"
      inkscape:cy="554.63688"
      inkscape:window-width="1920"
      inkscape:window-height="1017"
      inkscape:window-x="-8"
      inkscape:window-y="-8"
      inkscape:window-maximized="1"
      inkscape:current-layer="svg29" />
   <defs
      id="defs12">
      <radialGradient
         id="rg"
         gradientUnits="userSpaceOnUse"
         cx="220"
         cy="220"
         r="405">
         <stop
            style="stop-color:#fff;stop-opacity:.3"
            offset="0"
            id="stop2" />
         <stop
            style="stop-color:#fff;stop-opacity:.2"
            offset=".2"
            id="stop4" />
         <stop
            style="stop-color:#666;stop-opacity:.1"
            offset=".6"
            id="stop6" />
         <stop
            style="stop-color:#000;stop-opacity:.13"
            offset="1"
            id="stop8" />
      </radialGradient>
      <path
         id="shield"
         d="m2,2v257c0,286 298,398 298,398c0,0 298-112 298-398V2z" />
   </defs>
   <use
      id="background"
      xlink:href="#shield"
      fill="#000" />
   <g
      id="beehive-6-2"
      fill="#ffff00"
      stroke="#aaaa00"
      transform="matrix(1.0002668,0,0,1.0347395,-0.07947867,197.13802)"
      style="stroke:#ffe53c;stroke-opacity:1">
      <path
         d="m 301.49973,180.68775 c 31.94628,0 50.88342,-9.15862 50.88342,-9.15862 5.16444,-2.19615 4.59102,-14.92978 0,-16.90578 0,0 6.12081,-9.22091 -0.38228,-16.24667 0,0 4.78216,-9.66021 -2.67828,-16.46681 0,0 2.29567,-9.00143 -4.39987,-14.49015 0,0 2.48681,-10.538799 -5.92999,-15.58888 0,0 0,-11.415412 -8.79975,-13.831041 0,0 -1.33897,-10.319315 -13.39042,-11.197906 0,0 -4.2084,-8.844563 -15.30349,-8.844563 -11.09476,0 -15.30316,8.844563 -15.30316,8.844563 -12.05178,0.878261 -13.39042,11.197906 -13.39042,11.197906 -8.79942,2.415629 -8.79942,13.831041 -8.79942,13.831041 -8.41713,5.050081 -5.93032,15.58888 -5.93032,15.58888 -6.69554,5.48839 -4.39987,14.49015 -4.39987,14.49015 -7.46044,6.8066 -2.67795,16.46681 -2.67795,16.46681 -6.50408,7.02378 -0.38261,16.24667 -0.38261,16.24667 -4.59102,1.976 -5.1651,14.70963 0,16.90578 9.8e-4,0 18.93879,9.15862 50.88441,9.15862 z"
         id="path17-8-9"
         style="fill:#f4d71d;fill-opacity:1;stroke:#090909;stroke-opacity:1" />
      <path
         fill="#555500"
         d="m 301.49973,180.68775 c 2.43705,0 4.79632,-0.054 7.07848,-0.15324 v -5.55595 c 0,-4.48555 -3.16931,-8.12284 -7.07848,-8.12284 -3.90884,0 -7.07783,3.63729 -7.07783,8.12284 v 5.55595 c 2.28216,0.0992 4.64177,0.15324 7.07783,0.15324 z"
         id="path19-9-4"
         style="fill:#070707;fill-opacity:1;stroke:#080808;stroke-opacity:1" />
      <path
         fill="none"
         d="m 316.80322,66.803211 c 0,0 -3.82513,3.388472 -15.30349,3.388472 -11.47737,0 -15.30316,-3.388472 -15.30316,-3.388472 m 43.99641,11.197577 c 0,0 -13.77271,6.524175 -28.69325,6.524175 -14.92022,0 -28.69359,-6.524175 -28.69359,-6.524175 m 66.18725,13.831041 c 0,0 -16.64214,8.060554 -37.49366,8.060554 -20.85087,0 -37.493,-8.060554 -37.493,-8.060554 m 80.91665,15.588221 c 0,0 -21.61642,8.28037 -43.42365,8.28037 -21.8069,0 -43.42266,-8.28037 -43.42266,-8.28037 m 91.24552,14.49015 c 0,0 -22.18984,9.37877 -47.82286,9.37877 -25.63269,0 -47.82286,-9.37877 -47.82286,-9.37877 m 98.324,16.46681 c 0,0 -22.19017,10.47618 -50.50114,10.47618 -28.31097,0 -50.50048,-10.47618 -50.50048,-10.47618 m 101.3839,16.24634 c 0,0 -18.93714,9.75545 -50.88342,9.75545 -31.94595,0 -50.88343,-9.75545 -50.88343,-9.75545"
         id="path21-8-3"
         style="stroke:#080808;stroke-opacity:1" />
   </g>
   <g
      id="beehive-6-1"
      fill="#ffff00"
      stroke="#aaaa00"
      transform="matrix(1.0002668,0,0,1.0347395,-0.07853111,395.38531)"
      style="stroke:#ffe53c;stroke-opacity:1">
      <path
         d="m 301.49973,180.68775 c 31.94628,0 50.88342,-9.15862 50.88342,-9.15862 5.16444,-2.19615 4.59102,-14.92978 0,-16.90578 0,0 6.12081,-9.22091 -0.38228,-16.24667 0,0 4.78216,-9.66021 -2.67828,-16.46681 0,0 2.29567,-9.00143 -4.39987,-14.49015 0,0 2.48681,-10.538799 -5.92999,-15.58888 0,0 0,-11.415412 -8.79975,-13.831041 0,0 -1.33897,-10.319315 -13.39042,-11.197906 0,0 -4.2084,-8.844563 -15.30349,-8.844563 -11.09476,0 -15.30316,8.844563 -15.30316,8.844563 -12.05178,0.878261 -13.39042,11.197906 -13.39042,11.197906 -8.79942,2.415629 -8.79942,13.831041 -8.79942,13.831041 -8.41713,5.050081 -5.93032,15.58888 -5.93032,15.58888 -6.69554,5.48839 -4.39987,14.49015 -4.39987,14.49015 -7.46044,6.8066 -2.67795,16.46681 -2.67795,16.46681 -6.50408,7.02378 -0.38261,16.24667 -0.38261,16.24667 -4.59102,1.976 -5.1651,14.70963 0,16.90578 9.8e-4,0 18.93879,9.15862 50.88441,9.15862 z"
         id="path17-8-7"
         style="fill:#f4d71d;fill-opacity:1;stroke:#030303;stroke-opacity:1" />
      <path
         fill="#555500"
         d="m 301.49973,180.68775 c 2.43705,0 4.79632,-0.054 7.07848,-0.15324 v -5.55595 c 0,-4.48555 -3.16931,-8.12284 -7.07848,-8.12284 -3.90884,0 -7.07783,3.63729 -7.07783,8.12284 v 5.55595 c 2.28216,0.0992 4.64177,0.15324 7.07783,0.15324 z"
         id="path19-9-42"
         style="fill:#040404;fill-opacity:1;stroke:#040404;stroke-opacity:1" />
      <path
         fill="none"
         d="m 316.80322,66.803211 c 0,0 -3.82513,3.388472 -15.30349,3.388472 -11.47737,0 -15.30316,-3.388472 -15.30316,-3.388472 m 43.99641,11.197577 c 0,0 -13.77271,6.524175 -28.69325,6.524175 -14.92022,0 -28.69359,-6.524175 -28.69359,-6.524175 m 66.18725,13.831041 c 0,0 -16.64214,8.060554 -37.49366,8.060554 -20.85087,0 -37.493,-8.060554 -37.493,-8.060554 m 80.91665,15.588221 c 0,0 -21.61642,8.28037 -43.42365,8.28037 -21.8069,0 -43.42266,-8.28037 -43.42266,-8.28037 m 91.24552,14.49015 c 0,0 -22.18984,9.37877 -47.82286,9.37877 -25.63269,0 -47.82286,-9.37877 -47.82286,-9.37877 m 98.324,16.46681 c 0,0 -22.19017,10.47618 -50.50114,10.47618 -28.31097,0 -50.50048,-10.47618 -50.50048,-10.47618 m 101.3839,16.24634 c 0,0 -18.93714,9.75545 -50.88342,9.75545 -31.94595,0 -50.88343,-9.75545 -50.88343,-9.75545"
         id="path21-8-30"
         style="stroke:#050505;stroke-opacity:1" />
   </g>
   <g
      id="beehive-6"
      fill="#ffff00"
      stroke="#aaaa00"
      transform="matrix(1.0002668,0,0,1.0347395,-0.08042623,-4.5637044)"
      style="stroke:#ffe53c;stroke-opacity:1">
      <path
         d="m 301.49973,180.68775 c 31.94628,0 50.88342,-9.15862 50.88342,-9.15862 5.16444,-2.19615 4.59102,-14.92978 0,-16.90578 0,0 6.12081,-9.22091 -0.38228,-16.24667 0,0 4.78216,-9.66021 -2.67828,-16.46681 0,0 2.29567,-9.00143 -4.39987,-14.49015 0,0 2.48681,-10.538799 -5.92999,-15.58888 0,0 0,-11.415412 -8.79975,-13.831041 0,0 -1.33897,-10.319315 -13.39042,-11.197906 0,0 -4.2084,-8.844563 -15.30349,-8.844563 -11.09476,0 -15.30316,8.844563 -15.30316,8.844563 -12.05178,0.878261 -13.39042,11.197906 -13.39042,11.197906 -8.79942,2.415629 -8.79942,13.831041 -8.79942,13.831041 -8.41713,5.050081 -5.93032,15.58888 -5.93032,15.58888 -6.69554,5.48839 -4.39987,14.49015 -4.39987,14.49015 -7.46044,6.8066 -2.67795,16.46681 -2.67795,16.46681 -6.50408,7.02378 -0.38261,16.24667 -0.38261,16.24667 -4.59102,1.976 -5.1651,14.70963 0,16.90578 9.8e-4,0 18.93879,9.15862 50.88441,9.15862 z"
         id="path17-8"
         style="fill:#f4d71d;fill-opacity:1;stroke:#0b0b0b;stroke-opacity:1" />
      <path
         fill="#555500"
         d="m 301.49973,180.68775 c 2.43705,0 4.79632,-0.054 7.07848,-0.15324 v -5.55595 c 0,-4.48555 -3.16931,-8.12284 -7.07848,-8.12284 -3.90884,0 -7.07783,3.63729 -7.07783,8.12284 v 5.55595 c 2.28216,0.0992 4.64177,0.15324 7.07783,0.15324 z"
         id="path19-9"
         style="fill:#090909;fill-opacity:1;stroke:#080808;stroke-opacity:1" />
      <path
         fill="none"
         d="m 316.80322,66.803211 c 0,0 -3.82513,3.388472 -15.30349,3.388472 -11.47737,0 -15.30316,-3.388472 -15.30316,-3.388472 m 43.99641,11.197577 c 0,0 -13.77271,6.524175 -28.69325,6.524175 -14.92022,0 -28.69359,-6.524175 -28.69359,-6.524175 m 66.18725,13.831041 c 0,0 -16.64214,8.060554 -37.49366,8.060554 -20.85087,0 -37.493,-8.060554 -37.493,-8.060554 m 80.91665,15.588221 c 0,0 -21.61642,8.28037 -43.42365,8.28037 -21.8069,0 -43.42266,-8.28037 -43.42266,-8.28037 m 91.24552,14.49015 c 0,0 -22.18984,9.37877 -47.82286,9.37877 -25.63269,0 -47.82286,-9.37877 -47.82286,-9.37877 m 98.324,16.46681 c 0,0 -22.19017,10.47618 -50.50114,10.47618 -28.31097,0 -50.50048,-10.47618 -50.50048,-10.47618 m 101.3839,16.24634 c 0,0 -18.93714,9.75545 -50.88342,9.75545 -31.94595,0 -50.88343,-9.75545 -50.88343,-9.75545"
         id="path21-8"
         style="stroke:#0b0b0b;stroke-opacity:1" />
   </g>
   <path
      fill="#ff0"
      d="M 2 2 L 2 259 C 2 346.03696 29.600288 416.95884 68 473.51367 L 68 2 L 2 2 z M 134 2 L 134 550.01953 C 156.15951 570.7364 178.81896 588.21409 200 602.63281 L 200 2 L 134 2 z M 400 2 L 400 602.63281 C 421.18104 588.21409 443.84049 570.7364 466 550.01953 L 466 2 L 400 2 z M 532 2 L 532 473.51367 C 570.39971 416.95884 598 346.03696 598 259 L 598 2 L 532 2 z"
      id="path15"
      style="fill:#f4d71d;fill-opacity:1" />
   <use
      id="shine"
      xlink:href="#shield"
      fill="url(#rg)"
      stroke="#000"
      stroke-width="3" />
</svg>