<?xml version="1.0" encoding="UTF-8" standalone="no"?>
<svg
   viewBox="0 0 483 527.48"
   version="1.1"
   id="svg39403"
   sodipodi:docname="House Blacktyde.svg"
   inkscape:version="1.2.1 (9c6d41e410, 2022-07-14)"
   xmlns:inkscape="http://www.inkscape.org/namespaces/inkscape"
   xmlns:sodipodi="http://sodipodi.sourceforge.net/DTD/sodipodi-0.dtd"
   xmlns="http://www.w3.org/2000/svg"
   xmlns:svg="http://www.w3.org/2000/svg">
  <sodipodi:namedview
     id="namedview39405"
     pagecolor="#ffffff"
     bordercolor="#000000"
     borderopacity="0.25"
     inkscape:showpageshadow="2"
     inkscape:pageopacity="0.0"
     inkscape:pagecheckerboard="0"
     inkscape:deskcolor="#d1d1d1"
     showgrid="false"
     inkscape:zoom="1.12203"
     inkscape:cx="180.03083"
     inkscape:cy="280.74115"
     inkscape:window-width="1920"
     inkscape:window-height="1017"
     inkscape:window-x="-8"
     inkscape:window-y="-8"
     inkscape:window-maximized="1"
     inkscape:current-layer="svg39403" />
  <defs
     id="defs39360">
    <style
       id="style39358">.cls-1{fill:#171717;}.cls-2{fill:#0a550a;}.cls-3{fill:none;stroke:#000;stroke-width:3px;}</style>
    <radialGradient
       id="rg"
       gradientUnits="userSpaceOnUse"
       cx="220"
       cy="220"
       r="405"
       gradientTransform="matrix(0.80510068,0,0,0.80302287,-0.0301995,-0.89702386)">
      <stop
         style="stop-color:#ffffff;stop-opacity:.3"
         offset="0"
         id="stop753" />
      <stop
         style="stop-color:#ffffff;stop-opacity:.2"
         offset=".2"
         id="stop755" />
      <stop
         style="stop-color:#666666;stop-opacity:.1"
         offset=".6"
         id="stop757" />
      <stop
         style="stop-color:#000000;stop-opacity:.13"
         offset="1"
         id="stop759" />
    </radialGradient>
  </defs>
  <title
     id="title39362">House Blacktyde</title>
  <g
     id="Layer_2"
     data-name="Layer 2">
    <path
       class="cls-1"
       d="M927,122.76V328.6a313.88,313.88,0,0,1-2.28,38c-.11.93-.24,1.86-.36,2.79,0,.11,0,.23,0,.34h0l0,.24c-.09.74-.19,1.47-.31,2.2-.46,3.37-1,6.69-1.6,10-.07.44-.15.87-.23,1.31-.16.8-.29,1.6-.45,2.4s-.34,1.79-.51,2.69l-.45,2.22-.24,1.15c-.15.71-.3,1.44-.46,2.15-.54,2.37-1.07,4.71-1.61,7l-.3,1.22-.28,1.1-.52,2c-.81,3.1-1.66,6.18-2.55,9.22l-.72,2.39c-.29,1-.59,1.94-.9,2.92l-.6,1.88c-.2.63-.4,1.24-.61,1.86-.37,1.09-.73,2.17-1.1,3.25s-.68,2-1,3c-.47,1.28-.93,2.56-1.39,3.81-.36,1-.73,2-1.11,3l-.19.5c-.43,1.14-.87,2.25-1.32,3.36s-.87,2.17-1.31,3.2c0,.15-.12.28-.18.42-.4,1-.8,2-1.25,3s-.76,1.75-1.13,2.62l-.66,1.49c-.48,1.07-1,2.11-1.44,3.15s-.9,2-1.36,2.93l-1,2.12c-.29.63-.6,1.25-.91,1.87-.63,1.33-1.31,2.64-2,4q-2.52,5-5.19,9.77l-2,3.57-.12.21c-1.42,2.47-2.86,4.92-4.33,7.33-.71,1.2-1.46,2.4-2.18,3.54-.11.16-.2.32-.3.47-.55.89-1.12,1.78-1.69,2.66l-.65,1c-.65,1-1.31,2-2,3l-.13.18c-.65,1-1.31,2-2,3l-.45.67q-2.25,3.29-4.54,6.46l-.31.43c-.8,1.07-1.54,2.14-2.31,3.19s-1.66,2.23-2.5,3.32c-1.52,2-3.06,4-4.61,6l-.81,1q-1.09,1.39-2.22,2.76L854,526.61l-.57.69c-.8.94-1.6,1.87-2.41,2.8q-2.82,3.32-5.72,6.53c-.66.74-1.33,1.48-2,2.2l-.29.31c-.76.82-1.47,1.6-2.22,2.4-1.36,1.47-2.72,2.92-4.1,4.34-.6.64-1.22,1.27-1.83,1.9q-2.76,2.82-5.53,5.59c-.92.91-1.84,1.82-2.76,2.71s-1.85,1.78-2.79,2.66l-2.28,2.12c-.68.65-1.36,1.28-2,1.91q-14.57,13.35-30.26,25.39-15.27,11.7-31.5,22.08c-.86.55-1.72,1.1-2.57,1.6q-6.43,4.06-12.47,7.63l-2.41,1.4-2.36,1.37-2.33,1.34-2.23,1.29q-4.56,2.57-8.8,4.81c-4.91,2.62-9.46,4.94-13.58,7l-1.6.8c-10.64,5.15-18.12,8.22-21,9.35l-.42.17-.61.24-.14,0h-.08l-.23-.09-.21,0-1.07-.42-.54-.23c-.87-.34-2-.8-3.37-1.38l-.46-.18c-1.76-.8-3.89-1.67-6.33-2.77l-1.39-.61q-11.22-5.11-22.15-10.86-8.91-4.66-17.6-9.74c-.8-.44-1.6-.92-2.35-1.38a472.68,472.68,0,0,1-44.72-29.94l-.06,0-2.63-2c-1-.75-2-1.51-2.94-2.29l-2.81-2.21c-6.19-4.92-12.43-10.15-18.64-15.69L558.08,566q-2.31-2.05-4.59-4.2l-1.67-1.57L550,558.54l-2-1.94c-1.12-1.07-2.23-2.17-3.33-3.27-.85-.79-1.69-1.66-2.52-2.5l-.24-.26c-.84-.83-1.67-1.67-2.5-2.51-.5-.52-1-1-1.5-1.56l-.47-.49-2-2.06-.13-.15-2.1-2.25c-.84-.9-1.67-1.81-2.51-2.72q-2.08-2.3-4.15-4.64c-.68-.79-1.36-1.54-2.05-2.34-.57-.65-1.12-1.29-1.66-1.94q-1-1.2-2-2.4-4.28-5.1-8.39-10.48c-.76-1-1.5-1.93-2.24-2.92-1.89-2.47-3.73-5-5.57-7.55-.55-.8-1.12-1.59-1.68-2.39-.13-.16-.24-.34-.36-.5-.59-.86-1.19-1.7-1.77-2.56-.94-1.38-1.89-2.77-2.81-4.17-.74-1.09-1.47-2.2-2.19-3.31a1,1,0,0,0-.15-.24l-2.22-3.48-.22-.36c-.7-1.14-1.41-2.27-2.1-3.4s-1.49-2.46-2.21-3.71-1.43-2.39-2.13-3.67q-4.61-8-8.77-16.46c-.35-.69-.69-1.38-1-2.09-.22-.44-.44-.88-.65-1.35-.43-.87-.8-1.74-1.25-2.63a25.91,25.91,0,0,1-1.15-2.47l-.23-.48c-.27-.58-.53-1.16-.81-1.75l-.26-.57c-.27-.59-.52-1.19-.8-1.78q-1.44-3.25-2.79-6.57c-.42-1-.8-2-1.23-3.08-.1-.25-.21-.52-.31-.79-.4-1-.8-2-1.16-3s-.69-1.82-1-2.74l-.24-.65c-.17-.44-.33-.91-.49-1.35q-1-2.7-1.9-5.44c-.21-.6-.4-1.2-.6-1.8-.26-.8-.51-1.54-.75-2.32-.14-.41-.27-.8-.4-1.22-.25-.8-.49-1.59-.75-2.39l-.09-.28-.83-2.83c-.19-.64-.39-1.28-.57-1.95-.37-1.29-.74-2.58-1.09-3.89-.19-.68-.37-1.35-.55-2-.13-.5-.27-1-.4-1.51-.26-1-.51-2-.75-3-.06-.23-.11-.46-.17-.69-.18-.7-.34-1.4-.52-2.11-.07-.28-.13-.56-.19-.85-.37-1.55-.72-3.11-1.07-4.69-.26-1.16-.5-2.33-.74-3.5-.13-.71-.29-1.43-.42-2.14s-.32-1.59-.48-2.45a1.86,1.86,0,0,0-.09-.47c-.16-.8-.3-1.64-.45-2.48s-.32-1.84-.48-2.77-.29-1.8-.45-2.71q-.57-3.7-1.07-7.47c-.17-1.23-.33-2.47-.48-3.71,0-.38-.09-.76-.13-1.14s-.11-.88-.15-1.32a309.9,309.9,0,0,1-2-35.25V122.76Z"
       transform="translate(-445.5 -121.26)"
       id="path39364" />
  </g>
  <g
     id="Layer_5"
     data-name="Layer 5">
    <polygon
       class="cls-2"
       points="236.83 141.07 205.17 173.74 205.17 243.74 172.83 275.41 140.5 243.74 140.5 173.74 108.83 141.07 236.83 141.07"
       id="polygon39367" />
    <polygon
       class="cls-2"
       points="375.33 141.07 343.67 173.74 343.67 243.74 311.33 275.41 279 243.74 279 173.74 247.33 141.07 375.33 141.07"
       id="polygon39369" />
    <polygon
       class="cls-2"
       points="481.5 141.07 387.33 141.07 419 173.74 419 243.74 451.33 275.41 478.81 248.5 478.82 248.49 481.5 141.07"
       id="polygon39371" />
    <polygon
       class="cls-2"
       points="445.33 1.07 413.67 33.74 413.67 103.74 381.33 135.41 349 103.74 349 33.74 317.33 1.07 445.33 1.07"
       id="polygon39373" />
    <polygon
       class="cls-2"
       points="305.8 1.07 274.14 33.74 274.14 103.74 241.8 135.41 209.47 103.74 209.47 33.74 177.8 1.07 305.8 1.07"
       id="polygon39375" />
    <polygon
       class="cls-2"
       points="167.8 1.07 136.14 33.74 136.14 103.74 103.8 135.41 71.47 103.74 71.47 33.74 39.8 1.07 167.8 1.07"
       id="polygon39377" />
    <polygon
       class="cls-2"
       points="99.8 141.07 68.14 173.74 68.14 243.74 35.8 275.41 3.62 243.89 3.47 243.74 3.47 173.74 1.5 171.71 1.5 141.07 99.8 141.07"
       id="polygon39379" />
    <polygon
       class="cls-2"
       points="167.8 281.07 136.14 313.74 136.14 383.74 103.8 415.41 71.47 383.74 71.47 313.74 39.8 281.07 167.8 281.07"
       id="polygon39381" />
    <path
       class="cls-2"
       d="M474.8,402.33,460,417.55l-.83-2.83c-.19-.64-.39-1.28-.57-1.95-.37-1.29-.74-2.58-1.09-3.89-.19-.68-.37-1.35-.55-2-.13-.5-.27-1-.4-1.51-.26-1-.51-2-.75-3Z"
       transform="translate(-445.5 -121.26)"
       id="path39383" />
    <path
       class="cls-2"
       d="M918.12,402.33l-.28,1.1-.52,2c-.81,3.1-1.66,6.18-2.55,9.22l-12-12.35Z"
       transform="translate(-445.5 -121.26)"
       id="path39385" />
    <polygon
       class="cls-2"
       points="445.33 281.07 413.67 313.74 413.67 383.74 381.33 415.41 349 383.74 349 313.74 317.33 281.07 445.33 281.07"
       id="polygon39387" />
    <polygon
       class="cls-2"
       points="306.3 281.07 274.64 313.74 274.64 383.74 242.3 415.41 209.97 383.74 209.97 313.74 178.3 281.07 306.3 281.07"
       id="polygon39389" />
    <path
       class="cls-2"
       d="M683,538.83,651.34,571.5v59.18q-8.91-4.66-17.6-9.74c-.8-.44-1.6-.92-2.35-1.38a472.68,472.68,0,0,1-44.72-29.94V571.5L555,538.83Z"
       transform="translate(-445.5 -121.26)"
       id="path39391" />
    <path
       class="cls-2"
       d="M820.83,538.83,789.17,571.5v16.66q-15.27,11.7-31.5,22.08c-.86.55-1.72,1.1-2.57,1.6q-6.43,4.06-12.47,7.63l-2.41,1.4-2.36,1.37-2.33,1.34-2.23,1.29q-4.56,2.57-8.8,4.81V571.5l-31.67-32.67Z"
       transform="translate(-445.5 -121.26)"
       id="path39393" />
    <path
       class="cls-2"
       d="M843.28,538.83l-.29.31c-.76.82-1.47,1.6-2.22,2.4-1.36,1.47-2.72,2.92-4.1,4.34l-6.84-7Z"
       transform="translate(-445.5 -121.26)"
       id="path39395" />
    <path
       class="cls-2"
       d="M545.3,538.83l-7.43,7.67-.47-.49-2-2.06-.13-.15-2.1-2.25c-.84-.9-1.67-1.81-2.51-2.72Z"
       transform="translate(-445.5 -121.26)"
       id="path39397" />
  </g>
  <g
     id="Layer_3"
     data-name="Layer 3">
    <path
       class="cls-3"
       d="M927,122.76V328.6a313.88,313.88,0,0,1-2.28,38c-.11.93-.24,1.86-.36,2.79,0,.12,0,.24,0,.35l0,.24c-.09.74-.19,1.47-.31,2.2-.46,3.37-1,6.69-1.6,10-.07.44-.15.87-.23,1.31-.16.8-.29,1.6-.45,2.4s-.34,1.79-.51,2.69l-.45,2.22-.24,1.15c-.15.71-.3,1.44-.46,2.15-.54,2.37-1.07,4.71-1.61,7l-.3,1.22-.28,1.1-.52,2c-.81,3.1-1.66,6.18-2.55,9.22l-.72,2.39c-.29,1-.59,1.94-.9,2.92l-.6,1.88c-.2.63-.4,1.24-.61,1.86-.37,1.09-.73,2.17-1.1,3.25s-.68,2-1,3c-.47,1.28-.93,2.56-1.39,3.81-.36,1-.73,2-1.11,3l-.19.5c-.43,1.14-.87,2.25-1.32,3.36s-.87,2.17-1.31,3.2c0,.15-.12.28-.18.42-.4,1-.8,2-1.25,3s-.76,1.75-1.13,2.62l-.66,1.49c-.48,1.07-1,2.11-1.44,3.15s-.9,2-1.36,2.93l-1,2.12c-.29.63-.6,1.25-.91,1.87-.63,1.33-1.31,2.64-2,4q-2.52,5-5.19,9.77l-2,3.57-.12.21c-1.42,2.47-2.86,4.92-4.33,7.33-.71,1.2-1.46,2.4-2.18,3.54-.11.16-.2.32-.3.47-.55.89-1.12,1.78-1.69,2.66l-.65,1c-.65,1-1.31,2-2,3l-.13.18c-.65,1-1.31,2-2,3l-.45.67q-2.25,3.29-4.54,6.46l-.31.43c-.8,1.07-1.54,2.14-2.31,3.19s-1.66,2.23-2.5,3.32c-1.52,2-3.06,4-4.61,6l-.81,1q-1.09,1.39-2.22,2.76L854,526.61l-.57.69c-.8.94-1.6,1.87-2.41,2.8q-2.82,3.32-5.72,6.53c-.66.74-1.33,1.48-2,2.2l-.29.31c-.76.82-1.47,1.6-2.22,2.4-1.36,1.47-2.72,2.92-4.1,4.34-.6.64-1.22,1.27-1.83,1.9q-2.76,2.82-5.53,5.59c-.92.91-1.84,1.82-2.76,2.71s-1.85,1.78-2.79,2.66l-2.28,2.12c-.68.65-1.36,1.28-2,1.91q-14.57,13.35-30.26,25.39-15.27,11.7-31.5,22.08c-.86.55-1.72,1.1-2.57,1.6q-6.43,4.06-12.47,7.63l-2.41,1.4-2.36,1.37-2.33,1.34-2.23,1.29q-4.56,2.57-8.8,4.81c-4.91,2.62-9.46,4.94-13.58,7l-1.6.8c-10.64,5.15-18.12,8.22-21,9.35l-.42.17-.61.24-.14,0h-.08l-.23-.09-.21,0-1.07-.42-.54-.23c-.87-.34-2-.8-3.37-1.38l-.46-.18c-1.76-.8-3.89-1.67-6.33-2.77l-1.39-.61q-11.22-5.11-22.15-10.86-8.91-4.66-17.6-9.74c-.8-.44-1.6-.92-2.35-1.38a472.68,472.68,0,0,1-44.72-29.94l-.06,0-2.63-2c-1-.75-2-1.51-2.94-2.29l-2.81-2.21c-6.19-4.92-12.43-10.15-18.64-15.69L558.08,566q-2.31-2.05-4.59-4.2l-1.67-1.57L550,558.54l-2-1.94c-1.12-1.07-2.23-2.17-3.33-3.27-.85-.79-1.69-1.66-2.52-2.5l-.24-.26c-.84-.83-1.67-1.67-2.5-2.51-.5-.52-1-1-1.5-1.56l-.47-.49-2-2.06-.13-.15-2.1-2.25c-.84-.9-1.67-1.81-2.51-2.72q-2.08-2.3-4.15-4.64c-.68-.79-1.36-1.54-2.05-2.34-.57-.65-1.12-1.29-1.66-1.94q-1-1.2-2-2.4-4.28-5.1-8.39-10.48c-.76-1-1.5-1.93-2.24-2.92-1.89-2.47-3.73-5-5.57-7.55-.55-.8-1.12-1.59-1.68-2.39-.13-.16-.24-.34-.36-.5-.59-.86-1.19-1.7-1.77-2.56-.94-1.38-1.89-2.77-2.81-4.17-.74-1.09-1.47-2.2-2.19-3.31a1,1,0,0,0-.15-.24l-2.22-3.48-.22-.36c-.7-1.14-1.41-2.27-2.1-3.4s-1.49-2.46-2.21-3.71-1.43-2.39-2.13-3.67q-4.61-8-8.77-16.46c-.35-.69-.69-1.38-1-2.09-.22-.44-.44-.88-.65-1.35-.43-.87-.8-1.74-1.25-2.63a25.91,25.91,0,0,1-1.15-2.47l-.23-.48c-.27-.58-.53-1.16-.81-1.75l-.26-.57c-.27-.59-.52-1.19-.8-1.78q-1.44-3.25-2.79-6.57c-.42-1-.8-2-1.23-3.08-.1-.25-.21-.52-.31-.79-.4-1-.8-2-1.16-3s-.69-1.82-1-2.74l-.24-.65c-.17-.44-.33-.91-.49-1.35q-1-2.7-1.9-5.44c-.21-.6-.4-1.2-.6-1.8-.26-.8-.51-1.54-.75-2.32-.14-.41-.27-.8-.4-1.22-.25-.8-.49-1.59-.75-2.39l-.09-.28-.83-2.83c-.19-.64-.39-1.28-.57-1.95-.37-1.29-.74-2.58-1.09-3.89-.19-.68-.37-1.35-.55-2-.13-.5-.27-1-.4-1.51-.26-1-.51-2-.75-3-.06-.23-.11-.46-.17-.69-.18-.7-.34-1.4-.52-2.11-.07-.28-.13-.56-.19-.85-.37-1.55-.72-3.11-1.07-4.69-.26-1.16-.5-2.33-.74-3.5-.13-.71-.29-1.43-.42-2.14s-.32-1.59-.48-2.45a1.86,1.86,0,0,0-.09-.47c-.16-.8-.3-1.64-.45-2.48s-.32-1.84-.48-2.77-.29-1.8-.45-2.71q-.57-3.7-1.07-7.47c-.17-1.23-.33-2.47-.48-3.71,0-.38-.09-.76-.13-1.14s-.11-.88-.15-1.32a309.9,309.9,0,0,1-2-35.25V122.76Z"
       transform="translate(-445.5 -121.26)"
       id="path39400" />
  </g>
  <path
     id="shine"
     d="M 1.5800015,0.70902114 V 207.0859 C 1.5800015,436.75044 241.5,526.689 241.5,526.689 c 0,0 239.92,-89.93856 239.92,-319.6031 V 0.70902114 Z"
     style="fill:url(#rg);stroke:#000000;stroke-width:2.41218" />
</svg>
