<?xml version="1.0" encoding="UTF-8" standalone="no"?>
<svg
   viewBox="0 0 483 527.48"
   version="1.1"
   id="svg27501"
   sodipodi:docname="House Blackwood GoT.svg"
   inkscape:version="1.2.1 (9c6d41e410, 2022-07-14)"
   xmlns:inkscape="http://www.inkscape.org/namespaces/inkscape"
   xmlns:sodipodi="http://sodipodi.sourceforge.net/DTD/sodipodi-0.dtd"
   xmlns="http://www.w3.org/2000/svg"
   xmlns:svg="http://www.w3.org/2000/svg">
  <sodipodi:namedview
     id="namedview27503"
     pagecolor="#ffffff"
     bordercolor="#000000"
     borderopacity="0.25"
     inkscape:showpageshadow="2"
     inkscape:pageopacity="0.0"
     inkscape:pagecheckerboard="0"
     inkscape:deskcolor="#d1d1d1"
     showgrid="false"
     inkscape:zoom="0.56101501"
     inkscape:cx="135.46875"
     inkscape:cy="417.10114"
     inkscape:window-width="1920"
     inkscape:window-height="1017"
     inkscape:window-x="-8"
     inkscape:window-y="-8"
     inkscape:window-maximized="1"
     inkscape:current-layer="svg27501" />
  <defs
     id="defs27470">
    <style
       id="style27468">.cls-1{fill:#a61616;}.cls-2{fill:#fcf9f9;}.cls-3{fill:#020101;}.cls-4{fill:#060101;}.cls-5{fill:#a71717;}.cls-6{fill:#a31515;}.cls-7{fill:#a11515;}.cls-8{fill:none;stroke:#000;stroke-width:3px;}</style>
    <radialGradient
       id="rg"
       gradientUnits="userSpaceOnUse"
       cx="220"
       cy="220"
       r="405"
       gradientTransform="matrix(0.80510068,0,0,0.80302287,-0.865202,-1.956029)">
      <stop
         style="stop-color:#ffffff;stop-opacity:.3"
         offset="0"
         id="stop753" />
      <stop
         style="stop-color:#ffffff;stop-opacity:.2"
         offset=".2"
         id="stop755" />
      <stop
         style="stop-color:#666666;stop-opacity:.1"
         offset=".6"
         id="stop757" />
      <stop
         style="stop-color:#000000;stop-opacity:.13"
         offset="1"
         id="stop759" />
    </radialGradient>
  </defs>
  <title
     id="title27472">House Blackwood</title>
  <g
     id="Layer_2"
     data-name="Layer 2">
    <path
       class="cls-1"
       d="M927,122.76V328.6a313.88,313.88,0,0,1-2.28,38c-.11.93-.24,1.86-.36,2.79s-.24,1.86-.39,2.79c-.46,3.37-1,6.69-1.6,10-.07.44-.15.87-.23,1.31-.16.8-.29,1.6-.45,2.4s-.34,1.79-.51,2.69l-.45,2.22-.24,1.15c-.15.71-.3,1.44-.46,2.15-.54,2.37-1.07,4.71-1.61,7l-.58,2.32-.52,2q-1.53,5.88-3.27,11.61c-.29,1-.59,1.94-.9,2.92l-.6,1.88c-.2.63-.4,1.24-.61,1.86-.37,1.09-.73,2.17-1.1,3.25s-.68,2-1,3c-.47,1.28-.93,2.56-1.39,3.81-.36,1-.73,2-1.11,3l-.19.5c-.43,1.14-.87,2.25-1.32,3.36s-.87,2.17-1.31,3.2c0,.15-.12.28-.18.42-.4,1-.8,2-1.25,3s-.76,1.75-1.13,2.62l-.66,1.49c-.48,1.07-1,2.11-1.44,3.15s-.9,2-1.36,2.93l-1,2.12c-.29.63-.6,1.25-.91,1.87-.63,1.33-1.31,2.64-2,4q-2.52,5-5.19,9.77l-2,3.57-.12.21c-1.42,2.47-2.86,4.92-4.33,7.33-.71,1.2-1.46,2.4-2.18,3.54-.11.16-.2.32-.3.47-.55.89-1.12,1.78-1.69,2.66l-.65,1c-.65,1-1.31,2-2,3l-.13.18c-.65,1-1.31,2-2,3l-.45.67q-2.25,3.29-4.54,6.46l-.31.43c-.8,1.07-1.54,2.14-2.31,3.19s-1.66,2.23-2.5,3.32c-1.52,2-3.06,4-4.61,6l-.81,1q-1.09,1.39-2.22,2.76L854,526.61l-.57.69c-.8.94-1.6,1.87-2.41,2.8q-2.82,3.32-5.72,6.53c-.75.85-1.52,1.69-2.29,2.51s-1.47,1.6-2.22,2.4q-3,3.2-5.93,6.24-2.76,2.82-5.53,5.59c-.92.91-1.84,1.82-2.76,2.71s-1.85,1.78-2.79,2.66l-2.28,2.12c-.68.65-1.36,1.28-2,1.91a449.24,449.24,0,0,1-61.76,47.47c-.86.55-1.72,1.1-2.57,1.6q-6.43,4.06-12.47,7.63l-2.41,1.4-2.36,1.37-2.33,1.34-2.23,1.29q-4.25,2.39-8.21,4.49c-5.14,2.76-9.89,5.18-14.17,7.27l-1.6.8c-10.64,5.15-18.12,8.22-21,9.35l-.42.17-.61.24-.14,0h-.08l-.23-.09-.21,0-1.07-.42-.54-.23c-.87-.34-2-.8-3.37-1.38l-.46-.18c-1.76-.8-3.89-1.67-6.33-2.77l-1.39-.61q-11.62-5.29-22.91-11.26-8.52-4.47-16.84-9.34c-.8-.44-1.6-.92-2.35-1.38a474,474,0,0,1-44.78-30l-2.63-2c-1-.75-2-1.51-2.94-2.29l-2.81-2.21c-6.19-4.92-12.43-10.15-18.64-15.69L558.08,566q-2.31-2.05-4.59-4.2l-1.67-1.57L550,558.54l-2-1.94c-1.12-1.07-2.23-2.17-3.33-3.27-.85-.79-1.69-1.66-2.52-2.5l-.24-.26c-.84-.83-1.67-1.67-2.5-2.51-.66-.68-1.32-1.36-2-2l-2-2.06-.13-.15-2.1-2.25q-3.36-3.6-6.66-7.36c-.68-.79-1.36-1.54-2.05-2.34-.57-.65-1.12-1.29-1.66-1.94q-1-1.2-2-2.4-4.28-5.1-8.39-10.48c-.76-1-1.5-1.93-2.24-2.92-1.89-2.47-3.73-5-5.57-7.55-.55-.8-1.12-1.59-1.68-2.39-.13-.16-.24-.34-.36-.5-.59-.86-1.19-1.7-1.77-2.56-.94-1.38-1.89-2.77-2.81-4.17-.74-1.09-1.47-2.2-2.19-3.31a1,1,0,0,0-.15-.24l-2.22-3.48-.22-.36c-.7-1.14-1.41-2.27-2.1-3.4s-1.49-2.46-2.21-3.71-1.43-2.39-2.13-3.67q-4.61-8-8.77-16.46c-.35-.69-.69-1.38-1-2.09-.22-.44-.44-.88-.65-1.35-.43-.87-.8-1.74-1.25-2.63a25.91,25.91,0,0,1-1.15-2.47l-.23-.48c-.27-.58-.53-1.16-.81-1.75l-.26-.57c-.27-.59-.52-1.19-.8-1.78q-1.44-3.25-2.79-6.57c-.42-1-.8-2-1.23-3.08-.1-.25-.21-.52-.31-.79-.4-1-.8-2-1.16-3s-.69-1.82-1-2.74l-.24-.65c-.17-.44-.33-.91-.49-1.35q-1-2.7-1.9-5.44c-.21-.6-.4-1.2-.6-1.8-.26-.8-.51-1.54-.75-2.32-.14-.41-.27-.8-.4-1.22-.25-.8-.49-1.59-.75-2.39-.31-1-.61-2.06-.92-3.11-.19-.64-.39-1.28-.57-1.95-.37-1.29-.74-2.58-1.09-3.89-.19-.68-.37-1.35-.55-2-.13-.5-.27-1-.4-1.51-.32-1.22-.62-2.45-.92-3.7-.18-.7-.34-1.4-.52-2.11-.07-.28-.13-.56-.19-.85-.37-1.55-.72-3.11-1.07-4.69-.26-1.16-.5-2.33-.74-3.5-.13-.71-.29-1.43-.42-2.14s-.32-1.59-.48-2.45a1.86,1.86,0,0,0-.09-.47c-.16-.8-.3-1.64-.45-2.48s-.32-1.84-.48-2.77-.29-1.8-.45-2.71q-.86-5.52-1.55-11.18A312.7,312.7,0,0,1,447,328.58V122.76Z"
       transform="translate(-445.5 -121.26)"
       id="path27474" />
  </g>
  <g
     id="Layer_3"
     data-name="Layer 3">
    <path
       class="cls-2"
       d="M859,464c-.26,1.66-2.2,1.23-3.44,1.19q-6.59-.2-13.17-.67c-8-.58-16.05-1.5-23.92.8-2.42.71-5.58,1.18-6,4.46-.43,3,2.26,4.29,4.16,5.71,7.47,5.54,15.29,10.11,25.19,9.39,3.19-.23,5.78-1.9,8.74-2.51,1.11-.24,2.55-.44,3.15.67.7,1.3,0,2.56-1.13,3.51a9,9,0,0,1-4.14,1.78c-9.67,1.92-19.05,1.64-27.7-3.71-7.48-4.62-15-9.17-22.26-14.14-4-2.71-7.36-3.62-11.29-.27s-8.4,4.32-13.36,4.2A26.9,26.9,0,0,0,762,476.5c-4,1.82-4.24,4.12-.51,6.49,4.43,2.81,9.6,3.72,14.59,4.85,8.4,1.91,16.65,4.23,24.4,8a6.47,6.47,0,0,0,7.75-.86c2.8-2.25,5.73-4.5,9.63-4.61,1.47,0,3,.32,3.23,1.73.17,1.25-1.39,1.5-2.56,1.74a10.41,10.41,0,0,0-3.17,1.16c-2.31,1.37-5.09,3-4.92,5.8s3.37,3.43,5.68,4.1c7.68,2.23,15.46,4.13,23.14,6.38,2.6.77,5.57,1.15,8,4.35-9,.5-16.83-1.61-24.5-4-10.35-3.17-21.06-5.35-30.76-10.59-3-1.59-7.5-3.89-9.76.13-1.93,3.43,1.13,7,4.07,9.17,7.84,5.8,15.93,11.26,23.86,16.94,1.9,1.37,4.14,2.6,4.75,5.29-2.67,1.2-4.36-.44-6.1-1.38-12.91-7-24.34-15.87-33.57-27.4a68.81,68.81,0,0,0-13-12.92c-6.07-4.4-12.62-5.38-19.49-2.37a83.23,83.23,0,0,0-28,19.54c-3.35,3.6-4.4,7.53-4,12.54,1.72,23.06,5,45.91,8.72,68.7,1.1,6.64,3.87,26.45,5.73,40-5.14,2.76-9.89,5.18-14.17,7.27l-1.6.8c-10.64,5.15-18.12,8.22-21,9.35l-.42.17-.61.24-.14,0h-.08l-.23-.09-.21,0-1.07-.42-.54-.23c-.87-.34-2-.8-3.37-1.38l-.46-.18c-1.76-.8-3.89-1.67-6.33-2.77l-1.39-.61q-11.62-5.29-22.91-11.26c9-33.72,7.44-86.53,7.62-117.85a32.59,32.59,0,0,0-1.61-9.56c-4.58-14.92-19.91-18.73-31.83-8-5.79,5.21-9.72,11.76-13.4,18.5-5.18,9.47-11.94,17.31-22.15,21.58-2.25.94-4.53,2.13-7.66,1.33,1.08-3.83,4.45-5.43,7-7.6,3.35-2.82,7.36-4.8,10.33-8.17,1.79-2,3-4.37,1.7-6.77-1.57-2.91-4.24-1-6.08-.18-7.66,3.42-15.56,6.55-22.68,10.91-10.47,6.41-19.15,2.56-28.84-3.4,3.21-1.34,5.82-1.5,8,0,3.6,2.49,7.29,2.16,10.94.86,18.84-6.67,36.47-15.7,52.16-28.18,2.67-2.13,7.07-4.58,5.11-8.56-1.79-3.66-6.27-2.43-9.89-1.86-14.47,2.26-27.67,8.42-41.23,13.47-12.2,4.55-24.49,8.88-37.75,8.47-6.26-.2-12.28-1.64-17.4-7.47,5.68-.73,10.21.8,14.8,1.39,6.44.82,12.93,2,19.12-1.16,2.7-1.4,5.64-2.66,5.73-6.45.08-3.46-2.39-5.08-4.84-6.56a106.07,106.07,0,0,0-28.54-11.58,20.88,20.88,0,0,1-6.68-2.83c6.83-1.86,12.38-.43,17.89,1.15,12.32,3.54,22.89,10.45,33.23,17.69,3,2.13,5.51,2.5,8.86,1,7.62-3.52,15.4-6.7,23.11-10,1.88-.8,4.47-1,4.56-3.64s-2-4-4.08-5.12c-6.09-3.16-12.79-3.84-19.47-4-11.1-.33-22.2,0-33.28-1.2-9.76-1-18.36-4.88-26.49-10-1.06-.67-2.29-1.51-2-3.52,3.37-.59,6,1.58,8.76,2.77,12.49,5.31,25.29,8.77,39,6.17,3.59-.68,8.77-.58,9.37-4.88.54-3.85-4.21-5.39-7.28-7.2a23.16,23.16,0,0,0-12-3c-7.07,0-14.13-.65-21.2-.94-5.38-.22-8.78-3.33-11.45-7.55-.7-1.11-1.6-2.41-.48-3.61a2.52,2.52,0,0,1,3.21,0c8,5.65,17.14,4.42,26.07,4.58a34,34,0,0,1,14.76,4.12c11.49,5.77,22,13.13,32.46,20.47,8.1,5.65,15.89,12.15,26.2,13.5a62.79,62.79,0,0,0,34.08-5.29c3-1.31,6-3.36,5.4-7.3s-4.24-4.19-7.13-4.49c-9.12-1-18.33-1.17-27.42-2.35C607.41,455.19,591,446,577.62,431.37a30.27,30.27,0,0,1-2.8-2.87c-3.31-4.76-6-6.08-11.39-1.43-6.29,5.48-14.29,5.08-22.5,1.8,1.72-2.8,4-2.78,6.17-2.82,3.45-.07,7,.1,10.18-1.31,3.87-1.73,7.74-4,6.9-9.28a10,10,0,0,0-10.45-8.61c-4.39.22-8.77.73-13.16.94-2.67.13-5.36,0-8-.11-2.06-.1-5.07-.1-5-2.56.12-2.67,3.26-1.92,5.2-2,5.35-.18,10.72-.07,16.08-.24,3.83-.11,5.62-1.73,3.74-5.76-2.17-4.66-4.31-9.35-6.29-14.1-1.08-2.58-1.78-5.31-2.8-8.42,3.22-.13,4.07,1.94,5.11,3.52,3.59,5.42,7.06,10.91,10.6,16.36,1.57,2.43,3.16,4.9,6.38,5.3,21,2.62,38.76,13.39,57,22.87,8.8,4.58,17.31,9.73,26.05,14.44,1.64.88,3.74,3,5.64.69,1.52-1.8.78-4-.37-5.89-5.64-9-12.49-17.11-21.53-22.7-5.53-3.42-12.52-3.43-18.9-3.92-23.32-1.75-39.11-15.79-53.73-31.93-3.33-3.68-6.39-7.61-9.52-11.47-.7-.88-1.52-2.09-.72-3.11,1-1.3,2.45-.62,3.63.07a29.09,29.09,0,0,1,7.16,6.57c4.84,5.69,9.59,11.48,15.28,16.34,2.55,2.17,6.21,6.42,8.4,4.53,2.88-2.49-.78-6.61-2.43-9.68-2.35-4.37-5.18-8.48-7.75-12.74-3.44-5.73-6.77-11.52-8.93-17.9-.8-2.37-2.06-5.56.13-6.86,2.83-1.67,4.25,1.88,5.42,3.75,7.89,12.65,16.07,25.15,23.14,38.25,6.5,12,17,16.13,30.66,18.34-2.16-3.46-3.64-6-5.27-8.41-11.41-17-19-35.64-24.2-55.32-.81-3.09-2.91-7.78.48-9.12,2.38-.93,3.32,4.34,4.44,7,6,14.41,10.76,29.39,18.57,43a38.74,38.74,0,0,0,6.37,8.81c1.37,1.33,2.94,2.77,5,1.63,1.86-1,2.38-2.92,2.23-4.94a30.83,30.83,0,0,0-2.87-9.83c-5.44-12.82-11-25.57-16.48-38.39a47.45,47.45,0,0,1-3.74-12c-.25-1.82-1.38-4.29.93-5.08,1.92-.65,2.68,1.89,3.38,3.3,4.59,9.23,9,18.54,13.5,27.81,1.67,3.43,3.25,6.92,5.13,10.23a68.27,68.27,0,0,1,9.39,36.7c-.28,8.7,4.14,15.27,9.68,21.33,3.24,3.56,6.19,3.19,7.66-1.29,3.86-11.68,6.38-22.68-1.81-34.63-12.08-17.66-20.06-37.69-28.21-57.47-1.38-3.34-2.43-6.81-3.59-10.23-.29-.87-.86-1.92.15-2.62,1.24-.87,2.15.11,2.89.93,2.73,3,4.46,6.64,6.24,10.24,1.85,3.76,3.53,7.62,5.65,11.23s4.3,3.09,5.94-.64c3.12-7.09,4.85-14-.51-21-1.29-1.68-2.77-3.62-2.34-6.69,7.13,6.36,11.59,14.2,16.44,21.71,2.91,4.48,5.34,9.27,8.15,13.81,1.15,1.86,2.23,4.69,4.92,4s3-3.8,3.15-6.18c.56-7,.93-14.12,1.19-21.19.15-4,.32-8,1.74-12.24,2.81,2.26,2.47,5.38,2.93,8.19,2.77,17.31-.64,34.25-2.72,51.32-1.51,12.44-6.78,23.93-8.19,36.23-1,8.87-2.32,17.36-7.38,24.91a3.2,3.2,0,0,0,.11,4.2c6.3,7,12.73,13.83,21.52,17.75,4.08,1.81,6.2.46,7.22-4.13a35.72,35.72,0,0,0-3.15-25c-4.25-8.33-8.32-16.84-7.4-26.66.32-3.38.29-9.09,2.87-9,3.68.11,2.62,5.4,3,8.63.68,5.67.29,11.51,2.4,17,1.06,2.73,3,4.36,6.22,3.93s3.54-3.08,3.51-5.17c-.29-20.95,3.85-42-1.76-62.85a37,37,0,0,0-6.79-13.74c-5.43-6.78-4.35-14.27-2.92-21.86.26-1.39.55-3.55,2.6-3s1.28,2.73.89,4c-2.67,8.51.74,15.19,5.74,21.7,3.09,4,4.5,2.9,5.93-1a94.1,94.1,0,0,0,4.63-17.09c.27-1.7.26-3.42,2.76-4.86a33.17,33.17,0,0,1,.27,14.78,122.89,122.89,0,0,1-4.91,18.8,23.57,23.57,0,0,0,.36,17.3,31.67,31.67,0,0,1,1.06,22.35c-2.45,7.88,1,15.52,4.34,22.55,1.56,3.31,2.92,0,3.49-1.55,2.64-7,3.36-14.47,4.2-21.87,2-17.37,1-34.81,1.33-52.22.09-5.16.61-10.31,1.14-15.44a9.43,9.43,0,0,1,2.56-6c2.27,2.17,1.68,4.7,1.38,7a60.21,60.21,0,0,0-.41,13.74c.2,2.13.92,4.35,3.28,4.94,2.61.65,3.72-1.53,4.67-3.38,1.66-3.22,3-6.6,4.73-9.79a35,35,0,0,1,3.94-5.61c1.1-1.32,2.72-2.7,4.39-1.37,1.3,1,.62,2.79-.12,4.22-4.1,8-7.75,16.23-12.42,23.86-3.65,6-5.7,12-5.43,18.9.24,6.48-.58,13,1.22,19.4,1.15,4.06,3.19,4.32,6.14,1.61,5.06-4.66,6.31-10.74,6.48-17.2.17-6.31-.15-12.64,1.23-18.87a27.12,27.12,0,0,1,10.83-16.35c1.71-1.26,3.59-2.33,5.82-1.84,1.47.33,3.18.64,3.78,2.27.68,1.82-.75,3-2,3.71-15.19,8.49-13,22.11-10.82,35.84.79,5.09,2.88,3.84,5.4,1.53,6.4-5.88,11.35-12.92,16.16-20.08,2.67-4,5.41-7.89,8.33-11.66,1.23-1.58,3-3.84,5.2-2.42,2.38,1.52,1.31,4.16.27,6.18A143.7,143.7,0,0,1,764,371.81,73.8,73.8,0,0,1,744,387c-8,4.26-15.23,9.35-18.27,18.79-.92,2.88-3.56,5.58-6.07,7.5-10.43,8-14.85,18.89-16.94,31.42s-4.72,24.76-5.32,37.38c-.06,1.36-.91,3.4,1.15,3.92,1.67.42,2.69-1.12,3.57-2.38a5.88,5.88,0,0,0,1.14-2c2.91-13.22,13.06-21.3,21.81-30.25,5.58-5.71,9.83-10.92,4.89-19.35-2.55-4.37-1.52-9.29,1.45-13.55,3.17-4.56,3.59-10.16,5.13-16.86,3.74,7.17,1.38,12.44.07,17.71a51.73,51.73,0,0,1-2,5.35c-.71,1.91.13,3.34,1.49,4.57a3.22,3.22,0,0,0,4.66-.13c4.82-4.51,10.11-8.36,12.55-15.18,3.78-10.59,11-19.16,18.55-27.36,2.59-2.81,5.34-5.49,8-8.29,3.06-3.28,4.48-7,5.19-11.65,1.44-9.64,6-18,14.57-25,.39,5-2,7.7-3.48,10.69-1.83,3.78-3.88,7.45-5,11.53-.54,2-1.51,4.32.7,5.73,1.78,1.14,3.67,0,5.34-1,3.78-2.35,6.8-5.56,10-8.63,2.69-2.62,5.25-5.41,8.89-7.43,1.12,3.08-.67,4.76-2,6.42-6.31,8-13.51,15.26-22.43,20.3a66.11,66.11,0,0,0-23,22C760.87,413,756,426.51,745,436.47c3.46,2.32,5.93.89,8.06-.35,4.44-2.61,8.67-5.59,13-8.43,6.07-4,12.64-6.94,19.22-10,18.19-8.57,33.3-20.86,41.88-39.7.92-2,1.91-2.86,3.78-2.28s1.7,2.19,1.31,3.81c-1.1,4.59-3.94,8.23-6.46,12.05s-6,7.48-7.77,12c-.53,1.37-1.6,2.76-.25,4.25s3,.65,4.21,0c3.72-1.94,7.3-4.13,11-6.16,1.51-.83,3.57-2,4.7-.47s-.8,3.06-2,4.21c-5,4.89-11.06,7.14-17.88,8.18-20.11,3-37.67,12-53.93,23.8-1.93,1.4-4.64,3.13-4.11,5.8.67,3.32,4.34,2.89,6.73,3.14,12,1.25,22.26-2.41,30.35-11.55,2-2.29,3.88-4.74,6-7,.65-.71,1.55-2,2.8-1s.36,2.17-.17,3.12c-1.57,2.84-3.33,5.56-4.88,8.41-1.89,3.48-.52,6.34,3.15,5.77,15-2.34,30.41-4,41.23-16.79,1.35-1.59,2.78-4.43,5.43-2.53,2.36,1.69.92,4.18-.06,6.22-2.73,5.71-7.65,8.9-13.26,11.19-10,4.08-20.36,6.92-31.06,7.36-15.27.63-30.38,3.4-45.69,3.21a22.87,22.87,0,0,1-9.46-2.07c-4.13-1.94-7.71-1.12-11.28,1.18a63,63,0,0,0-21.82,23.91c-2.73,5.17-1.76,7,4,8.45,7,1.71,13.24-.07,19.12-3.8,6.29-4,12.23-8.52,18.89-12,3-1.58,4.39-4.63,5.66-7.69.58-1.41,1.74-2.75,3.51-2.36,2,.43,1,2.15,1.06,3.35.67,7.47,4.41,9.22,10.69,5a13.94,13.94,0,0,0,3.16-2.44c4.34-5.36,9.25-6.17,15-2.33,3.54,2.36,7.2,1.54,11,.34,14.62-4.66,29.46-3.4,44.3-1.32a10,10,0,0,1,1.6.6C857.15,462,859.26,462,859,464Z"
       transform="translate(-445.5 -121.26)"
       id="path27477" />
    <path
       class="cls-3"
       d="M625.94,185.75c7.53-1.9,16.08,1,21.49-8.23-12.07,1.39-24,4.71-32.73-7.13,3.24-.76,5.32.64,7.46,1.55A32.46,32.46,0,0,0,639,174.26c2.68-.32,6.23-1.38,6.12-4.16s-3.81-2.32-6.15-2.48c-12.32-.83-19.13-5.08-25.11-16.13,3.75.42,5.87,3.1,8.48,4.72,4.72,2.93,9.35,6.06,15,6.67,2,.21,4.82.89,5.54-1.6.64-2.19-2.13-3-3.67-3.77-8.58-4.52-16.14-10.23-22-18-1.31-1.73-3.25-3.41-1.92-6.37,3.38,1.21,5.78,3.66,8.14,6,10.9,10.94,23.32,17.94,39.44,15.71,3.28-.45,4.69.55,5,4.19.53,7.35,2.36,14.35,8.38,19.45,2.75,2.33,5.11,3.07,7.49-.66,7.77-12.19,13.45-12.71,23.63-2.15-1.16,1.92-5,1.15-4.85,4.41,6.2-.5,12.13-7.6,13.35-16,.16-1.13.21-2.29.26-3.43.22-4.6,2-6.65,7.17-6,14.53,1.85,25.85-5,36.06-14.3,1-.9,1.88-1.93,2.95-2.73,2.19-1.64,4.58-6,6.6-4.13,2.52,2.37-1.36,5.28-3.19,7.42a67,67,0,0,1-20.19,15.86c-1.75.92-4.8,1.83-3.92,4.16,1,2.76,4.12,2.07,6.57,1.4a48.5,48.5,0,0,0,15.8-7.9c1.63-1.19,3-3,5.37-2.84-2.83,8.36-12.45,15.64-20.74,15.78a9.34,9.34,0,0,0-1.72,0c-2.61.54-7.07-1.41-7.41,2.05-.39,4.08,4.5,4,7.44,4.58,4.79.95,9.44-.58,14-2.05,2.45-.79,4.67-2.67,7.58-1.83-2.81,6-12.13,10-20,8.58-2.06-.37-4.11-.86-6.17-1.19-1.52-.24-3.63-1.91-4.36.54-.56,1.87,1.64,2.8,3,3.74a18.1,18.1,0,0,0,10.32,2.87,18.32,18.32,0,0,1,6.74.9c-2.93,3.22-6.53,4-10.5,3.39a30.2,30.2,0,0,1-11.81-4.17c-2.75-1.78-4.71-1.34-6.77,1.33-5.54,7.19-12.13,13-20.68,16.74-5.6,2.45-7.33,7.44-3.87,12.38,7.5,10.72,5.19,20.7-.32,31-2.7,5-5.16,10.21-7.65,15.36-1.37,2.84-3.08,2.75-4.63.42-4.11-6.19-8.6-12.1-11.33-19.19-3.6-9.33-4.11-18.4-.58-27.86,2.28-6.11,1-10.23-4.83-12.84-8.52-3.81-15-9.75-20.68-16.78-2.08-2.58-3.64-1.06-5.38-.17-5,2.55-10.11,4.5-15.88,4.1C630.55,189.16,628.16,188.88,625.94,185.75Z"
       transform="translate(-445.5 -121.26)"
       id="path27479" />
    <path
       class="cls-4"
       d="M508.24,212.74c5,4.37,9,8.1,13.24,11.61,9.72,8.1,20.4,13.49,33.6,11.11,4-.73,5.75.38,5.82,4.94.14,10.38,5.92,17.89,13.75,24,4.11,3.22,13.08-.37,15.25-6.22,1.93-5.21,3.72-10.44,6.92-15.05,4-5.75,9-9.35,16.31-10.39,7.66-1.09,13.89-5.15,16.92-13,3,4.93.09,14.32-5.5,18.5-.61.46-1.29.83-1.93,1.25-1.18.78-3.49,1-2.71,3s2.69,0,4.34.39c-1.86,4.06-6.34,3.19-10,5.18,3.09,2,5.78.85,8.26,1.12.89.1,2.07-.17,2.28,1.12.18,1.1-.66,1.72-1.54,2.13-4.74,2.23-9.33,1.63-13.68-1-3.31-2-6.39-3.77-9.38.51-3.5,5-3.83,9.43-.23,12.9a88.45,88.45,0,0,1,18.37,25.92c-2.21,1.49-3.3-.08-4.45-.78-2.61-1.59-5-3.48-7.65-5.08-12.14-7.45-15.52-5.95-21.3,4.16-2.7,4.72-7.5,8.28-5.56,14.78,1.28,4.31,3.07,7.21,8.33,6.34,1.84-.31,4.1-1,7.11,1.66-8.57,1.39-15.28,5.1-22.22,8.28-1.6.73-2.5-.08-2.45-1.9.16-5.63-3.3-9.48-6.47-13.59-5.36,4.12-8.87,9-7.61,15.82,2.12,11.54-3.77,18-13.51,22.17-4,1.74-8.09,3.42-12,5.37s-5.59.36-6.68-3.25a54.74,54.74,0,0,1-.83-29.94c1.28-4.92,4-8.66,10.06-8.26,2.72.18,5.06-1.4,7.28-3,5.31-3.86,9.53-8.84,14.17-13.39,4.2-4.1,4.71-8.46,1.52-13.33-1-1.6-2-3.28-3.15-4.79-5.86-7.67-6.2-7.69-15.07-4.07-6.09,2.48-12.19,3.22-19.42-.54,7.87-3,16.77,0,22.21-9.35-12.31,1.8-24.32,5.17-33-7.38,4.87.23,8.3,2.54,12.12,3.4,5.49,1.24,10.93,1.81,16.26-.54,1.24-.54,2.5-1.57,2.44-3-.08-1.91-1.95-1.37-3.15-1.58-1.88-.33-3.81-.93-5.66-.75-12,1.16-16.23-8.6-23.78-16.17,4.64.29,6.37,2.82,8.67,4.26,5.35,3.35,10.6,7,17.22,7.21,1.61.06,3.9.58,4.39-1.57.37-1.66-1.59-2.46-2.88-3.18-7.72-4.32-15.06-9.16-20.9-15.91C510.14,220.36,507.22,218,508.24,212.74Z"
       transform="translate(-445.5 -121.26)"
       id="path27481" />
    <path
       class="cls-4"
       d="M866.06,239.47c-1.11,7-9,13.72-17.88,15.31-3,.54-6.06.72-9.09,1.14-1.05.14-2.56-.4-3,1-.49,1.56.89,2.56,2,3.09,6.61,3.14,13.33,2.52,20,.24,2.1-.71,3.88-2.59,6.42-1.66-1.59,4.7-5.25,7.22-11.67,7.74-5,.4-9.91.47-14.8-.93-1.37-.39-3.44-.77-4.11.93-.78,2,1.46,2.38,2.63,3,4.24,2.39,9,2.95,13.75,3.67,1.18.18,3.1-.52,3.07,1.51,0,1.43-1.54,2.06-2.86,2.46-4.3,1.28-8.33-.21-12.24-1.55-11.15-3.84-13-3.29-19.53,6.93-4.32,6.72-4.12,9.49,1.33,15.13A127.07,127.07,0,0,0,834,310.36c1.84,1.41,3.72,3.2,6,3,7.35-.55,10,4.14,10.94,10,1.56,9.45,1.78,19-.65,28.38-.94,3.65-2.82,5.27-6.67,3.36q-5.39-2.67-11-5c-10.9-4.49-17.32-11.54-14.65-24.27a8.66,8.66,0,0,0-.7-6.17c-1.77-3.08-3.63-8.3-6.59-7.56-3.15.79-6.36,5.19-6.36,9.44,0,5.25-2.46,4.5-6.16,4-6.36-.82-11.45-3.55-16.13-8.52,1-.07,1.69-.14,2.34-.17,3.44-.15,7.56,1.44,9.1-3.57s3.35-9.81-1.6-14.24a74,74,0,0,1-7.92-9.07c-2.75-3.43-5.79-3.68-9.61-1.81a98,98,0,0,0-18.74,12.14c2.45-8.85,7.13-16.28,12.88-23.09,1.23-1.46,2.69-2.72,4.06-4.06,5.2-5.08,5.29-10,.25-15.3-2.35-2.46-4.9-2.65-7.69-.68a16.87,16.87,0,0,1-11.87,3.36c-2.11-.23-4-1.4-3.64-3.5.37-1.93,2.5-1,3.89-.63,2.33.65,4.49.73,6.41-1.14-1.89-2.54-5.14-1.17-7.37-2.67-1.08-.73-3.17-1.89-2-2.67,5.44-3.55-.42-4-1.45-5-4.62-4.5-7.77-9.43-6.86-16.19.14-1,.57-2.07,1.55-2.15s1.63.88,1.72,1.93c.48,5.8,4.94,7.73,9.39,9.64a12.28,12.28,0,0,0,3.81,1.21c14.86,1,20.41,11.68,24.48,23.74,3.37,10,12,12.4,19.49,5.31,6.48-6.12,11.41-12.85,10.07-22.51-.27-1.94,1-3.53,3.12-3.11,18.24,3.63,31-6.32,43.5-17.22,2-1.72,4-3.54,7.29-4.24,0,3.8-2.57,5.88-4.52,8.19-5.66,6.69-13.27,10.87-20.38,15.7-1.63,1.11-4.56,2-3.55,4.46,1.13,2.7,3.8,1.41,6.07.87,5.53-1.3,10.15-4.3,14.78-7.37C861.32,241.78,863.19,239.74,866.06,239.47Z"
       transform="translate(-445.5 -121.26)"
       id="path27483" />
    <path
       class="cls-5"
       d="M608.91,434.08c.08,6.42-2.9,8.44-8,5.63-10.16-5.6-18.08-13.9-25.81-22.37-.79-.87-2.15-1.93-.78-3.39,2.09-2.24,4.6-3.45,7.69-2.55,5.87,1.71,11.28,4.49,16.71,7.26a17.91,17.91,0,0,1,9.67,12.71C608.65,432.5,608.82,433.62,608.91,434.08Z"
       transform="translate(-445.5 -121.26)"
       id="path27485" />
    <path
       class="cls-5"
       d="M609.92,423.64a361.66,361.66,0,0,1,34.43,18.61c2.39,1.46,4,3.6,3.62,6.64-.39,2.83-2.54,3.94-4.94,5-4.24,1.85-8,1.35-11.94-1C620.39,446.31,614.76,436.19,609.92,423.64Z"
       transform="translate(-445.5 -121.26)"
       id="path27487" />
    <path
       class="cls-5"
       d="M654.82,328.34c3.12,9.56,7.41,17.53,11.89,25.48,3.5,6.22,2.89,13.19,1.12,20-1,3.68-2.81,4.09-4.89,1.12-5.56-8-10.77-16.19-13.61-25.56C647,341.8,650.28,335.27,654.82,328.34Z"
       transform="translate(-445.5 -121.26)"
       id="path27489" />
    <path
       class="cls-5"
       d="M661.36,439.54c8.47,6.27,16.36,12.23,23.45,19.12,4.28,4.16,4.65,12.61,1.21,17.41-1.84,2.57-4.36,3.85-7.45,2.84s-4.91-3.78-4.07-6.69c2-7-2.28-10.58-6.53-14.48C662.89,453.09,658.74,448,661.36,439.54Z"
       transform="translate(-445.5 -121.26)"
       id="path27491" />
    <path
       class="cls-6"
       d="M569.82,303.3a6,6,0,0,1,1.43-3.77c.93-1.11,2.57-1.82,2.92.26.63,3.75,3.43,6.36,4.59,9.76.77,2.26,1,4.84-1.64,5.93-2.43,1-3.92-1-4.9-2.92A20.88,20.88,0,0,1,569.82,303.3Z"
       transform="translate(-445.5 -121.26)"
       id="path27493" />
    <path
       class="cls-7"
       d="M800.22,304.5c4.65,4.89,4.18,13.69-.21,17.16-1.49,1.18-3.12,1.6-4.68.47s-1.13-2.54-.63-4.12C796.14,313.51,799.71,309.94,800.22,304.5Z"
       transform="translate(-445.5 -121.26)"
       id="path27495" />
  </g>
  <g
     id="Layer_4"
     data-name="Layer 4">
    <path
       class="cls-8"
       d="M927,122.76V328.6a313.88,313.88,0,0,1-2.28,38c-.11.93-.24,1.86-.36,2.79s-.24,1.86-.39,2.79c-.46,3.37-1,6.69-1.6,10-.07.44-.15.87-.23,1.31-.16.8-.29,1.6-.45,2.4s-.34,1.79-.51,2.69l-.45,2.22-.24,1.15c-.15.71-.3,1.44-.46,2.15-.54,2.37-1.07,4.71-1.61,7l-.58,2.32-.52,2q-1.53,5.88-3.27,11.61c-.29,1-.59,1.94-.9,2.92l-.6,1.88c-.2.63-.4,1.24-.61,1.86-.37,1.09-.73,2.17-1.1,3.25s-.68,2-1,3c-.47,1.28-.93,2.56-1.39,3.81-.36,1-.73,2-1.11,3l-.19.5c-.43,1.14-.87,2.25-1.32,3.36s-.87,2.17-1.31,3.2c0,.15-.12.28-.18.42-.4,1-.8,2-1.25,3s-.76,1.75-1.13,2.62l-.66,1.49c-.48,1.07-1,2.11-1.44,3.15s-.9,2-1.36,2.93l-1,2.12c-.29.63-.6,1.25-.91,1.87-.63,1.33-1.31,2.64-2,4q-2.52,5-5.19,9.77l-2,3.57-.12.21c-1.42,2.47-2.86,4.92-4.33,7.33-.71,1.2-1.46,2.4-2.18,3.54-.11.16-.2.32-.3.47-.55.89-1.12,1.78-1.69,2.66l-.65,1c-.65,1-1.31,2-2,3l-.13.18c-.65,1-1.31,2-2,3l-.45.67q-2.25,3.29-4.54,6.46l-.31.43c-.8,1.07-1.54,2.14-2.31,3.19s-1.66,2.23-2.5,3.32c-1.52,2-3.06,4-4.61,6l-.81,1q-1.09,1.39-2.22,2.76L854,526.61l-.57.69c-.8.94-1.6,1.87-2.41,2.8q-2.82,3.32-5.72,6.53c-.75.85-1.52,1.69-2.29,2.51s-1.47,1.6-2.22,2.4q-3,3.2-5.93,6.24-2.76,2.82-5.53,5.59c-.92.91-1.84,1.82-2.76,2.71s-1.85,1.78-2.79,2.66l-2.28,2.12c-.68.65-1.36,1.28-2,1.91a449.24,449.24,0,0,1-61.76,47.47c-.86.55-1.72,1.1-2.57,1.6q-6.43,4.06-12.47,7.63l-2.41,1.4-2.36,1.37-2.33,1.34-2.23,1.29q-4.25,2.39-8.21,4.49c-5.14,2.76-9.89,5.18-14.17,7.27l-1.6.8c-10.64,5.15-18.12,8.22-21,9.35l-.42.17-.61.24-.14,0h-.08l-.23-.09-.21,0-1.07-.42-.54-.23c-.87-.34-2-.8-3.37-1.38l-.46-.18c-1.76-.8-3.89-1.67-6.33-2.77l-1.39-.61q-11.62-5.29-22.91-11.26-8.52-4.47-16.84-9.34c-.8-.44-1.6-.92-2.35-1.38a474,474,0,0,1-44.78-30l-2.63-2c-1-.75-2-1.51-2.94-2.29l-2.81-2.21c-6.19-4.92-12.43-10.15-18.64-15.69L558.08,566q-2.31-2.05-4.59-4.2l-1.67-1.57L550,558.54l-2-1.94c-1.12-1.07-2.23-2.17-3.33-3.27-.85-.79-1.69-1.66-2.52-2.5l-.24-.26c-.84-.83-1.67-1.67-2.5-2.51-.66-.68-1.32-1.36-2-2l-2-2.06-.13-.15-2.1-2.25q-3.36-3.6-6.66-7.36c-.68-.79-1.36-1.54-2.05-2.34-.57-.65-1.12-1.29-1.66-1.94q-1-1.2-2-2.4-4.28-5.1-8.39-10.48c-.76-1-1.5-1.93-2.24-2.92-1.89-2.47-3.73-5-5.57-7.55-.55-.8-1.12-1.59-1.68-2.39-.13-.16-.24-.34-.36-.5-.59-.86-1.19-1.7-1.77-2.56-.94-1.38-1.89-2.77-2.81-4.17-.74-1.09-1.47-2.2-2.19-3.31a1,1,0,0,0-.15-.24l-2.22-3.48-.22-.36c-.7-1.14-1.41-2.27-2.1-3.4s-1.49-2.46-2.21-3.71-1.43-2.39-2.13-3.67q-4.61-8-8.77-16.46c-.35-.69-.69-1.38-1-2.09-.22-.44-.44-.88-.65-1.35-.43-.87-.8-1.74-1.25-2.63a25.91,25.91,0,0,1-1.15-2.47l-.23-.48c-.27-.58-.53-1.16-.81-1.75l-.26-.57c-.27-.59-.52-1.19-.8-1.78q-1.44-3.25-2.79-6.57c-.42-1-.8-2-1.23-3.08-.1-.25-.21-.52-.31-.79-.4-1-.8-2-1.16-3s-.69-1.82-1-2.74l-.24-.65c-.17-.44-.33-.91-.49-1.35q-1-2.7-1.9-5.44c-.21-.6-.4-1.2-.6-1.8-.26-.8-.51-1.54-.75-2.32-.14-.41-.27-.8-.4-1.22-.25-.8-.49-1.59-.75-2.39-.31-1-.61-2.06-.92-3.11-.19-.64-.39-1.28-.57-1.95-.37-1.29-.74-2.58-1.09-3.89-.19-.68-.37-1.35-.55-2-.13-.5-.27-1-.4-1.51-.32-1.22-.62-2.45-.92-3.7-.18-.7-.34-1.4-.52-2.11-.07-.28-.13-.56-.19-.85-.37-1.55-.72-3.11-1.07-4.69-.26-1.16-.5-2.33-.74-3.5-.13-.71-.29-1.43-.42-2.14s-.32-1.59-.48-2.45a1.86,1.86,0,0,0-.09-.47c-.16-.8-.3-1.64-.45-2.48s-.32-1.84-.48-2.77-.29-1.8-.45-2.71q-.86-5.52-1.55-11.18A312.7,312.7,0,0,1,447,328.58V122.76Z"
       transform="translate(-445.5 -121.26)"
       id="path27498" />
  </g>
  <path
     id="shine"
     d="M 0.7449992,-0.349983 V 206.0269 C 0.7449992,435.69144 240.665,525.63 240.665,525.63 c 0,0 239.92,-89.93856 239.92,-319.6031 V -0.349983 Z"
     style="fill:url(#rg);stroke:#000000;stroke-width:2.41218" />
</svg>
