<?xml version="1.0" encoding="UTF-8" standalone="no"?>
<svg
   viewBox="0 0 483 527.48"
   version="1.1"
   id="svg40014"
   sodipodi:docname="House Blount.svg"
   inkscape:version="1.2.1 (9c6d41e410, 2022-07-14)"
   xmlns:inkscape="http://www.inkscape.org/namespaces/inkscape"
   xmlns:sodipodi="http://sodipodi.sourceforge.net/DTD/sodipodi-0.dtd"
   xmlns="http://www.w3.org/2000/svg"
   xmlns:svg="http://www.w3.org/2000/svg">
  <sodipodi:namedview
     id="namedview40016"
     pagecolor="#ffffff"
     bordercolor="#000000"
     borderopacity="0.25"
     inkscape:showpageshadow="2"
     inkscape:pageopacity="0.0"
     inkscape:pagecheckerboard="0"
     inkscape:deskcolor="#d1d1d1"
     showgrid="false"
     inkscape:zoom="0.79339504"
     inkscape:cx="54.197465"
     inkscape:cy="331.48682"
     inkscape:window-width="1920"
     inkscape:window-height="1017"
     inkscape:window-x="-8"
     inkscape:window-y="-8"
     inkscape:window-maximized="1"
     inkscape:current-layer="svg40014" />
  <defs
     id="defs39972">
    <style
       id="style39970">.cls-1{fill:#1d9f16;}.cls-2{fill:#c22819;}.cls-3{fill:#072805;}.cls-4{fill:#0f520b;}.cls-5{fill:#0d490a;}.cls-6{fill:#115d0d;}.cls-7{fill:#198a13;}.cls-8{fill:#146f0f;}.cls-9{fill:none;stroke:#000;stroke-width:3px;}</style>
    <radialGradient
       id="rg"
       gradientUnits="userSpaceOnUse"
       cx="220"
       cy="220"
       r="405"
       gradientTransform="matrix(0.80510068,0,0,0.80302287,-0.03015754,-0.89702286)">
      <stop
         style="stop-color:#ffffff;stop-opacity:.3"
         offset="0"
         id="stop753" />
      <stop
         style="stop-color:#ffffff;stop-opacity:.2"
         offset=".2"
         id="stop755" />
      <stop
         style="stop-color:#666666;stop-opacity:.1"
         offset=".6"
         id="stop757" />
      <stop
         style="stop-color:#000000;stop-opacity:.13"
         offset="1"
         id="stop759" />
    </radialGradient>
  </defs>
  <title
     id="title39974">House Blount</title>
  <g
     id="Layer_2"
     data-name="Layer 2">
    <path
       class="cls-1"
       d="M927,122.76V328.6a313.88,313.88,0,0,1-2.28,38c-.11.93-.24,1.86-.36,2.79,0,.2,0,.4-.08.59-.09.74-.19,1.47-.31,2.2-.46,3.37-1,6.69-1.6,10-.07.44-.15.87-.23,1.31-.16.8-.29,1.6-.45,2.4s-.34,1.79-.51,2.69l-.45,2.22-.24,1.15c-.15.71-.3,1.44-.46,2.15-.54,2.37-1.07,4.71-1.61,7l-.58,2.32-.52,2q-1.53,5.88-3.27,11.61c-.29,1-.59,1.94-.9,2.92l-.6,1.88c-.2.63-.4,1.24-.61,1.86-.37,1.09-.73,2.17-1.1,3.25s-.68,2-1,3c-.47,1.28-.93,2.56-1.39,3.81-.36,1-.73,2-1.11,3l-.19.5c-.43,1.14-.87,2.25-1.32,3.36s-.87,2.17-1.31,3.2c0,.15-.12.28-.18.42-.4,1-.8,2-1.25,3s-.76,1.75-1.13,2.62l-.66,1.49c-.48,1.07-1,2.11-1.44,3.15s-.9,2-1.36,2.93l-1,2.12c-.29.63-.6,1.25-.91,1.87-.63,1.33-1.31,2.64-2,4q-2.52,5-5.19,9.77l-2,3.57-.12.21c-1.4,2.44-2.82,4.86-4.28,7.24a.41.41,0,0,1,0,.09c-.71,1.2-1.46,2.4-2.18,3.54-.11.16-.2.32-.3.47s-.31.5-.47.74c-.4.64-.81,1.28-1.22,1.92l-.65,1c-.65,1-1.31,2-2,3l-.13.18c-.65,1-1.31,2-2,3l-.45.67q-2.25,3.29-4.54,6.46l-.31.43c-.8,1.07-1.54,2.14-2.31,3.19s-1.66,2.23-2.5,3.32c-1.52,2-3.06,4-4.61,6l-.81,1q-1.09,1.39-2.22,2.76L854,526.61l-.57.69c-.4.47-.79.93-1.2,1.39a4.16,4.16,0,0,1-.27.32c-.31.37-.62.73-.94,1.09-1.23,1.44-2.46,2.87-3.73,4.29-.65.75-1.32,1.5-2,2.24s-1.52,1.69-2.29,2.51-1.47,1.6-2.22,2.4q-3,3.2-5.93,6.24-2.76,2.82-5.53,5.59l-.83.82c-.64.64-1.29,1.27-1.93,1.89-.92.89-1.85,1.78-2.79,2.66l-2.28,2.12c-.68.65-1.36,1.28-2,1.91q-14.52,13.32-30.16,25.31c-1,.77-2,1.52-3,2.28q-9.86,7.43-20.1,14.31-1.56,1.05-3.12,2.07c-1,.65-2,1.29-3,1.92a0,0,0,0,1,0,0l-.18.12h0l-2.24,1.45c-.86.55-1.72,1.1-2.57,1.6l-1.74,1.09c-3.67,2.31-7.25,4.48-10.73,6.54l-2.41,1.4-2.36,1.37-2.33,1.34-2.23,1.29c-8.34,4.68-15.9,8.59-22.38,11.76l-1.6.8c-10.64,5.15-18.12,8.22-21,9.35l-.42.17-.61.24-.14,0h-.08l-.23-.09-.21,0-1.07-.42-.54-.23c-.87-.34-2-.8-3.37-1.38l-.46-.18c-1.76-.8-3.89-1.67-6.33-2.77l-1.39-.61a442.25,442.25,0,0,1-39.75-20.6c-.8-.44-1.6-.92-2.35-1.38q-7.23-4.26-14.29-8.78-5.26-3.36-10.42-6.85c-.75-.51-1.49-1-2.23-1.53-.57-.38-1.13-.76-1.69-1.16q-8.21-5.66-16.15-11.66l-2.63-2-.61-.47c-.77-.6-1.55-1.2-2.33-1.82l-2.37-1.86-.44-.35c-6.19-4.92-12.43-10.15-18.64-15.69L558.08,566q-2.31-2.05-4.59-4.2l-1.67-1.57L550,558.54l-2-1.94c-1.12-1.07-2.23-2.17-3.33-3.27-.85-.79-1.69-1.66-2.52-2.5l-.24-.26c-.84-.83-1.67-1.67-2.5-2.51l-.34-.36-.38-.39L537.4,546l-1-1.06-1-1-.13-.15-2.1-2.25c-1.12-1.2-2.24-2.41-3.34-3.64h0c-1.11-1.23-2.21-2.46-3.31-3.71l-1.31-1.5-.74-.84c-.57-.65-1.12-1.29-1.66-1.94q-1-1.2-2-2.4-4.28-5.1-8.39-10.48c-.76-1-1.5-1.93-2.24-2.92-1.89-2.47-3.73-5-5.57-7.55-.55-.8-1.12-1.59-1.68-2.39-.13-.16-.24-.34-.36-.5-.59-.86-1.19-1.7-1.77-2.56l-1.54-2.28a1,1,0,0,1-.12-.17c-.39-.57-.77-1.14-1.15-1.72-.74-1.09-1.47-2.2-2.19-3.31a1,1,0,0,0-.15-.24l-2.22-3.48-.22-.36-.88-1.43-1.22-2-.32-.53c-.17-.27-.34-.56-.51-.85-.46-.76-.94-1.56-1.38-2.33l-.64-1.1c-.5-.84-1-1.67-1.49-2.57q-4.61-8-8.77-16.46c-.35-.69-.69-1.38-1-2.09-.22-.44-.44-.88-.65-1.35-.43-.87-.8-1.74-1.25-2.63a25.91,25.91,0,0,1-1.15-2.47l-.23-.48c-.27-.58-.53-1.16-.81-1.75l-.26-.57c-.27-.59-.52-1.19-.8-1.78q-1.44-3.25-2.79-6.57c-.42-1-.8-2-1.23-3.08-.1-.25-.21-.52-.31-.79-.4-1-.8-2-1.16-3s-.69-1.82-1-2.74l-.24-.65c-.17-.44-.33-.91-.49-1.35q-1-2.7-1.9-5.44c-.21-.6-.4-1.2-.6-1.8-.26-.8-.51-1.54-.75-2.32-.14-.41-.27-.8-.4-1.22-.25-.8-.49-1.59-.75-2.39s-.51-1.71-.76-2.58c-.06-.18-.11-.35-.16-.53-.19-.64-.39-1.28-.57-1.95-.37-1.29-.74-2.58-1.09-3.89-.19-.68-.37-1.35-.55-2-.13-.5-.27-1-.4-1.51-.32-1.22-.62-2.45-.92-3.7-.18-.7-.34-1.4-.52-2.11-.07-.28-.13-.56-.19-.85-.37-1.55-.72-3.11-1.07-4.69-.26-1.16-.5-2.33-.74-3.5-.13-.71-.29-1.43-.42-2.14s-.32-1.59-.48-2.45a1.86,1.86,0,0,0-.09-.47c-.16-.8-.3-1.64-.45-2.48s-.32-1.84-.48-2.77-.29-1.8-.45-2.71q-.57-3.7-1.07-7.47c-.17-1.23-.33-2.47-.48-3.71A312.7,312.7,0,0,1,447,328.58V122.76Z"
       transform="translate(-445.5 -121.26)"
       id="path39976" />
  </g>
  <g
     id="Layer_4"
     data-name="Layer 4">
    <path
       class="cls-2"
       d="M927,122.76V222L538.65,547.31,537.4,546l-1-1.06-1-1-.13-.15-2.1-2.25c-1.12-1.2-2.24-2.41-3.34-3.64h0c-1.11-1.23-2.21-2.46-3.31-3.71l-1.31-1.5-.74-.84c-.57-.65-1.12-1.29-1.66-1.94q-1-1.2-2-2.4-4.28-5.1-8.39-10.48c-.76-1-1.5-1.93-2.24-2.92-1.89-2.47-3.73-5-5.57-7.55-.55-.8-1.12-1.59-1.68-2.39-.13-.16-.24-.34-.36-.5-.59-.86-1.19-1.7-1.77-2.56l-1.54-2.28a1,1,0,0,1-.12-.17c-.39-.57-.77-1.14-1.15-1.72-.74-1.09-1.47-2.2-2.19-3.31a1,1,0,0,0-.15-.24l-2.22-3.48-.22-.36-.88-1.43-1.22-2-.32-.53c-.17-.27-.34-.56-.51-.85-.46-.76-.94-1.56-1.38-2.33l-.64-1.1c-.5-.84-1-1.67-1.49-2.57q-4.61-8-8.77-16.46c-.35-.69-.69-1.38-1-2.09-.22-.44-.44-.88-.65-1.35-.43-.87-.8-1.74-1.25-2.63a25.91,25.91,0,0,1-1.15-2.47l-.23-.48c-.27-.58-.53-1.16-.81-1.75l-.26-.57c-.27-.59-.52-1.19-.8-1.78q-1.44-3.25-2.79-6.57c-.42-1-.8-2-1.23-3.08-.1-.25-.21-.52-.31-.79-.4-1-.8-2-1.16-3s-.69-1.82-1-2.74l-.24-.65c-.17-.44-.33-.91-.49-1.35q-1-2.7-1.9-5.44c-.21-.6-.4-1.2-.6-1.8-.26-.8-.51-1.54-.75-2.32-.14-.41-.27-.8-.4-1.22-.25-.8-.49-1.59-.75-2.39s-.51-1.71-.76-2.58L808.52,122.76Z"
       transform="translate(-445.5 -121.26)"
       id="path39979" />
  </g>
  <g
     id="Layer_5"
     data-name="Layer 5">
    <path
       d="M574.92,165.37c-.6-.3-1.35-1-1.76-.83-1.47.59-.28,1.42.16,1.86,2.51,2.46,5.12,4.84,7.77,7.31-2,1.55-2.57-.64-4.12-.13,3.32,6.91,6.68,13.63,14.73,17.45-3.87-.08-4.49-.39-11.16-5.34,1.45,6,6.59,9.93,4.79,15.65.88,2.84-.88,5.57-.36,8.4,1.77,13.4.5,26.86.76,40.29,0,.75,0,1.48-.9,1.24-.52-.14-.89-.87-1.51-1.52-1.1,3.47.59,7.28-2.06,10.88l-.59-5.58c.25,4.55-5.12,6.17-5.38,10.4,0,.63-.58,1-1,.7-4.7-3.09-7.48,1.28-10.67,3-3,1.65-8,.62-8.26,5.2-4-2.39-6.7.87-10.14,2.46,1.36-7.71,5.65-13.47,8.54-19.8.87-1.9,2.76-3-.13-5.18-1-.75,0-4.62,1.34-6.84,2.5-4.05,3-8.65,3.53-13.25.1-.87.07-2.37-.42-2.11-3.42,1.81-8-2.82-10.68,1.88a3.73,3.73,0,0,1-3.82,1.93c-5.48-.15-11-.26-16.45-.38-1.22,0-2.49,0-2.72-1.65-.2-1.42-.08-2.82,1.22-3.68.68-.46,1.68-.46,2.34-.93,1.42-1,4.34,0,4.41-2.65s-3.12-3.16-4.5-3.19c-4.44-.08-7.36-3-11.61-5.34,1.87,4.12-.39,6.45-2.87,7.63-2.13,1-1.31-2.57-3.07-3.11-.54,3.83-4.52,6.32-5.15,10.6-1.37,0-1-1.72-1.78-2.43-.59-.55-1.15-2.95-1.81,0-.27,1.21-1.56,1-2.09.55-3.72-3.11-7.42-.45-11.07,0-4.94.6-9.8.94-14.72-.11-2.5-.54-3.92-1.8-3.6-4.3s2-4.5,4.34-4.28c4.8.45,7.72-3.11,11.56-4.62,1.18-.47,2.83-1.14,2.29-2.89a4.11,4.11,0,0,0-2.12-1.94c-1.93-.94-1.71,1.41-2.7,2-.42.24-.84.5-1.65,1-.36-2.79,2.72-4.13,2-6.92-1.9.38-4,.38-5.72,1.21-5.74,2.79-9.76-.46-13.73-3.66a4,4,0,0,1-1.18-5.43c2.53-4.84,4.47-10,7.11-14.77,1.46-2.65-.73-5.34.86-7.89.54-.87.4-2.49,1.61-2.65.6-.08,1.39,1.21,2.24,2,3.95-7.17,4.43-15.48,7.92-23.63,1.31,3.24.24,6.2,2.1,8.35.16,2.28-1.11,4.19-1.4,6.1.82-1.88.92-4.37,2.59-6.17,1.74-2.21,1.14-5.6,4.64-8.44l-3.67,12.49c3.5-4.43,6.33-10.13,11.09-12,6.52-2.52,8.68-8.78,14.51-12.89-1.87,6.57-7.67,9.52-10.22,15.77l20.6-18.63c-.45,4.31-5.55,5.22-5.85,10,7.06-3.35,11.46-10.08,19.11-12.17-1.21,3.61-6,3.15-7.11,8.52a20.92,20.92,0,0,1,14.09-5.37c.95,0,2.5-1.28,2.56,1-1.07,1.27-2.79,1.15-3.46,1.57,1.21-1.31,3.6.7,5.5-.57l6.15-2.1c-2.37,3.36-1.07,4.54,1.83,5.28,5.26,1.34,10.78,1.8,15.64,4.55,3.74,2.11,6.95,4.68,5.94,9.53-.75,3.63,3.7,3.49,4.07,6.67-4-.37-5.85-4.36-9.87-5.07.33,3.35,3.65,4,5,6.06C576.76,166.08,576,166.16,574.92,165.37Z"
       transform="translate(-445.5 -121.26)"
       id="path39982" />
    <path
       class="cls-3"
       d="M574.92,165.37c.75,0,1.48-.09,1.89-.86l8.17,7C580.73,170.61,577.87,167.93,574.92,165.37Z"
       transform="translate(-445.5 -121.26)"
       id="path39984" />
    <path
       class="cls-4"
       d="M548.05,139.61l-10.52,3.31c2.63-3.83,5.67-3.81,8.47-4.3A2.24,2.24,0,0,0,548.05,139.61Z"
       transform="translate(-445.5 -121.26)"
       id="path39986" />
    <path
       class="cls-5"
       d="M585,209.73c-3.11-2.94.13-5.6.36-8.4C586.29,204.18,588.63,207.09,585,209.73Z"
       transform="translate(-445.5 -121.26)"
       id="path39988" />
    <path
       class="cls-6"
       d="M486.27,160.22a23.13,23.13,0,0,1-3.36,8.75c.25-3,.49-6,2.17-8.68Z"
       transform="translate(-445.5 -121.26)"
       id="path39990" />
    <path
       class="cls-7"
       d="M568.72,148.92c1.77.34,3.57.65,4.56,3-2.92-.14-5-1.47-7.05-2.85A1.77,1.77,0,0,1,568.72,148.92Z"
       transform="translate(-445.5 -121.26)"
       id="path39992" />
    <path
       class="cls-8"
       d="M568.72,148.92l-2.49.15c-1.85,0-3.63-.19-5.19-2A12.84,12.84,0,0,1,568.72,148.92Z"
       transform="translate(-445.5 -121.26)"
       id="path39994" />
    <path
       d="M839.88,432c-.6-.3-1.35-1-1.76-.83-1.47.59-.28,1.42.16,1.86,2.51,2.46,5.12,4.84,7.77,7.31-2,1.55-2.57-.64-4.12-.13,3.32,6.91,6.68,13.63,14.73,17.45-3.87-.08-4.49-.39-11.16-5.34,1.45,6,6.59,9.93,4.79,15.65.88,2.84-.88,5.57-.36,8.4,1.77,13.4.5,26.86.76,40.29,0,.75,0,1.48-.9,1.24-.52-.14-.89-.87-1.51-1.52-1.1,3.47.59,7.28-2.06,10.88l-.59-5.58c.25,4.55-5.12,6.17-5.38,10.4,0,.63-.58,1-1,.7-4.7-3.09-7.48,1.28-10.67,3-3,1.65-8,.62-8.26,5.2-4-2.39-6.7.87-10.14,2.46,1.36-7.71,5.65-13.47,8.54-19.8.87-1.9,2.76-3-.13-5.18-1-.75,0-4.62,1.34-6.84,2.5-4.05,3-8.65,3.53-13.25.1-.87.07-2.37-.42-2.11-3.42,1.81-8-2.82-10.68,1.88a3.73,3.73,0,0,1-3.82,1.93c-5.48-.15-11-.26-16.45-.38-1.22,0-2.49,0-2.72-1.65-.2-1.42-.08-2.82,1.22-3.68.68-.46,1.68-.46,2.34-.93,1.42-1,4.34,0,4.41-2.65s-3.12-3.16-4.5-3.19c-4.44-.08-7.36-3-11.61-5.34,1.87,4.12-.39,6.45-2.87,7.63-2.13,1-1.31-2.57-3.07-3.11-.54,3.83-4.52,6.32-5.15,10.6-1.37,0-1-1.72-1.78-2.43-.59-.55-1.15-2.95-1.81,0-.27,1.21-1.56,1-2.09.55-3.72-3.11-7.42-.45-11.07,0-4.94.6-9.8.94-14.72-.11-2.5-.54-3.92-1.8-3.6-4.3s2-4.5,4.34-4.28c4.8.45,7.72-3.11,11.56-4.62,1.18-.47,2.83-1.14,2.29-2.89a4.11,4.11,0,0,0-2.12-1.94c-1.93-.94-1.71,1.41-2.7,2-.42.24-.84.5-1.65,1-.36-2.79,2.72-4.13,2-6.92-1.9.38-4,.38-5.72,1.21-5.74,2.79-9.76-.46-13.73-3.66a4,4,0,0,1-1.18-5.43c2.53-4.84,4.47-10,7.11-14.77,1.46-2.65-.73-5.34.86-7.89.54-.87.4-2.49,1.61-2.65.6-.08,1.39,1.21,2.24,2,3.95-7.17,4.43-15.48,7.92-23.63,1.31,3.24.24,6.2,2.1,8.35.16,2.28-1.11,4.19-1.4,6.1.82-1.88.92-4.37,2.59-6.17,1.74-2.21,1.14-5.6,4.64-8.44l-3.67,12.49c3.5-4.43,6.33-10.13,11.09-12,6.52-2.52,8.68-8.78,14.51-12.89-1.87,6.57-7.67,9.52-10.22,15.77l20.6-18.63c-.45,4.31-5.55,5.22-5.85,10,7.06-3.35,11.46-10.08,19.11-12.17-1.21,3.61-6,3.15-7.11,8.52a20.92,20.92,0,0,1,14.09-5.37c.95,0,2.5-1.28,2.56,1-1.07,1.27-2.79,1.15-3.46,1.57,1.21-1.31,3.6.7,5.5-.57l6.15-2.1c-2.37,3.36-1.07,4.54,1.83,5.28,5.26,1.34,10.78,1.8,15.64,4.55,3.74,2.11,6.95,4.68,5.94,9.53-.75,3.63,3.7,3.49,4.07,6.67-4-.37-5.85-4.36-9.87-5.07.33,3.35,3.65,4,5,6.06C841.72,432.75,841,432.83,839.88,432Z"
       transform="translate(-445.5 -121.26)"
       id="path39996" />
    <path
       class="cls-3"
       d="M839.88,432c.75,0,1.48-.09,1.89-.86l8.17,7C845.69,437.28,842.82,434.6,839.88,432Z"
       transform="translate(-445.5 -121.26)"
       id="path39998" />
    <path
       class="cls-4"
       d="M813,406.28l-10.52,3.31c2.63-3.83,5.67-3.81,8.47-4.3A2.24,2.24,0,0,0,813,406.28Z"
       transform="translate(-445.5 -121.26)"
       id="path40000" />
    <path
       class="cls-5"
       d="M849.92,476.4c-3.11-2.94.13-5.6.36-8.4C851.24,470.85,853.59,473.75,849.92,476.4Z"
       transform="translate(-445.5 -121.26)"
       id="path40002" />
    <path
       class="cls-6"
       d="M751.23,426.89a23.13,23.13,0,0,1-3.36,8.75c.25-3,.49-6,2.17-8.68Z"
       transform="translate(-445.5 -121.26)"
       id="path40004" />
    <path
       class="cls-7"
       d="M833.68,415.58c1.77.34,3.57.65,4.56,3-2.92-.14-5-1.47-7.05-2.85A1.77,1.77,0,0,1,833.68,415.58Z"
       transform="translate(-445.5 -121.26)"
       id="path40006" />
    <path
       class="cls-8"
       d="M833.68,415.58l-2.49.15c-1.85,0-3.63-.19-5.19-2A12.84,12.84,0,0,1,833.68,415.58Z"
       transform="translate(-445.5 -121.26)"
       id="path40008" />
  </g>
  <g
     id="Layer_3"
     data-name="Layer 3">
    <path
       class="cls-9"
       d="M927,122.76V328.6a313.88,313.88,0,0,1-2.28,38c-.11.93-.24,1.86-.36,2.79,0,.2,0,.4-.08.59-.09.74-.19,1.47-.31,2.2-.46,3.37-1,6.69-1.6,10-.07.44-.15.87-.23,1.31-.16.8-.29,1.6-.45,2.4s-.34,1.79-.51,2.69l-.45,2.22-.24,1.15c-.15.71-.3,1.44-.46,2.15-.54,2.37-1.07,4.71-1.61,7l-.58,2.32-.52,2q-1.53,5.88-3.27,11.61c-.29,1-.59,1.94-.9,2.92l-.6,1.88c-.2.63-.4,1.24-.61,1.86-.37,1.09-.73,2.17-1.1,3.25s-.68,2-1,3c-.47,1.28-.93,2.56-1.39,3.81-.36,1-.73,2-1.11,3l-.19.5c-.43,1.14-.87,2.25-1.32,3.36s-.87,2.17-1.31,3.2c0,.15-.12.28-.18.42-.4,1-.8,2-1.25,3s-.76,1.75-1.13,2.62l-.66,1.49c-.48,1.07-1,2.11-1.44,3.15s-.9,2-1.36,2.93l-1,2.12c-.29.63-.6,1.25-.91,1.87-.63,1.33-1.31,2.64-2,4q-2.52,5-5.19,9.77l-2,3.57-.12.21c-1.4,2.44-2.82,4.86-4.28,7.24a.41.41,0,0,1,0,.09c-.71,1.2-1.46,2.4-2.18,3.54-.11.16-.2.32-.3.47s-.31.5-.47.74c-.4.64-.81,1.28-1.22,1.92l-.65,1c-.65,1-1.31,2-2,3l-.13.18c-.65,1-1.31,2-2,3l-.45.67q-2.25,3.29-4.54,6.46l-.31.43c-.8,1.07-1.54,2.14-2.31,3.19s-1.66,2.23-2.5,3.32c-1.52,2-3.06,4-4.61,6l-.81,1q-1.09,1.39-2.22,2.76L854,526.61l-.57.69c-.4.47-.79.93-1.2,1.39a4.16,4.16,0,0,1-.27.32c-.31.37-.62.73-.94,1.09-1.23,1.44-2.46,2.87-3.73,4.29-.65.75-1.32,1.5-2,2.24s-1.52,1.69-2.29,2.51-1.47,1.6-2.22,2.4q-3,3.2-5.93,6.24-2.76,2.82-5.53,5.59l-.83.82c-.64.64-1.29,1.27-1.93,1.89-.92.89-1.85,1.78-2.79,2.66l-2.28,2.12c-.68.65-1.36,1.28-2,1.91q-14.52,13.32-30.16,25.31c-1,.77-2,1.52-3,2.28q-9.86,7.43-20.1,14.31-1.56,1.05-3.12,2.07c-1,.65-2,1.29-3,1.92a0,0,0,0,1,0,0l-.18.12h0l-2.24,1.45c-.86.55-1.72,1.1-2.57,1.6l-1.74,1.09c-3.67,2.31-7.25,4.48-10.73,6.54l-2.41,1.4-2.36,1.37-2.33,1.34-2.23,1.29c-8.34,4.68-15.9,8.59-22.38,11.76l-1.6.8c-10.64,5.15-18.12,8.22-21,9.35l-.42.17-.61.24-.14,0h-.08l-.23-.09-.21,0-1.07-.42-.54-.23c-.87-.34-2-.8-3.37-1.38l-.46-.18c-1.76-.8-3.89-1.67-6.33-2.77l-1.39-.61a442.25,442.25,0,0,1-39.75-20.6c-.8-.44-1.6-.92-2.35-1.38q-7.23-4.26-14.29-8.78-5.26-3.36-10.42-6.85c-.75-.51-1.49-1-2.23-1.53-.57-.38-1.13-.76-1.69-1.16q-8.21-5.66-16.15-11.66l-2.63-2-.61-.47c-.77-.6-1.55-1.2-2.33-1.82l-2.37-1.86-.44-.35c-6.19-4.92-12.43-10.15-18.64-15.69L558.08,566q-2.31-2.05-4.59-4.2l-1.67-1.57L550,558.54l-2-1.94c-1.12-1.07-2.23-2.17-3.33-3.27-.85-.79-1.69-1.66-2.52-2.5l-.24-.26c-.84-.83-1.67-1.67-2.5-2.51l-.34-.36-.38-.39L537.4,546l-1-1.06-1-1-.13-.15-2.1-2.25c-1.12-1.2-2.24-2.41-3.34-3.64h0c-1.11-1.23-2.21-2.46-3.31-3.71l-1.31-1.5-.74-.84c-.57-.65-1.12-1.29-1.66-1.94q-1-1.2-2-2.4-4.28-5.1-8.39-10.48c-.76-1-1.5-1.93-2.24-2.92-1.89-2.47-3.73-5-5.57-7.55-.55-.8-1.12-1.59-1.68-2.39-.13-.16-.24-.34-.36-.5-.59-.86-1.19-1.7-1.77-2.56l-1.54-2.28a1,1,0,0,1-.12-.17c-.39-.57-.77-1.14-1.15-1.72-.74-1.09-1.47-2.2-2.19-3.31a1,1,0,0,0-.15-.24l-2.22-3.48-.22-.36-.88-1.43-1.22-2-.32-.53c-.17-.27-.34-.56-.51-.85-.46-.76-.94-1.56-1.38-2.33l-.64-1.1c-.5-.84-1-1.67-1.49-2.57q-4.61-8-8.77-16.46c-.35-.69-.69-1.38-1-2.09-.22-.44-.44-.88-.65-1.35-.43-.87-.8-1.74-1.25-2.63a25.91,25.91,0,0,1-1.15-2.47l-.23-.48c-.27-.58-.53-1.16-.81-1.75l-.26-.57c-.27-.59-.52-1.19-.8-1.78q-1.44-3.25-2.79-6.57c-.42-1-.8-2-1.23-3.08-.1-.25-.21-.52-.31-.79-.4-1-.8-2-1.16-3s-.69-1.82-1-2.74l-.24-.65c-.17-.44-.33-.91-.49-1.35q-1-2.7-1.9-5.44c-.21-.6-.4-1.2-.6-1.8-.26-.8-.51-1.54-.75-2.32-.14-.41-.27-.8-.4-1.22-.25-.8-.49-1.59-.75-2.39s-.51-1.71-.76-2.58c-.06-.18-.11-.35-.16-.53-.19-.64-.39-1.28-.57-1.95-.37-1.29-.74-2.58-1.09-3.89-.19-.68-.37-1.35-.55-2-.13-.5-.27-1-.4-1.51-.32-1.22-.62-2.45-.92-3.7-.18-.7-.34-1.4-.52-2.11-.07-.28-.13-.56-.19-.85-.37-1.55-.72-3.11-1.07-4.69-.26-1.16-.5-2.33-.74-3.5-.13-.71-.29-1.43-.42-2.14s-.32-1.59-.48-2.45a1.86,1.86,0,0,0-.09-.47c-.16-.8-.3-1.64-.45-2.48s-.32-1.84-.48-2.77-.29-1.8-.45-2.71q-.57-3.7-1.07-7.47c-.17-1.23-.33-2.47-.48-3.71A312.7,312.7,0,0,1,447,328.58V122.76Z"
       transform="translate(-445.5 -121.26)"
       id="path40011" />
  </g>
  <path
     id="shine"
     d="M 1.5800437,0.70902214 V 207.0859 c 0,229.66454 239.9199963,319.6031 239.9199963,319.6031 0,0 239.92,-89.93856 239.92,-319.6031 V 0.70902214 Z"
     style="fill:url(#rg);stroke:#000000;stroke-width:2.41218" />
</svg>
