<?xml version="1.0" encoding="UTF-8" standalone="no"?>
<svg
   viewBox="0 0 483 527.48"
   version="1.1"
   id="svg28421"
   sodipodi:docname="House Bolton GoT.svg"
   inkscape:version="1.2.1 (9c6d41e410, 2022-07-14)"
   xmlns:inkscape="http://www.inkscape.org/namespaces/inkscape"
   xmlns:sodipodi="http://sodipodi.sourceforge.net/DTD/sodipodi-0.dtd"
   xmlns="http://www.w3.org/2000/svg"
   xmlns:svg="http://www.w3.org/2000/svg">
  <sodipodi:namedview
     id="namedview28423"
     pagecolor="#ffffff"
     bordercolor="#000000"
     borderopacity="0.25"
     inkscape:showpageshadow="2"
     inkscape:pageopacity="0.0"
     inkscape:pagecheckerboard="0"
     inkscape:deskcolor="#d1d1d1"
     showgrid="false"
     inkscape:zoom="0.79339504"
     inkscape:cx="112.17615"
     inkscape:cy="296.19545"
     inkscape:window-width="1920"
     inkscape:window-height="1017"
     inkscape:window-x="-8"
     inkscape:window-y="-8"
     inkscape:window-maximized="1"
     inkscape:current-layer="svg28421" />
  <defs
     id="defs28064">
    <style
       id="style28062">.cls-1,.cls-3{stroke:#000;}.cls-1{stroke-width:3px;}.cls-2{fill:#dbd5bd;}.cls-3{fill:none;stroke-miterlimit:10;}.cls-4{fill:#a82630;}</style>
    <radialGradient
       id="rg"
       gradientUnits="userSpaceOnUse"
       cx="220"
       cy="220"
       r="405"
       gradientTransform="matrix(0.80510068,0,0,0.80302287,0.0497977,-0.374486)">
      <stop
         style="stop-color:#ffffff;stop-opacity:.3"
         offset="0"
         id="stop753" />
      <stop
         style="stop-color:#ffffff;stop-opacity:.2"
         offset=".2"
         id="stop755" />
      <stop
         style="stop-color:#666666;stop-opacity:.1"
         offset=".6"
         id="stop757" />
      <stop
         style="stop-color:#000000;stop-opacity:.13"
         offset="1"
         id="stop759" />
    </radialGradient>
  </defs>
  <title
     id="title28066">Bolton-Shield</title>
  <g
     id="Layer_4"
     data-name="Layer 4">
    <path
       class="cls-1"
       d="M923,121.76V327.6a314.37,314.37,0,0,1-2.28,38c-.11.93-.24,1.86-.36,2.79s-.24,1.86-.39,2.79q-.7,5.05-1.61,10c-.07.44-.15.87-.23,1.31-.15.8-.29,1.6-.45,2.39s-.34,1.8-.51,2.69l-.45,2.22-.24,1.16c-.15.71-.3,1.44-.47,2.15q-.8,3.55-1.61,7l-.58,2.32-.52,2q-1.52,5.88-3.27,11.61c-.29,1-.59,1.94-.9,2.92l-.6,1.88c-.19.63-.39,1.25-.6,1.86l-1.1,3.26c-.37,1.09-.68,2-1,3-.47,1.28-.92,2.55-1.39,3.81-.36,1-.73,2-1.11,3l-.19.49c-.43,1.14-.87,2.25-1.32,3.37s-.87,2.16-1.32,3.19a3.35,3.35,0,0,1-.18.42c-.4,1-.8,2-1.25,3s-.75,1.75-1.13,2.62l-.66,1.49c-.47,1.07-.95,2.12-1.44,3.15s-.9,2-1.36,2.93l-1,2.12c-.3.63-.6,1.25-.91,1.88-.63,1.32-1.31,2.64-2,4q-2.53,5-5.19,9.77l-2,3.57-.11.21q-2.13,3.71-4.33,7.33c-.71,1.2-1.46,2.39-2.18,3.54-.1.16-.19.31-.3.46-.55.89-1.12,1.78-1.69,2.66l-.66,1c-.65,1-1.31,2-2,3l-.13.18c-.66,1-1.32,2-2,3l-.45.67q-2.26,3.28-4.54,6.46l-.31.42c-.8,1.07-1.54,2.14-2.31,3.19s-1.66,2.23-2.5,3.32q-2.29,3-4.61,6l-.8,1c-.73.93-1.48,1.85-2.22,2.76L850,525.61l-.57.69L847,529.1q-2.83,3.32-5.72,6.53c-.75.85-1.52,1.69-2.29,2.51l-2.22,2.39q-3,3.19-5.93,6.24-2.76,2.83-5.53,5.59c-.91.91-1.84,1.82-2.76,2.71s-1.85,1.78-2.78,2.67l-2.28,2.11c-.68.65-1.36,1.28-2.05,1.91a448.64,448.64,0,0,1-61.76,47.47c-.86.55-1.73,1.1-2.58,1.6q-6.42,4.07-12.46,7.63l-2.41,1.4-2.36,1.36-2.34,1.35-2.22,1.28c-8.35,4.68-15.91,8.59-22.38,11.76l-1.61.8c-10.63,5.15-18.11,8.22-21,9.35l-.42.18-.61.23-.14.06h-.08l-.23-.1-.21,0-1.07-.42-.55-.23c-.87-.34-2-.8-3.36-1.38l-.47-.18c-1.76-.8-3.88-1.67-6.33-2.77l-1.39-.61a443.16,443.16,0,0,1-39.74-20.6c-.8-.45-1.61-.92-2.36-1.38a473.14,473.14,0,0,1-44.78-30l-2.62-2c-1-.75-2-1.52-2.95-2.29l-2.81-2.21c-6.19-4.92-12.43-10.15-18.64-15.69L554.08,565q-2.3-2.05-4.59-4.2l-1.67-1.57L546,557.54l-2-1.94c-1.12-1.07-2.24-2.16-3.34-3.26-.84-.8-1.69-1.67-2.52-2.51l-.24-.26q-1.25-1.25-2.5-2.51c-.66-.68-1.32-1.36-2-2l-2-2.07-.13-.15-2.1-2.24q-3.36-3.61-6.66-7.36c-.68-.8-1.36-1.55-2-2.35-.57-.65-1.12-1.28-1.66-1.94l-2-2.39q-4.26-5.11-8.39-10.48-1.13-1.45-2.24-2.92c-1.89-2.47-3.73-5-5.57-7.55l-1.68-2.39c-.13-.16-.24-.34-.36-.5-.59-.85-1.19-1.7-1.77-2.55-.95-1.38-1.89-2.77-2.82-4.17q-1.11-1.64-2.18-3.31l-.15-.24-2.22-3.47c-.07-.13-.15-.24-.22-.37-.71-1.14-1.41-2.27-2.1-3.4s-1.49-2.46-2.21-3.7-1.44-2.39-2.13-3.67q-4.6-8-8.77-16.47c-.35-.69-.69-1.38-1-2.08-.22-.44-.44-.89-.65-1.35-.43-.87-.8-1.75-1.25-2.63a27.17,27.17,0,0,1-1.15-2.47l-.23-.48c-.26-.58-.52-1.16-.8-1.75l-.26-.57c-.26-.58-.52-1.18-.8-1.77q-1.44-3.26-2.78-6.58c-.42-1-.8-2-1.23-3.07-.1-.26-.21-.53-.31-.8-.4-1-.8-2-1.16-3s-.68-1.82-1-2.74l-.23-.65c-.18-.45-.34-.91-.5-1.36q-1-2.69-1.89-5.44c-.21-.6-.4-1.21-.6-1.8-.26-.8-.51-1.54-.75-2.31-.14-.42-.26-.8-.39-1.22-.26-.8-.5-1.6-.75-2.39-.31-1-.61-2.06-.92-3.1-.18-.65-.39-1.28-.57-2-.37-1.28-.74-2.58-1.08-3.89-.19-.68-.37-1.35-.55-2-.13-.5-.26-1-.39-1.51-.32-1.22-.63-2.46-.92-3.7-.18-.7-.35-1.4-.52-2.11-.07-.29-.13-.57-.19-.85-.37-1.55-.71-3.11-1.07-4.69-.26-1.16-.5-2.33-.74-3.5-.14-.71-.29-1.43-.43-2.14s-.32-1.6-.47-2.45a2.13,2.13,0,0,0-.1-.47c-.15-.8-.3-1.64-.45-2.48s-.31-1.84-.47-2.77-.3-1.8-.45-2.71q-.87-5.52-1.56-11.17A314.73,314.73,0,0,1,443,327.58V121.76Z"
       transform="translate(-441.5 -120.26)"
       id="path28068" />
  </g>
  <g
     id="Layer_11"
     data-name="Layer 11">
    <path
       class="cls-2"
       d="M669.75,423.31s1,6.94,0,9-2.82,9.19-3.6,11.06-4.28,6.5-3.65,9a3.67,3.67,0,0,0,2.63,2.88s-2.51,2.13-2.13,4.38,1.25,4.94.5,6.22-3.87,2.91-3.25,3.66,2.75-.25,3.75,0,2.4,3.75,3.2,4.88.17,4.5.55,5.38,1.51-5.25,2.44-7.25,1.31.38,1.31.38-.5,6.42,0,7,2.75-3.46,3-5,1.49-1.12,1.5-.5,1.42,4.64,2.78,5.51,1.73.87,1.73.87-1.5-2.87-.69-4.12,3.81-3,4.69-1.5,2,3,2,3,.4-4.5,1.65-4.87,5.45,4.63,6.41,5-2-4.5-1.7-5.87A5.66,5.66,0,0,1,694,470s1.21,3,2,3.25,1-2.5,1-3.87-1.58-2.75-1-4.87l.63-2.12s-.81,2.69.34,3.47a9.46,9.46,0,0,1,1.8,1.55s-.1-2.39,0-4.27-1.36-5.12-1.81-6.25a5.28,5.28,0,0,1,0-2.54c-.08-.08,0,.8.79,0s1-5.57,1-6.69-2.52-2.5-2.52-3.25-.6-8.24-3.59-12a3,3,0,0,1-.44-2.94c1.06-2.68,2.92-7.7,3.07-10.08.21-3.33-21.67,1.17-21.67,1.17Z"
       transform="translate(-441.5 -120.26)"
       id="path28071" />
  </g>
  <g
     id="Layer_3"
     data-name="Layer 3">
    <polygon
       class="cls-2"
       points="241.86 176.49 284.83 88.49 334.17 88.74 266.88 229.54 330.5 372.99 282.5 372.99 251.78 303.48 238.73 301.32 227.25 304.74 192.75 372.99 145.25 372.99 215.5 227.74 153.75 88.49 202.75 88.49 241.62 176.49 241.86 176.49"
       id="polygon28074" />
  </g>
  <g
     id="Layer_7"
     data-name="Layer 7">
    <path
       class="cls-2"
       d="M594.42,492.42s-10,18-10.42,22.58c0,0,.25,2,1.58.46,0,0-1.17,3.25-.08,4.33s2.25-1.08,2.25-1.08-1.92,4-.83,6.13,4.17-2.54,5.67-6c0,0-1.65,5.46-.54,5.92,2.33,1,5.08-3.48,13-19.56,0,0,.81-.94,2.38.13s3.19,5.19,8.88,4.94-5.23-4-4.94-7.94c.31-4.31-5.19-8.12-5.25-9.44s-9.94-1.25-9.94-1.25Z"
       transform="translate(-441.5 -120.26)"
       id="path28077" />
    <path
       class="cls-2"
       d="M762.6,493.42s10,18,10.42,22.58c0,0-.25,2-1.58.46,0,0,1.17,3.25.08,4.33s-2.25-1.08-2.25-1.08,1.92,4,.83,6.13-4.17-2.54-5.67-6c0,0,1.65,5.46.54,5.92-2.33,1-5.08-3.48-13-19.56,0,0-.81-.94-2.37.13s-3.19,5.19-8.87,4.94,5.23-4,4.94-7.94c-.31-4.31,5.19-9.12,5.25-10.44s9.94-.25,9.94-.25Z"
       transform="translate(-441.5 -120.26)"
       id="path28079" />
    <g
       id="Layer_8"
       data-name="Layer 8">
      <path
         class="cls-3"
         d="M589.33,505.92c.42.17,4.92,4.5,9.92,5.83"
         transform="translate(-441.5 -120.26)"
         id="path28081" />
      <path
         class="cls-3"
         d="M590.19,506.58s-3.19,7.51-6.86,10.92"
         transform="translate(-441.5 -120.26)"
         id="path28083" />
      <path
         class="cls-3"
         d="M593.21,508.83s-6.54,12-9,13.92"
         transform="translate(-441.5 -120.26)"
         id="path28085" />
      <path
         class="cls-3"
         d="M597.37,511.11s-9.27,16.06-10.61,17.64"
         transform="translate(-441.5 -120.26)"
         id="path28087" />
      <path
         class="cls-3"
         d="M593.21,501.17c.54-.12,5,1.17,7-3.92,0,0-1.25,5.5,5.17,7.58"
         transform="translate(-441.5 -120.26)"
         id="path28089" />
      <path
         class="cls-3"
         d="M596.25,505.25c1.58-1.33,3.92-8,3.92-8"
         transform="translate(-441.5 -120.26)"
         id="path28091" />
      <path
         class="cls-3"
         d="M767.69,506.92c-.42.17-4.92,4.5-9.92,5.83"
         transform="translate(-441.5 -120.26)"
         id="path28093" />
      <path
         class="cls-3"
         d="M766.83,507.58s3.19,7.51,6.86,10.92"
         transform="translate(-441.5 -120.26)"
         id="path28095" />
      <path
         class="cls-3"
         d="M763.81,509.83s6.54,12,9,13.92"
         transform="translate(-441.5 -120.26)"
         id="path28097" />
      <path
         class="cls-3"
         d="M759.65,512.11s9.27,16.06,10.61,17.64"
         transform="translate(-441.5 -120.26)"
         id="path28099" />
      <path
         class="cls-3"
         d="M763.81,501.17c-.54-.12-5,1.17-7-3.92,0,0,1.25,5.5-5.17,7.58"
         transform="translate(-441.5 -120.26)"
         id="path28101" />
      <path
         class="cls-3"
         d="M760.77,506.25c-1.58-1.33-3.92-8-3.92-8"
         transform="translate(-441.5 -120.26)"
         id="path28103" />
      <path
         class="cls-3"
         d="M589.33,505.92c.42.17,4.92,4.5,9.92,5.83"
         transform="translate(-441.5 -120.26)"
         id="path28105" />
      <path
         class="cls-3"
         d="M590.19,506.58s-3.19,7.51-6.86,10.92"
         transform="translate(-441.5 -120.26)"
         id="path28107" />
      <path
         class="cls-3"
         d="M593.21,508.83s-6.54,12-9,13.92"
         transform="translate(-441.5 -120.26)"
         id="path28109" />
      <path
         class="cls-3"
         d="M597.37,511.11s-9.27,16.06-10.61,17.64"
         transform="translate(-441.5 -120.26)"
         id="path28111" />
      <path
         class="cls-3"
         d="M593.21,501.17c.54-.12,5,1.17,7-3.92,0,0-1.25,5.5,5.17,7.58"
         transform="translate(-441.5 -120.26)"
         id="path28113" />
      <path
         class="cls-3"
         d="M596.25,505.25c1.58-1.33,3.92-8,3.92-8"
         transform="translate(-441.5 -120.26)"
         id="path28115" />
      <path
         class="cls-3"
         d="M767.69,506.92c-.42.17-4.92,4.5-9.92,5.83"
         transform="translate(-441.5 -120.26)"
         id="path28117" />
      <path
         class="cls-3"
         d="M766.83,507.58s3.19,7.51,6.86,10.92"
         transform="translate(-441.5 -120.26)"
         id="path28119" />
      <path
         class="cls-3"
         d="M763.81,509.83s6.54,12,9,13.92"
         transform="translate(-441.5 -120.26)"
         id="path28121" />
      <path
         class="cls-3"
         d="M759.65,512.11s9.27,16.06,10.61,17.64"
         transform="translate(-441.5 -120.26)"
         id="path28123" />
      <path
         class="cls-3"
         d="M763.81,501.17c-.54-.12-5,1.17-7-3.92,0,0,1.25,5.5-5.17,7.58"
         transform="translate(-441.5 -120.26)"
         id="path28125" />
      <path
         class="cls-3"
         d="M760.77,506.25c-1.58-1.33-3.92-8-3.92-8"
         transform="translate(-441.5 -120.26)"
         id="path28127" />
    </g>
  </g>
  <g
     id="Layer_9"
     data-name="Layer 9">
    <path
       class="cls-2"
       d="M619.08,208.75s-1.5-9.25-5.25-13.33-10.17-17.58-10.08-20.17,2.83.75,3.58,1.83-1-3.08-.83-4.5,2.75,1.08,3.17,2.83-1.08-3.58-.67-4.5,1.27-.63,3.05,2.59a.16.16,0,0,0,.29-.09,16.24,16.24,0,0,1-.18-4.83c.42-1.75,2.17,2.42,3,4.5,0,0-1.58-5.17-.58-6.75,0,0,5.75,1.58,6.42,9.08s-.25,8.58,1.25,11.17,4.83,14.08,5.58,15.67,3.83,3.08,3.83,7a26.15,26.15,0,0,1-.67,6.33l-6.33-7.08Z"
       transform="translate(-441.5 -120.26)"
       id="path28131" />
    <path
       class="cls-2"
       d="M739.75,208.08c.17-.83,1.75-6.92,3.42-9.33s4-5.08,4.58-7.58,1.92-6.08,1.92-9.33.5-5.33,1.33-6.25,1-2.75,2.08-2.92,2.5-.83,2.08,1.33.75,1.58.75,1.58.92-3.54,2.08-3.14.92,2.89.83,3.31,1.33-1.08,1.83-1.67,1.42.25,1.25,2.25,0,1.33,1.58.33.92,1.75.92,2.42,1.5-1.67,1.5.08-1.75,7-2.75,8-8.33,13.17-9.58,14.17.25,3.33-2,6.25a45.25,45.25,0,0,0-4.25,7.25l-6.17-3.17Z"
       transform="translate(-441.5 -120.26)"
       id="path28133" />
  </g>
  <g
     id="Layer_10"
     data-name="Layer 10">
    <path
       class="cls-3"
       d="M756,173.33a14.55,14.55,0,0,1-1.25,4.58"
       transform="translate(-441.5 -120.26)"
       id="path28136" />
    <path
       class="cls-3"
       d="M760.19,172.5a32.29,32.29,0,0,1-1.67,4.67"
       transform="translate(-441.5 -120.26)"
       id="path28138" />
    <path
       class="cls-3"
       d="M762.42,176.25s-.67,2.42-.75,2.67"
       transform="translate(-441.5 -120.26)"
       id="path28140" />
    <path
       class="cls-3"
       d="M765.83,177.17s-1.58,3.08-1.67,3.33"
       transform="translate(-441.5 -120.26)"
       id="path28142" />
    <path
       class="cls-3"
       d="M613.19,167.44c.19,0,1.94,5.12,2.37,5.94"
       transform="translate(-441.5 -120.26)"
       id="path28144" />
    <path
       class="cls-3"
       d="M611,170.41c.19.16,1,4.09,1.56,4.66"
       transform="translate(-441.5 -120.26)"
       id="path28146" />
    <path
       class="cls-3"
       d="M607.88,171.56c-.06.19,1.38,2.75,2,4.19"
       transform="translate(-441.5 -120.26)"
       id="path28148" />
    <path
       class="cls-3"
       d="M605.69,174.25a20,20,0,0,0,1.88,3.19"
       transform="translate(-441.5 -120.26)"
       id="path28150" />
  </g>
  <g
     id="Layer_5"
     data-name="Layer 5">
    <path
       class="cls-4"
       d="M595.63,486.88s9.57-21.87,11-35.21c1-9.23,34.5-39.33,34.5-39.33s.67-10.68,9.12-22.39c7.53-10.44,5.81-39.75,5.13-48.21a15.19,15.19,0,0,0-1-4.31c-3-7.67-13.93-33.83-13.93-42.25s-.33-23.33-.33-24.83-3.07,0-3.33-11c0,0-9.52-9.5-10.43-15.67s-8.07-31-7.57-36.67l2,.67L621,197s3.67,7.67,4.17,8.33.31-1.33,1.24-1.33,3.59,3.17,4.26,5.67,5,13.17,12.17,21.83A23.41,23.41,0,0,1,648,249.83,24.68,24.68,0,0,1,655.33,268s15,24.5,24.17,50.17h5.83s12.17-24.67,14.33-29.5,11.17-19.67,12-24.67a18.32,18.32,0,0,1,5.67-9.83c.83-.5,3.83-19.17,7.5-22.5s14.83-24.67,16-25.33v2.5s4.67-5.67,5.17-6.17v8.83a11.41,11.41,0,0,1,2.5,0c1,.17-6.17,28.67-7.33,31.33s-1.5,11-11.17,18.67c0,0-.33,7-3.33,10,0,0-2.83,32.67-8,41.5,0,0-4.17,12.5-5,14.83s-6,12.5-6.33,15.33-.5,27.17-.33,31.33-.33,13.33,1.17,14.83,6.83,3.67,8.67,11.83,3.83,11.33,4.67,12.17,9.83,8.83,12,12.33,9,12.67,10.33,15.5,6.17,5.5,7,8S757,473.83,757,473.83s3.83,13.67,4.17,15.33-2.1,3.83-3-1l-1,6.44a.3.3,0,0,1-.56.09,42.3,42.3,0,0,1-2.92-6.7l-1,3.5-2.17.19s-5.5-14.85-9.17-21-6-18.17-6-18.17-16-13.67-20.33-20.83L694,422a24.93,24.93,0,0,0-4.67.17c-2,.33-5,5.5-5,5.5s-3.17-9-3.33-9.83-2.12,3.5-2.23,4.17-2.1-1-2.1-1-1.5,4.33-2.33,4.33-1.83-3.5-2.17-4.17-9.5,1.83-13.17,4.67-12.5,4-12.5,4-23.83,22.33-24.83,23.5-2.32,12.4-13.85,34.88a.74.74,0,0,1-.46.37l-.91.25a.73.73,0,0,1-.86-.42l-1.09-2.58-2.89,6.54a.17.17,0,0,1-.33-.05c-.17-2-.7-7.6-1.11-7.32S597,488.71,595.63,486.88Z"
       transform="translate(-441.5 -120.26)"
       id="path28153" />
  </g>
  <g
     id="Layer_6"
     data-name="Layer 6">
    <path
       class="cls-3"
       d="M603.67,481.67a98,98,0,0,1,6.41-14.27c2.73-4.92,6.22-10,10.26-13.06"
       transform="translate(-441.5 -120.26)"
       id="path28156" />
    <path
       class="cls-3"
       d="M610.08,467.39s2.59-14.23,1.92-15.73-3.67,1-2.67-3.5c.92-4.14,4.24-3.48,7.89-2.83a1.17,1.17,0,0,0,1.29-.7c1.87-4.56,11.43-25.82,30-32.8"
       transform="translate(-441.5 -120.26)"
       id="path28158" />
    <path
       class="cls-3"
       d="M618.33,448.67s24.83-14.67,32.5-40"
       transform="translate(-441.5 -120.26)"
       id="path28160" />
    <path
       class="cls-3"
       d="M644,433.17s10-19.67,9.33-31.67,3.46-25.9,11.8-32.06"
       transform="translate(-441.5 -120.26)"
       id="path28162" />
    <path
       class="cls-3"
       d="M652.32,410.79c1,0,2.51,4.54,4.35,5"
       transform="translate(-441.5 -120.26)"
       id="path28164" />
    <path
       class="cls-3"
       d="M651.42,414.31s.25,3.86,1.91,6.19"
       transform="translate(-441.5 -120.26)"
       id="path28166" />
    <path
       class="cls-3"
       d="M668.17,419.33a52.52,52.52,0,0,1,6.17-1c1.5,0,3-.88,3.67-4"
       transform="translate(-441.5 -120.26)"
       id="path28168" />
    <path
       class="cls-3"
       d="M680.5,414.31c.5,1,1,4.69,3.5,5s5.5-1.5,8.83,2.67"
       transform="translate(-441.5 -120.26)"
       id="path28170" />
    <path
       class="cls-3"
       d="M640.5,410s10-6.84,12.85-6.84a16.91,16.91,0,0,0,3.31,6.84"
       transform="translate(-441.5 -120.26)"
       id="path28172" />
    <line
       class="cls-3"
       x1="200.67"
       y1="284.41"
       x2="207.78"
       y2="284.41"
       id="line28174" />
    <path
       class="cls-3"
       d="M644,400.5s7.17-.33,9.33,1"
       transform="translate(-441.5 -120.26)"
       id="path28176" />
    <path
       class="cls-3"
       d="M646.93,395.5s4.42,1.83,6.33,3.5"
       transform="translate(-441.5 -120.26)"
       id="path28178" />
    <path
       class="cls-3"
       d="M650.09,390.67a42,42,0,0,1,3.42,3"
       transform="translate(-441.5 -120.26)"
       id="path28180" />
    <path
       class="cls-3"
       d="M651.8,387.17s5-19.46,10.91-23.47a.52.52,0,0,1,.8.29c1.06,3.7,6.81,22.18,17,28.18"
       transform="translate(-441.5 -120.26)"
       id="path28182" />
    <line
       class="cls-3"
       x1="239"
       y1="289.74"
       x2="239"
       y2="228.74"
       id="line28184" />
    <path
       class="cls-3"
       d="M653.35,403.16s6.48-21.6,27.15-11"
       transform="translate(-441.5 -120.26)"
       id="path28186" />
    <path
       class="cls-3"
       d="M656.06,397.55a42.51,42.51,0,0,1,11.15-22.62s1.35-2.43,3.57-2.68,6.39-1.33,9.73,3.92c0,0,7.74-6.58,10.5-3s3.62,3.75,3.62,3.75"
       transform="translate(-441.5 -120.26)"
       id="path28188" />
    <path
       class="cls-3"
       d="M655.21,364.38s5.56-5.62,8.06-7.62"
       transform="translate(-441.5 -120.26)"
       id="path28190" />
    <path
       class="cls-3"
       d="M661,352.92s9.64-14.54,11.41-15.85"
       transform="translate(-441.5 -120.26)"
       id="path28192" />
    <path
       class="cls-3"
       d="M669.08,352.25s9.17,9.17,11.42,3.83"
       transform="translate(-441.5 -120.26)"
       id="path28194" />
    <path
       class="cls-3"
       d="M667.75,358.5s2.68-2,3.42-1.75,5.41,7.42,9.33,2.75"
       transform="translate(-441.5 -120.26)"
       id="path28196" />
    <path
       class="cls-3"
       d="M655.21,355a16,16,0,0,0,7.7-12.75"
       transform="translate(-441.5 -120.26)"
       id="path28198" />
    <path
       class="cls-3"
       d="M678.67,315.67c-1.55,17.44-16.93,24.81-20.51,26.29a.14.14,0,0,1-.15-.23c3-2.75,15.84-16.24,10-38.73-6.54-25.33-10.54-31.67-19-29.67"
       transform="translate(-441.5 -120.26)"
       id="path28200" />
    <path
       class="cls-3"
       d="M658,341.73s2.74-13.89-1.43-19.06-16.92-29.58-13-44.67"
       transform="translate(-441.5 -120.26)"
       id="path28202" />
    <path
       class="cls-3"
       d="M647.42,276.58s4.25,16.5,25.42,39.75"
       transform="translate(-441.5 -120.26)"
       id="path28204" />
    <path
       class="cls-3"
       d="M646.81,271.94s-10.31-2.37-2.62-14"
       transform="translate(-441.5 -120.26)"
       id="path28206" />
    <path
       class="cls-3"
       d="M626.83,211.92s2.68,36.48,24.1,48.12a.17.17,0,0,1-.1.31,26.47,26.47,0,0,1-15.75-9.93c-7-9.17-9.83-17.33-11.92-38.08"
       transform="translate(-441.5 -120.26)"
       id="path28208" />
    <path
       class="cls-3"
       d="M674.5,412.44a22.37,22.37,0,0,0,6-3.19"
       transform="translate(-441.5 -120.26)"
       id="path28210" />
    <path
       class="cls-3"
       d="M686.47,413.31c-3.2,0-6-3.75-6-3.75"
       transform="translate(-441.5 -120.26)"
       id="path28212" />
    <path
       class="cls-3"
       d="M680.5,402s-4.37,5.13-6.87,6"
       transform="translate(-441.5 -120.26)"
       id="path28214" />
    <path
       class="cls-3"
       d="M671.5,403.75c3.81-.94,9-5.44,9-5.44a17.77,17.77,0,0,0,7.63,6.69"
       transform="translate(-441.5 -120.26)"
       id="path28216" />
    <path
       class="cls-3"
       d="M670.69,400.19s6.92-5.47,7.93-8.92"
       transform="translate(-441.5 -120.26)"
       id="path28218" />
    <path
       class="cls-3"
       d="M667.75,399s5.56-5.78,5.88-9.36"
       transform="translate(-441.5 -120.26)"
       id="path28220" />
    <path
       class="cls-3"
       d="M663,397.55s4.65-4.7,5.17-8.31"
       transform="translate(-441.5 -120.26)"
       id="path28222" />
    <path
       class="cls-3"
       d="M637.1,232.83s6.49,17.42,13.49,20.17"
       transform="translate(-441.5 -120.26)"
       id="path28224" />
    <path
       class="cls-3"
       d="M739.13,456.88s8,6.13,9.38,10.5,4,15.5,6.75,19"
       transform="translate(-441.5 -120.26)"
       id="path28226" />
    <path
       class="cls-3"
       d="M745.15,455.75s3.57-1.56,3.41-2.87"
       transform="translate(-441.5 -120.26)"
       id="path28228" />
    <path
       class="cls-3"
       d="M709.75,410s12.88,27,16.5,29.88,13.63,9.5,14.25,12.5"
       transform="translate(-441.5 -120.26)"
       id="path28230" />
    <path
       class="cls-3"
       d="M711.35,413.31s22.71,9.26,30.07,34.46a.52.52,0,0,0,.79.3c9.75-6.73,5.59,17.78,5.59,17.78"
       transform="translate(-441.5 -120.26)"
       id="path28232" />
    <path
       class="cls-3"
       d="M703.31,417.38a13.1,13.1,0,0,0,3-13.29s1.9-.9,15,9.6"
       transform="translate(-441.5 -120.26)"
       id="path28234" />
    <path
       class="cls-3"
       d="M706.84,410s3,1.19,0,10.75"
       transform="translate(-441.5 -120.26)"
       id="path28236" />
    <path
       class="cls-3"
       d="M708.19,414.31c.37.06,4.81,12.06,6.94,18"
       transform="translate(-441.5 -120.26)"
       id="path28238" />
    <path
       class="cls-3"
       d="M680.47,404.1s3,3.83,5.4,4.27"
       transform="translate(-441.5 -120.26)"
       id="path28240" />
    <path
       class="cls-3"
       d="M681.84,391.65a26.61,26.61,0,0,0,7.72,10"
       transform="translate(-441.5 -120.26)"
       id="path28242" />
    <path
       class="cls-3"
       d="M687.24,390.2s1.63,6.61,6.45,10"
       transform="translate(-441.5 -120.26)"
       id="path28244" />
    <path
       class="cls-3"
       d="M692.83,389.94a38.9,38.9,0,0,0,4.92,8.37"
       transform="translate(-441.5 -120.26)"
       id="path28246" />
    <path
       class="cls-3"
       d="M706.84,404.06A25.63,25.63,0,0,1,719,406.75"
       transform="translate(-441.5 -120.26)"
       id="path28248" />
    <path
       class="cls-3"
       d="M718.06,401.66c-10-.32-11.78,2.43-11.78,2.43s-.29-4.77,8.34-7.43"
       transform="translate(-441.5 -120.26)"
       id="path28250" />
    <path
       class="cls-3"
       d="M706.29,404.08s.31-11.22,6.63-12.43"
       transform="translate(-441.5 -120.26)"
       id="path28252" />
    <path
       class="cls-3"
       d="M706.28,401.59s1.64-4,1.23-19.43c0,0-.25-11.22-8.65-18.88a.4.4,0,0,0-.66.27c-1.31,18.38-17.7,28.6-17.7,28.6,16.89-6.74,23.45,3.15,25.22,6.78a5.67,5.67,0,0,1,.57,2.65,14,14,0,0,1-4.22,9.85"
       transform="translate(-441.5 -120.26)"
       id="path28254" />
    <path
       class="cls-3"
       d="M697,370.44s7.45,7.93,10.62,16.87"
       transform="translate(-441.5 -120.26)"
       id="path28256" />
    <path
       class="cls-3"
       d="M694.54,376.47s9.79,8.24,10.86,21.84"
       transform="translate(-441.5 -120.26)"
       id="path28258" />
    <path
       class="cls-3"
       d="M690.46,382.82s6.49,2.4,8.31,8.83"
       transform="translate(-441.5 -120.26)"
       id="path28260" />
    <path
       class="cls-3"
       d="M691,382.12V339a2.63,2.63,0,0,0-.86-2,14.31,14.31,0,0,0-9.14-3.72,12.34,12.34,0,0,0-6,1.23,6.22,6.22,0,0,0-3.41,5.4l-1.08,41.77c-4.72,2.73-9.54,10.43-9.54,10.43"
       transform="translate(-441.5 -120.26)"
       id="path28262" />
    <path
       class="cls-3"
       d="M680.5,355s6,5.67,12.33-1.67"
       transform="translate(-441.5 -120.26)"
       id="path28264" />
    <path
       class="cls-3"
       d="M680.5,358.58s4.57,2.92,5.67,2.94,3.33-3.76,6.67-4.44"
       transform="translate(-441.5 -120.26)"
       id="path28266" />
    <path
       class="cls-3"
       d="M698.06,356.19s7.06,5.81,9.12,11.44"
       transform="translate(-441.5 -120.26)"
       id="path28268" />
    <path
       class="cls-3"
       d="M701,344.5s.19,8.25,6.19,10.5"
       transform="translate(-441.5 -120.26)"
       id="path28270" />
    <path
       class="cls-3"
       d="M690.46,337.41s7.41,8.11,10.85,15.5"
       transform="translate(-441.5 -120.26)"
       id="path28272" />
    <path
       class="cls-3"
       d="M686,316.33s2,20.35,15.81,22.73"
       transform="translate(-441.5 -120.26)"
       id="path28274" />
    <path
       class="cls-3"
       d="M704.88,344.5s-12.36-21.12-9-39.62,11.74-31.12,20.74-31.25"
       transform="translate(-441.5 -120.26)"
       id="path28276" />
    <path
       class="cls-3"
       d="M691,319.13s8.21-11.64,11.63-14.87,14.88-15.58,15.63-27.67"
       transform="translate(-441.5 -120.26)"
       id="path28278" />
    <path
       class="cls-3"
       d="M707.19,342.25s-9.06-9,4.56-27.5,11.5-25.12,8.88-35.87"
       transform="translate(-441.5 -120.26)"
       id="path28280" />
    <path
       class="cls-3"
       d="M719.25,273s5.17,0,5.58-7.41c.33-6-6.06-5.73-8.58-5.41a.23.23,0,0,1-.16-.42c3-2.14,13.3-9.85,16.41-17.5,3.67-9,7-16.83,8.42-27.17"
       transform="translate(-441.5 -120.26)"
       id="path28282" />
    <path
       class="cls-3"
       d="M717.5,252.58s8.42-8,10.75-15.42"
       transform="translate(-441.5 -120.26)"
       id="path28284" />
    <path
       class="cls-3"
       d="M716.09,259.75s7.41.41,11.66-4.17,9.92-9.08,12-19.42,3.83-19.08,3.83-19.08"
       transform="translate(-441.5 -120.26)"
       id="path28286" />
    <path
       class="cls-3"
       d="M603.67,481.67a98,98,0,0,1,6.41-14.27c2.73-4.92,6.22-10,10.26-13.06"
       transform="translate(-441.5 -120.26)"
       id="path28288" />
    <path
       class="cls-3"
       d="M610.08,467.39s2.59-14.23,1.92-15.73-3.67,1-2.67-3.5c.92-4.14,4.24-3.48,7.89-2.83a1.17,1.17,0,0,0,1.29-.7c1.87-4.56,11.43-25.82,30-32.8"
       transform="translate(-441.5 -120.26)"
       id="path28290" />
    <path
       class="cls-3"
       d="M618.33,448.67s24.83-14.67,32.5-40"
       transform="translate(-441.5 -120.26)"
       id="path28292" />
    <path
       class="cls-3"
       d="M644,433.17s10-19.67,9.33-31.67,3.46-25.9,11.8-32.06"
       transform="translate(-441.5 -120.26)"
       id="path28294" />
    <path
       class="cls-3"
       d="M652.32,410.79c1,0,2.51,4.54,4.35,5"
       transform="translate(-441.5 -120.26)"
       id="path28296" />
    <path
       class="cls-3"
       d="M651.42,414.31s.25,3.86,1.91,6.19"
       transform="translate(-441.5 -120.26)"
       id="path28298" />
    <path
       class="cls-3"
       d="M668.17,419.33a52.52,52.52,0,0,1,6.17-1c1.5,0,3-.88,3.67-4"
       transform="translate(-441.5 -120.26)"
       id="path28300" />
    <path
       class="cls-3"
       d="M680.5,414.31c.5,1,1,4.69,3.5,5s5.5-1.5,8.83,2.67"
       transform="translate(-441.5 -120.26)"
       id="path28302" />
    <path
       class="cls-3"
       d="M640.5,410s10-6.84,12.85-6.84a16.91,16.91,0,0,0,3.31,6.84"
       transform="translate(-441.5 -120.26)"
       id="path28304" />
    <line
       class="cls-3"
       x1="200.67"
       y1="284.41"
       x2="207.78"
       y2="284.41"
       id="line28306" />
    <path
       class="cls-3"
       d="M644,400.5s7.17-.33,9.33,1"
       transform="translate(-441.5 -120.26)"
       id="path28308" />
    <path
       class="cls-3"
       d="M646.93,395.5s4.42,1.83,6.33,3.5"
       transform="translate(-441.5 -120.26)"
       id="path28310" />
    <path
       class="cls-3"
       d="M650.09,390.67a42,42,0,0,1,3.42,3"
       transform="translate(-441.5 -120.26)"
       id="path28312" />
    <path
       class="cls-3"
       d="M651.8,387.17s5-19.46,10.91-23.47a.52.52,0,0,1,.8.29c1.06,3.7,6.81,22.18,17,28.18"
       transform="translate(-441.5 -120.26)"
       id="path28314" />
    <line
       class="cls-3"
       x1="239"
       y1="289.74"
       x2="239"
       y2="228.74"
       id="line28316" />
    <path
       class="cls-3"
       d="M653.35,403.16s6.48-21.6,27.15-11"
       transform="translate(-441.5 -120.26)"
       id="path28318" />
    <path
       class="cls-3"
       d="M656.06,397.55a42.51,42.51,0,0,1,11.15-22.62s1.35-2.43,3.57-2.68,6.39-1.33,9.73,3.92c0,0,7.74-6.58,10.5-3s3.62,3.75,3.62,3.75"
       transform="translate(-441.5 -120.26)"
       id="path28320" />
    <path
       class="cls-3"
       d="M655.21,364.38s5.56-5.62,8.06-7.62"
       transform="translate(-441.5 -120.26)"
       id="path28322" />
    <path
       class="cls-3"
       d="M661,352.92s9.64-14.54,11.41-15.85"
       transform="translate(-441.5 -120.26)"
       id="path28324" />
    <path
       class="cls-3"
       d="M669.08,352.25s9.17,9.17,11.42,3.83"
       transform="translate(-441.5 -120.26)"
       id="path28326" />
    <path
       class="cls-3"
       d="M667.75,358.5s2.68-2,3.42-1.75,5.41,7.42,9.33,2.75"
       transform="translate(-441.5 -120.26)"
       id="path28328" />
    <path
       class="cls-3"
       d="M655.21,355a16,16,0,0,0,7.7-12.75"
       transform="translate(-441.5 -120.26)"
       id="path28330" />
    <path
       class="cls-3"
       d="M678.67,315.67c-1.55,17.44-16.93,24.81-20.51,26.29a.14.14,0,0,1-.15-.23c3-2.75,15.84-16.24,10-38.73-6.54-25.33-10.54-31.67-19-29.67"
       transform="translate(-441.5 -120.26)"
       id="path28332" />
    <path
       class="cls-3"
       d="M658,341.73s2.74-13.89-1.43-19.06-16.92-29.58-13-44.67"
       transform="translate(-441.5 -120.26)"
       id="path28334" />
    <path
       class="cls-3"
       d="M647.42,276.58s4.25,16.5,25.42,39.75"
       transform="translate(-441.5 -120.26)"
       id="path28336" />
    <path
       class="cls-3"
       d="M646.81,271.94s-10.31-2.37-2.62-14"
       transform="translate(-441.5 -120.26)"
       id="path28338" />
    <path
       class="cls-3"
       d="M626.83,211.92s2.68,36.48,24.1,48.12a.17.17,0,0,1-.1.31,26.47,26.47,0,0,1-15.75-9.93c-7-9.17-9.83-17.33-11.92-38.08"
       transform="translate(-441.5 -120.26)"
       id="path28340" />
    <path
       class="cls-3"
       d="M674.5,412.44a22.37,22.37,0,0,0,6-3.19"
       transform="translate(-441.5 -120.26)"
       id="path28342" />
    <path
       class="cls-3"
       d="M686.47,413.31c-3.2,0-6-3.75-6-3.75"
       transform="translate(-441.5 -120.26)"
       id="path28344" />
    <path
       class="cls-3"
       d="M680.5,402s-4.37,5.13-6.87,6"
       transform="translate(-441.5 -120.26)"
       id="path28346" />
    <path
       class="cls-3"
       d="M671.5,403.75c3.81-.94,9-5.44,9-5.44a17.77,17.77,0,0,0,7.63,6.69"
       transform="translate(-441.5 -120.26)"
       id="path28348" />
    <path
       class="cls-3"
       d="M670.69,400.19s6.92-5.47,7.93-8.92"
       transform="translate(-441.5 -120.26)"
       id="path28350" />
    <path
       class="cls-3"
       d="M667.75,399s5.56-5.78,5.88-9.36"
       transform="translate(-441.5 -120.26)"
       id="path28352" />
    <path
       class="cls-3"
       d="M663,397.55s4.65-4.7,5.17-8.31"
       transform="translate(-441.5 -120.26)"
       id="path28354" />
    <path
       class="cls-3"
       d="M637.1,232.83s6.49,17.42,13.49,20.17"
       transform="translate(-441.5 -120.26)"
       id="path28356" />
    <path
       class="cls-3"
       d="M739.13,456.88s8,6.13,9.38,10.5,4,15.5,6.75,19"
       transform="translate(-441.5 -120.26)"
       id="path28358" />
    <path
       class="cls-3"
       d="M745.15,455.75s3.57-1.56,3.41-2.87"
       transform="translate(-441.5 -120.26)"
       id="path28360" />
    <path
       class="cls-3"
       d="M709.75,410s12.88,27,16.5,29.88,13.63,9.5,14.25,12.5"
       transform="translate(-441.5 -120.26)"
       id="path28362" />
    <path
       class="cls-3"
       d="M711.35,413.31s22.71,9.26,30.07,34.46a.52.52,0,0,0,.79.3c9.75-6.73,5.59,17.78,5.59,17.78"
       transform="translate(-441.5 -120.26)"
       id="path28364" />
    <path
       class="cls-3"
       d="M703.31,417.38a13.1,13.1,0,0,0,3-13.29s1.9-.9,15,9.6"
       transform="translate(-441.5 -120.26)"
       id="path28366" />
    <path
       class="cls-3"
       d="M706.84,410s3,1.19,0,10.75"
       transform="translate(-441.5 -120.26)"
       id="path28368" />
    <path
       class="cls-3"
       d="M708.19,414.31c.37.06,4.81,12.06,6.94,18"
       transform="translate(-441.5 -120.26)"
       id="path28370" />
    <path
       class="cls-3"
       d="M680.47,404.1s3,3.83,5.4,4.27"
       transform="translate(-441.5 -120.26)"
       id="path28372" />
    <path
       class="cls-3"
       d="M681.84,391.65a26.61,26.61,0,0,0,7.72,10"
       transform="translate(-441.5 -120.26)"
       id="path28374" />
    <path
       class="cls-3"
       d="M687.24,390.2s1.63,6.61,6.45,10"
       transform="translate(-441.5 -120.26)"
       id="path28376" />
    <path
       class="cls-3"
       d="M692.83,389.94a38.9,38.9,0,0,0,4.92,8.37"
       transform="translate(-441.5 -120.26)"
       id="path28378" />
    <path
       class="cls-3"
       d="M706.84,404.06A25.63,25.63,0,0,1,719,406.75"
       transform="translate(-441.5 -120.26)"
       id="path28380" />
    <path
       class="cls-3"
       d="M718.06,401.66c-10-.32-11.78,2.43-11.78,2.43s-.29-4.77,8.34-7.43"
       transform="translate(-441.5 -120.26)"
       id="path28382" />
    <path
       class="cls-3"
       d="M706.29,404.08s.31-11.22,6.63-12.43"
       transform="translate(-441.5 -120.26)"
       id="path28384" />
    <path
       class="cls-3"
       d="M706.28,401.59s1.64-4,1.23-19.43c0,0-.25-11.22-8.65-18.88a.4.4,0,0,0-.66.27c-1.31,18.38-17.7,28.6-17.7,28.6,16.89-6.74,23.45,3.15,25.22,6.78a5.67,5.67,0,0,1,.57,2.65,14,14,0,0,1-4.22,9.85"
       transform="translate(-441.5 -120.26)"
       id="path28386" />
    <path
       class="cls-3"
       d="M697,370.44s7.45,7.93,10.62,16.87"
       transform="translate(-441.5 -120.26)"
       id="path28388" />
    <path
       class="cls-3"
       d="M694.54,376.47s9.79,8.24,10.86,21.84"
       transform="translate(-441.5 -120.26)"
       id="path28390" />
    <path
       class="cls-3"
       d="M690.46,382.82s6.49,2.4,8.31,8.83"
       transform="translate(-441.5 -120.26)"
       id="path28392" />
    <path
       class="cls-3"
       d="M691,382.12V339a2.63,2.63,0,0,0-.86-2,14.31,14.31,0,0,0-9.14-3.72,12.34,12.34,0,0,0-6,1.23,6.22,6.22,0,0,0-3.41,5.4l-1.08,41.77c-4.72,2.73-9.54,10.43-9.54,10.43"
       transform="translate(-441.5 -120.26)"
       id="path28394" />
    <path
       class="cls-3"
       d="M680.5,355s6,5.67,12.33-1.67"
       transform="translate(-441.5 -120.26)"
       id="path28396" />
    <path
       class="cls-3"
       d="M680.5,358.58s4.57,2.92,5.67,2.94,3.33-3.76,6.67-4.44"
       transform="translate(-441.5 -120.26)"
       id="path28398" />
    <path
       class="cls-3"
       d="M698.06,356.19s7.06,5.81,9.12,11.44"
       transform="translate(-441.5 -120.26)"
       id="path28400" />
    <path
       class="cls-3"
       d="M701,344.5s.19,8.25,6.19,10.5"
       transform="translate(-441.5 -120.26)"
       id="path28402" />
    <path
       class="cls-3"
       d="M690.46,337.41s7.41,8.11,10.85,15.5"
       transform="translate(-441.5 -120.26)"
       id="path28404" />
    <path
       class="cls-3"
       d="M686,316.33s2,20.35,15.81,22.73"
       transform="translate(-441.5 -120.26)"
       id="path28406" />
    <path
       class="cls-3"
       d="M704.88,344.5s-12.36-21.12-9-39.62,11.74-31.12,20.74-31.25"
       transform="translate(-441.5 -120.26)"
       id="path28408" />
    <path
       class="cls-3"
       d="M691,319.13s8.21-11.64,11.63-14.87,14.88-15.58,15.63-27.67"
       transform="translate(-441.5 -120.26)"
       id="path28410" />
    <path
       class="cls-3"
       d="M707.19,342.25s-9.06-9,4.56-27.5,11.5-25.12,8.88-35.87"
       transform="translate(-441.5 -120.26)"
       id="path28412" />
    <path
       class="cls-3"
       d="M719.25,273s5.17,0,5.58-7.41c.33-6-6.06-5.73-8.58-5.41a.23.23,0,0,1-.16-.42c3-2.14,13.3-9.85,16.41-17.5,3.67-9,7-16.83,8.42-27.17"
       transform="translate(-441.5 -120.26)"
       id="path28414" />
    <path
       class="cls-3"
       d="M717.5,252.58s8.42-8,10.75-15.42"
       transform="translate(-441.5 -120.26)"
       id="path28416" />
    <path
       class="cls-3"
       d="M716.09,259.75s7.41.41,11.66-4.17,9.92-9.08,12-19.42,3.83-19.08,3.83-19.08"
       transform="translate(-441.5 -120.26)"
       id="path28418" />
  </g>
  <path
     id="shine"
     d="m 1.659999,1.23156 v 206.37688 c 0,229.66454 239.920001,319.6031 239.920001,319.6031 0,0 239.92,-89.93856 239.92,-319.6031 V 1.23156 Z"
     style="fill:url(#rg);stroke:#000000;stroke-width:2.41218" />
</svg>
