<?xml version="1.0" encoding="UTF-8" standalone="no"?>
<svg
   viewBox="0 0 483 527.48"
   version="1.1"
   id="svg29218"
   sodipodi:docname="House Bracken GoT.svg"
   inkscape:version="1.2.1 (9c6d41e410, 2022-07-14)"
   xmlns:inkscape="http://www.inkscape.org/namespaces/inkscape"
   xmlns:sodipodi="http://sodipodi.sourceforge.net/DTD/sodipodi-0.dtd"
   xmlns="http://www.w3.org/2000/svg"
   xmlns:svg="http://www.w3.org/2000/svg">
  <sodipodi:namedview
     id="namedview29220"
     pagecolor="#ffffff"
     bordercolor="#000000"
     borderopacity="0.25"
     inkscape:showpageshadow="2"
     inkscape:pageopacity="0.0"
     inkscape:pagecheckerboard="0"
     inkscape:deskcolor="#d1d1d1"
     showgrid="false"
     inkscape:zoom="1.12203"
     inkscape:cx="169.33593"
     inkscape:cy="354.71422"
     inkscape:window-width="1920"
     inkscape:window-height="1017"
     inkscape:window-x="-8"
     inkscape:window-y="-8"
     inkscape:window-maximized="1"
     inkscape:current-layer="svg29218" />
  <defs
     id="defs29150">
    <style
       id="style29148">.cls-1,.cls-4{fill:#f9b803;}.cls-1{stroke:#000;stroke-width:3px;}.cls-2{fill:#b4292e;}.cls-3{fill:#b12931;}.cls-5{fill:#af1d30;}.cls-6{fill:#ad1831;}.cls-7{fill:#ac1d33;}.cls-8{fill:#f3b507;}.cls-9{fill:#b52f2e;}</style>
    <radialGradient
       id="rg"
       gradientUnits="userSpaceOnUse"
       cx="220"
       cy="220"
       r="405"
       gradientTransform="matrix(0.80510068,0,0,0.80302287,-0.0302005,-0.9020146)">
      <stop
         style="stop-color:#ffffff;stop-opacity:.3"
         offset="0"
         id="stop753" />
      <stop
         style="stop-color:#ffffff;stop-opacity:.2"
         offset=".2"
         id="stop755" />
      <stop
         style="stop-color:#666666;stop-opacity:.1"
         offset=".6"
         id="stop757" />
      <stop
         style="stop-color:#000000;stop-opacity:.13"
         offset="1"
         id="stop759" />
    </radialGradient>
  </defs>
  <title
     id="title29152">House Bracken</title>
  <g
     id="Layer_2"
     data-name="Layer 2">
    <path
       class="cls-1"
       d="M927,122.76V328.6a314.37,314.37,0,0,1-2.28,38c-.11.93-.24,1.86-.36,2.79s-.24,1.86-.39,2.79q-.7,5.05-1.61,10c-.07.44-.15.87-.23,1.31-.15.8-.29,1.6-.45,2.39s-.34,1.8-.51,2.69l-.45,2.22-.24,1.16c-.15.71-.3,1.44-.47,2.15q-.8,3.55-1.61,7l-.58,2.32-.52,2q-1.52,5.88-3.27,11.61c-.29,1-.59,1.94-.9,2.92l-.6,1.88c-.19.63-.39,1.25-.6,1.86l-1.1,3.26c-.37,1.09-.68,2-1,3-.47,1.28-.92,2.55-1.39,3.81-.36,1-.73,2-1.11,3l-.19.49c-.43,1.14-.87,2.25-1.32,3.37s-.87,2.16-1.32,3.19a3.35,3.35,0,0,1-.18.42c-.4,1-.8,2-1.25,3s-.75,1.75-1.13,2.62l-.66,1.49c-.47,1.07-.95,2.12-1.44,3.15s-.9,2-1.36,2.93l-1,2.12c-.3.63-.6,1.25-.91,1.88-.63,1.32-1.31,2.64-2,4q-2.53,5-5.19,9.77l-2,3.57-.11.21q-2.13,3.71-4.33,7.33c-.71,1.2-1.46,2.39-2.18,3.54-.1.16-.19.31-.3.46-.55.89-1.12,1.78-1.69,2.66l-.66,1c-.65,1-1.31,2-2,3l-.13.18c-.66,1-1.32,2-2,3l-.45.67q-2.26,3.28-4.54,6.46l-.31.42c-.8,1.07-1.54,2.14-2.31,3.19s-1.66,2.23-2.5,3.32q-2.29,3-4.61,6l-.8,1c-.73.93-1.48,1.85-2.22,2.76L854,526.61l-.57.69L851,530.1q-2.83,3.32-5.72,6.53c-.75.85-1.52,1.69-2.29,2.51l-2.22,2.39q-3,3.19-5.93,6.24-2.76,2.83-5.53,5.59c-.91.91-1.84,1.82-2.76,2.71s-1.85,1.78-2.78,2.67l-2.28,2.11c-.68.65-1.36,1.28-2.05,1.91a448.64,448.64,0,0,1-61.76,47.47c-.86.55-1.73,1.1-2.58,1.6q-6.42,4.07-12.46,7.63l-2.41,1.4-2.36,1.36-2.34,1.35-2.22,1.28c-8.35,4.68-15.91,8.59-22.38,11.76l-1.61.8c-10.63,5.15-18.11,8.22-21,9.35l-.42.18-.61.23-.14.06h-.08l-.23-.1-.21,0-1.07-.42-.55-.23c-.87-.34-2-.8-3.36-1.38l-.47-.18c-1.76-.8-3.88-1.67-6.33-2.77l-1.39-.61a443.16,443.16,0,0,1-39.74-20.6c-.8-.45-1.61-.92-2.36-1.38a473.14,473.14,0,0,1-44.78-30l-2.62-2c-1-.75-2-1.52-2.95-2.29l-2.81-2.21c-6.19-4.92-12.43-10.15-18.64-15.69L558.08,566q-2.3-2.05-4.59-4.2l-1.67-1.57L550,558.54l-2-1.94c-1.12-1.07-2.24-2.16-3.34-3.26-.84-.8-1.69-1.67-2.52-2.51l-.24-.26q-1.25-1.25-2.5-2.51c-.66-.68-1.32-1.36-2-2l-2-2.07-.13-.15-2.1-2.24q-3.36-3.61-6.66-7.36c-.68-.8-1.36-1.55-2-2.35-.57-.65-1.12-1.28-1.66-1.94l-2-2.39q-4.26-5.11-8.39-10.48-1.13-1.45-2.24-2.92c-1.89-2.47-3.73-5-5.57-7.55l-1.68-2.39c-.13-.16-.24-.34-.36-.5-.59-.85-1.19-1.7-1.77-2.55-.95-1.38-1.89-2.77-2.82-4.17q-1.11-1.64-2.18-3.31l-.15-.24-2.22-3.47c-.07-.13-.15-.24-.22-.37-.71-1.14-1.41-2.27-2.1-3.4s-1.49-2.46-2.21-3.7-1.44-2.39-2.13-3.67q-4.6-8-8.77-16.47c-.35-.69-.69-1.38-1-2.08-.22-.44-.44-.89-.65-1.35-.43-.87-.8-1.75-1.25-2.63a27.17,27.17,0,0,1-1.15-2.47l-.23-.48c-.26-.58-.52-1.16-.8-1.75l-.26-.57c-.26-.58-.52-1.18-.8-1.77q-1.44-3.26-2.78-6.58c-.42-1-.8-2-1.23-3.07-.1-.26-.21-.53-.31-.8-.4-1-.8-2-1.16-3s-.68-1.82-1-2.74l-.23-.65c-.18-.45-.34-.91-.5-1.36q-1-2.69-1.89-5.44c-.21-.6-.4-1.21-.6-1.8-.26-.8-.51-1.54-.75-2.31-.14-.42-.26-.8-.39-1.22-.26-.8-.5-1.6-.75-2.39-.31-1-.61-2.06-.92-3.1-.18-.65-.39-1.28-.57-2-.37-1.28-.74-2.58-1.08-3.89-.19-.68-.37-1.35-.55-2-.13-.5-.26-1-.39-1.51-.32-1.22-.63-2.46-.92-3.7-.18-.7-.35-1.4-.52-2.11-.07-.29-.13-.57-.19-.85-.37-1.55-.71-3.11-1.07-4.69-.26-1.16-.5-2.33-.74-3.5-.14-.71-.29-1.43-.43-2.14s-.32-1.6-.47-2.45a2.13,2.13,0,0,0-.1-.47c-.15-.8-.3-1.64-.45-2.48s-.31-1.84-.47-2.77-.3-1.8-.45-2.71q-.87-5.52-1.56-11.17A314.73,314.73,0,0,1,447,328.58V122.76Z"
       transform="translate(-445.5 -121.26)"
       id="path29154" />
  </g>
  <g
     id="Layer_3"
     data-name="Layer 3">
    <path
       class="cls-2"
       d="M718.78,237.29l7.23,2.19c.22,10.76-2,21.32-2.58,32a350.19,350.19,0,0,0,0,40.36c1.38,23.26,5.41,46.11,10.79,68.74-8.37,6.89-18.21,11.27-27.84,15.92-10.89,5.27-22,10-33.31,14.44-4.4,1.71-6.5,1.11-8.18-3.57A55.45,55.45,0,0,0,648.22,383c-1.74-1.45-1.71-1.48-6.47-2.46,16.53,15.16,19.34,34.13,19.54,54a8.48,8.48,0,0,0,0,7.05c-.34,12.85-8,20.8-18.35,26.63-9.88,5.59-13.94,15.45-19.08,24.57-.82,1.46-.07,3,.54,4.51,5.28,12.83,10.62,25.56,18.94,36.91,6.89,9.4,11.93,20.07,21.65,27.42,3.88,2.94,5.85,8.1,6.76,13.8-7,0-13.33-2.06-19.8-3-2.15-.32-2.07-2.42-2.63-4.1-1.67-5.06-1.28-13.11-9.2-13.71-.7-.05-1-2-1.32-3.06-.41-1.29.87-3,.22-3.86-3-4.08-8.3-3.24-8.73-7-1-9-4.85-20.84-11-28.72-5.47-7-8.78-15.66-13.38-23.38-2-3.43-2-5.65,1.18-8.43,6.71-5.87,11.95-12.83,14.35-21.69,1.41-5.2.79-9.28-3.53-13.1-7-6.24-12.51-13.9-18-21.59-13.34-18.81-11.33-37.59-.9-56.69,5.42-9.92,13.45-16.48,24-20.34,16.55-6,32.87-12.58,47.58-22.55a109.79,109.79,0,0,0,33.54-35.51c2.52-4.27,2.95-7.58-.16-12.15A82.75,82.75,0,0,1,689.52,229a10,10,0,0,0,0-7c-.3-8.68,0-17.95,4-25.17s-.1-10.39-3-14.8-6.14-8.49-8.85-13.27c8,1.85,14.84,5.89,21.29,10.53,2.21,1.59,0,5.29,1.47,7.65.6,0,1.24.1,1.28,0,2.86-8.12,7.88-5.7,13.28-3s11,5,16.52,7.54c1.72.8,3.8,1.24,4.4,3.5-.11,1.51-.58,2.7-2.43,2.59-1.07-.36-2.07-1-3.3-.72-2.8.73-5.09,1.6-1.83,4.71a4.26,4.26,0,0,1,1.14,2.61c-1.94,10.13-3.45,20.36-6.7,30.19-3.61,2.25-7.41.75-11.15.53A5.38,5.38,0,0,1,718.78,237.29Z"
       transform="translate(-445.5 -121.26)"
       id="path29157" />
    <path
       class="cls-2"
       d="M734.21,380.59c-4.28-3.19-3.72-8.35-4.67-12.66a348,348,0,0,1-8.28-90.16c.52-12.35,2.39-24.65,3.69-37,.05-.48.69-.89,1.06-1.34,3.16-.45,5.33.65,7.52,3.22,10.43,12.17,20.75,24.48,31.89,36,14.26,14.72,16.6,32.54,15.42,51.62a6,6,0,0,1-4.22,5.79c-2.86.92-2.71-2.19-4-3.36-2.26-2.07-3.91-4.84-7.29-6.18-1.75,4.32,8.63,11.74-4.25,12.88,4.83,4,9,5.52,14.34,3.32,12.1-5,24.46-9.33,35.83-16,4.09-2.39,10.52,1,13.13,6.83a8,8,0,0,0,.07,5.8c-.24,8.54-4.24,16.17-5.88,24.39s-2.23,16.23-3.2,24.37a16.39,16.39,0,0,1-4,9.59c-5.65,5.94-11.58,11.62-17.47,17.33-2.5,2.42-4.29,2.42-4.91-1.63a48,48,0,0,0-2-7.94c-1.49-4.43-2.08-8,3.67-10.21,1.86-.72.08-4.62,1.07-6.57.62-1.22,4.08-.44,4.78-1.46,1-1.54-2.56-5.08-.81-5.73,7.93-2.94,8.59-11.12,7.93-19.23a21.21,21.21,0,0,1,6.92-16.86c-2-1.41-3.06-.06-4,.59-14.39,10.08-31.21,15.13-46.76,22.8-3,1.49-4.07.06-5.39-2.26-3.29-5.79-4.71-12.28-7.15-20.13a21.69,21.69,0,0,0-1.61,13.63C747.47,370.32,742.68,376.36,734.21,380.59Z"
       transform="translate(-445.5 -121.26)"
       id="path29159" />
    <path
       class="cls-3"
       d="M708.83,553.05h-1.76c-10.09,0-10.09,0-10.77-10.18-.09-1.36.25-3.6-.87-3.79-2.92-3-7-2.38-8.79-5.62-1.62-2.93-.73-7.49-5.65-8.79a5.79,5.79,0,0,1-3.13-4.09c-2.82-11.47-9.88-20-18.07-28.18-12.63-12.56-12.29-12.74-2.16-27.74,6.29-9.31,9-19.94,9.46-31,.22-4.9,1.91-7.23,6.75-7.31.78,0,1.55-.24,2.33-.26,6-.17,8.78-2.73,7.51-9.1-.41-2.07-1.38-5,1.21-6.43,2-1.1,4.4-2.52,6.62-1.54,2.44,1.08.47,3.46.53,5.26.7,21.06-8,38.23-22.12,53.11-2.14,2.26-2.74,4.29-1.47,7.26,8.17,19.28,19.34,36.48,34.74,50.76,7.54,7,11.35,16.27,16,25,.95,1.77.23,2.54-1.61,2.55h-8.8Z"
       transform="translate(-445.5 -121.26)"
       id="path29161" />
    <path
       class="cls-3"
       d="M785.59,319.63c-.93-4.37-1.79-8.75-2.81-13.1a3.23,3.23,0,0,1,1.28-3.57c10.49-8.8,17.54-20.39,25.49-31.27,5.08-7,6.64-7.16,13.85-2.24,8.4,5.74,16.8,11.53,26,15.94,12.94,6.22,15,18.84,17.92,30.52,1.59,6.46,4.06,12.89,4.59,20.46-7.47-3.47-14.28-6.77-21.21-9.81-2.73-1.2-2.34-2.78-1.05-4.54,2.47-3.38,1.63-6-1.36-8.54s-4.64-5.49-1.59-9.1c2.24-2.65.47-4.15-1.42-5.74-6.69-5.67-14.54-9.07-22.78-11.74-3.34-1.08-5.67.85-7.83,2.84a75.62,75.62,0,0,0-14.52,18.31c-3.77,6.61-7.65,13.15-12.63,19.08-1.72-1.55-1.63-3.48-1.62-5.39Z"
       transform="translate(-445.5 -121.26)"
       id="path29163" />
    <path
       class="cls-2"
       d="M501.17,250.48c7.33,5.68,18.3,13.11,30.11,14.45,9.5,1.08,16.57,5.94,21.71,13.92a228.93,228.93,0,0,0,17.37,23c2.42,2.88,1.71,5.67.84,8.79-4.1,14.66-7.69,29.47-7.25,44.81.41,14.34,3.11,28.17,13,39.44a32.5,32.5,0,0,0,6.6,5.72c3.58,2.33,3.83,6.11,3.52,9.3-.41,4.22-3.25,1.18-4.51.35-9.75-6.42-17-15.07-20.89-26.09-6.21-17.6-8.91-36-7.09-54.56.9-9.15,4.28-17.82,6-26.79a6.18,6.18,0,0,0-1.29-5.33c-3-4.13-5.83-8.31-8.71-12.49a8.25,8.25,0,0,0-5.25-3.31c-7.37-1.86-14.58-4.4-22-6s-12.7-5.42-15.42-12.64Z"
       transform="translate(-445.5 -121.26)"
       id="path29165" />
    <path
       class="cls-2"
       d="M737.65,197.37l2.19-2.33,4.59,6.09c1.17-6.12,4.73-4.88,8.43-3.58,12.09,4.25,22.54,10.57,29.38,21.94,2,3.32,1.77,4.57-2.26,5.23-4.89.8-9.68,2.24-14.82,3.47,1.87,2.08,4.25,2.14,5.95,3.31s6.12,0,4.25,3.46c-1.31,2.4-3.32,7.26-8.49,3.76-3-2-6.67-3.19-10.09-4.61-8.08-3.35-16.1-4.22-23.89.85a10.7,10.7,0,0,1-7.05.05c2.08-10.59,3.43-21.35,7.11-31.58l.61-.51a2.46,2.46,0,0,1,1.41.66c.54.53.9,1.2,1.39,1.76.22.25.63,1.11.73-.17.05-.72-.06.22-.22-.56a6.83,6.83,0,0,1-.09-1.38c.16-1.71-1-1.59-2.15-1.56a2.31,2.31,0,0,1-2-1.07C733.17,197.81,734.77,196.59,737.65,197.37Z"
       transform="translate(-445.5 -121.26)"
       id="path29167" />
    <path
       class="cls-2"
       d="M526.23,295.1c4.67.45,9.14,2.52,13.8,3.26,5.06.81,9.61,2.09,12.91,6.09.67.81,1.5,2.06,2.87,1.52s1-1.92.95-3c-.24-3.93-9.37-14.53-13.47-15.52-9.78-2.35-19.53-4.84-29.42-6.71-2.92-.55-8.22-6.62-9.67-8.67a121.61,121.61,0,0,1,4.7,12.72C511.05,291.67,517.85,293.49,526.23,295.1Z"
       transform="translate(-445.5 -121.26)"
       id="path29169" />
    <path
       class="cls-2"
       d="M504.2,288.54c9.59,14.78,27.71,15.44,40.39,19.2,4.82,1.43,8.53,5.86,8.44,10.74a28.74,28.74,0,0,1-.45,5.12c-.34,1.71-2.22-1-3.3-1.67-5.37-3.37-11.6-4.37-17.58-5.72C512.93,313,512.81,308.8,504.2,288.54Z"
       transform="translate(-445.5 -121.26)"
       id="path29171" />
    <path
       class="cls-2"
       d="M655.43,187.87c-2.42,1.38-4.64,1.19-5.79-1.51-2.47-5.78-6.32-14.31-9.08-21.23,4.38,2.28,7.25,9.42,11.35,10,2.81,1.12,5.75.25,8.62.53,2.62.25,5.3-.56,7.86.52,5.13-2.21,8.79.46,12.22,3.74,2.54,2.42,5,4.91,7.5,7.39,1.51,1.51,3.55,3,1.57,5.39s-3.69.18-5-.86c-4.44-3.51-9.12-5.94-15-5-2.52,1-5.15.27-7.72.49C659.79,187.59,657.54,186.81,655.43,187.87Z"
       transform="translate(-445.5 -121.26)"
       id="path29173" />
    <path
       class="cls-2"
       d="M639.46,243.87c13.8,9.61,21,.75,30.19-3.68,5.35-2.59,13.28-.49,16.6,4.43a3.17,3.17,0,0,1,.53,3.28c-.91,1.75-2.39.88-3.51.24-2.44-1.4-4.32-.48-6.41.93-5.16,3.49-10.5,6.71-15.66,10.19-1.66,1.12-2.88,1.61-4.6.09C651.23,254.61,644.89,248.53,639.46,243.87Z"
       transform="translate(-445.5 -121.26)"
       id="path29175" />
    <path
       class="cls-2"
       d="M669.83,192.68c6.9-3.07,10.86,1.28,14.82,5.8,1.25,1.43,2.29,2.84,1.07,4.65s-2.76.7-4.15.1c-4.88-2.11-9.63-.1-14.21.89-17,3.66-18.24,3.18-25.12-12.71-.2-.46-4.4-4.81-4.53-6.82,6.37,6.35,17.62,10.71,25,9.2C664.9,192.43,667.61,194.12,669.83,192.68Z"
       transform="translate(-445.5 -121.26)"
       id="path29177" />
    <path
       class="cls-2"
       d="M508,310.66c5,1.09,8.7,6.24,12.62,7.73,6.61,2.51,12.25,2.68,19,4.31,9.88,2.38,14.13,8.26,11.79,18.48-5.9-5.55-13.53-6.8-20.8-8.47-7.65-1.76-13.82-4.77-16.92-12.46C512.72,317.83,509.61,313.62,508,310.66Z"
       transform="translate(-445.5 -121.26)"
       id="path29179" />
    <path
       class="cls-2"
       d="M636,206c10.47,6.22,25.16,6.06,35.49,3.46,6.28-1.58,13.22,2.16,14.1,7.77.25,1.59.73,4.38-2.29,2.91-6.57-3.2-12.56.57-18.8,1-3.06.23-6.05,1.24-9.08,1.87-1.37.28-2.8.42-3.85-.71C647.67,218.08,638.54,211.74,636,206Z"
       transform="translate(-445.5 -121.26)"
       id="path29181" />
    <path
       class="cls-2"
       d="M641.49,226.92c10.3,8.07,20.86-2.48,29.74-3.7,3.93-.54,12.95,4.33,14.31,7.89a5.25,5.25,0,0,1-.1,3.92c-1,1.88-4.21-.57-5-1.29-2.55-2.42-4.27-2-6.82-.73-4.34,2.19-8.86,3-12.76,5.81-4.47,3.17-6.21,3.4-8.91.13C649.42,235.84,644.1,230,641.49,226.92Z"
       transform="translate(-445.5 -121.26)"
       id="path29183" />
    <path
       class="cls-2"
       d="M692.06,265.81c-5.64-8.94-9.16-3.61-12.6.28a13,13,0,0,1-1.37,1.08c-11.41,13.69-13.14,12.26-28.51-1.28,11.27,3.55,16.51-.15,25.63-9.28C680.71,251.11,694,256.7,692.06,265.81Z"
       transform="translate(-445.5 -121.26)"
       id="path29185" />
    <path
       class="cls-2"
       d="M657.36,284c9.17,2.9,15.72-1.91,22-10,6.55-8.48,11.87-7.15,19.48,1.81-8.36-.52-12,5.68-16.09,10.82-3.55,4.51-6.57,7.21-12.44,3.54C667,288.17,660.75,286.87,657.36,284Z"
       transform="translate(-445.5 -121.26)"
       id="path29187" />
    <path
       class="cls-2"
       d="M540.26,377c-5.52,1.15-9.38-.65-11.53-6.09-1.32-3.33-9.46-10.46-10-15,7.36,6.24,8.53,9.76,26.32,7.73,6.22-.71,9.56,3.75,11.09,14.94-2.16.77-3.51-1-5.22-1.65A19.83,19.83,0,0,0,540.26,377Z"
       transform="translate(-445.5 -121.26)"
       id="path29189" />
    <path
       class="cls-2"
       d="M552.14,354.39c.6-8-5.6-10.43-10.55-10.86-13.17.81-19.57.67-26.91-8.41,1.38,5.81,6.64,13.78,9.39,18.38,3.18,1.19,6.48.28,9.71.59,5.28.51,10.67-1.09,15.87.86C549.64,354.95,551.95,356.89,552.14,354.39Z"
       transform="translate(-445.5 -121.26)"
       id="path29191" />
    <path
       class="cls-2"
       d="M546.59,407.76c6.32.94,12.12,1.38,18.25-1.24,4-1.72,7.77,1.34,11.16,3.52,1.73,1.12,2.34,2.68.12,4.09-3.24,2.07-6.51,4.09-9.74,6.18-1.89,1.23-3.29.21-4.71-.89Z"
       transform="translate(-445.5 -121.26)"
       id="path29193" />
    <path
       class="cls-2"
       d="M539.71,386.68c4.59,1.66,9-.56,13.6-.59,3.1,0,5.65,2,7.77,4.25a9,9,0,0,1,1.63,5.53c-.35.89-2.54-1.63-5.27.1-4.34,2.75-7.34,3.33-10,4.4-3.58,1.46-7.81-10.66-16.34-15.95C531.07,382.26,538.18,386,539.71,386.68Z"
       transform="translate(-445.5 -121.26)"
       id="path29195" />
    <path
       class="cls-4"
       d="M725.84,235l7.05-.05c-2.47,2.18-5.47.84-8.22,1.22-2,.27-4.23-.87-5.9,1.11-3-.38-5.36-1.71-7.47-5.29C716.69,233.5,721,235.67,725.84,235Z"
       transform="translate(-445.5 -121.26)"
       id="path29197" />
    <path
       class="cls-5"
       d="M689.5,222a5.46,5.46,0,0,1,0,7Q689.51,225.52,689.5,222Z"
       transform="translate(-445.5 -121.26)"
       id="path29199" />
    <path
       class="cls-6"
       d="M661.28,441.58a5.2,5.2,0,0,1,0-7.05Q661.29,438.05,661.28,441.58Z"
       transform="translate(-445.5 -121.26)"
       id="path29201" />
    <path
       class="cls-7"
       d="M824.46,339.4c-1.74-1.92-1.7-3.85-.07-5.81A7.83,7.83,0,0,1,824.46,339.4Z"
       transform="translate(-445.5 -121.26)"
       id="path29203" />
    <path
       class="cls-4"
       d="M737.65,197.37c-1.7.93-4.12.88-4.63,3.42a1.82,1.82,0,0,1-.13,2.44l.06.2L727,198.68C735.11,194.1,735.4,194.07,737.65,197.37Z"
       transform="translate(-445.5 -121.26)"
       id="path29205" />
    <path
       class="cls-4"
       d="M777.75,218.66c-2.23.28-4.14-2.65-5.91-.05-.77,1.13-1.85,2.47-3.18.82-1.89-2.34-.18-4.36,1.07-6.28.82-1.27,2-2,3.3-.62C774.68,214.31,776.82,215.76,777.75,218.66Z"
       transform="translate(-445.5 -121.26)"
       id="path29207" />
    <path
       class="cls-4"
       d="M737.66,204.31c.68,1.26,2.67,1.88,1.71,4.36-3-.65-4.61-2.69-5.61-5.43C735.51,201.91,736.64,202.92,737.66,204.31Z"
       transform="translate(-445.5 -121.26)"
       id="path29209" />
    <path
       class="cls-4"
       d="M737.66,205l-3.91-1.07-.48-.26-.56-.43c0-.81.27-1.63.31-2.44.73,1.08,1.56.78,2.34.83,1.24.28,3,.1,2.22,2.29Q737.63,204.45,737.66,205Z"
       transform="translate(-445.5 -121.26)"
       id="path29211" />
    <path
       class="cls-8"
       d="M736.67,202.18l-2-2c.79-1.06,1.81-1.52,2.71-.34A1.48,1.48,0,0,1,736.67,202.18Z"
       transform="translate(-445.5 -121.26)"
       id="path29213" />
    <polygon
       class="cls-9"
       points="233.85 298.99 220.54 301.28 220.54 295.48 234.05 290.18 233.85 298.99"
       id="polygon29215" />
  </g>
  <path
     id="shine"
     d="M 1.5800005,0.7040314 V 207.08091 c 0,229.66454 239.9199995,319.6031 239.9199995,319.6031 0,0 239.92,-89.93856 239.92,-319.6031 V 0.7040314 Z"
     style="fill:url(#rg);stroke:#000000;stroke-width:2.41218" />
</svg>
