<?xml version="1.0" encoding="UTF-8" standalone="no"?>
<svg
   viewBox="0 0 483 527.48"
   version="1.1"
   id="svg43092"
   sodipodi:docname="House Caron.svg"
   inkscape:version="1.2.1 (9c6d41e410, 2022-07-14)"
   xmlns:inkscape="http://www.inkscape.org/namespaces/inkscape"
   xmlns:sodipodi="http://sodipodi.sourceforge.net/DTD/sodipodi-0.dtd"
   xmlns="http://www.w3.org/2000/svg"
   xmlns:svg="http://www.w3.org/2000/svg">
  <sodipodi:namedview
     id="namedview43094"
     pagecolor="#ffffff"
     bordercolor="#000000"
     borderopacity="0.25"
     inkscape:showpageshadow="2"
     inkscape:pageopacity="0.0"
     inkscape:pagecheckerboard="0"
     inkscape:deskcolor="#d1d1d1"
     showgrid="false"
     inkscape:zoom="1.12203"
     inkscape:cx="171.11842"
     inkscape:cy="262.02507"
     inkscape:window-width="1920"
     inkscape:window-height="1017"
     inkscape:window-x="-8"
     inkscape:window-y="-8"
     inkscape:window-maximized="1"
     inkscape:current-layer="svg43092" />
  <defs
     id="defs42812">
    <style
       id="style42810">.cls-1{fill:#fced46;stroke:#000;stroke-width:3px;}.cls-2{fill:#f1e340;}.cls-3{fill:#f8e944;}</style>
    <radialGradient
       id="rg"
       gradientUnits="userSpaceOnUse"
       cx="220"
       cy="220"
       r="405"
       gradientTransform="matrix(0.80510068,0,0,0.80302287,-0.0301995,-0.89702586)">
      <stop
         style="stop-color:#ffffff;stop-opacity:.3"
         offset="0"
         id="stop753" />
      <stop
         style="stop-color:#ffffff;stop-opacity:.2"
         offset=".2"
         id="stop755" />
      <stop
         style="stop-color:#666666;stop-opacity:.1"
         offset=".6"
         id="stop757" />
      <stop
         style="stop-color:#000000;stop-opacity:.13"
         offset="1"
         id="stop759" />
    </radialGradient>
  </defs>
  <title
     id="title42814">Caron-Shield</title>
  <g
     id="Layer_2"
     data-name="Layer 2">
    <path
       class="cls-1"
       d="M927,122.76V328.6a314.37,314.37,0,0,1-2.28,38c-.11.93-.24,1.86-.36,2.79s-.24,1.86-.39,2.79q-.7,5.05-1.61,10c-.07.44-.15.87-.23,1.31-.15.8-.29,1.6-.45,2.39s-.34,1.8-.51,2.69l-.45,2.22-.24,1.16c-.15.71-.3,1.44-.47,2.15q-.8,3.55-1.61,7l-.58,2.32-.52,2q-1.52,5.88-3.27,11.61c-.29,1-.59,1.94-.9,2.92l-.6,1.88c-.19.63-.39,1.25-.6,1.86l-1.1,3.26c-.37,1.09-.68,2-1,3-.47,1.28-.92,2.55-1.39,3.81-.36,1-.73,2-1.11,3l-.19.49c-.43,1.14-.87,2.25-1.32,3.37s-.87,2.16-1.32,3.19a3.35,3.35,0,0,1-.18.42c-.4,1-.8,2-1.25,3s-.75,1.75-1.13,2.62l-.66,1.49c-.47,1.07-.95,2.12-1.44,3.15s-.9,2-1.36,2.93l-1,2.12c-.3.63-.6,1.25-.91,1.88-.63,1.32-1.31,2.64-2,4q-2.53,5-5.19,9.77l-2,3.57-.11.21q-2.13,3.71-4.33,7.33c-.71,1.2-1.46,2.39-2.18,3.54-.1.16-.19.31-.3.46-.55.89-1.12,1.78-1.69,2.66l-.66,1c-.65,1-1.31,2-2,3l-.13.18c-.66,1-1.32,2-2,3l-.45.67q-2.26,3.28-4.54,6.46l-.31.42c-.8,1.07-1.54,2.14-2.31,3.19s-1.66,2.23-2.5,3.32q-2.29,3-4.61,6l-.8,1c-.73.93-1.48,1.85-2.22,2.76L854,526.61l-.57.69L851,530.1q-2.83,3.32-5.72,6.53c-.75.85-1.52,1.69-2.29,2.51l-2.22,2.39q-3,3.19-5.93,6.24-2.76,2.83-5.53,5.59c-.91.91-1.84,1.82-2.76,2.71s-1.85,1.78-2.78,2.67l-2.28,2.11c-.68.65-1.36,1.28-2.05,1.91a448.64,448.64,0,0,1-61.76,47.47c-.86.55-1.73,1.1-2.58,1.6q-6.42,4.07-12.46,7.63l-2.41,1.4-2.36,1.36-2.34,1.35-2.22,1.28c-8.35,4.68-15.91,8.59-22.38,11.76l-1.61.8c-10.63,5.15-18.11,8.22-21,9.35l-.42.18-.61.23-.14.06h-.08l-.23-.1-.21,0-1.07-.42-.55-.23c-.87-.34-2-.8-3.36-1.38l-.47-.18c-1.76-.8-3.88-1.67-6.33-2.77l-1.39-.61a443.16,443.16,0,0,1-39.74-20.6c-.8-.45-1.61-.92-2.36-1.38a473.14,473.14,0,0,1-44.78-30l-2.62-2c-1-.75-2-1.52-2.95-2.29l-2.81-2.21c-6.19-4.92-12.43-10.15-18.64-15.69L558.08,566q-2.3-2.05-4.59-4.2l-1.67-1.57L550,558.54l-2-1.94c-1.12-1.07-2.24-2.16-3.34-3.26-.84-.8-1.69-1.67-2.52-2.51l-.24-.26q-1.25-1.25-2.5-2.51c-.66-.68-1.32-1.36-2-2l-2-2.07-.13-.15-2.1-2.24q-3.36-3.61-6.66-7.36c-.68-.8-1.36-1.55-2-2.35-.57-.65-1.12-1.28-1.66-1.94l-2-2.39q-4.26-5.11-8.39-10.48-1.13-1.45-2.24-2.92c-1.89-2.47-3.73-5-5.57-7.55l-1.68-2.39c-.13-.16-.24-.34-.36-.5-.59-.85-1.19-1.7-1.77-2.55-.95-1.38-1.89-2.77-2.82-4.17q-1.11-1.64-2.18-3.31l-.15-.24-2.22-3.47c-.07-.13-.15-.24-.22-.37-.71-1.14-1.41-2.27-2.1-3.4s-1.49-2.46-2.21-3.7-1.44-2.39-2.13-3.67q-4.6-8-8.77-16.47c-.35-.69-.69-1.38-1-2.08-.22-.44-.44-.89-.65-1.35-.43-.87-.8-1.75-1.25-2.63a27.17,27.17,0,0,1-1.15-2.47l-.23-.48c-.26-.58-.52-1.16-.8-1.75l-.26-.57c-.26-.58-.52-1.18-.8-1.77q-1.44-3.26-2.78-6.58c-.42-1-.8-2-1.23-3.07-.1-.26-.21-.53-.31-.8-.4-1-.8-2-1.16-3s-.68-1.82-1-2.74l-.23-.65c-.18-.45-.34-.91-.5-1.36q-1-2.69-1.89-5.44c-.21-.6-.4-1.21-.6-1.8-.26-.8-.51-1.54-.75-2.31-.14-.42-.26-.8-.39-1.22-.26-.8-.5-1.6-.75-2.39-.31-1-.61-2.06-.92-3.1-.18-.65-.39-1.28-.57-2-.37-1.28-.74-2.58-1.08-3.89-.19-.68-.37-1.35-.55-2-.13-.5-.26-1-.39-1.51-.32-1.22-.63-2.46-.92-3.7-.18-.7-.35-1.4-.52-2.11-.07-.29-.13-.57-.19-.85-.37-1.55-.71-3.11-1.07-4.69-.26-1.16-.5-2.33-.74-3.5-.14-.71-.29-1.43-.43-2.14s-.32-1.6-.47-2.45a2.13,2.13,0,0,0-.1-.47c-.15-.8-.3-1.64-.45-2.48s-.31-1.84-.47-2.77-.3-1.8-.45-2.71q-.87-5.52-1.56-11.17A314.73,314.73,0,0,1,447,328.58V122.76Z"
       transform="translate(-445.5 -121.26)"
       id="path42816" />
  </g>
  <g
     id="Layer_3"
     data-name="Layer 3">
    <path
       d="M767.1,392.69c1.74-.35,3.74.07,5.3-1.83-2-1.34-4.52-.3-6.48-1.37.6-1.39,2-.53,2.84-1.38L765.53,386c4.58.33,9,.78,13.53.89a38.91,38.91,0,0,0,17.53-3.14c1-.48,2.6-.8,2.61-2.14a3.63,3.63,0,0,0-2.47-3.35c-.85-.35-2.28-.59-2.43-1.16-1.76-6.42-7.49-6.21-12.28-7.48-1.88-.5-3.58-1-4.55-3.25,2.29-.32,4.38,1.5,6.94.13-5.88-3.46-11.78-6.74-14.54-14.08l8.83,5.31c-2.78-5.85-8.16-10-8.59-17.25,2.59,1.26,3.2,4.48,6.51,5-3.9-6-9.1-11.26-7.94-19.87,1.84,2.59,2.18,5.3,5,7.07-1.36-6.51-5.5-12.06-3.64-18.61,2,4.27,4.06,8.31,8.53,11.72-1.82-8.4-7.58-15.71-2.79-24.1.77,4.65,1.65,9.19,5.33,13.08,1.39-8.93-.35-18.24,6.92-25.12-1.42,6.77-1.75,13.4,1.15,20.71,1.89-7.93,2.87-15.67,10.57-19.46-3.88,5.67-5.1,11.79-4.11,19.61,4.92-7.79,8.51-15.67,18.78-17.52-4.5,4.44-8,8.46-9.28,14.51,4.89-3.63,7.21-9.68,13.75-11.08-1.85,3.79-4.82,6.36-5.72,10.1-.3,1.26-.55,2.54-.92,4.22,2.67-1.41,4-4.51,7.26-3.52-1.3,2.74-3.94,4.81-3.82,8.37l4.71-1.45a36,36,0,0,1-2,4.83c-3.31,5.53-1.08,10.62,1.22,15.65a1.92,1.92,0,0,1,0,1.71c-1.49,4.57-.48,9.24-.54,13.87,0,2.83,3.12,4.14,5.93,2.66,3.48-1.83,4.92-5.22,6-8.63,1.5-4.73,3.49-9.6.19-14.5,3.18-.77,4.18,1.92,6,4.07a30.64,30.64,0,0,0,6.54-21.13c3.46.07,3.76,3.55,5.89,5.6,7-9.52,17.42-16.77,17.94-30.16,3.13,2.39,3.17,2.55,2.74,10.85a17.43,17.43,0,0,0,7.6-15.78c2.15.77,2.34,2.5,2.3,4-.47,18.11-2.3,36-13.05,51.38a65.1,65.1,0,0,1-20.71,19c-5,2.95-9.75,6.4-14.56,9.7-1.29.89-2,2.4-1.22,3.83,1,1.78,2.37.39,3.42-.17a8.25,8.25,0,0,1,9.71,1,26.28,26.28,0,0,0,8.61,5.19c-1.71.31-3.4.77-5.12.9-4.39.35-4.52.57-2.78,4.65,1,2.42,3.53,4,3.72,7.43-2.68-2.08-4.33-4.83-7.16-6.22-1.87-.92-3-1.36-3.82,1.16-1.37,4.19-4.45,7.17-7.64,10-1.13,1-4,1.47-2.69,3.58s1.66,5.62,5.28,5.87c1,.07,2.07.2,3.18.3-.66.78-2.06.54-2.5,1.9l5.4,2a26.1,26.1,0,0,0-16,4.17c-.33-1.9,1.77-2.21,1.59-3.59,2.08-4.34,1.8-6.32-1.29-8.9-.83-.7-1.75-1.44-2.76-.47-.79.76-.43,1.72.06,2.55.89,1.49,2.39,2.46,3.33,3.89.77,1.19,1.57,2.54-1,2.24L818.81,407c-1,.8-.4,1.81-.71,2.6s-.17,2.06-1.39,2.08c-1.42,0-1-1.29-1.1-2.08-.67-4.67-2.94-.64-4.43-.84-.82.18-1.09-.19-.95-1,6.27-6.88,6.27-6.88-1.42-12-4.89-3.27-12.29-2.62-16.77,1.24a77.89,77.89,0,0,0-14.54,16.65l3.19-8.12c-2.51.26-3.09,3-5.92,2.86l3.52-5.56c-3.31,0-5.45,2.78-8.68,2.45,1.92-1.81,4.48-2.5,6-5-3-1-5.42.83-8.71,1l7.3-4.06c-3.67-.8-6.24.08-9.34,0,2.75-1.42,5.66-1,7.78-2.77-1-1.89-2.64-.8-3.94-1C767.88,393.73,767,394.23,767.1,392.69Z"
       transform="translate(-445.5 -121.26)"
       id="path42819" />
    <path
       class="cls-2"
       d="M822.22,408.77c.81-.14,1.74-.21.65-1.3s-2.53-2.33-3.63-3.64c-1.3-1.54-1.77-3.66-.2-4.94s3.22-.51,4.66,1.27c4.19,5.19,4.31,5.65.22,9.29Z"
       transform="translate(-445.5 -121.26)"
       id="path42821" />
    <path
       d="M810.23,407.82c.32.32,1.64.34,2,.66-1,.93-3.06,2.17-4.66,3.63C807.61,409.53,808.93,408.68,810.23,407.82Z"
       transform="translate(-445.5 -121.26)"
       id="path42823" />
    <path
       class="cls-3"
       d="M840.76,374.66a2,2,0,0,1-2.46,1.93,1.88,1.88,0,0,1-1.88-2.1,2,2,0,0,1,2.24-2.23A2.12,2.12,0,0,1,840.76,374.66Z"
       transform="translate(-445.5 -121.26)"
       id="path42825" />
    <path
       d="M831.86,404.59s4.39-.09,5.47-.22a13.78,13.78,0,0,1-3.6,1.48"
       transform="translate(-445.5 -121.26)"
       id="path42827" />
    <path
       d="M835.55,407.82a18.38,18.38,0,0,1,5.7,1.63,65.69,65.69,0,0,0-8.71-.35"
       transform="translate(-445.5 -121.26)"
       id="path42829" />
    <path
       d="M849,375.65s4,.76,6.37-.61c0,0-3,3.68-6.7,2.93"
       transform="translate(-445.5 -121.26)"
       id="path42831" />
    <path
       d="M772.4,390.86a64.69,64.69,0,0,1-11.94,2.6,21.12,21.12,0,0,0,10.65-.06"
       transform="translate(-445.5 -121.26)"
       id="path42833" />
    <path
       d="M768.39,388.37a39.34,39.34,0,0,1-7.27.9s1.67,1.16,9,.86"
       transform="translate(-445.5 -121.26)"
       id="path42835" />
    <path
       d="M772.61,394.51s-8.57,2.77-10.94,3a42.63,42.63,0,0,0,10.94-.54"
       transform="translate(-445.5 -121.26)"
       id="path42837" />
    <path
       d="M775.58,400.31a71.56,71.56,0,0,1-11.83,2.27c2.33-.79,10.42-5.33,10.42-5.33"
       transform="translate(-445.5 -121.26)"
       id="path42839" />
    <path
       d="M777.08,398.67c-.54,1.54-9.75,8-9.75,8,2.25-.42,11-3.84,11-3.84"
       transform="translate(-445.5 -121.26)"
       id="path42841" />
    <path
       d="M780.69,405.57s-6.86,5.44-8.44,6c0,0,6.75-9.48,6.83-11.19"
       transform="translate(-445.5 -121.26)"
       id="path42843" />
    <path
       d="M780.69,404.88s-3.12,8.38-4.22,10.13c0,0,3.57-1.92,9.53-13.29Z"
       transform="translate(-445.5 -121.26)"
       id="path42845" />
    <path
       d="M763.47,383.53a21.31,21.31,0,0,0,8.59,3l-3.3,1.62A9.19,9.19,0,0,1,763.47,383.53Z"
       transform="translate(-445.5 -121.26)"
       id="path42847" />
    <path
       d="M815.61,409.63a10.13,10.13,0,0,0,1,4.44,11.22,11.22,0,0,0,1.57-5.15Z"
       transform="translate(-445.5 -121.26)"
       id="path42849" />
    <path
       d="M823.91,409.45s-4.18,4-3.12,4.05a9.72,9.72,0,0,0,5.57-2.58Z"
       transform="translate(-445.5 -121.26)"
       id="path42851" />
    <path
       d="M628.1,390.69c1.74-.35,3.74.07,5.3-1.83-2-1.34-4.52-.3-6.48-1.37.6-1.39,2-.53,2.84-1.38L626.53,384c4.58.33,9,.78,13.53.89a38.91,38.91,0,0,0,17.53-3.14c1-.48,2.6-.8,2.61-2.14a3.63,3.63,0,0,0-2.47-3.35c-.85-.35-2.28-.59-2.43-1.16-1.76-6.42-7.49-6.21-12.28-7.48-1.88-.5-3.58-1-4.55-3.25,2.29-.32,4.38,1.5,6.94.13-5.88-3.46-11.78-6.74-14.54-14.08l8.83,5.31c-2.78-5.85-8.16-10-8.59-17.25,2.59,1.26,3.2,4.48,6.51,5-3.9-6-9.1-11.26-7.94-19.87,1.84,2.59,2.18,5.3,5,7.07-1.36-6.51-5.5-12.06-3.64-18.61,2,4.27,4.06,8.31,8.53,11.72-1.82-8.4-7.58-15.71-2.79-24.1.77,4.65,1.65,9.19,5.33,13.08,1.39-8.93-.35-18.24,6.92-25.12-1.42,6.77-1.75,13.4,1.15,20.71,1.89-7.93,2.87-15.67,10.57-19.46-3.88,5.67-5.1,11.79-4.11,19.61,4.92-7.79,8.51-15.67,18.78-17.52-4.5,4.44-8,8.46-9.28,14.51,4.89-3.63,7.21-9.68,13.75-11.08-1.85,3.79-4.82,6.36-5.72,10.1-.3,1.26-.55,2.54-.92,4.22,2.67-1.41,4-4.51,7.26-3.52-1.3,2.74-3.94,4.81-3.82,8.37l4.71-1.45a36,36,0,0,1-2,4.83c-3.31,5.53-1.08,10.62,1.22,15.65a1.92,1.92,0,0,1,0,1.71c-1.49,4.57-.48,9.24-.54,13.87,0,2.83,3.12,4.14,5.93,2.66,3.48-1.83,4.92-5.22,6-8.63,1.5-4.73,3.49-9.6.19-14.5,3.18-.77,4.18,1.92,6,4.07a30.64,30.64,0,0,0,6.54-21.13c3.46.07,3.76,3.55,5.89,5.6,7-9.52,17.42-16.77,17.94-30.16,3.13,2.39,3.17,2.55,2.74,10.85a17.43,17.43,0,0,0,7.6-15.78c2.15.77,2.34,2.5,2.3,4-.47,18.11-2.3,36-13.05,51.38a65.1,65.1,0,0,1-20.71,19c-5,2.95-9.75,6.4-14.56,9.7-1.29.89-2,2.4-1.22,3.83,1,1.78,2.37.39,3.42-.17a8.25,8.25,0,0,1,9.71,1,26.28,26.28,0,0,0,8.61,5.19c-1.71.31-3.4.77-5.12.9-4.39.35-4.52.57-2.78,4.65,1,2.42,3.53,4,3.72,7.43-2.68-2.08-4.33-4.83-7.16-6.22-1.87-.92-3-1.36-3.82,1.16-1.37,4.19-4.45,7.17-7.64,10-1.13,1-4,1.47-2.69,3.58s1.66,5.62,5.28,5.87c1,.07,2.07.2,3.18.3-.66.78-2.06.54-2.5,1.9l5.4,2a26.1,26.1,0,0,0-16,4.17c-.33-1.9,1.77-2.21,1.59-3.59,2.08-4.34,1.8-6.32-1.29-8.9-.83-.7-1.75-1.44-2.76-.47-.79.76-.43,1.72.06,2.55.89,1.49,2.39,2.46,3.33,3.89.77,1.19,1.57,2.54-1,2.24L679.81,405c-1,.8-.4,1.81-.71,2.6s-.17,2.06-1.39,2.08c-1.42,0-1-1.29-1.1-2.08-.67-4.67-2.94-.64-4.43-.84-.82.18-1.09-.19-.95-1,6.27-6.88,6.27-6.88-1.42-12-4.89-3.27-12.29-2.62-16.77,1.24a77.89,77.89,0,0,0-14.54,16.65l3.19-8.12c-2.51.26-3.09,3-5.92,2.86l3.52-5.56c-3.31,0-5.45,2.78-8.68,2.45,1.92-1.81,4.48-2.5,6-5-3-1-5.42.83-8.71,1l7.3-4.06c-3.67-.8-6.24.08-9.34,0,2.75-1.42,5.66-1,7.78-2.77-1-1.89-2.64-.8-3.94-1C628.88,391.73,628,392.23,628.1,390.69Z"
       transform="translate(-445.5 -121.26)"
       id="path42853" />
    <path
       class="cls-2"
       d="M683.22,406.77c.81-.14,1.74-.21.65-1.3s-2.53-2.33-3.63-3.64c-1.3-1.54-1.77-3.66-.2-4.94s3.22-.51,4.66,1.27c4.19,5.19,4.31,5.65.22,9.29Z"
       transform="translate(-445.5 -121.26)"
       id="path42855" />
    <path
       d="M671.23,405.82c.32.32,1.64.34,2,.66-1,.93-3.06,2.17-4.66,3.63C668.61,407.53,669.93,406.68,671.23,405.82Z"
       transform="translate(-445.5 -121.26)"
       id="path42857" />
    <path
       class="cls-3"
       d="M701.76,372.66a2,2,0,0,1-2.46,1.93,1.88,1.88,0,0,1-1.88-2.1,2,2,0,0,1,2.24-2.23A2.12,2.12,0,0,1,701.76,372.66Z"
       transform="translate(-445.5 -121.26)"
       id="path42859" />
    <path
       d="M692.86,402.59s4.39-.09,5.47-.22a13.78,13.78,0,0,1-3.6,1.48"
       transform="translate(-445.5 -121.26)"
       id="path42861" />
    <path
       d="M696.55,405.82a18.38,18.38,0,0,1,5.7,1.63,65.69,65.69,0,0,0-8.71-.35"
       transform="translate(-445.5 -121.26)"
       id="path42863" />
    <path
       d="M710,373.65s4,.76,6.37-.61c0,0-3,3.68-6.7,2.93"
       transform="translate(-445.5 -121.26)"
       id="path42865" />
    <path
       d="M633.4,388.86a64.69,64.69,0,0,1-11.94,2.6,21.12,21.12,0,0,0,10.65-.06"
       transform="translate(-445.5 -121.26)"
       id="path42867" />
    <path
       d="M629.39,386.37a39.34,39.34,0,0,1-7.27.9s1.67,1.16,9,.86"
       transform="translate(-445.5 -121.26)"
       id="path42869" />
    <path
       d="M633.61,392.51s-8.57,2.77-10.94,3a42.63,42.63,0,0,0,10.94-.54"
       transform="translate(-445.5 -121.26)"
       id="path42871" />
    <path
       d="M636.58,398.31a71.56,71.56,0,0,1-11.83,2.27c2.33-.79,10.42-5.33,10.42-5.33"
       transform="translate(-445.5 -121.26)"
       id="path42873" />
    <path
       d="M638.08,396.67c-.54,1.54-9.75,8-9.75,8,2.25-.42,11-3.84,11-3.84"
       transform="translate(-445.5 -121.26)"
       id="path42875" />
    <path
       d="M641.69,403.57s-6.86,5.44-8.44,6c0,0,6.75-9.48,6.83-11.19"
       transform="translate(-445.5 -121.26)"
       id="path42877" />
    <path
       d="M641.69,402.88s-3.12,8.38-4.22,10.13c0,0,3.57-1.92,9.53-13.29Z"
       transform="translate(-445.5 -121.26)"
       id="path42879" />
    <path
       d="M624.47,381.53a21.31,21.31,0,0,0,8.59,3l-3.3,1.62A9.19,9.19,0,0,1,624.47,381.53Z"
       transform="translate(-445.5 -121.26)"
       id="path42881" />
    <path
       d="M676.61,407.63a10.13,10.13,0,0,0,1,4.44,11.22,11.22,0,0,0,1.57-5.15Z"
       transform="translate(-445.5 -121.26)"
       id="path42883" />
    <path
       d="M684.91,407.45s-4.18,4-3.12,4.05a9.72,9.72,0,0,0,5.57-2.58Z"
       transform="translate(-445.5 -121.26)"
       id="path42885" />
    <path
       d="M561.1,531.69c1.74-.35,3.74.07,5.3-1.83-2-1.34-4.52-.3-6.48-1.37.6-1.39,2-.53,2.84-1.38L559.53,525c4.58.33,9,.78,13.53.89a38.91,38.91,0,0,0,17.53-3.14c1-.48,2.6-.8,2.61-2.14a3.63,3.63,0,0,0-2.47-3.35c-.85-.35-2.28-.59-2.43-1.16-1.76-6.42-7.49-6.21-12.28-7.48-1.88-.5-3.58-1-4.55-3.25,2.29-.32,4.38,1.5,6.94.13-5.88-3.46-11.78-6.74-14.54-14.08l8.83,5.31c-2.78-5.85-8.16-10-8.59-17.25,2.59,1.26,3.2,4.48,6.51,5-3.9-6-9.1-11.26-7.94-19.87,1.84,2.59,2.18,5.3,5,7.07-1.36-6.51-5.5-12.06-3.64-18.61,2,4.27,4.06,8.31,8.53,11.72-1.82-8.4-7.58-15.71-2.79-24.1.77,4.65,1.65,9.19,5.33,13.08,1.39-8.93-.35-18.24,6.92-25.12-1.42,6.77-1.75,13.4,1.15,20.71,1.89-7.93,2.87-15.67,10.57-19.46-3.88,5.67-5.1,11.79-4.11,19.61,4.92-7.79,8.51-15.67,18.78-17.52-4.5,4.44-8,8.46-9.28,14.51,4.89-3.63,7.21-9.68,13.75-11.08-1.85,3.79-4.82,6.36-5.72,10.1-.3,1.26-.55,2.54-.92,4.22,2.67-1.41,4-4.51,7.26-3.52-1.3,2.74-3.94,4.81-3.82,8.37l4.71-1.45a36,36,0,0,1-2,4.83c-3.31,5.53-1.08,10.62,1.22,15.65a1.92,1.92,0,0,1,0,1.71c-1.49,4.57-.48,9.24-.54,13.87,0,2.83,3.12,4.14,5.93,2.66,3.48-1.83,4.92-5.22,6-8.63,1.5-4.73,3.49-9.6.19-14.5,3.18-.77,4.18,1.92,6,4.07a30.64,30.64,0,0,0,6.54-21.13c3.46.07,3.76,3.55,5.89,5.6,7-9.52,17.42-16.77,17.94-30.16,3.13,2.39,3.17,2.55,2.74,10.85a17.43,17.43,0,0,0,7.6-15.78c2.15.77,2.34,2.5,2.3,4-.47,18.11-2.3,36-13.05,51.38a65.1,65.1,0,0,1-20.71,19c-5,2.95-9.75,6.4-14.56,9.7-1.29.89-2,2.4-1.22,3.83,1,1.78,2.37.39,3.42-.17a8.25,8.25,0,0,1,9.71,1,26.28,26.28,0,0,0,8.61,5.19c-1.71.31-3.4.77-5.12.9-4.39.35-4.52.57-2.78,4.65,1,2.42,3.53,4,3.72,7.43-2.68-2.08-4.33-4.83-7.16-6.22-1.87-.92-3-1.36-3.82,1.16-1.37,4.19-4.45,7.17-7.64,10-1.13,1-4,1.47-2.69,3.58s1.66,5.62,5.28,5.87c1,.07,2.07.2,3.18.3-.66.78-2.06.54-2.5,1.9l5.4,2a26.1,26.1,0,0,0-16,4.17c-.33-1.9,1.77-2.21,1.59-3.59,2.08-4.34,1.8-6.32-1.29-8.9-.83-.7-1.75-1.44-2.76-.47-.79.76-.43,1.72.06,2.55.89,1.49,2.39,2.46,3.33,3.89.77,1.19,1.57,2.54-1,2.24L612.81,546c-1,.8-.4,1.81-.71,2.6s-.17,2.06-1.39,2.08c-1.42,0-1-1.29-1.1-2.08-.67-4.67-2.94-.64-4.43-.84-.82.18-1.09-.19-.95-1,6.27-6.88,6.27-6.88-1.42-12-4.89-3.27-12.29-2.62-16.77,1.24a77.89,77.89,0,0,0-14.54,16.65l3.19-8.12c-2.51.26-3.09,3-5.92,2.86l3.52-5.56c-3.31,0-5.45,2.78-8.68,2.45,1.92-1.81,4.48-2.5,6-5-3-1-5.42.83-8.71,1l7.3-4.06c-3.67-.8-6.24.08-9.34,0,2.75-1.42,5.66-1,7.78-2.77-1-1.89-2.64-.8-3.94-1C561.88,532.73,561,533.23,561.1,531.69Z"
       transform="translate(-445.5 -121.26)"
       id="path42887" />
    <path
       class="cls-2"
       d="M616.22,547.77c.81-.14,1.74-.21.65-1.3s-2.53-2.33-3.63-3.64c-1.3-1.54-1.77-3.66-.2-4.94s3.22-.51,4.66,1.27c4.19,5.19,4.31,5.65.22,9.29Z"
       transform="translate(-445.5 -121.26)"
       id="path42889" />
    <path
       d="M604.23,546.82c.32.32,1.64.34,2,.66-1,.93-3.06,2.17-4.66,3.63C601.61,548.53,602.93,547.68,604.23,546.82Z"
       transform="translate(-445.5 -121.26)"
       id="path42891" />
    <path
       class="cls-3"
       d="M634.76,513.66a2,2,0,0,1-2.46,1.93,1.88,1.88,0,0,1-1.88-2.1,2,2,0,0,1,2.24-2.23A2.12,2.12,0,0,1,634.76,513.66Z"
       transform="translate(-445.5 -121.26)"
       id="path42893" />
    <path
       d="M625.86,543.59s4.39-.09,5.47-.22a13.78,13.78,0,0,1-3.6,1.48"
       transform="translate(-445.5 -121.26)"
       id="path42895" />
    <path
       d="M629.55,546.82a18.38,18.38,0,0,1,5.7,1.63,65.69,65.69,0,0,0-8.71-.35"
       transform="translate(-445.5 -121.26)"
       id="path42897" />
    <path
       d="M643,514.65s4,.76,6.37-.61c0,0-3,3.68-6.7,2.93"
       transform="translate(-445.5 -121.26)"
       id="path42899" />
    <path
       d="M566.4,529.86a64.69,64.69,0,0,1-11.94,2.6,21.12,21.12,0,0,0,10.65-.06"
       transform="translate(-445.5 -121.26)"
       id="path42901" />
    <path
       d="M562.39,527.37a39.34,39.34,0,0,1-7.27.9s1.67,1.16,9,.86"
       transform="translate(-445.5 -121.26)"
       id="path42903" />
    <path
       d="M566.61,533.51s-8.57,2.77-10.94,3a42.63,42.63,0,0,0,10.94-.54"
       transform="translate(-445.5 -121.26)"
       id="path42905" />
    <path
       d="M569.58,539.31a71.56,71.56,0,0,1-11.83,2.27c2.33-.79,10.42-5.33,10.42-5.33"
       transform="translate(-445.5 -121.26)"
       id="path42907" />
    <path
       d="M571.08,537.67c-.54,1.54-9.75,8-9.75,8,2.25-.42,11-3.84,11-3.84"
       transform="translate(-445.5 -121.26)"
       id="path42909" />
    <path
       d="M574.69,544.57s-6.86,5.44-8.44,6c0,0,6.75-9.48,6.83-11.19"
       transform="translate(-445.5 -121.26)"
       id="path42911" />
    <path
       d="M574.69,543.88s-3.12,8.38-4.22,10.13c0,0,3.57-1.92,9.53-13.29Z"
       transform="translate(-445.5 -121.26)"
       id="path42913" />
    <path
       d="M557.47,522.53a21.31,21.31,0,0,0,8.59,3l-3.3,1.62A9.19,9.19,0,0,1,557.47,522.53Z"
       transform="translate(-445.5 -121.26)"
       id="path42915" />
    <path
       d="M609.61,548.63a10.13,10.13,0,0,0,1,4.44,11.22,11.22,0,0,0,1.57-5.15Z"
       transform="translate(-445.5 -121.26)"
       id="path42917" />
    <path
       d="M617.91,548.45s-4.18,4-3.12,4.05a9.72,9.72,0,0,0,5.57-2.58Z"
       transform="translate(-445.5 -121.26)"
       id="path42919" />
    <path
       d="M695.24,530.69c1.74-.35,3.74.07,5.3-1.83-2-1.34-4.52-.3-6.48-1.37.6-1.39,2-.53,2.84-1.38L693.67,524c4.58.33,9,.78,13.53.89a38.91,38.91,0,0,0,17.53-3.14c1-.48,2.6-.8,2.61-2.14a3.63,3.63,0,0,0-2.47-3.35c-.85-.35-2.28-.59-2.43-1.16-1.76-6.42-7.49-6.21-12.28-7.48-1.88-.5-3.58-1-4.55-3.25,2.29-.32,4.38,1.5,6.94.13-5.88-3.46-11.78-6.74-14.54-14.08l8.83,5.31c-2.78-5.85-8.16-10-8.59-17.25,2.59,1.26,3.2,4.48,6.51,5-3.9-6-9.1-11.26-7.94-19.87,1.84,2.59,2.18,5.3,5,7.07-1.36-6.51-5.5-12.06-3.64-18.61,2,4.27,4.06,8.31,8.53,11.72-1.82-8.4-7.58-15.71-2.79-24.1.77,4.65,1.65,9.19,5.33,13.08,1.39-8.93-.35-18.24,6.92-25.12-1.42,6.77-1.75,13.4,1.15,20.71,1.89-7.93,2.87-15.67,10.57-19.46-3.88,5.67-5.1,11.79-4.11,19.61,4.92-7.79,8.51-15.67,18.78-17.52-4.5,4.44-8,8.46-9.28,14.51,4.89-3.63,7.21-9.68,13.75-11.08-1.85,3.79-4.82,6.36-5.72,10.1-.3,1.26-.55,2.54-.92,4.22,2.67-1.41,4-4.51,7.26-3.52-1.3,2.74-3.94,4.81-3.82,8.37l4.71-1.45a36,36,0,0,1-2,4.83c-3.31,5.53-1.08,10.62,1.22,15.65a1.92,1.92,0,0,1,0,1.71c-1.49,4.57-.48,9.24-.54,13.87,0,2.83,3.12,4.14,5.93,2.66,3.48-1.83,4.92-5.22,6-8.63,1.5-4.73,3.49-9.6.19-14.5,3.18-.77,4.18,1.92,6,4.07A30.64,30.64,0,0,0,772,450.71c3.46.07,3.76,3.55,5.89,5.6,7-9.52,17.42-16.77,17.94-30.16,3.13,2.39,3.17,2.55,2.74,10.85a17.43,17.43,0,0,0,7.6-15.78c2.15.77,2.34,2.5,2.3,4-.47,18.11-2.3,36-13.05,51.38a65.1,65.1,0,0,1-20.71,19c-5,2.95-9.75,6.4-14.56,9.7-1.29.89-2,2.4-1.22,3.83,1,1.78,2.37.39,3.42-.17a8.25,8.25,0,0,1,9.71,1,26.28,26.28,0,0,0,8.61,5.19c-1.71.31-3.4.77-5.12.9-4.39.35-4.52.57-2.78,4.65,1,2.42,3.53,4,3.72,7.43-2.68-2.08-4.33-4.83-7.16-6.22-1.87-.92-3-1.36-3.82,1.16-1.37,4.19-4.45,7.17-7.64,10-1.13,1-4,1.47-2.69,3.58s1.66,5.62,5.28,5.87c1,.07,2.07.2,3.18.3-.66.78-2.06.54-2.5,1.9l5.4,2a26.1,26.1,0,0,0-16,4.17c-.33-1.9,1.77-2.21,1.59-3.59,2.08-4.34,1.8-6.32-1.29-8.9-.83-.7-1.75-1.44-2.76-.47-.79.76-.43,1.72.06,2.55.89,1.49,2.39,2.46,3.33,3.89.77,1.19,1.57,2.54-1,2.24L747,545c-1,.8-.4,1.81-.71,2.6s-.17,2.06-1.39,2.08c-1.42,0-1-1.29-1.1-2.08-.67-4.67-2.94-.64-4.43-.84-.82.18-1.09-.19-.95-1,6.27-6.88,6.27-6.88-1.42-12-4.89-3.27-12.29-2.62-16.77,1.24a77.89,77.89,0,0,0-14.54,16.65l3.19-8.12c-2.51.26-3.09,3-5.92,2.86l3.52-5.56c-3.31,0-5.45,2.78-8.68,2.45,1.92-1.81,4.48-2.5,6-5-3-1-5.42.83-8.71,1l7.3-4.06c-3.67-.8-6.24.08-9.34,0,2.75-1.42,5.66-1,7.78-2.77-1-1.89-2.64-.8-3.94-1C696,531.73,695.11,532.23,695.24,530.69Z"
       transform="translate(-445.5 -121.26)"
       id="path42921" />
    <path
       class="cls-2"
       d="M750.37,546.77c.81-.14,1.74-.21.65-1.3s-2.53-2.33-3.63-3.64c-1.3-1.54-1.77-3.66-.2-4.94s3.22-.51,4.66,1.27c4.19,5.19,4.31,5.65.22,9.29Z"
       transform="translate(-445.5 -121.26)"
       id="path42923" />
    <path
       d="M738.38,545.82c.32.32,1.64.34,2,.66-1,.93-3.06,2.17-4.66,3.63C735.75,547.53,737.07,546.68,738.38,545.82Z"
       transform="translate(-445.5 -121.26)"
       id="path42925" />
    <path
       class="cls-3"
       d="M768.91,512.66a2,2,0,0,1-2.46,1.93,1.88,1.88,0,0,1-1.88-2.1,2,2,0,0,1,2.24-2.23A2.12,2.12,0,0,1,768.91,512.66Z"
       transform="translate(-445.5 -121.26)"
       id="path42927" />
    <path
       d="M760,542.59s4.39-.09,5.47-.22a13.78,13.78,0,0,1-3.6,1.48"
       transform="translate(-445.5 -121.26)"
       id="path42929" />
    <path
       d="M763.7,545.82a18.38,18.38,0,0,1,5.7,1.63,65.69,65.69,0,0,0-8.71-.35"
       transform="translate(-445.5 -121.26)"
       id="path42931" />
    <path
       d="M777.11,513.65s4,.76,6.37-.61c0,0-3,3.68-6.7,2.93"
       transform="translate(-445.5 -121.26)"
       id="path42933" />
    <path
       d="M700.55,528.86a64.69,64.69,0,0,1-11.94,2.6,21.12,21.12,0,0,0,10.65-.06"
       transform="translate(-445.5 -121.26)"
       id="path42935" />
    <path
       d="M696.54,526.37a39.34,39.34,0,0,1-7.27.9s1.67,1.16,9,.86"
       transform="translate(-445.5 -121.26)"
       id="path42937" />
    <path
       d="M700.76,532.51s-8.57,2.77-10.94,3a42.63,42.63,0,0,0,10.94-.54"
       transform="translate(-445.5 -121.26)"
       id="path42939" />
    <path
       d="M703.73,538.31a71.56,71.56,0,0,1-11.83,2.27c2.33-.79,10.42-5.33,10.42-5.33"
       transform="translate(-445.5 -121.26)"
       id="path42941" />
    <path
       d="M705.23,536.67c-.54,1.54-9.75,8-9.75,8,2.25-.42,11-3.84,11-3.84"
       transform="translate(-445.5 -121.26)"
       id="path42943" />
    <path
       d="M708.84,543.57s-6.86,5.44-8.44,6c0,0,6.75-9.48,6.83-11.19"
       transform="translate(-445.5 -121.26)"
       id="path42945" />
    <path
       d="M708.84,542.88s-3.12,8.38-4.22,10.13c0,0,3.57-1.92,9.53-13.29Z"
       transform="translate(-445.5 -121.26)"
       id="path42947" />
    <path
       d="M691.61,521.53a21.31,21.31,0,0,0,8.59,3l-3.3,1.62A9.19,9.19,0,0,1,691.61,521.53Z"
       transform="translate(-445.5 -121.26)"
       id="path42949" />
    <path
       d="M743.75,547.63a10.13,10.13,0,0,0,1,4.44,11.22,11.22,0,0,0,1.57-5.15Z"
       transform="translate(-445.5 -121.26)"
       id="path42951" />
    <path
       d="M752.05,547.45s-4.18,4-3.12,4.05a9.72,9.72,0,0,0,5.57-2.58Z"
       transform="translate(-445.5 -121.26)"
       id="path42953" />
    <path
       d="M485.6,390.69c1.74-.35,3.74.07,5.3-1.83-2-1.34-4.52-.3-6.48-1.37.6-1.39,2-.53,2.84-1.38L484,384c4.58.33,9,.78,13.53.89a38.91,38.91,0,0,0,17.53-3.14c1-.48,2.6-.8,2.61-2.14a3.63,3.63,0,0,0-2.47-3.35c-.85-.35-2.28-.59-2.43-1.16-1.76-6.42-7.49-6.21-12.28-7.48-1.88-.5-3.58-1-4.55-3.25,2.29-.32,4.38,1.5,6.94.13-5.88-3.46-11.78-6.74-14.54-14.08l8.83,5.31c-2.78-5.85-8.16-10-8.59-17.25,2.59,1.26,3.2,4.48,6.51,5-3.9-6-9.1-11.26-7.94-19.87,1.84,2.59,2.18,5.3,5,7.07-1.36-6.51-5.5-12.06-3.64-18.61,2,4.27,4.06,8.31,8.53,11.72-1.82-8.4-7.58-15.71-2.79-24.1.77,4.65,1.65,9.19,5.33,13.08,1.39-8.93-.35-18.24,6.92-25.12-1.42,6.77-1.75,13.4,1.15,20.71,1.89-7.93,2.87-15.67,10.57-19.46-3.88,5.67-5.1,11.79-4.11,19.61,4.92-7.79,8.51-15.67,18.78-17.52-4.5,4.44-8,8.46-9.28,14.51,4.89-3.63,7.21-9.68,13.75-11.08-1.85,3.79-4.82,6.36-5.72,10.1-.3,1.26-.55,2.54-.92,4.22,2.67-1.41,4-4.51,7.26-3.52-1.3,2.74-3.94,4.81-3.82,8.37L539,312.2a36,36,0,0,1-2,4.83c-3.31,5.53-1.08,10.62,1.22,15.65a1.92,1.92,0,0,1,0,1.71c-1.49,4.57-.48,9.24-.54,13.87,0,2.83,3.12,4.14,5.93,2.66,3.48-1.83,4.92-5.22,6-8.63,1.5-4.73,3.49-9.6.19-14.5,3.18-.77,4.18,1.92,6,4.07a30.64,30.64,0,0,0,6.54-21.13c3.46.07,3.76,3.55,5.89,5.6,7-9.52,17.42-16.77,17.94-30.16,3.13,2.39,3.17,2.55,2.74,10.85a17.43,17.43,0,0,0,7.6-15.78c2.15.77,2.34,2.5,2.3,4-.47,18.11-2.3,36-13.05,51.38a65.1,65.1,0,0,1-20.71,19c-5,2.95-9.75,6.4-14.56,9.7-1.29.89-2,2.4-1.22,3.83,1,1.78,2.37.39,3.42-.17a8.25,8.25,0,0,1,9.71,1,26.28,26.28,0,0,0,8.61,5.19c-1.71.31-3.4.77-5.12.9-4.39.35-4.52.57-2.78,4.65,1,2.42,3.53,4,3.72,7.43-2.68-2.08-4.33-4.83-7.16-6.22-1.87-.92-3-1.36-3.82,1.16-1.37,4.19-4.45,7.17-7.64,10-1.13,1-4,1.47-2.69,3.58s1.66,5.62,5.28,5.87c1,.07,2.07.2,3.18.3-.66.78-2.06.54-2.5,1.9l5.4,2a26.1,26.1,0,0,0-16,4.17c-.33-1.9,1.77-2.21,1.59-3.59,2.08-4.34,1.8-6.32-1.29-8.9-.83-.7-1.75-1.44-2.76-.47-.79.76-.43,1.72.06,2.55.89,1.49,2.39,2.46,3.33,3.89.77,1.19,1.57,2.54-1,2.24L537.31,405c-1,.8-.4,1.81-.71,2.6s-.17,2.06-1.39,2.08c-1.42,0-1-1.29-1.1-2.08-.67-4.67-2.94-.64-4.43-.84-.82.18-1.09-.19-.95-1,6.27-6.88,6.27-6.88-1.42-12-4.89-3.27-12.29-2.62-16.77,1.24A77.89,77.89,0,0,0,496,411.69l3.19-8.12c-2.51.26-3.09,3-5.92,2.86l3.52-5.56c-3.31,0-5.45,2.78-8.68,2.45,1.92-1.81,4.48-2.5,6-5-3-1-5.42.83-8.71,1l7.3-4.06c-3.67-.8-6.24.08-9.34,0,2.75-1.42,5.66-1,7.78-2.77-1-1.89-2.64-.8-3.94-1C486.38,391.73,485.47,392.23,485.6,390.69Z"
       transform="translate(-445.5 -121.26)"
       id="path42955" />
    <path
       class="cls-2"
       d="M540.72,406.77c.81-.14,1.74-.21.65-1.3s-2.53-2.33-3.63-3.64c-1.3-1.54-1.77-3.66-.2-4.94s3.22-.51,4.66,1.27c4.19,5.19,4.31,5.65.22,9.29Z"
       transform="translate(-445.5 -121.26)"
       id="path42957" />
    <path
       d="M528.73,405.82c.32.32,1.64.34,2,.66-1,.93-3.06,2.17-4.66,3.63C526.11,407.53,527.43,406.68,528.73,405.82Z"
       transform="translate(-445.5 -121.26)"
       id="path42959" />
    <path
       class="cls-3"
       d="M559.26,372.66a2,2,0,0,1-2.46,1.93,1.88,1.88,0,0,1-1.88-2.1,2,2,0,0,1,2.24-2.23A2.12,2.12,0,0,1,559.26,372.66Z"
       transform="translate(-445.5 -121.26)"
       id="path42961" />
    <path
       d="M550.36,402.59s4.39-.09,5.47-.22a13.78,13.78,0,0,1-3.6,1.48"
       transform="translate(-445.5 -121.26)"
       id="path42963" />
    <path
       d="M554,405.82a18.38,18.38,0,0,1,5.7,1.63,65.69,65.69,0,0,0-8.71-.35"
       transform="translate(-445.5 -121.26)"
       id="path42965" />
    <path
       d="M567.46,373.65s4,.76,6.37-.61c0,0-3,3.68-6.7,2.93"
       transform="translate(-445.5 -121.26)"
       id="path42967" />
    <path
       d="M490.9,388.86a64.69,64.69,0,0,1-11.94,2.6,21.12,21.12,0,0,0,10.65-.06"
       transform="translate(-445.5 -121.26)"
       id="path42969" />
    <path
       d="M486.89,386.37a39.34,39.34,0,0,1-7.27.9s1.67,1.16,9,.86"
       transform="translate(-445.5 -121.26)"
       id="path42971" />
    <path
       d="M491.11,392.51s-8.57,2.77-10.94,3a42.63,42.63,0,0,0,10.94-.54"
       transform="translate(-445.5 -121.26)"
       id="path42973" />
    <path
       d="M494.08,398.31a71.56,71.56,0,0,1-11.83,2.27c2.33-.79,10.42-5.33,10.42-5.33"
       transform="translate(-445.5 -121.26)"
       id="path42975" />
    <path
       d="M495.58,396.67c-.54,1.54-9.75,8-9.75,8,2.25-.42,11-3.84,11-3.84"
       transform="translate(-445.5 -121.26)"
       id="path42977" />
    <path
       d="M499.19,403.57s-6.86,5.44-8.44,6c0,0,6.75-9.48,6.83-11.19"
       transform="translate(-445.5 -121.26)"
       id="path42979" />
    <path
       d="M499.19,402.88S496.07,411.25,495,413c0,0,3.57-1.92,9.53-13.29Z"
       transform="translate(-445.5 -121.26)"
       id="path42981" />
    <path
       d="M482,381.53a21.31,21.31,0,0,0,8.59,3l-3.3,1.62A9.19,9.19,0,0,1,482,381.53Z"
       transform="translate(-445.5 -121.26)"
       id="path42983" />
    <path
       d="M534.11,407.63a10.13,10.13,0,0,0,1,4.44,11.22,11.22,0,0,0,1.57-5.15Z"
       transform="translate(-445.5 -121.26)"
       id="path42985" />
    <path
       d="M542.41,407.45s-4.18,4-3.12,4.05a9.72,9.72,0,0,0,5.57-2.58Z"
       transform="translate(-445.5 -121.26)"
       id="path42987" />
    <path
       d="M483.6,249.69c1.74-.35,3.74.07,5.3-1.83-2-1.34-4.52-.3-6.48-1.37.6-1.39,2-.53,2.84-1.38L482,243c4.58.33,9,.78,13.53.89a38.91,38.91,0,0,0,17.53-3.14c1-.48,2.6-.8,2.61-2.14a3.63,3.63,0,0,0-2.47-3.35c-.85-.35-2.28-.59-2.43-1.16-1.76-6.42-7.49-6.21-12.28-7.48-1.88-.5-3.58-1-4.55-3.25,2.29-.32,4.38,1.5,6.94.13-5.88-3.46-11.78-6.74-14.54-14.08l8.83,5.31c-2.78-5.85-8.16-10-8.59-17.25,2.59,1.26,3.2,4.48,6.51,5-3.9-6-9.1-11.26-7.94-19.87,1.84,2.59,2.18,5.3,5,7.07-1.36-6.51-5.5-12.06-3.64-18.61,2,4.27,4.06,8.31,8.53,11.72-1.82-8.4-7.58-15.71-2.79-24.1.77,4.65,1.65,9.19,5.33,13.08,1.39-8.93-.35-18.24,6.92-25.12-1.42,6.77-1.75,13.4,1.15,20.71,1.89-7.93,2.87-15.67,10.57-19.46-3.88,5.67-5.1,11.79-4.11,19.61,4.92-7.79,8.51-15.67,18.78-17.52-4.5,4.44-8,8.46-9.28,14.51,4.89-3.63,7.21-9.68,13.75-11.08-1.85,3.79-4.82,6.36-5.72,10.1-.3,1.26-.55,2.54-.92,4.22,2.67-1.41,4-4.51,7.26-3.52-1.3,2.74-3.94,4.81-3.82,8.37L537,171.2a36,36,0,0,1-2,4.83c-3.31,5.53-1.08,10.62,1.22,15.65a1.92,1.92,0,0,1,0,1.71c-1.49,4.57-.48,9.24-.54,13.87,0,2.83,3.12,4.14,5.93,2.66,3.48-1.83,4.92-5.22,6-8.63,1.5-4.73,3.49-9.6.19-14.5,3.18-.77,4.18,1.92,6,4.07a30.64,30.64,0,0,0,6.54-21.13c3.46.07,3.76,3.55,5.89,5.6,7-9.52,17.42-16.77,17.94-30.16,3.13,2.39,3.17,2.55,2.74,10.85a17.43,17.43,0,0,0,7.6-15.78c2.15.77,2.34,2.5,2.3,4-.47,18.11-2.3,36-13.05,51.38a65.1,65.1,0,0,1-20.71,19c-5,2.95-9.75,6.4-14.56,9.7-1.29.89-2,2.4-1.22,3.83,1,1.78,2.37.39,3.42-.17a8.25,8.25,0,0,1,9.71,1,26.28,26.28,0,0,0,8.61,5.19c-1.71.31-3.4.77-5.12.9-4.39.35-4.52.57-2.78,4.65,1,2.42,3.53,4,3.72,7.43-2.68-2.08-4.33-4.83-7.16-6.22-1.87-.92-3-1.36-3.82,1.16-1.37,4.19-4.45,7.17-7.64,10-1.13,1-4,1.47-2.69,3.58s1.66,5.62,5.28,5.87c1,.07,2.07.2,3.18.3-.66.78-2.06.54-2.5,1.9l5.4,2a26.1,26.1,0,0,0-16,4.17c-.33-1.9,1.77-2.21,1.59-3.59,2.08-4.34,1.8-6.32-1.29-8.9-.83-.7-1.75-1.44-2.76-.47-.79.76-.43,1.72.06,2.55.89,1.49,2.39,2.46,3.33,3.89.77,1.19,1.57,2.54-1,2.24L535.31,264c-1,.8-.4,1.81-.71,2.6s-.17,2.06-1.39,2.08c-1.42,0-1-1.29-1.1-2.08-.67-4.67-2.94-.64-4.43-.84-.82.18-1.09-.19-.95-1,6.27-6.88,6.27-6.88-1.42-12-4.89-3.27-12.29-2.62-16.77,1.24A77.89,77.89,0,0,0,494,270.69l3.19-8.12c-2.51.26-3.09,3-5.92,2.86l3.52-5.56c-3.31,0-5.45,2.78-8.68,2.45,1.92-1.81,4.48-2.5,6-5-3-1-5.42.83-8.71,1l7.3-4.06c-3.67-.8-6.24.08-9.34,0,2.75-1.42,5.66-1,7.78-2.77-1-1.89-2.64-.8-3.94-1C484.38,250.73,483.47,251.23,483.6,249.69Z"
       transform="translate(-445.5 -121.26)"
       id="path42989" />
    <path
       class="cls-2"
       d="M538.72,265.77c.81-.14,1.74-.21.65-1.3s-2.53-2.33-3.63-3.64c-1.3-1.54-1.77-3.66-.2-4.94s3.22-.51,4.66,1.27c4.19,5.19,4.31,5.65.22,9.29Z"
       transform="translate(-445.5 -121.26)"
       id="path42991" />
    <path
       d="M526.73,264.82c.32.32,1.64.34,2,.66-1,.93-3.06,2.17-4.66,3.63C524.11,266.53,525.43,265.68,526.73,264.82Z"
       transform="translate(-445.5 -121.26)"
       id="path42993" />
    <path
       class="cls-3"
       d="M557.26,231.66a2,2,0,0,1-2.46,1.93,1.88,1.88,0,0,1-1.88-2.1,2,2,0,0,1,2.24-2.23A2.12,2.12,0,0,1,557.26,231.66Z"
       transform="translate(-445.5 -121.26)"
       id="path42995" />
    <path
       d="M548.36,261.59s4.39-.09,5.47-.22a13.78,13.78,0,0,1-3.6,1.48"
       transform="translate(-445.5 -121.26)"
       id="path42997" />
    <path
       d="M552,264.82a18.38,18.38,0,0,1,5.7,1.63,65.69,65.69,0,0,0-8.71-.35"
       transform="translate(-445.5 -121.26)"
       id="path42999" />
    <path
       d="M565.46,232.65s4,.76,6.37-.61c0,0-3,3.68-6.7,2.93"
       transform="translate(-445.5 -121.26)"
       id="path43001" />
    <path
       d="M488.9,247.86a64.69,64.69,0,0,1-11.94,2.6,21.12,21.12,0,0,0,10.65-.06"
       transform="translate(-445.5 -121.26)"
       id="path43003" />
    <path
       d="M484.89,245.37a39.34,39.34,0,0,1-7.27.9s1.67,1.16,9,.86"
       transform="translate(-445.5 -121.26)"
       id="path43005" />
    <path
       d="M489.11,251.51s-8.57,2.77-10.94,3a42.63,42.63,0,0,0,10.94-.54"
       transform="translate(-445.5 -121.26)"
       id="path43007" />
    <path
       d="M492.08,257.31a71.56,71.56,0,0,1-11.83,2.27c2.33-.79,10.42-5.33,10.42-5.33"
       transform="translate(-445.5 -121.26)"
       id="path43009" />
    <path
       d="M493.58,255.67c-.54,1.54-9.75,8-9.75,8,2.25-.42,11-3.84,11-3.84"
       transform="translate(-445.5 -121.26)"
       id="path43011" />
    <path
       d="M497.19,262.57s-6.86,5.44-8.44,6c0,0,6.75-9.48,6.83-11.19"
       transform="translate(-445.5 -121.26)"
       id="path43013" />
    <path
       d="M497.19,261.88S494.07,270.25,493,272c0,0,3.57-1.92,9.53-13.29Z"
       transform="translate(-445.5 -121.26)"
       id="path43015" />
    <path
       d="M480,240.53a21.31,21.31,0,0,0,8.59,3l-3.3,1.62A9.19,9.19,0,0,1,480,240.53Z"
       transform="translate(-445.5 -121.26)"
       id="path43017" />
    <path
       d="M532.11,266.63a10.13,10.13,0,0,0,1,4.44,11.22,11.22,0,0,0,1.57-5.15Z"
       transform="translate(-445.5 -121.26)"
       id="path43019" />
    <path
       d="M540.41,266.45s-4.18,4-3.12,4.05a9.72,9.72,0,0,0,5.57-2.58Z"
       transform="translate(-445.5 -121.26)"
       id="path43021" />
    <path
       d="M632.21,247.69c1.74-.35,3.74.07,5.3-1.83-2-1.34-4.52-.3-6.48-1.37.6-1.39,2-.53,2.84-1.38L630.64,241c4.58.33,9,.78,13.53.89a38.91,38.91,0,0,0,17.53-3.14c1-.48,2.6-.8,2.61-2.14a3.63,3.63,0,0,0-2.47-3.35c-.85-.35-2.28-.59-2.43-1.16-1.76-6.42-7.49-6.21-12.28-7.48-1.88-.5-3.58-1-4.55-3.25,2.29-.32,4.38,1.5,6.94.13-5.88-3.46-11.78-6.74-14.54-14.08l8.83,5.31c-2.78-5.85-8.16-10-8.59-17.25,2.59,1.26,3.2,4.48,6.51,5-3.9-6-9.1-11.26-7.94-19.87,1.84,2.59,2.18,5.3,5,7.07-1.36-6.51-5.5-12.06-3.64-18.61,2,4.27,4.06,8.31,8.53,11.72-1.82-8.4-7.58-15.71-2.79-24.1.77,4.65,1.65,9.19,5.33,13.08,1.39-8.93-.35-18.24,6.92-25.12-1.42,6.77-1.75,13.4,1.15,20.71,1.89-7.93,2.87-15.67,10.57-19.46-3.88,5.67-5.1,11.79-4.11,19.61,4.92-7.79,8.51-15.67,18.78-17.52-4.5,4.44-8,8.46-9.28,14.51,4.89-3.63,7.21-9.68,13.75-11.08-1.85,3.79-4.82,6.36-5.72,10.1-.3,1.26-.55,2.54-.92,4.22,2.67-1.41,4-4.51,7.26-3.52-1.3,2.74-3.94,4.81-3.82,8.37l4.71-1.45a36,36,0,0,1-2,4.83c-3.31,5.53-1.08,10.62,1.22,15.65a1.92,1.92,0,0,1,0,1.71c-1.49,4.57-.48,9.24-.54,13.87,0,2.83,3.12,4.14,5.93,2.66,3.48-1.83,4.92-5.22,6-8.63,1.5-4.73,3.49-9.6.19-14.5,3.18-.77,4.18,1.92,6,4.07a30.64,30.64,0,0,0,6.54-21.13c3.46.07,3.76,3.55,5.89,5.6,7-9.52,17.42-16.77,17.94-30.16,3.13,2.39,3.17,2.55,2.74,10.85a17.43,17.43,0,0,0,7.6-15.78c2.15.77,2.34,2.5,2.3,4-.47,18.11-2.3,36-13.05,51.38a65.1,65.1,0,0,1-20.71,19c-5,2.95-9.75,6.4-14.56,9.7-1.29.89-2,2.4-1.22,3.83,1,1.78,2.37.39,3.42-.17a8.25,8.25,0,0,1,9.71,1,26.28,26.28,0,0,0,8.61,5.19c-1.71.31-3.4.77-5.12.9-4.39.35-4.52.57-2.78,4.65,1,2.42,3.53,4,3.72,7.43-2.68-2.08-4.33-4.83-7.16-6.22-1.87-.92-3-1.36-3.82,1.16-1.37,4.19-4.45,7.17-7.64,10-1.13,1-4,1.47-2.69,3.58s1.66,5.62,5.28,5.87c1,.07,2.07.2,3.18.3-.66.78-2.06.54-2.5,1.9l5.4,2a26.1,26.1,0,0,0-16,4.17c-.33-1.9,1.77-2.21,1.59-3.59,2.08-4.34,1.8-6.32-1.29-8.9-.83-.7-1.75-1.44-2.76-.47-.79.76-.43,1.72.06,2.55.89,1.49,2.39,2.46,3.33,3.89.77,1.19,1.57,2.54-1,2.24L683.93,262c-1,.8-.4,1.81-.71,2.6s-.17,2.06-1.39,2.08c-1.42,0-1-1.29-1.1-2.08-.67-4.67-2.94-.64-4.43-.84-.82.18-1.09-.19-.95-1,6.27-6.88,6.27-6.88-1.42-12-4.89-3.27-12.29-2.62-16.77,1.24a77.89,77.89,0,0,0-14.54,16.65l3.19-8.12c-2.51.26-3.09,3-5.92,2.86l3.52-5.56c-3.31,0-5.45,2.78-8.68,2.45,1.92-1.81,4.48-2.5,6-5-3-1-5.42.83-8.71,1l7.3-4.06c-3.67-.8-6.24.08-9.34,0,2.75-1.42,5.66-1,7.78-2.77-1-1.89-2.64-.8-3.94-1C633,248.73,632.08,249.23,632.21,247.69Z"
       transform="translate(-445.5 -121.26)"
       id="path43023" />
    <path
       class="cls-2"
       d="M687.33,263.77c.81-.14,1.74-.21.65-1.3s-2.53-2.33-3.63-3.64c-1.3-1.54-1.77-3.66-.2-4.94s3.22-.51,4.66,1.27c4.19,5.19,4.31,5.65.22,9.29Z"
       transform="translate(-445.5 -121.26)"
       id="path43025" />
    <path
       d="M675.35,262.82c.32.32,1.64.34,2,.66-1,.93-3.06,2.17-4.66,3.63C672.72,264.53,674,263.68,675.35,262.82Z"
       transform="translate(-445.5 -121.26)"
       id="path43027" />
    <path
       class="cls-3"
       d="M705.88,229.66a2,2,0,0,1-2.46,1.93,1.88,1.88,0,0,1-1.88-2.1,2,2,0,0,1,2.24-2.23A2.12,2.12,0,0,1,705.88,229.66Z"
       transform="translate(-445.5 -121.26)"
       id="path43029" />
    <path
       d="M697,259.59s4.39-.09,5.47-.22a13.78,13.78,0,0,1-3.6,1.48"
       transform="translate(-445.5 -121.26)"
       id="path43031" />
    <path
       d="M700.66,262.82a18.38,18.38,0,0,1,5.7,1.63,65.69,65.69,0,0,0-8.71-.35"
       transform="translate(-445.5 -121.26)"
       id="path43033" />
    <path
       d="M714.08,230.65s4,.76,6.37-.61c0,0-3,3.68-6.7,2.93"
       transform="translate(-445.5 -121.26)"
       id="path43035" />
    <path
       d="M637.52,245.86a64.69,64.69,0,0,1-11.94,2.6,21.12,21.12,0,0,0,10.65-.06"
       transform="translate(-445.5 -121.26)"
       id="path43037" />
    <path
       d="M633.51,243.37a39.34,39.34,0,0,1-7.27.9s1.67,1.16,9,.86"
       transform="translate(-445.5 -121.26)"
       id="path43039" />
    <path
       d="M637.72,249.51s-8.57,2.77-10.94,3a42.63,42.63,0,0,0,10.94-.54"
       transform="translate(-445.5 -121.26)"
       id="path43041" />
    <path
       d="M640.7,255.31a71.56,71.56,0,0,1-11.83,2.27c2.33-.79,10.42-5.33,10.42-5.33"
       transform="translate(-445.5 -121.26)"
       id="path43043" />
    <path
       d="M642.2,253.67c-.54,1.54-9.75,8-9.75,8,2.25-.42,11-3.84,11-3.84"
       transform="translate(-445.5 -121.26)"
       id="path43045" />
    <path
       d="M645.81,260.57s-6.86,5.44-8.44,6c0,0,6.75-9.48,6.83-11.19"
       transform="translate(-445.5 -121.26)"
       id="path43047" />
    <path
       d="M645.81,259.88s-3.12,8.38-4.22,10.13c0,0,3.57-1.92,9.53-13.29Z"
       transform="translate(-445.5 -121.26)"
       id="path43049" />
    <path
       d="M628.58,238.53a21.31,21.31,0,0,0,8.59,3l-3.3,1.62A9.19,9.19,0,0,1,628.58,238.53Z"
       transform="translate(-445.5 -121.26)"
       id="path43051" />
    <path
       d="M680.72,264.63a10.13,10.13,0,0,0,1,4.44,11.22,11.22,0,0,0,1.57-5.15Z"
       transform="translate(-445.5 -121.26)"
       id="path43053" />
    <path
       d="M689,264.45s-4.18,4-3.12,4.05a9.72,9.72,0,0,0,5.57-2.58Z"
       transform="translate(-445.5 -121.26)"
       id="path43055" />
    <path
       d="M780.32,247.69c1.74-.35,3.74.07,5.3-1.83-2-1.34-4.52-.3-6.48-1.37.6-1.39,2-.53,2.84-1.38L778.75,241c4.58.33,9,.78,13.53.89a38.91,38.91,0,0,0,17.53-3.14c1-.48,2.6-.8,2.61-2.14a3.63,3.63,0,0,0-2.47-3.35c-.85-.35-2.28-.59-2.43-1.16-1.76-6.42-7.49-6.21-12.28-7.48-1.88-.5-3.58-1-4.55-3.25,2.29-.32,4.38,1.5,6.94.13-5.88-3.46-11.78-6.74-14.54-14.08l8.83,5.31c-2.78-5.85-8.16-10-8.59-17.25,2.59,1.26,3.2,4.48,6.51,5-3.9-6-9.1-11.26-7.94-19.87,1.84,2.59,2.18,5.3,5,7.07-1.36-6.51-5.5-12.06-3.64-18.61,2,4.27,4.06,8.31,8.53,11.72-1.82-8.4-7.58-15.71-2.79-24.1.77,4.65,1.65,9.19,5.33,13.08,1.39-8.93-.35-18.24,6.92-25.12-1.42,6.77-1.75,13.4,1.15,20.71,1.89-7.93,2.87-15.67,10.57-19.46-3.88,5.67-5.1,11.79-4.11,19.61,4.92-7.79,8.51-15.67,18.78-17.52-4.5,4.44-8,8.46-9.28,14.51,4.89-3.63,7.21-9.68,13.75-11.08-1.85,3.79-4.82,6.36-5.72,10.1-.3,1.26-.55,2.54-.92,4.22,2.67-1.41,4-4.51,7.26-3.52-1.3,2.74-3.94,4.81-3.82,8.37l4.71-1.45a36,36,0,0,1-2,4.83c-3.31,5.53-1.08,10.62,1.22,15.65a1.92,1.92,0,0,1,0,1.71c-1.49,4.57-.48,9.24-.54,13.87,0,2.83,3.12,4.14,5.93,2.66,3.48-1.83,4.92-5.22,6-8.63,1.5-4.73,3.49-9.6.19-14.5,3.18-.77,4.18,1.92,6,4.07A30.64,30.64,0,0,0,857,167.71c3.46.07,3.76,3.55,5.89,5.6,7-9.52,17.42-16.77,17.94-30.16,3.13,2.39,3.17,2.55,2.74,10.85a17.43,17.43,0,0,0,7.6-15.78c2.15.77,2.34,2.5,2.3,4-.47,18.11-2.3,36-13.05,51.38a65.1,65.1,0,0,1-20.71,19c-5,2.95-9.75,6.4-14.56,9.7-1.29.89-2,2.4-1.22,3.83,1,1.78,2.37.39,3.42-.17a8.25,8.25,0,0,1,9.71,1,26.28,26.28,0,0,0,8.61,5.19c-1.71.31-3.4.77-5.12.9-4.39.35-4.52.57-2.78,4.65,1,2.42,3.53,4,3.72,7.43-2.68-2.08-4.33-4.83-7.16-6.22-1.87-.92-3-1.36-3.82,1.16-1.37,4.19-4.45,7.17-7.64,10-1.13,1-4,1.47-2.69,3.58s1.66,5.62,5.28,5.87c1,.07,2.07.2,3.18.3-.66.78-2.06.54-2.5,1.9l5.4,2a26.1,26.1,0,0,0-16,4.17c-.33-1.9,1.77-2.21,1.59-3.59,2.08-4.34,1.8-6.32-1.29-8.9-.83-.7-1.75-1.44-2.76-.47-.79.76-.43,1.72.06,2.55.89,1.49,2.39,2.46,3.33,3.89.77,1.19,1.57,2.54-1,2.24L832,262c-1,.8-.4,1.81-.71,2.6s-.17,2.06-1.39,2.08c-1.42,0-1-1.29-1.1-2.08-.67-4.67-2.94-.64-4.43-.84-.82.18-1.09-.19-.95-1,6.27-6.88,6.27-6.88-1.42-12-4.89-3.27-12.29-2.62-16.77,1.24a77.89,77.89,0,0,0-14.54,16.65l3.19-8.12c-2.51.26-3.09,3-5.92,2.86l3.52-5.56c-3.31,0-5.45,2.78-8.68,2.45,1.92-1.81,4.48-2.5,6-5-3-1-5.42.83-8.71,1l7.3-4.06c-3.67-.8-6.24.08-9.34,0,2.75-1.42,5.66-1,7.78-2.77-1-1.89-2.64-.8-3.94-1C781.11,248.73,780.19,249.23,780.32,247.69Z"
       transform="translate(-445.5 -121.26)"
       id="path43057" />
    <path
       class="cls-2"
       d="M835.44,263.77c.81-.14,1.74-.21.65-1.3s-2.53-2.33-3.63-3.64c-1.3-1.54-1.77-3.66-.2-4.94s3.22-.51,4.66,1.27c4.19,5.19,4.31,5.65.22,9.29Z"
       transform="translate(-445.5 -121.26)"
       id="path43059" />
    <path
       d="M823.45,262.82c.32.32,1.64.34,2,.66-1,.93-3.06,2.17-4.66,3.63C820.83,264.53,822.15,263.68,823.45,262.82Z"
       transform="translate(-445.5 -121.26)"
       id="path43061" />
    <path
       class="cls-3"
       d="M854,229.66a2,2,0,0,1-2.46,1.93,1.88,1.88,0,0,1-1.88-2.1,2,2,0,0,1,2.24-2.23A2.12,2.12,0,0,1,854,229.66Z"
       transform="translate(-445.5 -121.26)"
       id="path43063" />
    <path
       d="M845.08,259.59s4.39-.09,5.47-.22a13.78,13.78,0,0,1-3.6,1.48"
       transform="translate(-445.5 -121.26)"
       id="path43065" />
    <path
       d="M848.77,262.82a18.38,18.38,0,0,1,5.7,1.63,65.69,65.69,0,0,0-8.71-.35"
       transform="translate(-445.5 -121.26)"
       id="path43067" />
    <path
       d="M862.18,230.65s4,.76,6.37-.61c0,0-3,3.68-6.7,2.93"
       transform="translate(-445.5 -121.26)"
       id="path43069" />
    <path
       d="M785.63,245.86a64.69,64.69,0,0,1-11.94,2.6,21.12,21.12,0,0,0,10.65-.06"
       transform="translate(-445.5 -121.26)"
       id="path43071" />
    <path
       d="M781.61,243.37a39.34,39.34,0,0,1-7.27.9s1.67,1.16,9,.86"
       transform="translate(-445.5 -121.26)"
       id="path43073" />
    <path
       d="M785.83,249.51s-8.57,2.77-10.94,3a42.63,42.63,0,0,0,10.94-.54"
       transform="translate(-445.5 -121.26)"
       id="path43075" />
    <path
       d="M788.81,255.31A71.56,71.56,0,0,1,777,257.58c2.33-.79,10.42-5.33,10.42-5.33"
       transform="translate(-445.5 -121.26)"
       id="path43077" />
    <path
       d="M790.31,253.67c-.54,1.54-9.75,8-9.75,8,2.25-.42,11-3.84,11-3.84"
       transform="translate(-445.5 -121.26)"
       id="path43079" />
    <path
       d="M793.91,260.57s-6.86,5.44-8.44,6c0,0,6.75-9.48,6.83-11.19"
       transform="translate(-445.5 -121.26)"
       id="path43081" />
    <path
       d="M793.91,259.88s-3.12,8.38-4.22,10.13c0,0,3.57-1.92,9.53-13.29Z"
       transform="translate(-445.5 -121.26)"
       id="path43083" />
    <path
       d="M776.69,238.53a21.31,21.31,0,0,0,8.59,3l-3.3,1.62A9.19,9.19,0,0,1,776.69,238.53Z"
       transform="translate(-445.5 -121.26)"
       id="path43085" />
    <path
       d="M828.83,264.63a10.13,10.13,0,0,0,1,4.44,11.22,11.22,0,0,0,1.57-5.15Z"
       transform="translate(-445.5 -121.26)"
       id="path43087" />
    <path
       d="M837.13,264.45s-4.18,4-3.12,4.05a9.72,9.72,0,0,0,5.57-2.58Z"
       transform="translate(-445.5 -121.26)"
       id="path43089" />
  </g>
  <path
     id="shine"
     d="M 1.5800015,0.70902014 V 207.0859 C 1.5800015,436.75044 241.5,526.689 241.5,526.689 c 0,0 239.92,-89.93856 239.92,-319.6031 V 0.70902014 Z"
     style="fill:url(#rg);stroke:#000000;stroke-width:2.41218" />
</svg>
