<?xml version="1.0" encoding="UTF-8" standalone="no"?>
<svg
   viewBox="0 0 483 527.48"
   version="1.1"
   id="svg30263"
   sodipodi:docname="House Celtigar HotD.svg"
   inkscape:version="1.2.1 (9c6d41e410, 2022-07-14)"
   xmlns:inkscape="http://www.inkscape.org/namespaces/inkscape"
   xmlns:sodipodi="http://sodipodi.sourceforge.net/DTD/sodipodi-0.dtd"
   xmlns="http://www.w3.org/2000/svg"
   xmlns:svg="http://www.w3.org/2000/svg">
  <sodipodi:namedview
     id="namedview30265"
     pagecolor="#ffffff"
     bordercolor="#000000"
     borderopacity="0.25"
     inkscape:showpageshadow="2"
     inkscape:pageopacity="0.0"
     inkscape:pagecheckerboard="0"
     inkscape:deskcolor="#d1d1d1"
     showgrid="false"
     inkscape:zoom="0.79339504"
     inkscape:cx="187.80052"
     inkscape:cy="356.69494"
     inkscape:window-width="1920"
     inkscape:window-height="1017"
     inkscape:window-x="-8"
     inkscape:window-y="-8"
     inkscape:window-maximized="1"
     inkscape:current-layer="svg30263" />
  <defs
     id="defs29799">
    <style
       id="style29797">.cls-1{fill:#8f0000;}.cls-2{fill:#fff;}.cls-3{fill:#8e0000;}.cls-4{fill:none;stroke:#000;stroke-width:3px;}</style>
    <radialGradient
       id="rg"
       gradientUnits="userSpaceOnUse"
       cx="220"
       cy="220"
       r="405"
       gradientTransform="matrix(0.80510068,0,0,0.80302287,-0.0302025,-0.9270161)">
      <stop
         style="stop-color:#ffffff;stop-opacity:.3"
         offset="0"
         id="stop753" />
      <stop
         style="stop-color:#ffffff;stop-opacity:.2"
         offset=".2"
         id="stop755" />
      <stop
         style="stop-color:#666666;stop-opacity:.1"
         offset=".6"
         id="stop757" />
      <stop
         style="stop-color:#000000;stop-opacity:.13"
         offset="1"
         id="stop759" />
    </radialGradient>
  </defs>
  <title
     id="title29801">House Celtigar</title>
  <g
     id="Layer_4"
     data-name="Layer 4">
    <path
       class="cls-1"
       d="M927,122.76V328.6a313.88,313.88,0,0,1-2.28,38c-.11.93-.24,1.86-.36,2.79,0,.2,0,.4-.08.59-.09.74-.19,1.47-.31,2.2-.46,3.37-1,6.69-1.6,10-.07.44-.15.87-.23,1.31-.16.8-.29,1.6-.45,2.4s-.34,1.79-.51,2.69l-.45,2.22-.24,1.15c-.15.71-.3,1.44-.46,2.15-.54,2.37-1.07,4.71-1.61,7l-.58,2.32-.52,2q-1.53,5.88-3.27,11.61c-.29,1-.59,1.94-.9,2.92l-.6,1.88c-.2.63-.4,1.24-.61,1.86-.37,1.09-.73,2.17-1.1,3.25s-.68,2-1,3c-.47,1.28-.93,2.56-1.39,3.81-.36,1-.73,2-1.11,3l-.19.5c-.43,1.14-.87,2.25-1.32,3.36s-.87,2.17-1.31,3.2c0,.15-.12.28-.18.42-.4,1-.8,2-1.25,3s-.76,1.75-1.13,2.62l-.66,1.49c-.48,1.07-1,2.11-1.44,3.15s-.9,2-1.36,2.93l-1,2.12c-.29.63-.6,1.25-.91,1.87-.63,1.33-1.31,2.64-2,4q-2.52,5-5.19,9.77l-2,3.57-.12.21c-1.4,2.44-2.82,4.86-4.28,7.24a.41.41,0,0,1,0,.09c-.71,1.2-1.46,2.4-2.18,3.54-.11.16-.2.32-.3.47s-.31.5-.47.74c-.4.64-.81,1.28-1.22,1.92l-.65,1c-.65,1-1.31,2-2,3l-.13.18c-.65,1-1.31,2-2,3l-.45.67q-2.25,3.29-4.54,6.46l-.31.43c-.8,1.07-1.54,2.14-2.31,3.19s-1.66,2.23-2.5,3.32c-1.52,2-3.06,4-4.61,6l-.81,1q-1.09,1.39-2.22,2.76L854,526.61l-.57.69c-.4.47-.79.93-1.2,1.39a4.16,4.16,0,0,1-.27.32c-.31.37-.62.73-.94,1.09-1.23,1.44-2.46,2.87-3.73,4.29-.65.75-1.32,1.5-2,2.24s-1.52,1.69-2.29,2.51-1.47,1.6-2.22,2.4q-3,3.2-5.93,6.24-2.76,2.82-5.53,5.59l-.83.82c-.64.64-1.29,1.27-1.93,1.89-.92.89-1.85,1.78-2.79,2.66l-2.28,2.12c-.68.65-1.36,1.28-2,1.91q-14.52,13.32-30.16,25.31c-1,.77-2,1.52-3,2.28q-9.86,7.43-20.1,14.31-1.56,1.05-3.12,2.07c-1,.65-2,1.29-3,1.92a0,0,0,0,1,0,0l-.18.12h0l-2.24,1.45c-.86.55-1.72,1.1-2.57,1.6l-1.74,1.09c-3.67,2.31-7.25,4.48-10.73,6.54l-2.41,1.4-2.36,1.37-2.33,1.34-2.23,1.29c-8.34,4.68-15.9,8.59-22.38,11.76l-1.6.8c-10.64,5.15-18.12,8.22-21,9.35l-.42.17-.61.24-.14,0h-.08l-.23-.09-.21,0-1.07-.42-.54-.23c-.87-.34-2-.8-3.37-1.38l-.46-.18c-1.76-.8-3.89-1.67-6.33-2.77l-1.39-.61a442.25,442.25,0,0,1-39.75-20.6c-.8-.44-1.6-.92-2.35-1.38q-7.23-4.26-14.29-8.78-5.26-3.36-10.42-6.85c-.75-.51-1.49-1-2.23-1.53-.57-.38-1.13-.76-1.69-1.16q-8.21-5.66-16.15-11.66l-2.63-2-.61-.47c-.77-.6-1.55-1.2-2.33-1.82l-2.37-1.86-.44-.35c-6.19-4.92-12.43-10.15-18.64-15.69L558.08,566q-2.31-2.05-4.59-4.2l-1.67-1.57L550,558.54l-2-1.94c-1.12-1.07-2.23-2.17-3.33-3.27-.85-.79-1.69-1.66-2.52-2.5l-.24-.26c-.84-.83-1.67-1.67-2.5-2.51l-.34-.36c-.55-.56-1.09-1.12-1.63-1.69l-1-1.06-1-1-.13-.15-2.1-2.25c-1.12-1.2-2.24-2.41-3.34-3.64h0c-1.11-1.23-2.21-2.46-3.31-3.71l-1.31-1.5-.74-.84c-.57-.65-1.12-1.29-1.66-1.94q-1-1.2-2-2.4-4.28-5.1-8.39-10.48c-.76-1-1.5-1.93-2.24-2.92-1.89-2.47-3.73-5-5.57-7.55-.55-.8-1.12-1.59-1.68-2.39-.13-.16-.24-.34-.36-.5-.59-.86-1.19-1.7-1.77-2.56l-1.54-2.28a1,1,0,0,1-.12-.17c-.39-.57-.77-1.14-1.15-1.72-.74-1.09-1.47-2.2-2.19-3.31a1,1,0,0,0-.15-.24l-2.22-3.48-.22-.36-.88-1.43-1.22-2-.32-.53c-.17-.27-.34-.56-.51-.85-.46-.76-.94-1.56-1.38-2.33l-.64-1.1c-.5-.84-1-1.67-1.49-2.57q-4.61-8-8.77-16.46c-.35-.69-.69-1.38-1-2.09-.22-.44-.44-.88-.65-1.35-.43-.87-.8-1.74-1.25-2.63a25.91,25.91,0,0,1-1.15-2.47l-.23-.48c-.27-.58-.53-1.16-.81-1.75l-.26-.57c-.27-.59-.52-1.19-.8-1.78q-1.44-3.25-2.79-6.57c-.42-1-.8-2-1.23-3.08-.1-.25-.21-.52-.31-.79-.4-1-.8-2-1.16-3s-.69-1.82-1-2.74l-.24-.65c-.17-.44-.33-.91-.49-1.35q-1-2.7-1.9-5.44c-.21-.6-.4-1.2-.6-1.8-.26-.8-.51-1.54-.75-2.32-.14-.41-.27-.8-.4-1.22-.25-.8-.49-1.59-.75-2.39-.31-1-.61-2.06-.92-3.11-.19-.64-.39-1.28-.57-1.95-.37-1.29-.74-2.58-1.09-3.89-.19-.68-.37-1.35-.55-2-.13-.5-.27-1-.4-1.51-.32-1.22-.62-2.45-.92-3.7-.18-.7-.34-1.4-.52-2.11-.07-.28-.13-.56-.19-.85-.37-1.55-.72-3.11-1.07-4.69-.26-1.16-.5-2.33-.74-3.5-.13-.71-.29-1.43-.42-2.14s-.32-1.59-.48-2.45a1.86,1.86,0,0,0-.09-.47c-.16-.8-.3-1.64-.45-2.48s-.32-1.84-.48-2.77-.29-1.8-.45-2.71q-.57-3.7-1.07-7.47c-.17-1.23-.33-2.47-.48-3.71A312.7,312.7,0,0,1,447,328.58V122.76Z"
       transform="translate(-445.5 -121.26)"
       id="path29803" />
  </g>
  <g
     id="Layer_5"
     data-name="Layer 5">
    <path
       class="cls-2"
       d="M884.65,169V338.55a258.49,258.49,0,0,1-1.88,31.31c-.09.77-.2,1.53-.3,2.3,0,.16,0,.33-.07.49-.07.61-.16,1.21-.26,1.81-.38,2.78-.82,5.51-1.32,8.21-.06.36-.12.72-.19,1.08-.13.66-.24,1.32-.37,2s-.28,1.47-.42,2.22l-.37,1.83-.2.95c-.12.58-.25,1.19-.38,1.77-.44,2-.88,3.88-1.33,5.78l-.48,1.91-.43,1.67q-1.26,4.84-2.69,9.56c-.24.8-.49,1.6-.74,2.4l-.49,1.55c-.16.52-.33,1-.5,1.53-.3.9-.6,1.79-.91,2.68s-.56,1.63-.84,2.43l-1.14,3.14c-.3.82-.6,1.63-.91,2.45l-.16.41c-.35.94-.72,1.85-1.09,2.77s-.72,1.79-1.08,2.64c0,.12-.1.23-.15.35-.33.82-.66,1.63-1,2.45s-.63,1.44-.93,2.16l-.54,1.23c-.4.88-.78,1.74-1.19,2.59s-.74,1.61-1.12,2.41l-.84,1.75c-.24.52-.49,1-.75,1.54-.52,1.1-1.08,2.17-1.62,3.29q-2.08,4.09-4.27,8L852,462.14l-.1.17c-1.15,2-2.32,4-3.52,6l0,.07c-.58,1-1.2,2-1.8,2.92-.09.13-.16.26-.25.39s-.26.41-.39.61l-1,1.58-.54.84c-.54.83-1.08,1.66-1.63,2.48l-.11.15c-.54.82-1.08,1.63-1.64,2.45l-.37.55q-1.85,2.71-3.74,5.32l-.26.35c-.66.88-1.27,1.76-1.9,2.63s-1.37,1.84-2.06,2.73c-1.25,1.66-2.52,3.29-3.8,4.9l-.67.82q-.9,1.15-1.83,2.27l-1.88,2.28-.47.57c-.33.39-.65.77-1,1.14a3.42,3.42,0,0,1-.22.26l-.77.9c-1,1.19-2,2.36-3.07,3.53-.54.62-1.09,1.24-1.64,1.84s-1.25,1.39-1.89,2.07l-1.83,2q-2.43,2.63-4.88,5.14-2.27,2.32-4.55,4.6l-.68.68c-.53.53-1.06,1-1.59,1.56-.76.73-1.52,1.47-2.3,2.19l-1.88,1.75c-.56.54-1.12,1.05-1.69,1.57q-12,11-24.84,20.84c-.82.63-1.64,1.25-2.46,1.88q-8.12,6.11-16.55,11.78l-2.57,1.7c-.81.54-1.61,1.06-2.43,1.58h0l-.15.1h0l-1.84,1.19c-.71.45-1.42.91-2.12,1.32l-1.43.9c-3,1.9-6,3.69-8.84,5.39l-2,1.15-1.94,1.13-1.92,1.1-1.84,1.06c-6.87,3.85-13.09,7.07-18.43,9.68l-1.32.66c-8.76,4.24-14.92,6.77-17.28,7.7l-.35.14-.5.2-.12,0h-.07l-.19-.07-.17,0-.88-.35-.44-.19c-.72-.28-1.64-.66-2.78-1.14l-.38-.15c-1.45-.66-3.2-1.38-5.21-2.28l-1.14-.5a364.21,364.21,0,0,1-32.74-17c-.66-.36-1.32-.76-1.94-1.14q-6-3.51-11.77-7.23-4.34-2.77-8.58-5.64c-.62-.42-1.23-.83-1.84-1.26s-.93-.63-1.39-1q-6.76-4.66-13.3-9.6l-2.17-1.66-.5-.39-1.92-1.5-2-1.53-.36-.29c-5.1-4.05-10.24-8.36-15.35-12.92l-1.24-1.12q-1.9-1.69-3.78-3.46l-1.38-1.29-1.51-1.41-1.67-1.6c-.92-.88-1.84-1.79-2.74-2.69-.7-.65-1.39-1.37-2.08-2.06l-.2-.21c-.69-.68-1.38-1.38-2.06-2.07l-.28-.3-1.34-1.39-.84-.87-.8-.82-.11-.12-1.73-1.85c-.92-1-1.84-2-2.75-3h0c-.91-1-1.82-2-2.73-3.06l-1.08-1.24-.61-.69c-.47-.54-.92-1.06-1.37-1.6l-1.68-2q-3.52-4.2-6.91-8.63c-.63-.79-1.24-1.59-1.84-2.4-1.56-2-3.07-4.1-4.59-6.22-.45-.66-.92-1.31-1.38-2-.11-.13-.2-.28-.3-.41-.49-.71-1-1.4-1.46-2.11l-1.27-1.88a.86.86,0,0,1-.1-.14c-.32-.47-.63-.94-.95-1.42-.61-.9-1.21-1.81-1.8-2.73a.8.8,0,0,0-.12-.2l-1.83-2.87-.18-.3-.72-1.18-1-1.62-.26-.44c-.14-.22-.28-.46-.42-.7-.38-.63-.77-1.28-1.14-1.92l-.53-.91c-.41-.69-.82-1.38-1.23-2.12q-3.79-6.57-7.22-13.56c-.29-.57-.57-1.14-.85-1.72-.18-.36-.36-.72-.54-1.11-.35-.72-.66-1.43-1-2.17a21.34,21.34,0,0,1-.95-2l-.19-.4c-.22-.48-.44-1-.67-1.44l-.21-.47c-.22-.49-.43-1-.66-1.47q-1.19-2.68-2.3-5.41c-.35-.84-.66-1.69-1-2.54-.08-.21-.17-.43-.26-.65-.33-.82-.66-1.66-1-2.48s-.57-1.5-.84-2.26l-.2-.54c-.14-.36-.27-.75-.4-1.11q-.8-2.22-1.56-4.48c-.17-.49-.33-1-.49-1.48-.21-.66-.42-1.27-.62-1.91-.12-.34-.22-.66-.33-1-.21-.66-.4-1.31-.62-2-.26-.84-.5-1.7-.76-2.56-.16-.53-.32-1.05-.47-1.61-.3-1.06-.61-2.12-.9-3.2-.16-.56-.3-1.11-.45-1.67s-.22-.82-.33-1.24c-.26-1-.51-2-.76-3-.15-.58-.28-1.15-.43-1.74-.06-.23-.11-.46-.16-.7-.3-1.28-.59-2.56-.88-3.86-.21-1-.41-1.92-.61-2.88-.11-.58-.24-1.18-.35-1.76s-.26-1.31-.4-2a1.53,1.53,0,0,0-.07-.39c-.13-.66-.25-1.35-.37-2s-.26-1.52-.4-2.28-.24-1.48-.37-2.23q-.47-3.05-.88-6.15c-.14-1-.27-2-.4-3.06a257.52,257.52,0,0,1-1.85-31.06V169Z"
       transform="translate(-445.5 -121.26)"
       id="path29806" />
  </g>
  <g
     id="Layer_6"
     data-name="Layer 6">
    <path
       class="cls-3"
       d="M597.88,225.31A64.9,64.9,0,0,1,621.17,229c8.83,3,12.55,7.42,10.52,16.33-5.6,24.51-19.5,36.58-44.89,30.48a19.84,19.84,0,0,1-13.26-10.18c-3-5.58-6.26-11.05-7.84-17.25-2.13-8.32.85-14.84,8.39-18.91C579.73,226.42,585.93,225.3,597.88,225.31Z"
       transform="translate(-445.5 -121.26)"
       id="path29809" />
    <path
       class="cls-3"
       d="M559.63,218.8a31.17,31.17,0,0,1,.24,4.48c-.12,2,1.63,5.12-.81,5.64-3.16.68-7.1,1.73-9.66-2.22a33.6,33.6,0,0,1-5.45-15.47c-.43-4.64,1.74-5.35,5.59-4.68C558.5,208.11,560.22,210,559.63,218.8Z"
       transform="translate(-445.5 -121.26)"
       id="path29811" />
    <path
       class="cls-3"
       d="M653.57,211.45c-.31,5.63-2.13,9.92-4.21,14.23-2.26,4.68-6.17,4.13-10.1,4-2.17-.08-1.75-1.62-1.7-3,.1-2.57.26-5.14.2-7.7-.18-8.26,2-10.61,10.49-11.63C652.15,206.89,654.57,207.6,653.57,211.45Z"
       transform="translate(-445.5 -121.26)"
       id="path29813" />
    <path
       class="cls-3"
       d="M629.44,265c.43-3.82,2.54-5,6.08-5.08a42.27,42.27,0,0,0,14-2.43c1.22-.44,2.76-1.75,3.51.16.68,1.72-.9,3.17-2.22,3.76-5.45,2.42-11.35,3.17-17.2,4A17.88,17.88,0,0,1,629.44,265Z"
       transform="translate(-445.5 -121.26)"
       id="path29815" />
    <path
       class="cls-3"
       d="M567.71,265.55c-7.52.06-14.22-2.54-21.11-3.7a2.62,2.62,0,0,1-2.1-3.64c.78-2.28,2.42-.74,3.43-.39,4.55,1.54,9.12,2.67,14,2.34C565.23,259.92,566.85,261.79,567.71,265.55Z"
       transform="translate(-445.5 -121.26)"
       id="path29817" />
    <path
       class="cls-3"
       d="M574.16,272c-6.83,0-12.37,0-17.9,0a4.7,4.7,0,0,1-4.46-2.43,3.5,3.5,0,0,1-.37-2.26c.3-1.26,1.51-1.16,2.41-.89,4.49,1.35,9.07,1,13.6.67C570.87,266.85,571.47,269.59,574.16,272Z"
       transform="translate(-445.5 -121.26)"
       id="path29819" />
    <path
       class="cls-3"
       d="M632.93,258.43c1.11-4.31,3.19-6.18,6.65-6.94,3.91-.86,7.13-3.22,10.22-5.71.76-.61,1.64-1.38,2.61-.67,1.16.85.84,2.09.33,3.21-.24.54-.47,1.27-.92,1.49C645.83,252.8,640.73,257.82,632.93,258.43Z"
       transform="translate(-445.5 -121.26)"
       id="path29821" />
    <path
       class="cls-3"
       d="M564.72,257.86c-9-.3-20-8-20.05-14.16C550.38,250,559.23,250.22,564.72,257.86Z"
       transform="translate(-445.5 -121.26)"
       id="path29823" />
    <path
       class="cls-3"
       d="M644.76,205.25l-7.9,2.5c-2-4.94-1.47-10.27-4.51-15.75C638.92,195,641.25,200.16,644.76,205.25Z"
       transform="translate(-445.5 -121.26)"
       id="path29825" />
    <path
       class="cls-3"
       d="M623.69,272.33c1.58-4.09,3.88-5.63,7.55-5a31.55,31.55,0,0,0,10.57-.18c1.52-.23,3.42-1,3.78,1.35.31,2-1.25,2.67-3,2.77Z"
       transform="translate(-445.5 -121.26)"
       id="path29827" />
    <path
       class="cls-3"
       d="M553,204.7c3-5.25,5.67-10,11.59-13.19-.87,3.18-1.64,5.35-2.05,7.59C561.06,207,561.11,207,553,204.7Z"
       transform="translate(-445.5 -121.26)"
       id="path29829" />
    <path
       class="cls-3"
       d="M558.12,190.65c-3.54,3.71-5.79,6.93-6.75,10.83-.69,2.8-2.73,2.58-4.53,2-2.6-.84-.63-2.51-.16-3.65C548.55,195.24,551.7,192,558.12,190.65Z"
       transform="translate(-445.5 -121.26)"
       id="path29831" />
    <path
       class="cls-3"
       d="M640.12,192.05c6.93,1,10.19,5.52,12,12.11C643,204.73,646.1,193.91,640.12,192.05Z"
       transform="translate(-445.5 -121.26)"
       id="path29833" />
    <path
       class="cls-3"
       d="M666.94,243.79c-1.63,5-5.29,4.24-8.89,3.85-1.23-.13-2.42,0-2.38-1.74a2.45,2.45,0,0,1,1.92-2.61C660.72,242.35,663.8,241.91,666.94,243.79Z"
       transform="translate(-445.5 -121.26)"
       id="path29835" />
    <path
       class="cls-3"
       d="M519.81,272.33c.89-4.36,3.29-6.87,6.12-9.07a2.54,2.54,0,0,1,3.69.07c1.35,1.33.52,2.48-.41,3.56C526.88,269.59,524.24,271.76,519.81,272.33Z"
       transform="translate(-445.5 -121.26)"
       id="path29837" />
    <path
       class="cls-3"
       d="M536.48,274.56c1.58.35,2.56,1.22,1.87,2.9a16.08,16.08,0,0,1-7,7.66,1.23,1.23,0,0,1-1.88-.69C528.47,282.2,534.13,274.31,536.48,274.56Z"
       transform="translate(-445.5 -121.26)"
       id="path29839" />
    <path
       class="cls-3"
       d="M529.91,259.85a7.49,7.49,0,0,1,5.77-2.5c1.83,0,4.13-.95,5.2,1.42.42.93.66,2.56-.94,2.92-2.23.51-4.11,3.54-6.8,1C532.15,261.83,531.14,261,529.91,259.85Z"
       transform="translate(-445.5 -121.26)"
       id="path29841" />
    <path
       class="cls-3"
       d="M679.86,251.68c-4.47,1.21-7.52-.6-10.51-2.45-.92-.57-2.12-1.38-1.38-2.8a2.48,2.48,0,0,1,3.42-1.36C674.63,246.39,677.77,247.84,679.86,251.68Z"
       transform="translate(-445.5 -121.26)"
       id="path29843" />
    <path
       class="cls-3"
       d="M520.71,252.05c-1.39-.08-3.42.18-2.76-1.4,1.49-3.54,5-4.8,8.49-5.69,1.6-.41,3,1.17,2.65,2.33C527.74,251.35,523.75,251.22,520.71,252.05Z"
       transform="translate(-445.5 -121.26)"
       id="path29845" />
    <path
       class="cls-3"
       d="M677.24,272.39a20.29,20.29,0,0,1-9.38-6.14c-.7-.83-1.75-1.82-.43-3a2.31,2.31,0,0,1,3.18-.12C673.55,265.39,676.36,267.72,677.24,272.39Z"
       transform="translate(-445.5 -121.26)"
       id="path29847" />
    <path
       class="cls-3"
       d="M548.78,270.62c-1.61,2.06-4.19,3.14-6.64,3.82-1.08.3-4.31-.69-3.94-2.11.92-3.54,4.54-3.73,7.61-4.31C547.65,267.66,548.22,268.87,548.78,270.62Z"
       transform="translate(-445.5 -121.26)"
       id="path29849" />
    <path
       class="cls-3"
       d="M637.73,242.42c-.4-1.51-1.18-3-1.11-4.47a7,7,0,0,1,4.15-5.82,2.31,2.31,0,0,1,2.16.21c1.52,2.19-.23,4.07-1,5.93S640.17,241.78,637.73,242.42Z"
       transform="translate(-445.5 -121.26)"
       id="path29851" />
    <path
       class="cls-3"
       d="M524.62,229.85c-2.09-.54-5.93.47-5.61-1.79.51-3.65,4.91-3,7.8-3.63,2-.45,3.82.46,3.44,2.8C529.69,230.63,526.55,229.14,524.62,229.85Z"
       transform="translate(-445.5 -121.26)"
       id="path29853" />
    <path
       class="cls-3"
       d="M679.34,228.87c-3.86.76-6.91,1.13-10,.45-1.75-.38-2.11-1.56-2.08-3,0-2,1.4-2.16,2.86-1.79C673.17,225.27,676.71,225.14,679.34,228.87Z"
       transform="translate(-445.5 -121.26)"
       id="path29855" />
    <path
       class="cls-3"
       d="M658,230.5c-2,.46-3.89,0-3.56-1.92.6-3.46,3.85-4,6.71-4.48,1.12-.2,3-.88,2.66,1.61C663.35,229.17,661.15,230.6,658,230.5Z"
       transform="translate(-445.5 -121.26)"
       id="path29857" />
    <path
       class="cls-3"
       d="M659.07,272.24c-1,1.36-2.55,2.78-3.73,2.26-2.5-1.1-6-1.38-6.83-4.57-.34-1.25,1.37-2.34,3-2C654.39,268.57,657.14,269.53,659.07,272.24Z"
       transform="translate(-445.5 -121.26)"
       id="path29859" />
    <path
       class="cls-3"
       d="M539.91,230.73c-3.25-.79-6.52-.57-6.28-5,.11-2,1.17-1.77,2.26-1.51,2.87.69,6.13,1.43,6.93,4.62C543.24,230.5,541.25,231.28,539.91,230.73Z"
       transform="translate(-445.5 -121.26)"
       id="path29861" />
    <path
       class="cls-3"
       d="M559.72,242.46a7.49,7.49,0,0,1-4.15-4.18c-.75-2-2.16-4-1.51-6.17.3-1,2.1-1,2.58-.39,1.5,1.92,3.88,3.44,3.68,6.34C560.22,239.41,560,240.76,559.72,242.46Z"
       transform="translate(-445.5 -121.26)"
       id="path29863" />
    <path
       class="cls-3"
       d="M660.3,257.46c2.17.62,5.24.27,5.77,3.39.12.71-1.72,3.13-3.27,2.46-2.36-1-6.14-.4-6.85-3.3C655.39,257.73,658,257.1,660.3,257.46Z"
       transform="translate(-445.5 -121.26)"
       id="path29865" />
    <path
       class="cls-3"
       d="M668,285.53a15.31,15.31,0,0,1-8.16-6.8c-.74-1.21-1.76-2.47-.43-3.68s2.54,0,3.49,1A16.55,16.55,0,0,1,668,285.53Z"
       transform="translate(-445.5 -121.26)"
       id="path29867" />
    <path
       class="cls-3"
       d="M530.29,242.28a30.59,30.59,0,0,1,4.57,0c2.41.45,5.36.17,6.27,3.29.32,1.11-.68,1.72-1.81,1.74-2.73.05-6,1.86-7.45-2.29A23.12,23.12,0,0,0,530.29,242.28Z"
       transform="translate(-445.5 -121.26)"
       id="path29869" />
    <path
       class="cls-3"
       d="M644.81,238.69c.78-2.43,1.3-5,3.29-6.83.94-.88,1.61-2.94,3.12-1.91a3.38,3.38,0,0,1,.46,4.81c-1.58,2-3.78,3.44-5.71,5.13C644.91,240.15,644.3,240,644.81,238.69Z"
       transform="translate(-445.5 -121.26)"
       id="path29871" />
    <path
       class="cls-3"
       d="M551.56,240c-2.58-3.11-8.68-4.39-5.58-10.71,4.24,2.47,5.48,6.64,7,10.63Q552.31,240.84,551.56,240Z"
       transform="translate(-445.5 -121.26)"
       id="path29873" />
    <path
       class="cls-3"
       d="M644.81,238.69l1.17,1.2c-2.63,3.31-5.24,6.64-9.58,9.41C637,243.27,643.31,242.89,644.81,238.69Z"
       transform="translate(-445.5 -121.26)"
       id="path29875" />
    <path
       class="cls-3"
       d="M529.74,296c-2.61-2.54-2.31-5.52-1.53-9C531.85,289.72,529.33,293.07,529.74,296Z"
       transform="translate(-445.5 -121.26)"
       id="path29877" />
    <path
       class="cls-3"
       d="M516.52,281.83c-1.44-3.35,0-6,2-8.91C520.87,276.86,517.25,279,516.52,281.83Z"
       transform="translate(-445.5 -121.26)"
       id="path29879" />
    <path
       class="cls-3"
       d="M670.61,295.08c1.44-3.35,0-6-2-8.91C666.26,290.11,669.88,292.24,670.61,295.08Z"
       transform="translate(-445.5 -121.26)"
       id="path29881" />
    <path
       class="cls-3"
       d="M680.45,281.82c1.44-3.35,0-6-2-8.91C676.1,276.85,679.71,279,680.45,281.82Z"
       transform="translate(-445.5 -121.26)"
       id="path29883" />
    <path
       class="cls-3"
       d="M683.45,261.12c1.44-3.35,0-6-2-8.91C679.11,256.15,682.72,258.28,683.45,261.12Z"
       transform="translate(-445.5 -121.26)"
       id="path29885" />
    <path
       class="cls-3"
       d="M551.56,240l1.41-.08c2,2.75,5.83,3.9,7,7.45C556.24,245.9,553.77,243.08,551.56,240Z"
       transform="translate(-445.5 -121.26)"
       id="path29887" />
    <path
       class="cls-3"
       d="M686.38,235.62c-2.06-1.58-4.8-2.68-5.62-6.39C684.36,230.24,685.21,233.06,686.38,235.62Z"
       transform="translate(-445.5 -121.26)"
       id="path29889" />
    <path
       class="cls-3"
       d="M515.77,252c.38,4.61-1.24,6.93-3.31,9.73C512.16,258.08,513.21,255.54,515.77,252Z"
       transform="translate(-445.5 -121.26)"
       id="path29891" />
    <path
       class="cls-3"
       d="M511.34,235.58a8,8,0,0,1,4.32-6.4C516,232.82,513.25,234,511.34,235.58Z"
       transform="translate(-445.5 -121.26)"
       id="path29893" />
    <path
       class="cls-3"
       d="M583.57,215c0,1.84-1.28,2.12-3.11,2.12s-1.74-.65-1.74-2.49.4-1.87,2.24-1.87S583.57,213.17,583.57,215Z"
       transform="translate(-445.5 -121.26)"
       id="path29895" />
    <path
       class="cls-3"
       d="M613.07,215c0,1.84-.47,2.12-2.3,2.12s-2.3.34-2.3-1.49.56-3.57,2.39-3.57S613.07,213.17,613.07,215Z"
       transform="translate(-445.5 -121.26)"
       id="path29897" />
    <path
       class="cls-3"
       d="M774.79,225.31A64.9,64.9,0,0,1,798.07,229c8.83,3,12.55,7.42,10.52,16.33-5.6,24.51-19.5,36.58-44.89,30.48a19.84,19.84,0,0,1-13.26-10.18c-3-5.58-6.26-11.05-7.84-17.25-2.13-8.32.85-14.84,8.39-18.91C756.63,226.42,762.83,225.3,774.79,225.31Z"
       transform="translate(-445.5 -121.26)"
       id="path29899" />
    <path
       class="cls-3"
       d="M736.53,218.8a31.17,31.17,0,0,1,.24,4.48c-.12,2,1.63,5.12-.81,5.64-3.16.68-7.1,1.73-9.66-2.22a33.6,33.6,0,0,1-5.45-15.47c-.43-4.64,1.74-5.35,5.59-4.68C735.41,208.11,737.12,210,736.53,218.8Z"
       transform="translate(-445.5 -121.26)"
       id="path29901" />
    <path
       class="cls-3"
       d="M830.47,211.45c-.31,5.63-2.13,9.92-4.21,14.23-2.26,4.68-6.17,4.13-10.1,4-2.17-.08-1.75-1.62-1.7-3,.1-2.57.26-5.14.2-7.7-.18-8.26,2-10.61,10.49-11.63C829.05,206.89,831.47,207.6,830.47,211.45Z"
       transform="translate(-445.5 -121.26)"
       id="path29903" />
    <path
       class="cls-3"
       d="M806.34,265c.43-3.82,2.54-5,6.08-5.08a42.27,42.27,0,0,0,14-2.43c1.22-.44,2.76-1.75,3.51.16.68,1.72-.9,3.17-2.22,3.76-5.45,2.42-11.35,3.17-17.2,4A17.88,17.88,0,0,1,806.34,265Z"
       transform="translate(-445.5 -121.26)"
       id="path29905" />
    <path
       class="cls-3"
       d="M744.61,265.55c-7.52.06-14.22-2.54-21.11-3.7a2.62,2.62,0,0,1-2.1-3.64c.78-2.28,2.42-.74,3.43-.39,4.55,1.54,9.12,2.67,14,2.34C742.14,259.92,743.75,261.79,744.61,265.55Z"
       transform="translate(-445.5 -121.26)"
       id="path29907" />
    <path
       class="cls-3"
       d="M751.06,272c-6.83,0-12.37,0-17.9,0a4.7,4.7,0,0,1-4.46-2.43,3.5,3.5,0,0,1-.37-2.26c.3-1.26,1.51-1.16,2.41-.89,4.49,1.35,9.07,1,13.6.67C747.77,266.85,748.37,269.59,751.06,272Z"
       transform="translate(-445.5 -121.26)"
       id="path29909" />
    <path
       class="cls-3"
       d="M809.83,258.43c1.11-4.31,3.19-6.18,6.65-6.94,3.91-.86,7.13-3.22,10.22-5.71.76-.61,1.64-1.38,2.61-.67,1.16.85.84,2.09.33,3.21-.24.54-.47,1.27-.92,1.49C822.74,252.8,817.63,257.82,809.83,258.43Z"
       transform="translate(-445.5 -121.26)"
       id="path29911" />
    <path
       class="cls-3"
       d="M741.62,257.86c-9-.3-20-8-20.05-14.16C727.28,250,736.13,250.22,741.62,257.86Z"
       transform="translate(-445.5 -121.26)"
       id="path29913" />
    <path
       class="cls-3"
       d="M821.66,205.25l-7.9,2.5c-2-4.94-1.47-10.27-4.51-15.75C815.82,195,818.15,200.16,821.66,205.25Z"
       transform="translate(-445.5 -121.26)"
       id="path29915" />
    <path
       class="cls-3"
       d="M800.59,272.33c1.58-4.09,3.88-5.63,7.55-5a31.55,31.55,0,0,0,10.57-.18c1.52-.23,3.42-1,3.78,1.35.31,2-1.25,2.67-3,2.77Z"
       transform="translate(-445.5 -121.26)"
       id="path29917" />
    <path
       class="cls-3"
       d="M729.89,204.7c3-5.25,5.67-10,11.59-13.19-.87,3.18-1.64,5.35-2.05,7.59C738,207,738,207,729.89,204.7Z"
       transform="translate(-445.5 -121.26)"
       id="path29919" />
    <path
       class="cls-3"
       d="M735,190.65c-3.54,3.71-5.79,6.93-6.75,10.83-.69,2.8-2.73,2.58-4.53,2-2.6-.84-.63-2.51-.16-3.65C725.46,195.24,728.6,192,735,190.65Z"
       transform="translate(-445.5 -121.26)"
       id="path29921" />
    <path
       class="cls-3"
       d="M817,192.05c6.93,1,10.19,5.52,12,12.11C819.88,204.73,823,193.91,817,192.05Z"
       transform="translate(-445.5 -121.26)"
       id="path29923" />
    <path
       class="cls-3"
       d="M843.85,243.79c-1.63,5-5.29,4.24-8.89,3.85-1.23-.13-2.42,0-2.38-1.74a2.45,2.45,0,0,1,1.92-2.61C837.62,242.35,840.7,241.91,843.85,243.79Z"
       transform="translate(-445.5 -121.26)"
       id="path29925" />
    <path
       class="cls-3"
       d="M696.71,272.33c.89-4.36,3.29-6.87,6.12-9.07a2.54,2.54,0,0,1,3.69.07c1.35,1.33.52,2.48-.41,3.56C703.78,269.59,701.14,271.76,696.71,272.33Z"
       transform="translate(-445.5 -121.26)"
       id="path29927" />
    <path
       class="cls-3"
       d="M713.38,274.56c1.58.35,2.56,1.22,1.87,2.9a16.08,16.08,0,0,1-7,7.66,1.23,1.23,0,0,1-1.88-.69C705.38,282.2,711,274.31,713.38,274.56Z"
       transform="translate(-445.5 -121.26)"
       id="path29929" />
    <path
       class="cls-3"
       d="M706.81,259.85a7.49,7.49,0,0,1,5.77-2.5c1.83,0,4.13-.95,5.2,1.42.42.93.66,2.56-.94,2.92-2.23.51-4.11,3.54-6.8,1C709.06,261.83,708,261,706.81,259.85Z"
       transform="translate(-445.5 -121.26)"
       id="path29931" />
    <path
       class="cls-3"
       d="M856.76,251.68c-4.47,1.21-7.52-.6-10.51-2.45-.92-.57-2.12-1.38-1.38-2.8a2.48,2.48,0,0,1,3.42-1.36C851.54,246.39,854.68,247.84,856.76,251.68Z"
       transform="translate(-445.5 -121.26)"
       id="path29933" />
    <path
       class="cls-3"
       d="M697.61,252.05c-1.39-.08-3.42.18-2.76-1.4,1.49-3.54,5-4.8,8.49-5.69,1.6-.41,3,1.17,2.65,2.33C704.64,251.35,700.65,251.22,697.61,252.05Z"
       transform="translate(-445.5 -121.26)"
       id="path29935" />
    <path
       class="cls-3"
       d="M854.14,272.39a20.29,20.29,0,0,1-9.38-6.14c-.7-.83-1.75-1.82-.43-3a2.31,2.31,0,0,1,3.18-.12C850.45,265.39,853.26,267.72,854.14,272.39Z"
       transform="translate(-445.5 -121.26)"
       id="path29937" />
    <path
       class="cls-3"
       d="M725.68,270.62c-1.61,2.06-4.19,3.14-6.64,3.82-1.08.3-4.31-.69-3.94-2.11.92-3.54,4.54-3.73,7.61-4.31C724.56,267.66,725.12,268.87,725.68,270.62Z"
       transform="translate(-445.5 -121.26)"
       id="path29939" />
    <path
       class="cls-3"
       d="M814.64,242.42c-.4-1.51-1.18-3-1.11-4.47a7,7,0,0,1,4.15-5.82,2.31,2.31,0,0,1,2.16.21c1.52,2.19-.23,4.07-1,5.93S817.07,241.78,814.64,242.42Z"
       transform="translate(-445.5 -121.26)"
       id="path29941" />
    <path
       class="cls-3"
       d="M701.53,229.85c-2.09-.54-5.93.47-5.61-1.79.51-3.65,4.91-3,7.8-3.63,2-.45,3.82.46,3.44,2.8C706.6,230.63,703.46,229.14,701.53,229.85Z"
       transform="translate(-445.5 -121.26)"
       id="path29943" />
    <path
       class="cls-3"
       d="M856.24,228.87c-3.86.76-6.91,1.13-10,.45-1.75-.38-2.11-1.56-2.08-3,0-2,1.4-2.16,2.86-1.79C850.08,225.27,853.62,225.14,856.24,228.87Z"
       transform="translate(-445.5 -121.26)"
       id="path29945" />
    <path
       class="cls-3"
       d="M834.93,230.5c-2,.46-3.89,0-3.56-1.92.6-3.46,3.85-4,6.71-4.48,1.12-.2,3-.88,2.66,1.61C840.25,229.17,838.05,230.6,834.93,230.5Z"
       transform="translate(-445.5 -121.26)"
       id="path29947" />
    <path
       class="cls-3"
       d="M836,272.24c-1,1.36-2.55,2.78-3.73,2.26-2.5-1.1-6-1.38-6.83-4.57-.34-1.25,1.37-2.34,3-2C831.3,268.57,834,269.53,836,272.24Z"
       transform="translate(-445.5 -121.26)"
       id="path29949" />
    <path
       class="cls-3"
       d="M716.81,230.73c-3.25-.79-6.52-.57-6.28-5,.11-2,1.17-1.77,2.26-1.51,2.87.69,6.13,1.43,6.93,4.62C720.14,230.5,718.15,231.28,716.81,230.73Z"
       transform="translate(-445.5 -121.26)"
       id="path29951" />
    <path
       class="cls-3"
       d="M736.63,242.46a7.49,7.49,0,0,1-4.15-4.18c-.75-2-2.16-4-1.51-6.17.3-1,2.1-1,2.58-.39,1.5,1.92,3.88,3.44,3.68,6.34C737.13,239.41,736.86,240.76,736.63,242.46Z"
       transform="translate(-445.5 -121.26)"
       id="path29953" />
    <path
       class="cls-3"
       d="M837.2,257.46c2.17.62,5.24.27,5.77,3.39.12.71-1.72,3.13-3.27,2.46-2.36-1-6.14-.4-6.85-3.3C832.29,257.73,834.87,257.1,837.2,257.46Z"
       transform="translate(-445.5 -121.26)"
       id="path29955" />
    <path
       class="cls-3"
       d="M844.91,285.53a15.31,15.31,0,0,1-8.16-6.8c-.74-1.21-1.76-2.47-.43-3.68s2.54,0,3.49,1A16.55,16.55,0,0,1,844.91,285.53Z"
       transform="translate(-445.5 -121.26)"
       id="path29957" />
    <path
       class="cls-3"
       d="M707.19,242.28a30.59,30.59,0,0,1,4.57,0c2.41.45,5.36.17,6.27,3.29.32,1.11-.68,1.72-1.81,1.74-2.73.05-6,1.86-7.45-2.29A23.12,23.12,0,0,0,707.19,242.28Z"
       transform="translate(-445.5 -121.26)"
       id="path29959" />
    <path
       class="cls-3"
       d="M821.71,238.69c.78-2.43,1.3-5,3.29-6.83.94-.88,1.61-2.94,3.12-1.91a3.38,3.38,0,0,1,.46,4.81c-1.58,2-3.78,3.44-5.71,5.13C821.81,240.15,821.2,240,821.71,238.69Z"
       transform="translate(-445.5 -121.26)"
       id="path29961" />
    <path
       class="cls-3"
       d="M728.46,240c-2.58-3.11-8.68-4.39-5.58-10.71,4.24,2.47,5.48,6.64,7,10.63Q729.22,240.84,728.46,240Z"
       transform="translate(-445.5 -121.26)"
       id="path29963" />
    <path
       class="cls-3"
       d="M821.71,238.69l1.17,1.2c-2.63,3.31-5.24,6.64-9.58,9.41C813.94,243.27,820.21,242.89,821.71,238.69Z"
       transform="translate(-445.5 -121.26)"
       id="path29965" />
    <path
       class="cls-3"
       d="M706.65,296c-2.61-2.54-2.31-5.52-1.53-9C708.76,289.72,706.24,293.07,706.65,296Z"
       transform="translate(-445.5 -121.26)"
       id="path29967" />
    <path
       class="cls-3"
       d="M693.42,281.83c-1.44-3.35,0-6,2-8.91C697.77,276.86,694.16,279,693.42,281.83Z"
       transform="translate(-445.5 -121.26)"
       id="path29969" />
    <path
       class="cls-3"
       d="M847.51,295.08c1.44-3.35,0-6-2-8.91C843.16,290.11,846.78,292.24,847.51,295.08Z"
       transform="translate(-445.5 -121.26)"
       id="path29971" />
    <path
       class="cls-3"
       d="M857.35,281.82c1.44-3.35,0-6-2-8.91C853,276.85,856.62,279,857.35,281.82Z"
       transform="translate(-445.5 -121.26)"
       id="path29973" />
    <path
       class="cls-3"
       d="M860.35,261.12c1.44-3.35,0-6-2-8.91C856,256.15,859.62,258.28,860.35,261.12Z"
       transform="translate(-445.5 -121.26)"
       id="path29975" />
    <path
       class="cls-3"
       d="M728.46,240l1.41-.08c2,2.75,5.83,3.9,7,7.45C733.14,245.9,730.68,243.08,728.46,240Z"
       transform="translate(-445.5 -121.26)"
       id="path29977" />
    <path
       class="cls-3"
       d="M863.28,235.62c-2.06-1.58-4.8-2.68-5.62-6.39C861.26,230.24,862.11,233.06,863.28,235.62Z"
       transform="translate(-445.5 -121.26)"
       id="path29979" />
    <path
       class="cls-3"
       d="M692.67,252c.38,4.61-1.24,6.93-3.31,9.73C689.06,258.08,690.11,255.54,692.67,252Z"
       transform="translate(-445.5 -121.26)"
       id="path29981" />
    <path
       class="cls-3"
       d="M688.24,235.58a8,8,0,0,1,4.32-6.4C692.9,232.82,690.16,234,688.24,235.58Z"
       transform="translate(-445.5 -121.26)"
       id="path29983" />
    <path
       class="cls-3"
       d="M760.47,215c0,1.84-1.28,2.12-3.11,2.12s-1.74-.65-1.74-2.49.4-1.87,2.24-1.87S760.47,213.17,760.47,215Z"
       transform="translate(-445.5 -121.26)"
       id="path29985" />
    <path
       class="cls-3"
       d="M790,215c0,1.84-.47,2.12-2.3,2.12s-2.3.34-2.3-1.49.56-3.57,2.39-3.57S790,213.17,790,215Z"
       transform="translate(-445.5 -121.26)"
       id="path29987" />
    <path
       class="cls-3"
       d="M597.88,349.82a64.9,64.9,0,0,1,23.28,3.68c8.83,3,12.55,7.42,10.52,16.33-5.6,24.51-19.5,36.58-44.89,30.48a19.84,19.84,0,0,1-13.26-10.18c-3-5.58-6.26-11.05-7.84-17.25-2.13-8.32.85-14.84,8.39-18.91C579.73,350.93,585.93,349.81,597.88,349.82Z"
       transform="translate(-445.5 -121.26)"
       id="path29989" />
    <path
       class="cls-3"
       d="M559.63,343.31a31.17,31.17,0,0,1,.24,4.48c-.12,2,1.63,5.12-.81,5.64-3.16.68-7.1,1.73-9.66-2.22a33.6,33.6,0,0,1-5.45-15.47c-.43-4.64,1.74-5.35,5.59-4.68C558.5,332.62,560.22,334.48,559.63,343.31Z"
       transform="translate(-445.5 -121.26)"
       id="path29991" />
    <path
       class="cls-3"
       d="M653.57,336c-.31,5.63-2.13,9.92-4.21,14.23-2.26,4.68-6.17,4.13-10.1,4-2.17-.08-1.75-1.62-1.7-3,.1-2.57.26-5.14.2-7.7-.18-8.26,2-10.61,10.49-11.63C652.15,331.4,654.57,332.11,653.57,336Z"
       transform="translate(-445.5 -121.26)"
       id="path29993" />
    <path
       class="cls-3"
       d="M629.44,389.52c.43-3.82,2.54-5,6.08-5.08a42.27,42.27,0,0,0,14-2.43c1.22-.44,2.76-1.75,3.51.16.68,1.72-.9,3.17-2.22,3.76-5.45,2.42-11.35,3.17-17.2,4A17.88,17.88,0,0,1,629.44,389.52Z"
       transform="translate(-445.5 -121.26)"
       id="path29995" />
    <path
       class="cls-3"
       d="M567.71,390.06c-7.52.06-14.22-2.54-21.11-3.7a2.62,2.62,0,0,1-2.1-3.64c.78-2.28,2.42-.74,3.43-.39,4.55,1.54,9.12,2.67,14,2.34C565.23,384.43,566.85,386.3,567.71,390.06Z"
       transform="translate(-445.5 -121.26)"
       id="path29997" />
    <path
       class="cls-3"
       d="M574.16,396.55c-6.83,0-12.37,0-17.9,0a4.7,4.7,0,0,1-4.46-2.43,3.5,3.5,0,0,1-.37-2.26c.3-1.26,1.51-1.16,2.41-.89,4.49,1.35,9.07,1,13.6.67C570.87,391.37,571.47,394.1,574.16,396.55Z"
       transform="translate(-445.5 -121.26)"
       id="path29999" />
    <path
       class="cls-3"
       d="M632.93,382.94c1.11-4.31,3.19-6.18,6.65-6.94,3.91-.86,7.13-3.22,10.22-5.71.76-.61,1.64-1.38,2.61-.67,1.16.85.84,2.09.33,3.21-.24.54-.47,1.27-.92,1.49C645.83,377.31,640.73,382.33,632.93,382.94Z"
       transform="translate(-445.5 -121.26)"
       id="path30001" />
    <path
       class="cls-3"
       d="M564.72,382.37c-9-.3-20-8-20.05-14.16C550.38,374.54,559.23,374.73,564.72,382.37Z"
       transform="translate(-445.5 -121.26)"
       id="path30003" />
    <path
       class="cls-3"
       d="M644.76,329.76l-7.9,2.5c-2-4.94-1.47-10.27-4.51-15.75C638.92,319.53,641.25,324.67,644.76,329.76Z"
       transform="translate(-445.5 -121.26)"
       id="path30005" />
    <path
       class="cls-3"
       d="M623.69,396.84c1.58-4.09,3.88-5.63,7.55-5a31.55,31.55,0,0,0,10.57-.18c1.52-.23,3.42-1,3.78,1.35.31,2-1.25,2.67-3,2.77Z"
       transform="translate(-445.5 -121.26)"
       id="path30007" />
    <path
       class="cls-3"
       d="M553,329.21c3-5.25,5.67-10,11.59-13.19-.87,3.18-1.64,5.35-2.05,7.59C561.06,331.48,561.11,331.49,553,329.21Z"
       transform="translate(-445.5 -121.26)"
       id="path30009" />
    <path
       class="cls-3"
       d="M558.12,315.16c-3.54,3.71-5.79,6.93-6.75,10.83-.69,2.8-2.73,2.58-4.53,2-2.6-.84-.63-2.51-.16-3.65C548.55,319.75,551.7,316.53,558.12,315.16Z"
       transform="translate(-445.5 -121.26)"
       id="path30011" />
    <path
       class="cls-3"
       d="M640.12,316.56c6.93,1,10.19,5.52,12,12.11C643,329.24,646.1,318.42,640.12,316.56Z"
       transform="translate(-445.5 -121.26)"
       id="path30013" />
    <path
       class="cls-3"
       d="M666.94,368.3c-1.63,5-5.29,4.24-8.89,3.85-1.23-.13-2.42,0-2.38-1.74a2.45,2.45,0,0,1,1.92-2.61C660.72,366.86,663.8,366.42,666.94,368.3Z"
       transform="translate(-445.5 -121.26)"
       id="path30015" />
    <path
       class="cls-3"
       d="M519.81,396.84c.89-4.36,3.29-6.87,6.12-9.07a2.54,2.54,0,0,1,3.69.07c1.35,1.33.52,2.48-.41,3.56C526.88,394.1,524.24,396.27,519.81,396.84Z"
       transform="translate(-445.5 -121.26)"
       id="path30017" />
    <path
       class="cls-3"
       d="M536.48,399.07c1.58.35,2.56,1.22,1.87,2.9a16.08,16.08,0,0,1-7,7.66,1.23,1.23,0,0,1-1.88-.69C528.47,406.71,534.13,398.82,536.48,399.07Z"
       transform="translate(-445.5 -121.26)"
       id="path30019" />
    <path
       class="cls-3"
       d="M529.91,384.37a7.49,7.49,0,0,1,5.77-2.5c1.83,0,4.13-.95,5.2,1.42.42.93.66,2.56-.94,2.92-2.23.51-4.11,3.54-6.8,1C532.15,386.35,531.14,385.47,529.91,384.37Z"
       transform="translate(-445.5 -121.26)"
       id="path30021" />
    <path
       class="cls-3"
       d="M679.86,376.19c-4.47,1.21-7.52-.6-10.51-2.45-.92-.57-2.12-1.38-1.38-2.8a2.48,2.48,0,0,1,3.42-1.36C674.63,370.9,677.77,372.35,679.86,376.19Z"
       transform="translate(-445.5 -121.26)"
       id="path30023" />
    <path
       class="cls-3"
       d="M520.71,376.57c-1.39-.08-3.42.18-2.76-1.4,1.49-3.54,5-4.8,8.49-5.69,1.6-.41,3,1.17,2.65,2.33C527.74,375.86,523.75,375.73,520.71,376.57Z"
       transform="translate(-445.5 -121.26)"
       id="path30025" />
    <path
       class="cls-3"
       d="M677.24,396.9a20.29,20.29,0,0,1-9.38-6.14c-.7-.83-1.75-1.82-.43-3a2.31,2.31,0,0,1,3.18-.12C673.55,389.9,676.36,392.24,677.24,396.9Z"
       transform="translate(-445.5 -121.26)"
       id="path30027" />
    <path
       class="cls-3"
       d="M548.78,395.13c-1.61,2.06-4.19,3.14-6.64,3.82-1.08.3-4.31-.69-3.94-2.11.92-3.54,4.54-3.73,7.61-4.31C547.65,392.18,548.22,393.38,548.78,395.13Z"
       transform="translate(-445.5 -121.26)"
       id="path30029" />
    <path
       class="cls-3"
       d="M637.73,366.93c-.4-1.51-1.18-3-1.11-4.47a7,7,0,0,1,4.15-5.82,2.31,2.31,0,0,1,2.16.21c1.52,2.19-.23,4.07-1,5.93S640.17,366.29,637.73,366.93Z"
       transform="translate(-445.5 -121.26)"
       id="path30031" />
    <path
       class="cls-3"
       d="M524.62,354.36c-2.09-.54-5.93.47-5.61-1.79.51-3.65,4.91-3,7.8-3.63,2-.45,3.82.46,3.44,2.8C529.69,355.14,526.55,353.65,524.62,354.36Z"
       transform="translate(-445.5 -121.26)"
       id="path30033" />
    <path
       class="cls-3"
       d="M679.34,353.38c-3.86.76-6.91,1.13-10,.45-1.75-.38-2.11-1.56-2.08-3,0-2,1.4-2.16,2.86-1.79C673.17,349.78,676.71,349.65,679.34,353.38Z"
       transform="translate(-445.5 -121.26)"
       id="path30035" />
    <path
       class="cls-3"
       d="M658,355c-2,.46-3.89,0-3.56-1.92.6-3.46,3.85-4,6.71-4.48,1.12-.2,3-.88,2.66,1.61C663.35,353.68,661.15,355.11,658,355Z"
       transform="translate(-445.5 -121.26)"
       id="path30037" />
    <path
       class="cls-3"
       d="M659.07,396.75c-1,1.36-2.55,2.78-3.73,2.26-2.5-1.1-6-1.38-6.83-4.57-.34-1.25,1.37-2.34,3-2C654.39,393.08,657.14,394,659.07,396.75Z"
       transform="translate(-445.5 -121.26)"
       id="path30039" />
    <path
       class="cls-3"
       d="M539.91,355.24c-3.25-.79-6.52-.57-6.28-5,.11-2,1.17-1.77,2.26-1.51,2.87.69,6.13,1.43,6.93,4.62C543.24,355,541.25,355.79,539.91,355.24Z"
       transform="translate(-445.5 -121.26)"
       id="path30041" />
    <path
       class="cls-3"
       d="M559.72,367a7.49,7.49,0,0,1-4.15-4.18c-.75-2-2.16-4-1.51-6.17.3-1,2.1-1,2.58-.39,1.5,1.92,3.88,3.44,3.68,6.34C560.22,363.92,560,365.27,559.72,367Z"
       transform="translate(-445.5 -121.26)"
       id="path30043" />
    <path
       class="cls-3"
       d="M660.3,382c2.17.62,5.24.27,5.77,3.39.12.71-1.72,3.13-3.27,2.46-2.36-1-6.14-.4-6.85-3.3C655.39,382.25,658,381.61,660.3,382Z"
       transform="translate(-445.5 -121.26)"
       id="path30045" />
    <path
       class="cls-3"
       d="M668,410a15.31,15.31,0,0,1-8.16-6.8c-.74-1.21-1.76-2.47-.43-3.68s2.54,0,3.49,1A16.55,16.55,0,0,1,668,410Z"
       transform="translate(-445.5 -121.26)"
       id="path30047" />
    <path
       class="cls-3"
       d="M530.29,366.79a30.59,30.59,0,0,1,4.57,0c2.41.45,5.36.17,6.27,3.29.32,1.11-.68,1.72-1.81,1.74-2.73.05-6,1.86-7.45-2.29A23.12,23.12,0,0,0,530.29,366.79Z"
       transform="translate(-445.5 -121.26)"
       id="path30049" />
    <path
       class="cls-3"
       d="M644.81,363.2c.78-2.43,1.3-5,3.29-6.83.94-.88,1.61-2.94,3.12-1.91a3.38,3.38,0,0,1,.46,4.81c-1.58,2-3.78,3.44-5.71,5.13C644.91,364.66,644.3,364.48,644.81,363.2Z"
       transform="translate(-445.5 -121.26)"
       id="path30051" />
    <path
       class="cls-3"
       d="M551.56,364.51c-2.58-3.11-8.68-4.39-5.58-10.71,4.24,2.47,5.48,6.64,7,10.63Q552.31,365.35,551.56,364.51Z"
       transform="translate(-445.5 -121.26)"
       id="path30053" />
    <path
       class="cls-3"
       d="M644.81,363.2l1.17,1.2c-2.63,3.31-5.24,6.64-9.58,9.41C637,367.78,643.31,367.4,644.81,363.2Z"
       transform="translate(-445.5 -121.26)"
       id="path30055" />
    <path
       class="cls-3"
       d="M529.74,420.48c-2.61-2.54-2.31-5.52-1.53-9C531.85,414.23,529.33,417.58,529.74,420.48Z"
       transform="translate(-445.5 -121.26)"
       id="path30057" />
    <path
       class="cls-3"
       d="M516.52,406.34c-1.44-3.35,0-6,2-8.91C520.87,401.37,517.25,403.5,516.52,406.34Z"
       transform="translate(-445.5 -121.26)"
       id="path30059" />
    <path
       class="cls-3"
       d="M670.61,419.59c1.44-3.35,0-6-2-8.91C666.26,414.62,669.88,416.75,670.61,419.59Z"
       transform="translate(-445.5 -121.26)"
       id="path30061" />
    <path
       class="cls-3"
       d="M680.45,406.33c1.44-3.35,0-6-2-8.91C676.1,401.36,679.71,403.49,680.45,406.33Z"
       transform="translate(-445.5 -121.26)"
       id="path30063" />
    <path
       class="cls-3"
       d="M683.45,385.63c1.44-3.35,0-6-2-8.91C679.11,380.66,682.72,382.79,683.45,385.63Z"
       transform="translate(-445.5 -121.26)"
       id="path30065" />
    <path
       class="cls-3"
       d="M551.56,364.51l1.41-.08c2,2.75,5.83,3.9,7,7.45C556.24,370.41,553.77,367.59,551.56,364.51Z"
       transform="translate(-445.5 -121.26)"
       id="path30067" />
    <path
       class="cls-3"
       d="M686.38,360.13c-2.06-1.58-4.8-2.68-5.62-6.39C684.36,354.76,685.21,357.57,686.38,360.13Z"
       transform="translate(-445.5 -121.26)"
       id="path30069" />
    <path
       class="cls-3"
       d="M515.77,376.46c.38,4.61-1.24,6.93-3.31,9.73C512.16,382.59,513.21,380.05,515.77,376.46Z"
       transform="translate(-445.5 -121.26)"
       id="path30071" />
    <path
       class="cls-3"
       d="M511.34,360.09a8,8,0,0,1,4.32-6.4C516,357.33,513.25,358.49,511.34,360.09Z"
       transform="translate(-445.5 -121.26)"
       id="path30073" />
    <path
       class="cls-3"
       d="M583.57,339.51c0,1.84-1.28,2.12-3.11,2.12s-1.74-.65-1.74-2.49.4-1.87,2.24-1.87S583.57,337.68,583.57,339.51Z"
       transform="translate(-445.5 -121.26)"
       id="path30075" />
    <path
       class="cls-3"
       d="M613.07,339.51c0,1.84-.47,2.12-2.3,2.12s-2.3.34-2.3-1.49.56-3.57,2.39-3.57S613.07,337.68,613.07,339.51Z"
       transform="translate(-445.5 -121.26)"
       id="path30077" />
    <path
       class="cls-3"
       d="M687.27,474.33A64.9,64.9,0,0,1,710.55,478c8.83,3,12.55,7.42,10.52,16.33-5.6,24.51-19.5,36.58-44.89,30.48a19.84,19.84,0,0,1-13.26-10.18c-3-5.58-6.26-11.05-7.84-17.25-2.13-8.32.85-14.84,8.39-18.91C669.11,475.44,675.31,474.33,687.27,474.33Z"
       transform="translate(-445.5 -121.26)"
       id="path30079" />
    <path
       class="cls-3"
       d="M649,467.82a31.17,31.17,0,0,1,.24,4.48c-.12,2,1.63,5.12-.81,5.64-3.16.68-7.1,1.73-9.66-2.22a33.6,33.6,0,0,1-5.45-15.47c-.43-4.64,1.74-5.35,5.59-4.68C647.88,457.13,649.6,459,649,467.82Z"
       transform="translate(-445.5 -121.26)"
       id="path30081" />
    <path
       class="cls-3"
       d="M743,460.48c-.31,5.63-2.13,9.92-4.21,14.23-2.26,4.68-6.17,4.13-10.1,4-2.17-.08-1.75-1.62-1.7-3,.1-2.57.26-5.14.2-7.7-.18-8.26,2-10.61,10.49-11.63C741.53,455.91,743.95,456.62,743,460.48Z"
       transform="translate(-445.5 -121.26)"
       id="path30083" />
    <path
       class="cls-3"
       d="M718.82,514c.43-3.82,2.54-5,6.08-5.08a42.27,42.27,0,0,0,14-2.43c1.22-.44,2.76-1.75,3.51.16.68,1.72-.9,3.17-2.22,3.76-5.45,2.42-11.35,3.17-17.2,4A17.88,17.88,0,0,1,718.82,514Z"
       transform="translate(-445.5 -121.26)"
       id="path30085" />
    <path
       class="cls-3"
       d="M657.09,514.57c-7.52.06-14.22-2.54-21.11-3.7a2.62,2.62,0,0,1-2.1-3.64c.78-2.28,2.42-.74,3.43-.39,4.55,1.54,9.12,2.67,14,2.34C654.62,508.95,656.23,510.81,657.09,514.57Z"
       transform="translate(-445.5 -121.26)"
       id="path30087" />
    <path
       class="cls-3"
       d="M663.54,521.06c-6.83,0-12.37,0-17.9,0a4.7,4.7,0,0,1-4.46-2.43,3.5,3.5,0,0,1-.37-2.26c.3-1.26,1.51-1.16,2.41-.89,4.49,1.35,9.07,1,13.6.67C660.25,515.88,660.85,518.61,663.54,521.06Z"
       transform="translate(-445.5 -121.26)"
       id="path30089" />
    <path
       class="cls-3"
       d="M722.31,507.45c1.11-4.31,3.19-6.18,6.65-6.94,3.91-.86,7.13-3.22,10.22-5.71.76-.61,1.64-1.38,2.61-.67,1.16.85.84,2.09.33,3.21-.24.54-.47,1.27-.92,1.49C735.21,501.82,730.11,506.84,722.31,507.45Z"
       transform="translate(-445.5 -121.26)"
       id="path30091" />
    <path
       class="cls-3"
       d="M654.1,506.88c-9-.3-20-8-20.05-14.16C639.76,499.05,648.61,499.24,654.1,506.88Z"
       transform="translate(-445.5 -121.26)"
       id="path30093" />
    <path
       class="cls-3"
       d="M734.14,454.27l-7.9,2.5c-2-4.94-1.47-10.27-4.51-15.75C728.3,444,730.63,449.18,734.14,454.27Z"
       transform="translate(-445.5 -121.26)"
       id="path30095" />
    <path
       class="cls-3"
       d="M713.07,521.35c1.58-4.09,3.88-5.63,7.55-5a31.55,31.55,0,0,0,10.57-.18c1.52-.23,3.42-1,3.78,1.35.31,2-1.25,2.67-3,2.77Z"
       transform="translate(-445.5 -121.26)"
       id="path30097" />
    <path
       class="cls-3"
       d="M642.37,453.72c3-5.25,5.67-10,11.59-13.19-.87,3.18-1.64,5.35-2.05,7.59C650.44,456,650.49,456,642.37,453.72Z"
       transform="translate(-445.5 -121.26)"
       id="path30099" />
    <path
       class="cls-3"
       d="M647.5,439.67c-3.54,3.71-5.79,6.93-6.75,10.83-.69,2.8-2.73,2.58-4.53,2-2.6-.84-.63-2.51-.16-3.65C637.93,444.26,641.08,441,647.5,439.67Z"
       transform="translate(-445.5 -121.26)"
       id="path30101" />
    <path
       class="cls-3"
       d="M729.5,441.08c6.93,1,10.19,5.52,12,12.11C732.36,453.75,735.48,442.93,729.5,441.08Z"
       transform="translate(-445.5 -121.26)"
       id="path30103" />
    <path
       class="cls-3"
       d="M756.33,492.81c-1.63,5-5.29,4.24-8.89,3.85-1.23-.13-2.42,0-2.38-1.74A2.45,2.45,0,0,1,747,492.3C750.1,491.37,753.18,490.94,756.33,492.81Z"
       transform="translate(-445.5 -121.26)"
       id="path30105" />
    <path
       class="cls-3"
       d="M609.19,521.35c.89-4.36,3.29-6.87,6.12-9.07a2.54,2.54,0,0,1,3.69.07c1.35,1.33.52,2.48-.41,3.56C616.26,518.61,613.62,520.78,609.19,521.35Z"
       transform="translate(-445.5 -121.26)"
       id="path30107" />
    <path
       class="cls-3"
       d="M625.86,523.58c1.58.35,2.56,1.22,1.87,2.9a16.08,16.08,0,0,1-7,7.66,1.23,1.23,0,0,1-1.88-.69C617.86,531.22,623.51,523.34,625.86,523.58Z"
       transform="translate(-445.5 -121.26)"
       id="path30109" />
    <path
       class="cls-3"
       d="M619.29,508.88a7.49,7.49,0,0,1,5.77-2.5c1.83,0,4.13-.95,5.2,1.42.42.93.66,2.56-.94,2.92-2.23.51-4.11,3.54-6.8,1C621.54,510.86,620.52,510,619.29,508.88Z"
       transform="translate(-445.5 -121.26)"
       id="path30111" />
    <path
       class="cls-3"
       d="M769.24,500.7c-4.47,1.21-7.52-.6-10.51-2.45-.92-.57-2.12-1.38-1.38-2.8a2.48,2.48,0,0,1,3.42-1.36C764,495.41,767.15,496.87,769.24,500.7Z"
       transform="translate(-445.5 -121.26)"
       id="path30113" />
    <path
       class="cls-3"
       d="M610.09,501.08c-1.39-.08-3.42.18-2.76-1.4,1.49-3.54,5-4.8,8.49-5.69,1.6-.41,3,1.17,2.65,2.33C617.12,500.37,613.13,500.24,610.09,501.08Z"
       transform="translate(-445.5 -121.26)"
       id="path30115" />
    <path
       class="cls-3"
       d="M766.62,521.41a20.29,20.29,0,0,1-9.38-6.14c-.7-.83-1.75-1.82-.43-3a2.31,2.31,0,0,1,3.18-.12C762.93,514.41,765.74,516.75,766.62,521.41Z"
       transform="translate(-445.5 -121.26)"
       id="path30117" />
    <path
       class="cls-3"
       d="M638.16,519.64c-1.61,2.06-4.19,3.14-6.64,3.82-1.08.3-4.31-.69-3.94-2.11.92-3.54,4.54-3.73,7.61-4.31C637,516.69,637.6,517.89,638.16,519.64Z"
       transform="translate(-445.5 -121.26)"
       id="path30119" />
    <path
       class="cls-3"
       d="M727.11,491.44c-.4-1.51-1.18-3-1.11-4.47a7,7,0,0,1,4.15-5.82,2.31,2.31,0,0,1,2.16.21c1.52,2.19-.23,4.07-1,5.93S729.55,490.8,727.11,491.44Z"
       transform="translate(-445.5 -121.26)"
       id="path30121" />
    <path
       class="cls-3"
       d="M614,478.87c-2.09-.54-5.93.47-5.61-1.79.51-3.65,4.91-3,7.8-3.63,2-.45,3.82.46,3.44,2.8C619.08,479.65,615.93,478.16,614,478.87Z"
       transform="translate(-445.5 -121.26)"
       id="path30123" />
    <path
       class="cls-3"
       d="M768.72,477.89c-3.86.76-6.91,1.13-10,.45-1.75-.38-2.11-1.56-2.08-3,0-2,1.4-2.16,2.86-1.79C762.56,474.3,766.09,474.16,768.72,477.89Z"
       transform="translate(-445.5 -121.26)"
       id="path30125" />
    <path
       class="cls-3"
       d="M747.41,479.53c-2,.46-3.89,0-3.56-1.92.6-3.46,3.85-4,6.71-4.48,1.12-.2,3-.88,2.66,1.61C752.73,478.2,750.53,479.62,747.41,479.53Z"
       transform="translate(-445.5 -121.26)"
       id="path30127" />
    <path
       class="cls-3"
       d="M748.45,521.26c-1,1.36-2.55,2.78-3.73,2.26-2.5-1.1-6-1.38-6.83-4.57-.34-1.25,1.37-2.34,3-2C743.77,517.59,746.53,518.55,748.45,521.26Z"
       transform="translate(-445.5 -121.26)"
       id="path30129" />
    <path
       class="cls-3"
       d="M629.29,479.75c-3.25-.79-6.52-.57-6.28-5,.11-2,1.17-1.77,2.26-1.51,2.87.69,6.13,1.43,6.93,4.62C632.62,479.53,630.63,480.3,629.29,479.75Z"
       transform="translate(-445.5 -121.26)"
       id="path30131" />
    <path
       class="cls-3"
       d="M649.11,491.48A7.49,7.49,0,0,1,645,487.3c-.75-2-2.16-4-1.51-6.17.3-1,2.1-1,2.58-.39,1.5,1.92,3.88,3.44,3.68,6.34C649.6,488.43,649.34,489.78,649.11,491.48Z"
       transform="translate(-445.5 -121.26)"
       id="path30133" />
    <path
       class="cls-3"
       d="M749.68,506.48c2.17.62,5.24.27,5.77,3.39.12.71-1.72,3.13-3.27,2.46-2.36-1-6.14-.4-6.85-3.3C744.77,506.76,747.35,506.12,749.68,506.48Z"
       transform="translate(-445.5 -121.26)"
       id="path30135" />
    <path
       class="cls-3"
       d="M757.39,534.55a15.31,15.31,0,0,1-8.16-6.8c-.74-1.21-1.76-2.47-.43-3.68s2.54,0,3.49,1A16.55,16.55,0,0,1,757.39,534.55Z"
       transform="translate(-445.5 -121.26)"
       id="path30137" />
    <path
       class="cls-3"
       d="M619.67,491.3a30.59,30.59,0,0,1,4.57,0c2.41.45,5.36.17,6.27,3.29.32,1.11-.68,1.72-1.81,1.74-2.73.05-6,1.86-7.45-2.29A23.12,23.12,0,0,0,619.67,491.3Z"
       transform="translate(-445.5 -121.26)"
       id="path30139" />
    <path
       class="cls-3"
       d="M734.19,487.71c.78-2.43,1.3-5,3.29-6.83.94-.88,1.61-2.94,3.12-1.91a3.38,3.38,0,0,1,.46,4.81c-1.58,2-3.78,3.44-5.71,5.13C734.29,489.18,733.68,489,734.19,487.71Z"
       transform="translate(-445.5 -121.26)"
       id="path30141" />
    <path
       class="cls-3"
       d="M640.94,489c-2.58-3.11-8.68-4.39-5.58-10.71,4.24,2.47,5.48,6.64,7,10.63Q641.7,489.86,640.94,489Z"
       transform="translate(-445.5 -121.26)"
       id="path30143" />
    <path
       class="cls-3"
       d="M734.19,487.71l1.17,1.2c-2.63,3.31-5.24,6.64-9.58,9.41C726.42,492.29,732.69,491.91,734.19,487.71Z"
       transform="translate(-445.5 -121.26)"
       id="path30145" />
    <path
       class="cls-3"
       d="M619.13,545c-2.61-2.54-2.31-5.52-1.53-9C621.24,538.74,618.71,542.09,619.13,545Z"
       transform="translate(-445.5 -121.26)"
       id="path30147" />
    <path
       class="cls-3"
       d="M605.9,530.85c-1.44-3.35,0-6,2-8.91C610.25,525.89,606.63,528,605.9,530.85Z"
       transform="translate(-445.5 -121.26)"
       id="path30149" />
    <path
       class="cls-3"
       d="M760,544.1c1.44-3.35,0-6-2-8.91C755.64,539.13,759.26,541.26,760,544.1Z"
       transform="translate(-445.5 -121.26)"
       id="path30151" />
    <path
       class="cls-3"
       d="M769.83,530.84c1.44-3.35,0-6-2-8.91C765.48,525.87,769.1,528,769.83,530.84Z"
       transform="translate(-445.5 -121.26)"
       id="path30153" />
    <path
       class="cls-3"
       d="M772.83,510.14c1.44-3.35,0-6-2-8.91C768.49,505.17,772.1,507.3,772.83,510.14Z"
       transform="translate(-445.5 -121.26)"
       id="path30155" />
    <path
       class="cls-3"
       d="M640.94,489l1.41-.08c2,2.75,5.83,3.9,7,7.45C645.62,494.92,643.16,492.11,640.94,489Z"
       transform="translate(-445.5 -121.26)"
       id="path30157" />
    <path
       class="cls-3"
       d="M775.76,484.64c-2.06-1.58-4.8-2.68-5.62-6.39C773.74,479.27,774.59,482.08,775.76,484.64Z"
       transform="translate(-445.5 -121.26)"
       id="path30159" />
    <path
       class="cls-3"
       d="M605.15,501c.38,4.61-1.24,6.93-3.31,9.73C601.54,507.1,602.59,504.56,605.15,501Z"
       transform="translate(-445.5 -121.26)"
       id="path30161" />
    <path
       class="cls-3"
       d="M600.72,484.6a8,8,0,0,1,4.32-6.4C605.38,481.84,602.64,483,600.72,484.6Z"
       transform="translate(-445.5 -121.26)"
       id="path30163" />
    <path
       class="cls-3"
       d="M672.95,464c0,1.84-1.28,2.12-3.11,2.12s-1.74-.65-1.74-2.49.4-1.87,2.24-1.87S672.95,462.19,672.95,464Z"
       transform="translate(-445.5 -121.26)"
       id="path30165" />
    <path
       class="cls-3"
       d="M702.45,464c0,1.84-.47,2.12-2.3,2.12s-2.3.34-2.3-1.49.56-3.57,2.39-3.57S702.45,462.19,702.45,464Z"
       transform="translate(-445.5 -121.26)"
       id="path30167" />
    <path
       class="cls-3"
       d="M774.79,349.82a64.9,64.9,0,0,1,23.28,3.68c8.83,3,12.55,7.42,10.52,16.33-5.6,24.51-19.5,36.58-44.89,30.48a19.84,19.84,0,0,1-13.26-10.18c-3-5.58-6.26-11.05-7.84-17.25-2.13-8.32.85-14.84,8.39-18.91C756.63,350.93,762.83,349.81,774.79,349.82Z"
       transform="translate(-445.5 -121.26)"
       id="path30169" />
    <path
       class="cls-3"
       d="M736.53,343.31a31.17,31.17,0,0,1,.24,4.48c-.12,2,1.63,5.12-.81,5.64-3.16.68-7.1,1.73-9.66-2.22a33.6,33.6,0,0,1-5.45-15.47c-.43-4.64,1.74-5.35,5.59-4.68C735.41,332.62,737.12,334.48,736.53,343.31Z"
       transform="translate(-445.5 -121.26)"
       id="path30171" />
    <path
       class="cls-3"
       d="M830.47,336c-.31,5.63-2.13,9.92-4.21,14.23-2.26,4.68-6.17,4.13-10.1,4-2.17-.08-1.75-1.62-1.7-3,.1-2.57.26-5.14.2-7.7-.18-8.26,2-10.61,10.49-11.63C829.05,331.4,831.47,332.11,830.47,336Z"
       transform="translate(-445.5 -121.26)"
       id="path30173" />
    <path
       class="cls-3"
       d="M806.34,389.52c.43-3.82,2.54-5,6.08-5.08a42.27,42.27,0,0,0,14-2.43c1.22-.44,2.76-1.75,3.51.16.68,1.72-.9,3.17-2.22,3.76-5.45,2.42-11.35,3.17-17.2,4A17.88,17.88,0,0,1,806.34,389.52Z"
       transform="translate(-445.5 -121.26)"
       id="path30175" />
    <path
       class="cls-3"
       d="M744.61,390.06c-7.52.06-14.22-2.54-21.11-3.7a2.62,2.62,0,0,1-2.1-3.64c.78-2.28,2.42-.74,3.43-.39,4.55,1.54,9.12,2.67,14,2.34C742.14,384.43,743.75,386.3,744.61,390.06Z"
       transform="translate(-445.5 -121.26)"
       id="path30177" />
    <path
       class="cls-3"
       d="M751.06,396.55c-6.83,0-12.37,0-17.9,0a4.7,4.7,0,0,1-4.46-2.43,3.5,3.5,0,0,1-.37-2.26c.3-1.26,1.51-1.16,2.41-.89,4.49,1.35,9.07,1,13.6.67C747.77,391.37,748.37,394.1,751.06,396.55Z"
       transform="translate(-445.5 -121.26)"
       id="path30179" />
    <path
       class="cls-3"
       d="M809.83,382.94c1.11-4.31,3.19-6.18,6.65-6.94,3.91-.86,7.13-3.22,10.22-5.71.76-.61,1.64-1.38,2.61-.67,1.16.85.84,2.09.33,3.21-.24.54-.47,1.27-.92,1.49C822.74,377.31,817.63,382.33,809.83,382.94Z"
       transform="translate(-445.5 -121.26)"
       id="path30181" />
    <path
       class="cls-3"
       d="M741.62,382.37c-9-.3-20-8-20.05-14.16C727.28,374.54,736.13,374.73,741.62,382.37Z"
       transform="translate(-445.5 -121.26)"
       id="path30183" />
    <path
       class="cls-3"
       d="M821.66,329.76l-7.9,2.5c-2-4.94-1.47-10.27-4.51-15.75C815.82,319.53,818.15,324.67,821.66,329.76Z"
       transform="translate(-445.5 -121.26)"
       id="path30185" />
    <path
       class="cls-3"
       d="M800.59,396.84c1.58-4.09,3.88-5.63,7.55-5a31.55,31.55,0,0,0,10.57-.18c1.52-.23,3.42-1,3.78,1.35.31,2-1.25,2.67-3,2.77Z"
       transform="translate(-445.5 -121.26)"
       id="path30187" />
    <path
       class="cls-3"
       d="M729.89,329.21c3-5.25,5.67-10,11.59-13.19-.87,3.18-1.64,5.35-2.05,7.59C738,331.48,738,331.49,729.89,329.21Z"
       transform="translate(-445.5 -121.26)"
       id="path30189" />
    <path
       class="cls-3"
       d="M735,315.16c-3.54,3.71-5.79,6.93-6.75,10.83-.69,2.8-2.73,2.58-4.53,2-2.6-.84-.63-2.51-.16-3.65C725.46,319.75,728.6,316.53,735,315.16Z"
       transform="translate(-445.5 -121.26)"
       id="path30191" />
    <path
       class="cls-3"
       d="M817,316.56c6.93,1,10.19,5.52,12,12.11C819.88,329.24,823,318.42,817,316.56Z"
       transform="translate(-445.5 -121.26)"
       id="path30193" />
    <path
       class="cls-3"
       d="M843.85,368.3c-1.63,5-5.29,4.24-8.89,3.85-1.23-.13-2.42,0-2.38-1.74a2.45,2.45,0,0,1,1.92-2.61C837.62,366.86,840.7,366.42,843.85,368.3Z"
       transform="translate(-445.5 -121.26)"
       id="path30195" />
    <path
       class="cls-3"
       d="M696.71,396.84c.89-4.36,3.29-6.87,6.12-9.07a2.54,2.54,0,0,1,3.69.07c1.35,1.33.52,2.48-.41,3.56C703.78,394.1,701.14,396.27,696.71,396.84Z"
       transform="translate(-445.5 -121.26)"
       id="path30197" />
    <path
       class="cls-3"
       d="M713.38,399.07c1.58.35,2.56,1.22,1.87,2.9a16.08,16.08,0,0,1-7,7.66,1.23,1.23,0,0,1-1.88-.69C705.38,406.71,711,398.82,713.38,399.07Z"
       transform="translate(-445.5 -121.26)"
       id="path30199" />
    <path
       class="cls-3"
       d="M706.81,384.37a7.49,7.49,0,0,1,5.77-2.5c1.83,0,4.13-.95,5.2,1.42.42.93.66,2.56-.94,2.92-2.23.51-4.11,3.54-6.8,1C709.06,386.35,708,385.47,706.81,384.37Z"
       transform="translate(-445.5 -121.26)"
       id="path30201" />
    <path
       class="cls-3"
       d="M856.76,376.19c-4.47,1.21-7.52-.6-10.51-2.45-.92-.57-2.12-1.38-1.38-2.8a2.48,2.48,0,0,1,3.42-1.36C851.54,370.9,854.68,372.35,856.76,376.19Z"
       transform="translate(-445.5 -121.26)"
       id="path30203" />
    <path
       class="cls-3"
       d="M697.61,376.57c-1.39-.08-3.42.18-2.76-1.4,1.49-3.54,5-4.8,8.49-5.69,1.6-.41,3,1.17,2.65,2.33C704.64,375.86,700.65,375.73,697.61,376.57Z"
       transform="translate(-445.5 -121.26)"
       id="path30205" />
    <path
       class="cls-3"
       d="M854.14,396.9a20.29,20.29,0,0,1-9.38-6.14c-.7-.83-1.75-1.82-.43-3a2.31,2.31,0,0,1,3.18-.12C850.45,389.9,853.26,392.24,854.14,396.9Z"
       transform="translate(-445.5 -121.26)"
       id="path30207" />
    <path
       class="cls-3"
       d="M725.68,395.13c-1.61,2.06-4.19,3.14-6.64,3.82-1.08.3-4.31-.69-3.94-2.11.92-3.54,4.54-3.73,7.61-4.31C724.56,392.18,725.12,393.38,725.68,395.13Z"
       transform="translate(-445.5 -121.26)"
       id="path30209" />
    <path
       class="cls-3"
       d="M814.64,366.93c-.4-1.51-1.18-3-1.11-4.47a7,7,0,0,1,4.15-5.82,2.31,2.31,0,0,1,2.16.21c1.52,2.19-.23,4.07-1,5.93S817.07,366.29,814.64,366.93Z"
       transform="translate(-445.5 -121.26)"
       id="path30211" />
    <path
       class="cls-3"
       d="M701.53,354.36c-2.09-.54-5.93.47-5.61-1.79.51-3.65,4.91-3,7.8-3.63,2-.45,3.82.46,3.44,2.8C706.6,355.14,703.46,353.65,701.53,354.36Z"
       transform="translate(-445.5 -121.26)"
       id="path30213" />
    <path
       class="cls-3"
       d="M856.24,353.38c-3.86.76-6.91,1.13-10,.45-1.75-.38-2.11-1.56-2.08-3,0-2,1.4-2.16,2.86-1.79C850.08,349.78,853.62,349.65,856.24,353.38Z"
       transform="translate(-445.5 -121.26)"
       id="path30215" />
    <path
       class="cls-3"
       d="M834.93,355c-2,.46-3.89,0-3.56-1.92.6-3.46,3.85-4,6.71-4.48,1.12-.2,3-.88,2.66,1.61C840.25,353.68,838.05,355.11,834.93,355Z"
       transform="translate(-445.5 -121.26)"
       id="path30217" />
    <path
       class="cls-3"
       d="M836,396.75c-1,1.36-2.55,2.78-3.73,2.26-2.5-1.1-6-1.38-6.83-4.57-.34-1.25,1.37-2.34,3-2C831.3,393.08,834,394,836,396.75Z"
       transform="translate(-445.5 -121.26)"
       id="path30219" />
    <path
       class="cls-3"
       d="M716.81,355.24c-3.25-.79-6.52-.57-6.28-5,.11-2,1.17-1.77,2.26-1.51,2.87.69,6.13,1.43,6.93,4.62C720.14,355,718.15,355.79,716.81,355.24Z"
       transform="translate(-445.5 -121.26)"
       id="path30221" />
    <path
       class="cls-3"
       d="M736.63,367a7.49,7.49,0,0,1-4.15-4.18c-.75-2-2.16-4-1.51-6.17.3-1,2.1-1,2.58-.39,1.5,1.92,3.88,3.44,3.68,6.34C737.13,363.92,736.86,365.27,736.63,367Z"
       transform="translate(-445.5 -121.26)"
       id="path30223" />
    <path
       class="cls-3"
       d="M837.2,382c2.17.62,5.24.27,5.77,3.39.12.71-1.72,3.13-3.27,2.46-2.36-1-6.14-.4-6.85-3.3C832.29,382.25,834.87,381.61,837.2,382Z"
       transform="translate(-445.5 -121.26)"
       id="path30225" />
    <path
       class="cls-3"
       d="M844.91,410a15.31,15.31,0,0,1-8.16-6.8c-.74-1.21-1.76-2.47-.43-3.68s2.54,0,3.49,1A16.55,16.55,0,0,1,844.91,410Z"
       transform="translate(-445.5 -121.26)"
       id="path30227" />
    <path
       class="cls-3"
       d="M707.19,366.79a30.59,30.59,0,0,1,4.57,0c2.41.45,5.36.17,6.27,3.29.32,1.11-.68,1.72-1.81,1.74-2.73.05-6,1.86-7.45-2.29A23.12,23.12,0,0,0,707.19,366.79Z"
       transform="translate(-445.5 -121.26)"
       id="path30229" />
    <path
       class="cls-3"
       d="M821.71,363.2c.78-2.43,1.3-5,3.29-6.83.94-.88,1.61-2.94,3.12-1.91a3.38,3.38,0,0,1,.46,4.81c-1.58,2-3.78,3.44-5.71,5.13C821.81,364.66,821.2,364.48,821.71,363.2Z"
       transform="translate(-445.5 -121.26)"
       id="path30231" />
    <path
       class="cls-3"
       d="M728.46,364.51c-2.58-3.11-8.68-4.39-5.58-10.71,4.24,2.47,5.48,6.64,7,10.63Q729.22,365.35,728.46,364.51Z"
       transform="translate(-445.5 -121.26)"
       id="path30233" />
    <path
       class="cls-3"
       d="M821.71,363.2l1.17,1.2c-2.63,3.31-5.24,6.64-9.58,9.41C813.94,367.78,820.21,367.4,821.71,363.2Z"
       transform="translate(-445.5 -121.26)"
       id="path30235" />
    <path
       class="cls-3"
       d="M706.65,420.48c-2.61-2.54-2.31-5.52-1.53-9C708.76,414.23,706.24,417.58,706.65,420.48Z"
       transform="translate(-445.5 -121.26)"
       id="path30237" />
    <path
       class="cls-3"
       d="M693.42,406.34c-1.44-3.35,0-6,2-8.91C697.77,401.37,694.16,403.5,693.42,406.34Z"
       transform="translate(-445.5 -121.26)"
       id="path30239" />
    <path
       class="cls-3"
       d="M847.51,419.59c1.44-3.35,0-6-2-8.91C843.16,414.62,846.78,416.75,847.51,419.59Z"
       transform="translate(-445.5 -121.26)"
       id="path30241" />
    <path
       class="cls-3"
       d="M857.35,406.33c1.44-3.35,0-6-2-8.91C853,401.36,856.62,403.49,857.35,406.33Z"
       transform="translate(-445.5 -121.26)"
       id="path30243" />
    <path
       class="cls-3"
       d="M860.35,385.63c1.44-3.35,0-6-2-8.91C856,380.66,859.62,382.79,860.35,385.63Z"
       transform="translate(-445.5 -121.26)"
       id="path30245" />
    <path
       class="cls-3"
       d="M728.46,364.51l1.41-.08c2,2.75,5.83,3.9,7,7.45C733.14,370.41,730.68,367.59,728.46,364.51Z"
       transform="translate(-445.5 -121.26)"
       id="path30247" />
    <path
       class="cls-3"
       d="M863.28,360.13c-2.06-1.58-4.8-2.68-5.62-6.39C861.26,354.76,862.11,357.57,863.28,360.13Z"
       transform="translate(-445.5 -121.26)"
       id="path30249" />
    <path
       class="cls-3"
       d="M692.67,376.46c.38,4.61-1.24,6.93-3.31,9.73C689.06,382.59,690.11,380.05,692.67,376.46Z"
       transform="translate(-445.5 -121.26)"
       id="path30251" />
    <path
       class="cls-3"
       d="M688.24,360.09a8,8,0,0,1,4.32-6.4C692.9,357.33,690.16,358.49,688.24,360.09Z"
       transform="translate(-445.5 -121.26)"
       id="path30253" />
    <path
       class="cls-3"
       d="M760.47,339.51c0,1.84-1.28,2.12-3.11,2.12s-1.74-.65-1.74-2.49.4-1.87,2.24-1.87S760.47,337.68,760.47,339.51Z"
       transform="translate(-445.5 -121.26)"
       id="path30255" />
    <path
       class="cls-3"
       d="M790,339.51c0,1.84-.47,2.12-2.3,2.12s-2.3.34-2.3-1.49.56-3.57,2.39-3.57S790,337.68,790,339.51Z"
       transform="translate(-445.5 -121.26)"
       id="path30257" />
  </g>
  <g
     id="Layer_3"
     data-name="Layer 3">
    <path
       class="cls-4"
       d="M927,122.76V328.6a313.88,313.88,0,0,1-2.28,38c-.11.93-.24,1.86-.36,2.79,0,.2,0,.4-.08.59-.09.74-.19,1.47-.31,2.2-.46,3.37-1,6.69-1.6,10-.07.44-.15.87-.23,1.31-.16.8-.29,1.6-.45,2.4s-.34,1.79-.51,2.69l-.45,2.22-.24,1.15c-.15.71-.3,1.44-.46,2.15-.54,2.37-1.07,4.71-1.61,7l-.58,2.32-.52,2q-1.53,5.88-3.27,11.61c-.29,1-.59,1.94-.9,2.92l-.6,1.88c-.2.63-.4,1.24-.61,1.86-.37,1.09-.73,2.17-1.1,3.25s-.68,2-1,3c-.47,1.28-.93,2.56-1.39,3.81-.36,1-.73,2-1.11,3l-.19.5c-.43,1.14-.87,2.25-1.32,3.36s-.87,2.17-1.31,3.2c0,.15-.12.28-.18.42-.4,1-.8,2-1.25,3s-.76,1.75-1.13,2.62l-.66,1.49c-.48,1.07-1,2.11-1.44,3.15s-.9,2-1.36,2.93l-1,2.12c-.29.63-.6,1.25-.91,1.87-.63,1.33-1.31,2.64-2,4q-2.52,5-5.19,9.77l-2,3.57-.12.21c-1.4,2.44-2.82,4.86-4.28,7.24a.41.41,0,0,1,0,.09c-.71,1.2-1.46,2.4-2.18,3.54-.11.16-.2.32-.3.47s-.31.5-.47.74c-.4.64-.81,1.28-1.22,1.92l-.65,1c-.65,1-1.31,2-2,3l-.13.18c-.65,1-1.31,2-2,3l-.45.67q-2.25,3.29-4.54,6.46l-.31.43c-.8,1.07-1.54,2.14-2.31,3.19s-1.66,2.23-2.5,3.32c-1.52,2-3.06,4-4.61,6l-.81,1q-1.09,1.39-2.22,2.76L854,526.61l-.57.69c-.4.47-.79.93-1.2,1.39a4.16,4.16,0,0,1-.27.32c-.31.37-.62.73-.94,1.09-1.23,1.44-2.46,2.87-3.73,4.29-.65.75-1.32,1.5-2,2.24s-1.52,1.69-2.29,2.51-1.47,1.6-2.22,2.4q-3,3.2-5.93,6.24-2.76,2.82-5.53,5.59l-.83.82c-.64.64-1.29,1.27-1.93,1.89-.92.89-1.85,1.78-2.79,2.66l-2.28,2.12c-.68.65-1.36,1.28-2,1.91q-14.52,13.32-30.16,25.31c-1,.77-2,1.52-3,2.28q-9.86,7.43-20.1,14.31-1.56,1.05-3.12,2.07c-1,.65-2,1.29-3,1.92a0,0,0,0,1,0,0l-.18.12h0l-2.24,1.45c-.86.55-1.72,1.1-2.57,1.6l-1.74,1.09c-3.67,2.31-7.25,4.48-10.73,6.54l-2.41,1.4-2.36,1.37-2.33,1.34-2.23,1.29c-8.34,4.68-15.9,8.59-22.38,11.76l-1.6.8c-10.64,5.15-18.12,8.22-21,9.35l-.42.17-.61.24-.14,0h-.08l-.23-.09-.21,0-1.07-.42-.54-.23c-.87-.34-2-.8-3.37-1.38l-.46-.18c-1.76-.8-3.89-1.67-6.33-2.77l-1.39-.61a442.25,442.25,0,0,1-39.75-20.6c-.8-.44-1.6-.92-2.35-1.38q-7.23-4.26-14.29-8.78-5.26-3.36-10.42-6.85c-.75-.51-1.49-1-2.23-1.53-.57-.38-1.13-.76-1.69-1.16q-8.21-5.66-16.15-11.66l-2.63-2-.61-.47c-.77-.6-1.55-1.2-2.33-1.82l-2.37-1.86-.44-.35c-6.19-4.92-12.43-10.15-18.64-15.69L558.08,566q-2.31-2.05-4.59-4.2l-1.67-1.57L550,558.54l-2-1.94c-1.12-1.07-2.23-2.17-3.33-3.27-.85-.79-1.69-1.66-2.52-2.5l-.24-.26c-.84-.83-1.67-1.67-2.5-2.51l-.34-.36c-.55-.56-1.09-1.12-1.63-1.69l-1-1.06-1-1-.13-.15-2.1-2.25c-1.12-1.2-2.24-2.41-3.34-3.64h0c-1.11-1.23-2.21-2.46-3.31-3.71l-1.31-1.5-.74-.84c-.57-.65-1.12-1.29-1.66-1.94q-1-1.2-2-2.4-4.28-5.1-8.39-10.48c-.76-1-1.5-1.93-2.24-2.92-1.89-2.47-3.73-5-5.57-7.55-.55-.8-1.12-1.59-1.68-2.39-.13-.16-.24-.34-.36-.5-.59-.86-1.19-1.7-1.77-2.56l-1.54-2.28a1,1,0,0,1-.12-.17c-.39-.57-.77-1.14-1.15-1.72-.74-1.09-1.47-2.2-2.19-3.31a1,1,0,0,0-.15-.24l-2.22-3.48-.22-.36-.88-1.43-1.22-2-.32-.53c-.17-.27-.34-.56-.51-.85-.46-.76-.94-1.56-1.38-2.33l-.64-1.1c-.5-.84-1-1.67-1.49-2.57q-4.61-8-8.77-16.46c-.35-.69-.69-1.38-1-2.09-.22-.44-.44-.88-.65-1.35-.43-.87-.8-1.74-1.25-2.63a25.91,25.91,0,0,1-1.15-2.47l-.23-.48c-.27-.58-.53-1.16-.81-1.75l-.26-.57c-.27-.59-.52-1.19-.8-1.78q-1.44-3.25-2.79-6.57c-.42-1-.8-2-1.23-3.08-.1-.25-.21-.52-.31-.79-.4-1-.8-2-1.16-3s-.69-1.82-1-2.74l-.24-.65c-.17-.44-.33-.91-.49-1.35q-1-2.7-1.9-5.44c-.21-.6-.4-1.2-.6-1.8-.26-.8-.51-1.54-.75-2.32-.14-.41-.27-.8-.4-1.22-.25-.8-.49-1.59-.75-2.39-.31-1-.61-2.06-.92-3.11-.19-.64-.39-1.28-.57-1.95-.37-1.29-.74-2.58-1.09-3.89-.19-.68-.37-1.35-.55-2-.13-.5-.27-1-.4-1.51-.32-1.22-.62-2.45-.92-3.7-.18-.7-.34-1.4-.52-2.11-.07-.28-.13-.56-.19-.85-.37-1.55-.72-3.11-1.07-4.69-.26-1.16-.5-2.33-.74-3.5-.13-.71-.29-1.43-.42-2.14s-.32-1.59-.48-2.45a1.86,1.86,0,0,0-.09-.47c-.16-.8-.3-1.64-.45-2.48s-.32-1.84-.48-2.77-.29-1.8-.45-2.71q-.57-3.7-1.07-7.47c-.17-1.23-.33-2.47-.48-3.71A312.7,312.7,0,0,1,447,328.58V122.76Z"
       transform="translate(-445.5 -121.26)"
       id="path30260" />
  </g>
  <path
     id="shine"
     d="M 1.5799985,0.6790299 V 207.05591 c 0,229.66454 239.9200015,319.6031 239.9200015,319.6031 0,0 239.92,-89.93856 239.92,-319.6031 V 0.6790299 Z"
     style="fill:url(#rg);stroke:#000000;stroke-width:2.41218" />
</svg>
