<?xml version="1.0" encoding="UTF-8" standalone="no"?>
<svg
   viewBox="0 0 483 527.48"
   version="1.1"
   id="svg31089"
   sodipodi:docname="House Cerwyn GoT.svg"
   inkscape:version="1.2.1 (9c6d41e410, 2022-07-14)"
   xmlns:inkscape="http://www.inkscape.org/namespaces/inkscape"
   xmlns:sodipodi="http://sodipodi.sourceforge.net/DTD/sodipodi-0.dtd"
   xmlns="http://www.w3.org/2000/svg"
   xmlns:svg="http://www.w3.org/2000/svg">
  <sodipodi:namedview
     id="namedview31091"
     pagecolor="#ffffff"
     bordercolor="#000000"
     borderopacity="0.25"
     inkscape:showpageshadow="2"
     inkscape:pageopacity="0.0"
     inkscape:pagecheckerboard="0"
     inkscape:deskcolor="#d1d1d1"
     showgrid="false"
     inkscape:zoom="1.12203"
     inkscape:cx="186.71515"
     inkscape:cy="284.30612"
     inkscape:window-width="1920"
     inkscape:window-height="1017"
     inkscape:window-x="-8"
     inkscape:window-y="-8"
     inkscape:window-maximized="1"
     inkscape:current-layer="svg31089" />
  <defs
     id="defs31043">
    <style
       id="style31041">.cls-1{fill:#9b9b8f;stroke-width:3px;}.cls-1,.cls-5{stroke:#000;}.cls-2{fill:#1a1915;}.cls-3{fill:#373731;}.cls-4,.cls-5{fill:#d1d0c9;}.cls-5{stroke-width:0.5px;}.cls-6{fill:#79796b;}.cls-7{fill:#656459;}.cls-8{fill:#55544a;}.cls-9{fill:#727265;}.cls-10{fill:#36352d;}.cls-11{fill:#26241f;}</style>
    <radialGradient
       id="rg"
       gradientUnits="userSpaceOnUse"
       cx="220"
       cy="220"
       r="405"
       gradientTransform="matrix(0.80510068,0,0,0.80302287,-0.03015609,-0.9120158)">
      <stop
         style="stop-color:#ffffff;stop-opacity:.3"
         offset="0"
         id="stop753" />
      <stop
         style="stop-color:#ffffff;stop-opacity:.2"
         offset=".2"
         id="stop755" />
      <stop
         style="stop-color:#666666;stop-opacity:.1"
         offset=".6"
         id="stop757" />
      <stop
         style="stop-color:#000000;stop-opacity:.13"
         offset="1"
         id="stop759" />
    </radialGradient>
  </defs>
  <title
     id="title31045">House Cerwyn</title>
  <g
     id="Layer_2"
     data-name="Layer 2">
    <path
       class="cls-1"
       d="M927,122.76V328.6a313.88,313.88,0,0,1-2.28,38c-.11.93-.24,1.86-.36,2.79s-.24,1.86-.39,2.79c-.46,3.37-1,6.69-1.6,10-.07.44-.15.87-.23,1.31-.16.8-.29,1.6-.45,2.4s-.34,1.79-.51,2.69l-.45,2.22-.24,1.15c-.15.71-.3,1.44-.46,2.15-.54,2.37-1.07,4.71-1.61,7l-.58,2.32-.52,2q-1.53,5.88-3.27,11.61c-.29,1-.59,1.94-.9,2.92l-.6,1.88c-.2.63-.4,1.24-.61,1.86-.37,1.09-.73,2.17-1.1,3.25s-.68,2-1,3c-.47,1.28-.93,2.56-1.39,3.81-.36,1-.73,2-1.11,3l-.19.5c-.43,1.14-.87,2.25-1.32,3.36s-.87,2.17-1.31,3.2c0,.15-.12.28-.18.42-.4,1-.8,2-1.25,3s-.76,1.75-1.13,2.62l-.66,1.49c-.48,1.07-1,2.11-1.44,3.15s-.9,2-1.36,2.93l-1,2.12c-.29.63-.6,1.25-.91,1.87-.63,1.33-1.31,2.64-2,4q-2.52,5-5.19,9.77l-2,3.57-.12.21c-1.42,2.47-2.86,4.92-4.33,7.33-.71,1.2-1.46,2.4-2.18,3.54-.11.16-.2.32-.3.47-.55.89-1.12,1.78-1.69,2.66l-.65,1c-.65,1-1.31,2-2,3l-.13.18c-.65,1-1.31,2-2,3l-.45.67q-2.25,3.29-4.54,6.46l-.31.43c-.8,1.07-1.54,2.14-2.31,3.19s-1.66,2.23-2.5,3.32c-1.52,2-3.06,4-4.61,6l-.81,1q-1.09,1.39-2.22,2.76L854,526.61l-.57.69c-.8.94-1.6,1.87-2.41,2.8q-2.82,3.32-5.72,6.53c-.75.85-1.52,1.69-2.29,2.51s-1.47,1.6-2.22,2.4q-3,3.2-5.93,6.24-2.76,2.82-5.53,5.59c-.92.91-1.84,1.82-2.76,2.71s-1.85,1.78-2.79,2.66l-2.28,2.12c-.68.65-1.36,1.28-2,1.91a449.24,449.24,0,0,1-61.76,47.47c-.86.55-1.72,1.1-2.57,1.6q-6.43,4.06-12.47,7.63l-2.41,1.4-2.36,1.37-2.33,1.34-2.23,1.29c-8.34,4.68-15.9,8.59-22.38,11.76l-1.6.8c-2.57,1.24-5,2.37-7.14,3.37-6.85,3.15-11.67,5.12-13.84,6l-.42.17-.61.24-.14,0h-.08l-.23-.09-.21,0-1.07-.42-.54-.23c-.87-.34-2-.8-3.37-1.38l-.46-.18c-1.76-.8-3.89-1.67-6.33-2.77l-1.17-.51-.22-.1a442.25,442.25,0,0,1-39.75-20.6c-.8-.44-1.6-.92-2.35-1.38a474,474,0,0,1-44.78-30l-2.63-2c-1-.75-2-1.51-2.94-2.29l-2.81-2.21c-6.19-4.92-12.43-10.15-18.64-15.69L558.08,566q-2.31-2.05-4.59-4.2l-1.67-1.57L550,558.54l-2-1.94c-1.12-1.07-2.23-2.17-3.33-3.27-.85-.79-1.69-1.66-2.52-2.5l-.24-.26c-.84-.83-1.67-1.67-2.5-2.51-.66-.68-1.32-1.36-2-2l-2-2.06-.13-.15-2.1-2.25q-3.36-3.6-6.66-7.36c-.68-.79-1.36-1.54-2.05-2.34-.57-.65-1.12-1.29-1.66-1.94q-1-1.2-2-2.4-4.28-5.1-8.39-10.48c-.76-1-1.5-1.93-2.24-2.92-1.89-2.47-3.73-5-5.57-7.55-.55-.8-1.12-1.59-1.68-2.39-.13-.16-.24-.34-.36-.5-.59-.86-1.19-1.7-1.77-2.56-.94-1.38-1.89-2.77-2.81-4.17-.74-1.09-1.47-2.2-2.19-3.31a1,1,0,0,0-.15-.24l-2.22-3.48-.22-.36c-.7-1.14-1.41-2.27-2.1-3.4s-1.49-2.46-2.21-3.71-1.43-2.39-2.13-3.67q-4.61-8-8.77-16.46c-.35-.69-.69-1.38-1-2.09-.22-.44-.44-.88-.65-1.35-.43-.87-.8-1.74-1.25-2.63a25.91,25.91,0,0,1-1.15-2.47l-.23-.48c-.27-.58-.53-1.16-.81-1.75l-.26-.57c-.27-.59-.52-1.19-.8-1.78q-1.44-3.25-2.79-6.57c-.42-1-.8-2-1.23-3.08-.1-.25-.21-.52-.31-.79-.4-1-.8-2-1.16-3s-.69-1.82-1-2.74l-.24-.65c-.17-.44-.33-.91-.49-1.35q-1-2.7-1.9-5.44c-.21-.6-.4-1.2-.6-1.8-.26-.8-.51-1.54-.75-2.32-.14-.41-.27-.8-.4-1.22-.25-.8-.49-1.59-.75-2.39-.31-1-.61-2.06-.92-3.11-.19-.64-.39-1.28-.57-1.95-.37-1.29-.74-2.58-1.09-3.89-.19-.68-.37-1.35-.55-2-.13-.5-.27-1-.4-1.51-.32-1.22-.62-2.45-.92-3.7-.18-.7-.34-1.4-.52-2.11-.07-.28-.13-.56-.19-.85-.37-1.55-.72-3.11-1.07-4.69-.26-1.16-.5-2.33-.74-3.5-.13-.71-.29-1.43-.42-2.14s-.32-1.59-.48-2.45a1.86,1.86,0,0,0-.09-.47c-.16-.8-.3-1.64-.45-2.48s-.32-1.84-.48-2.77-.29-1.8-.45-2.71q-.86-5.52-1.55-11.18A312.7,312.7,0,0,1,447,328.58V122.76Z"
       transform="translate(-445.5 -121.26)"
       id="path31047" />
  </g>
  <g
     id="Layer_3"
     data-name="Layer 3">
    <path
       class="cls-2"
       d="M858.59,281.94c-1.29,27.8-12,51.81-30.18,72.67-8.81,10.11-18,19.77-28.9,27.75-2.23,1.64-4.37,3.77-7.56,3.36a10.59,10.59,0,0,1-1-3,14.76,14.76,0,0,1-.2-2.82,57.6,57.6,0,0,0-3.16-19c-.6-1.85-1.27-3.7-2-5.53-9.14-21.53-26.76-32.81-48-39.52-5.66-1.78-6.44-3.48-2.28-7.78,6.76-7,12.78-13.92,11.73-24.82-.74-7.74-3.71-13.64-10.32-17.48A69.14,69.14,0,0,0,708.46,257c-5.58-.55-6.26,3-6.28,7.33-.06,19.87-.28,39.75-.27,59.63q.09,158.4.27,316.79c-6.85,3.15-11.67,5.12-13.84,6l-.42.17-.61.24-.14,0h-.08l-.23-.09-.21,0-1.07-.42-.54-.23c-.87-.34-2-.8-3.37-1.38l-.46-.18c-1.76-.8-3.89-1.67-6.33-2.77l-1.17-.51c0-4-.14-7.93-.21-11.88-.83-46.81.62-93.61.61-140.42,0-56,.42-111.93.51-167.9,0-19.06-.36-38.12-.6-57.17-.09-7.18-1.12-8.19-8.26-7.34a67.75,67.75,0,0,0-25.84,8.38C629,271.55,625.66,288,633.11,298.4c2.35,3.28,5.32,6.11,8,9.15,3.9,4.43,3.24,5.94-2.3,7.82-21.83,7.4-40.24,19.08-50.07,41.15-.26.58-.5,1.16-.73,1.75a51.74,51.74,0,0,0-3.67,17.42c-.06,1.36-.06,2.74,0,4.12.06,1.94.62,4-.56,5.88-3,3.47-5.24.26-7.19-1.1C564,375.85,553.63,364.68,543.78,353c-21.9-25.85-30.67-56-27.69-89.31,2.07-23,10.81-44.36,21.06-65,4.33-8.73,8.88-17.31,15.24-24.82,3.3-3.9,6.25-4.57,9.87-.36,16.3,19,38.32,25.54,62,28.09a301.63,301.63,0,0,0,38.27,1.51,22.84,22.84,0,0,0,15.54-5.84c3.34-3,4.26-6.16.48-9.15s-3.8-6.17-1.6-10c3-5.26,3.78-11.61,8-16.3,3.84-4.29,6.59-4.13,9.38.94,3.34,6.08,5.24,12.73,6.91,19.44.76,3-.48,5.17-2.82,6.79-4.16,2.86-3.21,5.42.21,8.09A21.26,21.26,0,0,0,711.4,202c17.07.58,34.24.37,50.87-3,17.88-3.64,35.16-9.8,47.89-24.37,6.4-7.33,8.62-7.55,13.78.47C844.86,207.61,860.44,242,858.59,281.94Z"
       transform="translate(-445.5 -121.26)"
       id="path31050" />
    <path
       class="cls-3"
       d="M786.62,355.36c6,9.31,7,19.67,6.32,30.37-3-2.36-2-5.84-2.52-8.9C789.19,369.66,787.89,362.51,786.62,355.36Z"
       transform="translate(-445.5 -121.26)"
       id="path31052" />
    <path
       class="cls-4"
       d="M566.55,185.88c.78.13,1.74,0,2.31.42,21.73,16.05,46.92,19.63,72.95,20.71,34.23,1.42,68.4.35,102.59-1.52,22.48-1.23,43.47-6.74,62.14-19.71a4.53,4.53,0,0,1,3.33-1c1.59-.51,2.19.68,2.74,1.71,8.28,15.56,16.29,31.23,20.56,48.49.28,1.94.07,3.93.56,5.86a14.52,14.52,0,0,1,.4,1.56,29.2,29.2,0,0,0,1,5.46,10.83,10.83,0,0,1,.42,1.6c.52,3.07-.12,6.25.93,9.27a12.83,12.83,0,0,1,.42,1.76,87.88,87.88,0,0,1,0,13.94,12.35,12.35,0,0,1-.38,1.75c-1,2.46-.63,5.11-1.06,7.64a14.84,14.84,0,0,1-.38,1.68c-.7,2.23-.42,4.53-.47,6.8a10.33,10.33,0,0,1-1.24,5.09c-1.3,1.73-1.14,3.78-1.23,5.77-2.71,18.84-13.24,33.65-24.89,47.8-2.81,3.41-4.36,8.33-9.61,9.28-2.49-.6-2.49-3-3.28-4.75-9.86-21.16-25.59-35.64-48.12-42.25-4.92-1.44-3.09-3.88-1.44-6.16,4-5.49,7.26-11.13,8-18.1,1.15-11.64-3.24-20.57-12.8-27a53,53,0,0,0-21.36-8.18c-20.92-3.43-41.81-4.13-62.67.43a52.73,52.73,0,0,0-15.72,6.25c-15.45,9.17-19.54,27-9.66,41.94.45.68.93,1.33,1.39,2,4.8,6.89,4.61,6.37-2.92,9.22-21.15,8-37.11,21.9-46.8,42.62-.89,1.91-.89,4.51-3.52,5.3-2.19-.36-3.47-2-4.75-3.52-13.32-15.94-25.29-32.62-29.38-53.62-.39-2-.29-4.06-1-6-.46-1.64-1-3.27-1.37-4.93-.44-2.19-.15-4.46-.82-6.62a14.15,14.15,0,0,1-.41-1.64c-.43-2.51-.1-5.12-1-7.57a12.65,12.65,0,0,1-.42-1.76,87.12,87.12,0,0,1,0-13.92,12.91,12.91,0,0,1,.37-1.74c1.14-3,.48-6.2,1-9.27a10.25,10.25,0,0,1,.39-1.59,25,25,0,0,0,1.05-5.44,16.12,16.12,0,0,1,.38-1.58c.55-1.89.5-3.89,1.08-5.78A209.12,209.12,0,0,1,563,190.71C564.05,189,564.63,186.94,566.55,185.88Z"
       transform="translate(-445.5 -121.26)"
       id="path31054" />
    <path
       class="cls-5"
       d="M543.32,293a9.51,9.51,0,0,1,1.32,5.15c1.32,1.75-.27,4.07,1.12,5.81,3.83,12.55,7.83,25,16,35.62,5.63,7.32,11.34,14.59,17,21.88,1.32,3.37-.46,6.67-.27,10,.12,2.15-1.51,2.71-3.37,1.7a16.48,16.48,0,0,1-3-2.12c-28.78-25.31-45.13-56.27-46.21-95.38a157.83,157.83,0,0,1,12.26-65.65c4.49-10.85,11.19-20.66,18.74-29.74,2.93-3.52,6.45-1.46,9.62,5.54-4.22,10.89-10.47,20.82-14.78,31.7-2.58,6.51-3.53,13.61-7.32,19.64-1.24,1.87.31,4.27-1.14,6.1l.1-.15c-1.59,1.83.21,4.39-1.32,6.23l.1-.15c-1.8,3.54.41,7.56-1.32,11.11l.1-.15a44.48,44.48,0,0,0,0,17.2l-.1-.15c1.7,2.7-.44,6,1.32,8.67l-.1-.15C543.67,288,541.83,290.79,543.32,293Z"
       transform="translate(-445.5 -121.26)"
       id="path31056" />
    <path
       class="cls-5"
       d="M831.79,296.87c1.93-1.29,1.17-3.32,1.4-5.07,1.48-2.23-.36-5,1.22-7.24l-.1.15c1.76-2.69-.38-6,1.32-8.67l-.1.15a44.48,44.48,0,0,0,0-17.2l.1.15c-1.72-3.55.48-7.57-1.32-11.11l.1.15c-1.53-1.85.27-4.4-1.32-6.23l.1.15c-1.48-1.79.18-4.21-1.22-6-4.75-18.24-13.07-34.94-22.1-51.34.37-3.72,3.77-5,5.92-7.29,1.61-1.69,2.61.21,3.33,1.16,8.32,11,16.45,22,20.86,35.37,3.73,11.34,8.37,22.34,9.68,34.38,5.19,47.88-7.4,89.12-44.87,121.15-1.6,1.37-3.23,3.76-5.66,2.64-2.23-1-1.14-3.64-1.27-5.55-.15-2.13-1.44-4.26-.17-6.42,10.09-12.07,20.47-23.94,27.23-38.39a68.69,68.69,0,0,0,5.84-19C832.1,301,830.64,298.69,831.79,296.87Z"
       transform="translate(-445.5 -121.26)"
       id="path31058" />
    <path
       class="cls-6"
       d="M797.84,227.24c-3-1.25-7.28-1.26-7.33-5.75,0-3,2.81-3.9,5.26-3.59,3.23.41,6.55,1.63,6.67,5.61C802.53,226.13,800.29,227.06,797.84,227.24Z"
       transform="translate(-445.5 -121.26)"
       id="path31060" />
    <path
       class="cls-6"
       d="M581.12,218.95c2.51.52,5.34,1.14,4.88,4.22-.62,4.18-4.59,4.76-7.86,5.15a3.52,3.52,0,0,1-4.1-4.05C574.65,220.49,577.94,219.6,581.12,218.95Z"
       transform="translate(-445.5 -121.26)"
       id="path31062" />
    <path
       class="cls-7"
       d="M581.23,253.56c2.22.3,2.43,2,2.18,3.59-.5,3-2.07,5.32-5.51,5.32a3.2,3.2,0,0,1-3.28-3.62C575,255.22,578.36,254.55,581.23,253.56Z"
       transform="translate(-445.5 -121.26)"
       id="path31064" />
    <path
       class="cls-7"
       d="M795.52,252.38c2.78,1.11,6.19,1.68,6.34,5.48a3.18,3.18,0,0,1-3.49,3.4c-3.36-.22-4.94-2.47-5.28-5.57C792.91,254.07,793.22,252.4,795.52,252.38Z"
       transform="translate(-445.5 -121.26)"
       id="path31066" />
    <path
       class="cls-8"
       d="M581.22,291.88c2.68,2.06,3.42,4.14.1,6.3-7,.42-8.34-.72-7.57-6.3h0A8.88,8.88,0,0,1,581.22,291.88Z"
       transform="translate(-445.5 -121.26)"
       id="path31068" />
    <path
       class="cls-8"
       d="M795.19,297c-3.31-2.15-2.58-4.24.1-6.3a8.88,8.88,0,0,1,7.48,0h0C803.53,296.24,802.17,297.37,795.19,297Z"
       transform="translate(-445.5 -121.26)"
       id="path31070" />
    <path
       class="cls-9"
       d="M573.74,291.88c-.17,5.34,3.74,5.77,7.57,6.3-3.28,2.21-6.4,1.75-8.88-1.09C570.72,295.12,571.19,293.09,573.74,291.88Z"
       transform="translate(-445.5 -121.26)"
       id="path31072" />
    <path
       class="cls-9"
       d="M795.19,297c3.83-.53,7.75-1,7.57-6.3,2.56,1.21,3,3.24,1.3,5.21C801.58,298.71,798.46,299.17,795.19,297Z"
       transform="translate(-445.5 -121.26)"
       id="path31074" />
    <path
       class="cls-9"
       d="M802.76,290.67h-7.48Q799,286.61,802.76,290.67Z"
       transform="translate(-445.5 -121.26)"
       id="path31076" />
    <path
       class="cls-9"
       d="M581.22,291.88h-7.48Q577.47,287.83,581.22,291.88Z"
       transform="translate(-445.5 -121.26)"
       id="path31078" />
    <path
       class="cls-10"
       d="M798.69,221.18c-.4,2-1.73,2.45-3.2,2.49s-3.1-.27-3.17-2,1.62-2.18,3-2.29A4,4,0,0,1,798.69,221.18Z"
       transform="translate(-445.5 -121.26)"
       id="path31080" />
    <path
       class="cls-10"
       d="M580.75,220.44c1.69.37,3.43.61,3.42,2.28,0,2.14-2,2.18-3.57,2.2-1.21,0-2.72-.14-2.83-1.6C577.62,221.19,579.67,221.14,580.75,220.44Z"
       transform="translate(-445.5 -121.26)"
       id="path31082" />
    <path
       class="cls-11"
       d="M581,257.93c-.06,1.07-.21,1.93-1.25,1.81a1.65,1.65,0,0,1-1-1.14c-.14-.79.1-1.68,1.17-1.55C580.36,257.1,580.74,257.68,581,257.93Z"
       transform="translate(-445.5 -121.26)"
       id="path31084" />
    <path
       class="cls-11"
       d="M796.47,258.64c-.26-.3-.78-.65-.91-1.11-.24-.82,0-1.67,1-1.68.39,0,1,.58,1.13,1C798,257.65,797.74,258.42,796.47,258.64Z"
       transform="translate(-445.5 -121.26)"
       id="path31086" />
  </g>
  <path
     id="shine"
     d="M 1.5800452,0.6940302 V 207.07091 c 0,229.66454 239.9199948,319.6031 239.9199948,319.6031 0,0 239.92,-89.93856 239.92,-319.6031 V 0.6940302 Z"
     style="fill:url(#rg);stroke:#000000;stroke-width:2.41218" />
</svg>
