<?xml version="1.0" encoding="UTF-8" standalone="no"?>
<svg
   viewBox="0 0 483 527.48"
   version="1.1"
   id="svg889"
   sodipodi:docname="House Corbray HotD.svg"
   inkscape:version="1.2.1 (9c6d41e410, 2022-07-14)"
   xmlns:inkscape="http://www.inkscape.org/namespaces/inkscape"
   xmlns:sodipodi="http://sodipodi.sourceforge.net/DTD/sodipodi-0.dtd"
   xmlns="http://www.w3.org/2000/svg"
   xmlns:svg="http://www.w3.org/2000/svg">
  <sodipodi:namedview
     id="namedview891"
     pagecolor="#ffffff"
     bordercolor="#000000"
     borderopacity="0.25"
     inkscape:showpageshadow="2"
     inkscape:pageopacity="0.0"
     inkscape:pagecheckerboard="0"
     inkscape:deskcolor="#d1d1d1"
     showgrid="false"
     inkscape:zoom="0.79339504"
     inkscape:cx="139.90508"
     inkscape:cy="284.85179"
     inkscape:window-width="1920"
     inkscape:window-height="1017"
     inkscape:window-x="-8"
     inkscape:window-y="-8"
     inkscape:window-maximized="1"
     inkscape:current-layer="svg889" />
  <defs
     id="defs832">
    <style
       id="style830">.cls-1{fill:#e2e4e1;stroke:#000;stroke-width:3px;}.cls-2{fill:#1c2527;}.cls-3{fill:#912521;}.cls-4{fill:#922522;}.cls-5{fill:#922622;}.cls-6{fill:#bfc1bf;}.cls-7{fill:#dcddda;}.cls-8{fill:#dadbd8;}.cls-9{fill:#e1e3e0;}.cls-10{fill:#dee0dd;}.cls-11{fill:#dfe1de;}</style>
    <radialGradient
       id="rg"
       gradientUnits="userSpaceOnUse"
       cx="220"
       cy="220"
       r="405"
       gradientTransform="matrix(0.80510068,0,0,0.80302287,-0.0301991,-0.89702286)">
      <stop
         style="stop-color:#ffffff;stop-opacity:.3"
         offset="0"
         id="stop753" />
      <stop
         style="stop-color:#ffffff;stop-opacity:.2"
         offset=".2"
         id="stop755" />
      <stop
         style="stop-color:#666666;stop-opacity:.1"
         offset=".6"
         id="stop757" />
      <stop
         style="stop-color:#000000;stop-opacity:.13"
         offset="1"
         id="stop759" />
    </radialGradient>
  </defs>
  <title
     id="title834">Corbray-Shield</title>
  <g
     id="Layer_2"
     data-name="Layer 2">
    <path
       class="cls-1"
       d="M927,122.76V328.6a314.37,314.37,0,0,1-2.28,38c-.11.93-.24,1.86-.36,2.79s-.24,1.86-.39,2.79q-.7,5.05-1.61,10c-.07.44-.15.87-.23,1.31-.15.8-.29,1.6-.45,2.39s-.34,1.8-.51,2.69l-.45,2.22-.24,1.16c-.15.71-.3,1.44-.47,2.15q-.8,3.55-1.61,7l-.58,2.32-.52,2q-1.52,5.88-3.27,11.61c-.29,1-.59,1.94-.9,2.92l-.6,1.88c-.19.63-.39,1.25-.6,1.86l-1.1,3.26c-.37,1.09-.68,2-1,3-.47,1.28-.92,2.55-1.39,3.81-.36,1-.73,2-1.11,3l-.19.49c-.43,1.14-.87,2.25-1.32,3.37s-.87,2.16-1.32,3.19a3.35,3.35,0,0,1-.18.42c-.4,1-.8,2-1.25,3s-.75,1.75-1.13,2.62l-.66,1.49c-.47,1.07-.95,2.12-1.44,3.15s-.9,2-1.36,2.93l-1,2.12c-.3.63-.6,1.25-.91,1.88-.63,1.32-1.31,2.64-2,4q-2.53,5-5.19,9.77l-2,3.57-.11.21q-2.13,3.71-4.33,7.33c-.71,1.2-1.46,2.39-2.18,3.54-.1.16-.19.31-.3.46-.55.89-1.12,1.78-1.69,2.66l-.66,1c-.65,1-1.31,2-2,3l-.13.18c-.66,1-1.32,2-2,3l-.45.67q-2.26,3.28-4.54,6.46l-.31.42c-.8,1.07-1.54,2.14-2.31,3.19s-1.66,2.23-2.5,3.32q-2.29,3-4.61,6l-.8,1c-.73.93-1.48,1.85-2.22,2.76L854,526.61l-.57.69L851,530.1q-2.83,3.32-5.72,6.53c-.75.85-1.52,1.69-2.29,2.51l-2.22,2.39q-3,3.19-5.93,6.24-2.76,2.83-5.53,5.59c-.91.91-1.84,1.82-2.76,2.71s-1.85,1.78-2.78,2.67l-2.28,2.11c-.68.65-1.36,1.28-2.05,1.91a448.64,448.64,0,0,1-61.76,47.47c-.86.55-1.73,1.1-2.58,1.6q-6.42,4.07-12.46,7.63l-2.41,1.4-2.36,1.36-2.34,1.35-2.22,1.28c-8.35,4.68-15.91,8.59-22.38,11.76l-1.61.8c-10.63,5.15-18.11,8.22-21,9.35l-.42.18-.61.23-.14.06h-.08l-.23-.1-.21,0-1.07-.42-.55-.23c-.87-.34-2-.8-3.36-1.38l-.47-.18c-1.76-.8-3.88-1.67-6.33-2.77l-1.39-.61a443.16,443.16,0,0,1-39.74-20.6c-.8-.45-1.61-.92-2.36-1.38a473.14,473.14,0,0,1-44.78-30l-2.62-2c-1-.75-2-1.52-2.95-2.29l-2.81-2.21c-6.19-4.92-12.43-10.15-18.64-15.69L558.08,566q-2.3-2.05-4.59-4.2l-1.67-1.57L550,558.54l-2-1.94c-1.12-1.07-2.24-2.16-3.34-3.26-.84-.8-1.69-1.67-2.52-2.51l-.24-.26q-1.25-1.25-2.5-2.51c-.66-.68-1.32-1.36-2-2l-2-2.07-.13-.15-2.1-2.24q-3.36-3.61-6.66-7.36c-.68-.8-1.36-1.55-2-2.35-.57-.65-1.12-1.28-1.66-1.94l-2-2.39q-4.26-5.11-8.39-10.48-1.13-1.45-2.24-2.92c-1.89-2.47-3.73-5-5.57-7.55l-1.68-2.39c-.13-.16-.24-.34-.36-.5-.59-.85-1.19-1.7-1.77-2.55-.95-1.38-1.89-2.77-2.82-4.17q-1.11-1.64-2.18-3.31l-.15-.24-2.22-3.47c-.07-.13-.15-.24-.22-.37-.71-1.14-1.41-2.27-2.1-3.4s-1.49-2.46-2.21-3.7-1.44-2.39-2.13-3.67q-4.6-8-8.77-16.47c-.35-.69-.69-1.38-1-2.08-.22-.44-.44-.89-.65-1.35-.43-.87-.8-1.75-1.25-2.63a27.17,27.17,0,0,1-1.15-2.47l-.23-.48c-.26-.58-.52-1.16-.8-1.75l-.26-.57c-.26-.58-.52-1.18-.8-1.77q-1.44-3.26-2.78-6.58c-.42-1-.8-2-1.23-3.07-.1-.26-.21-.53-.31-.8-.4-1-.8-2-1.16-3s-.68-1.82-1-2.74l-.23-.65c-.18-.45-.34-.91-.5-1.36q-1-2.69-1.89-5.44c-.21-.6-.4-1.21-.6-1.8-.26-.8-.51-1.54-.75-2.31-.14-.42-.26-.8-.39-1.22-.26-.8-.5-1.6-.75-2.39-.31-1-.61-2.06-.92-3.1-.18-.65-.39-1.28-.57-2-.37-1.28-.74-2.58-1.08-3.89-.19-.68-.37-1.35-.55-2-.13-.5-.26-1-.39-1.51-.32-1.22-.63-2.46-.92-3.7-.18-.7-.35-1.4-.52-2.11-.07-.29-.13-.57-.19-.85-.37-1.55-.71-3.11-1.07-4.69-.26-1.16-.5-2.33-.74-3.5-.14-.71-.29-1.43-.43-2.14s-.32-1.6-.47-2.45a2.13,2.13,0,0,0-.1-.47c-.15-.8-.3-1.64-.45-2.48s-.31-1.84-.47-2.77-.3-1.8-.45-2.71q-.87-5.52-1.56-11.17A314.73,314.73,0,0,1,447,328.58V122.76Z"
       transform="translate(-445.5 -121.26)"
       id="path836" />
  </g>
  <g
     id="Layer_4"
     data-name="Layer 4">
    <path
       class="cls-2"
       d="M659.87,516.94l-2.05-.3c2.26-1.7,4.69-1.82,6.9-2.23,4.77-.88,7.83-3.46,9.26-8.09.45-1.46,1.14-2.85,2-4.82-5,2.67-9.57,5.09-14.75,5.6a1.1,1.1,0,0,1,.5-1.46c9.63-5.84,14.51-15.22,18.69-25.12a5.56,5.56,0,0,0-.82-6.22,43.44,43.44,0,0,1-7.88-16,10.86,10.86,0,0,0-5-6.92,6.59,6.59,0,0,1-3.32-4.26c-1.29-5.73-4.89-9.85-9.38-14.18.85,4,1.32,7.6,2.4,11,1.45,4.54.29,8-3.26,10.91-4.15,3.46-8.18,7.06-12.82,11.08-1-9.46,1.74-19.13-5.06-27.84.66,8.11,1.9,15.36,1.69,22.74-.25,8.43-7.22,17.12-16.34,19.06,1.6-10.36,1.85-20.5-2.9-30L616,450c0,8.83-.14,17.66.07,26.48.08,3.34-.83,5.6-3.91,7-4.73,2.2-8.61,6.18-14.31,7,6.18-14,4.69-28.33,3.18-43.44-2.24,3.05-1.55,5.89-2.18,8.41s-.71,5.27-1.23,7.87c-1.67,8.3-1.86,16.82-3.88,25.09-1,4.1-2.91,6.66-7.08,7.43-5.17,1-10,3.41-15.46,3.13a1.4,1.4,0,0,1-1.41-1c.54-.37,1.11-.83,1.73-1.19,7.46-4.44,10.58-11.16,10.7-19.67.11-7.59.84-15.18.75-22.76-.15-12.23,4.16-22.16,13.36-30.31s18.51-16,29.75-21.28c9-4.23,18.09-5,27.48-1.65a9.71,9.71,0,0,0,1.54.4c11.64,2.07,14.28,3.89,18-10.52,1.28-4.93,3.16-9.49,7-13.2,1.5-1.47,2.21-3.91,2.89-6,1.73-5.43,3.54-10.85,4.28-16.54a.88.88,0,0,1,1.47,0c2.2,8.92,3,18.28,9.73,25.61,3.29,3.59,4,8.62,5.3,13.2,2.4,8.44,4.06,9.65,12.76,8.24,3.65-.59,7.23-1.67,10.85-2.47a33,33,0,0,1,21.37,2.48c14.81,6.76,26.94,17,37.58,29.1,4.79,5.45,6.08,12.31,6.47,19.3.56,10,.89,19.94,1.32,29.91.3,7,4,11.93,9.59,15.68.84.56,1.66,1.16,2.79,1.94a7.35,7.35,0,0,1-5.52.63c-4.25-1-8.4-2.49-12.67-3.38-3.56-.74-5-3-5.82-6.17-2.33-8.61-2.55-17.53-4.14-26.24-.93-5.08-1.6-10.2-2.44-15.69-3.72,7.63-2.48,29.89,2.34,43.3-6.7-1.74-11.81-5.74-17.19-9.19-1.37-.88-1.08-2.6-1.08-4.06,0-9.15,0-18.3-.66-27.52-3.64,4.22-4.3,9.3-4.72,14.31-.34,4.06-.78,8.2.59,12.27.32.94.7,2.64-.45,3.23-.68.35-2-.3-2.94-.76-4.71-2.42-8.17-6.35-11.71-10.12-1.44-1.54-.93-3.79-1-5.78-.3-8.11.61-16.14,1.89-25.24-6.89,8.93-4.46,18.5-5.16,28.42-5.69-5.21-10.73-9.78-15.71-14.43-2-1.86-1.09-4.28-.72-6.42.7-4,1.72-8,2.74-12.59-4.08,4.23-7.89,7.8-9.09,13.31a8.32,8.32,0,0,1-4.11,5.58,10.58,10.58,0,0,0-4.67,6.72,42.15,42.15,0,0,1-7.69,15.61c-1.86,2.35-1.88,4.43-.8,6.94,4.2,9.74,9.07,19,18.58,24.71.3.18.44.61,1,1.39-5.65-.46-10.13-2.82-15.23-5.65,1.76,4.34,2.37,9,6,11.05s7.91,2.5,11.85,4.16l-2.7.3c-1.54,1.27-3.29.76-5,.48-2.25-.38-2.6.6-2,2.46.34,1,.73,2,1,3s1.28,2.59.06,3.28c-1.49.84-2.2-.94-3.05-1.86a21.77,21.77,0,0,1-2.6-4c-.35-.12-.51,0-.68.27-.82,1.24-1.15,3.7-3,3.06s-.67-2.78-.53-4.3c.22-2.39,1.42-4.57,1.53-7-.64-2.67-1.35-5.29-3.92-7.32-1.71,2.78-.68,5.91-1.89,8.48a14.23,14.23,0,0,0-.41,6.32c.23,2-.38,3.44-2.65,2.09a8.51,8.51,0,0,0-9.41,0c-2.21,1.3-2.89,0-2.69-2,.14-1.46.33-2.91.33-4.37a22.06,22.06,0,0,0-.76-8.22c-.24-.71-.23-1.75-1.22-1.81s-1.29.81-1.69,1.47a13.43,13.43,0,0,0-2,5.93c.52,2.61,1.45,5.12,1.77,7.77.14,1.18.51,2.69-.9,3.12-1.15.34-1.64-1.07-2.21-1.94a9,9,0,0,0-1.11-1.85,24.56,24.56,0,0,1-4.1,5.71c-.47.43-1,.95-1.76.52s-.55-1.13-.46-1.79c.32-2.31,2.86-4.75,1.29-6.65-1.29-1.55-4.27.49-6.47-.3A2.5,2.5,0,0,1,659.87,516.94Z"
       transform="translate(-445.5 -121.26)"
       id="path839" />
    <path
       class="cls-2"
       d="M747.12,274.53c3.11,4.84,8.16,8.54,8.69,14.92.2,2.47.63,4.93-1.23,7.56a134.34,134.34,0,0,0-19.48-21.26c-1.11,2.38.59,3.14,1.48,4.09A179.46,179.46,0,0,1,749.66,296c2.57,3.52,3.15,7.54,3.11,11.72,0,1-.35,2.35-1.3,2.72-1.34.52-1.58-1-2.18-1.81-5.46-7-10.41-14.48-16.61-20.94-.83-.86-1.66-1.73-2.56-2.52a1.39,1.39,0,0,0-2.13,0c-.46.62.18,1.17.64,1.67,2,2.14,3.88,4.4,6,6.43,5.24,5.06,9.1,11.08,12.5,17.44,2.27,4.24,1.37,10.56-2.08,14.75-1-10.94-8.15-18.27-15.19-25.38-7.66-7.75-16.74-14-24-22.2-8.68-9.73-13.37-20.94-11-34,2.5-13.62,15.54-25.25,30.06-27.83,2.6-.46,5.2-1.67,7.87-1,8.1,2.13,11.22-4.84,16.08-8.64a1.33,1.33,0,0,0,.23-1.79c-3.32-6.62-7.63-12.11-15.21-14.21-4.14-1.15-7.88.23-11.62,1.49-7.8,2.63-15.9,2.75-24,3,3.9-2.11,8.45-1.61,12.47-3.12s8.05-2.63,11.55-6c-5.83-2.5-11.11-1.44-16.44.47-5.13,1.83-9.83,4.69-15,6.5,6.43-6.19,13.33-11.66,21.75-14.48,4.37-1.46,8-3.3,11.07-6.87,7.35-8.42,18.52-7.26,26.79.5,7.63,7.16,13.41,15.39,16.17,25.63,1.1,4.07,6.63,5.69,10.09,3.23,1.54-1.1.72-2.68.78-4,.65-15.25,3.53-29.77,12.85-42.42,9.76-13.25,27.37-18.54,42.82-7.48,10.33,7.4,19.68,15.71,26.67,26.56,4,6.19,10.35,10.25,15.75,15.15,3.61,3.28,6.91,7.12,11.82,8.62,2.14.65,1.21,2.33,1.38,3.63s-.29,2.1-1.76,2.58c-5.47,1.77-10.41,2.38-14.95-2.55a131.18,131.18,0,0,0-19.76-17.35c-.86-.62-1.73-1.25-2.64-1.81s-2.15-1.65-3.16-.36c-.86,1.1.35,2,1,2.69q5.21,5.24,10.57,10.33c3.08,2.94,6.25,5.79,9.34,8.72,1.41,1.34,1.18,2.16-.82,2.59a17.67,17.67,0,0,1-15.11-3.1c-5.23-3.93-9.63-8.76-14.58-13-1.81-1.54-4.45-4.11-5.91-2.41-1.86,2.17,1.58,3.8,3.18,5.28,4.47,4.14,9.06,8.14,13.67,12.26-5.87,3.43-16.3,1.9-20.3-2.91a43.84,43.84,0,0,0-6.48-5.9c-1.32-1.06-2.94-2-4.9-.35l9.6,9.15c-4.72,2.73-9.78,1.93-14.64,2a27.49,27.49,0,0,0-16.68,5.51c-1.69,1.29-2,2.44-1,4.36,5.84,11.55,15.12,19.35,26.6,24.85,1.35.65,2.23.08,3.3-.45,12.73-6.34,26.36-7.9,40.36-7.68,7.89.12,9.68,6.27,13,12.66-10.28-4.58-20-3.09-29.65-2.25l0,1q11.07.55,22.14,1.09c4.06.19,7.92.85,10.83,4.06-.13.21-.17.38-.27.42-7.21,3.16-7.21,3.16-1.95,9.15.42.48.82,1,1.58,1.85-12.7,1.09-24.13-3-36.25-5.36,1.73,2.37,3.94,3.11,6.12,3.87,7.29,2.54,14.82,2.83,22.44,2.5,1.36-.06,3.4-.59,3.79,1.14.32,1.4-1.3,2.67-2.55,3.32-4.53,2.34-9.12,3.77-14.49,2.56-7.63-1.71-15.6-1.73-23.08-4.37-4.39-1.55-8.83-2.93-12.69-5.65a9.59,9.59,0,0,0-6-1.76c-4.75.09-9.52.19-14.35-.9,1.68,7.93,1.94,8.15,9,8.93a13.59,13.59,0,0,1,6.08,1.62c1,.52,1.75,1.18.22,1.86-1,.44-2.11-.07-3.17,0-2.28.21-4.49.43-3.05,3.73a1.66,1.66,0,0,1-.39,2.17,1.28,1.28,0,0,1-1.74-.54c-3.16-5.09-6.62-2.62-10.12-.5-1,.58-2.08,2-3.13,1-1.22-1.18.16-2.43.8-3.53a19.78,19.78,0,0,1,2.83-3.36c.82-.88,1.74-1.74.95-3.12s-1.45-2.82-2.24-4.18c-1.68-2.92-7.93-5.8-11.19-5.21-.56.1-1.14.28-1.26.8-.73,3.35-3,6.65-.38,10.12,1.3,1.35,2.9,2.33,4.25,3.6.7.66,1.26,1.5.68,2.47a1.58,1.58,0,0,1-2.14.49c-2.79-1.37-4.15-.47-4.59,2.52-.15,1-.67,2.21-2,2.07a2.26,2.26,0,0,1-1.84-2.32c-.26-3.28-1.85-3.08-4.18-1.9-1.11.56-2.83,1.37-3.6,0s.86-2.27,1.86-3.1c1.85-1.52,4.21-2.25,5.95-3.94q.78-5.53,1.56-11.05c.19-1.31.68-2.69-1.38-3a52.51,52.51,0,0,1-25.33-11.8,25,25,0,0,0-2.27-1.41c-.64,10-2.47,19.57,2.46,28.76,2.38,4.44,4.25,9.17.9,14.5-2.38-3.43-4.56-6.59-7.73-8.84a5.45,5.45,0,0,1-3.17-2.14C745.83,272.33,746.86,273.17,747.12,274.53Z"
       transform="translate(-445.5 -121.26)"
       id="path841" />
    <path
       class="cls-2"
       d="M618.22,273.48a29.44,29.44,0,0,0-7.64,8.93c-3.05-4.6-2.27-9,0-12.76,5.28-8.76,4.06-18.17,3.6-27.56a17.5,17.5,0,0,0-.83-3.11c-6.85,5.75-14.08,10.05-22.42,12.42-2.08.59-5.21-.3-6.08,2-.65,1.73.49,4.11.77,6.22s.53,4.49.79,6.74c2,1.92,4.83,2.75,6.86,4.68.67.64,1.51,1.42,1,2.37s-1.62.61-2.52.42a6.68,6.68,0,0,1-1.87-.65c-1.76-1-3-.92-3.29,1.46-.18,1.3-.46,2.94-2.08,3s-1.95-1.62-2.17-2.88c-.42-2.31-1.53-2.85-3.63-1.91-1,.43-2.21.85-2.85-.32-.73-1.33.38-2.2,1.31-3a46.57,46.57,0,0,0,3.63-3.07c2.58-3.49.32-6.8-.4-10.15-.11-.51-.7-.69-1.27-.78-3.52-.58-9.58,2.37-11.39,5.6-.71,1.27-1.37,2.56-2,3.84s-.06,2,.71,2.83a20.49,20.49,0,0,1,2.87,3.32c.71,1.19,2.34,2.54,1,3.83-1.14,1.07-2.34-.61-3.46-1.18-.95-.48-1.92-.95-2.81-1.51-2.32-1.47-4.2-1.15-5.87,1.08-.67.9-1.45,2.34-2.81,1.64-1.13-.58-.55-1.95-.18-2.9.84-2.15-.5-2.5-2.08-2.81-1.33-.27-2.69.16-4-.11-1.7-.36-1.54-1.16-.16-1.92a13.6,13.6,0,0,1,6.08-1.62c7.1-.77,7.36-1,9-8.8-5.61.93-11.17.76-16.72.86a4.5,4.5,0,0,0-2.18.88c-10.45,6.89-22.37,8.68-34.42,10.38-5.52.78-10.75,1.47-15.81-1.43a9.32,9.32,0,0,1-2-1.19c-.88-.88-2.5-1.7-1.85-3.14.52-1.16,2.12-.89,3.3-.84,7.74.35,15.41.12,22.84-2.47A13.9,13.9,0,0,0,523.5,256c-12.33,2.31-23.71,6.47-36.24,5.35,1.35-1.74,2.52-3.42,3.86-4.93,2.26-2.55,1.45-4-1.51-4.91-1.1-.34-2.16-.83-3.43-1.33,3.12-3.44,7-4.1,11-4.29,7.39-.35,14.77-.72,22.14-1.55-9.62-1.44-19.24-2.83-28.76,1.3,2-8.92,6.24-12.24,14.86-12.26,13.2,0,26,1.79,37.9,7.91a3.6,3.6,0,0,0,3.66-.16c11-5.26,19.74-12.87,25.58-23.71,1.36-2.52,1-4-1.27-5.62-6.52-4.84-14-5.3-21.64-5-3.18.11-5.9-.9-9.52-1.55l10-9.52c-1.78-1.82-3.43-.77-4.83.26a42.9,42.9,0,0,0-5.45,4.68c-5.66,5.82-13.55,7.65-21.65,4.5,4.48-4.08,8.75-8,13-11.85a24.44,24.44,0,0,0,2.43-2.06c1-1.19,3.52-2.28,1.84-4.08-1.37-1.47-3.32.17-4.53,1.21-4.73,4.07-9.31,8.31-13.92,12.52s-10.09,6.25-16.5,5.05c-2.64-.5-3.37-1.25-1.08-3.34,4.92-4.49,9.77-9.05,14.61-13.62,1.65-1.55,3.24-3.17,4.75-4.85.65-.73,1.89-1.59,1.06-2.69-1-1.32-2.18-.33-3.14.32a154.78,154.78,0,0,0-22.19,18.8c-2.34,2.31-4.64,5-8.53,4.26-2.21-.41-4.4-1-6.61-1.36a2,2,0,0,1-1.8-2.53c.19-1.29-.78-3,1.35-3.65,5.53-1.81,9-6.47,13.37-9.87,8.37-6.5,14.61-14.9,21.26-23A92.73,92.73,0,0,1,534.53,146c16-10.6,34.52-3.7,43.85,11.54,7.46,12.17,10.11,25.57,10.45,39.58.05,2.09-.19,4.26,2.72,4.2,2.69-.06,6.2,2.48,7.65-2.22,2.21-7.15,4.88-14.11,9.91-19.83a73.33,73.33,0,0,1,8.36-8.54c9.59-7.84,19.49-6.77,27.46,3a11.09,11.09,0,0,0,6.2,3.77c9.44,2.59,17,8.23,23.9,15-9.86-3.69-18.9-10.88-31.15-6.72,7.49,5.92,15.94,7,24.19,8.93-7.31-.13-14.54-.11-21.64-2.17-4.38-1.27-8.62-3.41-13.52-2.21-7.87,1.94-12.18,7.57-15.6,14.28-.58,1.15.12,1.77.8,2.38,2.86,2.6,5.76,5.15,8.62,7.74a3,3,0,0,0,2.54.68c17.88-1.51,31.1,5.73,39.86,21.32,3.6,6.41,3.44,13.17,2.24,20.14-2.5,14.49-12.71,23.57-22.87,32.57-7.08,6.26-14.46,12.11-20.11,19.85-3.57,4.88-6.63,9.83-6.93,16.22a14.41,14.41,0,0,1-2-15.26c4.28-8.59,10.7-15.49,17.17-22.39.74-.79,2.93-1.55,1.41-2.93-1.28-1.17-2.3.7-3.18,1.56-6.7,6.55-11.78,14.4-17.54,21.72-.68.86-.89,2.68-2.39,2.12-1-.39-1.37-1.9-1.34-3.1.09-4,.66-7.93,3.15-11.33a177.05,177.05,0,0,1,13.37-16.4c.82-.87,2.33-1.62,1.16-3.77a135.32,135.32,0,0,0-19.64,21.48c-2.25-5.75-1.16-10.46,1.61-14.82,1.78-2.79,4-5.29,6-7.92.27-1.36,1.29-2.22,2.13-3.2A5.57,5.57,0,0,1,618.22,273.48Z"
       transform="translate(-445.5 -121.26)"
       id="path843" />
    <path
       class="cls-3"
       d="M581.57,267.07l-5.87,5.08c2.81,1,4.52-2.45,6.52-1,1.81,1.34.16,4.49,2.45,6.09,1.87-1.72,0-5.48,2.5-6.07,2.06-.48,4.11,2.07,7,2.17-1.49-2.2-3.58-3.05-5.44-4.17-1.13-.68-2.53-1.1-2.28-2.86,8.89-1.09,17.62,10,19.37,18.55,2.61,12.82-1.92,23.35-8.07,33.95-6.46,11.13-14.7,20.85-22.66,30.83-2,2.52-3.49,2.76-4.61-.53-3-8.72-8.81-15.71-13.85-23.19-7.38-10.95-14.3-22.16-17.06-35.29-1.21-5.76-1.29-11.66,1.73-17.11,1.72-3.11,3.8-5.78,7.67-6.28,0,.46-.91,1.58.4,1.16,2.77-.87,5.17.5,7.84.68-.09,2.1-2.05,3.52-1.62,5.65,5.75-6.06,5.52-6.24,14.73.21a16.47,16.47,0,0,0-4.5-6.44c-1-.94-2.66-1.71-1.23-3.51a4.94,4.94,0,0,1,2.7.35c4.07,1.7,8.07,3.74,12.54,1.12C580.31,266.19,581.08,266.57,581.57,267.07Z"
       transform="translate(-445.5 -121.26)"
       id="path845" />
    <path
       class="cls-3"
       d="M801.84,265c1.29,1.54,0,2.37-.93,3.25a19.08,19.08,0,0,0-4.89,6.51,64.59,64.59,0,0,0,5.73-3.37c3.27-2.52,5.5-1.21,7.49,1.66.43.61.92,1.18,1.65,2.11.13-2.4-1-3.9-2-5.85,2.87-.52,5.29-1.75,8.16-.9,1.32.39.41-.71.4-1.17,5.52,1.61,9.1,6.56,9.84,13.06.92,8.11-1.43,15.49-4.5,22.8-4.57,10.87-11.29,20.46-18,30a70.76,70.76,0,0,0-8.85,16c-1,2.62-2.14,3.48-4.37.84-10.82-12.85-21-26.11-28.31-41.37-5.21-10.88-4.73-21.8.74-32.18,3.16-6,8.3-10.43,16-10.09.23,2.21-1.74,2.4-3,3.22-1.6,1.06-3.41,1.85-4.69,3.65,2.86.18,4.84-2.53,6.93-2,2.54.61.63,4.36,2.5,6.07,2.3-1.59.63-4.77,2.46-6.08,2-1.42,3.59,1.72,6.05,1.22-1.05-2.67-3.93-3.34-5.4-5.35a3,3,0,0,1,3.67-.15c2.59,1.62,4.9,1.06,7.35-.31A10.93,10.93,0,0,1,801.84,265Z"
       transform="translate(-445.5 -121.26)"
       id="path847" />
    <path
       class="cls-3"
       d="M681.48,515.3c.49,2.22-.45,4.36-.65,6.69,6.33-3.61,7.87-3.62,13.35-.07-.36-3.24-1-6.35.52-9.25a9.25,9.25,0,0,1,7.56-.42l-2.4,11.32c2.15-1.73,2.22-3.62,3.72-5.43a44.06,44.06,0,0,0,5.9,8.06c-1-3.15-1.52-5.09-2.47-7.37-1.16-2.81.3-2.94,2.39-2.66l5.91.79c7.74,8.74,5,19.24-.89,26.48A176.72,176.72,0,0,1,691.14,567c-2,1.72-3.55,1.82-5.89.28-6.41-4.22-13.67-7.1-18.86-13.19-3.72-4.37-7.87-8.52-9.86-13.91-3-8.15-2.57-16.15,3.34-23.19,2.22-.28,4.47-.12,6.69-.72,2.6-.71,3.41.32,2.33,2.92-.9,2.15-1.34,4.08-2.37,7.16a29.23,29.23,0,0,0,5.79-8.45l3.08,5.6.65-.2-2.2-10.39A9.51,9.51,0,0,1,681.48,515.3Z"
       transform="translate(-445.5 -121.26)"
       id="path849" />
    <path
       class="cls-4"
       d="M575.46,360.57c-2.37,12.41-.78,25.18-3.49,37.56-.62,2.85-2,5.24-5.26,4.78s-3.74-3.37-3.49-6.18c.79-8.69,4.36-16.64,6.69-24.92,1.32-4.7,3-9.34,2.91-14.35,0-.82-.5-2.11.86-2.27s1.55,1.11,1.62,2.18S575.41,359.51,575.46,360.57Z"
       transform="translate(-445.5 -121.26)"
       id="path851" />
    <path
       class="cls-4"
       d="M790.57,361.2c1.11-2.27-.74-5.74,2-5.79,2.13,0,.73,3.29,1.06,5.08,1.82,9.82,5.61,19.06,8.24,28.65a41.19,41.19,0,0,1,1.33,8.62c.15,2.67-.82,4.94-3.71,5.22-2.54.25-4.25-1.42-4.77-3.91a73.35,73.35,0,0,1-1.57-9.39C792.4,380,792.47,370.33,790.57,361.2Z"
       transform="translate(-445.5 -121.26)"
       id="path853" />
    <path
       class="cls-5"
       d="M681.51,588.32c0-6.78,3.37-12.05,3.31-18,0-.24.45-.64.74-.7.61-.13,1,.36,1.13.87a70.18,70.18,0,0,1,3.76,20.24c0,2.21-1.73,3.41-3.66,3.54a4.82,4.82,0,0,1-5.1-3.64A7.08,7.08,0,0,1,681.51,588.32Z"
       transform="translate(-445.5 -121.26)"
       id="path855" />
    <path
       class="cls-6"
       d="M618.22,273.48a24.31,24.31,0,0,1,5.82-5.13c-1.11,3.18-3,4.62-4.76,6.17Z"
       transform="translate(-445.5 -121.26)"
       id="path857" />
    <path
       class="cls-6"
       d="M747.12,274.53a22.09,22.09,0,0,1-5-5.75c3.21.91,4.42,3.12,6.1,4.7Z"
       transform="translate(-445.5 -121.26)"
       id="path859" />
    <path
       class="cls-7"
       d="M681.48,515.3l-7.63-2.44c.4-3.77,1.78-8.79,5-8.76,2.79,0,2.44,5.53,2.69,8.83C681.57,513.72,681.49,514.51,681.48,515.3Z"
       transform="translate(-445.5 -121.26)"
       id="path861" />
    <path
       class="cls-8"
       d="M702.26,512.24c-2.48.83-5,.4-7.56.42.86-1.87.34-3.89.66-5.8.2-1.21.21-2.94,1.66-3.23,1.22-.24,1.88,1.16,2.52,2.16A18.1,18.1,0,0,1,702.26,512.24Z"
       transform="translate(-445.5 -121.26)"
       id="path863" />
    <path
       class="cls-9"
       d="M801.84,265c-3.08,1.46-6.16,2.93-9.25,4.38-1.21.57-2-.34-2.85-.91a8.48,8.48,0,0,0-4.9-1.41c-3-2.11-1.12-4.81-.75-7.22.86-5.68,1-4.86,6.4-4.81C797.71,255.09,799.12,260.5,801.84,265Z"
       transform="translate(-445.5 -121.26)"
       id="path865" />
    <path
       class="cls-10"
       d="M737.48,178.15c0,2.69-1.68,4.6-4.31,4.61-3.1,0-4-2.83-4.24-5.34-.26-2.75,1.63-4.2,4.22-4.17C736.06,173.27,737.32,175.21,737.48,178.15Z"
       transform="translate(-445.5 -121.26)"
       id="path867" />
    <path
       class="cls-9"
       d="M581.57,267.07c-.79.1-1.78-.08-2.33.33-5.75,4.26-9.92-.8-14.67-2.39.13-.23.27-.45.4-.68,4.73-8.52,4.73-8.52,14.41-9.92.6-.09,1.17-.57,1.81.07C582.59,255.91,582.92,265.41,581.57,267.07Z"
       transform="translate(-445.5 -121.26)"
       id="path869" />
    <path
       class="cls-11"
       d="M628.9,178.42c.2-3.25,1.48-5.17,4.39-5.17,2.59,0,4.47,1.47,4.18,4.21-.27,2.49-1.14,5.32-4.27,5.29A4.25,4.25,0,0,1,628.9,178.42Z"
       transform="translate(-445.5 -121.26)"
       id="path871" />
  </g>
  <g
     id="Layer_5"
     data-name="Layer 5">
    <path
       class="cls-2"
       d="M671.63,189.31s4.38,2.75,5.81,6.13a31.16,31.16,0,0,0-7.25-4.94Z"
       transform="translate(-445.5 -121.26)"
       id="path874" />
    <path
       class="cls-2"
       d="M694.75,189.31s-4.37,2.75-5.81,6.13a31.16,31.16,0,0,1,7.25-4.94Z"
       transform="translate(-445.5 -121.26)"
       id="path876" />
    <polygon
       class="cls-2"
       points="241.5 236.05 242.5 222.68 243.69 236.05 241.5 236.05"
       id="polygon878" />
    <polygon
       class="cls-2"
       points="328.29 150.49 325 153.32 329.83 151.2 328.29 150.49"
       id="polygon880" />
    <path
       class="cls-2"
       d="M787.46,271.75l4.38,2.33s-2.67-3.62-3.83-4.37Z"
       transform="translate(-445.5 -121.26)"
       id="path882" />
    <polygon
       class="cls-2"
       points="147.06 150.34 150.34 153.17 145.51 151.04 147.06 150.34"
       id="polygon884" />
    <path
       class="cls-2"
       d="M579.51,271.45a36.64,36.64,0,0,1-4.79,1.74,24,24,0,0,1,4.25-3.78Z"
       transform="translate(-445.5 -121.26)"
       id="path886" />
  </g>
  <path
     id="shine"
     d="M 1.5800021,0.70902314 V 207.0859 C 1.5800021,436.75044 241.5,526.689 241.5,526.689 c 0,0 239.92,-89.93856 239.92,-319.6031 V 0.70902314 Z"
     style="fill:url(#rg);stroke:#000000;stroke-width:2.41218" />
</svg>
