<?xml version="1.0" encoding="UTF-8" standalone="no"?>
<svg
   viewBox="0 0 483 527.48"
   version="1.1"
   id="svg45"
   sodipodi:docname="House Crakehall HotD.svg"
   inkscape:version="1.2.1 (9c6d41e410, 2022-07-14)"
   xmlns:inkscape="http://www.inkscape.org/namespaces/inkscape"
   xmlns:sodipodi="http://sodipodi.sourceforge.net/DTD/sodipodi-0.dtd"
   xmlns="http://www.w3.org/2000/svg"
   xmlns:svg="http://www.w3.org/2000/svg"
   xmlns:rdf="http://www.w3.org/1999/02/22-rdf-syntax-ns#"
   xmlns:cc="http://creativecommons.org/ns#"
   xmlns:dc="http://purl.org/dc/elements/1.1/">
  <sodipodi:namedview
     id="namedview47"
     pagecolor="#ffffff"
     bordercolor="#000000"
     borderopacity="0.25"
     inkscape:showpageshadow="2"
     inkscape:pageopacity="0.0"
     inkscape:pagecheckerboard="0"
     inkscape:deskcolor="#d1d1d1"
     showgrid="false"
     inkscape:zoom="0.79339502"
     inkscape:cx="318.25256"
     inkscape:cy="236.95636"
     inkscape:window-width="1920"
     inkscape:window-height="1017"
     inkscape:window-x="-8"
     inkscape:window-y="-8"
     inkscape:window-maximized="1"
     inkscape:current-layer="svg45" />
  <defs
     id="defs4">
    <style
       id="style2">.cls-1{fill:#cd5700;}.cls-2{fill:#211e1f;}.cls-3{fill:#dfd5b5;}.cls-4{fill:#fafafa;}.cls-5{fill:#dbd0b1;}.cls-6{fill:#242020;}.cls-7{fill:#282424;}.cls-8{fill:#262122;}.cls-9{fill:#2b2525;}.cls-10{fill:#f2f0f0;}.cls-11{fill:none;stroke:#000;stroke-width:3px;}</style>
    <radialGradient
       id="rg"
       gradientUnits="userSpaceOnUse"
       cx="220"
       cy="220"
       r="405"
       gradientTransform="matrix(0.80510068,0,0,0.80302287,-0.03020086,-0.106046)">
      <stop
         style="stop-color:#ffffff;stop-opacity:.3"
         offset="0"
         id="stop753" />
      <stop
         style="stop-color:#ffffff;stop-opacity:.2"
         offset=".2"
         id="stop755" />
      <stop
         style="stop-color:#666666;stop-opacity:.1"
         offset=".6"
         id="stop757" />
      <stop
         style="stop-color:#000000;stop-opacity:.13"
         offset="1"
         id="stop759" />
    </radialGradient>
  </defs>
  <title
     id="title6">House Crakehall</title>
  <g
     id="Layer_2"
     data-name="Layer 2"
     style="fill:#bd853f;fill-opacity:1">
    <path
       class="cls-1"
       d="M927,122.76V328.6a314.37,314.37,0,0,1-2.28,38c-.11.93-.24,1.86-.36,2.79s-.24,1.86-.39,2.79q-.7,5.05-1.61,10c-.07.44-.15.87-.23,1.31-.15.8-.29,1.6-.45,2.39s-.34,1.8-.51,2.69l-.45,2.22-.24,1.16c-.15.71-.3,1.44-.47,2.15q-.8,3.55-1.61,7l-.58,2.32-.52,2q-1.52,5.88-3.27,11.61c-.29,1-.59,1.94-.9,2.92l-.6,1.88c-.19.63-.39,1.25-.6,1.86l-1.1,3.26c-.37,1.09-.68,2-1,3-.47,1.28-.92,2.55-1.39,3.81-.36,1-.73,2-1.11,3l-.19.49c-.43,1.14-.87,2.25-1.32,3.37s-.87,2.16-1.32,3.19a3.35,3.35,0,0,1-.18.42c-.4,1-.8,2-1.25,3s-.75,1.75-1.13,2.62l-.66,1.49c-.47,1.07-.95,2.12-1.44,3.15s-.9,2-1.36,2.93l-1,2.12c-.3.63-.6,1.25-.91,1.88-.63,1.32-1.31,2.64-2,4q-2.53,5-5.19,9.77l-2,3.57-.11.21q-2.13,3.71-4.33,7.33c-.71,1.2-1.46,2.39-2.18,3.54-.1.16-.19.31-.3.46-.55.89-1.12,1.78-1.69,2.66l-.66,1c-.65,1-1.31,2-2,3l-.13.18c-.66,1-1.32,2-2,3l-.45.67q-2.26,3.28-4.54,6.46l-.31.42c-.8,1.07-1.54,2.14-2.31,3.19s-1.66,2.23-2.5,3.32q-2.29,3-4.61,6l-.8,1c-.73.93-1.48,1.85-2.22,2.76L854,526.61l-.57.69L851,530.1q-2.83,3.32-5.72,6.53c-.75.85-1.52,1.69-2.29,2.51l-2.22,2.39q-3,3.19-5.93,6.24-2.76,2.83-5.53,5.59c-.91.91-1.84,1.82-2.76,2.71s-1.85,1.78-2.78,2.67l-2.28,2.11c-.68.65-1.36,1.28-2.05,1.91a448.64,448.64,0,0,1-61.76,47.47c-.86.55-1.73,1.1-2.58,1.6q-6.42,4.07-12.46,7.63l-2.41,1.4-2.36,1.36-2.34,1.35-2.22,1.28c-8.35,4.68-15.91,8.59-22.38,11.76l-1.61.8c-10.63,5.15-18.11,8.22-21,9.35l-.42.18-.61.23-.14.06h-.08l-.23-.1-.21,0-1.07-.42-.55-.23c-.87-.34-2-.8-3.36-1.38l-.47-.18c-1.76-.8-3.88-1.67-6.33-2.77l-1.39-.61a443.16,443.16,0,0,1-39.74-20.6c-.8-.45-1.61-.92-2.36-1.38a473.14,473.14,0,0,1-44.78-30l-2.62-2c-1-.75-2-1.52-2.95-2.29l-2.81-2.21c-6.19-4.92-12.43-10.15-18.64-15.69L558.08,566q-2.3-2.05-4.59-4.2l-1.67-1.57L550,558.54l-2-1.94c-1.12-1.07-2.24-2.16-3.34-3.26-.84-.8-1.69-1.67-2.52-2.51l-.24-.26q-1.25-1.25-2.5-2.51c-.66-.68-1.32-1.36-2-2l-2-2.07-.13-.15-2.1-2.24q-3.36-3.61-6.66-7.36c-.68-.8-1.36-1.55-2-2.35-.57-.65-1.12-1.28-1.66-1.94l-2-2.39q-4.26-5.11-8.39-10.48-1.13-1.45-2.24-2.92c-1.89-2.47-3.73-5-5.57-7.55l-1.68-2.39c-.13-.16-.24-.34-.36-.5-.59-.85-1.19-1.7-1.77-2.55-.95-1.38-1.89-2.77-2.82-4.17q-1.11-1.64-2.18-3.31l-.15-.24-2.22-3.47c-.07-.13-.15-.24-.22-.37-.71-1.14-1.41-2.27-2.1-3.4s-1.49-2.46-2.21-3.7-1.44-2.39-2.13-3.67q-4.6-8-8.77-16.47c-.35-.69-.69-1.38-1-2.08-.22-.44-.44-.89-.65-1.35-.43-.87-.8-1.75-1.25-2.63a27.17,27.17,0,0,1-1.15-2.47l-.23-.48c-.26-.58-.52-1.16-.8-1.75l-.26-.57c-.26-.58-.52-1.18-.8-1.77q-1.44-3.26-2.78-6.58c-.42-1-.8-2-1.23-3.07-.1-.26-.21-.53-.31-.8-.4-1-.8-2-1.16-3s-.68-1.82-1-2.74l-.23-.65c-.18-.45-.34-.91-.5-1.36q-1-2.69-1.89-5.44c-.21-.6-.4-1.21-.6-1.8-.26-.8-.51-1.54-.75-2.31-.14-.42-.26-.8-.39-1.22-.26-.8-.5-1.6-.75-2.39-.31-1-.61-2.06-.92-3.1-.18-.65-.39-1.28-.57-2-.37-1.28-.74-2.58-1.08-3.89-.19-.68-.37-1.35-.55-2-.13-.5-.26-1-.39-1.51-.32-1.22-.63-2.46-.92-3.7-.18-.7-.35-1.4-.52-2.11-.07-.29-.13-.57-.19-.85-.37-1.55-.71-3.11-1.07-4.69-.26-1.16-.5-2.33-.74-3.5-.14-.71-.29-1.43-.43-2.14s-.32-1.6-.47-2.45a2.13,2.13,0,0,0-.1-.47c-.15-.8-.3-1.64-.45-2.48s-.31-1.84-.47-2.77-.3-1.8-.45-2.71q-.87-5.52-1.56-11.17A314.73,314.73,0,0,1,447,328.58V122.76Z"
       transform="translate(-445.5 -121.26)"
       id="path8"
       style="fill:#bd853f;fill-opacity:1" />
  </g>
  <g
     id="Layer_4"
     data-name="Layer 4">
    <path
       class="cls-2"
       d="M865.18,314.8c9.68,2.45,17.87,5.86,26.91,7-1.22-2.43-3.44-2.7-5.29-3.41-3.78-1.47-6.22-2.36-2.1-6.93,5.59-6.21,5-12.78-.33-17.22.83,6.68-.53,8.72-7.19,10.94-9.44,3.16-18.54,1-27.65-1.66-12.42-3.67-23.48-10.21-34.51-16.66-24.29-14.19-50-20.25-78-14.73-3.2.63-6.66,2.34-10.65.27,5.12-3.26,10.42-5.32,15-10.71-11.62,4.74-21.92,9.64-34.52,9.37,3.75-3.4,7.87-3.84,11.18-5.86,0-1.22-.36-1.53-.92-1.47a4.7,4.7,0,0,0-1.33.47c-8.1,1.39-16,5.21-24.63,2.22,6.71-2.05,13.91-3,19.47-9.64-7.34,1.51-13.58,2.69-19.78,4.09s-12.54,1.06-18.86,1.06c6.51-3.13,13.73-3.81,19.93-7.52-9.91.94-19.67,2.86-30.49,1.84,3.52-3.11,8.13-2.84,10.91-6.45-9.25,1.53-17.86,4.74-28.48,4.26,5.3-3.05,10.06-4,14.64-8.31-11.35,3-21.06,6.36-32.82,7.46l11.83-8.37c-11.78,3.47-23.09,7.75-36.08,10.08l12-10.83-.47-.6L591,255.29l-.65-1.06q4.35-5.89,8.69-11.8c-8.72,4.4-15,11.83-24.22,15.32q4.62-7.09,9.28-14.2c-8.69,5.3-14,14-22,20,1.66-5.38,4.9-10,6.1-15.88-6.77,4.79-9.47,12.39-15.15,17.66l3.9-10.33c-6.13,5-8.52,12.28-12.86,19.29-1-4.38.2-8.23-2.12-11.69-1.62,2.34-1.33,4.65-1.62,6.87-1.24,9.5-2.1,19.14-6.86,27.77a58.86,58.86,0,0,0-5.62,15.32c-1.74,7.45-7,12-13.49,16.47-.54-8.94,3.37-15.71,6.5-22.78-13.9,8.66-20.34,21.54-21.14,37.41a13.09,13.09,0,0,1-3.63,8.85c-4,4.61-9.23,4.83-15,5,2.3,4.2,6,5.73,8.61,8.31,7,6.75,7.93,6.71,16.23,1.78a3.14,3.14,0,0,0,.48-.29c2.25-2,3.58-.48,5.14,1.13,2.3,2.37.06,3.14-1.27,4.29-.89.79-2.9,1.12-1.83,2.81s2.48.2,3.37-.45c6.59-4.76,14-5.68,21.94-5.94a53.5,53.5,0,0,1,17.86,2c-1-2.4-3.17-3.32-3-5.79,3.94-1,7.69.17,11.41,1.28s6.36,4.25,9.87,6.1c.5-2.78-2.87-3.78-2.08-6.65,9.2,2.81,14.67,9.88,21,17.65-.18-4.14-1.95-6.54-1.3-10.26l12.19,14.87c1.12-2.54-1.86-4.59.08-6.69,2.48.83,2.37,2.87,2.89,4.65,3.85,13.43,3.44,27.16,3.29,40.93-.2,16-1.36,31.32-15.2,42.45-3.49,2.81.17,3.79,2.22,4,6.53.57,13.1.71,19.64,1.19,3.82.29,5.24-1.1,4.29-4.9-.33-1.34-.92-4.14.79-3.7,6.57,1.72,2.73-2.7,2.86-4.5.23-3.2,0-6.42.17-9.62,0-1,.68-3,1.78-2,3,2.73,2.36-.18,2.6-1.48.92-5,1.75-10,2.57-15,.44-2.66.83-5.27,4.53-2.34-1.84-8.91-.29-16.82,2.42-24.67a178.34,178.34,0,0,1,4.11,18c2.52,13.69,2.43,27-6.21,38.9-1.42,2-2.13,4.43-3.34,6.54-1.78,3.1-1.59,5,2.55,4.91,5.85-.08,11.68-.11,17.53-.21a11.25,11.25,0,0,0,2.18-.48c-1.86-5,3.69-6.57,4.73-10.24.44-1.5-.17-3.32,1.22-4.47,2.24.26,2.05,3.26,4.55,3.38-1-6.5-4.44-12.42-3.88-19.11,2.89-.12,3.31,3.75,6.29,3.37-1-6.87-3.13-13.36-3.11-20.18,0-3.1,0-5.83,4.06-2.61a2.27,2.27,0,0,0,2.86.41c-4.61-8.16-3-17.13-3.29-25.9-.11-3.16,1.13-4.43,4-2.84,6.06,3.31,13.17,2.36,19.88,5.94-2.15-5,.38-4.08,2.84-3.84,7.15.73,14.26,2.37,21.29-1.44a9.31,9.31,0,0,1,8.32-.65c-.91,1.33-1.81,2.51-2.52,3.79s-2.18,2.27-1.16,4.15l3.23-2.05c4.74-3,5.77-2.63,7.18,2.92a23.76,23.76,0,0,1,.18,10.67c-3,15-11.45,26.79-22.16,37.21-.92.89-2.64,1.66-2.1,3.07,1.92,5-2.3,6.59-4.77,9-2.61,2.58-6.45,3.76-8.7,7.22,3.07,1.41,6,1.47,9,1.59,9.23.39,19,2,21-10.86,3,.53,2,4.06,4.91,4.31,1.45-4.62,2.64-9.38,5.51-13.31,1.95.62.12,2.81,2.12,3.67a73.11,73.11,0,0,1,8.58-15.29c.48,1.47.83,2.48,1.22,3.67,7.57-10.35,13.13-21.39,21.64-30.28,3.08-3.22,3.94-4.5-.29-7.87-6.47-5.15-14-10.33-13.13-20.46.09-1.25-.57-3,.66-3.67,1.78-1,2.66,1,3.58,1.93,8.13,8.76,17.69,15.76,27.15,23,12.71,9.68,17.4,22.8,9.73,40a77.53,77.53,0,0,1-14,21c-4,4.38-3.85,4.31,2.13,5.77,4.47,1.07,8.37-1.77,13-1,5.14.85,9.52-1.24,9.68-7.75,0-1.37,0-3.14,2-3.76,2.1,1.63,1.59,4.55,3.14,6.48a2.78,2.78,0,0,0,2.43,1.13c.82-.08,1.25-.59,1.12-1.54-1.09-7.22,3.81-13.4,2.87-20.65,3.1.5,3.6,4,7,3.69-3.63-7.21-2.57-14.43-2.28-22.12,2.87,1.34,3,4,5.7,4.85-1.47-9.58,2-18.18,4.8-26.5,2.1-6.18,1-8.61-4.31-11.2-7.22-3.54-12.13-9.08-12.68-17.87,2.67,1,3.14,3.61,4.79,5.11s3.08,2.78,5.71,2.87c-5.94-9-8.31-17.84-6.54-23.66,1.86,1.8,1.75,5,4.86,6.65-.39-9.84-2.31-19.22-.82-29.28,2.66,3.17,1.63,7.51,4.79,10.32-1.54-16.6,6.44-32.6-.36-48.85A207.16,207.16,0,0,1,854,330c-1.25-6.45-6.57-10.41-6.62-16.8,9.41,3.87,17.8,8.94,28.54,10.29C872.19,320.35,868.34,318.9,865.18,314.8ZM577.34,294.57c-1.66-1.37-2.46-2.87.6-3.19a16.74,16.74,0,0,0,7.64-2.81,7,7,0,0,1-2.72-2.19,20.44,20.44,0,0,1,5.73-.17c.36-.33.73-.66,1.09-1a4.66,4.66,0,0,1-1.53-2.4c-.11-.36,2.7.29,4.67,1.19a5.14,5.14,0,0,1,3.08,1.3c1.77,1.66-.8,2.54-1.6,3.4-3.35,3.57-6.92,6.95-10.44,10.35a8.34,8.34,0,0,1-8.19,2.37c.62-2.54,3.67-2.43,4.19-5C579.09,295.84,578.17,295.27,577.34,294.57Z"
       transform="translate(-445.5 -121.26)"
       id="path11" />
    <path
       class="cls-2"
       d="M718.07,265.14l-2.25-1,10.62-3.72C723.46,263.75,721,264.8,718.07,265.14Z"
       transform="translate(-445.5 -121.26)"
       id="path13" />
    <path
       class="cls-3"
       d="M822.12,400c-9.43-5.3-13.81-13.57-13.25-24.42a48.32,48.32,0,0,0-1-11.78c2.1.17,1.95,3.28,4.43,3V347.38c1.8-.44,1.83,2.28,3.44,1.51,1-.5.91-1.68.68-2.49-2.25-8.37,1.34-16.27,1.77-24.55,2.4,1.09,1.34,4.56,4,5.15,3.69-7.6-.59-25.44-7.18-32-19.58-19.41-44.22-22.74-69.77-20.65-19.43,1.6-38.24,1.15-57.14-4-16.15-4.38-32.56-8-49-10.92-22.06-3.9-43,3.13-64,8.45-24.31,6.16-39.73,21.26-44.69,46.25-.91,4.52-3.66,7.74-6.75,10.86-12.72,12.84-12.62,15.08.06,28.3,2.49,2.6,4.52,3.28,7.77,1.33s7-3.85,11.42-2L526.2,363a29.6,29.6,0,0,0,8.84.88c.86,0,2.58.11,2.28-.83-1.66-5.14,2.28-2.48,3.6-2.46a68.71,68.71,0,0,1,11.81,1.06c3.87.77,5.41-.15,3.79-4.8l21,8.64c-1.33-3.44-2.43-6.27-3.9-10.08,2.28,1,3.49,1.36,4.59,1.95,3.51,1.84,5.36,1.75,4.26-3.05-.57-2.49-.53-5.12-.85-8.49l7.34,3.76c-1.13-4-2-7.21-2.93-10.39-1-3.41-3.73-5.86-5.32-8.93,2.27-1.28,5.36,1.68,6.16-1.25.5-1.89-1.06-4.32-2-7.58,5.18,4.83,7.48,10.18,10.73,15.09-3.05.6-5.15-2.76-8.26-1.3,3.94,7,7.71,13.85,7.45,22.51-3.31-1.66-5-4.53-8.76-4.77l3.79,16c-3.22-1.41-5-4.65-8.51-5.61,2,5.8,33.09,23.28,44.18,25-1.42-4.06-2.18-8.22-4.73-11.56-2,.65-1.51,3.35-3.6,3.43-1.27-1.45-.65-3-.77-4.47-.27-2.9-1-6.56-3.2-7.43-2.39-1-3.1,3.13-4.82,4.73-.21.2-.59.21-1.44.5.14-2.92.12-5.67.44-8.37.54-4.49-2.12-10.77-3.78-11.15-7-1.6-1.22-4.94-1.65-7.18-.26-1.34.53-2.9.85-4.37.62-4.44.62-8.94.89-13.42a16.93,16.93,0,0,0,1.06,4.4c1.63,8.79.27,18.39,6.16,26,5.15,6.71,9.28,14.2,15.65,20a20.06,20.06,0,0,1,6,9.5c1.69,6.45,5.62,11.44,9.16,16.76,1.1,1.69,2.54,3.25,2.75,5.44-6.1-1.3-6.74-1-4.19,4.56,4.77,10.29,3.31,21.06,3.64,31.73a14,14,0,0,1-2.27,8c-3,4.93-5.45,10.14-8.14,15.23,3.25-1.06,4.71-3.64,6.51-5.89a3.6,3.6,0,0,0,1.66-1.41c.5.73-.24,1.45,0,2.21a2.06,2.06,0,0,1-.33,1.6c-1.3,3.08-1,4.5,3.05,4.8,5.74.41,4.26-2.76,4-6-.11-1.47-2.67-4.88,1.31-4.23,3.38.54,2.92-.88,2.83-2.78-.06-1.51-.82-4-.24-4.34,5.53-3.32,1.54-7.54,1.48-11.39,0-2.83-3.35-7.66,3.84-7,1.39.12.79-2.63.48-4a58.51,58.51,0,0,1-1.54-13.46,17,17,0,0,1,.48-3.11c5,.57,3.73-3.78,3.94-5.8,1.28-12.57,1.33-25.11-3.93-37-.8-1.83-2-3.6-1.78-6.1,2.42,2.07,3.82,2.37,3.76-1.44-.08-6-2.22-11.63-3.31-17.93,2.37,1.16,1.68,4.59,4.15,4.11,1.78-.35,1.66-2.78,2.48-4.23s1.39-3.1,2.07-4.64c-1.71,8.84-.27,17.27,3.07,25.77-5.06-1.86-5-1.86-5,2.75,0,2.95,1.12,5.5,2.3,8.08.47,1,1.34,2.19,1.13,3.08A9.79,9.79,0,0,0,672.76,394c.73.21,1.51.65,2.05-.06,2.49-3.23,5.48-1.06,8.34-.94,5.27.21,10.74,4.38,15.88-.65.47-.45,1.83-.11,2.76,0,15.83,1.9,29.78-1.81,41.46-13.22,2.48-2.42,2.75-3.54-.06-5.44-4.29-2.93-8.46-6-13-9.28,3.28-1.3,5.5,1.75,8.64.26-5.27-4.71-8.81-10.41-11.69-16.53-.3-1.36-.73-2.7-1.18-4.29a4.65,4.65,0,0,0,2.46,3c.89.6,1.51,2,2.83,1.44s1-1.95.5-2.93c-4-8.34-2.95-17.33-3.46-26.12,0-.45-.08-1.21,1-1.09.62,1.18,1.31,2.48,2.19,4.12,6-15.76,6-15.76,11.06-19.67-7.93,21.74-16.08,43.56,3.1,63.92.45-1.84.06-3.66,0-5.47s-.91-3.73.42-6.22c6.81,20.89,19.46,36.55,36.94,48.59,10.85,7.48,16.21,17.87,15.82,31.33-.32,11.18-5.29,20.23-11.65,28.86-1.89,2.55-4.76,4.5-4.43,8.69l12.69-14.59c-.69,3.51-2.24,6.32-3.4,9.29-.5,1.3-2.46,3.19-.08,4.25a3.93,3.93,0,0,0,5.09-1.25,42.51,42.51,0,0,0,2.78-4.93c1.63-3.41,3.14-6.89,4.49-9.87,3.66.3,1.1,4.15,4.46,4.83,3.29-13.36,4.93-27.12,9.71-40.19,3.25,2.9,4.28,1.44,4.55-2.45.23-3.19.5-6.6,1.84-9.4C826.85,404,825.75,402.08,822.12,400ZM577.34,294.57c-1.66-1.37-2.46-2.87.6-3.19a16.74,16.74,0,0,0,7.64-2.81,7,7,0,0,1-2.72-2.19,20.44,20.44,0,0,1,5.73-.17c.36-.33.73-.66,1.09-1a4.66,4.66,0,0,1-1.53-2.4c-.11-.36,2.7.29,4.67,1.19a5.14,5.14,0,0,1,3.08,1.3c1.77,1.66-.8,2.54-1.6,3.4-3.35,3.57-6.92,6.95-10.44,10.35a8.34,8.34,0,0,1-8.19,2.37c.62-2.54,3.67-2.43,4.19-5C579.09,295.84,578.17,295.27,577.34,294.57Z"
       transform="translate(-445.5 -121.26)"
       id="path15"
       style="fill:#f5f5f5" />
    <path
       class="cls-3"
       d="M748.24,429.46c-1.75-1.32-.54-3.41-2.2-4.3-2.77,4.72-5.67,9.32-8.2,14.11-2,3.71-3.08,1.54-4.82-1.22a62,62,0,0,1-7.48,18.1c-2.31-.18-1.07-2.57-2.76-3.7-3.87,3.77-5.64,9.06-8.66,13.48-1.06,1.55-1.87,3.28-3,4.8a2.48,2.48,0,0,1-3.53.66c-1.4-.94-.11-1.95.31-2.87,1-2.17,3-3.86,3.4-6.84-4.86,1.78-5.76,8.27-12.63,9.33,4-4.9,7.12-8.54,10-12.41,8.63-11.66,17.8-23,22.64-37a34.35,34.35,0,0,0,.18-23.15c-.38-1.09-1.32-2.19,0-2.88,5-2.63,8-7.89,14.13-10.67-.36,11,5.27,17.91,13.62,23,3,1.82,2.48,3.83.79,6.07C756.2,419.06,752.3,424.14,748.24,429.46Z"
       transform="translate(-445.5 -121.26)"
       id="path17"
       style="fill:#f5f5f5" />
    <path
       class="cls-3"
       d="M611.42,457.07c.61,4.17,1.05,7.5,1.6,10.81.28,1.7,0,3.11-1.81,3.57-2.19.56-4.68,1.26-6.61,0s.24-2.95.67-4.34c.75-2.44,1.95-4.75,3.34-8-5.58,3.5-6.94,9.67-12.49,12.29-.71-3.16,1.4-4.55,2.64-6.18,5.14-6.73,8.65-14,9.16-22.65.65-10.9,1.67-21.77,2.64-32.65.7-7.79-2-15.26-2.07-24.29,4.18,4.26,4.91,9.6,8.55,13,.92-2.92-1.56-5.59,0-8.58,3.65,1.23,5.75,4.05,7.58,7.14,1.61-1.14-.59-3.83,1.64-4.14,2-.29,2.61,1.87,3.23,3.4,2.76,6.81-.87,13.24-1.27,19.87-8.52,3.66-1.88,11.09-4.06,16.31-.85,2,2.44,7-3.92,5.38-1.12-.29-1.46,2.33-1.64,3.74-.51,4.11-1,8.23-1.24,12.36C617.13,458,616.33,460.48,611.42,457.07Z"
       transform="translate(-445.5 -121.26)"
       id="path19"
       style="fill:#f5f5f5" />
    <path
       class="cls-4"
       d="M508.13,330.19c2.16,2.14,1.41,4.82,2,7.1,1.89,7,4.3,13.68,10.25,18.3,4.36,3.39,1.79,5.95-.71,8.57-3.63,3.82-5.06,0-6.78-2.13C505.23,352.45,503.3,341.91,508.13,330.19Z"
       transform="translate(-445.5 -121.26)"
       id="path21" />
    <path
       class="cls-5"
       d="M500.16,353.08a44,44,0,0,0,2.51,5.45c2.18,3.29,2,5.41-2,7.29-4.32,2-5.45-1.93-7.84-3.43-1-.64,0-1.52.66-2.21C495.57,358.06,497.56,355.86,500.16,353.08Z"
       transform="translate(-445.5 -121.26)"
       id="path23"
       style="fill:#f5f5f5" />
    <path
       class="cls-2"
       d="M602.77,342.44c.2-7.14-1-14.39,1.95-21.39v12.37C602.38,336.06,605.19,339.82,602.77,342.44Z"
       transform="translate(-445.5 -121.26)"
       id="path25" />
    <path
       class="cls-2"
       d="M727.11,348.18c-1.84-2.09-3.37-4.3-2.28-7.68l3.57,6.39Z"
       transform="translate(-445.5 -121.26)"
       id="path27" />
    <path
       class="cls-2"
       d="M640,464.73a12.59,12.59,0,0,1,4.44-6c-.95,3.65-1.6,6.18-3.11,8.44C641,466.26,641.3,465,640,464.73Z"
       transform="translate(-445.5 -121.26)"
       id="path29" />
    <path
       class="cls-6"
       d="M595.54,273.19c.12,1.2-2.47,2-1.45,3.56.91,1.41,2.74.94,4.2.87,3.73-.18,7.5-3.3,11.24,1.07.63.74,5.45-2.11,9.25-3.67-3,5.13-8.67,6.56-10.2,11.57,1.3,2.36,3.14-.86,4.5.62-.09.19-.14.58-.32.66-6.68,2.84-11.33,7.57-15,13.91-3.84,6.63-9.06,11.9-18,7.88-1.82-.82-3.66,0-5.06,1.6-1,1.12-2.33,1.57-3.32.11-1.2-1.77.06-2.81,1.56-3.47a10.59,10.59,0,0,1,8.27-.06c3.67,1.39,6.83.48,9.11-2.51,4.57-6,9-12.12,13.31-18.28,1.73-2.46,1.75-3.87-2-4.89-11-2.94-20.81-1.85-29.58,6-2.64,2.37-5.36,5.34-9.86,5.36C570.78,282.38,580.69,273.9,595.54,273.19Z"
       transform="translate(-445.5 -121.26)"
       id="path31" />
    <path
       class="cls-7"
       d="M554.25,302.74c-3.1,2.78-6.91,3.61-9.07,7,4.09,4.08,10.22.35,14.8,3.83-7.15,3.67-12.48,9.73-20.53,10.61-1.05.11-2.15,1.23-3.12.11s.14-2.08.73-2.95,1.25-2.15.7-3.16c-1.42-2.59-3.64-4.76-.88-8,3-3.58,6.35-6.52,11-7.4C549.94,302.42,552.12,302.74,554.25,302.74Z"
       transform="translate(-445.5 -121.26)"
       id="path33" />
    <path
       class="cls-8"
       d="M594.31,288.68c-3.35,3.57-6.92,6.95-10.44,10.35a8.34,8.34,0,0,1-8.19,2.37c.62-2.54,3.67-2.43,4.19-5-.77-.53-1.69-1.1-2.52-1.8-1.66-1.37-2.46-2.87.6-3.19a16.74,16.74,0,0,0,7.64-2.81,7,7,0,0,1-2.72-2.19,20.44,20.44,0,0,1,5.73-.17c.36-.33.73-.66,1.09-1a4.66,4.66,0,0,1-1.53-2.4c-.11-.36,2.7.29,4.67,1.19a5.14,5.14,0,0,1,3.08,1.3C597.67,286.94,595.11,287.82,594.31,288.68Z"
       transform="translate(-445.5 -121.26)"
       id="path35" />
    <path
       class="cls-9"
       d="M574.36,323c-14.25-1.86-23.43,3.49-26.32,17.71-.68-.2-1.19-.2-1.27-.38-1.63-4.29-1.21-10.33.8-12.49a7,7,0,0,1-2.43.47,2.57,2.57,0,0,1,1.78-2.45,56,56,0,0,0,6.33-2.33.08.08,0,0,0,.06,0C561.22,318.72,569,318.61,574.36,323Z"
       transform="translate(-445.5 -121.26)"
       id="path37" />
    <path
       class="cls-10"
       d="M550.44,315.38c-3.72,1.63-5.61,5.32-9.21,2.39-.73-.6-2.1-1.9-.92-2.69C543.24,313.11,546.27,314.54,550.44,315.38Z"
       transform="translate(-445.5 -121.26)"
       id="path39" />
  </g>
  <g
     id="Layer_3"
     data-name="Layer 3">
    <path
       class="cls-11"
       d="M927,122.76V328.6a313.88,313.88,0,0,1-2.28,38c-.11.93-.24,1.86-.36,2.79,0,.2,0,.4-.08.59-.09.74-.19,1.47-.31,2.2-.46,3.37-1,6.69-1.6,10-.07.44-.15.87-.23,1.31-.16.8-.29,1.6-.45,2.4s-.34,1.79-.51,2.69l-.45,2.22-.24,1.15c-.15.71-.3,1.44-.46,2.15-.54,2.37-1.07,4.71-1.61,7l-.58,2.32-.52,2q-1.53,5.88-3.27,11.61c-.29,1-.59,1.94-.9,2.92l-.6,1.88c-.2.63-.4,1.24-.61,1.86-.37,1.09-.73,2.17-1.1,3.25s-.68,2-1,3c-.47,1.28-.93,2.56-1.39,3.81-.36,1-.73,2-1.11,3l-.19.5c-.43,1.14-.87,2.25-1.32,3.36s-.87,2.17-1.31,3.2c0,.15-.12.28-.18.42-.4,1-.8,2-1.25,3s-.76,1.75-1.13,2.62l-.66,1.49c-.48,1.07-1,2.11-1.44,3.15s-.9,2-1.36,2.93l-1,2.12c-.29.63-.6,1.25-.91,1.87-.63,1.33-1.31,2.64-2,4q-2.52,5-5.19,9.77l-2,3.57-.12.21c-1.42,2.47-2.86,4.92-4.33,7.33-.71,1.2-1.46,2.4-2.18,3.54-.11.16-.2.32-.3.47-.55.89-1.12,1.78-1.69,2.66l-.65,1c-.65,1-1.31,2-2,3l-.13.18c-.65,1-1.31,2-2,3l-.45.67q-2.25,3.29-4.54,6.46l-.31.43c-.8,1.07-1.54,2.14-2.31,3.19s-1.66,2.23-2.5,3.32c-1.52,2-3.06,4-4.61,6l-.81,1q-1.09,1.39-2.22,2.76L854,526.61l-.57.69c-.8.94-1.6,1.87-2.41,2.8q-2.82,3.32-5.72,6.53c-.75.85-1.52,1.69-2.29,2.51s-1.47,1.6-2.22,2.4q-3,3.2-5.93,6.24-2.76,2.82-5.53,5.59c-.92.91-1.84,1.82-2.76,2.71s-1.85,1.78-2.79,2.66l-2.28,2.12c-.68.65-1.36,1.28-2,1.91a449.24,449.24,0,0,1-61.76,47.47c-.86.55-1.72,1.1-2.57,1.6q-6.43,4.06-12.47,7.63l-2.41,1.4-2.36,1.37-2.33,1.34-2.23,1.29c-8.34,4.68-15.9,8.59-22.38,11.76l-1.6.8c-10.64,5.15-18.12,8.22-21,9.35l-.42.17-.61.24-.14,0h-.08l-.23-.09-.21,0-1.07-.42-.54-.23c-.87-.34-2-.8-3.37-1.38l-.46-.18c-1.76-.8-3.89-1.67-6.33-2.77l-1.39-.61a442.25,442.25,0,0,1-39.75-20.6c-.8-.44-1.6-.92-2.35-1.38a474,474,0,0,1-44.78-30l-2.63-2c-1-.75-2-1.51-2.94-2.29l-2.81-2.21c-6.19-4.92-12.43-10.15-18.64-15.69L558.08,566q-2.31-2.05-4.59-4.2l-1.67-1.57L550,558.54l-2-1.94c-1.12-1.07-2.23-2.17-3.33-3.27-.85-.79-1.69-1.66-2.52-2.5l-.24-.26c-.84-.83-1.67-1.67-2.5-2.51-.66-.68-1.32-1.36-2-2l-2-2.06-.13-.15-2.1-2.25q-3.36-3.6-6.66-7.36c-.68-.79-1.36-1.54-2.05-2.34-.57-.65-1.12-1.29-1.66-1.94q-1-1.2-2-2.4-4.28-5.1-8.39-10.48c-.76-1-1.5-1.93-2.24-2.92-1.89-2.47-3.73-5-5.57-7.55-.55-.8-1.12-1.59-1.68-2.39-.13-.16-.24-.34-.36-.5-.59-.86-1.19-1.7-1.77-2.56-.94-1.38-1.89-2.77-2.81-4.17-.74-1.09-1.47-2.2-2.19-3.31a1,1,0,0,0-.15-.24l-2.22-3.48-.22-.36c-.7-1.14-1.41-2.27-2.1-3.4s-1.49-2.46-2.21-3.71-1.43-2.39-2.13-3.67q-4.61-8-8.77-16.46c-.35-.69-.69-1.38-1-2.09-.22-.44-.44-.88-.65-1.35-.43-.87-.8-1.74-1.25-2.63a25.91,25.91,0,0,1-1.15-2.47l-.23-.48c-.27-.58-.53-1.16-.81-1.75l-.26-.57c-.27-.59-.52-1.19-.8-1.78q-1.44-3.25-2.79-6.57c-.42-1-.8-2-1.23-3.08-.1-.25-.21-.52-.31-.79-.4-1-.8-2-1.16-3s-.69-1.82-1-2.74l-.24-.65c-.17-.44-.33-.91-.49-1.35q-1-2.7-1.9-5.44c-.21-.6-.4-1.2-.6-1.8-.26-.8-.51-1.54-.75-2.32-.14-.41-.27-.8-.4-1.22-.25-.8-.49-1.59-.75-2.39-.31-1-.61-2.06-.92-3.11-.19-.64-.39-1.28-.57-1.95-.37-1.29-.74-2.58-1.09-3.89-.19-.68-.37-1.35-.55-2-.13-.5-.27-1-.4-1.51-.32-1.22-.62-2.45-.92-3.7-.18-.7-.34-1.4-.52-2.11-.07-.28-.13-.56-.19-.85-.37-1.55-.72-3.11-1.07-4.69-.26-1.16-.5-2.33-.74-3.5-.13-.71-.29-1.43-.42-2.14s-.32-1.59-.48-2.45a1.86,1.86,0,0,0-.09-.47c-.16-.8-.3-1.64-.45-2.48s-.32-1.84-.48-2.77-.29-1.8-.45-2.71q-.57-3.7-1.07-7.47c-.17-1.23-.33-2.47-.48-3.71A312.7,312.7,0,0,1,447,328.58V122.76Z"
       transform="translate(-445.5 -121.26)"
       id="path42" />
  </g>
  <metadata
     id="metadata1249">
    <rdf:RDF>
      <cc:Work
         rdf:about="">
        <dc:title>House Crakehall</dc:title>
      </cc:Work>
    </rdf:RDF>
  </metadata>
  <path
     id="shine"
     d="m 1.5800003,1.5 v 206.37688 c 0,229.66454 239.9199997,319.6031 239.9199997,319.6031 0,0 239.92,-89.93856 239.92,-319.6031 V 1.5 Z"
     style="fill:url(#rg);stroke:#000000;stroke-width:2.41218" />
</svg>
