<?xml version="1.0" encoding="UTF-8" standalone="no"?>
<svg
   width="600"
   height="600"
   version="1.1"
   id="svg72"
   sodipodi:docname="House Dalt GoT.svg"
   inkscape:version="1.2.1 (9c6d41e410, 2022-07-14)"
   xmlns:inkscape="http://www.inkscape.org/namespaces/inkscape"
   xmlns:sodipodi="http://sodipodi.sourceforge.net/DTD/sodipodi-0.dtd"
   xmlns:xlink="http://www.w3.org/1999/xlink"
   xmlns="http://www.w3.org/2000/svg"
   xmlns:svg="http://www.w3.org/2000/svg"
   xmlns:rdf="http://www.w3.org/1999/02/22-rdf-syntax-ns#"
   xmlns:cc="http://creativecommons.org/ns#"
   xmlns:dc="http://purl.org/dc/elements/1.1/">
  <title
     id="title3717">House Dalt</title>
  <sodipodi:namedview
     id="namedview74"
     pagecolor="#ffffff"
     bordercolor="#000000"
     borderopacity="0.25"
     inkscape:showpageshadow="2"
     inkscape:pageopacity="0.0"
     inkscape:pagecheckerboard="0"
     inkscape:deskcolor="#d1d1d1"
     showgrid="false"
     inkscape:zoom="0.98641396"
     inkscape:cx="239.25047"
     inkscape:cy="345.69665"
     inkscape:window-width="1920"
     inkscape:window-height="1017"
     inkscape:window-x="-8"
     inkscape:window-y="-8"
     inkscape:window-maximized="1"
     inkscape:current-layer="svg72" />
  <defs
     id="defs54">
    <radialGradient
       id="rg"
       gradientUnits="userSpaceOnUse"
       cx="220"
       cy="220"
       r="405">
      <stop
         style="stop-color:#fff;stop-opacity:.3"
         offset="0"
         id="stop2" />
      <stop
         style="stop-color:#fff;stop-opacity:.2"
         offset=".2"
         id="stop4" />
      <stop
         style="stop-color:#666;stop-opacity:.1"
         offset=".6"
         id="stop6" />
      <stop
         style="stop-color:#000;stop-opacity:.13"
         offset="1"
         id="stop8" />
    </radialGradient>
    <circle
       id="shield"
       cx="300"
       cy="300"
       r="298" />
    <g
       id="sun"
       transform="translate(300,300)scale(0.9)translate(-300,-300)"
       style="stroke-width:1;stroke-linecap:round;stroke-linejoin:round;">
      <g
         id="wavy-rays"
         transform="rotate(22.5,300,300)">
        <g
           id="wavy-ray">
          <path
             style="fill:#cc0000;stroke:none;"
             d="m 295.71673,70.37585 c -2.38477,5.976283 -6.7925,17.205125 -9.21187,29.4824 -2.48155,13.19766 -2.69547,27.57144 -1.27552,43.82304 v 2e-5 c 0.9165,13.14114 2.36127,26.69187 0.2801,36.94871 -1.5238,9.64131 -6.37028,19.49065 -11.65569,30.465 -6.48769,12.08882 -13.44166,26.83452 -16.40516,47.21637 -1.10448,16.24642 1.28913,30.23675 5.17828,41.68861 h 37.36937 l 18.02493,-120.0503 -18.02117,-59.97485 -2.71283,-29.987425 2.71283,-29.987425 c 0,0 -1.59954,3.650359 -4.28327,10.37585 z"
             id="path12" />
          <path
             style="fill:#aa0000;stroke:none;"
             d="m 337.36561,300 c -1.98638,-5.85559 -4.36398,-11.09158 -6.86602,-15.53917 -1e-5,-4e-5 -0.0316,-0.0736 -0.0317,-0.0736 h 5e-5 v 0 c -3.60485,-8.37348 -8.77008,-17.39754 -8.83053,-22.69862 -1.56615,-6.81556 1.57439,-17.21075 4.50884,-32.78363 3.53396,-14.92204 5.36752,-31.99714 3.05631,-49.535 -2.90283,-17.45097 -9.21149,-31.54555 -14.4319,-43.05129 l -1e-5,-1e-5 c -6.10281,-13.8338 -10.29735,-24.63776 -12.38351,-36.17693 -1.99032,-10.56752 -2.15623,-22.657551 -2.24509,-28.944025 -0.10163,-7.188564 -0.14205,-11.197725 -0.14205,-11.197725 -2.575,13.3333 -5.316,26.6667 -5.554,40 -0.238,13.333 2.231,26.667 5.554,40 3.323,13.333 6.9715,26.66699 7.356,40 0.3845,13.33299 -2.815,26.667 -7.356,40 -4.541,13.333 -9.7555,26.66703 -10.457,40 -0.7015,13.33303 3.664,26.667 10.457,40"
             id="path14" />
        </g>
        <use
           xlink:href="#wavy-ray"
           transform="rotate(45,300,300)"
           id="use17" />
        <use
           xlink:href="#wavy-ray"
           transform="rotate(90,300,300)"
           id="use19" />
        <use
           xlink:href="#wavy-ray"
           transform="rotate(135,300,300)"
           id="use21" />
        <use
           xlink:href="#wavy-ray"
           transform="rotate(180,300,300)"
           id="use23" />
        <use
           xlink:href="#wavy-ray"
           transform="rotate(225,300,300)"
           id="use25" />
        <use
           xlink:href="#wavy-ray"
           transform="rotate(270,300,300)"
           id="use27" />
        <use
           xlink:href="#wavy-ray"
           transform="rotate(315,300,300)"
           id="use29" />
      </g>
      <g
         id="straight-rays">
        <g
           id="straight-ray">
          <path
             style="fill:#cc0000;stroke:none;"
             d="m 300,60 -30.61467,166.08964 30.61467,73.91036 15,-73.91036 z"
             id="path32" />
          <path
             style="fill:#aa0000;stroke:none;"
             d="m 300,300 v -240 l 30.61467,166.08964 z"
             id="path34" />
        </g>
        <use
           xlink:href="#straight-ray"
           transform="rotate(45,300,300)"
           id="use37" />
        <use
           xlink:href="#straight-ray"
           transform="rotate(90,300,300)"
           id="use39" />
        <use
           xlink:href="#straight-ray"
           transform="rotate(135,300,300)"
           id="use41" />
        <use
           xlink:href="#straight-ray"
           transform="rotate(180,300,300)"
           id="use43" />
        <use
           xlink:href="#straight-ray"
           transform="rotate(225,300,300)"
           id="use45" />
        <use
           xlink:href="#straight-ray"
           transform="rotate(270,300,300)"
           id="use47" />
        <use
           xlink:href="#straight-ray"
           transform="rotate(315,300,300)"
           id="use49" />
      </g>
      <circle
         id="disk"
         style="fill:#cc0000;stroke:#aa0000;"
         cx="300"
         cy="300"
         r="80" />
    </g>
    <radialGradient
       id="rg-0"
       gradientUnits="userSpaceOnUse"
       cx="220"
       cy="220"
       r="405">
      <stop
         style="stop-color:#fff;stop-opacity:.3"
         offset="0"
         id="stop2-4" />
      <stop
         style="stop-color:#fff;stop-opacity:.2"
         offset=".2"
         id="stop4-3" />
      <stop
         style="stop-color:#666;stop-opacity:.1"
         offset=".6"
         id="stop6-0" />
      <stop
         style="stop-color:#000;stop-opacity:.13"
         offset="1"
         id="stop8-8" />
    </radialGradient>
    <radialGradient
       id="radialGradient878"
       gradientUnits="userSpaceOnUse"
       cx="220"
       cy="220"
       r="405">
      <stop
         style="stop-color:#fff;stop-opacity:.3"
         offset="0"
         id="stop870" />
      <stop
         style="stop-color:#fff;stop-opacity:.2"
         offset=".2"
         id="stop872" />
      <stop
         style="stop-color:#666;stop-opacity:.1"
         offset=".6"
         id="stop874" />
      <stop
         style="stop-color:#000;stop-opacity:.13"
         offset="1"
         id="stop876" />
    </radialGradient>
  </defs>
  <use
     id="circle"
     xlink:href="#shield"
     style="opacity:1;fill:#2b0b23;fill-opacity:1;stroke:#000000;stroke-width:3"
     transform="translate(-0.01475551)" />
  <g
     id="Layer_4"
     data-name="Layer 4"
     transform="matrix(1.0810712,0,0,1.1487383,38.926116,82.559141)">
    <path
       class="cls-2"
       d="M 687.12,469.58 A 48.290037,48.290037 0 1 1 687,373 a 48.28,48.28 0 1 1 0.15,96.55 z"
       transform="translate(-445.5,-121.26)"
       id="path48502"
       style="fill:#dcac10" />
    <path
       class="cls-2"
       d="m 549.5,469.59 c -27.09,0 -48.27,-21.38 -48.19,-48.57 a 48.34,48.34 0 1 1 48.19,48.57 z"
       transform="translate(-445.5,-121.26)"
       id="path48504"
       style="fill:#dcac10" />
    <path
       class="cls-2"
       d="m 872.68,421.67 c -0.07,27.08 -21.4,48.05 -48.74,47.92 a 48.28,48.28 0 1 1 48.74,-47.92 z"
       transform="translate(-445.5,-121.26)"
       id="path48506"
       style="fill:#dcac10" />
    <path
       class="cls-2"
       d="m 728.51,294.09 a 41.53,41.53 0 1 1 -41.36,-41.68 41.35,41.35 0 0 1 41.36,41.68 z"
       transform="translate(-445.5,-121.26)"
       id="path48508"
       style="fill:#dcac10" />
    <path
       class="cls-2"
       d="m 763.46,294 a 41.3,41.3 0 0 1 41.44,-41.55 c 22.85,0 41.75,18.91 41.58,41.6 a 41.51,41.51 0 0 1 -83,-0.06 z"
       transform="translate(-445.5,-121.26)"
       id="path48510"
       style="fill:#dcac10" />
    <path
       class="cls-2"
       d="m 527.86,293.93 a 41.41,41.41 0 1 1 41.6,41.32 41.28,41.28 0 0 1 -41.6,-41.32 z"
       transform="translate(-445.5,-121.26)"
       id="path48512"
       style="fill:#dcac10" />
    <path
       class="cls-2"
       d="m 785.22,220.27 a 34.38,34.38 0 1 1 34.58,-34.35 34,34 0 0 1 -34.58,34.35 z"
       transform="translate(-445.5,-121.26)"
       id="path48514"
       style="fill:#dcac10" />
    <path
       class="cls-2"
       d="m 588.73,151.51 a 34.38,34.38 0 1 1 0.27,68.75 34.38,34.38 0 1 1 -0.27,-68.75 z"
       transform="translate(-445.5,-121.26)"
       id="path48516"
       style="fill:#dcac10" />
    <path
       class="cls-2"
       d="m 686.78,220.27 a 34.38,34.38 0 1 1 34.9,-34.09 c -0.17,19.09 -15.57,34.13 -34.9,34.09 z"
       transform="translate(-445.5,-121.26)"
       id="path48518"
       style="fill:#dcac10" />
  </g>
  <metadata
     id="metadata3715">
    <rdf:RDF>
      <cc:Work
         rdf:about="">
        <dc:title>House Dalt</dc:title>
      </cc:Work>
    </rdf:RDF>
  </metadata>
  <use
     id="shine"
     xlink:href="#shield"
     style="fill:url(#rg-0);stroke:#000000;stroke-width:3" />
</svg>
