<?xml version="1.0" encoding="UTF-8" standalone="no"?>
<svg
   viewBox="0 0 483 527.48"
   version="1.1"
   id="svg6041"
   sodipodi:docname="House Dondarrion GoT.svg"
   inkscape:version="1.2.1 (9c6d41e410, 2022-07-14)"
   xmlns:inkscape="http://www.inkscape.org/namespaces/inkscape"
   xmlns:sodipodi="http://sodipodi.sourceforge.net/DTD/sodipodi-0.dtd"
   xmlns="http://www.w3.org/2000/svg"
   xmlns:svg="http://www.w3.org/2000/svg">
  <sodipodi:namedview
     id="namedview6043"
     pagecolor="#ffffff"
     bordercolor="#000000"
     borderopacity="0.25"
     inkscape:showpageshadow="2"
     inkscape:pageopacity="0.0"
     inkscape:pagecheckerboard="0"
     inkscape:deskcolor="#d1d1d1"
     showgrid="false"
     inkscape:zoom="1.12203"
     inkscape:cx="222.81044"
     inkscape:cy="227.26665"
     inkscape:window-width="1920"
     inkscape:window-height="1017"
     inkscape:window-x="1912"
     inkscape:window-y="-8"
     inkscape:window-maximized="1"
     inkscape:current-layer="svg6041" />
  <defs
     id="defs6007">
    <style
       id="style6005">.cls-1{fill:#221919;stroke:#000;stroke-width:3px;}.cls-2{fill:#742d81;}.cls-3{fill:#732d81;}.cls-4{fill:#402040;}</style>
    <radialGradient
       id="rg"
       gradientUnits="userSpaceOnUse"
       cx="220"
       cy="220"
       r="405"
       gradientTransform="matrix(0.80510068,0,0,0.80302287,-0.03020439,-0.106045)">
      <stop
         style="stop-color:#ffffff;stop-opacity:.3"
         offset="0"
         id="stop753" />
      <stop
         style="stop-color:#ffffff;stop-opacity:.2"
         offset=".2"
         id="stop755" />
      <stop
         style="stop-color:#666666;stop-opacity:.1"
         offset=".6"
         id="stop757" />
      <stop
         style="stop-color:#000000;stop-opacity:.13"
         offset="1"
         id="stop759" />
    </radialGradient>
  </defs>
  <title
     id="title6009">House Dondarrion</title>
  <g
     id="Layer_3"
     data-name="Layer 3">
    <path
       class="cls-1"
       d="M927,122.76V328.6a313.88,313.88,0,0,1-2.28,38c-.11.93-.24,1.86-.36,2.79s-.24,1.86-.39,2.79c-.46,3.37-1,6.69-1.6,10-.07.44-.15.87-.23,1.31-.16.8-.29,1.6-.45,2.4s-.34,1.79-.51,2.69l-.45,2.22-.24,1.15c-.15.71-.3,1.44-.46,2.15-.54,2.37-1.07,4.71-1.61,7l-.58,2.32-.52,2q-1.53,5.88-3.27,11.61c-.29,1-.59,1.94-.9,2.92l-.6,1.88c-.2.63-.4,1.24-.61,1.86-.37,1.09-.73,2.17-1.1,3.25s-.68,2-1,3c-.47,1.28-.93,2.56-1.39,3.81-.36,1-.73,2-1.11,3l-.19.5c-.43,1.14-.87,2.25-1.32,3.36s-.87,2.17-1.31,3.2c0,.15-.12.28-.18.42-.4,1-.8,2-1.25,3s-.76,1.75-1.13,2.62l-.66,1.49c-.48,1.07-1,2.11-1.44,3.15s-.9,2-1.36,2.93l-1,2.12c-.29.63-.6,1.25-.91,1.87-.63,1.33-1.31,2.64-2,4q-2.52,5-5.19,9.77l-2,3.57-.12.21c-1.42,2.47-2.86,4.92-4.33,7.33-.71,1.2-1.46,2.4-2.18,3.54-.11.16-.2.32-.3.47-.55.89-1.12,1.78-1.69,2.66l-.65,1c-.65,1-1.31,2-2,3l-.13.18c-.65,1-1.31,2-2,3l-.45.67q-2.25,3.29-4.54,6.46l-.31.43c-.8,1.07-1.54,2.14-2.31,3.19s-1.66,2.23-2.5,3.32c-1.52,2-3.06,4-4.61,6l-.81,1q-1.09,1.39-2.22,2.76L854,526.61l-.57.69c-.8.94-1.6,1.87-2.41,2.8q-2.82,3.32-5.72,6.53c-.75.85-1.52,1.69-2.29,2.51s-1.47,1.6-2.22,2.4q-3,3.2-5.93,6.24-2.76,2.82-5.53,5.59c-.92.91-1.84,1.82-2.76,2.71s-1.85,1.78-2.79,2.66l-2.28,2.12c-.68.65-1.36,1.28-2,1.91a449.24,449.24,0,0,1-61.76,47.47c-.86.55-1.72,1.1-2.57,1.6q-6.43,4.06-12.47,7.63l-2.41,1.4-2.36,1.37-2.33,1.34-2.23,1.29c-8.34,4.68-15.9,8.59-22.38,11.76l-1.6.8c-10.64,5.15-18.12,8.22-21,9.35l-.42.17-.61.24-.14,0h-.08l-.23-.09-.21,0-1.07-.42-.54-.23c-.87-.34-2-.8-3.37-1.38l-.46-.18c-1.76-.8-3.89-1.67-6.33-2.77l-1.39-.61a442.25,442.25,0,0,1-39.75-20.6c-.8-.44-1.6-.92-2.35-1.38a474,474,0,0,1-44.78-30l-2.63-2c-1-.75-2-1.51-2.94-2.29l-2.81-2.21c-6.19-4.92-12.43-10.15-18.64-15.69L558.08,566q-2.31-2.05-4.59-4.2l-1.67-1.57L550,558.54l-2-1.94c-1.12-1.07-2.23-2.17-3.33-3.27-.85-.79-1.69-1.66-2.52-2.5l-.24-.26c-.84-.83-1.67-1.67-2.5-2.51-.66-.68-1.32-1.36-2-2l-2-2.06-.13-.15-2.1-2.25q-3.36-3.6-6.66-7.36c-.68-.79-1.36-1.54-2.05-2.34-.57-.65-1.12-1.29-1.66-1.94q-1-1.2-2-2.4-4.28-5.1-8.39-10.48c-.76-1-1.5-1.93-2.24-2.92-1.89-2.47-3.73-5-5.57-7.55-.55-.8-1.12-1.59-1.68-2.39-.13-.16-.24-.34-.36-.5-.59-.86-1.19-1.7-1.77-2.56-.94-1.38-1.89-2.77-2.81-4.17-.74-1.09-1.47-2.2-2.19-3.31a1,1,0,0,0-.15-.24l-2.22-3.48-.22-.36c-.7-1.14-1.41-2.27-2.1-3.4s-1.49-2.46-2.21-3.71-1.43-2.39-2.13-3.67q-4.61-8-8.77-16.46c-.35-.69-.69-1.38-1-2.09-.22-.44-.44-.88-.65-1.35-.43-.87-.8-1.74-1.25-2.63a25.91,25.91,0,0,1-1.15-2.47l-.23-.48c-.27-.58-.53-1.16-.81-1.75l-.26-.57c-.27-.59-.52-1.19-.8-1.78q-1.44-3.25-2.79-6.57c-.42-1-.8-2-1.23-3.08-.1-.25-.21-.52-.31-.79-.4-1-.8-2-1.16-3s-.69-1.82-1-2.74l-.24-.65c-.17-.44-.33-.91-.49-1.35q-1-2.7-1.9-5.44c-.21-.6-.4-1.2-.6-1.8-.26-.8-.51-1.54-.75-2.32-.14-.41-.27-.8-.4-1.22-.25-.8-.49-1.59-.75-2.39-.31-1-.61-2.06-.92-3.11-.19-.64-.39-1.28-.57-1.95-.37-1.29-.74-2.58-1.09-3.89-.19-.68-.37-1.35-.55-2-.13-.5-.27-1-.4-1.51-.32-1.22-.62-2.45-.92-3.7-.18-.7-.34-1.4-.52-2.11-.07-.28-.13-.56-.19-.85-.37-1.55-.72-3.11-1.07-4.69-.26-1.16-.5-2.33-.74-3.5-.13-.71-.29-1.43-.42-2.14s-.32-1.59-.48-2.45a1.86,1.86,0,0,0-.09-.47c-.16-.8-.3-1.64-.45-2.48s-.32-1.84-.48-2.77-.29-1.8-.45-2.71q-.86-5.52-1.55-11.18A312.7,312.7,0,0,1,447,328.58V122.76Z"
       transform="translate(-445.5 -121.26)"
       id="path6011" />
  </g>
  <g
     id="Layer_4"
     data-name="Layer 4">
    <path
       class="cls-2"
       d="M616.85,349.59c10.39.31,20.65-1.38,31-2,2.05-.12,4.3-1,5.74,1.06,1.67,2.42-.69,3.75-1.89,5.29q-24.55,31.48-49.09,63c-1.33,1.71-3.22,3.19-3.56,5.63,1.52,1.41,3.32.86,4.86.67,13.65-1.67,27.27-3.55,40.93-5.16,2.18-.26,5.1-2.32,6.64.42s0,5.41-1.88,7.77Q630.72,450,611.94,473.72l-44,55.52c-.35.44-.75.86-1.1,1.3-1.16,1.49-2.49,2.36-4.37,1.24-2.3-1.38-.79-2.93-.12-4.36,5.74-12.31,11.54-24.6,17.26-36.92,3.66-7.88,7.13-15.85,10.87-23.7,1.48-3.11.68-4.1-2.58-3.82-11.47,1-22.94,1.87-34.4,2.89-1.5.13-3,.93-4.13-.63-1.19-1.72.47-2.79,1.25-3.95q22.24-32.84,44.55-65.65c1-1.51,2.77-2.66,2.47-5.21-11.8,1.29-23.57,2.55-35.32,3.9-1.28.15-2.71,1.17-3.73.06-1.37-1.49.23-2.81.9-4q19-33.88,38-67.72c3.14-5.61,6.18-11.28,9.23-16.93,1.43-2.65,1.14-3.63-2.34-3.21-6.74.82-13.53,1.19-20.31,1.58-1.33.08-3.17,1.63-4-.37-.66-1.52.94-2.71,1.69-4,5.76-9.55,11.61-19.05,17.3-28.64q32.56-54.85,65-109.78c1.67-2.83,3.39-4,6.66-3.93q17.6.26,35.2,0c3.27,0,5,1.08,6.66,3.92q32.34,55,65,109.78c5.69,9.59,11.54,19.09,17.3,28.64.76,1.25,2.42,2.49,1.69,4-1,2.12-3.08.41-4.59.35-6.22-.25-12.42-.86-18.64-1.23-1.35-.08-3.08-1.67-4,.27-.74,1.5.68,2.84,1.38,4.11q12.89,23.33,25.88,46.61c6.82,12.2,13.75,24.34,20.57,36.54.67,1.21,2.26,2.53.91,4-1,1.12-2.45.1-3.73,0-11.76-1.35-23.53-2.61-36.39-4,4.59,6.85,8.61,12.93,12.71,19Q808.12,435,825.65,460.8c.86,1.27,2.87,2.46,1.55,4.41s-3,.64-4.67.5c-11.09-1-22.19-1.79-33.28-2.75-3.81-.33-4.65.66-2.91,4.35,9.23,19.65,18.29,39.38,27.33,59.12.74,1.62,3.3,3.49.42,5.31s-4.09-.84-5.42-2.52q-22-27.72-44-55.5-18.44-23.31-36.85-46.65a17.66,17.66,0,0,1-2.54-3.72c-1.84-4.27-.32-6.25,4.29-5.65,13.82,1.8,27.64,3.66,41.47,5.41a58,58,0,0,0,6.74,0c-1.94-5.59-6.23-9.13-9.42-13.31-14.45-18.9-29.16-37.59-43.79-56.35-1.13-1.44-3-2.71-1.53-4.87,1.31-1.9,3.35-1.31,5.21-1.16,10.5.84,21,2.34,31.53,2.13,1.54.42,3.36,1.59,3.66-1.35-16.45-29-35.6-56.52-50.15-86.68-3.39-7-3.18-7.53,4.3-7.43,6.19.08,12.38,0,19.6,0-5.24-8.82-10-16.89-14.82-24.93q-15.39-25.79-30.8-51.58c-1.92-3.23-3.41-5.38-6.29-.51-14.62,24.71-29.44,49.32-44.17,74a21.91,21.91,0,0,0-1.17,3c7.07,0,13.64.05,20.21,0,5.81-.06,6.65.89,4,6-8.31,15.66-16.27,31.5-25.77,46.52-8.67,13.71-16.8,27.76-25.17,41.66C613.49,351.19,615.31,350,616.85,349.59Z"
       transform="translate(-445.5 -121.26)"
       id="path6014" />
    <path
       class="cls-3"
       d="M636.24,544.48c-2.33-14.6-10.26-22.87-26.47-24.37,7.41-3.71,14.21-3.76,18.78-8.86,4.37-4.88,5.54-10.9,7.76-17.46,2.18,15,10.53,23.47,25.74,25.75C646.84,521.46,638.73,529.75,636.24,544.48Z"
       transform="translate(-445.5 -121.26)"
       id="path6016" />
    <path
       class="cls-3"
       d="M790.55,224.11c-8-17.71-8-17.71-26.76-25.26,15.56-2,24.13-10.09,25.67-25.78,9.61,20.73,9.61,20.73,26,26.64C801,201.59,792.16,209.11,790.55,224.11Z"
       transform="translate(-445.5 -121.26)"
       id="path6018" />
    <path
       class="cls-3"
       d="M705.78,310.15c-14.77,2.23-23.39,10.21-25.38,25.7-2.14-14.78-9.88-23.41-25.06-25.85,14.27-2.67,23.16-10.17,24.68-25.05,2.94,6,3.51,12.65,8.27,17.14S699.35,308.09,705.78,310.15Z"
       transform="translate(-445.5 -121.26)"
       id="path6020" />
    <path
       class="cls-3"
       d="M545,396.83c-16.13,1.38-23.81,10.28-26.16,25-2-15.45-10.53-23.63-25.8-25.73,15-2.42,23.95-10.26,25.11-26.57C526.84,388.31,526.84,388.31,545,396.83Z"
       transform="translate(-445.5 -121.26)"
       id="path6022" />
    <path
       class="cls-3"
       d="M648.8,390.73c16.6-6.3,16.6-6.3,25.36-26.18,1.91,15.14,9.71,23.55,24.65,25.82-14.71,2.27-22.88,10.47-25.19,25.14C671.09,401,663.19,392.67,648.8,390.73Z"
       transform="translate(-445.5 -121.26)"
       id="path6024" />
    <path
       class="cls-3"
       d="M706.45,423.36c2.1,15,10,23.64,25,25.75-6.4,2.23-12.77,3.58-17.24,8.27-4.31,4.51-6.06,10.5-7.77,16.93-2.47-14.7-10.74-23-25.75-25C696,447.14,704.33,438.69,706.45,423.36Z"
       transform="translate(-445.5 -121.26)"
       id="path6026" />
    <path
       class="cls-3"
       d="M519.44,190.28c18.81-5.2,19.67-6.06,27.16-27,1.69,16.15,9.65,24.68,24.75,26.93-14.44,2.36-23.21,9.88-24.91,24.82-3-5.89-3.49-12.55-8.25-17S527,192.45,519.44,190.28Z"
       transform="translate(-445.5 -121.26)"
       id="path6028" />
    <path
       class="cls-3"
       d="M829.43,206c14.65-2.22,22.71-10.59,24.88-25.6,2.42,15,10.61,23.46,25.79,25.58-14.47,2.43-23.47,9.85-25,26.2-3.63-7-3.73-13.7-8.54-18.3S835.63,208.49,829.43,206Z"
       transform="translate(-445.5 -121.26)"
       id="path6030" />
    <path
       class="cls-3"
       d="M850.58,262.48c-15,2.3-23.31,10.42-25.61,25.62-2.22-14.76-10-23.39-25.26-25.46,14.55-2.61,23.31-10.2,25.15-25.53C827.26,252.09,835.41,260.54,850.58,262.48Z"
       transform="translate(-445.5 -121.26)"
       id="path6032" />
    <path
       class="cls-3"
       d="M524.86,312.6c-6.14-18.39-6.73-19-26-25.26,6.52-2.24,13.09-3.25,17.79-7.86s5.69-10.86,8.16-17.43c1.82,14.78,9.77,23.26,25,25.16C534.74,289.6,526.79,298,524.86,312.6Z"
       transform="translate(-445.5 -121.26)"
       id="path6034" />
    <path
       class="cls-4"
       d="M616.85,349.59c-1.58,1.15-3.2,1.8-4.88.26a19.52,19.52,0,0,1,1.21-1.61C614,349.68,615.54,349.37,616.85,349.59Z"
       transform="translate(-445.5 -121.26)"
       id="path6036" />
    <path
       class="cls-4"
       d="M763.44,348.25a19.12,19.12,0,0,1,1.21,1.61c-1.68,1.53-3.3.89-4.88-.27C761.09,349.37,762.58,349.67,763.44,348.25Z"
       transform="translate(-445.5 -121.26)"
       id="path6038" />
  </g>
  <path
     id="shine"
     d="m 1.5799966,1.5 v 206.37688 c 0,229.66454 239.9199934,319.6031 239.9199934,319.6031 0,0 239.92001,-89.93856 239.92001,-319.6031 V 1.5 Z"
     style="fill:url(#rg);stroke:#000000;stroke-width:2.41218" />
</svg>
