<?xml version="1.0" encoding="UTF-8" standalone="no"?>
<svg
   viewBox="0 0 483 527.48"
   version="1.1"
   id="svg51845"
   sodipodi:docname="House Drumm.svg"
   inkscape:version="1.2.1 (9c6d41e410, 2022-07-14)"
   xmlns:inkscape="http://www.inkscape.org/namespaces/inkscape"
   xmlns:sodipodi="http://sodipodi.sourceforge.net/DTD/sodipodi-0.dtd"
   xmlns="http://www.w3.org/2000/svg"
   xmlns:svg="http://www.w3.org/2000/svg">
  <sodipodi:namedview
     id="namedview51847"
     pagecolor="#ffffff"
     bordercolor="#000000"
     borderopacity="0.25"
     inkscape:showpageshadow="2"
     inkscape:pageopacity="0.0"
     inkscape:pagecheckerboard="0"
     inkscape:deskcolor="#d1d1d1"
     showgrid="false"
     inkscape:zoom="1.12203"
     inkscape:cx="171.11842"
     inkscape:cy="265.59004"
     inkscape:window-width="1920"
     inkscape:window-height="1017"
     inkscape:window-x="-8"
     inkscape:window-y="-8"
     inkscape:window-maximized="1"
     inkscape:current-layer="svg51845" />
  <defs
     id="defs51774">
    <style
       id="style51772">.cls-1{fill:#950500;}.cls-2{fill:#fefefe;}.cls-3{fill:#fdfdfd;}.cls-4{fill:#fcfcfc;}.cls-5{fill:#fafafa;}.cls-6{fill:#1a1a1a;}.cls-7{fill:none;stroke:#000;stroke-width:3px;}</style>
    <radialGradient
       id="rg"
       gradientUnits="userSpaceOnUse"
       cx="220"
       cy="220"
       r="405"
       gradientTransform="matrix(0.80510068,0,0,0.80302287,-0.03019943,-0.9270163)">
      <stop
         style="stop-color:#ffffff;stop-opacity:.3"
         offset="0"
         id="stop753" />
      <stop
         style="stop-color:#ffffff;stop-opacity:.2"
         offset=".2"
         id="stop755" />
      <stop
         style="stop-color:#666666;stop-opacity:.1"
         offset=".6"
         id="stop757" />
      <stop
         style="stop-color:#000000;stop-opacity:.13"
         offset="1"
         id="stop759" />
    </radialGradient>
  </defs>
  <title
     id="title51776">House Drumm</title>
  <g
     id="Layer_2"
     data-name="Layer 2">
    <path
       class="cls-1"
       d="M927,122.76V328.6a313.88,313.88,0,0,1-2.28,38c-.11.93-.24,1.86-.36,2.79,0,.2,0,.4-.08.59-.09.74-.19,1.47-.31,2.2-.46,3.37-1,6.69-1.6,10-.07.44-.15.87-.23,1.31-.16.8-.29,1.6-.45,2.4s-.34,1.79-.51,2.69l-.45,2.22-.24,1.15c-.15.71-.3,1.44-.46,2.15-.54,2.37-1.07,4.71-1.61,7l-.58,2.32-.52,2q-1.53,5.88-3.27,11.61c-.29,1-.59,1.94-.9,2.92l-.6,1.88c-.2.63-.4,1.24-.61,1.86-.37,1.09-.73,2.17-1.1,3.25s-.68,2-1,3c-.47,1.28-.93,2.56-1.39,3.81-.36,1-.73,2-1.11,3l-.19.5c-.43,1.14-.87,2.25-1.32,3.36s-.87,2.17-1.31,3.2c0,.15-.12.28-.18.42-.4,1-.8,2-1.25,3s-.76,1.75-1.13,2.62l-.66,1.49c-.48,1.07-1,2.11-1.44,3.15s-.9,2-1.36,2.93l-1,2.12c-.29.63-.6,1.25-.91,1.87-.63,1.33-1.31,2.64-2,4q-2.52,5-5.19,9.77l-2,3.57-.12.21c-1.4,2.44-2.82,4.86-4.28,7.24a.41.41,0,0,1,0,.09c-.71,1.2-1.46,2.4-2.18,3.54-.11.16-.2.32-.3.47s-.31.5-.47.74c-.4.64-.81,1.28-1.22,1.92l-.65,1c-.65,1-1.31,2-2,3l-.13.18c-.65,1-1.31,2-2,3l-.45.67q-2.25,3.29-4.54,6.46l-.31.43c-.8,1.07-1.54,2.14-2.31,3.19s-1.66,2.23-2.5,3.32c-1.52,2-3.06,4-4.61,6l-.81,1q-1.09,1.39-2.22,2.76L854,526.61l-.57.69c-.4.47-.79.93-1.2,1.39a4.16,4.16,0,0,1-.27.32c-.31.37-.62.73-.94,1.09-1.23,1.44-2.46,2.87-3.73,4.29-.65.75-1.32,1.5-2,2.24s-1.52,1.69-2.29,2.51-1.47,1.6-2.22,2.4q-3,3.2-5.93,6.24-2.76,2.82-5.53,5.59l-.83.82c-.64.64-1.29,1.27-1.93,1.89-.92.89-1.85,1.78-2.79,2.66l-2.28,2.12c-.68.65-1.36,1.28-2,1.91q-14.52,13.32-30.16,25.31c-1,.77-2,1.52-3,2.28q-9.86,7.43-20.1,14.31-1.56,1.05-3.12,2.07c-1,.65-2,1.29-3,1.92a0,0,0,0,1,0,0l-.18.12h0l-2.24,1.45c-.86.55-1.72,1.1-2.57,1.6l-1.74,1.09c-3.67,2.31-7.25,4.48-10.73,6.54l-2.41,1.4-2.36,1.37-2.33,1.34-2.23,1.29c-8.34,4.68-15.9,8.59-22.38,11.76l-1.6.8c-10.64,5.15-18.12,8.22-21,9.35l-.42.17-.61.24-.14,0h-.08l-.23-.09-.21,0-1.07-.42-.54-.23c-.87-.34-2-.8-3.37-1.38l-.46-.18c-1.76-.8-3.89-1.67-6.33-2.77l-1.39-.61a442.25,442.25,0,0,1-39.75-20.6c-.8-.44-1.6-.92-2.35-1.38q-7.23-4.26-14.29-8.78-5.26-3.36-10.42-6.85c-.75-.51-1.49-1-2.23-1.53-.57-.38-1.13-.76-1.69-1.16q-8.21-5.66-16.15-11.66l-2.63-2-.61-.47c-.77-.6-1.55-1.2-2.33-1.82l-2.37-1.86-.44-.35c-6.19-4.92-12.43-10.15-18.64-15.69L558.08,566q-2.31-2.05-4.59-4.2l-1.67-1.57L550,558.54l-2-1.94c-1.12-1.07-2.23-2.17-3.33-3.27-.85-.79-1.69-1.66-2.52-2.5l-.24-.26c-.84-.83-1.67-1.67-2.5-2.51l-.34-.36c-.55-.56-1.09-1.12-1.63-1.69l-1-1.06-1-1-.13-.15-2.1-2.25c-1.12-1.2-2.24-2.41-3.34-3.64h0c-1.11-1.23-2.21-2.46-3.31-3.71l-1.31-1.5-.74-.84c-.57-.65-1.12-1.29-1.66-1.94q-1-1.2-2-2.4-4.28-5.1-8.39-10.48c-.76-1-1.5-1.93-2.24-2.92-1.89-2.47-3.73-5-5.57-7.55-.55-.8-1.12-1.59-1.68-2.39-.13-.16-.24-.34-.36-.5-.59-.86-1.19-1.7-1.77-2.56l-1.54-2.28a1,1,0,0,1-.12-.17c-.39-.57-.77-1.14-1.15-1.72-.74-1.09-1.47-2.2-2.19-3.31a1,1,0,0,0-.15-.24l-2.22-3.48-.22-.36-.88-1.43-1.22-2-.32-.53c-.17-.27-.34-.56-.51-.85-.46-.76-.94-1.56-1.38-2.33l-.64-1.1c-.5-.84-1-1.67-1.49-2.57q-4.61-8-8.77-16.46c-.35-.69-.69-1.38-1-2.09-.22-.44-.44-.88-.65-1.35-.43-.87-.8-1.74-1.25-2.63a25.91,25.91,0,0,1-1.15-2.47l-.23-.48c-.27-.58-.53-1.16-.81-1.75l-.26-.57c-.27-.59-.52-1.19-.8-1.78q-1.44-3.25-2.79-6.57c-.42-1-.8-2-1.23-3.08-.1-.25-.21-.52-.31-.79-.4-1-.8-2-1.16-3s-.69-1.82-1-2.74l-.24-.65c-.17-.44-.33-.91-.49-1.35q-1-2.7-1.9-5.44c-.21-.6-.4-1.2-.6-1.8-.26-.8-.51-1.54-.75-2.32-.14-.41-.27-.8-.4-1.22-.25-.8-.49-1.59-.75-2.39-.31-1-.61-2.06-.92-3.11-.19-.64-.39-1.28-.57-1.95-.37-1.29-.74-2.58-1.09-3.89-.19-.68-.37-1.35-.55-2-.13-.5-.27-1-.4-1.51-.32-1.22-.62-2.45-.92-3.7-.18-.7-.34-1.4-.52-2.11-.07-.28-.13-.56-.19-.85-.37-1.55-.72-3.11-1.07-4.69-.26-1.16-.5-2.33-.74-3.5-.13-.71-.29-1.43-.42-2.14s-.32-1.59-.48-2.45a1.86,1.86,0,0,0-.09-.47c-.16-.8-.3-1.64-.45-2.48s-.32-1.84-.48-2.77-.29-1.8-.45-2.71q-.57-3.7-1.07-7.47c-.17-1.23-.33-2.47-.48-3.71A312.7,312.7,0,0,1,447,328.58V122.76Z"
       transform="translate(-445.5 -121.26)"
       id="path51778" />
  </g>
  <g
     id="Layer_4"
     data-name="Layer 4">
    <path
       d="M709.86,439.51c3.82-6.27,7.21-12.88,11.58-18.74,5.4-7.23,4.9-15.5,6.21-23.67,1.38-8.63.24-17.33,2.36-26,1.29-5.31.79-10.78,5.44-14.8.87-.75-.2-1.94-.34-2.94-.68-5.06.23-9.42,2.46-14.43,4.91-11.06,10.22-22.35,9.94-35,0-.52.12-1.23-.16-1.54-5.29-6-1.68-11.83.25-17.66.48-1.47,1.12-3.35,2.28-4,9.16-5.5,4.84-14,4.15-21.09a83.07,83.07,0,0,0-2.15-12.68c-.8-3.08,1.31-6,3.52-8.38,2.43-2.62,2.59-5.58-.35-7.6-3.26-2.24-3.06-5.23-2-7.86,1-2.45,2.18-6,5.95-5.51,3.41.47,6.72,1.52,8.47,5.18a46.32,46.32,0,0,1,4,13.45c.39,2.69.9,5.09,2.57,7.28a3.61,3.61,0,0,1,.68,2.92c-3.38,8-.45,16.25-.8,24.36-.5,11.53-2.59,22.86-3.82,34.28-1.57,14.62-5.33,29-4.72,43.88.12,3-.15,5.87-2,8.49s-1,5.91-1.71,8.43c-2,7.7.22,16.67-6.21,23.15-3,3-2.52,7-2.78,10.73a19.92,19.92,0,0,1-2.21,8.53c-6.51,11.75-11.23,24.25-15.24,37a15.34,15.34,0,0,0-.46,3.62c-.15,2.36-1.81,5.52.53,6.85,2.18,1.24,4.9-.86,7.09-2.11,4.41-2.52,7.21-6.68,9.25-11.08,4.63-10,7.73-20.48,11-30.95,1.26-4,2.62-7.67.34-11.36-3.5-5.66-.28-10.07,2.47-14.36a12,12,0,0,0,2-7.85c-.31-4.26.91-7.82,4.69-10.4,2.92-2,3.3-5.57,4.53-8.62,2.91-7.25,3.43-14.91,4-22.55.09-1.26-.79-2.65-1.38-3.89-1.22-2.55-.56-4.51.42-7.23,3.75-10.42,13.44-19.49,10.42-31.34-1.89-7.41,0-11.77,4.63-16.52a4.12,4.12,0,0,0,.08-5.76c-2-2.5-1.13-5.25.87-7.09a9.14,9.14,0,0,1,9.67-2.17c2.93,1,3.41,3.2,3.24,5.85-.39,5.88-1,11.77,3.31,16.75,1.51,1.74,0,3.32-.69,4.8-4.61,9.62-5.21,19.73-3.85,30.1a5.65,5.65,0,0,1-.4,3.58c-6.91,12.95-7.42,27.52-10.43,41.46-.89,4.14,1.9,8,1.68,12.27s-1.43,7.62-4.5,10.14c-2.37,2-3.44,3.62-1.76,6.55,1.4,2.43.49,4.76-.28,7.41-2.8,9.7-6.66,19-10.59,28.22-5.15,12.12-10.46,24.18-14.36,36.76-1.61,5.19-4.49,10-4.26,15.86s-4.75,10.37-10.24,10.37c-.83,0-1.8-.43-2.05.86-.31,1.57-.52,3,1.1,4.2,4.6,3.52,5.12,8.49,4.39,13.74-.67,4.77-2.77,8.35-8.23,8.46-2,0-3.15,1.51-4.38,2.65a23.06,23.06,0,0,1-8,4.93c-1.44.51-3.48,1.34-3.86,2.48-2.26,6.91-8.71,7.94-14.05,10.39s-11.9,5.38-16.83,2.91c-6.34-3.18-11-3.47-17-.12-2.8,1.54-6.93-.7-9.84-2.35-5.67-3.22-11.35-6-17.81-7.39a11,11,0,0,1-8.36-8c-1-4.31-4-5.87-6.79-8.12-.78-.63-2.48-.86-2.59-1.48-2.14-12.29-14.48-15.88-20.87-24.6a196.41,196.41,0,0,1-25.74-46.94C588,435.3,586,425.84,580.15,418c-2-2.7-5.18-3-7.35-5.36-2.92-3.24-3.63-6.41-1.88-9.93,1.32-2.66,1.74-5.57,3.21-8.22,1.21-2.19,1.38-4.81-.8-7.6a13.62,13.62,0,0,1-1.78-12.64c3.48-9.21-1-17-2.94-25.33-.55-2.38-1.49-4.65-1.5-7.16a7.08,7.08,0,0,0-3.13-6.24c-3.34-2.39-3.94-6.65-1.82-9.22,2.86-3.47,2.64-7,2.73-10.72.13-4.83,1.36-8.85,5.57-11.76s5.44-7.46,4.48-12.44c-.76-4,.49-7.62,1.28-11.35.54-2.55,1.88-4.94,1.48-7.66a5.88,5.88,0,0,1,3.74-6.25c1.74-.76,4.39.17,6.23,1.74,4.56,3.89,4.26,9.07,3.23,14.07-.95,4.61-1.1,9.06.46,13.44,1.29,3.59.49,6.82-1.17,9.89-1.36,2.51-1.4,4.48.78,6.53,3.48,3.27,3.19,7,1.15,11-3.68,7.1-6.33,13.67-1.53,22.06s7.6,17.54,14.91,24.24c3.77,3.45,2.09,7.67,1.07,11.61-.61,2.36-.79,4.24,1.09,6.25,6.24,6.62,6.15,9.79-.13,16.88-1,1.12-1.09,2.11-.72,3.73,4.17,17.91,12.82,32.45,28.24,43.4,5.34,3.79,5.65,1.1,8.4-1.65,8.14-8.11,4.34-17.93,4.36-27.16,0-1.8-.53-3.77-.53-5.69,0-14.48-.07-29,0-43.44a54.67,54.67,0,0,0-4.08-22c-2.54-6-3.38-12.06.3-18.11,1-1.69,1.92-3.71.83-6-3.55-7.38-.39-14.35,1.52-21.37.18-.65,1-1.21,1-1.82.08-12.13,3.69-24.34-.71-36.39-.41-1.13-1.27-2.77-.82-3.43,4.07-6,2.36-12.31,1.49-18.65-.77-5.61,2.69-10.33,3.7-15.6a12.68,12.68,0,0,0-.36-7.07c-.52-1.43-1.08-3.37-.53-4.59,2.58-5.77.73-12.49,4.06-18,1.18-2,1-3.94.08-6-2-4.76,1.28-12,6-14.24,2.44-1.18,3.52,0,4.83,1.55,2.4,2.88,2.41,6.49,2.56,9.82a12,12,0,0,0,3.88,8.27c1,1,2.26,2.08,2.47,3.29,1.25,7.25,2.71,14.74-.91,21.62s-2,13.87.87,19.82a20.4,20.4,0,0,1,1.94,12.46c-.93,7-3.91,13.83-2.65,21.15,2.06,12,2.2,24.28,5.64,36a9,9,0,0,1-.45,7.11c-1.92,3.52-1.53,6.7.51,9.93a9.54,9.54,0,0,1,.51,9.5c-1.72,3.91,1.41,7.71-.22,12.12-1.77,4.8-4.28,9.38-5.22,14.63-1.31,7.35-.87,14.65-1,22-.12,11,.16,21.92-.13,32.88-.12,4.44,1.14,8.64,1.31,13,.05,1.42.7,3,2.17,3.26,1.27.26,2.11-1.1,2.85-2,4.91-6.08,6.58-13.44,7.46-20.89,1.72-14.51,4.26-29,3.35-43.69-.1-1.55.33-3.07-.6-4.53-6.12-9.63-5.33-19.28.07-28.88,1-1.76,1.27-3.05,0-5.14-2.36-3.77-1.85-7.64.62-11.69,4.1-6.72,4.26-14.61,5.08-22.19.95-8.84,2.08-17.72-1.1-26.45a8.06,8.06,0,0,1,0-4.7c2.43-8.34,1.27-17.11,3.82-25.58,2.08-6.92.32-14.42-1.11-21.74C694.6,212.11,692,203,700.94,196c2.16-1.69,2.86-5.27.12-8.28-4-4.4-3.57-6.69,1.46-11.35,2.5-2.32,8.59-2.36,11.11.24,2.37,2.45,3.57,5.18,2.6,9-1.3,5.18-1,10.32,3.28,14.57,2.77,2.77,2.62,8.87-.06,11.83-.89,1-1.82,1.86-1.32,3.15,1.88,4.79-.31,9.26-.9,13.86-.69,5.4-1.24,10.8.72,16.09a24.48,24.48,0,0,1,1.24,11.17c-1.08,11.28-4.29,22.47-1.33,34,2.25,8.75.62,17.82,1.18,26.74.2,3.16.32,6.14,1.69,9.17,1.51,3.33,2.64,7.4,1,10.73-2.54,5.08-1.4,10.53,0,14.67,1.81,5.47,0,9.38-1.52,13.85-.51,1.48-1.36,2.81-1.28,4.5.79,17.55-3.26,34.32-8.66,50.79-2,6.06-1.77,12-1.69,18.15Z"
       transform="translate(-445.5 -121.26)"
       id="path51781" />
    <path
       class="cls-2"
       d="M669.46,473.22A37.05,37.05,0,0,1,674,454.49c.24-.45.68-.95.64-1.38-.83-8,5-12.71,9-18.43,2.68-3.93,3.71-8.61,4.42-13.22,1.67-10.83,3.52-21.67,4.32-32.57.49-6.7-.16-13.53.18-20.32a5.79,5.79,0,0,0-1.52-3.76c-3.84-4.16-2.48-8.91-2.29-13.75.16-3.9,0-7.43,2.52-10.89,5.19-7.18,14.15-8.6,19.92-.48a9.83,9.83,0,0,0,1.58,1.95c2.26,1.87,6.45,2,6.35,6-.15,5.68,1.53,11.61-1.74,17-2.88,4.72-2,10.23-2.24,15.16-.43,10.68-1.73,21.1-5.2,31.13a125.65,125.65,0,0,0-5.19,22c-.57,3.71.7,8.51,2.7,12.45,3.65,7.21,2.17,17.68-3.19,23.54-3.12,3.4-7.93,2.1-10.09.86-4.94-2.83-7.82,1.31-11.65,1.69-1.24.12-2.37,1.29-3.55,2C675.72,475,672.56,475.67,669.46,473.22Z"
       transform="translate(-445.5 -121.26)"
       id="path51783" />
    <path
       class="cls-2"
       d="M662.44,323.62c7.22.11,15,10.16,13.29,16a8.19,8.19,0,0,0-.14,5.13c1.48,4.28.44,8.08-1.75,12-4.52,8.12-4.44,17.26-4.32,26.13.23,16.93-1,33.89.58,50.8.11,1.2.09,2.63.72,3.52,4.7,6.64,2.62,13.06-.29,19.57-1,2.18-2.28,4.17-2.31,6.85,0,3.05-1.94,2.51-3.26.69-3.6-5-7.39-6.7-13.09-2.62a6.1,6.1,0,0,1-7.46-1.17c-1.75-2.14-3.37-4.52-.56-7.92,2-2.46,4.56-4.58,6.18-7.59,4.09-7.63,1.61-15.55,1.07-23.11-.43-6.08-.52-12.15-.63-18.21-.29-16.41.89-32.88-2.21-49.16a11,11,0,0,0-1.15-2.81c-4.8-9.41-4.25-13.86,2.3-21.85C653.09,325.43,659.1,326.54,662.44,323.62Z"
       transform="translate(-445.5 -121.26)"
       id="path51785" />
    <path
       class="cls-2"
       d="M622,483.35c-5.95,1-9.85-3-12.69-8.9-4-8.17-9.63-15.39-12.24-24.36-2.37-8.15-5.86-16-9.17-23.84-2.46-5.83-5-11.72-11.15-14.91-3.85-2-5.09-4.79-2.2-8.61a7.2,7.2,0,0,0,.76-2c4-11.25,12.7-15.79,24.32-12.5,1.56.44,3.11.39,4.59.76,2.21.55,4.41,1.63,4.93,4.08.42,2,.49,4.22-1.75,5.58-5.91,3.6-4.29,9.45-2.93,14,2.32,7.78,6.35,14.92,10.66,22a55.28,55.28,0,0,0,19,19.28c3.06,1.84,5.2,5.31,1.3,7-8.3,3.67-7.48,10.2-7.16,17C628.57,482.9,628.14,483.33,622,483.35Z"
       transform="translate(-445.5 -121.26)"
       id="path51787" />
    <path
       class="cls-2"
       d="M705.54,470.37c7.62-8.08,6.37-16.72,4.43-25.3-.36-1.61.1-2,.9-2.92,6.93-8.09,11.59-17.64,16.85-26.77,2.4-4.16,2.25-9.31,2.76-14,.77-7,.92-14.14,1.1-21.23a14.86,14.86,0,0,1,1.63-7,7.18,7.18,0,0,0,.92-5.44c-1-4.2,3.86-12.64,7.85-13.44s7.3,2,10.58,3.64c5.52,2.74,5.85,7.82,4.87,13.41-1.22,7-2.75,13.7-6.45,20.1-2.4,4.16-1.36,9.79-3.26,14.7-3.72,9.6-8.38,18.77-11.94,28.45-3.88,10.55-5.95,20.8-2.43,31.82.92,2.88.67,6.19.63,9.29,0,2-.93,2.77-2.85,1.11-4.25-3.67-8.78-5.65-14.69-3.44C712.72,474.69,710,470.41,705.54,470.37Z"
       transform="translate(-445.5 -121.26)"
       id="path51789" />
    <path
       class="cls-2"
       d="M737,474c-.43-2.72-.09-5.57-1.31-7.37-3.93-5.8,1.18-7.8,4.3-8.68,6.67-1.88,9.95-6.58,12.86-12,6.44-12,10.08-25.11,14.34-37.94,1.24-3.73,2-8.29-2-11.91-2.31-2.09-.1-4.42,1.15-6.51,4.09-6.85,11.19-9.9,16.85-7.13,4.66,2.28,7.23,9,6,15-2.72,13.67-9.35,25.9-14.08,38.83C770.83,448,765,459.21,762,471.51c-1.11,4.58-4.14,8.49-4.37,13.64-.12,2.6-3.57,5.26-6.56,4.86s-7.22-.36-8.65-4.15a18.75,18.75,0,0,0-3.2-5.23C737.51,478.5,735.46,476.78,737,474Z"
       transform="translate(-445.5 -121.26)"
       id="path51791" />
    <path
       class="cls-2"
       d="M675.26,317.5c-.43,1,.14,3.29-1.38,5.31s-2.64,3.35-4.84.61c-2.76-3.43-6.12-3.35-9.63-1-3,2-7.76.63-9.64,5.1-.33.8-1.23-.35-1.67-1.16a16.29,16.29,0,0,1,.25-16.91,12.18,12.18,0,0,0,2-5.15c.67-12.25,2.57-24.53-.84-36.73a11.5,11.5,0,0,1,3.68-12.32c2.67-2.27,12.91-.71,15.63,1.79,1.38,1.27,2.23,2.94,1.64,4.73-2.91,8.89,0,17.51.76,26.27.63,6.84.21,13.77,2.43,20.42C674.5,311.08,675.88,313.54,675.26,317.5Z"
       transform="translate(-445.5 -121.26)"
       id="path51793" />
    <path
       class="cls-2"
       d="M719.33,332.86c.29,2.49-.87,4.44-2.14,6.36s-2,1.52-3.47-.13c-6.64-7.25-8.59-9.5-17.42-6a3.22,3.22,0,0,1-4.13-1c-1.8-2.17-2.53-4.67-1.07-7.3,8-14.39,6.79-30.23,7.3-45.81a11.84,11.84,0,0,0-1.68-6.42c-2.58-4.47.17-7.52,2.61-10.66a2.4,2.4,0,0,1,1.82-.44c2.41,4.29,5.47,1.76,8.49,1,3.76-.9,6.28.78,5,4.68-3.31,10.1-.53,19.76,1,29.65.81,5.32.2,10.87.16,16.31s-.17,11.16,2.86,16.24C719.24,330.28,719.12,331.67,719.33,332.86Z"
       transform="translate(-445.5 -121.26)"
       id="path51795" />
    <path
       class="cls-2"
       d="M574.42,377.73c.27-1.82-.58-3.88,1.39-5.7,1.67-1.54,1.22-4.24.59-6-2.48-7-3.34-14.4-5.92-21.4-1.7-4.6-1.13-9.92-5.63-13.56-1.05-.85-.63-3.73,1.17-5.07a38.91,38.91,0,0,0,5.54-5.37c2.6-2.89,14.71.42,15.73,4.07a1.9,1.9,0,0,1-.57,1.85,15.41,15.41,0,0,0-.86,16.14,57,57,0,0,1,5.86,13.41c1.43,4.88,5.44,9.1,9.26,12.91,3.08,3.08,4,11.13,1.56,14.46-1.52,2-4.06,2-6.07,1.14-3.9-1.72-7.36-.84-10.94.78C577.32,389.06,574.55,387.17,574.42,377.73Z"
       transform="translate(-445.5 -121.26)"
       id="path51797" />
    <path
       class="cls-2"
       d="M755.8,289.92c8.72.11,13.08,5.09,11.61,12.92-2.77,14.83-4.94,29.72-5.07,44.85a22,22,0,0,1-1.29,7.5c-.85,2.22-2.08,4.3-5.35,1.78-4.58-3.53-9.43-7.23-15.93-4.13-1.94.93-1.82-1.05-2.15-2-1.39-3.91.52-7.21,2.72-10,1.42-1.81,2.34-3.43,2-5.61-.33-1.94.51-3.29,1.61-4.74,6.76-8.88,6-19.48,6.7-29.74a2.42,2.42,0,0,0-.35-1.48c-1.46-2-4.22-3.62-1.87-6.69C750.43,289.94,753.3,289.72,755.8,289.92Z"
       transform="translate(-445.5 -121.26)"
       id="path51799" />
    <path
       class="cls-2"
       d="M677.87,475.35c4-.18,7.1-2.8,11.08-3.54,4.63-.86,8.28,1.6,12.49,1.6.62,0,2.27,4.17,1.28,7-1.13,3.23-3.58,5.46-5.37,8.19-1.68,2.55-3.06,5.07-.32,8,2.13,2.25.2,4.07-1.06,5.91-4.91,7.17-5.06,7.21-12.66,2.44a8.64,8.64,0,0,0-6.08-1.5c-6.48.61-13.63-6.36-14.82-13.1-.12-.68-.41-1.55-.13-2.06,2.33-4.26,4.77-8.46,7.18-12.68C672.22,473.81,675,474,677.87,475.35Z"
       transform="translate(-445.5 -121.26)"
       id="path51801" />
    <path
       class="cls-2"
       d="M728.67,502.64c-6.57-2.42-10.78.38-14.23,5.32a3.29,3.29,0,0,1-3.85,1c-3.74-1.18-7.41-2.58-11.06-4-1.52-.6-2.14-1.48-.6-3,1.85-1.88,1.58-4.28.2-6.24-2-2.89-1.19-5.14.88-7.47,3.36-3.78,6.29-7.5,4.44-13.33-.82-2.58,1.7-3.31,3.67-1.72,3.63,2.91,7.13,3.14,11.53,1.5,3.28-1.23,6.2,1.35,8.6,3.63,1.75,1.67,3.34,2.87,6.12,2.83,3.69-.06,5.16,4.43,4.93,8-.39,6.25-4,9.55-8.65,12.45C729.91,502,729.13,502.39,728.67,502.64Z"
       transform="translate(-445.5 -121.26)"
       id="path51803" />
    <path
       class="cls-2"
       d="M649.64,519.48c-8.1-2.82-12.11-8.88-14.25-16.9-.61-2.29-.53-3.19,1.39-3.9a11,11,0,0,0,7.53-8.48c.5-2.26,1.77-3.65,4.94-2.19,3.5,1.61,7.41.11,11.09-.85-.87,10,7.9,18.57,17.84,18.43,3.71-.06,6.76,3.32,9.6,5.71,1,.86.7,3.75-.37,5.48-1.37,2.21-2.9.24-4-.3a13.46,13.46,0,0,0-12.69.24c-6.17,3.47-12.37,3.75-18.81,1.76-1.66-.51-2.08-.15-2.42,1.19Z"
       transform="translate(-445.5 -121.26)"
       id="path51805" />
    <path
       class="cls-2"
       d="M770.47,375.94a5.69,5.69,0,0,1,2.06-4c8-7.73,9-18.3,10.69-28.35.76-4.43,1-9.17-1.26-13.86-1.5-3.1,4.12-3.92,4.38-7.13,1.72.58,3.57-2.87,5.39.39.6,1.08,2.7,1.28,4.07,2,4.41,2.22,6,7.18,3.08,11.23-2.63,3.71-1.73,8-2.58,11.94-.8,3.72-.64,7.69-1.78,11.27A24.94,24.94,0,0,0,794.6,375a9.32,9.32,0,0,1-.51,6.56c-.63,1.53-1,2.77-2.86,3.32-2.27.69-2.55-1.12-3.49-2.24-2.88-3.4-8.41-5.66-12.32-3.12-.78.51-1.24,3.14-3.07,1C771.21,379.19,769.88,378,770.47,375.94Z"
       transform="translate(-445.5 -121.26)"
       id="path51807" />
    <path
       class="cls-2"
       d="M703.7,540.17c-8.8-.24-12.05-4.9-8.88-12,1.67-3.71-.71-5.48-2.93-7.36-3-2.51-1.45-6.9.55-9.73,5-7.07,9.79-1.89,14.79-.93,3.8.72,6.29,2.13,7.86,6.17,1.66,4.28,7.43,5,9.84,9.44,2,3.72,1.9,7.49-2.1,8.84-5.4,1.81-10.86,3.47-16.31,5.11A14.86,14.86,0,0,1,703.7,540.17Z"
       transform="translate(-445.5 -121.26)"
       id="path51809" />
    <path
       class="cls-2"
       d="M716.57,253c-1.36,2.44.69,7.41-6.29,6.67-2.73-.29-5.81.34-9,0-2.77-.32-2.49-1.12-3-2.85-1-3.28-.1-6.52.93-9.24,3.48-9.14,2.16-18-.16-27a14.83,14.83,0,0,1-.57-3.08c-.08-2-1.14-4.54,1.26-5.63s3.25,1.17,4.18,2.88c1.05,1.91,2.38,1.29,3.94.51,2.2-1.1,4.67-1.06,6.3.84,1.38,1.61,1.45,3.46,1,6-1.79,9.22-3.21,18.65,1,27.76A13.58,13.58,0,0,1,716.57,253Z"
       transform="translate(-445.5 -121.26)"
       id="path51811" />
    <path
       class="cls-2"
       d="M649.61,245.42c.71-5,3.2-10,4.19-15.5.65-3.59.88-7-.5-10.06a3.94,3.94,0,0,1,1.08-4.93c1.24-1.21,3-2.95,5.23-.9,1.44,1.35,2.4-.27,3.63-.73,2.08-.77,4.48-1.33,6.34.41a5,5,0,0,1,.85,6.93c-4.64,6.52-2.68,13.57-2.17,20.59a7.16,7.16,0,0,0,2.29,5,6.15,6.15,0,0,1,2.22,4.51c0,1.55.67,3.46-.59,4.55-1.52,1.32-2.26-1-3.45-1.44-4.57-1.83-9.09-2.68-13.93-1.07C652.12,253.68,649.63,250.28,649.61,245.42Z"
       transform="translate(-445.5 -121.26)"
       id="path51813" />
    <path
       class="cls-3"
       d="M747.2,498c.92,2.18.18,4.08-1.18,6.34a12.22,12.22,0,0,0-2.05,7.94c.61,6.32-5,9.39-9.59,12.34-2,1.3-5.1,2.45-6.89-.31-2.18-3.37-5.69-5-8.42-7.61s-3.74-5.46-2.28-8.75,4.63-4.36,8.27-4.1a16.09,16.09,0,0,0,15.75-10.23c.49-1.3-.66-3.92,3-3.18,2.91.59,3.17,2,3.36,4.11C747.28,495.6,747.2,496.66,747.2,498Z"
       transform="translate(-445.5 -121.26)"
       id="path51815" />
    <path
       class="cls-2"
       d="M649.47,519.65c3.37,2,7.81.92,10.92,3.91,1.07,1,1.61-.79,2.46-1.15,5.58-2.39,10.76-6.38,17.49-4.29,3.35,1,5.62,3.89,9.27,4.74,2.76.64,5,3.48,2,6.76-2.07,2.19.49,5.67-4,8-6.07,3.18-10.57,1.21-14.77-1.48a47.14,47.14,0,0,0-15-6c-6.31-1.5-8.88-4.74-8.19-10.68Z"
       transform="translate(-445.5 -121.26)"
       id="path51817" />
    <path
       class="cls-3"
       d="M567.81,321.09c-.78-5.62-1.35-10,3.76-13.15,5.72-3.57,7.56-9.69,6.92-15.82-.71-6.77,3.58-12.64,2.41-19.34a2.79,2.79,0,0,1,2.61-2.85,3.71,3.71,0,0,1,3.74,3c.35,2.2.91,4.67.27,6.67-1.45,4.46-.89,8.83.06,13.07s1,8.09-.59,11.79-.76,6.35,1.85,8.78A4.58,4.58,0,0,1,590,318.9c-.81,1.94-1.33,3.09-3.83,1.12C581.07,316,572.23,316.52,567.81,321.09Z"
       transform="translate(-445.5 -121.26)"
       id="path51819" />
    <path
       class="cls-3"
       d="M767.3,291.67c-5-4.55-11.59-3.54-17.26-5.42.12-.46.12-1,.29-1.08,7.68-2.4,6.84-8.9,8-15,1-5.22-.91-9.69-1.31-14.52-.52-6.22,1.87-7.61,7.48-6,4.89,1.37,6,4.42,6.13,8.59.36,10.26.46,20.52-2,30.59A18.78,18.78,0,0,1,767.3,291.67Z"
       transform="translate(-445.5 -121.26)"
       id="path51821" />
    <path
       class="cls-2"
       d="M620.63,487.3c-.16-.85.64-1.43,2.73-1.59,6.27-.48,7.41-1.81,7-7.94-.43-6.29-.37-12.14,6.76-15.09,1.48-.61,2.65-3,4.39-1.73a4.91,4.91,0,0,1,1.55,5.59c-.7,2.12-1.08,4.53-2.36,6.24-2.56,3.41-1.82,6.76.73,9,5.24,4.52,1.35,8.67-.73,11.79-1.63,2.45-4.76,5.74-8.48,5.36-5.11-.51-8.51-4.15-11.18-8.33C620.68,490,620.83,489.18,620.63,487.3Z"
       transform="translate(-445.5 -121.26)"
       id="path51823" />
    <path
       class="cls-2"
       d="M667.29,471.51c.17,8.78-6.49,15.13-16.15,15.38-2.8.07-9.81-7.41-9.87-10.52,0-2.4,5.33-12.47,6.64-12.26,4.89.8,10.19-5.57,14.74.87C664.19,467.16,667.14,468.36,667.29,471.51Z"
       transform="translate(-445.5 -121.26)"
       id="path51825" />
    <path
       class="cls-2"
       d="M798.16,288.82c1.29,1,2.56.14,3.9,0,2.92-.29,5.77,3,4.44,5.39-4.43,8-2.7,16.56-2.47,24.92.07,2.4-.15,4-2,5.29-2.4,1.67-3.36-.58-5.06-1.53-2.82-1.57-5.29-5.69-9.45-2.4a1.18,1.18,0,0,1-1.81-.36,2,2,0,0,1,.32-1.85c7.74-6.58,6.15-16,7.54-24.52C794,291,794.38,288.44,798.16,288.82Z"
       transform="translate(-445.5 -121.26)"
       id="path51827" />
    <path
       class="cls-3"
       d="M710.91,212c-3,1.38-5.6.36-8.52-2.05-5-4.17-5.43-5.85-.41-9.94,3.81-3.11,5-10.91,2.3-14.73-.77-1.1-3.44-1.17-1.82-3.68,1.38-2.15,3.06-3.34,5.58-2.88s4.61,0,4,4.49c-1,7-.62,14.38,5.2,20,1.1,1.06,2.45,2.69,1.14,4.08C716.4,209.31,715.75,213.51,710.91,212Z"
       transform="translate(-445.5 -121.26)"
       id="path51829" />
    <path
       class="cls-3"
       d="M665,210.7c-2.14,2-5,.12-7.77.41-2.58.28-4-1-3.05-4,1.57-5,3.86-9.67,1.52-15.42-.66-1.62,1.63-6.59,4.58-7.92,2.48-1.12,3.81,1.45,3.81,4,0,6.26.82,12.15,6.27,16.34a3.34,3.34,0,0,1,1.06,2.23,9.85,9.85,0,0,1-.45,3.57c-.29.89-.82,2.44-2,1.71A6.37,6.37,0,0,0,665,210.7Z"
       transform="translate(-445.5 -121.26)"
       id="path51831" />
    <path
       class="cls-4"
       d="M762.89,239.93a9.35,9.35,0,0,1-2.64-7.56c.09-1.45.77-3.37-1-4.27s-3.84-1.44-3.22-4c.35-1.44,1.65-1.94,3.25-2,2.46-.1,4.52.34,5.74,2.68,1.68,3.22,3.06,6.53,2.89,10.28-.15,3.3-.5,6.67,2.88,8.86,1.15.75,1,1.74,0,2.53-1.49,1.19-3.22,2.38-5,1-2.53-2-4.7-2.27-7.1.13-.93.94-2.51,2-3.53.54a3.49,3.49,0,0,1,.4-4.33C757.45,241.86,759.35,239.77,762.89,239.93Z"
       transform="translate(-445.5 -121.26)"
       id="path51833" />
    <path
       class="cls-3"
       d="M810.42,286.64c-6.28.51-11.18-1-15.85,1.06a1.68,1.68,0,0,1-2.27-.66c-.9-1.41.57-1.7,1.21-2.37,1.33-1.41,5.09-1,4.65-2.29-1.49-4.51,2.65-8.55.45-12.91-.79-1.56-1.27-3.6,1.59-3.55,2.08,0,6-.25,5,2.65C803,275.64,804.77,281.19,810.42,286.64Z"
       transform="translate(-445.5 -121.26)"
       id="path51835" />
    <path
       class="cls-5"
       d="M746.52,516.2c-.16-4.36-.72-8.73,2-12.66,1.38-2,2.31-2.87,3.64.17C754.28,508.65,751.72,514.76,746.52,516.2Z"
       transform="translate(-445.5 -121.26)"
       id="path51837" />
    <path
       class="cls-6"
       d="M677.87,475.35l-8.42.2v-2.33l9.44.21Z"
       transform="translate(-445.5 -121.26)"
       id="path51839" />
  </g>
  <g
     id="Layer_3"
     data-name="Layer 3">
    <path
       class="cls-7"
       d="M927,122.76V328.6a313.88,313.88,0,0,1-2.28,38c-.11.93-.24,1.86-.36,2.79,0,.2,0,.4-.08.59-.09.74-.19,1.47-.31,2.2-.46,3.37-1,6.69-1.6,10-.07.44-.15.87-.23,1.31-.16.8-.29,1.6-.45,2.4s-.34,1.79-.51,2.69l-.45,2.22-.24,1.15c-.15.71-.3,1.44-.46,2.15-.54,2.37-1.07,4.71-1.61,7l-.58,2.32-.52,2q-1.53,5.88-3.27,11.61c-.29,1-.59,1.94-.9,2.92l-.6,1.88c-.2.63-.4,1.24-.61,1.86-.37,1.09-.73,2.17-1.1,3.25s-.68,2-1,3c-.47,1.28-.93,2.56-1.39,3.81-.36,1-.73,2-1.11,3l-.19.5c-.43,1.14-.87,2.25-1.32,3.36s-.87,2.17-1.31,3.2c0,.15-.12.28-.18.42-.4,1-.8,2-1.25,3s-.76,1.75-1.13,2.62l-.66,1.49c-.48,1.07-1,2.11-1.44,3.15s-.9,2-1.36,2.93l-1,2.12c-.29.63-.6,1.25-.91,1.87-.63,1.33-1.31,2.64-2,4q-2.52,5-5.19,9.77l-2,3.57-.12.21c-1.4,2.44-2.82,4.86-4.28,7.24a.41.41,0,0,1,0,.09c-.71,1.2-1.46,2.4-2.18,3.54-.11.16-.2.32-.3.47s-.31.5-.47.74c-.4.64-.81,1.28-1.22,1.92l-.65,1c-.65,1-1.31,2-2,3l-.13.18c-.65,1-1.31,2-2,3l-.45.67q-2.25,3.29-4.54,6.46l-.31.43c-.8,1.07-1.54,2.14-2.31,3.19s-1.66,2.23-2.5,3.32c-1.52,2-3.06,4-4.61,6l-.81,1q-1.09,1.39-2.22,2.76L854,526.61l-.57.69c-.4.47-.79.93-1.2,1.39a4.16,4.16,0,0,1-.27.32c-.31.37-.62.73-.94,1.09-1.23,1.44-2.46,2.87-3.73,4.29-.65.75-1.32,1.5-2,2.24s-1.52,1.69-2.29,2.51-1.47,1.6-2.22,2.4q-3,3.2-5.93,6.24-2.76,2.82-5.53,5.59l-.83.82c-.64.64-1.29,1.27-1.93,1.89-.92.89-1.85,1.78-2.79,2.66l-2.28,2.12c-.68.65-1.36,1.28-2,1.91q-14.52,13.32-30.16,25.31c-1,.77-2,1.52-3,2.28q-9.86,7.43-20.1,14.31-1.56,1.05-3.12,2.07c-1,.65-2,1.29-3,1.92a0,0,0,0,1,0,0l-.18.12h0l-2.24,1.45c-.86.55-1.72,1.1-2.57,1.6l-1.74,1.09c-3.67,2.31-7.25,4.48-10.73,6.54l-2.41,1.4-2.36,1.37-2.33,1.34-2.23,1.29c-8.34,4.68-15.9,8.59-22.38,11.76l-1.6.8c-10.64,5.15-18.12,8.22-21,9.35l-.42.17-.61.24-.14,0h-.08l-.23-.09-.21,0-1.07-.42-.54-.23c-.87-.34-2-.8-3.37-1.38l-.46-.18c-1.76-.8-3.89-1.67-6.33-2.77l-1.39-.61a442.25,442.25,0,0,1-39.75-20.6c-.8-.44-1.6-.92-2.35-1.38q-7.23-4.26-14.29-8.78-5.26-3.36-10.42-6.85c-.75-.51-1.49-1-2.23-1.53-.57-.38-1.13-.76-1.69-1.16q-8.21-5.66-16.15-11.66l-2.63-2-.61-.47c-.77-.6-1.55-1.2-2.33-1.82l-2.37-1.86-.44-.35c-6.19-4.92-12.43-10.15-18.64-15.69L558.08,566q-2.31-2.05-4.59-4.2l-1.67-1.57L550,558.54l-2-1.94c-1.12-1.07-2.23-2.17-3.33-3.27-.85-.79-1.69-1.66-2.52-2.5l-.24-.26c-.84-.83-1.67-1.67-2.5-2.51l-.34-.36c-.55-.56-1.09-1.12-1.63-1.69l-1-1.06-1-1-.13-.15-2.1-2.25c-1.12-1.2-2.24-2.41-3.34-3.64h0c-1.11-1.23-2.21-2.46-3.31-3.71l-1.31-1.5-.74-.84c-.57-.65-1.12-1.29-1.66-1.94q-1-1.2-2-2.4-4.28-5.1-8.39-10.48c-.76-1-1.5-1.93-2.24-2.92-1.89-2.47-3.73-5-5.57-7.55-.55-.8-1.12-1.59-1.68-2.39-.13-.16-.24-.34-.36-.5-.59-.86-1.19-1.7-1.77-2.56l-1.54-2.28a1,1,0,0,1-.12-.17c-.39-.57-.77-1.14-1.15-1.72-.74-1.09-1.47-2.2-2.19-3.31a1,1,0,0,0-.15-.24l-2.22-3.48-.22-.36-.88-1.43-1.22-2-.32-.53c-.17-.27-.34-.56-.51-.85-.46-.76-.94-1.56-1.38-2.33l-.64-1.1c-.5-.84-1-1.67-1.49-2.57q-4.61-8-8.77-16.46c-.35-.69-.69-1.38-1-2.09-.22-.44-.44-.88-.65-1.35-.43-.87-.8-1.74-1.25-2.63a25.91,25.91,0,0,1-1.15-2.47l-.23-.48c-.27-.58-.53-1.16-.81-1.75l-.26-.57c-.27-.59-.52-1.19-.8-1.78q-1.44-3.25-2.79-6.57c-.42-1-.8-2-1.23-3.08-.1-.25-.21-.52-.31-.79-.4-1-.8-2-1.16-3s-.69-1.82-1-2.74l-.24-.65c-.17-.44-.33-.91-.49-1.35q-1-2.7-1.9-5.44c-.21-.6-.4-1.2-.6-1.8-.26-.8-.51-1.54-.75-2.32-.14-.41-.27-.8-.4-1.22-.25-.8-.49-1.59-.75-2.39-.31-1-.61-2.06-.92-3.11-.19-.64-.39-1.28-.57-1.95-.37-1.29-.74-2.58-1.09-3.89-.19-.68-.37-1.35-.55-2-.13-.5-.27-1-.4-1.51-.32-1.22-.62-2.45-.92-3.7-.18-.7-.34-1.4-.52-2.11-.07-.28-.13-.56-.19-.85-.37-1.55-.72-3.11-1.07-4.69-.26-1.16-.5-2.33-.74-3.5-.13-.71-.29-1.43-.42-2.14s-.32-1.59-.48-2.45a1.86,1.86,0,0,0-.09-.47c-.16-.8-.3-1.64-.45-2.48s-.32-1.84-.48-2.77-.29-1.8-.45-2.71q-.57-3.7-1.07-7.47c-.17-1.23-.33-2.47-.48-3.71A312.7,312.7,0,0,1,447,328.58V122.76Z"
       transform="translate(-445.5 -121.26)"
       id="path51842" />
  </g>
  <path
     id="shine"
     d="M 1.5800018,0.6790293 V 207.05591 c 0,229.66454 239.9199982,319.6031 239.9199982,319.6031 0,0 239.92,-89.93856 239.92,-319.6031 V 0.6790293 Z"
     style="fill:url(#rg);stroke:#000000;stroke-width:2.41218" />
</svg>
