<?xml version="1.0" encoding="UTF-8" standalone="no"?>
<svg
   viewBox="0 0 483 527.48"
   version="1.1"
   id="svg34527"
   sodipodi:docname="House Florent GoT.svg"
   inkscape:version="1.2.1 (9c6d41e410, 2022-07-14)"
   xmlns:inkscape="http://www.inkscape.org/namespaces/inkscape"
   xmlns:sodipodi="http://sodipodi.sourceforge.net/DTD/sodipodi-0.dtd"
   xmlns="http://www.w3.org/2000/svg"
   xmlns:svg="http://www.w3.org/2000/svg">
  <sodipodi:namedview
     id="namedview34529"
     pagecolor="#ffffff"
     bordercolor="#000000"
     borderopacity="0.25"
     inkscape:showpageshadow="2"
     inkscape:pageopacity="0.0"
     inkscape:pagecheckerboard="0"
     inkscape:deskcolor="#d1d1d1"
     showgrid="false"
     inkscape:zoom="1.12203"
     inkscape:cx="241.52651"
     inkscape:cy="226.3754"
     inkscape:window-width="1920"
     inkscape:window-height="1017"
     inkscape:window-x="-8"
     inkscape:window-y="-8"
     inkscape:window-maximized="1"
     inkscape:current-layer="svg34527" />
  <defs
     id="defs34408">
    <style
       id="style34406">.cls-1{fill:#d2c4aa;}.cls-2{fill:#160d0c;}.cls-3{fill:#180f0e;}.cls-4{fill:#140b0b;}.cls-5{fill:#150c0c;}.cls-6{fill:#150c0b;}.cls-7{fill:#281f1a;}.cls-8{fill:#231915;}.cls-9{fill:#1e1512;}.cls-10{fill:#221917;}.cls-11{fill:#211815;}.cls-12{fill:#261d18;}.cls-13{fill:#201714;}.cls-14{fill:#1e1412;}.cls-15{fill:#201715;}.cls-16{fill:#241b18;}.cls-17{fill:#231917;}.cls-18{fill:#211816;}.cls-19{fill:#1d1413;}.cls-20{fill:#231a18;}.cls-21{fill:#1d1412;}.cls-22{fill:#1d1311;}.cls-23{fill:#4e4438;}.cls-24{fill:#a05521;}.cls-25{fill:#9f5421;}.cls-26{fill:#955222;}.cls-27{fill:#33271e;}.cls-28{fill:#201510;}.cls-29{fill:#a79367;}.cls-30{fill:none;stroke:#000;stroke-width:3px;}</style>
    <radialGradient
       id="rg"
       gradientUnits="userSpaceOnUse"
       cx="220"
       cy="220"
       r="405"
       gradientTransform="matrix(0.80510068,0,0,0.80302287,-0.110201,-0.662922)">
      <stop
         style="stop-color:#ffffff;stop-opacity:.3"
         offset="0"
         id="stop753" />
      <stop
         style="stop-color:#ffffff;stop-opacity:.2"
         offset=".2"
         id="stop755" />
      <stop
         style="stop-color:#666666;stop-opacity:.1"
         offset=".6"
         id="stop757" />
      <stop
         style="stop-color:#000000;stop-opacity:.13"
         offset="1"
         id="stop759" />
    </radialGradient>
  </defs>
  <title
     id="title34410">House Florent</title>
  <g
     id="Layer_2"
     data-name="Layer 2">
    <path
       class="cls-1"
       d="M927,122.76V328.6a314.37,314.37,0,0,1-2.28,38c-.11.93-.24,1.86-.36,2.79s-.24,1.86-.39,2.79q-.7,5.05-1.61,10c-.07.44-.15.87-.23,1.31-.15.8-.29,1.6-.45,2.39s-.34,1.8-.51,2.69l-.45,2.22-.24,1.16c-.15.71-.3,1.44-.47,2.15q-.8,3.55-1.61,7l-.58,2.32-.52,2q-1.52,5.88-3.27,11.61c-.29,1-.59,1.94-.9,2.92l-.6,1.88c-.19.63-.39,1.25-.6,1.86l-1.1,3.26c-.37,1.09-.68,2-1,3-.47,1.28-.92,2.55-1.39,3.81-.36,1-.73,2-1.11,3l-.19.49c-.43,1.14-.87,2.25-1.32,3.37s-.87,2.16-1.32,3.19a3.35,3.35,0,0,1-.18.42c-.4,1-.8,2-1.25,3s-.75,1.75-1.13,2.62l-.66,1.49c-.47,1.07-.95,2.12-1.44,3.15s-.9,2-1.36,2.93l-1,2.12c-.3.63-.6,1.25-.91,1.88-.63,1.32-1.31,2.64-2,4q-2.53,5-5.19,9.77l-2,3.57-.11.21q-2.13,3.71-4.33,7.33c-.71,1.2-1.46,2.39-2.18,3.54-.1.16-.19.31-.3.46-.55.89-1.12,1.78-1.69,2.66l-.66,1c-.65,1-1.31,2-2,3l-.13.18c-.66,1-1.32,2-2,3l-.45.67q-2.26,3.28-4.54,6.46l-.31.42c-.8,1.07-1.54,2.14-2.31,3.19s-1.66,2.23-2.5,3.32q-2.29,3-4.61,6l-.8,1c-.73.93-1.48,1.85-2.22,2.76L854,526.61l-.57.69L851,530.1q-2.83,3.32-5.72,6.53c-.75.85-1.52,1.69-2.29,2.51l-2.22,2.39q-3,3.19-5.93,6.24-2.76,2.83-5.53,5.59c-.91.91-1.84,1.82-2.76,2.71s-1.85,1.78-2.78,2.67l-2.28,2.11c-.68.65-1.36,1.28-2.05,1.91a448.64,448.64,0,0,1-61.76,47.47c-.86.55-1.73,1.1-2.58,1.6q-6.42,4.07-12.46,7.63l-2.41,1.4-2.36,1.36-2.34,1.35-2.22,1.28c-8.35,4.68-15.91,8.59-22.38,11.76l-1.61.8c-10.63,5.15-18.11,8.22-21,9.35l-.42.18-.61.23-.14.06h-.08l-.23-.1-.21,0-1.07-.42-.55-.23c-.87-.34-2-.8-3.36-1.38l-.47-.18c-1.76-.8-3.88-1.67-6.33-2.77l-1.39-.61a443.16,443.16,0,0,1-39.74-20.6c-.8-.45-1.61-.92-2.36-1.38a473.14,473.14,0,0,1-44.78-30l-2.62-2c-1-.75-2-1.52-2.95-2.29l-2.81-2.21c-6.19-4.92-12.43-10.15-18.64-15.69L558.08,566q-2.3-2.05-4.59-4.2l-1.67-1.57L550,558.54l-2-1.94c-1.12-1.07-2.24-2.16-3.34-3.26-.84-.8-1.69-1.67-2.52-2.51l-.24-.26q-1.25-1.25-2.5-2.51c-.66-.68-1.32-1.36-2-2l-2-2.07-.13-.15-2.1-2.24q-3.36-3.61-6.66-7.36c-.68-.8-1.36-1.55-2-2.35-.57-.65-1.12-1.28-1.66-1.94l-2-2.39q-4.26-5.11-8.39-10.48-1.13-1.45-2.24-2.92c-1.89-2.47-3.73-5-5.57-7.55l-1.68-2.39c-.13-.16-.24-.34-.36-.5-.59-.85-1.19-1.7-1.77-2.55-.95-1.38-1.89-2.77-2.82-4.17q-1.11-1.64-2.18-3.31l-.15-.24-2.22-3.47c-.07-.13-.15-.24-.22-.37-.71-1.14-1.41-2.27-2.1-3.4s-1.49-2.46-2.21-3.7-1.44-2.39-2.13-3.67q-4.6-8-8.77-16.47c-.35-.69-.69-1.38-1-2.08-.22-.44-.44-.89-.65-1.35-.43-.87-.8-1.75-1.25-2.63a27.17,27.17,0,0,1-1.15-2.47l-.23-.48c-.26-.58-.52-1.16-.8-1.75l-.26-.57c-.26-.58-.52-1.18-.8-1.77q-1.44-3.26-2.78-6.58c-.42-1-.8-2-1.23-3.07-.1-.26-.21-.53-.31-.8-.4-1-.8-2-1.16-3s-.68-1.82-1-2.74l-.23-.65c-.18-.45-.34-.91-.5-1.36q-1-2.69-1.89-5.44c-.21-.6-.4-1.21-.6-1.8-.26-.8-.51-1.54-.75-2.31-.14-.42-.26-.8-.39-1.22-.26-.8-.5-1.6-.75-2.39-.31-1-.61-2.06-.92-3.1-.18-.65-.39-1.28-.57-2-.37-1.28-.74-2.58-1.08-3.89-.19-.68-.37-1.35-.55-2-.13-.5-.26-1-.39-1.51-.32-1.22-.63-2.46-.92-3.7-.18-.7-.35-1.4-.52-2.11-.07-.29-.13-.57-.19-.85-.37-1.55-.71-3.11-1.07-4.69-.26-1.16-.5-2.33-.74-3.5-.14-.71-.29-1.43-.43-2.14s-.32-1.6-.47-2.45a2.13,2.13,0,0,0-.1-.47c-.15-.8-.3-1.64-.45-2.48s-.31-1.84-.47-2.77-.3-1.8-.45-2.71q-.87-5.52-1.56-11.17A314.73,314.73,0,0,1,447,328.58V122.76Z"
       transform="translate(-445.5 -121.26)"
       id="path34412" />
  </g>
  <g
     id="Layer_4"
     data-name="Layer 4">
    <path
       class="cls-2"
       d="M605.49,376.94c2.62,8.79,5.51,17.5,7.75,26.39a16.42,16.42,0,0,0,7,10.11c3.16,2.18,5.94,4.92,9,7.22,2.32,1.72,2.2,4,1.65,6.23-.6,2.44-2.85,1.45-4.41,1.51-5.2.18-10.42.12-15.62.28-1.68.05-3-.26-4.06-1.66-13.23-18.36-26.9-36.79-31.68-59.29-2.87-13.54-7.71-25.26-16.81-35.47-2.63-2.95-4.69-6.4-7.22-9.92-1.58,3.19-.07,5.39,1,7.53,2.35,4.87,4.34,10.05,7.49,14.37,7.92,10.86,6.52,23,5.85,35.14-.36,6.54-1.18,13.07-2.11,19.56-1.68,11.75,4.57,20.81,9.93,30.17,3.07,5.36,6.26,10.66,9.62,15.85,8.9,13.77,8.83,28.74,6.38,44.16-.59,3.69-2.52,4.65-5.83,5-36.29,3.4-64.69-22.06-75.73-49.8-6.47-16.26-5.47-33-4.95-49.74.84-26.66,8-52,20.26-75.44,8.39-16.08,20.14-30.13,35.87-40.14,10.57-6.73,20.64-14.32,32.15-19.46,16.94-7.56,34.19-14.18,52.67-17.1,21.09-3.33,42.41-5.33,63.49-2.28,34.44,5,65,18.26,86.89,47,12.76,16.77,20.79,36,28.39,55.49,6.59,16.88,13,33.83,19.51,50.74.55,5.13-.14,5.73-5,4.34-3-2.75-3.57-6.75-5.11-10.26-9.42-21.41-16.75-43.65-26.31-65-15.75-35.23-40.72-59.41-78.47-70-21.82-6.14-43.57-6.46-66-4.38-20.93,1.94-40.51,7.9-59.83,15.27-8.47,3.23-16.31,8.05-23.94,12.94-8.93,5.72-18.33,10.89-26.05,18.29a117.93,117.93,0,0,0-30.24,46.67c-4.58,13-8.44,26.26-9.83,39.87-1.25,12.2-2.14,24.51-1.35,36.94a82.21,82.21,0,0,0,7.87,30.58c4.88,10.32,13.28,17.44,21.08,25.17,1,1,3,1.62,3-.38,0-5.28,4.59-5.54,7.52-7.61,1.65-1.77.35-6.54,3.23-5.84,3,.74,1.71,5,1.8,7.78.12,3.36-2.83,4.31-4.75,6-1.56,3.17-.71,5.62,2.24,7.37,8.18,4.86,17.14,5.37,26.3,4.5,2.35-.22,3.25-1.91,3.28-4.05.09-6.74.6-13.53-.21-20.22-.92-7.58-5-9.71-11.91-6.77-3.4-.84-5.5.06-5.95,3.91-.21,1.82-1.4,3.36-3.56,2.65s-.78-2.44-.79-3.83c0-5.11,3-7.37,7.46-8.47,6.08-4.79,5-9.45.64-15-3.28-4.21-5.24-9.44-7.89-14.17a26.39,26.39,0,0,1-3.17-12.25,168.23,168.23,0,0,1,1.68-30.64c1.45-9.56.91-18.75-4.58-27.36-3.62-5.68-6.33-12-9.16-18.11-3.57-7.76-2.32-15.14,2.63-21.87,2.64-3.59,6-3.53,7.62.52,4.38,11,12.61,19.4,19,29.06a61.19,61.19,0,0,1,9.34,24.69c2.56,16.6,10.61,31,19.65,44.79,2,3.07,4.54,5.86,6.27,9,3.05,5.61,7.55,6.53,13.93,5.09-16.77-10.1-17.87-27-20.55-43.28C602.64,377.71,603.39,376.27,605.49,376.94Z"
       transform="translate(-445.5 -121.26)"
       id="path34415" />
    <path
       class="cls-3"
       d="M605.49,376.94a4.43,4.43,0,0,0-2.68,2.67c-1.62-.14-2-1.37-2.35-2.63a23.37,23.37,0,0,1,.88-10.21,8.34,8.34,0,0,1,1.6-3.18c2.6-2.55,2.79-5.95,3.18-9.27,1.91-13.82-1-26.82-6.36-39.5-.94-2.24-3.88-5.7-.92-7.12,2.75-1.32,4.69,2.52,6,5.1,2.44,4.82,5,9.57,6.66,14.77,1.82,5.75,2.27,5.76,7.79,3.72,17.11-6.31,34.35-11.34,53-10.48,22.54,1,40.64,9.94,54,28A144.43,144.43,0,0,1,746,385.52c.37,1.48.84,3,0,4.43-4.69,2.55-6.23-1-7.69-4.17-2.83-6.12-4.89-12.61-9.6-17.74a54.45,54.45,0,0,0-14-11.09c-2-1.07-3.46-1.35-3.8,1.9-.77,7.56,0,15,.54,22.54.2,2.94,2.18,4.89,4,6.85,3.57,3.81,4.68,8.06,2.07,12.71-5,8.94-5.65,16.12,3,24.39,9,8.53,12.62,20.53,11.64,33.49a150.7,150.7,0,0,0,0,18.54c.16,3.36.84,6.85,4.71,7.82s5.55-2.11,7.19-4.7c4.47-7,6.71-15.17,11-22.34,5.91-9.95,13-18.76,23.34-24.3,4.62-2.46,6.95-5.27,5.61-11-1.72-7.4.07-13.93,6.44-19.12,7.27-5.92,13.1-13.12,16-22.31.44-1.41,2-2.85.87-4.27s-3.26-.75-4.92-.43c-10.55,2-19.54,7.07-27.35,14.34-1.41,1.32-2.7,2.76-4.24,3.95-2.1,1.62-4.29,1.91-6.27,0s-1-3.9.28-5.74a33.49,33.49,0,0,1,4-4.13c-2.48-2.57-3.08-4.53,1.55-4.75a10.47,10.47,0,0,0,4.38-1c8.42-4.27,16.81-8.6,26.29-10.12a43.3,43.3,0,0,1,6.33-.58c9.71-.12,10.73,1,8.88,10.5-.57,2.95.42,5.27,2.06,7.54,7.24,10,13.93,20.4,21.15,30.41,3.4,4.72,5.6,10.16,9.25,14.68,3.1,3.84,6.39,7.46,12.5,5.46-8.49-.52-11.72-6.29-14.31-13.11-2.81-7.39-5.71-14.75-9-22-.77-1.68-2-3.44-.43-5.36,4.05,2.15,4.46-.48,4.57-3.49q5.82,14.44,11.64,28.88c1.58,3.92,2.85,7.8,8.14,8.65,3.47.56,5.65,3.94,8,6.38s1.42,5.46-1.79,6.27a37.76,37.76,0,0,1-17.81.24c-3.73-.9-5.62-5.54-7.89-8.83-9.54-13.78-19-27.65-28.42-41.48-.64-.94-1.13-2.07-2.75-2.3-4.81,7.55-10.22,14.77-18,19.77-3.07,2-1.74,4.67-1.35,7.3s1.86,2.83,4.07,2.87,5.17-.45,5.06,3.13c-.1,3.34-3.38.66-5.31.92-1.08.15-4.37.82-4.5,2.28-.19,2.15,3.9,1.95,5.07,2.09a20.48,20.48,0,0,0,3.48,0c2.24-.12,3.17,1.09,3.24,3.13s-1.36,2.79-3,2.56c-6.55-.89-6.19,2.56-5.88,7.6.72,12,2.69,23.76,3.77,35.66.2,2.25-.16,3.85-2.88,3.87-7.52.06-15,.09-22.56.26-2.39.06-2.91-.65-2.41-3a19.69,19.69,0,0,1,6.51-11.34c3-2.49,3.44-5,2.78-8.57-.77-4.15-2.37-8.18-2.09-12.52.08-1.21-.39-2.5-1.6-2.7-.71-.12-1.8.65-2.39,1.32-8,9-15.19,18.44-19.23,29.91-1.49,4.23-3.33,8.21-6.46,11.47-4.32,4.49-10.83,6.51-15.13,4.17-5.21-2.84-8.46-7.29-8.34-13.54.12-7,.08-13.93.63-20.85,1.17-14.87-6.47-25.28-16.91-34.27-3.48-3-7.06-6.05-11.71-7.22-1.89-.47-2.62-1.49-1.93-3.35s1.8-2.44,3.62-1.58a16.52,16.52,0,0,0,1.6.67c1.51.53,3.44,2.54,4.52.46,1.38-2.66-1.82-2.2-3.06-2.91-1.68-1-3.73-1.38-2.82-4.11,1-3,3-1.64,4.7-1.07,1.94.64,4,2.33,5.47-.53,1.58-3.16,4.65-6.5,1.71-10.08-10.7-13-6.18-27.86-5.48-42.26.12-2.5,1.53-2.9,4-2.68,3.51.31,6.4,2.34,11.17,3.75-10.32-13.58-23.08-20-37.83-22.78-12.37-2.35-24.59-.3-36.73,2.24-2.64.55-3.51,1.83-3.75,4.72-1.26,15.09,6.48,26.52,14.66,37.87,1.54,2.14,4,2.23,6.1,3,4.58,1.65,9.1,3.38,11.85,7.78,1.44,2.3,1.53,3.83-1.94,4-5.4.34-10.79.85-16.14,1.61-2.9.41-4.6-1-6.63-2.63-10.31-8.34-18.49-18.51-26.19-29.21-3.24-4.5-5.85-9.32-8.83-14.19A52.15,52.15,0,0,1,605.71,369C604.48,370.89,605.5,374.25,605.49,376.94Z"
       transform="translate(-445.5 -121.26)"
       id="path34417" />
    <path
       class="cls-4"
       d="M650,514.12a22.42,22.42,0,0,1-2.93-2.57c-2.75-3.77-4.92-2.61-6.59.84-2.25,4.63-4.35,3.83-6.68.11s-4.91-4.65-8-.68c-.75,1-1.73,2.53-3.26,1.62s-.61-2.37-.41-3.69Q627.58,474.38,633,439a13.92,13.92,0,0,1,1.07-3.9c.83-1.72,1.9-3.81,4-3.71,2.39.12,3.68,2.43,3.92,4.45,2.91,25,9.67,49.6,8.54,75.07C650.46,511.62,650.29,512.32,650,514.12Z"
       transform="translate(-445.5 -121.26)"
       id="path34419" />
    <path
       class="cls-4"
       d="M516.1,254.18c2.21-32.91,10.23-63.87,12.31-97.16,2.33,4.21,2.18,7.3,2.8,10.23,5,24,7.33,48.51,13.06,72.4a31.78,31.78,0,0,1,.82,6.86c0,2,1.38,5-.55,5.88-2.57,1.2-2.74-2.47-4.25-3.7-4.17-3.41-5.24,1.51-6,3-2.51,4.79-4.86,3.35-6.75.2-2.86-4.78-5.27-5.24-8.26-.3C518.79,252.35,517.85,252.79,516.1,254.18Z"
       transform="translate(-445.5 -121.26)"
       id="path34421" />
    <path
       class="cls-4"
       d="M848.15,162c3,32.31,10.06,64.09,11.93,96.52-1.77.59-2-.94-2.67-1.72-4.58-5.4-4.65-5.48-9.06.18-1.27,1.64-2.2,2.24-3.41.32-3.48-5.55-6.87-4.78-10.39-.05a2.41,2.41,0,0,1-2.89,1.1L846.5,162Z"
       transform="translate(-445.5 -121.26)"
       id="path34423" />
    <path
       class="cls-4"
       d="M491.93,384.28a24.62,24.62,0,0,1-1.92-2.64c-2.11-3.85-4.36-3.63-6.63-.22-2.77,4.16-5,4.43-7.54-.38s-5.07-4-7.51.36c-1,1.72-1.63,3.88-5.48,5.6,7.26-32.75,10.8-64.8,15.72-96.75C484.56,321.29,490.26,352.32,491.93,384.28Z"
       transform="translate(-445.5 -121.26)"
       id="path34425" />
    <path
       class="cls-4"
       d="M746.83,162.31c2.12,6,2.27,11.72,3,17,3.12,22.5,8.24,44.72,9.87,67.44.12,1.62,1.43,3.53-.45,4.83s-3.15-.82-4.5-1.59c-5.63-3.18-11.88-4.57-18-6.08-3.24-.8-3.89-2-3.77-5a172,172,0,0,1,3.4-26.86c2.83-14.14,2.84-28.74,7.1-42.64C744.13,167.25,744.24,164.89,746.83,162.31Z"
       transform="translate(-445.5 -121.26)"
       id="path34427" />
    <path
       class="cls-4"
       d="M854.38,513.69c-3.07-.83-3.4-4.45-6.07-6-.67.86-1.4,1.71-2,2.63-2.81,4.1-5.54,6.47-9.1.54-2.13-3.55-3.94-1.48-5.44.84-.82,1.27-1.59,3.2-3.39,2.13-1.26-.75-.11-2.42,0-3.71,1-9.56,1.61-19.18,2.88-28.71,1.82-13.69,4.1-27.31,6.18-41,.14-.93,0-2.08,1.13-2.42,1.61-.48,2.54.79,3.29,1.81,3.06,4.15,4.13,9.17,4.89,14,3,18.81,6.31,37.57,8.11,56.55C855,511.44,855.49,512.65,854.38,513.69Z"
       transform="translate(-445.5 -121.26)"
       id="path34429" />
    <path
       class="cls-5"
       d="M893,301.65c2.37,19.47,3.95,39,7.26,58.39,1.52,8.91,2.57,17.91,3.86,26.86a2.69,2.69,0,0,1-1.2,3c-1.3-1.9-2.67-3.78-3.92-5.73-1.74-2.7-3.37-3.05-4.78.17-2.28,5.22-4.21,4.13-6.37-.14a29.56,29.56,0,0,0-3.48-4.53c-2.07,2.38-2.36,6.2-6.82,7.49L890.6,301.5A1.65,1.65,0,0,1,893,301.65Z"
       transform="translate(-445.5 -121.26)"
       id="path34431" />
    <path
       class="cls-4"
       d="M639.31,161.06c1.7,10.56,3.63,21.1,5.06,31.7,1.78,13.19,2.92,26.46,4.79,39.63.68,4.79-1.06,6.37-5.36,6.61-4.81.27-9.67.38-14.16,2.47-4.23,2-5.24-.11-4.66-3.82,1.07-6.85,2.57-13.64,3.36-20.52,2.17-18.95,7.09-37.4,9.47-56.3Z"
       transform="translate(-445.5 -121.26)"
       id="path34433" />
    <path
       class="cls-5"
       d="M677.11,377.06c1.62-9.42,3.21-18.3,4.66-27.21a53.66,53.66,0,0,0,1.06-10.31c-.18-5.28,2.55-5.83,6.57-4.73a39.67,39.67,0,0,1,4.8,2c8.05,3.4,7.91,3.37,6,11.29-1.82,7.53-2.64,15.31-1.31,22.92,1.15,6.63-2.34,10.9-5.78,15.45-1.46,1.93-2.89,1.48-4-.47s-2.14-3.66-3.24-5.47c-.82-1.35-1.45-1.7-3.11-.53C679.25,382.42,677.18,381,677.11,377.06Z"
       transform="translate(-445.5 -121.26)"
       id="path34435" />
    <path
       class="cls-6"
       d="M522.2,475.6c6.77,5,12.4,10.2,19.4,13.45a4,4,0,0,1,1.91,3.42,111.63,111.63,0,0,0,3.95,21.33c-3,.51-3.78-1.85-4.76-3.15-3.46-4.63-5.79-2.76-7.84,1-1,1.9-1.27,4.43-4.07,1.31-5.36-6-5.47-5.86-11.18,0-.55.57-1,1.13-2.74.5C519,501.36,519.17,488.76,522.2,475.6Z"
       transform="translate(-445.5 -121.26)"
       id="path34437" />
    <path
       class="cls-5"
       d="M755.49,514.31c-6-5.9-6.18-6.05-11.38-.92-2.21,2.19-3.15,1.66-4.94-.33-4.84-5.4-4.93-5.31-9.47.49a19.33,19.33,0,0,1-1.9,2.13c-.23.21-.71.15-1.74.34-.64-7.34,1.83-14.31,2.07-21.43.07-2,2.17-1.15,3.73-.76,6.51,1.62,13,2.54,18.18-3.29,1-1.15,3.32-2.3,3.4,0C753.68,498.5,755.07,506.35,755.49,514.31Z"
       transform="translate(-445.5 -121.26)"
       id="path34439" />
    <path
       class="cls-7"
       d="M733,156.65c3.71.61,6.27,2.42,6.21,5.56s-2.07,6.05-5.92,5.66c-3.34-.34-6-2.26-5.69-6C727.81,158.56,730.33,157.12,733,156.65Z"
       transform="translate(-445.5 -121.26)"
       id="path34441" />
    <path
       class="cls-8"
       d="M643.35,404c-.73,3.15-2.29,5.75-6,5.63-3.44-.11-5.23-2.64-5.25-5.73,0-3.48,2.21-5.85,5.8-5.72C641.18,398.28,642.91,400.59,643.35,404Z"
       transform="translate(-445.5 -121.26)"
       id="path34443" />
    <path
       class="cls-9"
       d="M650,427.35c-3.74-.07-6-1.7-6.11-5.47-.05-3.46,2.1-5.27,5.4-5.44,3.92-.2,5.53,2.37,5.57,5.8C654.89,425.3,653,427.07,650,427.35Z"
       transform="translate(-445.5 -121.26)"
       id="path34445" />
    <path
       class="cls-10"
       d="M841.95,162.58c-.28,3.26-1.6,5.31-5,5.28-3.78,0-5.58-2.23-5.65-5.78a4.67,4.67,0,0,1,5-5.15C839.86,156.91,841.75,159.17,841.95,162.58Z"
       transform="translate(-445.5 -121.26)"
       id="path34447" />
    <path
       class="cls-11"
       d="M764.1,162.28c-.13,3.68-1.86,5.8-5.26,5.89S753.41,166.3,753,163s1.06-5.25,4.49-5.36S763.51,158.75,764.1,162.28Z"
       transform="translate(-445.5 -121.26)"
       id="path34449" />
    <path
       class="cls-12"
       d="M752.77,144.41c-.79,2.86-2.64,5.23-5.79,5.14-3-.08-5.66-2-5.57-5.32s2.35-5.94,5.86-5.76C750.37,138.64,752.28,141,752.77,144.41Z"
       transform="translate(-445.5 -121.26)"
       id="path34451" />
    <path
       class="cls-13"
       d="M853.6,145.56c-.35,3.06-2.21,5.18-5.51,5.09s-5.16-2.19-5.14-5.62c0-3.14,1.63-5.32,4.72-5.34C851.09,139.65,853.41,141.53,853.6,145.56Z"
       transform="translate(-445.5 -121.26)"
       id="path34453" />
    <path
       class="cls-14"
       d="M808.18,287.55c3.59.24,5.48,2,5.63,5.1.17,3.46-2,5.51-5.31,5.56-3.49.05-5.2-2.65-5.28-5.72S805.62,288,808.18,287.55Z"
       transform="translate(-445.5 -121.26)"
       id="path34455" />
    <path
       class="cls-15"
       d="M471.92,290.64c-.25,3.06-1.46,5.29-4.77,5.46s-5.54-1.67-5.64-5.06c-.09-3,1.43-5.19,4.68-5.47C469.83,285.25,471.24,287.59,471.92,290.64Z"
       transform="translate(-445.5 -121.26)"
       id="path34457" />
    <path
       class="cls-10"
       d="M523.69,141c.2-3.11,1.57-5.29,4.8-5.47,3.42-.18,5.63,1.8,5.68,5.12,0,3-1.95,5-5.1,5.16S524.17,144.09,523.69,141Z"
       transform="translate(-445.5 -121.26)"
       id="path34459" />
    <path
       class="cls-15"
       d="M490.8,296.24c-3-.37-5.09-1.81-5.29-5s1.35-5.36,4.6-5.5a5.2,5.2,0,0,1,5.78,5.22C496.1,294.08,494,295.77,490.8,296.24Z"
       transform="translate(-445.5 -121.26)"
       id="path34461" />
    <path
       class="cls-16"
       d="M627.06,167c-2.75-.5-5.29-1.53-5.35-4.85s1.78-5.55,5.23-5.59c3.16,0,5,1.9,5.09,5.05S630.19,166.48,627.06,167Z"
       transform="translate(-445.5 -121.26)"
       id="path34463" />
    <path
       class="cls-17"
       d="M898,276.57c-.29,3.43-1.8,5.53-5,5.62-3.41.09-5.38-2-5.51-5.3-.13-3.17,1.64-5.16,4.85-5.2S897.66,273.51,898,276.57Z"
       transform="translate(-445.5 -121.26)"
       id="path34465" />
    <path
       class="cls-9"
       d="M796,270c3.15.47,5.7,1.73,5.85,5.24.13,3.09-1.63,5.2-4.77,5.38a5.13,5.13,0,0,1-5.8-5.11C791,272.52,792.87,270.55,796,270Z"
       transform="translate(-445.5 -121.26)"
       id="path34467" />
    <path
       class="cls-18"
       d="M478.77,278.36c-3.11-.4-5-2.08-4.86-5.28s1.94-5.1,5.08-5c3.31.06,5.47,2,5.24,5.48C484,276.67,481.82,278.09,478.77,278.36Z"
       transform="translate(-445.5 -121.26)"
       id="path34469" />
    <path
       class="cls-15"
       d="M859.46,157.76c3,.6,4.94,2.16,4.82,5.44-.13,3.55-2.25,5.23-5.66,5.12-3-.1-4.6-2.14-4.6-4.92C854,160,856,158.13,859.46,157.76Z"
       transform="translate(-445.5 -121.26)"
       id="path34471" />
    <path
       class="cls-19"
       d="M522.45,159.74c-.5,3-2.2,4.92-5.33,4.84-3.47-.1-5.21-2.29-4.95-5.68.25-3.15,2.23-4.85,5.41-4.58S522.28,156.56,522.45,159.74Z"
       transform="translate(-445.5 -121.26)"
       id="path34473" />
    <path
       class="cls-10"
       d="M547.67,159.45c-.45,3.15-2.12,5.08-5.28,5.07s-5.19-1.73-5.23-4.92c0-3.45,2.08-5.36,5.46-5.29C545.8,154.37,547.3,156.49,547.67,159.45Z"
       transform="translate(-445.5 -121.26)"
       id="path34475" />
    <path
       class="cls-15"
       d="M885.84,294.81c-.28,3-1.87,5.08-4.9,5.25a4.75,4.75,0,0,1-5.4-4.69c-.23-3.36,1.58-5.57,5-5.59C883.59,289.75,885.37,291.67,885.84,294.81Z"
       transform="translate(-445.5 -121.26)"
       id="path34477" />
    <path
       class="cls-15"
       d="M907.83,294.59c-.43,3.33-2.17,5.44-5.54,5.53-2.92.07-4.67-1.8-4.85-4.61-.22-3.38,1.64-5.58,5-5.77C905.59,289.55,907.25,291.62,907.83,294.59Z"
       transform="translate(-445.5 -121.26)"
       id="path34479" />
    <path
       class="cls-20"
       d="M639.8,137c3,.52,5,2.14,4.94,5.34s-2,5-5.19,4.93-5.09-2-5-5.14S636.71,137.4,639.8,137Z"
       transform="translate(-445.5 -121.26)"
       id="path34481" />
    <path
       class="cls-21"
       d="M657.1,161c-.59,3-2.27,4.93-5.4,4.83s-4.94-2.13-4.81-5.25,2.11-5,5.22-4.89S656.83,157.89,657.1,161Z"
       transform="translate(-445.5 -121.26)"
       id="path34483" />
    <path
       class="cls-22"
       d="M828.08,420c1.43,1.75,4.15,3,4.5,5.88.22,1.86-1.66,2-2.95,1.62-2.76-.73-4-2.86-4.21-5.57C825.34,420.62,826.13,419.78,828.08,420Z"
       transform="translate(-445.5 -121.26)"
       id="path34485" />
    <path
       class="cls-23"
       d="M893,301.65l-2.36-.15c.18-2.37-.49-4.83.93-7.58C893.58,296.49,893.15,299.1,893,301.65Z"
       transform="translate(-445.5 -121.26)"
       id="path34487" />
    <path
       class="cls-24"
       d="M744.6,386.1c-5.79-15-13-29.32-23.71-41.49-12.75-14.55-29.18-21.4-48.45-22.32-19.42-.92-37.44,4.24-55,11.78-3.87,1.67-5.35.87-6.51-3-2.46-8.29-5.72-16.27-11.9-22.77,6,15,11.48,30,8.38,46.53-1.68,3-1,6.8-3.5,9.43-.93.45-1.06,1.31-1.14,2.2-2.25,3.39-2,7-1.15,10.76l1.15,2.42c1.18,8.45,4.29,16.41,6.3,24.64s7.61,12.64,14.09,16.71c1.06.66,2.92,1,2.35,2.76s-2.27,1-3.54,1.09c-6.33.39-11.29-.51-15.4-6.92-10.44-16.28-21.78-32.24-25-51.64a73.72,73.72,0,0,0-17.38-37,57.59,57.59,0,0,1-10.59-17.81c-.52-1.42-.93-3.22-2.71-3.43s-2.63,1.43-3.43,2.71c-4.29,6.85-5.43,13.86-1.36,21.32,4,7.29,7.89,14.62,11.5,22.1,3.52,7.29,2.27,15.13,1.73,22.8-.38,5.38-1.06,10.74-1.79,16.09-2.05,15,2.85,28.11,11,40.36a48.21,48.21,0,0,1,3.44,5.35c1.06,2.19,5.18,5-1.16,6.23-2.36.44-.77,3.61-2.71,4.92a7.3,7.3,0,0,1-3.94.84c-2.69-.23-3.92.75-3.65,3.56.31,3.28-1.61,5.74-4.55,5.2-5.36-1-4.87,2.09-4.72,5.37a4.53,4.53,0,0,1-.48,2.77c-3.87,1.36-7.93,1.49-7.51,8.08.29,4.55-3.44.87-4.57-.16-10.15-9.24-19.55-18.93-25.05-32-5.26-12.53-6-25.55-5.48-38.57.48-12.84,1-25.74,4-38.48,2.59-11.12,7.06-21.51,10.28-32.31,3.84-12.91,12.58-22.39,20-32.8,5.19-7.25,12.62-12.19,19.9-17.23,11-7.59,22.08-15.06,34.24-20.36,19.62-8.55,39.88-15.33,61.53-16.94,11.16-.83,22.29-2.35,33.5-1.81,27.53,1.31,53.25,8.7,75.77,24.87,18.17,13,30.14,31.17,39.31,51.37,10.7,23.57,19.24,48,28.84,72a37.54,37.54,0,0,0,1.89,3.59q6.69,16.26,13.38,32.52a8.55,8.55,0,0,0,7.4,5.63c2.73.31,5.17.94,6.76,3.51-9.53,3.34-15.2-1.17-19.57-8.6-8.69-14.74-18.69-28.61-28.58-42.54-2.47-3.48-3.33-6.49-1.52-10.62,2.18-5,.78-6.37-4.61-6.61-11.58-.52-21.77,3.68-31.75,8.81-1.35.7-2.83,1.15-4.25,1.71-7.86.34-15,3.7-22.51,5.41C749.68,386.54,747.16,388.15,744.6,386.1Z"
       transform="translate(-445.5 -121.26)"
       id="path34489" />
    <path
       class="cls-1"
       d="M569.26,453.42c.7-.15,1.95-.16,2-.46,2-7.87,5.21-2.84,7.48-.5a15.53,15.53,0,0,1,4.7,11.44c-.14,6.17,0,12.35,0,18.52,0,3-1.07,4.82-4.35,4.79-8.24-.08-16.33.24-24.41-3-6.12-2.45-8.79-5.51-7.48-11.89,5.13-.08,7.45-2.27,6.45-7.72-.62-3.41,2.06-3.65,5.12-3,2.54.56,4.47,0,4-3.64C562.23,452.4,565.44,452.56,569.26,453.42Z"
       transform="translate(-445.5 -121.26)"
       id="path34491" />
    <path
       class="cls-3"
       d="M569.26,453.42c-3.75-.14-6.68.23-6,5.43.51,3.83-2.88,2.89-4.9,2.72-3.18-.28-4.92.63-4.24,4,1.2,5.92-1.75,7.39-6.88,6.74,7-1.3,6.25-6.33,5.41-11.57-1.83,2,.36,5.11-1.89,6.85,0-1.71,0-3.43-.11-5.13-.26-2.8.64-4.45,3.73-4.21,3.6.28,5.45-.75,5.71-5,.37-5.89,8-2,10.78-2.74-6.65.05-9.89,3.94-11,10.52C563.74,457.63,560.87,448.41,569.26,453.42Z"
       transform="translate(-445.5 -121.26)"
       id="path34493" />
    <path
       class="cls-24"
       d="M771.28,385.19c-1.69,1.57-3.44,3.08-5.06,4.72-1.18,1.19-2.92,2.5-.88,4.29,1.8,1.57,3.46,1,5-.64a57.53,57.53,0,0,1,18.31-13.85,51.93,51.93,0,0,1,17.68-5c3.44-.27,4.78.13,3,4.48-4.17,10.49-10,19.61-18.94,26.47-6.54,5-5.8,11.79-4.68,18.35.79,4.66.25,7.36-4.28,9.71-15.9,8.24-25,22.34-31.52,38.37a73.3,73.3,0,0,1-4.86,9.82c-2,3.41-4.37,6.27-8.67,5.14s-5.86-5-6-9c-.24-8.48.12-17,0-25.47-.27-13.42-7.08-23.76-16.38-32.59-3.11-3-5.35-4.73-2.17-9.34,2.66-3.87,3.89-8.76,5.52-13.28,1.14-3.15-.41-5.7-2.74-7.68-3.82-3.24-5.36-7.16-5.23-12.22.17-6.86-.23-13.73-.52-20.59-.18-4.25,2.34-3.35,4.48-2.3,9.22,4.51,16.82,10.87,21.64,20.09a129.87,129.87,0,0,1,5.64,12.61c1,2.59,2.6,3.1,5,2.35a35.37,35.37,0,0,1,25.12-5.86C771.41,383.87,771.31,384.63,771.28,385.19Z"
       transform="translate(-445.5 -121.26)"
       id="path34495" />
    <path
       class="cls-25"
       d="M667.31,384.84c-4.27.54-8.38,1.07-12.49,1.56a3.84,3.84,0,0,1-3.1-1.18,151.42,151.42,0,0,1-30.24-37c-4-6.84-3.17-9,4.06-12.14.71-.31,1.43-.59,2.15-.84,8.61-3,8.14-3,8.93,6.18,1.22,14.06,7.82,25.83,17.37,36,1.83,1.95,4.51,2.75,7.21,3.44C663.42,381.44,666.29,381.54,667.31,384.84Z"
       transform="translate(-445.5 -121.26)"
       id="path34497" />
    <path
       class="cls-26"
       d="M776.67,476.73a8,8,0,0,1,3.76-5.07c5.57-3.71,5.36-8.62,3.92-14.3-1.27-5-1.82-10.23-2.61-15.36-.36-2.34,1.24-3.76,3.08-4.33,2.57-.8,2.68,1.45,2.92,3.14q2.14,15.46,4.21,30.93c.43,3.29-.77,5.18-4.46,5C784,476.62,780.56,476.73,776.67,476.73Z"
       transform="translate(-445.5 -121.26)"
       id="path34499" />
    <path
       class="cls-3"
       d="M771.28,385.19c-1.69-2-3.92-1.34-5.85-.86-6.63,1.64-13.2,3.52-19.8,5.31l-1-3.54c10.07-1.65,19.48-6.83,30.09-5.54-1.91,2.24-4.76.32-7,1.57,1.37,1.43,3.44,0,4.63,1.06C774,384.68,772.27,384.85,771.28,385.19Z"
       transform="translate(-445.5 -121.26)"
       id="path34501" />
    <path
       class="cls-27"
       d="M604,364.23c1.42-3,1-6.76,3.5-9.43C606.92,358.18,607.55,362,604,364.23Z"
       transform="translate(-445.5 -121.26)"
       id="path34503" />
    <path
       class="cls-27"
       d="M601.66,377.18c-1.37-3.77-2.21-7.49,1.15-10.76Z"
       transform="translate(-445.5 -121.26)"
       id="path34505" />
    <path
       class="cls-3"
       d="M753.51,441.24c-2.45-6.16-.07-10.65,4.52-14,5.14-3.77,10.4-1.95,15.71.59-2.71.82-4.24,2.76-5.9,4.64s-3.73,4-6.84,3.55C757,435.39,754.22,436.56,753.51,441.24Z"
       transform="translate(-445.5 -121.26)"
       id="path34507" />
    <path
       class="cls-3"
       d="M719.14,363.07a52.06,52.06,0,0,1,15.23,22.48c.43,1.28.37,2.36-1.09,2.68s-2.1-.73-2.6-1.81c-1.94-4.17-3.58-8.5-5.82-12.5-2-3.52-4.6-6.67-6.94-10Z"
       transform="translate(-445.5 -121.26)"
       id="path34509" />
    <path
       class="cls-28"
       d="M744.38,476c-.73,3-2.53,4.51-5.4,4.37-3.56-.17-5-2.46-5.07-5.8-.06-2.35.86-3.71,3.42-3.46C740.61,471.44,743.19,472.76,744.38,476Z"
       transform="translate(-445.5 -121.26)"
       id="path34511" />
    <path
       class="cls-3"
       d="M798.52,382.44c-7.58,3.1-14.39,7-19.31,13.72-.76,1-2,2.16-3.41,1s-.8-2.46.34-3.37C782.79,388.5,789.55,383.31,798.52,382.44Z"
       transform="translate(-445.5 -121.26)"
       id="path34513" />
    <path
       class="cls-3"
       d="M714.55,383.71c-1.79-.63-1.65-1.88-1.36-2.92.51-1.86,1.31-3.74,3.54-4,1.42-.15,1.32,1.25,1.08,2.05C717.24,380.84,716.43,382.76,714.55,383.71Z"
       transform="translate(-445.5 -121.26)"
       id="path34515" />
    <path
       class="cls-29"
       d="M767.12,428.39a5.54,5.54,0,0,1-3.17,4c-2,1-3.75,2.87-6.27,1.76a1.26,1.26,0,0,1-.43-2c1.56-2.14,3-4.61,6.21-4.35C764.56,427.91,765.66,428.16,767.12,428.39Z"
       transform="translate(-445.5 -121.26)"
       id="path34517" />
    <path
       class="cls-3"
       d="M736.54,439.73c4.56-4.81,4-9.86,1-14.69-3.37-5.41-9.92-7.89-15.8-7.51,2.21,1.77,3.91,6.35,4.75,8.72.89,2.52,2,5.13,5,5.84C735.51,433,737.62,435.13,736.54,439.73Z"
       transform="translate(-445.5 -121.26)"
       id="path34519" />
    <path
       class="cls-29"
       d="M728.69,422.75a5.54,5.54,0,0,0,1.46,4.87c1.42,1.7,2.41,4.06,5.17,4a1.26,1.26,0,0,0,1.13-1.67c-.65-2.57-1-5.38-4.15-6.34C731.24,423.25,730.13,423.07,728.69,422.75Z"
       transform="translate(-445.5 -121.26)"
       id="path34521" />
  </g>
  <g
     id="Layer_3"
     data-name="Layer 3">
    <path
       class="cls-30"
       d="M927,122.76V328.6a313.88,313.88,0,0,1-2.28,38c-.11.93-.24,1.86-.36,2.79,0,.2,0,.4-.08.59-.09.74-.19,1.47-.31,2.2-.46,3.37-1,6.69-1.6,10-.07.44-.15.87-.23,1.31-.16.8-.29,1.6-.45,2.4s-.34,1.79-.51,2.69l-.45,2.22-.24,1.15c-.15.71-.3,1.44-.46,2.15-.54,2.37-1.07,4.71-1.61,7l-.58,2.32-.52,2q-1.53,5.88-3.27,11.61c-.29,1-.59,1.94-.9,2.92l-.6,1.88c-.2.63-.4,1.24-.61,1.86-.37,1.09-.73,2.17-1.1,3.25s-.68,2-1,3c-.47,1.28-.93,2.56-1.39,3.81-.36,1-.73,2-1.11,3l-.19.5c-.43,1.14-.87,2.25-1.32,3.36s-.87,2.17-1.31,3.2c0,.15-.12.28-.18.42-.4,1-.8,2-1.25,3s-.76,1.75-1.13,2.62l-.66,1.49c-.48,1.07-1,2.11-1.44,3.15s-.9,2-1.36,2.93l-1,2.12c-.29.63-.6,1.25-.91,1.87-.63,1.33-1.31,2.64-2,4q-2.52,5-5.19,9.77l-2,3.57-.12.21c-1.42,2.47-2.86,4.92-4.33,7.33-.71,1.2-1.46,2.4-2.18,3.54-.11.16-.2.32-.3.47-.55.89-1.12,1.78-1.69,2.66l-.65,1c-.65,1-1.31,2-2,3l-.13.18c-.65,1-1.31,2-2,3l-.45.67q-2.25,3.29-4.54,6.46l-.31.43c-.8,1.07-1.54,2.14-2.31,3.19s-1.66,2.23-2.5,3.32c-1.52,2-3.06,4-4.61,6l-.81,1q-1.09,1.39-2.22,2.76L854,526.61l-.57.69c-.8.94-1.6,1.87-2.41,2.8q-2.82,3.32-5.72,6.53c-.75.85-1.52,1.69-2.29,2.51s-1.47,1.6-2.22,2.4q-3,3.2-5.93,6.24-2.76,2.82-5.53,5.59c-.92.91-1.84,1.82-2.76,2.71s-1.85,1.78-2.79,2.66l-2.28,2.12c-.68.65-1.36,1.28-2,1.91a449.24,449.24,0,0,1-61.76,47.47c-.86.55-1.72,1.1-2.57,1.6q-6.43,4.06-12.47,7.63l-2.41,1.4-2.36,1.37-2.33,1.34-2.23,1.29c-8.34,4.68-15.9,8.59-22.38,11.76l-1.6.8c-10.64,5.15-18.12,8.22-21,9.35l-.42.17-.61.24-.14,0h-.08l-.23-.09-.21,0-1.07-.42-.54-.23c-.87-.34-2-.8-3.37-1.38l-.46-.18c-1.76-.8-3.89-1.67-6.33-2.77l-1.39-.61a442.25,442.25,0,0,1-39.75-20.6c-.8-.44-1.6-.92-2.35-1.38a474,474,0,0,1-44.78-30l-2.63-2c-1-.75-2-1.51-2.94-2.29l-2.81-2.21c-6.19-4.92-12.43-10.15-18.64-15.69L558.08,566q-2.31-2.05-4.59-4.2l-1.67-1.57L550,558.54l-2-1.94c-1.12-1.07-2.23-2.17-3.33-3.27-.85-.79-1.69-1.66-2.52-2.5l-.24-.26c-.84-.83-1.67-1.67-2.5-2.51-.66-.68-1.32-1.36-2-2l-2-2.06-.13-.15-2.1-2.25q-3.36-3.6-6.66-7.36c-.68-.79-1.36-1.54-2.05-2.34-.57-.65-1.12-1.29-1.66-1.94q-1-1.2-2-2.4-4.28-5.1-8.39-10.48c-.76-1-1.5-1.93-2.24-2.92-1.89-2.47-3.73-5-5.57-7.55-.55-.8-1.12-1.59-1.68-2.39-.13-.16-.24-.34-.36-.5-.59-.86-1.19-1.7-1.77-2.56-.94-1.38-1.89-2.77-2.81-4.17-.74-1.09-1.47-2.2-2.19-3.31a1,1,0,0,0-.15-.24l-2.22-3.48-.22-.36c-.7-1.14-1.41-2.27-2.1-3.4s-1.49-2.46-2.21-3.71-1.43-2.39-2.13-3.67q-4.61-8-8.77-16.46c-.35-.69-.69-1.38-1-2.09-.22-.44-.44-.88-.65-1.35-.43-.87-.8-1.74-1.25-2.63a25.91,25.91,0,0,1-1.15-2.47l-.23-.48c-.27-.58-.53-1.16-.81-1.75l-.26-.57c-.27-.59-.52-1.19-.8-1.78q-1.44-3.25-2.79-6.57c-.42-1-.8-2-1.23-3.08-.1-.25-.21-.52-.31-.79-.4-1-.8-2-1.16-3s-.69-1.82-1-2.74l-.24-.65c-.17-.44-.33-.91-.49-1.35q-1-2.7-1.9-5.44c-.21-.6-.4-1.2-.6-1.8-.26-.8-.51-1.54-.75-2.32-.14-.41-.27-.8-.4-1.22-.25-.8-.49-1.59-.75-2.39-.31-1-.61-2.06-.92-3.11-.19-.64-.39-1.28-.57-1.95-.37-1.29-.74-2.58-1.09-3.89-.19-.68-.37-1.35-.55-2-.13-.5-.27-1-.4-1.51-.32-1.22-.62-2.45-.92-3.7-.18-.7-.34-1.4-.52-2.11-.07-.28-.13-.56-.19-.85-.37-1.55-.72-3.11-1.07-4.69-.26-1.16-.5-2.33-.74-3.5-.13-.71-.29-1.43-.42-2.14s-.32-1.59-.48-2.45a1.86,1.86,0,0,0-.09-.47c-.16-.8-.3-1.64-.45-2.48s-.32-1.84-.48-2.77-.29-1.8-.45-2.71q-.57-3.7-1.07-7.47c-.17-1.23-.33-2.47-.48-3.71A312.7,312.7,0,0,1,447,328.58V122.76Z"
       transform="translate(-445.5 -121.26)"
       id="path34524" />
  </g>
  <path
     id="shine"
     d="M 1.5,0.943124 V 207.32 c 0,229.66454 239.92,319.6031 239.92,319.6031 0,0 239.92,-89.93856 239.92,-319.6031 V 0.943124 Z"
     style="fill:url(#rg);stroke:#000000;stroke-width:2.41218" />
</svg>
