<?xml version="1.0" encoding="UTF-8" standalone="no"?>
<svg
   viewBox="0 0 483 527.48"
   version="1.1"
   id="svg53822"
   sodipodi:docname="House Fossoway.svg"
   inkscape:version="1.2.1 (9c6d41e410, 2022-07-14)"
   xmlns:inkscape="http://www.inkscape.org/namespaces/inkscape"
   xmlns:sodipodi="http://sodipodi.sourceforge.net/DTD/sodipodi-0.dtd"
   xmlns="http://www.w3.org/2000/svg"
   xmlns:svg="http://www.w3.org/2000/svg">
  <sodipodi:namedview
     id="namedview53824"
     pagecolor="#ffffff"
     bordercolor="#000000"
     borderopacity="0.25"
     inkscape:showpageshadow="2"
     inkscape:pageopacity="0.0"
     inkscape:pagecheckerboard="0"
     inkscape:deskcolor="#d1d1d1"
     showgrid="false"
     inkscape:zoom="1.12203"
     inkscape:cx="162.206"
     inkscape:cy="273.61122"
     inkscape:window-width="1920"
     inkscape:window-height="1017"
     inkscape:window-x="-8"
     inkscape:window-y="-8"
     inkscape:window-maximized="1"
     inkscape:current-layer="svg53822" />
  <defs
     id="defs53731">
    <style
       id="style53729">.cls-1{fill:#d3ae37;}.cls-2{fill:#020101;}.cls-3{fill:#040201;}.cls-4{fill:#502103;stroke-miterlimit:10;stroke-width:2px;}.cls-29,.cls-4{stroke:#000;}.cls-5{fill:#265c00;}.cls-6{fill:#2c100d;}.cls-7{fill:#86090a;}.cls-8{fill:#470e0f;}.cls-9{fill:#730d0e;}.cls-10{fill:#490d0e;}.cls-11{fill:#601213;}.cls-12{fill:#240808;}.cls-13{fill:#780b0c;}.cls-14{fill:#4e1516;}.cls-15{fill:#275d00;}.cls-16{fill:#153201;}.cls-17{fill:#610e0f;}.cls-18{fill:#770b0b;}.cls-19{fill:#2f0808;}.cls-20{fill:#770b0c;}.cls-21{fill:#380909;}.cls-22{fill:#260708;}.cls-23{fill:#730b0c;}.cls-24{fill:#30090a;}.cls-25{fill:#6e0c0d;}.cls-26{fill:#2b0a0b;}.cls-27{fill:#380a0b;}.cls-28{fill:#163501;}.cls-29{fill:none;stroke-width:3px;}</style>
    <radialGradient
       id="rg"
       gradientUnits="userSpaceOnUse"
       cx="220"
       cy="220"
       r="405"
       gradientTransform="matrix(0.80510068,0,0,0.80302287,-0.0302006,-0.89702086)">
      <stop
         style="stop-color:#ffffff;stop-opacity:.3"
         offset="0"
         id="stop753" />
      <stop
         style="stop-color:#ffffff;stop-opacity:.2"
         offset=".2"
         id="stop755" />
      <stop
         style="stop-color:#666666;stop-opacity:.1"
         offset=".6"
         id="stop757" />
      <stop
         style="stop-color:#000000;stop-opacity:.13"
         offset="1"
         id="stop759" />
    </radialGradient>
  </defs>
  <title
     id="title53733">House Fossoway</title>
  <g
     id="Layer_2"
     data-name="Layer 2">
    <path
       class="cls-1"
       d="M927,122.76V328.6a314.37,314.37,0,0,1-2.28,38c-.11.93-.24,1.86-.36,2.79s-.24,1.86-.39,2.79q-.7,5.05-1.61,10c-.07.44-.15.87-.23,1.31-.15.8-.29,1.6-.45,2.39s-.34,1.8-.51,2.69l-.45,2.22-.24,1.16c-.15.71-.3,1.44-.47,2.15q-.8,3.55-1.61,7l-.58,2.32-.52,2q-1.52,5.88-3.27,11.61c-.29,1-.59,1.94-.9,2.92l-.6,1.88c-.19.63-.39,1.25-.6,1.86l-1.1,3.26c-.37,1.09-.68,2-1,3-.47,1.28-.92,2.55-1.39,3.81-.36,1-.73,2-1.11,3l-.19.49c-.43,1.14-.87,2.25-1.32,3.37s-.87,2.16-1.32,3.19a3.35,3.35,0,0,1-.18.42c-.4,1-.8,2-1.25,3s-.75,1.75-1.13,2.62l-.66,1.49c-.47,1.07-.95,2.12-1.44,3.15s-.9,2-1.36,2.93l-1,2.12c-.3.63-.6,1.25-.91,1.88-.63,1.32-1.31,2.64-2,4q-2.53,5-5.19,9.77l-2,3.57-.11.21q-2.13,3.71-4.33,7.33c-.71,1.2-1.46,2.39-2.18,3.54-.1.16-.19.31-.3.46-.55.89-1.12,1.78-1.69,2.66l-.66,1c-.65,1-1.31,2-2,3l-.13.18c-.66,1-1.32,2-2,3l-.45.67q-2.26,3.28-4.54,6.46l-.31.42c-.8,1.07-1.54,2.14-2.31,3.19s-1.66,2.23-2.5,3.32q-2.29,3-4.61,6l-.8,1c-.73.93-1.48,1.85-2.22,2.76L854,526.61l-.57.69L851,530.1q-2.83,3.32-5.72,6.53c-.75.85-1.52,1.69-2.29,2.51l-2.22,2.39q-3,3.19-5.93,6.24-2.76,2.83-5.53,5.59c-.91.91-1.84,1.82-2.76,2.71s-1.85,1.78-2.78,2.67l-2.28,2.11c-.68.65-1.36,1.28-2.05,1.91a448.64,448.64,0,0,1-61.76,47.47c-.86.55-1.73,1.1-2.58,1.6q-6.42,4.07-12.46,7.63l-2.41,1.4-2.36,1.36-2.34,1.35-2.22,1.28c-8.35,4.68-15.91,8.59-22.38,11.76l-1.61.8c-10.63,5.15-18.11,8.22-21,9.35l-.42.18-.61.23-.14.06h-.08l-.23-.1-.21,0-1.07-.42-.55-.23c-.87-.34-2-.8-3.36-1.38l-.47-.18c-1.76-.8-3.88-1.67-6.33-2.77l-1.39-.61a443.16,443.16,0,0,1-39.74-20.6c-.8-.45-1.61-.92-2.36-1.38a473.14,473.14,0,0,1-44.78-30l-2.62-2c-1-.75-2-1.52-2.95-2.29l-2.81-2.21c-6.19-4.92-12.43-10.15-18.64-15.69L558.08,566q-2.3-2.05-4.59-4.2l-1.67-1.57L550,558.54l-2-1.94c-1.12-1.07-2.24-2.16-3.34-3.26-.84-.8-1.69-1.67-2.52-2.51l-.24-.26q-1.25-1.25-2.5-2.51c-.66-.68-1.32-1.36-2-2l-2-2.07-.13-.15-2.1-2.24q-3.36-3.61-6.66-7.36c-.68-.8-1.36-1.55-2-2.35-.57-.65-1.12-1.28-1.66-1.94l-2-2.39q-4.26-5.11-8.39-10.48-1.13-1.45-2.24-2.92c-1.89-2.47-3.73-5-5.57-7.55l-1.68-2.39c-.13-.16-.24-.34-.36-.5-.59-.85-1.19-1.7-1.77-2.55-.95-1.38-1.89-2.77-2.82-4.17q-1.11-1.64-2.18-3.31l-.15-.24-2.22-3.47c-.07-.13-.15-.24-.22-.37-.71-1.14-1.41-2.27-2.1-3.4s-1.49-2.46-2.21-3.7-1.44-2.39-2.13-3.67q-4.6-8-8.77-16.47c-.35-.69-.69-1.38-1-2.08-.22-.44-.44-.89-.65-1.35-.43-.87-.8-1.75-1.25-2.63a27.17,27.17,0,0,1-1.15-2.47l-.23-.48c-.26-.58-.52-1.16-.8-1.75l-.26-.57c-.26-.58-.52-1.18-.8-1.77q-1.44-3.26-2.78-6.58c-.42-1-.8-2-1.23-3.07-.1-.26-.21-.53-.31-.8-.4-1-.8-2-1.16-3s-.68-1.82-1-2.74l-.23-.65c-.18-.45-.34-.91-.5-1.36q-1-2.69-1.89-5.44c-.21-.6-.4-1.21-.6-1.8-.26-.8-.51-1.54-.75-2.31-.14-.42-.26-.8-.39-1.22-.26-.8-.5-1.6-.75-2.39-.31-1-.61-2.06-.92-3.1-.18-.65-.39-1.28-.57-2-.37-1.28-.74-2.58-1.08-3.89-.19-.68-.37-1.35-.55-2-.13-.5-.26-1-.39-1.51-.32-1.22-.63-2.46-.92-3.7-.18-.7-.35-1.4-.52-2.11-.07-.29-.13-.57-.19-.85-.37-1.55-.71-3.11-1.07-4.69-.26-1.16-.5-2.33-.74-3.5-.14-.71-.29-1.43-.43-2.14s-.32-1.6-.47-2.45a2.13,2.13,0,0,0-.1-.47c-.15-.8-.3-1.64-.45-2.48s-.31-1.84-.47-2.77-.3-1.8-.45-2.71q-.87-5.52-1.56-11.17A314.73,314.73,0,0,1,447,328.58V122.76Z"
       transform="translate(-445.5 -121.26)"
       id="path53735" />
  </g>
  <g
     id="Layer_4"
     data-name="Layer 4">
    <path
       class="cls-2"
       d="M758.7,246c21.87,7.55,38.55,21.32,50.23,41.33,7.91,13.55,10.59,28.61,12.78,43.7,5.43,37.5-2.92,72.25-21.63,104.93-14.35,25.06-34.59,44.84-57,62.16-12.19,9.42-27.23,11.28-42.14,4.27.34-3.16,2.9-2.5,4.88-2.87,4.27.31,8.51,1.84,12.84.39,12.57-1.4,23.28-6.63,32.58-15.2,22-20.23,39.72-43.4,50.75-71.38,1.68-4.28,2.69-8.77,4.13-13.13,8.57-27.84,11.75-55.82,4.61-84.65-3.08-12.43-5.91-24.88-13.93-34.94-11.45-14.37-24.6-26.9-43.88-30.06-3.08-.5-5.45-1.54-6.34-4.77,2.56-4.24,6.11-2.32,9.49-1.54A11.37,11.37,0,0,1,758.7,246Z"
       transform="translate(-445.5 -121.26)"
       id="path53738" />
    <path
       class="cls-3"
       d="M670.6,502.34c-5.26,1.3-10.18,3.66-15.79,3.9-14.4.61-25.89-6.16-35.92-15-10.69-9.47-21.17-19.28-30.44-30.27a171.5,171.5,0,0,1-30.31-51.6c-8.21-22.27-11.84-45.31-9.67-68.93,1.74-18.91,4.31-37.72,14.62-54.53,11.23-18.3,26.22-31.71,46.76-38.58,4.54-5,10.9-5.89,18.62-2.64.65,2.74-1.65,2.64-3.12,2.93-21.08,4.21-37.47,15.76-50.77,32.2-4,6.46-6,14-10.56,20.16a10.08,10.08,0,0,0-3.79,6.68c-3.19,18.2-7.8,36.25-5.88,55a16.15,16.15,0,0,0,.5,2.56,119.47,119.47,0,0,0,2.93,17.67c2.18,18.75,10.09,35.42,18.94,51.73,1,1.89,1.92,4,4.08,5,2.3,1.09,3.44,3.14,4.73,5.24,6.4,10.44,12.93,20.74,22.82,28.48,6.18,4.84,10.66,11.57,17,16.33a58.89,58.89,0,0,0,22.52,10c5.73,1.09,11.38,2.86,17.32,1.1a6.27,6.27,0,0,1,5,.81A1.28,1.28,0,0,1,670.6,502.34Z"
       transform="translate(-445.5 -121.26)"
       id="path53740" />
    <path
       class="cls-2"
       d="M707.34,210.59c29.43-27.1,83-28.13,106.19-11.1-14.82,7.39-20.45,23.51-33,33.09-5.19,4-11.23,6.21-16.52,9.83-4.16-1.54-8.73-.51-12.89-2-2.31-1.82-2.68-3.44.51-4.66a4.5,4.5,0,0,1,1.92-.36c16.21,1.31,26.37-8.69,35.94-19.5,3.92-4.42,7.56-9.1,12.14-12.86,3.78-3.1,2.07-4.32-1.38-5.53a88.9,88.9,0,0,0-36.82-4.69c-19.1,1.48-36.87,7.21-51.81,19.8-10.24,8.62-17.23,19.06-17.76,33-.09,2.25.58,4.3.72,6.47-1.48,2.32-3.45,2.11-5.59,1.11-3.78-5.87-1.64-12.46.28-17.55,3.21-8.46,6.32-17.65,14.59-23.23A20.38,20.38,0,0,1,707.34,210.59Z"
       transform="translate(-445.5 -121.26)"
       id="path53742" />
    <path
       class="cls-4"
       d="M707.34,210.59c-4.56,5.57-9.49,10.61-12.89,17.34-4.07,8.06-5.26,16.13-5.35,24.74.26,1.26-.41,1.61-1.51,1.56a12.53,12.53,0,0,1-4.78-5.72,7.86,7.86,0,0,1-.36-1.93c.06-1.37.24-2.68,1.64-3.39,1.11-10.14,2.85-20.13,6.53-29.71.78-2,1.15-4.23,2-6.21,1.65-3.76,3-8.4,8.57-7.1C706.52,201.41,707.65,205.72,707.34,210.59Z"
       transform="translate(-445.5 -121.26)"
       id="path53744" />
    <path
       class="cls-3"
       d="M684.09,243.19l-.3,4.27c-2.16,1.84-4.86,4.71-5.37-.88-1.86-20.63-17.08-30.16-32.91-38.18a86.16,86.16,0,0,0-27.44-8.19c-15.3-2.05-30-.1-44.58,4-2.09.59-4.17,1.42-6.36.33a1.19,1.19,0,0,1-.38-1.74c14.35-7.85,29.92-9.24,45.72-7.76,16.66,1.56,32.45,6.16,46.58,15.73C671,218.91,679.52,229.48,684.09,243.19Z"
       transform="translate(-445.5 -121.26)"
       id="path53746" />
    <path
       class="cls-5"
       d="M751,239.42c4.42.71,9.64-2,13.08,3-1.16,2.12-5.22-.1-5.35,3.57l-2.46,0c-2-2.95-5.15-2.13-7.78-1.81-13.32,1.59-26.77,1.53-40.09,3.1-2.54-.73-2.9-2.2-1.49-4.3,8-10,18.95-8.47,29.74-7.56C741.43,236.7,746.87,235.63,751,239.42Z"
       transform="translate(-445.5 -121.26)"
       id="path53748" />
    <path
       class="cls-3"
       d="M566.76,202.83q0,.6,0,1.21c8.91,7.77,16.17,17.13,24.47,25.49,8.56,8.63,18.6,13.51,31.17,12.35a44.9,44.9,0,0,1,13.74.56c2.73.84,5.6.21,8.33.77,1.8.37,4.65.14,3.24,3.57-6.49,1.66-13,3-19.17-1-6.4-1.73-12.7-2.12-18.68,1.48-.12-.62-.15-1.76-.37-1.8-13.21-2.24-22-10.89-29.26-21.08-5.23-7.3-10.93-13.86-19-18.25C562.81,204,564.25,202.5,566.76,202.83Z"
       transform="translate(-445.5 -121.26)"
       id="path53750" />
    <path
       class="cls-6"
       d="M670.6,502.34a9.81,9.81,0,0,1,0-1.08c-1-1.78.61-2.45,1.44-3.46,1.06-1.35-.33-4,1.91-4.48,1.87-.4,3.11,1.28,4.25,2.63.71.84,1.33,1.74,2.08,2.54,4.32,4.56,7.73,4,10.41-1.88a49.84,49.84,0,0,0,2.31-7.52c.63-2.27.91-4.74,3.24-6.63,2.89,2.46,2.17,5.46,1.69,8.41-1.7,4.19-2.12,7.55,4.14,7.5,1.68,0,4-.08,4.08,2.77-1.76.35-3.82-.54-5.24,1.23-3.92.23-7.71.65-11.14,3-3,2.06-6.42,1.44-9.29-.33A20.4,20.4,0,0,0,670.6,502.34Z"
       transform="translate(-445.5 -121.26)"
       id="path53752" />
    <path
       class="cls-7"
       d="M696.79,490.52v-6.38l-.64-.11c-1.26,4.4-2.31,8.87-3.83,13.18-2.74,7.72-7.56,8.61-13.12,2.79-1.79-1.87-2.3-4.75-5-6-1.47,1.63,1,3.18.07,4.73a.72.72,0,0,1-.58.24c-.19,0-.36-.22-.55-.34-13.18,4.24-18.14,2.15-25.08-10.46-1.79-3.26-3.48-6.57-5-9.95-1.05-2.29-1.2-5.95-5.55-4-.88.4-2-.72-2.6-1.69-6.12-10.6-16.7-16.94-25.17-26.8,1,2.91,2.45,5.14.2,6.54-1.92,1.2-3-1-4.24-2.1-.65-.59-1.28-1.19-2-1.74-2.14-2-4-4.05-3.49-7.27,2.82-4.14-2.18-4.8-3.26-7.21-4.74-6-4.63-14-8.07-20.53,1.56,2.91,2.21,6.12,3.05,9.27.45,1.69,1.46,3.68-.63,4.58-1.67.72-2.36-1.42-3.42-2.43a34.08,34.08,0,0,1-10.73-23.38c-.35,2.62,3,6.2-.75,7.33-2.45.73-3.43-3.45-4.07-5.86-4.3-16.25-8.47-32.54-6.81-49.63-.6,6.53.64,13.08-.79,19.57-.8.9-1.64,1.32-2.65.29a18.07,18.07,0,0,1-2.33-8.09c-1-19.89.31-39.57,5.2-58.94a48.53,48.53,0,0,1,3.77-9c2.45-4.37,3.11-9.55,6.14-13.7,1.49-2-.5-.37-.62-.41-2.48-.89-1.67-2.5-1-4.1,12.27-16,27.92-27,47.49-32.08a61.64,61.64,0,0,1,7.72-1l19.66.06c2.16-1.86,4.5-1,6.83-.46,8.09,1.84,16.14,3.86,23.53,7.76,6.67,3.52,12.87,3.44,18.53-2,14-5.61,28.7-6.76,43.59-6.38,2.14.06,4.42-.42,6.25,1.24,2.2,3.49,5.9,2.34,9,3,12,2.43,21.23,9.74,30.36,17.31,18.07,15,23.62,35.7,27.79,57.53,3.86,20.22,2.32,39.94-1.9,59.77-1.27,6-1.94,12.07-4.91,17.55-3.54-.94-2.07-3.55-1.87-5.7.56-5.92,3.3-11.33,4-17.21,2.25-18.07,2.8-36.2,0-54.2C807.33,310,804,296,797.25,284.75c1.3,5.82,7.55,11.25,7.17,19.24a2.6,2.6,0,0,1-3.25,1.77c-2.74-2.57-1.34-7.07-4-9.24a28,28,0,0,1,3.28,11.68,17.32,17.32,0,0,0-.84,13.71c1.84,11.09,4.18,22.14,2.46,33.49-.57,2.13-2.59,3.37-3.31,5.41-2.21,8.42-1.35,17.47-5.18,25.56-3.39,1.66-3-1.22-3.21-2.9-.36-2.43,1-4.81.55-6.82-.81,5.85-.14,12.47-4.26,18-2.39.6-2.49-1-2.43-2.62.08-2.16,1-4.23.77-6,.25,2.81-1.53,5.81-1.15,9.08-.21,3.76-1.07,7.28-3.74,10.13-2.33.43-2.78-1.14-2.33-2.71.93-3.23.34-6.53.74-9a49.32,49.32,0,0,1-3,17.05c-.59,1.51-1.14,3.94-3.21,3.5-2.26-.48-1.58-2.76-1.19-4.42.7-2.94.5-6,1.06-8-.11,3.59-1.46,8-1.77,12.48a9.92,9.92,0,0,1-2.06,5.44c-.65.84-1.5,1.72-2.74,1.29s-1.44-1.63-1.39-2.7c.19-4,1.34-7.71,2.43-11.48.24-.84.21.24.14-.63,0-.58-.23-.47-.24.29a2.79,2.79,0,0,1-.49,1.23,6.6,6.6,0,0,1-2,1.71c-2.86,1.65-2.61,5.19-4.5,7.43a4.46,4.46,0,0,1-1.37,1c-2.5,1.1-2.71,4.34-5.12,5.53-2.25,1.2-1.92,3.79-3,5.58s-1.46,5.52-5.2,2.66c-1-.75-.46.57-.48.76-.55,8.64-5.34,16.13-6.71,24.55a6.92,6.92,0,0,1-2.36,3.87,2.57,2.57,0,0,1-2.33.9c-1.37-.38-1.28-1.61-1.12-2.69a28.91,28.91,0,0,1,2.35-8.84,43.48,43.48,0,0,0,4-12.28c-4.49,11.06-6.13,25.51-12.57,38.43-.39.78-.59,1.65-1,2.42-1,1.76-2.12,3.9-4.39,3-2.57-1-1.57-3.69-.64-5.07,5.06-7.47,5.52-16.47,8.62-24.58,1.46-3.83,3.19-7.61,3.05-10.29-2.51,8.69-5.62,18.84-8.72,29-.46,1.51-.93,3.27-2.87,2.76s-1.78-2.36-1.51-3.89c1.26-7.31,3.83-14.27,5.88-21.37-2.47,8.54-5.92,16.83-6.36,25.89a8.42,8.42,0,0,1-1.71,4.23c-2.28,3.27-3.77,6.57-3.63,10.85a6.14,6.14,0,0,1-6.07,6.58C702.34,495.91,697.71,496.3,696.79,490.52Z"
       transform="translate(-445.5 -121.26)"
       id="path53754" />
    <path
       class="cls-8"
       d="M786.22,394.49c1.64-8,4.66-15.65,5.09-24,2.14,5.33-1.83,11.13,1.51,16.21a2.66,2.66,0,0,1-.1,4.19c.75-.49-1.17.81-.66.1.07-.1-.44-.48-.69-.51-.54,7.49-4.57,14.35-3.95,22a18.94,18.94,0,0,1,.85,3.48c-.09,1.06-.66,2-1,3.91,1.56-4.48,3-8.08,2.15-12.1,0-1.32.2-2.49,1.67-3a3.45,3.45,0,0,1,2.41,1.35,5.56,5.56,0,0,1,1.21,3.5,29.25,29.25,0,0,1-1.1,3.71,32,32,0,0,0,2.09-12.47c0-1.66,0-3.31,2-4a3.73,3.73,0,0,1,2.54,1.53,5.15,5.15,0,0,1,1,3.86c-.14.41-.12,1-.39,1.22-.7.51-.85,1.25-.27.59s.17.64.31-.19c1.93-11,6-21.49,7.19-32.58a180.33,180.33,0,0,0,.07-41.18,65.78,65.78,0,0,0-2.42-11.51,45.83,45.83,0,0,1-2.33-14.74c-.74-7.79-5.58-13.94-8.41-20.9a16.19,16.19,0,0,1-1.51-4.2c5.32,5.07,8.43,11.66,10.84,18.27,10.39,28.51,10.68,57.81,5.68,87.38-.94,5.57-4.73,10.66-2.75,16.71a159.24,159.24,0,0,1-26.41,53.46,193.28,193.28,0,0,1-36.67,37.74,41.48,41.48,0,0,1-25,8.76c2.42-4.63,6.3-7.9,10.29-11.08,4.8-4.22,11.13-6.59,14.7-12.29.47-.74,1.06-1.74,1.8-1.84,6.69-.89,8-8,12.88-11a4.47,4.47,0,0,0,2.19-3.17c.44-4.94,2.84-8.17,8-9.23.51-.22-.6-1.72-.5-.85q0,.45-.14.4c-3-.77-3.59-1.37-2.23-3.87,5.67-10.41,9.41-21.56,13.34-32.68a104.24,104.24,0,0,0,3.95-14.49C784,398.7,784.43,396.32,786.22,394.49Z"
       transform="translate(-445.5 -121.26)"
       id="path53756" />
    <path
       class="cls-9"
       d="M729.81,490.67c-3.14,3.87-6.16,7.87-10.56,10.46-4.36,2.75-8.72.26-13.08,0-1.13-1.35-2.71-1.19-4.23-1.28-9.16-.55-9.16-.55-5.15-9.34,6.23,5.61,14.41,5.16,13.67-.33-1.27-9.44,7.47-14.46,7.5-23.11,0-8.37,5.28-15.84,6.6-24.21,1.1,10.25-5.81,19.22-3.61,29.84l10.67-35.84c.52,14.32-6.55,29.42-10.82,43.93,8.61-16,14.34-33.16,18.46-50.91,1.85,11.11-5.83,20.23-6.53,30.75l1.67.52,11-36c2.84,2.36-.76,4.5,1,6.81,2.22-2,2.62-4.71,3.07-7.3.41-2.4,1.28-3.74,3.9-2.43.47,0,.5,1.13.84.63,1.26-1.85,1.38-4.34,3.24-5.88h1.22c2.52,7.92-1.32,14.52-4.68,21.2.77-1.62.8-4.29,3.21-3.76,1.77.38,1.58,2.83,1.42,4.6a2.77,2.77,0,0,1-.27,1.27c-5.53,8.29-6.25,19-13.55,26.42-1.25,1.27-3.34,2.35-1.15,4.63a2,2,0,0,1-.36,2.43C736.73,477.77,736.5,486.81,729.81,490.67Z"
       transform="translate(-445.5 -121.26)"
       id="path53758" />
    <path
       class="cls-2"
       d="M746.92,246c-12.53.34-25.15-1.14-37.48,2.6-4.17,1.27-7.68,4.77-12.51,3.83-.54-1.31.15-2.32.81-3.35,2.11-4.65,6-3.41,9.73-3,14.44-2.48,29-3,43.61-2.71,2.18,0,4.53-.41,5.16,2.62C753.13,244.9,750,243.54,746.92,246Z"
       transform="translate(-445.5 -121.26)"
       id="path53760" />
    <path
       class="cls-10"
       d="M600.91,440.68c.58,2.64,1.45,5.11,4,6.61-1,2.87.53,4.08,2.69,5.84,4.51,3.68,8.56,7.87,13.26,11.43,2.82,2.13,5.9,5.54,3.65,10.18-1.23,2.54.76,4.1,2.07,5.73a74.63,74.63,0,0,0,17.3,15.69c1.31.86,3.47,1.24,3.11,3.63a53.78,53.78,0,0,1-28.3-14.73c-4.28-4.25-8.06-8.95-12.82-12.79-9.61-7.75-16.23-18-22-28.71a10.73,10.73,0,0,0-3.89-4.28c-4.54-7.57-8.94-15.2-11.25-23.82.19-2.1,0-4.22.26-6.33a3.08,3.08,0,0,1,2-1.74,2.36,2.36,0,0,1,1.48,1,22.34,22.34,0,0,0,2.36,6.49c-1.65-1.71-1.31-5.62-3.73-8.16-2.58-11.41-8.19-22.2-6.9-34.38V350l2-.33a188.32,188.32,0,0,0,10.11,59.47c2-5.23-2.42-8.53-.36-12.63,3.09,11,6.44,21.71,15.41,29.26.33-5.82-4.23-10.87-4.19-17.09,6,7.52,6,17.61,11.21,25.39A8.26,8.26,0,0,1,600.91,440.68Z"
       transform="translate(-445.5 -121.26)"
       id="path53762" />
    <path
       class="cls-11"
       d="M646.95,499.78c-7.8-4.58-15.09-9.83-20.54-17.16-2.07-2.79-6.74-4.7-2.61-10,1.58-2-2.38-7.14-4.5-7.73-7.31-2-9.28-10.05-16.11-12.67-3.85-1.48.31-3.45,1.67-4.92,2.42.46,2.27,3.71,4.68,4.36,1.54-3.28-2.73-5.37-1.54-9.16,7,7.24,15.38,12.41,20.68,20.78.61,1,1.16,1.85,2.48,1.71,3.86-.4,6,.45,4.25,5-.59,1.55.75,3.11,2.44,3.28,3.65.37-.25-3.59,2.56-4.11,3.5,7,7,14.17,10.62,21.29,4.41,8.76,11.31,11,19.92,6.55,1.29-.66,1.84.59,2.24,1.63a4.32,4.32,0,0,0-2.59,2.62C662.68,501.38,654.63,503.59,646.95,499.78Z"
       transform="translate(-445.5 -121.26)"
       id="path53764" />
    <path
       class="cls-12"
       d="M569.52,414.21c2.07,8.94,8.46,16.08,10.41,25.07-4.42.18-4.23-4.22-5.5-6.43a171.87,171.87,0,0,1-16.31-38.63c-1-3.7-1.24-7.64-1.83-11.47.55-6.32-1.82-12.2-2.75-18.3-2.58-8.77-1.48-17.74-.79-26.54.78-9.94,4-19.57,5.15-29.54.43-3.66.66-8.71,6.17-9.71,1.84,2,1,4,.3,6.14-5.81,18.82-6.61,37.93-5.6,57.6C559.7,380.43,566.67,396.81,569.52,414.21Z"
       transform="translate(-445.5 -121.26)"
       id="path53766" />
    <path
       class="cls-13"
       d="M569.52,414.21c-6.27-15.84-10.67-32-12.26-49.16-1.67-18.06-.21-35.66,2.87-53.32.79-4.54,4-8.29,3.94-13.07a108.32,108.32,0,0,1,9.25-19.72,1.73,1.73,0,0,0,0,.64c2.56,5.57,5.61-1.55-2.48,16.5-3.48,3.37-4.6,7.88-5.54,12.32-3.19,15.1-5.66,30.19-5.39,45.83.29,16.62,5.33,32.08,8.82,48,.5,2.29,2.1,4.4.72,6.87C569.86,410.77,571.83,412.48,569.52,414.21Z"
       transform="translate(-445.5 -121.26)"
       id="path53768" />
    <path
       class="cls-14"
       d="M553.53,364.45c2.21,5.91,5.17,11.7,2.75,18.3C554.88,376.73,553.17,370.74,553.53,364.45Z"
       transform="translate(-445.5 -121.26)"
       id="path53770" />
    <path
       class="cls-5"
       d="M707.46,246.12c-2.93,1.67-7.38-.17-9.25,4-1.27.55-2.2,2.11-3.92,1.31-2.33-.28-2.63-1.9-2.53-3.81.75-15,7.13-27.28,18.89-36.44,21.11-16.44,45-22.65,71.64-19.25A110.32,110.32,0,0,1,805,197.32c2.77,1,4.22,2.24,1.24,4.22-8.73,5.8-14.13,14.79-21.42,22-8.57,8.43-17.83,14.65-30.57,13.56-1.06-.09-4.8-1.93-3.28,2.37-4.68-2-10.05-.12-14.66-2.57-3.14-1.37-6.45-.31-9.66-.66-.84-.09-1.83,0-2.12-1.06a2.47,2.47,0,0,1,.92-2.3,5.91,5.91,0,0,1,2.13-1.52c9.14-3.74,17.1-9.81,26.47-13.14,6.73-2.39,13.33-5.17,18.06-9.49-4.83,3.13-11.62,3.54-17.47,6.41s-11.94,4.42-17.33,7.81c-5.55,3.5-10.75,7.87-16.72,10.32-5.63,2.31-8.64,7.11-13.17,10.33C707.29,244.42,706,245.29,707.46,246.12Z"
       transform="translate(-445.5 -121.26)"
       id="path53772" />
    <path
       class="cls-3"
       d="M694.29,251.4l3.92-1.31-1.29,2.39c-8.37,6.67-10.19,6.54-20.17,1.6-9-4.44-18.68-6.71-28.56-8.19-4-2.94-9.13.8-13-2.37,3.89-3.31,8.48-3.23,13.16-2.78,4.58.07,8.76,2.22,13.3,2.56,6.68,2.85,13.28,5.89,20.28,7.9,2.06.71,3.83,2.07,5.93,2.69l1.29-1.2C690.89,252.47,692.91,253.26,694.29,251.4Z"
       transform="translate(-445.5 -121.26)"
       id="path53774" />
    <path
       class="cls-15"
       d="M682.47,252.67a74.93,74.93,0,0,1-21-8.07,130.62,130.62,0,0,1-17-11,7.2,7.2,0,0,1-2.85-6.29c-1,2-2.6,3.31-4.76,2.34-4.36-2-8.89-3.77-12.93-6.23-5.19-3.16-10.91-3.83-16.49-5.38,7,5.35,15.65,7.41,23.37,11.33,5.54,2.82,9.87,7.79,16.37,8.94a3,3,0,0,1,2.45,3.94c-4.92-.66-9.64.93-14.47,1.27-3.06,0-6.17-.4-9.17,0-19.8,2.71-33.09-7.72-44.48-21.89-3.84-4.77-7.7-9.44-12.89-12.83-1.68-1.1-3.28-2.39-1.84-4.77,9.18-1.48,17.94-4.61,27.29-5.77a91,91,0,0,1,34.24,2.18c14.79,3.82,28.7,9.86,39.7,21.25,7.33,7.58,13.22,15.58,11.77,27,1.6-.24,1.67-4.61,4-1.19q0,.59,0,1.17C684.61,250.39,683.63,251.56,682.47,252.67Z"
       transform="translate(-445.5 -121.26)"
       id="path53776" />
    <path
       class="cls-2"
       d="M682.47,252.67l1.33-4c1.24,1.82,3.6,2.79,4,5.25C685.53,255.69,684.16,253.44,682.47,252.67Z"
       transform="translate(-445.5 -121.26)"
       id="path53778" />
    <path
       class="cls-16"
       d="M707.42,243.56c5.31-10.17,16.08-13.65,24.79-19.31a101.8,101.8,0,0,1,36.57-15.09c3.09-.58,4.75-5.6,9.12-3-8.06,7-17,11.56-26.84,15-9.06,3.15-16.33,10-26.52,12.84,4.25,3.1,8.71-.12,11.76,2.85-5.21-.38-10.51.8-15.64-.6-3.13-.86-4,2.23-6.09,3C711.9,240.22,710.61,243.45,707.42,243.56Z"
       transform="translate(-445.5 -121.26)"
       id="path53780" />
    <path
       class="cls-17"
       d="M729.81,490.67c4.21-5.07,4.14-13.12,11.37-16.17,1.32-.56,2.61-3.09,1.22-3.75-3.19-1.52-1.19-2.54-.15-3.7,4-4.5,8.3-8.56,8.06-15.66-.08-2.45,3.85-4.87,5.09-8,1.06-2.62,2.73-5,1.62-8.11-2.78.9-1.41,4.5-5,6.35,3.4-8.62,6.12-16.41,6.69-24.68,1-3.2,1.21-6.74,4-9.17,2.28,5.73-1,10.71-1.76,15.6,2.27-4.64,1.44-10.7,4.32-15.66.8-2.37.81-5.11,4.37-8.38l-4.09,20.44c6-7.08,3.75-16.55,8.13-25.45,1.87,7.31-2.41,12.79-1.57,18.85,6.21-7.65,3.63-17.6,7.87-27.53,1.22,7.71-1.89,13.58-.28,19.43,2.8-3,4-6.4,2.74-10.44,2.16-4.65.35-10.11,2.46-15.54,4.07,5.51-1.65,10.69,1.37,15.35-2.8,20.14-10.63,38.56-19.47,56.57,1.93,1.52,2.27-1.25,4.14,1.31-8.21,3.44-6,12.08-13.54,16a5.49,5.49,0,0,0-3.18,4.64c-.09,1.52-.61,3.14-1.85,3-5.59-.63-6.66,5.47-9.48,6.59C737.8,484.59,735.83,491,729.81,490.67Z"
       transform="translate(-445.5 -121.26)"
       id="path53782" />
    <path
       class="cls-18"
       d="M803.46,303.91a183.46,183.46,0,0,1,6.84,31.59c2.47,22.14-1.07,43.32-6.86,64.41-.92,3.34-1.62,6.76-4.57,10.29a22.35,22.35,0,0,1,1.89-9c-1-2.37-.48-4.73.29-7C804,385.74,805,376.77,805.3,368c.75-19.52,1.2-39.14-4.16-58.28a7.11,7.11,0,0,1-.16-4.49A2.5,2.5,0,0,0,803.46,303.91Z"
       transform="translate(-445.5 -121.26)"
       id="path53784" />
    <path
       class="cls-19"
       d="M569.48,409.05c-9.61-26.63-13.47-54-9.16-82.08,1.41-9.18,4.29-18.15,6.79-27.13.43-1.53.45-4.61,3.76-3.76-9.85,25.07-11.38,51-7.82,77.4,3,8.33,3.61,17.22,6.18,25.68.82,2.69,3.39,5.34,1.55,8.59Z"
       transform="translate(-445.5 -121.26)"
       id="path53786" />
    <path
       class="cls-20"
       d="M799.37,398.48l-1.23-1.19c-2.95-4.46-.41-9,.28-13.26,2.14-13.36,4.41-26.71,3.61-40.28-.45-7.67-1.2-15.37-3.88-22.7-1.91-4.61-2.78-9.12,1.32-13.13,4,1.59,3.87,5.61,4.36,8.65a216.4,216.4,0,0,1,.07,69.08C803.18,390.1,802.11,394.64,799.37,398.48Z"
       transform="translate(-445.5 -121.26)"
       id="path53788" />
    <path
       class="cls-21"
       d="M799.37,398.48c5.22-16.25,6.86-33.16,6.25-49.95-.5-13.6.75-27.84-6.15-40.61l-2.69-13.54A25.6,25.6,0,0,1,801,305.21c5.1,10.41,5.54,21.8,6.23,33,1,16.48.59,33-2.52,49.31-.89,4.66-2.59,9.16-3.92,13.73C799.65,400.64,799.5,399.56,799.37,398.48Z"
       transform="translate(-445.5 -121.26)"
       id="path53790" />
    <path
       class="cls-22"
       d="M798.15,321c.06-.65-.12-1.49.22-1.92,1.34-1.68,1,.23,1,.63,1.66,8.3,3.49,16.57,4,25.06,1,16.24-1.76,32.1-4.86,47.92a43,43,0,0,0-.42,4.55c-1.53,1-1.24,2.58-1.22,4.07-.61,2.69-.42,5.67-2.81,7.7a2.8,2.8,0,0,1-1.25-2.61c-.69-1.16-1.29-2.46-.82-3.74,5.05-13.72,5.13-28.28,7.17-42.5a14.59,14.59,0,0,1,1.41-3.67C801.82,344.57,799.42,332.84,798.15,321Z"
       transform="translate(-445.5 -121.26)"
       id="path53792" />
    <path
       class="cls-23"
       d="M800.62,356.54c-.82,15.81-1.24,31.69-7.27,46.7a13.89,13.89,0,0,0-.48,3.21l-1.37-1.28c-2.82-4-.67-8.12.52-11.78,3.41-10.57,4.33-21.48,5.49-32.39a2.81,2.81,0,0,0-.63-1.79Z"
       transform="translate(-445.5 -121.26)"
       id="path53794" />
    <path
       class="cls-24"
       d="M796.87,359.21c3.26,7.55,0,14.94-.84,22.3-.9,8-3,15.78-4.53,23.66a2.81,2.81,0,0,0-1.13,2.8c1,3.26-.78,5.52-2.79,7.7-1.14-.62-1.26-1.73-1.38-2.84a117.9,117.9,0,0,1,5.46-22.08c1.48-1,1.25-2.58,1.17-4.08Z"
       transform="translate(-445.5 -121.26)"
       id="path53796" />
    <path
       class="cls-25"
       d="M570.77,407.75A184.42,184.42,0,0,1,563,373.48l1.12-1.19c1.74,12,6.64,23.37,7.85,35.52h0A10.37,10.37,0,0,1,570.77,407.75Z"
       transform="translate(-445.5 -121.26)"
       id="path53798" />
    <path
       class="cls-9"
       d="M765.23,407.77c-1.18,6.9-1.44,14.05-6.2,21.71.28-8.51,4.23-14.73,3.64-21.66Z"
       transform="translate(-445.5 -121.26)"
       id="path53800" />
    <path
       class="cls-26"
       d="M782.4,394.68c3.18,4.38-.11,8-1.59,11.75-.34.85-.87-.71-1.15-1.31Z"
       transform="translate(-445.5 -121.26)"
       id="path53802" />
    <path
       class="cls-27"
       d="M757.47,417l-3.55,9.46-.53-4.21C755.61,421.18,753.13,416.44,757.47,417Z"
       transform="translate(-445.5 -121.26)"
       id="path53804" />
    <path
       class="cls-11"
       d="M600.91,440.68c-1.77-1.84-2.07-4.25-2.59-6.58C601.13,435.53,604.23,436.84,600.91,440.68Z"
       transform="translate(-445.5 -121.26)"
       id="path53806" />
    <path
       class="cls-7"
       d="M791.66,390.75c-.33,7.73-3.15,14.84-5.46,22.08-1.43-8.38,2.93-15.64,4.56-23.42,0,0,.47,0,.51.11A10.09,10.09,0,0,1,791.66,390.75Z"
       transform="translate(-445.5 -121.26)"
       id="path53808" />
    <path
       class="cls-23"
       d="M787.58,415.67l2.79-7.7c2.61,6-1.93,10-5.07,14.37Z"
       transform="translate(-445.5 -121.26)"
       id="path53810" />
    <path
       class="cls-20"
       d="M794.11,409.06l2.81-7.71c.9,6-1.49,11-4.92,16.68C791.79,414.14,793.37,411.7,794.11,409.06Z"
       transform="translate(-445.5 -121.26)"
       id="path53812" />
    <path
       class="cls-25"
       d="M572,407.82c2.58,3.64,5.37,7.21,4.92,13.51-2.94-5-5.13-8.8-4.91-13.52Z"
       transform="translate(-445.5 -121.26)"
       id="path53814" />
    <path
       class="cls-28"
       d="M649.62,242.24c-.61-1.55-1.9-2.12-3.35-2.81-12.54-6-25-12.18-37.54-18.09-2.38-1.12-4.21-2.08-4.12-5.56a45.14,45.14,0,0,1,18.12,5.4c4.69,2.65,9.86,4.11,14.51,7,4.05,2.52,2.21-3.18,4.54-5.37.1,9.87,7.84,12.47,14,16.45a18.4,18.4,0,0,1,5.66,5.31C657.18,245.61,653.74,242.19,649.62,242.24Z"
       transform="translate(-445.5 -121.26)"
       id="path53816" />
  </g>
  <g
     id="Layer_3"
     data-name="Layer 3">
    <path
       class="cls-29"
       d="M927,122.76V328.6a313.88,313.88,0,0,1-2.28,38c-.11.93-.24,1.86-.36,2.79,0,.2,0,.4-.08.59-.09.74-.19,1.47-.31,2.2-.46,3.37-1,6.69-1.6,10-.07.44-.15.87-.23,1.31-.16.8-.29,1.6-.45,2.4s-.34,1.79-.51,2.69l-.45,2.22-.24,1.15c-.15.71-.3,1.44-.46,2.15-.54,2.37-1.07,4.71-1.61,7l-.58,2.32-.52,2q-1.53,5.88-3.27,11.61c-.29,1-.59,1.94-.9,2.92l-.6,1.88c-.2.63-.4,1.24-.61,1.86-.37,1.09-.73,2.17-1.1,3.25s-.68,2-1,3c-.47,1.28-.93,2.56-1.39,3.81-.36,1-.73,2-1.11,3l-.19.5c-.43,1.14-.87,2.25-1.32,3.36s-.87,2.17-1.31,3.2c0,.15-.12.28-.18.42-.4,1-.8,2-1.25,3s-.76,1.75-1.13,2.62l-.66,1.49c-.48,1.07-1,2.11-1.44,3.15s-.9,2-1.36,2.93l-1,2.12c-.29.63-.6,1.25-.91,1.87-.63,1.33-1.31,2.64-2,4q-2.52,5-5.19,9.77l-2,3.57-.12.21c-1.42,2.47-2.86,4.92-4.33,7.33-.71,1.2-1.46,2.4-2.18,3.54-.11.16-.2.32-.3.47-.55.89-1.12,1.78-1.69,2.66l-.65,1c-.65,1-1.31,2-2,3l-.13.18c-.65,1-1.31,2-2,3l-.45.67q-2.25,3.29-4.54,6.46l-.31.43c-.8,1.07-1.54,2.14-2.31,3.19s-1.66,2.23-2.5,3.32c-1.52,2-3.06,4-4.61,6l-.81,1q-1.09,1.39-2.22,2.76L854,526.61l-.57.69c-.8.94-1.6,1.87-2.41,2.8q-2.82,3.32-5.72,6.53c-.75.85-1.52,1.69-2.29,2.51s-1.47,1.6-2.22,2.4q-3,3.2-5.93,6.24-2.76,2.82-5.53,5.59c-.92.91-1.84,1.82-2.76,2.71s-1.85,1.78-2.79,2.66l-2.28,2.12c-.68.65-1.36,1.28-2,1.91a449.24,449.24,0,0,1-61.76,47.47c-.86.55-1.72,1.1-2.57,1.6q-6.43,4.06-12.47,7.63l-2.41,1.4-2.36,1.37-2.33,1.34-2.23,1.29c-8.34,4.68-15.9,8.59-22.38,11.76l-1.6.8c-10.64,5.15-18.12,8.22-21,9.35l-.42.17-.61.24-.14,0h-.08l-.23-.09-.21,0-1.07-.42-.54-.23c-.87-.34-2-.8-3.37-1.38l-.46-.18c-1.76-.8-3.89-1.67-6.33-2.77l-1.39-.61a442.25,442.25,0,0,1-39.75-20.6c-.8-.44-1.6-.92-2.35-1.38a474,474,0,0,1-44.78-30l-2.63-2c-1-.75-2-1.51-2.94-2.29l-2.81-2.21c-6.19-4.92-12.43-10.15-18.64-15.69L558.08,566q-2.31-2.05-4.59-4.2l-1.67-1.57L550,558.54l-2-1.94c-1.12-1.07-2.23-2.17-3.33-3.27-.85-.79-1.69-1.66-2.52-2.5l-.24-.26c-.84-.83-1.67-1.67-2.5-2.51-.66-.68-1.32-1.36-2-2l-2-2.06-.13-.15-2.1-2.25q-3.36-3.6-6.66-7.36c-.68-.79-1.36-1.54-2.05-2.34-.57-.65-1.12-1.29-1.66-1.94q-1-1.2-2-2.4-4.28-5.1-8.39-10.48c-.76-1-1.5-1.93-2.24-2.92-1.89-2.47-3.73-5-5.57-7.55-.55-.8-1.12-1.59-1.68-2.39-.13-.16-.24-.34-.36-.5-.59-.86-1.19-1.7-1.77-2.56-.94-1.38-1.89-2.77-2.81-4.17-.74-1.09-1.47-2.2-2.19-3.31a1,1,0,0,0-.15-.24l-2.22-3.48-.22-.36c-.7-1.14-1.41-2.27-2.1-3.4s-1.49-2.46-2.21-3.71-1.43-2.39-2.13-3.67q-4.61-8-8.77-16.46c-.35-.69-.69-1.38-1-2.09-.22-.44-.44-.88-.65-1.35-.43-.87-.8-1.74-1.25-2.63a25.91,25.91,0,0,1-1.15-2.47l-.23-.48c-.27-.58-.53-1.16-.81-1.75l-.26-.57c-.27-.59-.52-1.19-.8-1.78q-1.44-3.25-2.79-6.57c-.42-1-.8-2-1.23-3.08-.1-.25-.21-.52-.31-.79-.4-1-.8-2-1.16-3s-.69-1.82-1-2.74l-.24-.65c-.17-.44-.33-.91-.49-1.35q-1-2.7-1.9-5.44c-.21-.6-.4-1.2-.6-1.8-.26-.8-.51-1.54-.75-2.32-.14-.41-.27-.8-.4-1.22-.25-.8-.49-1.59-.75-2.39-.31-1-.61-2.06-.92-3.11-.19-.64-.39-1.28-.57-1.95-.37-1.29-.74-2.58-1.09-3.89-.19-.68-.37-1.35-.55-2-.13-.5-.27-1-.4-1.51-.32-1.22-.62-2.45-.92-3.7-.18-.7-.34-1.4-.52-2.11-.07-.28-.13-.56-.19-.85-.37-1.55-.72-3.11-1.07-4.69-.26-1.16-.5-2.33-.74-3.5-.13-.71-.29-1.43-.42-2.14s-.32-1.59-.48-2.45a1.86,1.86,0,0,0-.09-.47c-.16-.8-.3-1.64-.45-2.48s-.32-1.84-.48-2.77-.29-1.8-.45-2.71q-.57-3.7-1.07-7.47c-.17-1.23-.33-2.47-.48-3.71A312.7,312.7,0,0,1,447,328.58V122.76Z"
       transform="translate(-445.5 -121.26)"
       id="path53819" />
  </g>
  <path
     id="shine"
     d="M 1.5800006,0.70902414 V 207.0859 C 1.5800006,436.75044 241.5,526.689 241.5,526.689 c 0,0 239.92,-89.93856 239.92,-319.60309 V 0.70902414 Z"
     style="fill:url(#rg);stroke:#000000;stroke-width:2.41218" />
</svg>
