<?xml version="1.0" encoding="UTF-8" standalone="no"?>
<svg
   viewBox="0 0 483 527.48"
   version="1.1"
   id="svg36063"
   sodipodi:docname="House Frey GoT.svg"
   inkscape:version="1.2.1 (9c6d41e410, 2022-07-14)"
   xmlns:inkscape="http://www.inkscape.org/namespaces/inkscape"
   xmlns:sodipodi="http://sodipodi.sourceforge.net/DTD/sodipodi-0.dtd"
   xmlns="http://www.w3.org/2000/svg"
   xmlns:svg="http://www.w3.org/2000/svg">
  <sodipodi:namedview
     id="namedview36065"
     pagecolor="#ffffff"
     bordercolor="#000000"
     borderopacity="0.25"
     inkscape:showpageshadow="2"
     inkscape:pageopacity="0.0"
     inkscape:pagecheckerboard="0"
     inkscape:deskcolor="#d1d1d1"
     showgrid="false"
     inkscape:zoom="1.12203"
     inkscape:cx="175.57462"
     inkscape:cy="261.13383"
     inkscape:window-width="1920"
     inkscape:window-height="1017"
     inkscape:window-x="-8"
     inkscape:window-y="-8"
     inkscape:window-maximized="1"
     inkscape:current-layer="svg36063" />
  <defs
     id="defs35693">
    <style
       id="style35691">.cls-1{fill:#7d7d7d;}.cls-2{fill:#19183a;}.cls-3,.cls-4,.cls-6,.cls-7{fill:none;}.cls-3{stroke:#8d99a7;}.cls-3,.cls-7{stroke-linecap:round;stroke-linejoin:round;}.cls-3,.cls-4,.cls-7{stroke-width:3px;}.cls-4,.cls-6,.cls-7{stroke:#000;}.cls-5{fill:#b4b19e;}.cls-6{stroke-miterlimit:10;}</style>
    <radialGradient
       id="rg"
       gradientUnits="userSpaceOnUse"
       cx="220"
       cy="220"
       r="405"
       gradientTransform="matrix(0.80510068,0,0,0.80302287,-0.0301997,-0.89702286)">
      <stop
         style="stop-color:#ffffff;stop-opacity:.3"
         offset="0"
         id="stop753" />
      <stop
         style="stop-color:#ffffff;stop-opacity:.2"
         offset=".2"
         id="stop755" />
      <stop
         style="stop-color:#666666;stop-opacity:.1"
         offset=".6"
         id="stop757" />
      <stop
         style="stop-color:#000000;stop-opacity:.13"
         offset="1"
         id="stop759" />
    </radialGradient>
  </defs>
  <title
     id="title35695">House Frey</title>
  <g
     id="Layer_2"
     data-name="Layer 2">
    <path
       class="cls-1"
       d="M927,122.76V328.6a314.37,314.37,0,0,1-2.28,38c-.11.93-.24,1.86-.36,2.79s-.24,1.86-.39,2.79q-.7,5.05-1.61,10c-.07.44-.15.87-.23,1.31-.15.8-.29,1.6-.45,2.39s-.34,1.8-.51,2.69l-.45,2.22-.24,1.16c-.15.71-.3,1.44-.47,2.15q-.8,3.55-1.61,7l-.58,2.32-.52,2q-1.52,5.88-3.27,11.61c-.29,1-.59,1.94-.9,2.92l-.6,1.88c-.19.63-.39,1.25-.6,1.86l-1.1,3.26c-.37,1.09-.68,2-1,3-.47,1.28-.92,2.55-1.39,3.81-.36,1-.73,2-1.11,3l-.19.49c-.43,1.14-.87,2.25-1.32,3.37s-.87,2.16-1.32,3.19a3.35,3.35,0,0,1-.18.42c-.4,1-.8,2-1.25,3s-.75,1.75-1.13,2.62l-.66,1.49c-.47,1.07-.95,2.12-1.44,3.15s-.9,2-1.36,2.93l-1,2.12c-.3.63-.6,1.25-.91,1.88-.63,1.32-1.31,2.64-2,4q-2.53,5-5.19,9.77l-2,3.57-.11.21q-2.13,3.71-4.33,7.33c-.71,1.2-1.46,2.39-2.18,3.54-.1.16-.19.31-.3.46-.55.89-1.12,1.78-1.69,2.66l-.66,1c-.65,1-1.31,2-2,3l-.13.18c-.66,1-1.32,2-2,3l-.45.67q-2.26,3.28-4.54,6.46l-.31.42c-.8,1.07-1.54,2.14-2.31,3.19s-1.66,2.23-2.5,3.32q-2.29,3-4.61,6l-.8,1c-.73.93-1.48,1.85-2.22,2.76L854,526.61l-.57.69L851,530.1q-2.83,3.32-5.72,6.53c-.75.85-1.52,1.69-2.29,2.51l-2.22,2.39q-3,3.19-5.93,6.24-2.76,2.83-5.53,5.59c-.91.91-1.84,1.82-2.76,2.71s-1.85,1.78-2.78,2.67l-2.28,2.11c-.68.65-1.36,1.28-2.05,1.91a448.64,448.64,0,0,1-61.76,47.47c-.86.55-1.73,1.1-2.58,1.6q-6.42,4.07-12.46,7.63l-2.41,1.4-2.36,1.36-2.34,1.35-2.22,1.28c-8.35,4.68-15.91,8.59-22.38,11.76l-1.61.8c-10.63,5.15-18.11,8.22-21,9.35l-.42.18-.61.23-.14.06h-.08l-.23-.1-.21,0-1.07-.42-.55-.23c-.87-.34-2-.8-3.36-1.38l-.47-.18c-1.76-.8-3.88-1.67-6.33-2.77l-1.39-.61a443.16,443.16,0,0,1-39.74-20.6c-.8-.45-1.61-.92-2.36-1.38a473.14,473.14,0,0,1-44.78-30l-2.62-2c-1-.75-2-1.52-2.95-2.29l-2.81-2.21c-6.19-4.92-12.43-10.15-18.64-15.69L558.08,566q-2.3-2.05-4.59-4.2l-1.67-1.57L550,558.54l-2-1.94c-1.12-1.07-2.24-2.16-3.34-3.26-.84-.8-1.69-1.67-2.52-2.51l-.24-.26q-1.25-1.25-2.5-2.51c-.66-.68-1.32-1.36-2-2l-2-2.07-.13-.15-2.1-2.24q-3.36-3.61-6.66-7.36c-.68-.8-1.36-1.55-2-2.35-.57-.65-1.12-1.28-1.66-1.94l-2-2.39q-4.26-5.11-8.39-10.48-1.13-1.45-2.24-2.92c-1.89-2.47-3.73-5-5.57-7.55l-1.68-2.39c-.13-.16-.24-.34-.36-.5-.59-.85-1.19-1.7-1.77-2.55-.95-1.38-1.89-2.77-2.82-4.17q-1.11-1.64-2.18-3.31l-.15-.24-2.22-3.47c-.07-.13-.15-.24-.22-.37-.71-1.14-1.41-2.27-2.1-3.4s-1.49-2.46-2.21-3.7-1.44-2.39-2.13-3.67q-4.6-8-8.77-16.47c-.35-.69-.69-1.38-1-2.08-.22-.44-.44-.89-.65-1.35-.43-.87-.8-1.75-1.25-2.63a27.17,27.17,0,0,1-1.15-2.47l-.23-.48c-.26-.58-.52-1.16-.8-1.75l-.26-.57c-.26-.58-.52-1.18-.8-1.77q-1.44-3.26-2.78-6.58c-.42-1-.8-2-1.23-3.07-.1-.26-.21-.53-.31-.8-.4-1-.8-2-1.16-3s-.68-1.82-1-2.74l-.23-.65c-.18-.45-.34-.91-.5-1.36q-1-2.69-1.89-5.44c-.21-.6-.4-1.21-.6-1.8-.26-.8-.51-1.54-.75-2.31-.14-.42-.26-.8-.39-1.22-.26-.8-.5-1.6-.75-2.39-.31-1-.61-2.06-.92-3.1-.18-.65-.39-1.28-.57-2-.37-1.28-.74-2.58-1.08-3.89-.19-.68-.37-1.35-.55-2-.13-.5-.26-1-.39-1.51-.32-1.22-.63-2.46-.92-3.7-.18-.7-.35-1.4-.52-2.11-.07-.29-.13-.57-.19-.85-.37-1.55-.71-3.11-1.07-4.69-.26-1.16-.5-2.33-.74-3.5-.14-.71-.29-1.43-.43-2.14s-.32-1.6-.47-2.45a2.13,2.13,0,0,0-.1-.47c-.15-.8-.3-1.64-.45-2.48s-.31-1.84-.47-2.77-.3-1.8-.45-2.71q-.87-5.52-1.56-11.17A314.73,314.73,0,0,1,447,328.58V122.76Z"
       transform="translate(-445.5 -121.26)"
       id="path35697" />
  </g>
  <g
     id="Layer_4"
     data-name="Layer 4">
    <path
       class="cls-2"
       d="M923.22,381.67c2.58-15.12-15.47,9.5-21.17-23.86a.36.36,0,0,0-.71,0c-2.46,14.65-11.76,17.71-20,18.5-8.67.83-13.67-7.5-13.67-7.5l-121.5,9.08c-21,3.91-24.33-20.94-24.33-20.94-.67,16-6.33,21-20,20.94C690,377.83,683.53,362.18,682,358a.21.21,0,0,0-.41.07c-.73,9.85-7,18.32-17.78,19.77-9.91,1.33-16.17-14.72-17.46-18.36a.16.16,0,0,0-.31.05,26.73,26.73,0,0,1-1.73,7.64c-1.39,3.37-2.81,6.07-6.46,6.09-19,.08-113.34,0-128.87,2.08-14.87,2-15.9-14-16.14-18.2a.2.2,0,0,0-.38,0c-5.49,16.63-10.56,18.81-23.15,19.24s-20.84-17-20.84-17S453.18,547,687.09,647.24C687.09,647.24,890,576,923.22,381.67Z"
       transform="translate(-445.5 -121.26)"
       id="path35700" />
  </g>
  <g
     id="Layer_6"
     data-name="Layer 6">
    <path
       class="cls-3"
       d="M454.07,394.69s14-2.45,17.51-15.11c.18-.67,1.24-.89,1.42-.23,2,7.5,11,16,21.51,15.34,13-.86,17.33-15.69,17.33-15.69"
       transform="translate(-445.5 -121.26)"
       id="path35703" />
    <path
       class="cls-3"
       d="M637.83,392s22.67,12.67,26.5-12.83c0,0,3.83,17.83,18.67,17.17s19.5-14.17,20-18.67c0,0,4,32.33,35.33,11.33"
       transform="translate(-445.5 -121.26)"
       id="path35705" />
    <path
       class="cls-3"
       d="M867.33,392.5s12.33.17,14.17-16.33c0,0,3.5,20.17,16.83,21s20.94-9.71,24.89-19.94"
       transform="translate(-445.5 -121.26)"
       id="path35707" />
    <path
       class="cls-3"
       d="M867.33,409.67c25.17,12.5,31-12.5,31-12.5s5.92,19.74,16.12,18.54"
       transform="translate(-445.5 -121.26)"
       id="path35709" />
    <path
       class="cls-3"
       d="M867.33,433c.83,0,10.33-4,12.67-19.84,0,0,2.5,27.65,27.75,22.41"
       transform="translate(-445.5 -121.26)"
       id="path35711" />
    <path
       class="cls-3"
       d="M867.33,447.67s21.33,17.47,34.67-11.43"
       transform="translate(-445.5 -121.26)"
       id="path35713" />
    <path
       class="cls-3"
       d="M865.5,469.17s9.86,1.06,17.18-16.3c0,0,3.33,12.66,9.91,16.31"
       transform="translate(-445.5 -121.26)"
       id="path35715" />
    <path
       class="cls-3"
       d="M866.33,477.83s13.22,7.74,19.78,3"
       transform="translate(-445.5 -121.26)"
       id="path35717" />
    <path
       class="cls-3"
       d="M865.5,500s11-2.73,15.83-17.62"
       transform="translate(-445.5 -121.26)"
       id="path35719" />
    <path
       class="cls-3"
       d="M809.32,522.65s-1.15,17.35,15.51,21S846,528,845.83,524.5c0,0-.18,6.28,2.33,8.89"
       transform="translate(-445.5 -121.26)"
       id="path35721" />
    <path
       class="cls-3"
       d="M865.5,511.67c-1.67-2-3.17-9.5-3.17-9.5,0,4.83-4.65,19.92-16.5,22.33S826.17,503,826.17,503c-3.5,12.33-3.67,16-15.17,19.33s-21-17.83-21-17.83c-3.67,18.17-15.5,20.17-15.5,20.17s2.67,20.58,16.17,19.46,17.31-7,18.65-21.48"
       transform="translate(-445.5 -121.26)"
       id="path35723" />
    <path
       class="cls-3"
       d="M804.49,561.84s.51,7.66,3,13.16"
       transform="translate(-445.5 -121.26)"
       id="path35725" />
    <path
       class="cls-3"
       d="M770.14,563.77s.37,25.49,23.37,21c0,0,12.48-8,11-23"
       transform="translate(-445.5 -121.26)"
       id="path35727" />
    <path
       class="cls-3"
       d="M752.33,585.32s-3.35,14.82,14,19.25"
       transform="translate(-445.5 -121.26)"
       id="path35729" />
    <path
       class="cls-3"
       d="M716.15,585.91c.57.1,5.85,19.49,19.26,17.92,13.86-1.62,15.75-10.19,16.92-18.51"
       transform="translate(-445.5 -121.26)"
       id="path35731" />
    <path
       class="cls-3"
       d="M827.75,554.91c-3.92-4.59-2.92-11.24-2.92-11.24-.5,2.33-1.33,17.33-18.17,18.17-17.39.86-16-17.71-16-17.71,1.83,4-5.33,22.37-18.83,20s-15.33-20-15.33-20c-1.5,8.17-5.5,18.5-18.83,17.66s-16.33-16.67-16.33-16.67,18.5.17,19.83-22c0,0-4,19.4,15.33,21,18,1.49,18-19.5,18-19.5-12.83-.66-17-19.34-17-19.34s-.83,17.5-16.33,17.84-18.83-18.84-18.83-18.84c-11.79-.67-13.58-18-13.58-18s13-.25,14.88-17.37c0,0,1.63,16.38,11.75,18.25"
       transform="translate(-445.5 -121.26)"
       id="path35733" />
    <path
       class="cls-3"
       d="M736.76,423.38c-9.74,7.75-15.51,6.13-15.51,6.13C703.88,430.38,703,413,703,413s12.08-1.93,14.48-17.09c0,0,2.27,18.59,18.65,19"
       transform="translate(-445.5 -121.26)"
       id="path35735" />
    <path
       class="cls-3"
       d="M736.76,448c-13.36-2.37-15.51-18.5-15.51-18.5-.87,15-14,19.75-14,19.75s-.31,1.91-10.37-1.37S686.25,432,686.25,432s-3.13,18.11-16.63,19.23-20.87-11.62-18.75-20.62c0,0,16.87,3.43,17.06-16.85,0,0,1.56,19,19.06,18.22s16-19,16-19c-17.25,1.63-20-16.67-20-16.67-.48,7-4.8,11.64-8.56,14.42a16.9,16.9,0,0,1-13.53,3.12c-13-2.8-13.25-18.82-13.25-18.82-.72,8.92-8.78,14.21-8.78,14.21"
       transform="translate(-445.5 -121.26)"
       id="path35737" />
    <path
       class="cls-3"
       d="M637.83,425.63s6,5.35,13,5"
       transform="translate(-445.5 -121.26)"
       id="path35739" />
    <path
       class="cls-3"
       d="M638.88,446.25s7.25-1,12-9"
       transform="translate(-445.5 -121.26)"
       id="path35741" />
    <path
       class="cls-3"
       d="M638.88,485.5S657,489.74,656.38,468c0,0-2,13.38,10.71,16.8A17.43,17.43,0,0,0,681,483c3.58-2.27,7.23-6.42,7.55-14-16.5-1.5-18.87-17.75-18.87-17.75-1.25,8-4.48,13.77-13.25,16.79-8.25,2.84-18.54-3.79-18.54-3.79"
       transform="translate(-445.5 -121.26)"
       id="path35743" />
    <path
       class="cls-3"
       d="M641.25,485.83s-4.37,18.59,18.38,17.29c0,0,14.37.39,13.75-17.68,0,0-1.75,17.68,16.38,20.8s18.88-17,19-19.87C690,490.13,688.5,469,688.5,469s15.63,2.25,18.75-19.75c0,0,2.38,20.25,16.38,19.75s13.13-4.12,13.13-4.12"
       transform="translate(-445.5 -121.26)"
       id="path35745" />
    <path
       class="cls-3"
       d="M691.25,544.75s-4.79,10,9.42,19.62c0,0,3.35,21.07,17.5,21.8,16.17.83,18.11-24.48,18.11-24.48s-3.11,22.29,16.06,23.63,17.8-21.55,17.8-21.55"
       transform="translate(-445.5 -121.26)"
       id="path35747" />
    <path
       class="cls-3"
       d="M691.25,544.75c-5,17.63-18.87,17.09-18.87,17.09S657,561.25,657,542.63c0,0,15.63,6.5,18.5-20"
       transform="translate(-445.5 -121.26)"
       id="path35749" />
    <path
       class="cls-3"
       d="M623.25,543.13s-.62,18.17,15.75,18.71c0,0,.19,24.29-20,22.66-18.62-1.5-14.75-21.62-14.75-21.62S622.5,566.25,623.25,543.13Z"
       transform="translate(-445.5 -121.26)"
       id="path35751" />
    <path
       class="cls-3"
       d="M606.53,603.83s10.59-4,12.47-19.33c0,0,.16,21.73,18.88,17.88,17-3.5,14-18.18,14-18.18s3.33,21,18.33,18.68S685.75,586,685.75,586s.21,18.18,15,18.55c14.25.36,15.4-18.66,15.4-18.66"
       transform="translate(-445.5 -121.26)"
       id="path35753" />
    <path
       class="cls-3"
       d="M633.74,620.94a49.48,49.48,0,0,0,5.87-19s-2.36,19.92,12.76,24.67,19.08-18.07,20.16-24.22c0,0-2.09,23.39,12.84,25.72,13.63,2.13,15.85-17.95,16.1-23.55,0,0-2.39,18.93,15.77,22.55,18,3.59,18.16-23.29,18.16-23.29s-2.09,10.15,5.75,16.49"
       transform="translate(-445.5 -121.26)"
       id="path35755" />
    <path
       class="cls-3"
       d="M676,642.66s7.46-6.17,10.21-14.38c0,0-4.37,9.92,7.13,16.42"
       transform="translate(-445.5 -121.26)"
       id="path35757" />
    <path
       class="cls-3"
       d="M717.25,627.13a17.61,17.61,0,0,1-3.36,8"
       transform="translate(-445.5 -121.26)"
       id="path35759" />
    <path
       class="cls-3"
       d="M583.5,586s19.5,2.6,20.75-23.15c-14.62-3-15.12-19.12-15.12-19.12-.5,17.88-18.87,21.17-18.87,21.17s-3.33,5.13,3.27,14.35"
       transform="translate(-445.5 -121.26)"
       id="path35761" />
    <path
       class="cls-3"
       d="M570.25,564.92c-18.75-7.2-14.5-21.17-14.5-21.17s14.25,4.75,19.5-21.12c0,0-2,19,13.88,21.13,0,0,16.63,5.71,19.38-20.58,0,0-3.5,18,14.75,20,19.52,2.08,20-21,20-21,1.5,17.22,13.75,20.53,13.75,20.53-3,21.38-18,19.21-18,19.21s-.87,19.79,14.25,22.66,19.13-22.66,19.13-22.66-.25,20.54,10.75,23.82a10.1,10.1,0,0,0,4.48.22c4.7-.75,15.36-4.34,13.07-21.5,0,0,17.25,1.46,20.67-19.2-14.17-2.58-15.08-22-15.08-22s0,22.83-15,21.58c-15.51-1.29-13.49-22.32-13.49-22.32"
       transform="translate(-445.5 -121.26)"
       id="path35763" />
    <path
       class="cls-3"
       d="M739.75,495.25c-1.5,10.75-17.42,9.08-17.42,9.08-.33,3.92-.58,15-16.08,18.84-17,4.17-16.5-16.92-16.5-16.92S688,522.63,675.5,522.63c-13.21,0-15.87-19.5-15.87-19.5s-1.25,18.88-15.37,19S626.63,504,626.63,504c-6,18.63-9.37,18.63-18.12,19.17-9.73.6-15-16.59-15-16.59-4.75,18.08-18.25,16-18.25,16-14.25.25-19.91-18.12-19.91-18.12s2.41,16.18-15.71,19.21c0,0-1,15.41,16.13,20"
       transform="translate(-445.5 -121.26)"
       id="path35765" />
    <path
       class="cls-3"
       d="M513.8,518.88s7.95-6.38,8.7-14.5c0,0,1.75,15.8,17.13,19.34-.5,9.34-8.84,15.24-8.84,15.24"
       transform="translate(-445.5 -121.26)"
       id="path35767" />
    <path
       class="cls-3"
       d="M497.24,495.88a18.2,18.2,0,0,0,3.51-8.76s4.13.38,5.88,7.13"
       transform="translate(-445.5 -121.26)"
       id="path35769" />
    <path
       class="cls-3"
       d="M500.75,487.13c-11.25-.62-12.87-16.87-12.87-16.87s11.25,2.38,18.75-6.87"
       transform="translate(-445.5 -121.26)"
       id="path35771" />
    <path
       class="cls-3"
       d="M473.5,451.13s13.38-2.12,16.13-20.75c0,0,0,20,18.25,20.75"
       transform="translate(-445.5 -121.26)"
       id="path35773" />
    <path
       class="cls-3"
       d="M463.5,425.88s5-1.75,7.5-14.5c0,0,5.52,19.66,18.63,19,0,0,9.88,3.5,17-3.37"
       transform="translate(-445.5 -121.26)"
       id="path35775" />
    <path
       class="cls-3"
       d="M508.88,412.06c-10.12-3.31-14.37-17.38-14.37-17.38-6.12,22.56-23.5,16.69-23.5,16.69s-11.7-1.39-14.5-9.87"
       transform="translate(-445.5 -121.26)"
       id="path35777" />
    <path
       class="cls-3"
       d="M487.88,470.25a13.38,13.38,0,0,1-8-5.42"
       transform="translate(-445.5 -121.26)"
       id="path35779" />
  </g>
  <g
     id="Layer_5"
     data-name="Layer 5">
    <path
       class="cls-4"
       d="M927,122.76V328.6a314.37,314.37,0,0,1-2.28,38c-.11.93-.24,1.86-.36,2.79s-.24,1.86-.39,2.79q-.7,5.05-1.61,10c-.07.44-.15.87-.23,1.31-.15.8-.29,1.6-.45,2.39s-.34,1.8-.51,2.69l-.45,2.22-.24,1.16c-.15.71-.3,1.44-.47,2.15q-.8,3.55-1.61,7l-.58,2.32-.52,2q-1.52,5.88-3.27,11.61c-.29,1-.59,1.94-.9,2.92l-.6,1.88c-.19.63-.39,1.25-.6,1.86l-1.1,3.26c-.37,1.09-.68,2-1,3-.47,1.28-.92,2.55-1.39,3.81-.36,1-.73,2-1.11,3l-.19.49c-.43,1.14-.87,2.25-1.32,3.37s-.87,2.16-1.32,3.19a3.35,3.35,0,0,1-.18.42c-.4,1-.8,2-1.25,3s-.75,1.75-1.13,2.62l-.66,1.49c-.47,1.07-.95,2.12-1.44,3.15s-.9,2-1.36,2.93l-1,2.12c-.3.63-.6,1.25-.91,1.88-.63,1.32-1.31,2.64-2,4q-2.53,5-5.19,9.77l-2,3.57-.11.21q-2.13,3.71-4.33,7.33c-.71,1.2-1.46,2.39-2.18,3.54-.1.16-.19.31-.3.46-.55.89-1.12,1.78-1.69,2.66l-.66,1c-.65,1-1.31,2-2,3l-.13.18c-.66,1-1.32,2-2,3l-.45.67q-2.26,3.28-4.54,6.46l-.31.42c-.8,1.07-1.54,2.14-2.31,3.19s-1.66,2.23-2.5,3.32q-2.29,3-4.61,6l-.8,1c-.73.93-1.48,1.85-2.22,2.76L854,526.61l-.57.69L851,530.1q-2.83,3.32-5.72,6.53c-.75.85-1.52,1.69-2.29,2.51l-2.22,2.39q-3,3.19-5.93,6.24-2.76,2.83-5.53,5.59c-.91.91-1.84,1.82-2.76,2.71s-1.85,1.78-2.78,2.67l-2.28,2.11c-.68.65-1.36,1.28-2.05,1.91a448.64,448.64,0,0,1-61.76,47.47c-.86.55-1.73,1.1-2.58,1.6q-6.42,4.07-12.46,7.63l-2.41,1.4-2.36,1.36-2.34,1.35-2.22,1.28c-8.35,4.68-15.91,8.59-22.38,11.76l-1.61.8c-10.63,5.15-18.11,8.22-21,9.35l-.42.18-.61.23-.14.06h-.08l-.23-.1-.21,0-1.07-.42-.55-.23c-.87-.34-2-.8-3.36-1.38l-.47-.18c-1.76-.8-3.88-1.67-6.33-2.77l-1.39-.61a443.16,443.16,0,0,1-39.74-20.6c-.8-.45-1.61-.92-2.36-1.38a473.14,473.14,0,0,1-44.78-30l-2.62-2c-1-.75-2-1.52-2.95-2.29l-2.81-2.21c-6.19-4.92-12.43-10.15-18.64-15.69L558.08,566q-2.3-2.05-4.59-4.2l-1.67-1.57L550,558.54l-2-1.94c-1.12-1.07-2.24-2.16-3.34-3.26-.84-.8-1.69-1.67-2.52-2.51l-.24-.26q-1.25-1.25-2.5-2.51c-.66-.68-1.32-1.36-2-2l-2-2.07-.13-.15-2.1-2.24q-3.36-3.61-6.66-7.36c-.68-.8-1.36-1.55-2-2.35-.57-.65-1.12-1.28-1.66-1.94l-2-2.39q-4.26-5.11-8.39-10.48-1.13-1.45-2.24-2.92c-1.89-2.47-3.73-5-5.57-7.55l-1.68-2.39c-.13-.16-.24-.34-.36-.5-.59-.85-1.19-1.7-1.77-2.55-.95-1.38-1.89-2.77-2.82-4.17q-1.11-1.64-2.18-3.31l-.15-.24-2.22-3.47c-.07-.13-.15-.24-.22-.37-.71-1.14-1.41-2.27-2.1-3.4s-1.49-2.46-2.21-3.7-1.44-2.39-2.13-3.67q-4.6-8-8.77-16.47c-.35-.69-.69-1.38-1-2.08-.22-.44-.44-.89-.65-1.35-.43-.87-.8-1.75-1.25-2.63a27.17,27.17,0,0,1-1.15-2.47l-.23-.48c-.26-.58-.52-1.16-.8-1.75l-.26-.57c-.26-.58-.52-1.18-.8-1.77q-1.44-3.26-2.78-6.58c-.42-1-.8-2-1.23-3.07-.1-.26-.21-.53-.31-.8-.4-1-.8-2-1.16-3s-.68-1.82-1-2.74l-.23-.65c-.18-.45-.34-.91-.5-1.36q-1-2.69-1.89-5.44c-.21-.6-.4-1.21-.6-1.8-.26-.8-.51-1.54-.75-2.31-.14-.42-.26-.8-.39-1.22-.26-.8-.5-1.6-.75-2.39-.31-1-.61-2.06-.92-3.1-.18-.65-.39-1.28-.57-2-.37-1.28-.74-2.58-1.08-3.89-.19-.68-.37-1.35-.55-2-.13-.5-.26-1-.39-1.51-.32-1.22-.63-2.46-.92-3.7-.18-.7-.35-1.4-.52-2.11-.07-.29-.13-.57-.19-.85-.37-1.55-.71-3.11-1.07-4.69-.26-1.16-.5-2.33-.74-3.5-.14-.71-.29-1.43-.43-2.14s-.32-1.6-.47-2.45a2.13,2.13,0,0,0-.1-.47c-.15-.8-.3-1.64-.45-2.48s-.31-1.84-.47-2.77-.3-1.8-.45-2.71q-.87-5.52-1.56-11.17A314.73,314.73,0,0,1,447,328.58V122.76Z"
       transform="translate(-445.5 -121.26)"
       id="path35782" />
  </g>
  <g
     id="Layer_8"
     data-name="Layer 8">
    <path
       class="cls-5"
       d="M742.62,246.88l-2-86.26H759.5V180.5h16.38V161h18.5v17.75h19.87V160.62h17V178.5H846.5V162H866V500.25c-7.75,11.5-19.88-13.63-19.88-13.63-3.87,12.5-13.62,17.38-19.87,15.88s-16.5-15-16.5-15C806,505.88,788.38,504,788.38,504c-4.88-7.75-15.13-16.5-15.13-16.5-.75,13.5-16.37,18.25-16.37,18.25-8.5-10.87-16.37-13.5-16.37-13.5l-1.63.25,1.63-119.75.61-36.25h0c-.27-.89-14.76-49.15-48-47.82s-47.78,19.83-55.92,46.75V497.75s.42,4.75-10.42,6.58-19-17.5-19-17.5S605.5,504.5,594,505.33s-20.08-15.5-20.08-15.5c-.59,7.17-6.75,14.67-17.42,14.61-10.24-.07-17.86-12.68-18.46-13.7,0,0,0-.06,0-.06a.15.15,0,0,0,0,.06c0,.29-.48,1.79-7,9.51-8,9.42-21.67,0-21.67,0l1.5-339.92h19.34V180H548.5V161h16.67v18.5h17V162.33h17.66v18.34h17v-17h20.42V243.5h13v14.25h15V246h15.5v11.75H695.5V246H712v11.75h13.5v-10.5h17.1"
       transform="translate(-445.5 -121.26)"
       id="path35785" />
    <path
       class="cls-5"
       d="M538,490.74a.15.15,0,0,1,0-.06S538,490.69,538,490.74Z"
       transform="translate(-445.5 -121.26)"
       id="path35787" />
  </g>
  <g
     id="Layer_9"
     data-name="Layer 9">
    <line
       class="cls-6"
       x1="65.25"
       y1="58.91"
       x2="84.67"
       y2="58.91"
       id="line35790" />
    <polyline
       class="cls-6"
       points="103 58.81 120.5 58.98 154.33 58.91 172 59.74 193 59.74"
       id="polyline35792" />
    <polyline
       class="cls-6"
       points="96.83 58.74 96.83 80.24 65.25 80.24"
       id="polyline35794" />
    <polyline
       class="cls-6"
       points="96.83 79.24 113.33 79.24 129.33 78.57 129.33 65.91"
       id="polyline35796" />
    <polyline
       class="cls-6"
       points="129.33 78.57 149.33 80.24 163.33 80.24 163.33 59.28"
       id="polyline35798" />
    <line
       class="cls-6"
       x1="163.33"
       y1="80.24"
       x2="192.17"
       y2="80.24"
       id="line35800" />
    <polyline
       class="cls-6"
       points="177.75 80.24 177.75 103.41 192.17 103.41"
       id="polyline35802" />
    <polyline
       class="cls-6"
       points="149.33 80.24 149.33 104.07 177.75 103.41"
       id="polyline35804" />
    <line
       class="cls-6"
       x1="135.67"
       y1="104.07"
       x2="149.33"
       y2="104.07"
       id="line35806" />
    <polyline
       class="cls-6"
       points="121.33 103.41 113.08 103.41 113.33 79.24"
       id="polyline35808" />
    <polyline
       class="cls-6"
       points="113.08 103.41 81.04 101.74 81.04 80.24"
       id="polyline35810" />
    <line
       class="cls-6"
       x1="65.25"
       y1="101.74"
       x2="81.04"
       y2="101.74"
       id="line35812" />
    <polyline
       class="cls-6"
       points="97.06 102.57 97.06 125.24 122.83 126.24"
       id="polyline35814" />
    <polyline
       class="cls-6"
       points="135.67 125.57 163.33 124.24 163.33 104.07"
       id="polyline35816" />
    <line
       class="cls-6"
       x1="65.25"
       y1="125.57"
       x2="97.06"
       y2="125.24"
       id="line35818" />
    <polyline
       class="cls-6"
       points="81.15 125.41 79.17 151.07 65.25 151.07"
       id="polyline35820" />
    <polyline
       class="cls-6"
       points="163.33 124.24 193 124.24 193 179.41 192.42 181.07 192.42 219.91"
       id="polyline35822" />
    <polyline
       class="cls-6"
       points="145.67 125.09 146.33 151.57 178.17 151.57 178.17 124.24"
       id="polyline35824" />
    <polyline
       class="cls-6"
       points="162.67 151.57 163.54 180.07 193 179.41"
       id="polyline35826" />
    <polyline
       class="cls-6"
       points="178.17 180.07 179.33 209.37 192.42 209.37"
       id="polyline35828" />
    <polyline
       class="cls-6"
       points="79.17 151.07 111.17 151.07 111.17 125.57"
       id="polyline35830" />
    <line
       class="cls-6"
       x1="111.17"
       y1="151.07"
       x2="146.33"
       y2="151.57"
       id="line35832" />
    <line
       class="cls-6"
       x1="128.42"
       y1="151.57"
       x2="128.42"
       y2="161.57"
       id="line35834" />
    <polyline
       class="cls-6"
       points="97.06 151.32 98.33 180.07 120.5 180.07"
       id="polyline35836" />
    <line
       class="cls-6"
       x1="98.33"
       y1="180.07"
       x2="65.25"
       y2="180.07"
       id="line35838" />
    <line
       class="cls-6"
       x1="136.5"
       y1="180.07"
       x2="163.54"
       y2="180.07"
       id="line35840" />
    <polyline
       class="cls-6"
       points="147.25 180.07 148 209.37 136.5 210.62"
       id="polyline35842" />
    <line
       class="cls-6"
       x1="148"
       y1="209.37"
       x2="179.33"
       y2="209.37"
       id="line35844" />
    <polyline
       class="cls-6"
       points="162.67 209.37 164.25 243.37 191.42 243.37"
       id="polyline35846" />
    <polyline
       class="cls-6"
       points="177.5 243.37 177.5 286.87 191.42 287.74"
       id="polyline35848" />
    <polyline
       class="cls-6"
       points="127.5 219.91 128.42 243.99 145.13 243.99 164.25 243.37"
       id="polyline35850" />
    <polyline
       class="cls-6"
       points="145.13 243.99 145.88 286.74 164.25 286.74"
       id="polyline35852" />
    <line
       class="cls-6"
       x1="160.13"
       y1="286.74"
       x2="160.13"
       y2="297.74"
       id="line35854" />
    <polyline
       class="cls-6"
       points="128.42 243.99 94.38 243.99 94.38 208.57 119.25 209.37"
       id="polyline35856" />
    <line
       class="cls-6"
       x1="110.75"
       y1="180.07"
       x2="112.25"
       y2="209.14"
       id="line35858" />
    <polyline
       class="cls-6"
       points="94.38 208.57 83.75 208.57 81.79 180.07"
       id="polyline35860" />
    <line
       class="cls-6"
       x1="64.58"
       y1="209.14"
       x2="83.75"
       y2="208.57"
       id="line35862" />
    <line
       class="cls-6"
       x1="64.58"
       y1="243.99"
       x2="94.38"
       y2="243.99"
       id="line35864" />
    <polyline
       class="cls-6"
       points="106.13 243.99 110.75 287.74 119.5 287.74"
       id="polyline35866" />
    <line
       class="cls-6"
       x1="133.5"
       y1="286.74"
       x2="145.88"
       y2="286.74"
       id="line35868" />
    <polyline
       class="cls-6"
       points="81.88 243.99 82.5 287.74 110.75 287.74"
       id="polyline35870" />
    <line
       class="cls-6"
       x1="64.58"
       y1="286.74"
       x2="82.5"
       y2="287.74"
       id="line35872" />
    <polyline
       class="cls-6"
       points="97.13 287.74 100 325.99 64.58 324.87"
       id="polyline35874" />
    <polyline
       class="cls-6"
       points="100 325.99 127.5 324.37 127.63 314.49"
       id="polyline35876" />
    <polyline
       class="cls-6"
       points="127.5 324.37 161.75 321.87 161.13 308.49"
       id="polyline35878" />
    <line
       class="cls-6"
       x1="161.75"
       y1="321.87"
       x2="167.63"
       y2="321.87"
       id="line35880" />
    <line
       class="cls-6"
       x1="174.5"
       y1="322.49"
       x2="190.25"
       y2="322.49"
       id="line35882" />
    <line
       class="cls-6"
       x1="178.25"
       y1="322.49"
       x2="178.25"
       y2="347.24"
       id="line35884" />
    <polyline
       class="cls-6"
       points="178.25 354.24 178.25 359.24 182.38 359.24"
       id="polyline35886" />
    <path
       class="cls-6"
       d="M631.25,480.5c.38-.25,4.5-1.62,4.5-1.62"
       transform="translate(-445.5 -121.26)"
       id="path35888" />
    <polyline
       class="cls-6"
       points="81.88 325.42 82.29 360.87 64.58 359.24"
       id="polyline35890" />
    <polyline
       class="cls-6"
       points="82.29 360.87 99.25 360.87 99.25 378.07"
       id="polyline35892" />
    <polyline
       class="cls-6"
       points="99.25 360.87 113.81 361.62 113.81 325.18"
       id="polyline35894" />
    <polyline
       class="cls-6"
       points="113.81 361.62 133.88 361.62 133.88 376.49"
       id="polyline35896" />
    <line
       class="cls-6"
       x1="133.88"
       y1="361.62"
       x2="139.38"
       y2="361.62"
       id="line35898" />
    <line
       class="cls-6"
       x1="144.63"
       y1="360.87"
       x2="152.5"
       y2="360.87"
       id="line35900" />
    <line
       class="cls-6"
       x1="147.88"
       y1="360.87"
       x2="147.88"
       y2="354.99"
       id="line35902" />
    <line
       class="cls-6"
       x1="147.88"
       y1="350.99"
       x2="147.88"
       y2="347.24"
       id="line35904" />
    <line
       class="cls-6"
       x1="147.88"
       y1="343.99"
       x2="146.99"
       y2="322.94"
       id="line35906" />
    <line
       class="cls-6"
       x1="157.88"
       y1="360.87"
       x2="178.25"
       y2="359.24"
       id="line35908" />
    <line
       class="cls-6"
       x1="168.64"
       y1="360.01"
       x2="168.64"
       y2="375.12"
       id="line35910" />
    <line
       class="cls-6"
       x1="218"
       y1="151.89"
       x2="217.38"
       y2="136.49"
       id="line35912" />
    <line
       class="cls-6"
       x1="244.88"
       y1="152.22"
       x2="244.25"
       y2="148.12"
       id="line35914" />
    <line
       class="cls-6"
       x1="243.75"
       y1="136.49"
       x2="244.25"
       y2="144.19"
       id="line35916" />
    <line
       class="cls-6"
       x1="270.13"
       y1="136.49"
       x2="270.13"
       y2="152.54"
       id="line35918" />
    <line
       class="cls-6"
       x1="230.38"
       y1="151.89"
       x2="238.87"
       y2="168.32"
       id="line35920" />
    <path
       class="cls-6"
       d="M650.63,273c.37,0,14.28,22.72,14.28,22.72"
       transform="translate(-445.5 -121.26)"
       id="path35922" />
    <line
       class="cls-6"
       x1="193"
       y1="175.24"
       x2="205.13"
       y2="184.87"
       id="line35924" />
    <line
       class="cls-6"
       x1="251.87"
       y1="167.51"
       x2="257.37"
       y2="152.38"
       id="line35926" />
    <line
       class="cls-6"
       x1="266.91"
       y1="173.06"
       x2="282.38"
       y2="152.69"
       id="line35928" />
    <line
       class="cls-6"
       x1="281.38"
       y1="184.87"
       x2="295.88"
       y2="173.74"
       id="line35930" />
    <line
       class="cls-6"
       x1="295.01"
       y1="58.81"
       x2="314.5"
       y2="58.07"
       id="line35932" />
    <line
       class="cls-6"
       x1="330.5"
       y1="59.07"
       x2="350.17"
       y2="59.07"
       id="line35934" />
    <line
       class="cls-6"
       x1="368.25"
       y1="58.49"
       x2="386.38"
       y2="58.49"
       id="line35936" />
    <line
       class="cls-6"
       x1="420.5"
       y1="59.07"
       x2="399.5"
       y2="59.07"
       id="line35938" />
    <polyline
       class="cls-6"
       points="321.17 59.07 321.17 81.41 296.25 81.41"
       id="polyline35940" />
    <line
       class="cls-6"
       x1="306.75"
       y1="81.41"
       x2="306.75"
       y2="91.07"
       id="line35942" />
    <polyline
       class="cls-6"
       points="296.74 103.07 306.75 103.24 306.75 94.57"
       id="polyline35944" />
    <polyline
       class="cls-6"
       points="306.75 103.24 323.13 101.87 342.25 99.99 342.25 82.12 321.17 81.41"
       id="polyline35946" />
    <line
       class="cls-6"
       x1="342.25"
       y1="99.99"
       x2="352.63"
       y2="99.99"
       id="line35948" />
    <polyline
       class="cls-6"
       points="342.25 82.12 361 81.41 360.5 58.07"
       id="polyline35950" />
    <polyline
       class="cls-6"
       points="361 81.41 393.75 80.87 393.75 59.07"
       id="polyline35952" />
    <line
       class="cls-6"
       x1="393.75"
       y1="80.87"
       x2="420"
       y2="81.41"
       id="line35954" />
    <polyline
       class="cls-6"
       points="409.5 81.14 409.5 103.24 420.5 105.87"
       id="polyline35956" />
    <line
       class="cls-6"
       x1="409.5"
       y1="103.24"
       x2="368.25"
       y2="100.37"
       id="line35958" />
    <line
       class="cls-6"
       x1="376.14"
       y1="100.92"
       x2="376.14"
       y2="80.87"
       id="line35960" />
    <polyline
       class="cls-6"
       points="393.75 102.14 394.75 124.87 420 124.87"
       id="polyline35962" />
    <polyline
       class="cls-6"
       points="404.38 124.87 405.75 151.62 420.5 152.87"
       id="polyline35964" />
    <polyline
       class="cls-6"
       points="405.75 151.62 375.63 150.37 376.14 125.57 394.75 124.87"
       id="polyline35966" />
    <line
       class="cls-6"
       x1="368.25"
       y1="125.57"
       x2="376.14"
       y2="125.57"
       id="line35968" />
    <polyline
       class="cls-6"
       points="392.87 151.08 393.75 179.3 420 179.3"
       id="polyline35970" />
    <polyline
       class="cls-6"
       points="365.88 180.12 384 180.12 393.75 179.3"
       id="polyline35972" />
    <polyline
       class="cls-6"
       points="384 180.12 385.13 211.74 420 211.62"
       id="polyline35974" />
    <line
       class="cls-6"
       x1="385.13"
       y1="211.74"
       x2="365.13"
       y2="211.74"
       id="line35976" />
    <polyline
       class="cls-6"
       points="398.75 211.74 399.38 244.12 415.63 242.99 420 239.12"
       id="polyline35978" />
    <polyline
       class="cls-6"
       points="368.63 211.74 368.63 244.12 399.38 244.12"
       id="polyline35980" />
    <polyline
       class="cls-6"
       points="385.75 244.12 387.38 284.12 403.38 282.87 420 281.87"
       id="polyline35982" />
    <line
       class="cls-6"
       x1="387.38"
       y1="284.12"
       x2="364.63"
       y2="285.99"
       id="line35984" />
    <polyline
       class="cls-6"
       points="376 285.05 377.63 323.62 404.25 325.62 403.38 282.87"
       id="polyline35986" />
    <line
       class="cls-6"
       x1="404.25"
       y1="325.62"
       x2="420.5"
       y2="323.99"
       id="line35988" />
    <path
       class="cls-6"
       d="M835.63,445.81c.49,0,2.75,32.81,2.75,32.81l27.63-.75"
       transform="translate(-445.5 -121.26)"
       id="path35990" />
    <polyline
       class="cls-6"
       points="392.88 357.37 377.5 358.37 377.5 378.99"
       id="polyline35992" />
    <polyline
       class="cls-6"
       points="377.5 358.37 342.25 358.99 343.38 381.62"
       id="polyline35994" />
    <polyline
       class="cls-6"
       points="342.25 358.99 306.75 360.49 306.75 380.12"
       id="polyline35996" />
    <line
       class="cls-6"
       x1="306.75"
       y1="360.49"
       x2="293.54"
       y2="358.99"
       id="line35998" />
    <polyline
       class="cls-6"
       points="316.49 360.08 314.88 320.62 293.95 319.74"
       id="polyline36000" />
    <polyline
       class="cls-6"
       points="358.87 358.7 358.25 322.74 377.63 323.62"
       id="polyline36002" />
    <polyline
       class="cls-6"
       points="358.25 322.74 339.63 320.99 314.88 320.62"
       id="polyline36004" />
    <polyline
       class="cls-6"
       points="339.63 320.99 337.75 285.05 349.75 285.99"
       id="polyline36006" />
    <polyline
       class="cls-6"
       points="337.75 285.05 317.25 284.12 295.01 284.12"
       id="polyline36008" />
    <line
       class="cls-6"
       x1="305.75"
       y1="284.12"
       x2="306.75"
       y2="317.74"
       id="line36010" />
    <polyline
       class="cls-6"
       points="354.38 250.37 354.38 244.12 368.63 244.12"
       id="polyline36012" />
    <polyline
       class="cls-6"
       points="354.38 244.12 314.63 244.12 294.77 242.87"
       id="polyline36014" />
    <line
       class="cls-6"
       x1="314.63"
       y1="244.12"
       x2="317.25"
       y2="284.12"
       id="line36016" />
    <polyline
       class="cls-6"
       points="334.63 244.12 333.63 211.74 350.25 211.74"
       id="polyline36018" />
    <line
       class="cls-6"
       x1="333.63"
       y1="211.74"
       x2="295.01"
       y2="210.87"
       id="line36020" />
    <polyline
       class="cls-6"
       points="344.88 211.74 344.13 181.12 350.25 180.74"
       id="polyline36022" />
    <polyline
       class="cls-6"
       points="344.13 181.12 311.63 181.12 295.88 180.74"
       id="polyline36024" />
    <line
       class="cls-6"
       x1="311.63"
       y1="181.12"
       x2="312.38"
       y2="210.87"
       id="line36026" />
    <polyline
       class="cls-6"
       points="329.88 181.12 328 151.62 296.25 152.87 295.01 216.41"
       id="polyline36028" />
    <polyline
       class="cls-6"
       points="309.62 152.34 308.88 125.57 296.74 125.57 296.25 152.87 193 151.57 178.17 151.57"
       id="polyline36030" />
    <polyline
       class="cls-6"
       points="328 151.62 340.88 149.74 375.63 150.37"
       id="polyline36032" />
    <line
       class="cls-6"
       x1="357.63"
       y1="150.04"
       x2="357.63"
       y2="158.24"
       id="line36034" />
    <polyline
       class="cls-6"
       points="340.88 149.74 339.75 126.62 353.5 127.37"
       id="polyline36036" />
    <line
       class="cls-6"
       x1="339.75"
       y1="126.62"
       x2="308.88"
       y2="125.57"
       id="line36038" />
    <line
       class="cls-6"
       x1="323.13"
       y1="101.87"
       x2="322.63"
       y2="125.57"
       id="line36040" />
  </g>
  <g
     id="Layer_10"
     data-name="Layer 10">
    <polygon
       points="360.5 309.74 354.38 309.12 352.75 256.12 359.13 256.12 360.5 309.74"
       id="polygon36043" />
    <polygon
       points="360.38 214.24 355 214.24 354.38 162.88 360.88 162.88 360.38 214.24"
       id="polygon36045" />
    <polygon
       points="357.5 127.74 357.5 86.87 362.63 86.87 363.75 127.74 357.5 127.74"
       id="polygon36047" />
    <polygon
       points="129.42 309.57 123.5 309.57 122.92 255.91 130.08 255.91 129.42 309.57"
       id="polygon36049" />
    <polygon
       points="131.5 216.07 123.42 215.49 124.67 166.82 131.25 166.82 131.5 216.07"
       id="polygon36051" />
    <polygon
       points="126.25 127.24 125.58 87.57 132.08 87.91 132.42 127.24 126.25 127.24"
       id="polygon36053" />
  </g>
  <g
     id="Layer_7"
     data-name="Layer 7">
    <path
       class="cls-7"
       d="M738.88,495.5l1.63-153.76c.09-8-3.16-15.8-6.13-23.24-6.15-15.38-21.5-28.09-42.5-28.92C661.15,288.37,638,306,637.25,357.75s0,140,0,140"
       transform="translate(-445.5 -121.26)"
       id="path36056" />
    <path
       class="cls-7"
       d="M638.5,244h11.75v13.75h15V246h15.5v11.75H695.5V246H712v11.75h13.5v-10.5h16.75S740.52,167,740.51,161H760v19.25h16V161h18.75v18.75h19V161H831.5v19.25H846V162h20V500.25"
       transform="translate(-445.5 -121.26)"
       id="path36058" />
    <polyline
       class="cls-7"
       points="193 122.74 193 41.74 171.33 41.74 171.33 59.41 154.33 59.41 154.33 41.07 136.67 41.07 136.67 58.24 119.67 58.24 119.67 39.74 103 39.74 103 58.74 84.67 58.74 84.67 39.07 65.33 39.07 63.83 378.07"
       id="polyline36060" />
  </g>
  <path
     id="shine"
     d="M 1.5800015,0.70902314 V 207.0859 C 1.5800015,436.75044 241.5,526.689 241.5,526.689 c 0,0 239.92,-89.93856 239.92,-319.6031 V 0.70902314 Z"
     style="fill:url(#rg);stroke:#000000;stroke-width:2.41218" />
</svg>
