<?xml version="1.0" encoding="UTF-8" standalone="no"?>
<svg
   viewBox="0 0 483 527.48"
   version="1.1"
   id="svg55438"
   sodipodi:docname="House Gardener.svg"
   inkscape:version="1.2.1 (9c6d41e410, 2022-07-14)"
   xmlns:inkscape="http://www.inkscape.org/namespaces/inkscape"
   xmlns:sodipodi="http://sodipodi.sourceforge.net/DTD/sodipodi-0.dtd"
   xmlns="http://www.w3.org/2000/svg"
   xmlns:svg="http://www.w3.org/2000/svg">
  <sodipodi:namedview
     id="namedview55440"
     pagecolor="#ffffff"
     bordercolor="#000000"
     borderopacity="0.25"
     inkscape:showpageshadow="2"
     inkscape:pageopacity="0.0"
     inkscape:pagecheckerboard="0"
     inkscape:deskcolor="#d1d1d1"
     showgrid="false"
     inkscape:zoom="0.79339504"
     inkscape:cx="105.87412"
     inkscape:cy="332.74723"
     inkscape:window-width="1920"
     inkscape:window-height="1017"
     inkscape:window-x="-8"
     inkscape:window-y="-8"
     inkscape:window-maximized="1"
     inkscape:current-layer="svg55438" />
  <defs
     id="defs55424">
    <style
       id="style55422">.cls-1,.cls-3{fill:#f0f0dd;}.cls-1{stroke:#000;stroke-width:3px;}.cls-2{fill:#38461b;}.cls-4{fill:#e5e6d1;}</style>
    <radialGradient
       id="rg"
       gradientUnits="userSpaceOnUse"
       cx="220"
       cy="220"
       r="405"
       gradientTransform="matrix(0.80510068,0,0,0.80302287,-0.0302033,-0.90201163)">
      <stop
         style="stop-color:#ffffff;stop-opacity:.3"
         offset="0"
         id="stop753" />
      <stop
         style="stop-color:#ffffff;stop-opacity:.2"
         offset=".2"
         id="stop755" />
      <stop
         style="stop-color:#666666;stop-opacity:.1"
         offset=".6"
         id="stop757" />
      <stop
         style="stop-color:#000000;stop-opacity:.13"
         offset="1"
         id="stop759" />
    </radialGradient>
  </defs>
  <title
     id="title55426">House Gardener</title>
  <g
     id="Layer_2"
     data-name="Layer 2">
    <path
       class="cls-1"
       d="M927,122.76V328.6a314.37,314.37,0,0,1-2.28,38c-.11.93-.24,1.86-.36,2.79s-.24,1.86-.39,2.79q-.7,5.05-1.61,10c-.07.44-.15.87-.23,1.31-.15.8-.29,1.6-.45,2.39s-.34,1.8-.51,2.69l-.45,2.22-.24,1.16c-.15.71-.3,1.44-.47,2.15q-.8,3.55-1.61,7l-.58,2.32-.52,2q-1.52,5.88-3.27,11.61c-.29,1-.59,1.94-.9,2.92l-.6,1.88c-.19.63-.39,1.25-.6,1.86l-1.1,3.26c-.37,1.09-.68,2-1,3-.47,1.28-.92,2.55-1.39,3.81-.36,1-.73,2-1.11,3l-.19.49c-.43,1.14-.87,2.25-1.32,3.37s-.87,2.16-1.32,3.19a3.35,3.35,0,0,1-.18.42c-.4,1-.8,2-1.25,3s-.75,1.75-1.13,2.62l-.66,1.49c-.47,1.07-.95,2.12-1.44,3.15s-.9,2-1.36,2.93l-1,2.12c-.3.63-.6,1.25-.91,1.88-.63,1.32-1.31,2.64-2,4q-2.53,5-5.19,9.77l-2,3.57-.11.21q-2.13,3.71-4.33,7.33c-.71,1.2-1.46,2.39-2.18,3.54-.1.16-.19.31-.3.46-.55.89-1.12,1.78-1.69,2.66l-.66,1c-.65,1-1.31,2-2,3l-.13.18c-.66,1-1.32,2-2,3l-.45.67q-2.26,3.28-4.54,6.46l-.31.42c-.8,1.07-1.54,2.14-2.31,3.19s-1.66,2.23-2.5,3.32q-2.29,3-4.61,6l-.8,1c-.73.93-1.48,1.85-2.22,2.76L854,526.61l-.57.69L851,530.1q-2.83,3.32-5.72,6.53c-.75.85-1.52,1.69-2.29,2.51l-2.22,2.39q-3,3.19-5.93,6.24-2.76,2.83-5.53,5.59c-.91.91-1.84,1.82-2.76,2.71s-1.85,1.78-2.78,2.67l-2.28,2.11c-.68.65-1.36,1.28-2.05,1.91a448.64,448.64,0,0,1-61.76,47.47c-.86.55-1.73,1.1-2.58,1.6q-6.42,4.07-12.46,7.63l-2.41,1.4-2.36,1.36-2.34,1.35-2.22,1.28c-8.35,4.68-15.91,8.59-22.38,11.76l-1.61.8c-10.63,5.15-18.11,8.22-21,9.35l-.42.18-.61.23-.14.06h-.08l-.23-.1-.21,0-1.07-.42-.55-.23c-.87-.34-2-.8-3.36-1.38l-.47-.18c-1.76-.8-3.88-1.67-6.33-2.77l-1.39-.61a443.16,443.16,0,0,1-39.74-20.6c-.8-.45-1.61-.92-2.36-1.38a473.14,473.14,0,0,1-44.78-30l-2.62-2c-1-.75-2-1.52-2.95-2.29l-2.81-2.21c-6.19-4.92-12.43-10.15-18.64-15.69L558.08,566q-2.3-2.05-4.59-4.2l-1.67-1.57L550,558.54l-2-1.94c-1.12-1.07-2.24-2.16-3.34-3.26-.84-.8-1.69-1.67-2.52-2.51l-.24-.26q-1.25-1.25-2.5-2.51c-.66-.68-1.32-1.36-2-2l-2-2.07-.13-.15-2.1-2.24q-3.36-3.61-6.66-7.36c-.68-.8-1.36-1.55-2-2.35-.57-.65-1.12-1.28-1.66-1.94l-2-2.39q-4.26-5.11-8.39-10.48-1.13-1.45-2.24-2.92c-1.89-2.47-3.73-5-5.57-7.55l-1.68-2.39c-.13-.16-.24-.34-.36-.5-.59-.85-1.19-1.7-1.77-2.55-.95-1.38-1.89-2.77-2.82-4.17q-1.11-1.64-2.18-3.31l-.15-.24-2.22-3.47c-.07-.13-.15-.24-.22-.37-.71-1.14-1.41-2.27-2.1-3.4s-1.49-2.46-2.21-3.7-1.44-2.39-2.13-3.67q-4.6-8-8.77-16.47c-.35-.69-.69-1.38-1-2.08-.22-.44-.44-.89-.65-1.35-.43-.87-.8-1.75-1.25-2.63a27.17,27.17,0,0,1-1.15-2.47l-.23-.48c-.26-.58-.52-1.16-.8-1.75l-.26-.57c-.26-.58-.52-1.18-.8-1.77q-1.44-3.26-2.78-6.58c-.42-1-.8-2-1.23-3.07-.1-.26-.21-.53-.31-.8-.4-1-.8-2-1.16-3s-.68-1.82-1-2.74l-.23-.65c-.18-.45-.34-.91-.5-1.36q-1-2.69-1.89-5.44c-.21-.6-.4-1.21-.6-1.8-.26-.8-.51-1.54-.75-2.31-.14-.42-.26-.8-.39-1.22-.26-.8-.5-1.6-.75-2.39-.31-1-.61-2.06-.92-3.1-.18-.65-.39-1.28-.57-2-.37-1.28-.74-2.58-1.08-3.89-.19-.68-.37-1.35-.55-2-.13-.5-.26-1-.39-1.51-.32-1.22-.63-2.46-.92-3.7-.18-.7-.35-1.4-.52-2.11-.07-.29-.13-.57-.19-.85-.37-1.55-.71-3.11-1.07-4.69-.26-1.16-.5-2.33-.74-3.5-.14-.71-.29-1.43-.43-2.14s-.32-1.6-.47-2.45a2.13,2.13,0,0,0-.1-.47c-.15-.8-.3-1.64-.45-2.48s-.31-1.84-.47-2.77-.3-1.8-.45-2.71q-.87-5.52-1.56-11.17A314.73,314.73,0,0,1,447,328.58V122.76Z"
       transform="translate(-445.5 -121.26)"
       id="path55428" />
  </g>
  <g
     id="Layer_3"
     data-name="Layer 3">
    <path
       class="cls-2"
       d="M615.77,349.29c7.59-7.66,16.39-11.31,25.54-15.39-10.66-8.11-7.46-20.23-8.23-31a648.8,648.8,0,0,1-.72-70.07c.75-20.7,7-39.67,23.69-53.7.71-.6,1.49-1.1,2.7-2,1.56,4.92-.59,9.12-.69,13.39-.82,33.07.3,66.1,2.26,99.1.65,11,.62,22.07,3.42,32.85,1.16,4.48-2.61,6.47-6.48,10.41,9-1.67,16.33-2.53,23.61.85-.6-2.12-1.8-3.38-3.11-3.76-6.75-1.93-7.24-7.31-7.48-12.9-.88-20.59-2.66-41.12-3.48-61.72-1-25.66-2.17-51.29-1.86-77a51.66,51.66,0,0,1,4.69-22c2.33-4.88,11-11.07,15.33-10.26,6.45,1.21,10.59,5.31,12.3,11.79,3.13,11.91,2.18,24.07,2,36.13q-.8,51.14,2.62,102.16c.82,12.1-.39,23-5.18,33.86-1.13,2.56-1.82,4.42,2.42,4.86,7.11.75,14,2.63,19.5,8-1.12-5.24-2.65-10-8.35-11.71-1.39-.41-2.9-.45-2.64-2.31,2.33-17.22-1.63-34.21-1.8-51.33-.22-22.58.33-45.17-.39-67.73-.37-11.46-.38-22.94-1-34.4-.21-4.07.63-5.74,5.14-3.69,19.37,8.76,28.24,23.76,29.29,44.86,1.15,23.16.7,46.32,1.43,69.48.38,12.2-.36,24.51-.1,36.78a7.57,7.57,0,0,1-.62,2.78c-2.93,7.6-5.35,15.19-4.39,23.63.58,5.08-3.13,9.45-4,14.41a105.42,105.42,0,0,0,.25,40.17c-5.47-4.67-11-1.22-15.8.45-13.06,4.54-23.42,13.49-33,23.22-.61.62-1.32,1.51-.25,3.28,4.7-4.16,10.09-7.18,15.57-10,11.77-6.06,24.08-9.86,37.51-7.39,4.09.75,4.12-.9,3.14-3.91-4-12.29-6.79-24.94-3-37.57,2.27-7.6,4.87-14.33,2.39-22.68-1.81-6.08,2.24-12.38,3.9-18.53a110.61,110.61,0,0,1,13.49-31.22c6.25-9.73,14.56-17.38,26.43-19.43,9-1.56,14.16,4.86,11.39,13.64-1.75,5.56-3.39,11.24-5.95,16.44-7.34,14.91-10.24,30.72-11.83,47.12a371.23,371.23,0,0,0,3.07,97.19c1.32,8-3.08,15.47-5.52,23-5.2,16-16.31,28.06-27.88,39.62-4.9,4.9-11.36,3.21-17.18,2-14.77-3-27.78-9.77-39.38-19.32-1.15-.95-2.06-2.44-3.94-2.07,8.44,15.75,26.4,27.64,43.87,29,3.25.25,6.39,1.79,9.8.55,1.77-.64,1.64,1.12,1.76,2.16,1.13,9.49.65,19,.56,28.54,0,2.71-1.48,3.4-3.6,4.48-19,9.63-39.34,13.35-60.41,13.57-11.31.12-22.69.84-33.91-1.13-12.23-2.15-15.57-6.79-13.69-19,2.39-15.49-1.24-30.58-2.67-45.8a13.06,13.06,0,0,0-3.28-6.72C609.54,488.1,605,470.08,605,450c0-38.59-.95-77.18-1.2-115.78-.1-15.77-1.59-31.49,0-47.33,1.68-17.07,6.38-32.74,16.74-46.53a18.7,18.7,0,0,1,2.22-2.7c1.1-1,2.05-2.81,3.8-2.19,1.95.69,1.08,2.71,1.06,4.11-.29,14.21-.7,28.42-1,42.63a384.7,384.7,0,0,0,1.85,45.52c.52,5.5-3.37,7.95-6.35,11.15C619.51,341.62,615.71,343.54,615.77,349.29Z"
       transform="translate(-445.5 -121.26)"
       id="path55431" />
    <path
       class="cls-3"
       d="M636.13,403c11-14.63,32.05-22,47.39-16.69C666.55,388.54,650.55,393.47,636.13,403Z"
       transform="translate(-445.5 -121.26)"
       id="path55433" />
    <path
       class="cls-4"
       d="M646.49,418.84c6.28-8,12.19-10.92,16.89-8.46C656.77,411.51,652,415.77,646.49,418.84Z"
       transform="translate(-445.5 -121.26)"
       id="path55435" />
  </g>
  <path
     id="shine"
     d="M 1.5799979,0.70403393 V 207.08091 c 0,229.66454 239.9200021,319.6031 239.9200021,319.6031 0,0 239.92,-89.93856 239.92,-319.6031 V 0.70403393 Z"
     style="fill:url(#rg);stroke:#000000;stroke-width:2.41218" />
</svg>
