<?xml version="1.0" encoding="UTF-8" standalone="no"?>
<svg
   id="Layer_2"
   data-name="Layer 2"
   viewBox="0 0 483 527.48"
   version="1.1"
   sodipodi:docname="House Glover.svg"
   inkscape:version="1.2.1 (9c6d41e410, 2022-07-14)"
   xmlns:inkscape="http://www.inkscape.org/namespaces/inkscape"
   xmlns:sodipodi="http://sodipodi.sourceforge.net/DTD/sodipodi-0.dtd"
   xmlns="http://www.w3.org/2000/svg"
   xmlns:svg="http://www.w3.org/2000/svg">
  <sodipodi:namedview
     id="namedview847"
     pagecolor="#ffffff"
     bordercolor="#000000"
     borderopacity="0.25"
     inkscape:showpageshadow="2"
     inkscape:pageopacity="0.0"
     inkscape:pagecheckerboard="0"
     inkscape:deskcolor="#d1d1d1"
     showgrid="false"
     inkscape:zoom="0.79339504"
     inkscape:cx="100.83249"
     inkscape:cy="257.12286"
     inkscape:window-width="1920"
     inkscape:window-height="1017"
     inkscape:window-x="-8"
     inkscape:window-y="-8"
     inkscape:window-maximized="1"
     inkscape:current-layer="Layer_2" />
  <defs
     id="defs824">
    <style
       id="style822">.cls-1{fill:#90201d;stroke:#000;stroke-width:3px;}.cls-2{fill:#9bacb4;}.cls-3{fill:#9babb3;}</style>
    <radialGradient
       id="rg"
       gradientUnits="userSpaceOnUse"
       cx="220"
       cy="220"
       r="405"
       gradientTransform="matrix(0.80510068,0,0,0.80302287,-0.03016669,-0.89702586)">
      <stop
         style="stop-color:#ffffff;stop-opacity:.3"
         offset="0"
         id="stop753" />
      <stop
         style="stop-color:#ffffff;stop-opacity:.2"
         offset=".2"
         id="stop755" />
      <stop
         style="stop-color:#666666;stop-opacity:.1"
         offset=".6"
         id="stop757" />
      <stop
         style="stop-color:#000000;stop-opacity:.13"
         offset="1"
         id="stop759" />
    </radialGradient>
  </defs>
  <title
     id="title826">House Glover</title>
  <path
     class="cls-1"
     d="M927,122.76V328.6a314.37,314.37,0,0,1-2.28,38c-.11.93-.24,1.86-.36,2.79s-.24,1.86-.39,2.79q-.7,5.05-1.61,10c-.07.44-.15.87-.23,1.31-.15.8-.29,1.6-.45,2.39s-.34,1.8-.51,2.69l-.45,2.22-.24,1.16c-.15.71-.3,1.44-.47,2.15q-.8,3.55-1.61,7l-.58,2.32-.52,2q-1.52,5.88-3.27,11.61c-.29,1-.59,1.94-.9,2.92l-.6,1.88c-.19.63-.39,1.25-.6,1.86l-1.1,3.26c-.37,1.09-.68,2-1,3-.47,1.28-.92,2.55-1.39,3.81-.36,1-.73,2-1.11,3l-.19.49c-.43,1.14-.87,2.25-1.32,3.37s-.87,2.16-1.32,3.19a3.35,3.35,0,0,1-.18.42c-.4,1-.8,2-1.25,3s-.75,1.75-1.13,2.62l-.66,1.49c-.47,1.07-.95,2.12-1.44,3.15s-.9,2-1.36,2.93l-1,2.12c-.3.63-.6,1.25-.91,1.88-.63,1.32-1.31,2.64-2,4q-2.53,5-5.19,9.77l-2,3.57-.11.21q-2.13,3.71-4.33,7.33c-.71,1.2-1.46,2.39-2.18,3.54-.1.16-.19.31-.3.46-.55.89-1.12,1.78-1.69,2.66l-.66,1c-.65,1-1.31,2-2,3l-.13.18c-.66,1-1.32,2-2,3l-.45.67q-2.26,3.28-4.54,6.46l-.31.42c-.8,1.07-1.54,2.14-2.31,3.19s-1.66,2.23-2.5,3.32q-2.29,3-4.61,6l-.8,1c-.73.93-1.48,1.85-2.22,2.76L854,526.61l-.57.69L851,530.1q-2.83,3.32-5.72,6.53c-.75.85-1.52,1.69-2.29,2.51l-2.22,2.39q-3,3.19-5.93,6.24-2.76,2.83-5.53,5.59c-.91.91-1.84,1.82-2.76,2.71s-1.85,1.78-2.78,2.67l-2.28,2.11c-.68.65-1.36,1.28-2.05,1.91a448.64,448.64,0,0,1-61.76,47.47c-.86.55-1.73,1.1-2.58,1.6q-6.42,4.07-12.46,7.63l-2.41,1.4-2.36,1.36-2.34,1.35-2.22,1.28c-8.35,4.68-15.91,8.59-22.38,11.76l-1.61.8c-10.63,5.15-18.11,8.22-21,9.35l-.42.18-.61.23-.14.06h-.08l-.23-.1-.21,0-1.07-.42-.55-.23c-.87-.34-2-.8-3.36-1.38l-.47-.18c-1.76-.8-3.88-1.67-6.33-2.77l-1.39-.61a443.16,443.16,0,0,1-39.74-20.6c-.8-.45-1.61-.92-2.36-1.38a473.14,473.14,0,0,1-44.78-30l-2.62-2c-1-.75-2-1.52-2.95-2.29l-2.81-2.21c-6.19-4.92-12.43-10.15-18.64-15.69L558.08,566q-2.3-2.05-4.59-4.2l-1.67-1.57L550,558.54l-2-1.94c-1.12-1.07-2.24-2.16-3.34-3.26-.84-.8-1.69-1.67-2.52-2.51l-.24-.26q-1.25-1.25-2.5-2.51c-.66-.68-1.32-1.36-2-2l-2-2.07-.13-.15-2.1-2.24q-3.36-3.61-6.66-7.36c-.68-.8-1.36-1.55-2-2.35-.57-.65-1.12-1.28-1.66-1.94l-2-2.39q-4.26-5.11-8.39-10.48-1.13-1.45-2.24-2.92c-1.89-2.47-3.73-5-5.57-7.55l-1.68-2.39c-.13-.16-.24-.34-.36-.5-.59-.85-1.19-1.7-1.77-2.55-.95-1.38-1.89-2.77-2.82-4.17q-1.11-1.64-2.18-3.31l-.15-.24-2.22-3.47c-.07-.13-.15-.24-.22-.37-.71-1.14-1.41-2.27-2.1-3.4s-1.49-2.46-2.21-3.7-1.44-2.39-2.13-3.67q-4.6-8-8.77-16.47c-.35-.69-.69-1.38-1-2.08-.22-.44-.44-.89-.65-1.35-.43-.87-.8-1.75-1.25-2.63a27.17,27.17,0,0,1-1.15-2.47l-.23-.48c-.26-.58-.52-1.16-.8-1.75l-.26-.57c-.26-.58-.52-1.18-.8-1.77q-1.44-3.26-2.78-6.58c-.42-1-.8-2-1.23-3.07-.1-.26-.21-.53-.31-.8-.4-1-.8-2-1.16-3s-.68-1.82-1-2.74l-.23-.65c-.18-.45-.34-.91-.5-1.36q-1-2.69-1.89-5.44c-.21-.6-.4-1.21-.6-1.8-.26-.8-.51-1.54-.75-2.31-.14-.42-.26-.8-.39-1.22-.26-.8-.5-1.6-.75-2.39-.31-1-.61-2.06-.92-3.1-.18-.65-.39-1.28-.57-2-.37-1.28-.74-2.58-1.08-3.89-.19-.68-.37-1.35-.55-2-.13-.5-.26-1-.39-1.51-.32-1.22-.63-2.46-.92-3.7-.18-.7-.35-1.4-.52-2.11-.07-.29-.13-.57-.19-.85-.37-1.55-.71-3.11-1.07-4.69-.26-1.16-.5-2.33-.74-3.5-.14-.71-.29-1.43-.43-2.14s-.32-1.6-.47-2.45a2.13,2.13,0,0,0-.1-.47c-.15-.8-.3-1.64-.45-2.48s-.31-1.84-.47-2.77-.3-1.8-.45-2.71q-.87-5.52-1.56-11.17A314.73,314.73,0,0,1,447,328.58V122.76Z"
     transform="translate(-445.5 -121.26)"
     id="path828" />
  <path
     class="cls-2"
     d="M794.8,377.33a11.48,11.48,0,0,1-3.36,6.86c-10,9.85-13.95,22-15.58,35.71-1.53,12.89-7.34,17.72-19.53,17.51-17.59-.3-35.1-2-52.67-2.29-20.49-.32-40.41,3.92-60.24,8.42-12.29,2.79-24.66,1.89-37,1.37-5.61-.24-5.14-5.26-5.82-8.7-.84-4.29,3.16-3,5.37-3.48a115.15,115.15,0,0,0,24.46-8.82c1.56-.74,4-1.76,2.76-3.94-1-1.66-3-.27-4.51.33a95.67,95.67,0,0,1-25.14,6.36c-4.34.47-3.33-2.51-3.9-4.36-.94-3.09,1.63-2.77,3.35-2.71,8.25.25,15-3.31,21.32-8.09,1.13-.86,3-1.92,2.06-3.47-1.05-1.82-3-.9-4.39,0a40.21,40.21,0,0,1-21,6.1c-4.19,0-4.24-2.63-5-5.18-1-3.37,2-3,3.67-3.43,7.26-1.86,14.31-4,19-10.48,1.05-1.45,2.89-3.25,1.34-4.86-1.82-1.89-3.23.42-4.48,1.59-5,4.69-10.76,7.75-17.71,8.37-2.48.22-5.16.45-6.51-2-5-8.94-12.57-16-18-24.54a24.18,24.18,0,0,1-3.81-17c1.86-11.05.09-21.75-1.88-32.47a60.18,60.18,0,0,1-.62-13.28c.31-8.3,6.31-13,12.73-15.34,17.05-6.3,31.62-16.74,46.72-26.27,11.17-7.05,18.25-8.09,28.51-1s20.62,13.71,30.77,20.8c4.67,3.26,10.06,3.79,15.25,4.55,9,1.32,10.74,3.76,8.91,14a32.31,32.31,0,0,1-7.24,14.81c-5.46,6.5-11.88,9.73-20.68,9.69A72.62,72.62,0,0,1,644,321.75c-1.36-.81-2.65-1.6-4.08-.76s-1,2.31-.86,3.56a21.68,21.68,0,0,0,.79,4.34c1.51,5.14.86,9.87-2.51,14.12-1,1.31-2.62,2.72-.61,4.16s3-.74,3.86-1.93c2.47-3.22,5.13-6.46,5.12-10.83,0-2.76,1.45-3.19,3.56-2.5A85.38,85.38,0,0,0,671,335.85c2.62.16,3.34,1.67,4,3.74,3.36,10,4.45,20.13,1.42,30.5-.53,1.81-2.8,4.73.38,5.61,2.44.67,3.35-2.56,3.94-4.57,1.58-5.44,3.3-10.87,3-17.34,9.51,12.55,12.33,31.19,7.21,44.56a18.56,18.56,0,0,0-.9,2.61c-.4,1.8-1,4,1.27,4.78,2,.69,2.74-1.24,3.69-2.62,5.92-8.54,5.86-18.11,4.62-27.77-1.14-8.84-4.72-17-8.3-25,1.29-1.09,2-.2,2.46.43,6.85,8.48,14.08,16.72,16.79,27.74.44,1.81,1.26,4.57,3.78,4,2.31-.53,1.26-3.15,1.24-4.85-.06-8.05-4.82-14.22-8.72-20.64-3.43-5.64-7.39-11-11.08-16.38.74-1.56,2-1.17,3-1,11.14,2.51,22.31,3.26,33.47.33,2.33-.61,2.46.91,3,2.14,4.07,9,11.15,12.83,20.83,12.59,7-.17,14-.16,20.68-3.09,3.85-1.69,8.07.86,10.21,5.15,2.29,4.61,1.68,9.8,3.19,14.56.63,2,.83,4,3.24,4.71C794.62,375.8,795.16,376.1,794.8,377.33Z"
     transform="translate(-445.5 -121.26)"
     id="path830" />
  <path
     class="cls-2"
     d="M676.29,524.74c-19.77.79-39.54,1.77-59.31,2.29-13.33.35-18.27-5.51-16.82-18.76.69-6.25,1.42-12.5,1.69-18.78.19-4.54,2.63-6.15,6.59-6.39,6.46-.4,12.92-1,19.39-1,14,0,27.45-3.67,41.19-5.21,19.79-2.22,39.3-7.59,59.45-6.2,12.72.87,25.38,2.81,38.18,2.13a5.63,5.63,0,0,1,1.66,0c3.13.81,7.76-3,9.14.56,1.81,4.72,2.84,10.41-.59,15.44-2,2.9-3.76,5.95-5.79,8.81-2.43,3.41-4.08,7.07-4,11.31.12,4.65-2.34,7.09-6.52,8.42A37.58,37.58,0,0,1,748,519.29c-16.41-.53-32.25,3.83-48.43,5.26C691.76,525.25,684,524.71,676.29,524.74Z"
     transform="translate(-445.5 -121.26)"
     id="path832" />
  <path
     class="cls-2"
     d="M593.78,282.41c8.71-13.88,10.3-29.5,12.86-44.71,2.91-17.32,11.33-31.08,24.63-42a32.53,32.53,0,0,1,26.84-7.37c13,2.08,21.25,15.29,18.46,28.2-1.86,8.58-1.48,17.56-3.92,26.19-2.29,8.11-6.37,15.31-9.89,22.82-.77,1.64-1.73,1.75-3,.92-1.72-1.08-3.42-2.19-5.07-3.38-9.07-6.57-18.19-6.66-27.52-.46q-13.61,9-27.42,17.81C598.1,281.42,596.61,283.18,593.78,282.41Z"
     transform="translate(-445.5 -121.26)"
     id="path834" />
  <path
     class="cls-2"
     d="M718.91,337.12c-3.44-.09-7,.3-10.42-.77-5.74-1.78-7.05-5.16-3.42-10,4.36-5.78,9-11.31,9.94-18.89.74-6.25.55-12.24-5.62-16-2.32-1.41-.54-2.76.05-3.63,10.52-15.55,16.12-33.11,21.08-51,1.81-6.53,7.69-8.73,13.19-9.54,9.57-1.4,19.3-.78,25.24,8.61,6.15,9.74,7.54,20.09.93,30.29C761,280,752.79,294,749.07,310.15c-1,4.35-3.64,8.07-6.55,11.49-1.44,1.69-3.4,3.24-4.09,5.21C735.1,336.48,727.81,338.2,718.91,337.12Z"
     transform="translate(-445.5 -121.26)"
     id="path836" />
  <path
     class="cls-2"
     d="M808.06,283.26c.68,18.85-4.94,35.53-16.42,50.55C781,347.69,766,353.64,749.13,349.46c-5.2-1.29-9.15-4.46-10-10-.82-5.32,2.69-8.95,6.2-12.35,2.08-2,3.47,0,4.68,1.07,3.44,3.07,7.47,2.74,11.54,2.43.93-.07,1.92-.34,2.12-1.42.26-1.38-.66-1.9-1.85-2.22a23.59,23.59,0,0,1-4.73-1.56c-3.82-2-5.42-4.93-4.51-9.5,2.66-13.39,7.16-25.92,15.38-37,4.66-6.28,7.34-13.64,10.78-20.58,2.89-5.83,5.67-7.05,12-5,9.94,3.27,16.8,13.3,17.34,25.41C808.12,280.3,808.06,281.78,808.06,283.26Z"
     transform="translate(-445.5 -121.26)"
     id="path838" />
  <path
     class="cls-2"
     d="M763.2,466c-14.2-.78-28.31-2.61-42.62-2.23-18.6.49-36.61,4.8-54.86,7.49-18.65,2.75-37.26,5.69-56.23,4.83-6.33-.29-7.67-1.44-6.66-7.59a35,35,0,0,0,.5-11c-.86-5.58,2.37-7.05,6.79-6.53,8.89,1.06,17.71.21,26.56-.24a62.29,62.29,0,0,0,14.19-2.26,168.22,168.22,0,0,1,68-5.17c14.05,1.73,28.46.71,42.71.62,4.22,0,6.57,1.07,7.19,5.52a26.19,26.19,0,0,0,3.82,9.75c2.68,4.46,1.83,6.19-3.3,6.8A51.37,51.37,0,0,1,763.2,466Z"
     transform="translate(-445.5 -121.26)"
     id="path840" />
  <path
     class="cls-2"
     d="M726,231.68c.32,3.87-1.14,8.05-2.58,12.26-5.18,15-12.29,29.21-19.33,43.42-1.11,2.24-2.46,2.4-4.39,2.07a31.43,31.43,0,0,1-11.33-4.29c-6.58-4.1-13.07-8.36-19.7-12.38-2.42-1.47-2.86-2.8-1.25-5.23,9.51-14.45,12.68-30.79,14-47.68.33-4.26,2.25-7.94,6.26-9.8,11.32-5.23,31.22-2.13,36.76,11.82C725.81,225.38,726.18,226.13,726,231.68Z"
     transform="translate(-445.5 -121.26)"
     id="path842" />
  <path
     class="cls-3"
     d="M794.8,377.33l-1.29-1.26c2.3-9.86.5-18.95-5.83-26.79-1.86-2.3-2.66-3.3,0-5.4,5.19-4.16,8.67-9.89,13.9-15,0,3,.39,6.06-.07,9C799.39,351,799.71,364.63,794.8,377.33Z"
     transform="translate(-445.5 -121.26)"
     id="path844" />
  <path
     id="shine"
     d="M 1.5800345,0.70901914 V 207.0859 c 0,229.66454 239.9199955,319.6031 239.9199955,319.6031 0,0 239.92,-89.93856 239.92,-319.6031 V 0.70901914 Z"
     style="fill:url(#rg);stroke:#000000;stroke-width:2.41218" />
</svg>
