<?xml version="1.0" encoding="UTF-8" standalone="no"?>
<svg
   viewBox="0 0 483 527.48"
   version="1.1"
   id="svg3094"
   sodipodi:docname="House Haigh.svg"
   inkscape:version="1.2.1 (9c6d41e410, 2022-07-14)"
   xmlns:inkscape="http://www.inkscape.org/namespaces/inkscape"
   xmlns:sodipodi="http://sodipodi.sourceforge.net/DTD/sodipodi-0.dtd"
   xmlns="http://www.w3.org/2000/svg"
   xmlns:svg="http://www.w3.org/2000/svg">
  <sodipodi:namedview
     id="namedview3096"
     pagecolor="#ffffff"
     bordercolor="#000000"
     borderopacity="0.25"
     inkscape:showpageshadow="2"
     inkscape:pageopacity="0.0"
     inkscape:pagecheckerboard="0"
     inkscape:deskcolor="#d1d1d1"
     showgrid="false"
     inkscape:zoom="1.12203"
     inkscape:cx="164.87972"
     inkscape:cy="278.06742"
     inkscape:window-width="1920"
     inkscape:window-height="1017"
     inkscape:window-x="-8"
     inkscape:window-y="-8"
     inkscape:window-maximized="1"
     inkscape:current-layer="svg3094" />
  <defs
     id="defs3078">
    <style
       id="style3076">.cls-1{fill:#804333;}.cls-2{fill:#ffd547;stroke-miterlimit:10;}.cls-2,.cls-3{stroke:#000;stroke-width:3px;}.cls-3{fill:none;}</style>
    <radialGradient
       id="rg"
       gradientUnits="userSpaceOnUse"
       cx="220"
       cy="220"
       r="405"
       gradientTransform="matrix(0.80510068,0,0,0.80302287,-0.0302035,-0.9270156)">
      <stop
         style="stop-color:#ffffff;stop-opacity:.3"
         offset="0"
         id="stop753" />
      <stop
         style="stop-color:#ffffff;stop-opacity:.2"
         offset=".2"
         id="stop755" />
      <stop
         style="stop-color:#666666;stop-opacity:.1"
         offset=".6"
         id="stop757" />
      <stop
         style="stop-color:#000000;stop-opacity:.13"
         offset="1"
         id="stop759" />
    </radialGradient>
  </defs>
  <title
     id="title3080">House Haigh</title>
  <g
     id="Layer_2"
     data-name="Layer 2">
    <path
       class="cls-1"
       d="M927,122.76V328.6a313.88,313.88,0,0,1-2.28,38c-.11.93-.24,1.86-.36,2.79,0,.2,0,.4-.08.59-.09.74-.19,1.47-.31,2.2-.46,3.37-1,6.69-1.6,10-.07.44-.15.87-.23,1.31-.16.8-.29,1.6-.45,2.4s-.34,1.79-.51,2.69l-.45,2.22-.24,1.15c-.15.71-.3,1.44-.46,2.15-.54,2.37-1.07,4.71-1.61,7l-.58,2.32-.52,2q-1.53,5.88-3.27,11.61c-.29,1-.59,1.94-.9,2.92l-.6,1.88c-.2.63-.4,1.24-.61,1.86-.37,1.09-.73,2.17-1.1,3.25s-.68,2-1,3c-.47,1.28-.93,2.56-1.39,3.81-.36,1-.73,2-1.11,3l-.19.5c-.43,1.14-.87,2.25-1.32,3.36s-.87,2.17-1.31,3.2c0,.15-.12.28-.18.42-.4,1-.8,2-1.25,3s-.76,1.75-1.13,2.62l-.66,1.49c-.48,1.07-1,2.11-1.44,3.15s-.9,2-1.36,2.93l-1,2.12c-.29.63-.6,1.25-.91,1.87-.63,1.33-1.31,2.64-2,4q-2.52,5-5.19,9.77l-2,3.57-.12.21c-1.4,2.44-2.82,4.86-4.28,7.24a.41.41,0,0,1,0,.09c-.71,1.2-1.46,2.4-2.18,3.54-.11.16-.2.32-.3.47s-.31.5-.47.74c-.4.64-.81,1.28-1.22,1.92l-.65,1c-.65,1-1.31,2-2,3l-.13.18c-.65,1-1.31,2-2,3l-.45.67q-2.25,3.29-4.54,6.46l-.31.43c-.8,1.07-1.54,2.14-2.31,3.19s-1.66,2.23-2.5,3.32c-1.52,2-3.06,4-4.61,6l-.81,1q-1.09,1.39-2.22,2.76L854,526.61l-.57.69c-.4.47-.79.93-1.2,1.39a4.16,4.16,0,0,1-.27.32c-.31.37-.62.73-.94,1.09-1.23,1.44-2.46,2.87-3.73,4.29-.65.75-1.32,1.5-2,2.24s-1.52,1.69-2.29,2.51-1.47,1.6-2.22,2.4q-3,3.2-5.93,6.24-2.76,2.82-5.53,5.59l-.83.82c-.64.64-1.29,1.27-1.93,1.89-.92.89-1.85,1.78-2.79,2.66l-2.28,2.12c-.68.65-1.36,1.28-2,1.91q-14.52,13.32-30.16,25.31c-1,.77-2,1.52-3,2.28q-9.86,7.43-20.1,14.31-1.56,1.05-3.12,2.07c-1,.65-2,1.29-3,1.92a0,0,0,0,1,0,0l-.18.12h0l-2.24,1.45c-.86.55-1.72,1.1-2.57,1.6l-1.74,1.09c-3.67,2.31-7.25,4.48-10.73,6.54l-2.41,1.4-2.36,1.37-2.33,1.34-2.23,1.29c-8.34,4.68-15.9,8.59-22.38,11.76l-1.6.8c-10.64,5.15-18.12,8.22-21,9.35l-.42.17-.61.24-.14,0h-.08l-.23-.09-.21,0-1.07-.42-.54-.23c-.87-.34-2-.8-3.37-1.38l-.46-.18c-1.76-.8-3.89-1.67-6.33-2.77l-1.39-.61a442.25,442.25,0,0,1-39.75-20.6c-.8-.44-1.6-.92-2.35-1.38q-7.23-4.26-14.29-8.78-5.26-3.36-10.42-6.85c-.75-.51-1.49-1-2.23-1.53-.57-.38-1.13-.76-1.69-1.16q-8.21-5.66-16.15-11.66l-2.63-2-.61-.47c-.77-.6-1.55-1.2-2.33-1.82l-2.37-1.86-.44-.35c-1.17-.93-2.33-1.86-3.5-2.82q-7.56-6.12-15.14-12.87L558.08,566q-2.31-2.05-4.59-4.2l-1.67-1.57L550,558.54l-2-1.94c-1.12-1.07-2.23-2.17-3.33-3.27-.85-.79-1.69-1.66-2.52-2.5l-.24-.26c-.84-.83-1.67-1.67-2.5-2.51l-.34-.36c-.55-.56-1.09-1.12-1.63-1.69l-1-1.06-1-1-.13-.15-2.1-2.25c-1.12-1.2-2.24-2.41-3.34-3.64h0c-1.11-1.23-2.21-2.46-3.31-3.71l-1.31-1.5-.74-.84c-.57-.65-1.12-1.29-1.66-1.94q-1-1.2-2-2.4-4.28-5.1-8.39-10.48c-.76-1-1.5-1.93-2.24-2.92-1.89-2.47-3.73-5-5.57-7.55-.55-.8-1.12-1.59-1.68-2.39-.13-.16-.24-.34-.36-.5-.59-.86-1.19-1.7-1.77-2.56l-1.54-2.28a1,1,0,0,1-.12-.17c-.39-.57-.77-1.14-1.15-1.72-.74-1.09-1.47-2.2-2.19-3.31a1,1,0,0,0-.15-.24l-2.22-3.48-.22-.36-.88-1.43-1.22-2-.32-.53c-.17-.27-.34-.56-.51-.85-.46-.76-.94-1.56-1.38-2.33l-.64-1.1c-.5-.84-1-1.67-1.49-2.57q-3.69-6.41-7.1-13.14c-.57-1.1-1.12-2.21-1.67-3.32-.35-.69-.69-1.38-1-2.09-.22-.44-.44-.88-.65-1.35-.43-.87-.8-1.74-1.25-2.63a25.91,25.91,0,0,1-1.15-2.47l-.23-.48c-.27-.58-.53-1.16-.81-1.75l-.26-.57c-.27-.59-.52-1.19-.8-1.78q-1.44-3.25-2.79-6.57c-.42-1-.8-2-1.23-3.08-.1-.25-.21-.52-.31-.79-.4-1-.8-2-1.16-3s-.69-1.82-1-2.74l-.24-.65c-.17-.44-.33-.91-.49-1.35q-1-2.7-1.9-5.44c-.21-.6-.4-1.2-.6-1.8-.26-.8-.51-1.54-.75-2.32-.14-.41-.27-.8-.4-1.22-.25-.8-.49-1.59-.75-2.39-.31-1-.61-2.06-.92-3.11-.19-.64-.39-1.28-.57-1.95-.37-1.29-.74-2.58-1.09-3.89-.19-.68-.37-1.35-.55-2-.13-.5-.27-1-.4-1.51-.32-1.22-.62-2.45-.92-3.7-.18-.7-.34-1.4-.52-2.11-.07-.28-.13-.56-.19-.85-.37-1.55-.72-3.11-1.07-4.69-.26-1.16-.5-2.33-.74-3.5-.13-.71-.29-1.43-.42-2.14s-.32-1.59-.48-2.45a1.86,1.86,0,0,0-.09-.47c-.16-.8-.3-1.64-.45-2.48s-.32-1.84-.48-2.77-.29-1.8-.45-2.71q-.57-3.7-1.07-7.47c-.17-1.23-.33-2.47-.48-3.71A312.7,312.7,0,0,1,447,328.58V122.76Z"
       transform="translate(-445.5 -121.26)"
       id="path3082" />
  </g>
  <g
     id="Layer_4"
     data-name="Layer 4">
    <path
       class="cls-2"
       d="M927,122.76V228L574.73,580.25q-7.56-6.12-15.14-12.87L558.08,566q-2.31-2.05-4.59-4.2l-1.67-1.57L550,558.54l-2-1.94c-1.12-1.07-2.23-2.17-3.33-3.27-.85-.79-1.69-1.66-2.52-2.5l-.24-.26c-.84-.83-1.67-1.67-2.5-2.51l-.34-.36c-.55-.56-1.09-1.12-1.63-1.69l-1-1.06-1-1-.13-.15-2.1-2.25c-1.12-1.2-2.24-2.41-3.34-3.64h0c-1.11-1.23-2.21-2.46-3.31-3.71l-1.31-1.5-.74-.84c-.57-.65-1.12-1.29-1.66-1.94q-1-1.2-2-2.4-4.28-5.1-8.39-10.48c-.76-1-1.5-1.93-2.24-2.92-1.89-2.47-3.73-5-5.57-7.55-.55-.8-1.12-1.59-1.68-2.39-.13-.16-.24-.34-.36-.5-.59-.86-1.19-1.7-1.77-2.56l-1.54-2.28a1,1,0,0,1-.12-.17c-.39-.57-.77-1.14-1.15-1.72-.74-1.09-1.47-2.2-2.19-3.31a1,1,0,0,0-.15-.24l-2.22-3.48-.22-.36-.88-1.43-1.22-2-.32-.53c-.17-.27-.34-.56-.51-.85-.46-.76-.94-1.56-1.38-2.33l-.64-1.1c-.5-.84-1-1.67-1.49-2.57q-3.69-6.41-7.1-13.14L822.5,122.76Z"
       transform="translate(-445.5 -121.26)"
       id="path3085" />
  </g>
  <g
     id="Layer_5"
     data-name="Layer 5">
    <path
       d="M891.74,180.18c1.82,6.58-2.07,10.33-4.61,13.55-11.12,14.09-22.51,28-34.47,41.37-13,14.51-26.65,28.43-40.2,42.43a16.6,16.6,0,0,1-7.4,4.29c-5.18,1.35-8.71-1.35-11.31-5.81-3.13-5.37-7.26-5.05-11.15-1.09C770,287.76,756.73,300,743.95,312.75c-9.21,9.17-17.87,18.9-27.1,28.06-20.73,20.59-41.7,40.94-62.49,61.47Q603.47,452.5,552.69,502.85c-3.18,3.15-6.18,6.43-10.68,1.95-3.28-3.27-2.94-8,1.23-12.17,11.13-11.27,22.36-22.45,33.56-33.65q45.86-45.87,91.76-91.72,38.62-38.38,77.61-76.4c10.07-9.77,20.89-18.77,31.35-28.14,2.72-2.44,4.13-4.12.48-7.89-3.5-3.61-5.82-9-6.92-14-.49-2.21,2.95-5.7,5.2-8,8.41-8.72,17.21-17.06,25.59-25.81,7-7.33,13.69-15,20.44-22.58,8.43-9.47,16.71-19.08,25.23-28.47,2.37-2.61,5.37-4.65,8.09-6.95l2.09,1.57c-2.59,4.53-4.54,9.6-7.87,13.51-15.48,18.15-31.27,36-47.12,53.88-6.46,7.27-13.52,14-19.9,21.34-1.26,1.45-.67,4.51-.94,6.82a55.24,55.24,0,0,0,6.35-1.55,9.45,9.45,0,0,0,3-2.33c21.85-21.45,43-43.53,61.68-67.89a140.58,140.58,0,0,1,11.87-13.09c1.43-1.44,3.63-2.12,6.68-2.3-.44,1.34-.57,2.92-1.37,4-6.6,8.62-13.12,17.31-20.06,25.64Q834,207.91,817.3,226.83c-7.38,8.33-15.28,16.21-23,24.25-2.19,2.29-5,4.06-1.34,7.66,3.35,3.32,5.7.52,7.37-1.15,9.85-9.85,19.66-19.77,29-30.13,11.25-12.52,22-25.52,32.94-38.27,5.37-6.23,10.8-12.42,16.37-18.46.87-.95,2.67-1,4-1.54-.15,1.6.29,3.66-.55,4.73-7.92,10.2-15.67,20.57-24.22,30.23-16,18-32.51,35.64-48.77,53.45-2,2.17-4.34,4.26-5.5,6.85-.85,1.9,0,4.54.05,6.85,2.07-.23,5,.35,6.1-.81,17.16-18.23,34.29-36.49,51-55.15,8.7-9.72,16.48-20.27,24.82-30.33C886.93,183.37,889,182.29,891.74,180.18Z"
       transform="translate(-445.5 -121.26)"
       id="path3088" />
  </g>
  <g
     id="Layer_3"
     data-name="Layer 3">
    <path
       class="cls-3"
       d="M927,122.76V328.6a313.88,313.88,0,0,1-2.28,38c-.11.93-.24,1.86-.36,2.79,0,.2,0,.4-.08.59-.09.74-.19,1.47-.31,2.2-.46,3.37-1,6.69-1.6,10-.07.44-.15.87-.23,1.31-.16.8-.29,1.6-.45,2.4s-.34,1.79-.51,2.69l-.45,2.22-.24,1.15c-.15.71-.3,1.44-.46,2.15-.54,2.37-1.07,4.71-1.61,7l-.58,2.32-.52,2q-1.53,5.88-3.27,11.61c-.29,1-.59,1.94-.9,2.92l-.6,1.88c-.2.63-.4,1.24-.61,1.86-.37,1.09-.73,2.17-1.1,3.25s-.68,2-1,3c-.47,1.28-.93,2.56-1.39,3.81-.36,1-.73,2-1.11,3l-.19.5c-.43,1.14-.87,2.25-1.32,3.36s-.87,2.17-1.31,3.2c0,.15-.12.28-.18.42-.4,1-.8,2-1.25,3s-.76,1.75-1.13,2.62l-.66,1.49c-.48,1.07-1,2.11-1.44,3.15s-.9,2-1.36,2.93l-1,2.12c-.29.63-.6,1.25-.91,1.87-.63,1.33-1.31,2.64-2,4q-2.52,5-5.19,9.77l-2,3.57-.12.21c-1.4,2.44-2.82,4.86-4.28,7.24a.41.41,0,0,1,0,.09c-.71,1.2-1.46,2.4-2.18,3.54-.11.16-.2.32-.3.47s-.31.5-.47.74c-.4.64-.81,1.28-1.22,1.92l-.65,1c-.65,1-1.31,2-2,3l-.13.18c-.65,1-1.31,2-2,3l-.45.67q-2.25,3.29-4.54,6.46l-.31.43c-.8,1.07-1.54,2.14-2.31,3.19s-1.66,2.23-2.5,3.32c-1.52,2-3.06,4-4.61,6l-.81,1q-1.09,1.39-2.22,2.76L854,526.61l-.57.69c-.4.47-.79.93-1.2,1.39a4.16,4.16,0,0,1-.27.32c-.31.37-.62.73-.94,1.09-1.23,1.44-2.46,2.87-3.73,4.29-.65.75-1.32,1.5-2,2.24s-1.52,1.69-2.29,2.51-1.47,1.6-2.22,2.4q-3,3.2-5.93,6.24-2.76,2.82-5.53,5.59l-.83.82c-.64.64-1.29,1.27-1.93,1.89-.92.89-1.85,1.78-2.79,2.66l-2.28,2.12c-.68.65-1.36,1.28-2,1.91q-14.52,13.32-30.16,25.31c-1,.77-2,1.52-3,2.28q-9.86,7.43-20.1,14.31-1.56,1.05-3.12,2.07c-1,.65-2,1.29-3,1.92a0,0,0,0,1,0,0l-.18.12h0l-2.24,1.45c-.86.55-1.72,1.1-2.57,1.6l-1.74,1.09c-3.67,2.31-7.25,4.48-10.73,6.54l-2.41,1.4-2.36,1.37-2.33,1.34-2.23,1.29c-8.34,4.68-15.9,8.59-22.38,11.76l-1.6.8c-10.64,5.15-18.12,8.22-21,9.35l-.42.17-.61.24-.14,0h-.08l-.23-.09-.21,0-1.07-.42-.54-.23c-.87-.34-2-.8-3.37-1.38l-.46-.18c-1.76-.8-3.89-1.67-6.33-2.77l-1.39-.61a442.25,442.25,0,0,1-39.75-20.6c-.8-.44-1.6-.92-2.35-1.38q-7.23-4.26-14.29-8.78-5.26-3.36-10.42-6.85c-.75-.51-1.49-1-2.23-1.53-.57-.38-1.13-.76-1.69-1.16q-8.21-5.66-16.15-11.66l-2.63-2-.61-.47c-.77-.6-1.55-1.2-2.33-1.82l-2.37-1.86-.44-.35c-1.17-.93-2.33-1.86-3.5-2.82q-7.56-6.12-15.14-12.87L558.08,566q-2.31-2.05-4.59-4.2l-1.67-1.57L550,558.54l-2-1.94c-1.12-1.07-2.23-2.17-3.33-3.27-.85-.79-1.69-1.66-2.52-2.5l-.24-.26c-.84-.83-1.67-1.67-2.5-2.51l-.34-.36c-.55-.56-1.09-1.12-1.63-1.69l-1-1.06-1-1-.13-.15-2.1-2.25c-1.12-1.2-2.24-2.41-3.34-3.64h0c-1.11-1.23-2.21-2.46-3.31-3.71l-1.31-1.5-.74-.84c-.57-.65-1.12-1.29-1.66-1.94q-1-1.2-2-2.4-4.28-5.1-8.39-10.48c-.76-1-1.5-1.93-2.24-2.92-1.89-2.47-3.73-5-5.57-7.55-.55-.8-1.12-1.59-1.68-2.39-.13-.16-.24-.34-.36-.5-.59-.86-1.19-1.7-1.77-2.56l-1.54-2.28a1,1,0,0,1-.12-.17c-.39-.57-.77-1.14-1.15-1.72-.74-1.09-1.47-2.2-2.19-3.31a1,1,0,0,0-.15-.24l-2.22-3.48-.22-.36-.88-1.43-1.22-2-.32-.53c-.17-.27-.34-.56-.51-.85-.46-.76-.94-1.56-1.38-2.33l-.64-1.1c-.5-.84-1-1.67-1.49-2.57q-3.69-6.41-7.1-13.14c-.57-1.1-1.12-2.21-1.67-3.32-.35-.69-.69-1.38-1-2.09-.22-.44-.44-.88-.65-1.35-.43-.87-.8-1.74-1.25-2.63a25.91,25.91,0,0,1-1.15-2.47l-.23-.48c-.27-.58-.53-1.16-.81-1.75l-.26-.57c-.27-.59-.52-1.19-.8-1.78q-1.44-3.25-2.79-6.57c-.42-1-.8-2-1.23-3.08-.1-.25-.21-.52-.31-.79-.4-1-.8-2-1.16-3s-.69-1.82-1-2.74l-.24-.65c-.17-.44-.33-.91-.49-1.35q-1-2.7-1.9-5.44c-.21-.6-.4-1.2-.6-1.8-.26-.8-.51-1.54-.75-2.32-.14-.41-.27-.8-.4-1.22-.25-.8-.49-1.59-.75-2.39-.31-1-.61-2.06-.92-3.11-.19-.64-.39-1.28-.57-1.95-.37-1.29-.74-2.58-1.09-3.89-.19-.68-.37-1.35-.55-2-.13-.5-.27-1-.4-1.51-.32-1.22-.62-2.45-.92-3.7-.18-.7-.34-1.4-.52-2.11-.07-.28-.13-.56-.19-.85-.37-1.55-.72-3.11-1.07-4.69-.26-1.16-.5-2.33-.74-3.5-.13-.71-.29-1.43-.42-2.14s-.32-1.59-.48-2.45a1.86,1.86,0,0,0-.09-.47c-.16-.8-.3-1.64-.45-2.48s-.32-1.84-.48-2.77-.29-1.8-.45-2.71q-.57-3.7-1.07-7.47c-.17-1.23-.33-2.47-.48-3.71A312.7,312.7,0,0,1,447,328.58V122.76Z"
       transform="translate(-445.5 -121.26)"
       id="path3091" />
  </g>
  <path
     id="shine"
     d="M 1.5799975,0.6790294 V 207.05591 c 0,229.66454 239.9200025,319.6031 239.9200025,319.6031 0,0 239.92,-89.93856 239.92,-319.6031 V 0.6790294 Z"
     style="fill:url(#rg);stroke:#000000;stroke-width:2.41218" />
</svg>
