<?xml version="1.0" encoding="UTF-8" standalone="no"?>
<svg
   viewBox="0 0 483 527.48"
   version="1.1"
   id="svg4260"
   sodipodi:docname="House Harlaw.svg"
   inkscape:version="1.2.1 (9c6d41e410, 2022-07-14)"
   xmlns:inkscape="http://www.inkscape.org/namespaces/inkscape"
   xmlns:sodipodi="http://sodipodi.sourceforge.net/DTD/sodipodi-0.dtd"
   xmlns="http://www.w3.org/2000/svg"
   xmlns:svg="http://www.w3.org/2000/svg">
  <sodipodi:namedview
     id="namedview4262"
     pagecolor="#ffffff"
     bordercolor="#000000"
     borderopacity="0.25"
     inkscape:showpageshadow="2"
     inkscape:pageopacity="0.0"
     inkscape:pagecheckerboard="0"
     inkscape:deskcolor="#d1d1d1"
     showgrid="false"
     inkscape:zoom="1.12203"
     inkscape:cx="170.22717"
     inkscape:cy="277.17618"
     inkscape:window-width="1920"
     inkscape:window-height="1017"
     inkscape:window-x="-8"
     inkscape:window-y="-8"
     inkscape:window-maximized="1"
     inkscape:current-layer="svg4260" />
  <defs
     id="defs4229">
    <style
       id="style4227">.cls-1{fill:#0d0d0d;}.cls-2{fill:#d6d6d6;}.cls-3{fill:#d5d5d5;}.cls-4{fill:#282828;}.cls-5{fill:none;stroke:#000;stroke-width:3px;}</style>
    <radialGradient
       id="rg"
       gradientUnits="userSpaceOnUse"
       cx="220"
       cy="220"
       r="405"
       gradientTransform="matrix(0.80510068,0,0,0.80302287,-0.03015779,-0.89702586)">
      <stop
         style="stop-color:#ffffff;stop-opacity:.3"
         offset="0"
         id="stop753" />
      <stop
         style="stop-color:#ffffff;stop-opacity:.2"
         offset=".2"
         id="stop755" />
      <stop
         style="stop-color:#666666;stop-opacity:.1"
         offset=".6"
         id="stop757" />
      <stop
         style="stop-color:#000000;stop-opacity:.13"
         offset="1"
         id="stop759" />
    </radialGradient>
  </defs>
  <title
     id="title4231">House Harlaw</title>
  <g
     id="Layer_2"
     data-name="Layer 2">
    <path
       class="cls-1"
       d="M927,122.76V328.6a313.88,313.88,0,0,1-2.28,38c-.11.93-.24,1.86-.36,2.79,0,.2,0,.4-.08.59-.09.74-.19,1.47-.31,2.2-.46,3.37-1,6.69-1.6,10-.07.44-.15.87-.23,1.31-.16.8-.29,1.6-.45,2.4s-.34,1.79-.51,2.69l-.45,2.22-.24,1.15c-.15.71-.3,1.44-.46,2.15-.54,2.37-1.07,4.71-1.61,7l-.58,2.32-.52,2q-1.53,5.88-3.27,11.61c-.29,1-.59,1.94-.9,2.92l-.6,1.88c-.2.63-.4,1.24-.61,1.86-.37,1.09-.73,2.17-1.1,3.25s-.68,2-1,3c-.47,1.28-.93,2.56-1.39,3.81-.36,1-.73,2-1.11,3l-.19.5c-.43,1.14-.87,2.25-1.32,3.36s-.87,2.17-1.31,3.2c0,.15-.12.28-.18.42-.4,1-.8,2-1.25,3s-.76,1.75-1.13,2.62l-.66,1.49c-.48,1.07-1,2.11-1.44,3.15s-.9,2-1.36,2.93l-1,2.12c-.29.63-.6,1.25-.91,1.87-.63,1.33-1.31,2.64-2,4q-2.52,5-5.19,9.77l-2,3.57-.12.21c-1.4,2.44-2.82,4.86-4.28,7.24a.41.41,0,0,1,0,.09c-.71,1.2-1.46,2.4-2.18,3.54-.11.16-.2.32-.3.47s-.31.5-.47.74c-.4.64-.81,1.28-1.22,1.92l-.65,1c-.65,1-1.31,2-2,3l-.13.18c-.65,1-1.31,2-2,3l-.45.67q-2.25,3.29-4.54,6.46l-.31.43c-.8,1.07-1.54,2.14-2.31,3.19s-1.66,2.23-2.5,3.32c-1.52,2-3.06,4-4.61,6l-.81,1q-1.09,1.39-2.22,2.76L854,526.61l-.57.69c-.4.47-.79.93-1.2,1.39a4.16,4.16,0,0,1-.27.32c-.31.37-.62.73-.94,1.09-1.23,1.44-2.46,2.87-3.73,4.29-.65.75-1.32,1.5-2,2.24s-1.52,1.69-2.29,2.51-1.47,1.6-2.22,2.4q-3,3.2-5.93,6.24-2.76,2.82-5.53,5.59l-.83.82c-.64.64-1.29,1.27-1.93,1.89-.92.89-1.85,1.78-2.79,2.66l-2.28,2.12c-.68.65-1.36,1.28-2,1.91q-14.52,13.32-30.16,25.31c-1,.77-2,1.52-3,2.28q-9.86,7.43-20.1,14.31-1.56,1.05-3.12,2.07c-1,.65-2,1.29-3,1.92a0,0,0,0,1,0,0l-.18.12h0l-2.24,1.45c-.86.55-1.72,1.1-2.57,1.6l-1.74,1.09c-3.67,2.31-7.25,4.48-10.73,6.54l-2.41,1.4-2.36,1.37-2.33,1.34-2.23,1.29c-8.34,4.68-15.9,8.59-22.38,11.76l-1.6.8c-10.64,5.15-18.12,8.22-21,9.35l-.42.17-.61.24-.14,0h-.08l-.23-.09-.21,0-1.07-.42-.54-.23c-.87-.34-2-.8-3.37-1.38l-.46-.18c-1.76-.8-3.89-1.67-6.33-2.77l-1.39-.61a442.25,442.25,0,0,1-39.75-20.6c-.8-.44-1.6-.92-2.35-1.38q-7.23-4.26-14.29-8.78-5.26-3.36-10.42-6.85c-.75-.51-1.49-1-2.23-1.53-.57-.38-1.13-.76-1.69-1.16q-8.21-5.66-16.15-11.66l-2.63-2-.61-.47c-.77-.6-1.55-1.2-2.33-1.82l-2.37-1.86-.44-.35c-6.19-4.92-12.43-10.15-18.64-15.69L558.08,566q-2.31-2.05-4.59-4.2l-1.67-1.57L550,558.54l-2-1.94c-1.12-1.07-2.23-2.17-3.33-3.27-.85-.79-1.69-1.66-2.52-2.5l-.24-.26c-.84-.83-1.67-1.67-2.5-2.51l-.34-.36c-.55-.56-1.09-1.12-1.63-1.69l-1-1.06-1-1-.13-.15-2.1-2.25c-1.12-1.2-2.24-2.41-3.34-3.64h0c-1.11-1.23-2.21-2.46-3.31-3.71l-1.31-1.5-.74-.84c-.57-.65-1.12-1.29-1.66-1.94q-1-1.2-2-2.4-4.28-5.1-8.39-10.48c-.76-1-1.5-1.93-2.24-2.92-1.89-2.47-3.73-5-5.57-7.55-.55-.8-1.12-1.59-1.68-2.39-.13-.16-.24-.34-.36-.5-.59-.86-1.19-1.7-1.77-2.56l-1.54-2.28a1,1,0,0,1-.12-.17c-.39-.57-.77-1.14-1.15-1.72-.74-1.09-1.47-2.2-2.19-3.31a1,1,0,0,0-.15-.24l-2.22-3.48-.22-.36-.88-1.43-1.22-2-.32-.53c-.17-.27-.34-.56-.51-.85-.46-.76-.94-1.56-1.38-2.33l-.64-1.1c-.5-.84-1-1.67-1.49-2.57q-4.61-8-8.77-16.46c-.35-.69-.69-1.38-1-2.09-.22-.44-.44-.88-.65-1.35-.43-.87-.8-1.74-1.25-2.63a25.91,25.91,0,0,1-1.15-2.47l-.23-.48c-.27-.58-.53-1.16-.81-1.75l-.26-.57c-.27-.59-.52-1.19-.8-1.78q-1.44-3.25-2.79-6.57c-.42-1-.8-2-1.23-3.08-.1-.25-.21-.52-.31-.79-.4-1-.8-2-1.16-3s-.69-1.82-1-2.74l-.24-.65c-.17-.44-.33-.91-.49-1.35q-1-2.7-1.9-5.44c-.21-.6-.4-1.2-.6-1.8-.26-.8-.51-1.54-.75-2.32-.14-.41-.27-.8-.4-1.22-.25-.8-.49-1.59-.75-2.39-.31-1-.61-2.06-.92-3.11-.19-.64-.39-1.28-.57-1.95-.37-1.29-.74-2.58-1.09-3.89-.19-.68-.37-1.35-.55-2-.13-.5-.27-1-.4-1.51-.32-1.22-.62-2.45-.92-3.7-.18-.7-.34-1.4-.52-2.11-.07-.28-.13-.56-.19-.85-.37-1.55-.72-3.11-1.07-4.69-.26-1.16-.5-2.33-.74-3.5-.13-.71-.29-1.43-.42-2.14s-.32-1.59-.48-2.45a1.86,1.86,0,0,0-.09-.47c-.16-.8-.3-1.64-.45-2.48s-.32-1.84-.48-2.77-.29-1.8-.45-2.71q-.57-3.7-1.07-7.47c-.17-1.23-.33-2.47-.48-3.71A312.7,312.7,0,0,1,447,328.58V122.76Z"
       transform="translate(-445.5 -121.26)"
       id="path4233" />
  </g>
  <g
     id="Layer_4"
     data-name="Layer 4">
    <path
       class="cls-2"
       d="M609.81,261c-.44-5.25-.76-10.52-1.34-15.76-.51-4.66-2.22-8.91-6.84-10.84-4.82-2-8.16.92-11.61,5.58-2.26-10-2.8-19.09-3.71-28.1-.27-2.7,2.48-3.5,4.34-4.69,27.71-17.7,58.79-25.24,90.74-30.34a286.88,286.88,0,0,1,102.12,2.33c19.61,3.91,38,11.3,56.1,19.52,5.93,2.69,12.34,4.37,17.61,9.09-6.6-1.24-13.28-2.17-19.8-3.76-40.19-9.81-80.56-11.49-121.4-4.13a259.31,259.31,0,0,0-63.66,20.19C633.65,228.8,618.35,241.25,609.81,261Z"
       transform="translate(-445.5 -121.26)"
       id="path4236" />
    <path
       class="cls-2"
       d="M602,284.07a10.87,10.87,0,0,1,6,5.89c4.66,9.52,10,18.67,14.75,28.17,5.42,10.9,10.14,22.06,15.12,33.12a139.78,139.78,0,0,1,8.48,26.36c.58,2.54-.23,3.88-3.23,3.46-4.15-.59-8.59-.41-11.94,1.94-4.45,3.12-5.78,2.43-7.65-2.66-9.46-25.76-19.34-51.37-32.24-75.68-1.82-3.43-3-7.35-5.37-10.29-2.6-3.2-1-4.64,1.21-6.43C591.29,283.55,596,281.18,602,284.07Z"
       transform="translate(-445.5 -121.26)"
       id="path4238" />
    <path
       class="cls-2"
       d="M675.61,490.07c.06,4-.12,7.34-5.46,3.85a12.3,12.3,0,0,0-12.37-.93c-3.18,1.46-4.85,1.23-5.06-2.84-1.28-23.93-7.71-46.84-14.21-69.72-1.4-4.93-3.44-9.65,5-9.16a6.35,6.35,0,0,0,4-1.46c5.38-4.46,8.7-1.71,10.31,3.41C665.71,438.38,673.71,463.54,675.61,490.07Z"
       transform="translate(-445.5 -121.26)"
       id="path4240" />
    <path
       class="cls-2"
       d="M585.56,286.51c-1.79.15-3.26,4.73-5.42,0-8.84-19.38-15.54-39.2-17.8-60.64-1-9,3.62-12.27,9.74-15.37,8.79-4.45,11.54-2.83,11.84,7.34.67,23,9,43.6,19.17,63.7C597.32,283.46,591.21,284.19,585.56,286.51Z"
       transform="translate(-445.5 -121.26)"
       id="path4242" />
    <path
       class="cls-2"
       d="M578.63,423.94c-.25-4.16,3.15-6.08,6.33-7.93q17.31-10.08,34.77-19.9c2.43-1.38,4.28-4.89,8-2.33s6,5.5,6.31,10a5.07,5.07,0,0,1-2.94,5.49c-13.58,7.26-27,14.76-40.67,21.94C584.82,434.14,578.78,430.41,578.63,423.94Z"
       transform="translate(-445.5 -121.26)"
       id="path4244" />
    <path
       class="cls-3"
       d="M677.33,534.93c.41,8.65-1.22,17.13-2.45,25.6-1.15,7.86-6,11.5-11.89,10.06-6.22-1.5-9.56-7.16-7.73-14.13,2.83-10.79,4.64-21.63,2.91-32.78-.42-2.73.73-3.42,3.08-4.07C672.06,516.63,677.07,521.33,677.33,534.93Z"
       transform="translate(-445.5 -121.26)"
       id="path4246" />
    <path
       class="cls-2"
       d="M679.29,502.21,721,520.82a11,11,0,0,1,1.05.63c6.32,3.73,9.43,9,7.75,13.11-1.76,4.31-6.61,5.22-14.75,2.28-10.79-3.89-21.17-8.79-31.57-13.62-1.67-.78-2.86-1.39-2.58-3.46C681.62,514.28,681.12,508.83,679.29,502.21Z"
       transform="translate(-445.5 -121.26)"
       id="path4248" />
    <path
       class="cls-3"
       d="M678.21,510.23c-.14,1.55-.27,2.37-.28,3.19,0,4.3-.48,7.1-6.07,4.27a16.15,16.15,0,0,0-10.2-1.4c-6.48,1.54-7.66-2.37-8.83-6.87-1.72-6.61,0-11.35,5-13.73,6.63-3.18,16.93,1.67,19.37,9.23A39.44,39.44,0,0,1,678.21,510.23Z"
       transform="translate(-445.5 -121.26)"
       id="path4250" />
    <path
       class="cls-3"
       d="M640.08,408c-2.71.82-3.53-.53-3.65-4-.17-5.07-2.34-9.87-6.69-12.57-3.82-2.37-2-3.43.13-5,4.56-3.46,12.6-4.28,16.92-1.72,3.86,2.28,7.13,10.8,6.12,15.91C652,405,647,408.07,640.08,408Z"
       transform="translate(-445.5 -121.26)"
       id="path4252" />
    <path
       class="cls-4"
       d="M585.56,286.51c5.08-4.33,11.12-5.3,17.53-5L602,284.07c-5.42-.48-10.09,1.93-14.88,3.87Z"
       transform="translate(-445.5 -121.26)"
       id="path4254" />
  </g>
  <g
     id="Layer_3"
     data-name="Layer 3">
    <path
       class="cls-5"
       d="M927,122.76V328.6a313.88,313.88,0,0,1-2.28,38c-.11.93-.24,1.86-.36,2.79,0,.2,0,.4-.08.59-.09.74-.19,1.47-.31,2.2-.46,3.37-1,6.69-1.6,10-.07.44-.15.87-.23,1.31-.16.8-.29,1.6-.45,2.4s-.34,1.79-.51,2.69l-.45,2.22-.24,1.15c-.15.71-.3,1.44-.46,2.15-.54,2.37-1.07,4.71-1.61,7l-.58,2.32-.52,2q-1.53,5.88-3.27,11.61c-.29,1-.59,1.94-.9,2.92l-.6,1.88c-.2.63-.4,1.24-.61,1.86-.37,1.09-.73,2.17-1.1,3.25s-.68,2-1,3c-.47,1.28-.93,2.56-1.39,3.81-.36,1-.73,2-1.11,3l-.19.5c-.43,1.14-.87,2.25-1.32,3.36s-.87,2.17-1.31,3.2c0,.15-.12.28-.18.42-.4,1-.8,2-1.25,3s-.76,1.75-1.13,2.62l-.66,1.49c-.48,1.07-1,2.11-1.44,3.15s-.9,2-1.36,2.93l-1,2.12c-.29.63-.6,1.25-.91,1.87-.63,1.33-1.31,2.64-2,4q-2.52,5-5.19,9.77l-2,3.57-.12.21c-1.4,2.44-2.82,4.86-4.28,7.24a.41.41,0,0,1,0,.09c-.71,1.2-1.46,2.4-2.18,3.54-.11.16-.2.32-.3.47s-.31.5-.47.74c-.4.64-.81,1.28-1.22,1.92l-.65,1c-.65,1-1.31,2-2,3l-.13.18c-.65,1-1.31,2-2,3l-.45.67q-2.25,3.29-4.54,6.46l-.31.43c-.8,1.07-1.54,2.14-2.31,3.19s-1.66,2.23-2.5,3.32c-1.52,2-3.06,4-4.61,6l-.81,1q-1.09,1.39-2.22,2.76L854,526.61l-.57.69c-.4.47-.79.93-1.2,1.39a4.16,4.16,0,0,1-.27.32c-.31.37-.62.73-.94,1.09-1.23,1.44-2.46,2.87-3.73,4.29-.65.75-1.32,1.5-2,2.24s-1.52,1.69-2.29,2.51-1.47,1.6-2.22,2.4q-3,3.2-5.93,6.24-2.76,2.82-5.53,5.59l-.83.82c-.64.64-1.29,1.27-1.93,1.89-.92.89-1.85,1.78-2.79,2.66l-2.28,2.12c-.68.65-1.36,1.28-2,1.91q-14.52,13.32-30.16,25.31c-1,.77-2,1.52-3,2.28q-9.86,7.43-20.1,14.31-1.56,1.05-3.12,2.07c-1,.65-2,1.29-3,1.92a0,0,0,0,1,0,0l-.18.12h0l-2.24,1.45c-.86.55-1.72,1.1-2.57,1.6l-1.74,1.09c-3.67,2.31-7.25,4.48-10.73,6.54l-2.41,1.4-2.36,1.37-2.33,1.34-2.23,1.29c-8.34,4.68-15.9,8.59-22.38,11.76l-1.6.8c-10.64,5.15-18.12,8.22-21,9.35l-.42.17-.61.24-.14,0h-.08l-.23-.09-.21,0-1.07-.42-.54-.23c-.87-.34-2-.8-3.37-1.38l-.46-.18c-1.76-.8-3.89-1.67-6.33-2.77l-1.39-.61a442.25,442.25,0,0,1-39.75-20.6c-.8-.44-1.6-.92-2.35-1.38q-7.23-4.26-14.29-8.78-5.26-3.36-10.42-6.85c-.75-.51-1.49-1-2.23-1.53-.57-.38-1.13-.76-1.69-1.16q-8.21-5.66-16.15-11.66l-2.63-2-.61-.47c-.77-.6-1.55-1.2-2.33-1.82l-2.37-1.86-.44-.35c-6.19-4.92-12.43-10.15-18.64-15.69L558.08,566q-2.31-2.05-4.59-4.2l-1.67-1.57L550,558.54l-2-1.94c-1.12-1.07-2.23-2.17-3.33-3.27-.85-.79-1.69-1.66-2.52-2.5l-.24-.26c-.84-.83-1.67-1.67-2.5-2.51l-.34-.36c-.55-.56-1.09-1.12-1.63-1.69l-1-1.06-1-1-.13-.15-2.1-2.25c-1.12-1.2-2.24-2.41-3.34-3.64h0c-1.11-1.23-2.21-2.46-3.31-3.71l-1.31-1.5-.74-.84c-.57-.65-1.12-1.29-1.66-1.94q-1-1.2-2-2.4-4.28-5.1-8.39-10.48c-.76-1-1.5-1.93-2.24-2.92-1.89-2.47-3.73-5-5.57-7.55-.55-.8-1.12-1.59-1.68-2.39-.13-.16-.24-.34-.36-.5-.59-.86-1.19-1.7-1.77-2.56l-1.54-2.28a1,1,0,0,1-.12-.17c-.39-.57-.77-1.14-1.15-1.72-.74-1.09-1.47-2.2-2.19-3.31a1,1,0,0,0-.15-.24l-2.22-3.48-.22-.36-.88-1.43-1.22-2-.32-.53c-.17-.27-.34-.56-.51-.85-.46-.76-.94-1.56-1.38-2.33l-.64-1.1c-.5-.84-1-1.67-1.49-2.57q-4.61-8-8.77-16.46c-.35-.69-.69-1.38-1-2.09-.22-.44-.44-.88-.65-1.35-.43-.87-.8-1.74-1.25-2.63a25.91,25.91,0,0,1-1.15-2.47l-.23-.48c-.27-.58-.53-1.16-.81-1.75l-.26-.57c-.27-.59-.52-1.19-.8-1.78q-1.44-3.25-2.79-6.57c-.42-1-.8-2-1.23-3.08-.1-.25-.21-.52-.31-.79-.4-1-.8-2-1.16-3s-.69-1.82-1-2.74l-.24-.65c-.17-.44-.33-.91-.49-1.35q-1-2.7-1.9-5.44c-.21-.6-.4-1.2-.6-1.8-.26-.8-.51-1.54-.75-2.32-.14-.41-.27-.8-.4-1.22-.25-.8-.49-1.59-.75-2.39-.31-1-.61-2.06-.92-3.11-.19-.64-.39-1.28-.57-1.95-.37-1.29-.74-2.58-1.09-3.89-.19-.68-.37-1.35-.55-2-.13-.5-.27-1-.4-1.51-.32-1.22-.62-2.45-.92-3.7-.18-.7-.34-1.4-.52-2.11-.07-.28-.13-.56-.19-.85-.37-1.55-.72-3.11-1.07-4.69-.26-1.16-.5-2.33-.74-3.5-.13-.71-.29-1.43-.42-2.14s-.32-1.59-.48-2.45a1.86,1.86,0,0,0-.09-.47c-.16-.8-.3-1.64-.45-2.48s-.32-1.84-.48-2.77-.29-1.8-.45-2.71q-.57-3.7-1.07-7.47c-.17-1.23-.33-2.47-.48-3.71A312.7,312.7,0,0,1,447,328.58V122.76Z"
       transform="translate(-445.5 -121.26)"
       id="path4257" />
  </g>
  <path
     id="shine"
     d="M 1.5800432,0.70901914 V 207.0859 c 0,229.66454 239.9200068,319.6031 239.9200068,319.6031 0,0 239.92,-89.93856 239.92,-319.6031 V 0.70901914 Z"
     style="fill:url(#rg);stroke:#000000;stroke-width:2.41218" />
</svg>
