<?xml version="1.0" encoding="UTF-8" standalone="no"?>
<svg
   viewBox="0 0 483 527.48"
   version="1.1"
   id="svg5270"
   sodipodi:docname="House Harroway.svg"
   inkscape:version="1.2.1 (9c6d41e410, 2022-07-14)"
   xmlns:inkscape="http://www.inkscape.org/namespaces/inkscape"
   xmlns:sodipodi="http://sodipodi.sourceforge.net/DTD/sodipodi-0.dtd"
   xmlns="http://www.w3.org/2000/svg"
   xmlns:svg="http://www.w3.org/2000/svg">
  <sodipodi:namedview
     id="namedview5272"
     pagecolor="#ffffff"
     bordercolor="#000000"
     borderopacity="0.25"
     inkscape:showpageshadow="2"
     inkscape:pageopacity="0.0"
     inkscape:pagecheckerboard="0"
     inkscape:deskcolor="#d1d1d1"
     showgrid="false"
     inkscape:zoom="1.12203"
     inkscape:cx="172.00966"
     inkscape:cy="280.74115"
     inkscape:window-width="1920"
     inkscape:window-height="1017"
     inkscape:window-x="-8"
     inkscape:window-y="-8"
     inkscape:window-maximized="1"
     inkscape:current-layer="svg5270" />
  <defs
     id="defs4823">
    <style
       id="style4821">.cls-1{fill:#2f2f2f;}.cls-2,.cls-3{fill:#fc7c11;}.cls-3,.cls-4{stroke:#515151;}.cls-3,.cls-4,.cls-5,.cls-6{stroke-miterlimit:10;}.cls-4,.cls-5,.cls-7{fill:none;}.cls-4,.cls-5,.cls-6{stroke-width:2px;}.cls-5,.cls-6,.cls-7{stroke:#000;}.cls-7{stroke-width:3px;}</style>
    <radialGradient
       id="rg"
       gradientUnits="userSpaceOnUse"
       cx="220"
       cy="220"
       r="405"
       gradientTransform="matrix(0.80510068,0,0,0.80302287,-0.03015584,-0.9220131)">
      <stop
         style="stop-color:#ffffff;stop-opacity:.3"
         offset="0"
         id="stop753" />
      <stop
         style="stop-color:#ffffff;stop-opacity:.2"
         offset=".2"
         id="stop755" />
      <stop
         style="stop-color:#666666;stop-opacity:.1"
         offset=".6"
         id="stop757" />
      <stop
         style="stop-color:#000000;stop-opacity:.13"
         offset="1"
         id="stop759" />
    </radialGradient>
  </defs>
  <title
     id="title4825">House Harroway</title>
  <g
     id="Layer_2"
     data-name="Layer 2">
    <path
       class="cls-1"
       d="M927,120.76V326.6a313.88,313.88,0,0,1-2.28,38c-.11.93-.24,1.86-.36,2.79s-.24,1.86-.39,2.79c-.46,3.37-1,6.69-1.6,10-.07.44-.15.87-.23,1.31-.16.8-.29,1.6-.45,2.4s-.34,1.79-.51,2.69l-.45,2.22-.24,1.15c-.15.71-.3,1.44-.46,2.15-.54,2.37-1.07,4.71-1.61,7l-.1.38-.48,1.94-.52,2q-1.53,5.88-3.27,11.61c-.29,1-.59,1.94-.9,2.92l-.6,1.88c-.2.63-.4,1.24-.61,1.86-.37,1.09-.73,2.17-1.1,3.25s-.68,2-1,3c-.47,1.28-.93,2.56-1.39,3.81-.36,1-.73,2-1.11,3l-.19.5c-.43,1.14-.87,2.25-1.32,3.36s-.87,2.17-1.31,3.2c0,.15-.12.28-.18.42-.4,1-.8,2-1.25,3s-.76,1.75-1.13,2.62l-.66,1.49c-.48,1.07-1,2.11-1.44,3.15s-.9,2-1.36,2.93l-1,2.12c-.29.63-.6,1.25-.91,1.87-.63,1.33-1.31,2.64-2,4q-2.52,5-5.19,9.77l-2,3.57-.12.21c-1.42,2.47-2.86,4.92-4.33,7.33-.71,1.2-1.46,2.4-2.18,3.54-.11.16-.2.32-.3.47-.55.89-1.12,1.78-1.69,2.66l-.65,1c-.65,1-1.31,2-2,3l-.13.18c-.65,1-1.31,2-2,3l-.45.67q-2.25,3.29-4.54,6.46l-.31.43c-.8,1.07-1.54,2.14-2.31,3.19s-1.66,2.23-2.5,3.32c-1.52,2-3.06,4-4.61,6l-.81,1q-1.09,1.39-2.22,2.76L854,524.61l-.57.69c-.8.94-1.6,1.87-2.41,2.8q-2.82,3.32-5.72,6.53c-.75.85-1.52,1.69-2.29,2.51s-1.47,1.6-2.22,2.4q-3,3.2-5.93,6.24-2.76,2.82-5.53,5.59c-.92.91-1.84,1.82-2.76,2.71s-1.85,1.78-2.79,2.66l-2.28,2.12c-.68.65-1.36,1.28-2,1.91a449.24,449.24,0,0,1-61.76,47.47c-.86.55-1.72,1.1-2.57,1.6q-6.43,4.06-12.47,7.63l-2.41,1.4-2.36,1.37-2.33,1.34-2.23,1.29c-8.34,4.68-15.9,8.59-22.38,11.76l-1.6.8c-10.64,5.15-18.12,8.22-21,9.35l-.42.17-.61.24-.14,0h-.08l-.23-.09-.21,0-1.07-.42-.54-.23c-.87-.34-2-.8-3.37-1.38l-.46-.18c-1.76-.8-3.89-1.67-6.33-2.77l-1.39-.61Q659,632.93,645,625.26q-5.66-3.06-11.22-6.32c-.8-.44-1.6-.92-2.35-1.38q-6.9-4.07-13.65-8.37-16-10.18-31.13-21.61l-2.63-2c-1-.75-2-1.51-2.94-2.29l-2.81-2.21c-6.19-4.92-12.43-10.15-18.64-15.69L558.08,564q-2.31-2.05-4.59-4.2l-1.67-1.57L550,556.54l-2-1.94c-1.12-1.07-2.23-2.17-3.33-3.27-.85-.79-1.69-1.66-2.52-2.5l-.24-.26c-.84-.83-1.67-1.67-2.5-2.51-.66-.68-1.32-1.36-2-2l-2-2.06-.13-.15-2.1-2.25q-3.36-3.6-6.66-7.36c-.68-.79-1.36-1.54-2.05-2.34-.57-.65-1.12-1.29-1.66-1.94q-1-1.2-2-2.4-4.28-5.1-8.39-10.48c-.76-1-1.5-1.93-2.24-2.92-1.89-2.47-3.73-5-5.57-7.55-.55-.8-1.12-1.59-1.68-2.39-.13-.16-.24-.34-.36-.5-.59-.86-1.19-1.7-1.77-2.56-.94-1.38-1.89-2.77-2.81-4.17-.74-1.09-1.47-2.2-2.19-3.31a1,1,0,0,0-.15-.24l-2.22-3.48-.22-.36c-.7-1.14-1.41-2.27-2.1-3.4s-1.49-2.46-2.21-3.71c-.4-.69-.8-1.36-1.2-2-.26-.44-.51-.88-.77-1.34l-.16-.29q-4.61-8-8.77-16.46c-.35-.69-.69-1.38-1-2.09-.22-.44-.44-.88-.65-1.35-.43-.87-.8-1.74-1.25-2.63a25.91,25.91,0,0,1-1.15-2.47l-.23-.48c-.27-.58-.53-1.16-.81-1.75l-.26-.57c-.27-.59-.52-1.19-.8-1.78q-1.44-3.25-2.79-6.57c-.42-1-.8-2-1.23-3.08-.1-.25-.21-.52-.31-.79-.4-1-.8-2-1.16-3s-.69-1.82-1-2.74l-.24-.65c-.17-.44-.33-.91-.49-1.35q-1-2.7-1.9-5.44c-.21-.6-.4-1.2-.6-1.8-.26-.8-.51-1.54-.75-2.32-.14-.41-.27-.8-.4-1.22-.25-.8-.49-1.59-.75-2.39-.31-1-.61-2.06-.92-3.11-.09-.29-.17-.58-.26-.87s-.21-.71-.31-1.08c-.37-1.29-.74-2.58-1.09-3.89-.19-.68-.37-1.35-.55-2-.13-.5-.27-1-.4-1.51-.32-1.22-.62-2.45-.92-3.7-.18-.7-.34-1.4-.52-2.11-.07-.28-.13-.56-.19-.85-.37-1.55-.72-3.11-1.07-4.69-.26-1.16-.5-2.33-.74-3.5-.13-.71-.29-1.43-.42-2.14s-.32-1.59-.48-2.45a1.86,1.86,0,0,0-.09-.47c-.16-.8-.3-1.64-.45-2.48s-.32-1.84-.48-2.77-.29-1.8-.45-2.71q-.86-5.52-1.55-11.18A312.7,312.7,0,0,1,447,326.58V120.76Z"
       transform="translate(-445.5 -119.26)"
       id="path4827" />
  </g>
  <g
     id="Layer_10"
     data-name="Layer 10">
    <path
       class="cls-2"
       d="M488,479s13.26-5,23.39,11,20.13,23,24.38,23,14.75-1.5,34,19c0,0,6.75-24.5-14.75-31.75s-18.25-36-31.75-42.25-17-6.75-17-9.25,16.83-8.75,26.92-2,24.67,30.75,34,31.25,28.58,9.5,36,21.25c0,0,6.71-19.25-8-27.5s-18.58-3.82-28-28L555.75,427h23.88s10.79,17.17,21.08,18.33,27,11.5,36.79,21.83c0,0,2.51-27.43-15.5-32H594V427H508.77v-9.5H479.52V397.75l37.5-95.5h10V243l-9.75-11.75v-13.5h17.5v13.5H550v-13.5h20.25v14H588v-14h15.5v13l-9,14v34.5h14V265H628v15h16.5V265H663v15h15.5V265H698v15h16V264h10.75S717,252.17,703.5,252c0,0,7-7.67,20.5-6.17S748,265,748,265h17.5v14.38h13V267.25s-8.17-3.08-13-18.58-13.5-27.5-29.5-29.5c0,0,7.79-6.5,20.31-4.83s9.19,4.83,9.19,4.83H784v12.58h17.75v-14s-6-30.75-31.87-31.92c0,0,4.46-6.5,22.38-5.67s28.25,36,46.33,35,22.92,15.83,29.58,19c0,0,6.17-31.5-24.67-34.17,0,0-6.83-3.5-11-15.67s-9.67-29.83-30.75-32c0,0,16.33-11.67,29.38-1.67s25.21,31.17,40,32.5,30.33,18.67,30.33,18.67,6-23.53-21.42-35.64a16.3,16.3,0,0,1-8.33-8.18c-5-11.16-16.56-34.29-26.75-37.25l27,1.07s13.67,29.33,55,35.5V141.5s-22.17-8-26.5-20.74H447V345.58s9.09,79.71,31,114.73S488,479,488,479Z"
       transform="translate(-445.5 -119.26)"
       id="path4830" />
    <path
       class="cls-2"
       d="M647.47,416.56s10.78,4.44,21.86,16.57c0,0,6.38-26.4-19-32.45"
       transform="translate(-445.5 -119.26)"
       id="path4832" />
    <path
       class="cls-2"
       d="M667.52,379.25s2.1,2.62,8.48,2.75,17.38,10.85,26.38,18.68c0,0,3.61-20.6-8.13-28.51C694.24,372.17,679.67,370.88,667.52,379.25Z"
       transform="translate(-445.5 -119.26)"
       id="path4834" />
  </g>
  <g
     id="Layer_9"
     data-name="Layer 9">
    <path
       class="cls-3"
       d="M617.67,435.25s-12.33-4.42-18.17-25S579.17,386.83,570.83,384c0,0,17.25-13.37,32.29-1.44s21.08,30.3,44.21,31.6l1.19,20.14Z"
       transform="translate(-445.5 -119.26)"
       id="path4837" />
    <path
       class="cls-3"
       d="M603.13,351.5s24.64,4.51,31.78,34a25,25,0,0,0,7.9,13.17,19.65,19.65,0,0,0,6.94,3.95s3.82-17.13,17-22.89c0,0-9.56-6.17-12.39-10.42s-18.15-23.87-34.42-23.75c-1.06,0-3.37.19-4.43.2C612.38,345.81,605.84,346.5,603.13,351.5Z"
       transform="translate(-445.5 -119.26)"
       id="path4839" />
    <path
       class="cls-3"
       d="M637,318.5s18.25,1.87,27.5,22.43,9,24.74,26.51,31.28c0,0,44.82-4.88,42,64h51v-17.5L747.5,334H714.83s-2.3,2.75,9.33,6.17c6.25,1.84,7.68,11.18,7.88,17.92a2.75,2.75,0,0,1-4.79,1.92c-4.62-5-11.49-10.4-15.76-12.13-6-2.45-20-1.54-29.67-18.21S649.83,306,637,318.5Z"
       transform="translate(-445.5 -119.26)"
       id="path4841" />
    <path
       class="cls-3"
       d="M710.5,333.13s-5.83-.87-10.67-16.25-9.5-24.5-30.5-31.06c0,0,5.29-7.23,22.17-5.19s29,37,49.5,34.54c0,0,12.35-.33,27.17,17.33,0,0,2.74-18.5-10.3-26.75,0,0-13.58-2.25-20-14.75s-5.23-11.52-5.23-11.52H747V265a91.38,91.38,0,0,1,11.67,9.33c5,4.92,7.5,5,7.5,5s11.33-1,17.33,4.46,16,15.29,18.83,15.23c0,0,2.67-27.4-23.83-30.23V244.17L765.29,231V217.75S777.88,225,791.5,242.5c6.58,8.47,31.75,5.67,41.13,23,0,0,4.38-21.33-12.62-28.67s-17-12.67-17-12.67V218.5h18.5v12.25h17.38V219.17H853a4.42,4.42,0,0,1,3.67,3.33c1,3.17,1,10.06,1,10.06l-9.54,10.78V302h11.13l37.25,96.39v18.86H864.25V427H784.5"
       transform="translate(-445.5 -119.26)"
       id="path4843" />
    <path
       class="cls-3"
       d="M724.75,264a46.19,46.19,0,0,1,6.75,10.75V264Z"
       transform="translate(-445.5 -119.26)"
       id="path4845" />
    <path
       class="cls-3"
       d="M537,416.38s13.67-9.62,27.83-3.25S579.63,427,579.63,427H555.75S549.63,419.25,537,416.38Z"
       transform="translate(-445.5 -119.26)"
       id="path4847" />
  </g>
  <g
     id="Layer_8"
     data-name="Layer 8">
    <line
       class="cls-4"
       x1="63.27"
       y1="299.41"
       x2="148.52"
       y2="299.41"
       id="line4850" />
    <polyline
       class="cls-4"
       points="86 299.41 86 282.57 155.21 282.57"
       id="polyline4852" />
    <line
       class="cls-4"
       x1="112.33"
       y1="282.57"
       x2="112.33"
       y2="299.41"
       id="line4854" />
    <line
       class="cls-4"
       x1="132.83"
       y1="282.57"
       x2="132.83"
       y2="299.41"
       id="line4856" />
    <line
       class="cls-4"
       x1="86"
       y1="282.57"
       x2="73.22"
       y2="282.57"
       id="line4858" />
    <line
       class="cls-4"
       x1="81.52"
       y1="269.49"
       x2="149.67"
       y2="269.49"
       id="line4860" />
    <line
       class="cls-4"
       x1="100.83"
       y1="269.49"
       x2="100.83"
       y2="282.57"
       id="line4862" />
    <line
       class="cls-4"
       x1="93.67"
       y1="257.2"
       x2="93.67"
       y2="270.28"
       id="line4864" />
    <line
       class="cls-4"
       x1="111.5"
       y1="257.2"
       x2="111.5"
       y2="270.28"
       id="line4866" />
    <line
       class="cls-4"
       x1="130.97"
       y1="257.2"
       x2="130.97"
       y2="270.28"
       id="line4868" />
    <line
       class="cls-4"
       x1="120.6"
       y1="269.49"
       x2="120.6"
       y2="282.57"
       id="line4870" />
    <line
       class="cls-4"
       x1="141.33"
       y1="269.49"
       x2="141.33"
       y2="282.57"
       id="line4872" />
    <polyline
       class="cls-4"
       points="101.5 257.2 101.5 245.99 149.67 245.99 169.67 245.99"
       id="polyline4874" />
    <line
       class="cls-4"
       x1="119.33"
       y1="245.99"
       x2="119.33"
       y2="257.74"
       id="line4876" />
    <polyline
       class="cls-4"
       points="101.5 245.99 82.33 245.99 82.33 160.22"
       id="polyline4878" />
    <polyline
       class="cls-4"
       points="46.79 245.99 82.33 245.99 82.33 269.49 57.77 269.49 57.77 280.62"
       id="polyline4880" />
    <line
       class="cls-4"
       x1="87"
       y1="246.74"
       x2="87"
       y2="257.2"
       id="line4882" />
    <line
       class="cls-4"
       x1="140"
       y1="245.99"
       x2="140"
       y2="257.2"
       id="line4884" />
    <polyline
       class="cls-4"
       points="51.2 234.74 82.33 234.74 149.67 234.74 173.63 234.74"
       id="polyline4886" />
    <polyline
       class="cls-4"
       points="82.33 222.74 149.67 222.74 178.86 222.74"
       id="polyline4888" />
    <line
       class="cls-4"
       x1="95.17"
       y1="234.74"
       x2="95.17"
       y2="245.99"
       id="line4890" />
    <line
       class="cls-4"
       x1="111.5"
       y1="234.74"
       x2="111.5"
       y2="245.99"
       id="line4892" />
    <line
       class="cls-4"
       x1="87.67"
       y1="222.74"
       x2="87.67"
       y2="234.74"
       id="line4894" />
    <line
       class="cls-4"
       x1="102.83"
       y1="222.74"
       x2="102.83"
       y2="234.74"
       id="line4896" />
    <line
       class="cls-4"
       x1="121.67"
       y1="222.74"
       x2="121.67"
       y2="234.74"
       id="line4898" />
    <line
       class="cls-4"
       x1="138.17"
       y1="222.74"
       x2="138.17"
       y2="234.74"
       id="line4900" />
    <line
       class="cls-4"
       x1="82.33"
       y1="213.24"
       x2="149.67"
       y2="213.24"
       id="line4902" />
    <line
       class="cls-4"
       x1="96.5"
       y1="213.24"
       x2="96.5"
       y2="222.74"
       id="line4904" />
    <line
       class="cls-4"
       x1="82.33"
       y1="202.99"
       x2="149.67"
       y2="202.99"
       id="line4906" />
    <line
       class="cls-4"
       x1="139.25"
       y1="203.11"
       x2="139.25"
       y2="213.24"
       id="line4908" />
    <polyline
       class="cls-4"
       points="82.33 193.37 149.67 193.37 170.52 193.37"
       id="polyline4910" />
    <line
       class="cls-4"
       x1="97.88"
       y1="193.99"
       x2="97.88"
       y2="202.99"
       id="line4912" />
    <line
       class="cls-4"
       x1="132.38"
       y1="193.99"
       x2="132.38"
       y2="202.99"
       id="line4914" />
    <polyline
       class="cls-4"
       points="82.88 182.99 149.67 182.99 170.52 182.99"
       id="polyline4916" />
    <line
       class="cls-4"
       x1="89.88"
       y1="182.36"
       x2="89.88"
       y2="193.36"
       id="line4918" />
    <line
       class="cls-4"
       x1="118"
       y1="182.99"
       x2="118"
       y2="189.82"
       id="line4920" />
    <line
       class="cls-4"
       x1="139.17"
       y1="182.99"
       x2="139.17"
       y2="193.36"
       id="line4922" />
    <polyline
       class="cls-4"
       points="82.33 171.74 149.67 171.74 158.75 171.74"
       id="polyline4924" />
    <line
       class="cls-4"
       x1="102.83"
       y1="171.74"
       x2="102.83"
       y2="182.36"
       id="line4926" />
    <line
       class="cls-4"
       x1="126.5"
       y1="171.74"
       x2="126.5"
       y2="182.99"
       id="line4928" />
    <line
       class="cls-4"
       x1="92.88"
       y1="171.74"
       x2="92.88"
       y2="160.21"
       id="line4930" />
    <line
       class="cls-4"
       x1="115.33"
       y1="171.74"
       x2="115.33"
       y2="160.21"
       id="line4932" />
    <line
       class="cls-4"
       x1="136.38"
       y1="171.74"
       x2="136.38"
       y2="160.21"
       id="line4934" />
    <line
       class="cls-4"
       x1="81.52"
       y1="148.74"
       x2="148.52"
       y2="148.74"
       id="line4936" />
    <line
       class="cls-4"
       x1="86.63"
       y1="148.74"
       x2="86.63"
       y2="159.11"
       id="line4938" />
    <line
       class="cls-4"
       x1="98.75"
       y1="148.74"
       x2="98.75"
       y2="159.11"
       id="line4940" />
    <line
       class="cls-4"
       x1="129.75"
       y1="148.74"
       x2="129.75"
       y2="158.36"
       id="line4942" />
    <line
       class="cls-4"
       x1="143"
       y1="148.74"
       x2="143"
       y2="159.11"
       id="line4944" />
    <line
       class="cls-4"
       x1="81.52"
       y1="136.74"
       x2="149.02"
       y2="136.74"
       id="line4946" />
    <line
       class="cls-4"
       x1="81.52"
       y1="125.49"
       x2="149.02"
       y2="125.49"
       id="line4948" />
    <line
       class="cls-4"
       x1="86.63"
       y1="125.49"
       x2="86.63"
       y2="136.74"
       id="line4950" />
    <line
       class="cls-4"
       x1="105.63"
       y1="125.49"
       x2="105.63"
       y2="136.74"
       id="line4952" />
    <line
       class="cls-4"
       x1="126.5"
       y1="125.49"
       x2="126.5"
       y2="136.74"
       id="line4954" />
    <line
       class="cls-4"
       x1="142.25"
       y1="125.49"
       x2="142.25"
       y2="136.74"
       id="line4956" />
    <line
       class="cls-4"
       x1="71.77"
       y1="111.99"
       x2="89.13"
       y2="111.99"
       id="line4958" />
    <line
       class="cls-4"
       x1="104.52"
       y1="111.99"
       x2="124.77"
       y2="111.99"
       id="line4960" />
    <line
       class="cls-4"
       x1="142.25"
       y1="111.99"
       x2="157.88"
       y2="111.99"
       id="line4962" />
    <line
       class="cls-4"
       x1="97"
       y1="111.99"
       x2="97"
       y2="125.49"
       id="line4964" />
    <line
       class="cls-4"
       x1="116"
       y1="112.24"
       x2="116"
       y2="125.24"
       id="line4966" />
    <line
       class="cls-4"
       x1="136.38"
       y1="112.49"
       x2="136.38"
       y2="125.49"
       id="line4968" />
    <polyline
       class="cls-4"
       points="106 111.99 106 99.61 123.83 99.61"
       id="polyline4970" />
    <polyline
       class="cls-4"
       points="87.75 111.99 87.75 99.61 72.63 99.61"
       id="polyline4972" />
    <polyline
       class="cls-4"
       points="143.63 111.99 143.63 99.61 157.38 99.61"
       id="polyline4974" />
    <line
       class="cls-4"
       x1="338.5"
       y1="299.49"
       x2="418.75"
       y2="299.49"
       id="line4976" />
    <polyline
       class="cls-4"
       points="331.88 284.11 411.26 284.11 451 284.11"
       id="polyline4978" />
    <line
       class="cls-4"
       x1="352.88"
       y1="299.49"
       x2="352.88"
       y2="284.11"
       id="line4980" />
    <line
       class="cls-4"
       x1="374.25"
       y1="299.49"
       x2="374.25"
       y2="284.11"
       id="line4982" />
    <line
       class="cls-4"
       x1="399.75"
       y1="299.49"
       x2="399.75"
       y2="284.11"
       id="line4984" />
    <line
       class="cls-4"
       x1="326.58"
       y1="271.81"
       x2="404.73"
       y2="271.81"
       id="line4986" />
    <line
       class="cls-4"
       x1="342.38"
       y1="271.81"
       x2="342.38"
       y2="284.11"
       id="line4988" />
    <line
       class="cls-4"
       x1="361.88"
       y1="271.81"
       x2="361.88"
       y2="284.11"
       id="line4990" />
    <line
       class="cls-4"
       x1="384.5"
       y1="271.81"
       x2="384.5"
       y2="284.11"
       id="line4992" />
    <polyline
       class="cls-4"
       points="444.5 262.62 403.5 262.62 333 262.62 322.67 262.74"
       id="polyline4994" />
    <line
       class="cls-4"
       x1="346.63"
       y1="262.61"
       x2="346.63"
       y2="271.81"
       id="line4996" />
    <line
       class="cls-4"
       x1="368.25"
       y1="262.61"
       x2="368.25"
       y2="271.81"
       id="line4998" />
    <line
       class="cls-4"
       x1="392.88"
       y1="262.61"
       x2="392.88"
       y2="271.81"
       id="line5000" />
    <line
       class="cls-4"
       x1="333"
       y1="249.74"
       x2="439.83"
       y2="249.74"
       id="line5002" />
    <line
       class="cls-4"
       x1="405.97"
       y1="274.14"
       x2="449.31"
       y2="274.14"
       id="line5004" />
    <polyline
       class="cls-4"
       points="434.75 236.24 333 236.24 311.26 236.24"
       id="polyline5006" />
    <line
       class="cls-4"
       x1="403.5"
       y1="224.99"
       x2="430.7"
       y2="224.99"
       id="line5008" />
    <line
       class="cls-4"
       x1="357.5"
       y1="262.61"
       x2="357.5"
       y2="249.74"
       id="line5010" />
    <line
       class="cls-4"
       x1="380"
       y1="262.74"
       x2="380"
       y2="249.86"
       id="line5012" />
    <line
       class="cls-4"
       x1="348.13"
       y1="236.24"
       x2="348.13"
       y2="249.86"
       id="line5014" />
    <line
       class="cls-4"
       x1="368.25"
       y1="236.24"
       x2="368.25"
       y2="249.74"
       id="line5016" />
    <line
       class="cls-4"
       x1="391.44"
       y1="236.24"
       x2="391.44"
       y2="249.74"
       id="line5018" />
    <line
       class="cls-4"
       x1="341.5"
       y1="223.74"
       x2="341.5"
       y2="236.24"
       id="line5020" />
    <line
       class="cls-4"
       x1="357.5"
       y1="223.74"
       x2="357.5"
       y2="236.24"
       id="line5022" />
    <line
       class="cls-4"
       x1="381.25"
       y1="223.74"
       x2="381.25"
       y2="236.24"
       id="line5024" />
    <line
       class="cls-4"
       x1="332.38"
       y1="213.86"
       x2="403.5"
       y2="213.86"
       id="line5026" />
    <line
       class="cls-4"
       x1="350.25"
       y1="213.86"
       x2="350.25"
       y2="223.74"
       id="line5028" />
    <line
       class="cls-4"
       x1="368.25"
       y1="213.86"
       x2="368.25"
       y2="223.74"
       id="line5030" />
    <line
       class="cls-4"
       x1="393.38"
       y1="213.86"
       x2="393.38"
       y2="223.74"
       id="line5032" />
    <line
       class="cls-4"
       x1="404.73"
       y1="214.61"
       x2="426.34"
       y2="214.61"
       id="line5034" />
    <line
       class="cls-4"
       x1="342.88"
       y1="203.11"
       x2="342.88"
       y2="213.86"
       id="line5036" />
    <line
       class="cls-4"
       x1="386.41"
       y1="203.11"
       x2="386.41"
       y2="213.86"
       id="line5038" />
    <polyline
       class="cls-4"
       points="403.5 193.49 332.38 193.49 311.5 193.49"
       id="polyline5040" />
    <line
       class="cls-4"
       x1="348.88"
       y1="193.49"
       x2="348.88"
       y2="203.11"
       id="line5042" />
    <line
       class="cls-4"
       x1="395.5"
       y1="193.49"
       x2="395.5"
       y2="203.11"
       id="line5044" />
    <line
       class="cls-4"
       x1="344.25"
       y1="181.99"
       x2="344.25"
       y2="193.49"
       id="line5046" />
    <line
       class="cls-4"
       x1="367"
       y1="181.99"
       x2="367"
       y2="190.99"
       id="line5048" />
    <line
       class="cls-4"
       x1="378.13"
       y1="171.74"
       x2="378.13"
       y2="181.49"
       id="line5050" />
    <line
       class="cls-4"
       x1="352.88"
       y1="171.74"
       x2="352.88"
       y2="181.49"
       id="line5052" />
    <line
       class="cls-4"
       x1="346.75"
       y1="171.74"
       x2="346.75"
       y2="161.36"
       id="line5054" />
    <line
       class="cls-4"
       x1="367"
       y1="171.74"
       x2="367"
       y2="161.36"
       id="line5056" />
    <line
       class="cls-4"
       x1="387.13"
       y1="171.74"
       x2="387.13"
       y2="161.36"
       id="line5058" />
    <line
       class="cls-4"
       x1="403.5"
       y1="160.74"
       x2="333"
       y2="160.74"
       id="line5060" />
    <polyline
       class="cls-4"
       points="341 160.74 341 147.99 403.5 147.99"
       id="polyline5062" />
    <line
       class="cls-4"
       x1="380.38"
       y1="160.74"
       x2="380.38"
       y2="147.99"
       id="line5064" />
    <line
       class="cls-4"
       x1="394.38"
       y1="160.74"
       x2="394.38"
       y2="147.99"
       id="line5066" />
    <line
       class="cls-4"
       x1="341"
       y1="147.99"
       x2="333"
       y2="147.99"
       id="line5068" />
    <polyline
       class="cls-4"
       points="346.75 147.99 346.75 136.24 403.5 136.24"
       id="polyline5070" />
    <line
       class="cls-4"
       x1="385.63"
       y1="147.99"
       x2="385.63"
       y2="136.24"
       id="line5072" />
    <line
       class="cls-4"
       x1="346.75"
       y1="136.24"
       x2="333"
       y2="136.24"
       id="line5074" />
    <line
       class="cls-4"
       x1="333"
       y1="125.49"
       x2="403.5"
       y2="125.49"
       id="line5076" />
    <line
       class="cls-4"
       x1="342.25"
       y1="136.24"
       x2="342.25"
       y2="125.49"
       id="line5078" />
    <line
       class="cls-4"
       x1="354.88"
       y1="136.24"
       x2="354.88"
       y2="125.49"
       id="line5080" />
    <line
       class="cls-4"
       x1="377.38"
       y1="136.24"
       x2="377.38"
       y2="125.49"
       id="line5082" />
    <path
       class="cls-4"
       d="M838.88,255.5"
       transform="translate(-445.5 -119.26)"
       id="path5084" />
    <line
       class="cls-4"
       x1="393.38"
       y1="125.49"
       x2="393.38"
       y2="136.24"
       id="line5086" />
    <line
       class="cls-4"
       x1="320"
       y1="111.49"
       x2="338.5"
       y2="111.49"
       id="line5088" />
    <line
       class="cls-4"
       x1="347.38"
       y1="112.49"
       x2="347.38"
       y2="125.49"
       id="line5090" />
    <line
       class="cls-4"
       x1="356.25"
       y1="111.49"
       x2="376"
       y2="111.49"
       id="line5092" />
    <line
       class="cls-4"
       x1="367.94"
       y1="125.49"
       x2="367.94"
       y2="111.49"
       id="line5094" />
    <line
       class="cls-4"
       x1="385.63"
       y1="111.99"
       x2="385.63"
       y2="125.49"
       id="line5096" />
    <line
       class="cls-4"
       x1="392.75"
       y1="111.49"
       x2="413.25"
       y2="111.49"
       id="line5098" />
    <polyline
       class="cls-4"
       points="320.83 111.49 320.83 99.91 338 99.91"
       id="polyline5100" />
    <polyline
       class="cls-4"
       points="357.5 111.49 357.5 99.91 376 99.91"
       id="polyline5102" />
    <polyline
       class="cls-4"
       points="412.17 111.49 412.17 99.91 393.08 99.91"
       id="polyline5104" />
    <line
       class="cls-4"
       x1="417.33"
       y1="284.11"
       x2="417.33"
       y2="274.14"
       id="line5106" />
    <line
       class="cls-4"
       x1="439.83"
       y1="284.11"
       x2="439.83"
       y2="274.14"
       id="line5108" />
    <line
       class="cls-4"
       x1="426.83"
       y1="274.14"
       x2="426.83"
       y2="262.61"
       id="line5110" />
    <line
       class="cls-4"
       x1="411.17"
       y1="274.14"
       x2="411.17"
       y2="262.61"
       id="line5112" />
    <line
       class="cls-4"
       x1="421"
       y1="262.61"
       x2="421"
       y2="249.74"
       id="line5114" />
    <line
       class="cls-4"
       x1="431.67"
       y1="262.61"
       x2="431.67"
       y2="249.74"
       id="line5116" />
    <line
       class="cls-4"
       x1="428.25"
       y1="249.74"
       x2="428.25"
       y2="236.24"
       id="line5118" />
    <line
       class="cls-4"
       x1="411.17"
       y1="249.74"
       x2="411.17"
       y2="236.24"
       id="line5120" />
    <line
       class="cls-4"
       x1="422.75"
       y1="236.24"
       x2="422.75"
       y2="224.99"
       id="line5122" />
    <line
       class="cls-4"
       x1="414.33"
       y1="224.99"
       x2="414.33"
       y2="214.61"
       id="line5124" />
    <line
       class="cls-4"
       x1="404.08"
       y1="203.91"
       x2="422.02"
       y2="203.91"
       id="line5126" />
    <line
       class="cls-4"
       x1="421.33"
       y1="214.61"
       x2="421.33"
       y2="203.91"
       id="line5128" />
    <line
       class="cls-4"
       x1="409.33"
       y1="214.61"
       x2="409.33"
       y2="203.91"
       id="line5130" />
    <line
       class="cls-4"
       x1="403.5"
       y1="194.57"
       x2="418.48"
       y2="194.57"
       id="line5132" />
    <line
       class="cls-4"
       x1="413.75"
       y1="203.91"
       x2="413.75"
       y2="194.57"
       id="line5134" />
    <polyline
       class="cls-4"
       points="404.73 194.57 404.73 183.24 413.75 183.24"
       id="polyline5136" />
    <line
       class="cls-4"
       x1="182.02"
       y1="214.74"
       x2="301.63"
       y2="214.74"
       id="line5138" />
    <line
       class="cls-4"
       x1="170.52"
       y1="197.61"
       x2="311.5"
       y2="197.61"
       id="line5140" />
    <line
       class="cls-4"
       x1="163.02"
       y1="159.99"
       x2="182.52"
       y2="159.99"
       id="line5142" />
    <line
       class="cls-4"
       x1="199.02"
       y1="159.99"
       x2="217.52"
       y2="159.99"
       id="line5144" />
    <line
       class="cls-4"
       x1="233.02"
       y1="159.99"
       x2="252.5"
       y2="159.99"
       id="line5146" />
    <line
       class="cls-4"
       x1="268.5"
       y1="160.11"
       x2="286"
       y2="160.11"
       id="line5148" />
    <line
       class="cls-4"
       x1="301.63"
       y1="159.99"
       x2="320"
       y2="159.99"
       id="line5150" />
    <polyline
       class="cls-4"
       points="293.75 160.74 293.75 171.74 332.38 171.74 403.5 171.74"
       id="polyline5152" />
    <line
       class="cls-4"
       x1="327.38"
       y1="160.21"
       x2="327.38"
       y2="170.99"
       id="line5154" />
    <polyline
       class="cls-4"
       points="311.5 181.99 333 181.99 403.5 181.99"
       id="polyline5156" />
    <line
       class="cls-4"
       x1="324.38"
       y1="193.49"
       x2="324.38"
       y2="181.99"
       id="line5158" />
    <polyline
       class="cls-4"
       points="308.8 203.12 333 203.12 403.5 203.12"
       id="polyline5160" />
    <line
       class="cls-4"
       x1="303.19"
       y1="212.7"
       x2="332.38"
       y2="212.7"
       id="line5162" />
    <line
       class="cls-4"
       x1="311.5"
       y1="223.74"
       x2="311.5"
       y2="212.7"
       id="line5164" />
    <polyline
       class="cls-4"
       points="305.88 223.74 333 223.74 403.5 223.74"
       id="polyline5166" />
    <line
       class="cls-4"
       x1="324.38"
       y1="223.74"
       x2="324.38"
       y2="236.24"
       id="line5168" />
    <polyline
       class="cls-4"
       points="316 236.24 316 247.25 333 247.25"
       id="polyline5170" />
    <line
       class="cls-4"
       x1="326.58"
       y1="247.25"
       x2="326.58"
       y2="262.61"
       id="line5172" />
    <polyline
       class="cls-4"
       points="158.75 160.74 158.75 171.74 170.52 171.74"
       id="polyline5174" />
    <line
       class="cls-4"
       x1="197.52"
       y1="171.74"
       x2="312.38"
       y2="171.74"
       id="line5176" />
    <line
       class="cls-4"
       x1="262.88"
       y1="161.36"
       x2="262.88"
       y2="171.74"
       id="line5178" />
    <line
       class="cls-4"
       x1="273"
       y1="182.74"
       x2="273"
       y2="171.74"
       id="line5180" />
    <line
       class="cls-4"
       x1="209.5"
       y1="182.74"
       x2="209.5"
       y2="171.74"
       id="line5182" />
    <line
       class="cls-4"
       x1="188.25"
       y1="171.74"
       x2="188.25"
       y2="160.74"
       id="line5184" />
    <line
       class="cls-4"
       x1="158.75"
       y1="182.99"
       x2="158.75"
       y2="193.99"
       id="line5186" />
    <line
       class="cls-4"
       x1="149.67"
       y1="203.99"
       x2="174.41"
       y2="203.99"
       id="line5188" />
    <line
       class="cls-4"
       x1="150.5"
       y1="212.49"
       x2="180.43"
       y2="212.49"
       id="line5190" />
    <line
       class="cls-4"
       x1="159.5"
       y1="203.99"
       x2="159.5"
       y2="212.49"
       id="line5192" />
    <line
       class="cls-4"
       x1="170.52"
       y1="212.49"
       x2="170.52"
       y2="222.74"
       id="line5194" />
    <line
       class="cls-4"
       x1="164.64"
       y1="234.74"
       x2="164.64"
       y2="245.99"
       id="line5196" />
    <line
       class="cls-4"
       x1="149.67"
       y1="258.86"
       x2="164.58"
       y2="258.86"
       id="line5198" />
    <line
       class="cls-4"
       x1="157.63"
       y1="245.99"
       x2="157.63"
       y2="258.86"
       id="line5200" />
    <line
       class="cls-4"
       x1="34.02"
       y1="280.61"
       x2="74.46"
       y2="280.61"
       id="line5202" />
    <line
       class="cls-4"
       x1="46.25"
       y1="298.24"
       x2="46.25"
       y2="280.61"
       id="line5204" />
    <line
       class="cls-4"
       x1="37.56"
       y1="269.49"
       x2="57.77"
       y2="269.49"
       id="line5206" />
    <line
       class="cls-4"
       x1="42.17"
       y1="257.74"
       x2="81.52"
       y2="257.74"
       id="line5208" />
    <line
       class="cls-4"
       x1="72.63"
       y1="269.49"
       x2="72.63"
       y2="257.74"
       id="line5210" />
    <line
       class="cls-4"
       x1="47"
       y1="269.49"
       x2="47"
       y2="257.74"
       id="line5212" />
    <line
       class="cls-4"
       x1="65.88"
       y1="257.74"
       x2="65.88"
       y2="245.99"
       id="line5214" />
    <line
       class="cls-4"
       x1="56.33"
       y1="221.67"
       x2="81.52"
       y2="221.67"
       id="line5216" />
    <line
       class="cls-4"
       x1="59.94"
       y1="212.49"
       x2="81.52"
       y2="212.49"
       id="line5218" />
    <line
       class="cls-4"
       x1="63.93"
       y1="202.34"
       x2="81.52"
       y2="202.34"
       id="line5220" />
    <line
       class="cls-4"
       x1="67.75"
       y1="192.61"
       x2="81.52"
       y2="192.61"
       id="line5222" />
    <line
       class="cls-4"
       x1="63.93"
       y1="221.67"
       x2="63.93"
       y2="212.49"
       id="line5224" />
    <line
       class="cls-4"
       x1="75.88"
       y1="221.67"
       x2="75.88"
       y2="212.49"
       id="line5226" />
    <line
       class="cls-4"
       x1="57.77"
       y1="245.99"
       x2="57.77"
       y2="234.74"
       id="line5228" />
    <line
       class="cls-4"
       x1="68.38"
       y1="234.74"
       x2="68.38"
       y2="221.67"
       id="line5230" />
    <line
       class="cls-4"
       x1="74.46"
       y1="245.99"
       x2="74.46"
       y2="234.74"
       id="line5232" />
    <line
       class="cls-4"
       x1="94.17"
       y1="136.74"
       x2="94.17"
       y2="148.74"
       id="line5234" />
    <line
       class="cls-4"
       x1="135.58"
       y1="136.74"
       x2="135.58"
       y2="147.91"
       id="line5236" />
    <line
       class="cls-4"
       x1="72.63"
       y1="192.86"
       x2="72.63"
       y2="202.34"
       id="line5238" />
  </g>
  <g
     id="Layer_6"
     data-name="Layer 6">
    <polyline
       class="cls-5"
       points="403.5 181.99 413.5 181.99 451 278.49 451 297.99 418.75 298.24"
       id="polyline5241" />
    <path
       class="cls-5"
       d="M784,418.75v17.5H733c2.54-58-31.54-63.67-42-64v0s-52.39.13-42.34,63H594v-16.5L627.52,334,616,317.75V291h27v11h26V291h34v11h26V291h28v26.75L747.5,334Z"
       transform="translate(-445.5 -119.26)"
       id="path5243" />
    <polyline
       class="cls-5"
       points="147.53 307.74 63.27 307.74 63.27 298.24 81.53 269.49 81.53 123.74 71.78 111.99 71.78 98.49 89.28 98.49 89.28 111.99 104.53 111.99 104.53 98.49 124.78 98.49 124.78 112.49 142.53 112.49 142.53 98.49 158.03 98.49 158.03 111.49 149.03 125.49 149.03 159.99 163.03 159.99 163.03 145.74 182.53 145.74 182.53 160.74 199.03 160.74 199.03 145.74 217.53 145.74 217.53 160.74 233.03 160.74 233.03 145.24 243.51 145.24 242.51 145.24 253 145.24 253 160.74 268.5 160.74 268.5 144.74 286 144.74 286 160.74 301.5 160.74 301.5 145.74 320 145.74 320 159.99 333 159.99 333 125.49 320 111.49 320 98.49 338.5 98.49 338.5 112.49 356.25 112.49 356.25 98.49 376.5 98.49 376.5 111.99 392.75 111.99 392.75 98.49 413.25 98.49 413.25 111.99 403.5 123.74 403.5 269.49 418.75 298.24 418.75 307.74 338.5 307.74"
       id="polyline5245" />
    <polyline
       class="cls-5"
       points="81.53 182.99 71.53 182.99 34.02 278.49 34.02 297.99 63.27 298.24"
       id="polyline5247" />
    <polyline
       class="cls-5"
       points="159.87 270.79 149.67 270.79 149.67 159.99"
       id="polyline5249" />
    <polyline
       class="cls-5"
       points="325.87 270.15 333 270.15 333 159.99"
       id="polyline5251" />
  </g>
  <g
     id="Layer_7"
     data-name="Layer 7">
    <path
       d="M636,365.25s-2.5-17.5,7.88-17.37,7,17.38,7,17.38Z"
       transform="translate(-445.5 -119.26)"
       id="path5254" />
    <path
       d="M722.5,365.25s-2.5-17.5,7.88-17.37,7,17.38,7,17.38Z"
       transform="translate(-445.5 -119.26)"
       id="path5256" />
    <path
       class="cls-6"
       d="M801.84,335.75s-3.19-27.19,10.06-27,8.94,27,8.94,27Z"
       transform="translate(-445.5 -119.26)"
       id="path5258" />
    <path
       class="cls-6"
       d="M803.29,279.48s-2.71-23.11,8.55-22.95,7.6,22.95,7.6,22.95Z"
       transform="translate(-445.5 -119.26)"
       id="path5260" />
    <path
       class="cls-6"
       d="M551.17,335.75s-3.19-27.19,10.06-27,8.94,27,8.94,27Z"
       transform="translate(-445.5 -119.26)"
       id="path5262" />
    <path
       class="cls-6"
       d="M552.62,279.48s-2.71-23.11,8.55-22.95,7.6,22.95,7.6,22.95Z"
       transform="translate(-445.5 -119.26)"
       id="path5264" />
  </g>
  <g
     id="Layer_4"
     data-name="Layer 4">
    <path
       class="cls-7"
       d="M927,120.76V326.6a313.88,313.88,0,0,1-2.28,38c-.11.93-.24,1.86-.36,2.79s-.24,1.86-.39,2.79c-.46,3.37-1,6.69-1.6,10-.07.44-.15.87-.23,1.31-.16.8-.29,1.6-.45,2.4s-.34,1.79-.51,2.69l-.45,2.22-.24,1.15c-.15.71-.3,1.44-.46,2.15-.54,2.37-1.07,4.71-1.61,7l-.1.38-.48,1.94-.52,2q-1.53,5.88-3.27,11.61c-.29,1-.59,1.94-.9,2.92l-.6,1.88c-.2.63-.4,1.24-.61,1.86-.37,1.09-.73,2.17-1.1,3.25s-.68,2-1,3c-.47,1.28-.93,2.56-1.39,3.81-.36,1-.73,2-1.11,3l-.19.5c-.43,1.14-.87,2.25-1.32,3.36s-.87,2.17-1.31,3.2c0,.15-.12.28-.18.42-.4,1-.8,2-1.25,3s-.76,1.75-1.13,2.62l-.66,1.49c-.48,1.07-1,2.11-1.44,3.15s-.9,2-1.36,2.93l-1,2.12c-.29.63-.6,1.25-.91,1.87-.63,1.33-1.31,2.64-2,4q-2.52,5-5.19,9.77l-2,3.57-.12.21c-1.42,2.47-2.86,4.92-4.33,7.33-.71,1.2-1.46,2.4-2.18,3.54-.11.16-.2.32-.3.47-.55.89-1.12,1.78-1.69,2.66l-.65,1c-.65,1-1.31,2-2,3l-.13.18c-.65,1-1.31,2-2,3l-.45.67q-2.25,3.29-4.54,6.46l-.31.43c-.8,1.07-1.54,2.14-2.31,3.19s-1.66,2.23-2.5,3.32c-1.52,2-3.06,4-4.61,6l-.81,1q-1.09,1.39-2.22,2.76L854,524.61l-.57.69c-.8.94-1.6,1.87-2.41,2.8q-2.82,3.32-5.72,6.53c-.75.85-1.52,1.69-2.29,2.51s-1.47,1.6-2.22,2.4q-3,3.2-5.93,6.24-2.76,2.82-5.53,5.59c-.92.91-1.84,1.82-2.76,2.71s-1.85,1.78-2.79,2.66l-2.28,2.12c-.68.65-1.36,1.28-2,1.91a449.24,449.24,0,0,1-61.76,47.47c-.86.55-1.72,1.1-2.57,1.6q-6.43,4.06-12.47,7.63l-2.41,1.4-2.36,1.37-2.33,1.34-2.23,1.29c-8.34,4.68-15.9,8.59-22.38,11.76l-1.6.8c-10.64,5.15-18.12,8.22-21,9.35l-.42.17-.61.24-.14,0h-.08l-.23-.09-.21,0-1.07-.42-.54-.23c-.87-.34-2-.8-3.37-1.38l-.46-.18c-1.76-.8-3.89-1.67-6.33-2.77l-1.39-.61Q659,632.93,645,625.26q-5.66-3.06-11.22-6.32c-.8-.44-1.6-.92-2.35-1.38q-6.9-4.07-13.65-8.37-16-10.18-31.13-21.61l-2.63-2c-1-.75-2-1.51-2.94-2.29l-2.81-2.21c-6.19-4.92-12.43-10.15-18.64-15.69L558.08,564q-2.31-2.05-4.59-4.2l-1.67-1.57L550,556.54l-2-1.94c-1.12-1.07-2.23-2.17-3.33-3.27-.85-.79-1.69-1.66-2.52-2.5l-.24-.26c-.84-.83-1.67-1.67-2.5-2.51-.66-.68-1.32-1.36-2-2l-2-2.06-.13-.15-2.1-2.25q-3.36-3.6-6.66-7.36c-.68-.79-1.36-1.54-2.05-2.34-.57-.65-1.12-1.29-1.66-1.94q-1-1.2-2-2.4-4.28-5.1-8.39-10.48c-.76-1-1.5-1.93-2.24-2.92-1.89-2.47-3.73-5-5.57-7.55-.55-.8-1.12-1.59-1.68-2.39-.13-.16-.24-.34-.36-.5-.59-.86-1.19-1.7-1.77-2.56-.94-1.38-1.89-2.77-2.81-4.17-.74-1.09-1.47-2.2-2.19-3.31a1,1,0,0,0-.15-.24l-2.22-3.48-.22-.36c-.7-1.14-1.41-2.27-2.1-3.4s-1.49-2.46-2.21-3.71c-.4-.69-.8-1.36-1.2-2-.26-.44-.51-.88-.77-1.34l-.16-.29q-4.61-8-8.77-16.46c-.35-.69-.69-1.38-1-2.09-.22-.44-.44-.88-.65-1.35-.43-.87-.8-1.74-1.25-2.63a25.91,25.91,0,0,1-1.15-2.47l-.23-.48c-.27-.58-.53-1.16-.81-1.75l-.26-.57c-.27-.59-.52-1.19-.8-1.78q-1.44-3.25-2.79-6.57c-.42-1-.8-2-1.23-3.08-.1-.25-.21-.52-.31-.79-.4-1-.8-2-1.16-3s-.69-1.82-1-2.74l-.24-.65c-.17-.44-.33-.91-.49-1.35q-1-2.7-1.9-5.44c-.21-.6-.4-1.2-.6-1.8-.26-.8-.51-1.54-.75-2.32-.14-.41-.27-.8-.4-1.22-.25-.8-.49-1.59-.75-2.39-.31-1-.61-2.06-.92-3.11-.09-.29-.17-.58-.26-.87s-.21-.71-.31-1.08c-.37-1.29-.74-2.58-1.09-3.89-.19-.68-.37-1.35-.55-2-.13-.5-.27-1-.4-1.51-.32-1.22-.62-2.45-.92-3.7-.18-.7-.34-1.4-.52-2.11-.07-.28-.13-.56-.19-.85-.37-1.55-.72-3.11-1.07-4.69-.26-1.16-.5-2.33-.74-3.5-.13-.71-.29-1.43-.42-2.14s-.32-1.59-.48-2.45a1.86,1.86,0,0,0-.09-.47c-.16-.8-.3-1.64-.45-2.48s-.32-1.84-.48-2.77-.29-1.8-.45-2.71q-.86-5.52-1.55-11.18A312.7,312.7,0,0,1,447,326.58V120.76Z"
       transform="translate(-445.5 -119.26)"
       id="path5267" />
  </g>
  <path
     id="shine"
     d="M 1.5800453,0.6840319 V 207.06091 c 0,229.66454 239.9199947,319.6031 239.9199947,319.6031 0,0 239.92,-89.93856 239.92,-319.6031 V 0.6840319 Z"
     style="fill:url(#rg);stroke:#000000;stroke-width:2.41218" />
</svg>
