<?xml version="1.0" encoding="UTF-8" standalone="no"?>
<!-- Generator: Adobe Illustrator 21.0.0, SVG Export Plug-In . SVG Version: 6.00 Build 0)  -->

<svg
   version="1.1"
   id="Layer_1"
   x="0px"
   y="0px"
   viewBox="0 0 483 527.5"
   style="enable-background:new 0 0 483 527.5;"
   xml:space="preserve"
   sodipodi:docname="House Hastwyck.svg"
   inkscape:version="1.2.1 (9c6d41e410, 2022-07-14)"
   xmlns:inkscape="http://www.inkscape.org/namespaces/inkscape"
   xmlns:sodipodi="http://sodipodi.sourceforge.net/DTD/sodipodi-0.dtd"
   xmlns="http://www.w3.org/2000/svg"
   xmlns:svg="http://www.w3.org/2000/svg"><defs
   id="defs6062"><radialGradient
     id="rg"
     gradientUnits="userSpaceOnUse"
     cx="220"
     cy="220"
     r="405"
     gradientTransform="matrix(0.80510068,0,0,0.80302287,-0.13019944,-0.8370176)"><stop
       style="stop-color:#ffffff;stop-opacity:.3"
       offset="0"
       id="stop753" /><stop
       style="stop-color:#ffffff;stop-opacity:.2"
       offset=".2"
       id="stop755" /><stop
       style="stop-color:#666666;stop-opacity:.1"
       offset=".6"
       id="stop757" /><stop
       style="stop-color:#000000;stop-opacity:.13"
       offset="1"
       id="stop759" /></radialGradient></defs><sodipodi:namedview
   id="namedview6060"
   pagecolor="#ffffff"
   bordercolor="#000000"
   borderopacity="0.25"
   inkscape:showpageshadow="2"
   inkscape:pageopacity="0.0"
   inkscape:pagecheckerboard="0"
   inkscape:deskcolor="#d1d1d1"
   showgrid="false"
   inkscape:zoom="1.1219874"
   inkscape:cx="172.90746"
   inkscape:cy="270.94777"
   inkscape:window-width="1920"
   inkscape:window-height="1017"
   inkscape:window-x="-8"
   inkscape:window-y="-8"
   inkscape:window-maximized="1"
   inkscape:current-layer="Layer_1" />
<style
   type="text/css"
   id="style6041">
	.st0{fill:#FFFFFF;}
	.st1{fill:#767600;}
	.st2{fill:none;stroke:#000000;stroke-width:3;}
</style>
<title
   id="title6043">House Hastwyck</title>
<g
   id="Layer_2">
	<path
   class="st0"
   d="M481.5,1.5V208c0,1.4,0,2.8,0,4.2c0,0.2,0,0.4,0,0.6c0,0.9,0,1.8-0.1,2.8c0,1.1-0.1,2.2-0.1,3.2   c-0.1,2.5-0.2,5.1-0.4,7.6c-0.2,3.8-0.5,7.6-0.9,11.4c-0.1,1-0.2,2.1-0.3,3.1c-0.2,1.5-0.3,2.9-0.5,4.4c0,0,0,0,0,0   c-0.1,0.9-0.2,1.9-0.4,2.8c0,0.2,0,0.4-0.1,0.6c0,0.3-0.1,0.5-0.1,0.8c-0.1,0.5-0.1,0.9-0.2,1.4c0,0,0,0,0,0   c-0.2,1.7-0.5,3.4-0.8,5c-0.3,1.7-0.6,3.3-0.9,5c-0.1,0.4-0.1,0.9-0.2,1.3c-0.2,0.8-0.3,1.6-0.5,2.4c-0.2,0.8-0.3,1.8-0.5,2.7   l0,0.2l-0.4,2l-0.2,1.2c-0.1,0.7-0.3,1.4-0.5,2.2c-0.5,2.4-1.1,4.7-1.6,7l-0.6,2.3l-0.5,2c-1,3.9-2.1,7.8-3.3,11.6   c-0.3,1-0.6,1.9-0.9,2.9l-0.6,1.9c-0.2,0.6-0.4,1.3-0.6,1.9l-1.1,3.3c-0.4,1.1-0.7,2-1,3c-0.5,1.3-0.9,2.5-1.4,3.8   c-0.4,1-0.7,2-1.1,3l-0.2,0.5c-0.4,1.1-0.9,2.3-1.3,3.4s-0.9,2.2-1.3,3.2c0,0.1-0.1,0.3-0.2,0.4c-0.4,1-0.8,2-1.3,3   s-0.8,1.8-1.1,2.6l-0.7,1.5c-0.2,0.5-0.5,1-0.7,1.6c-0.1,0.3-0.3,0.5-0.4,0.8c-0.1,0.3-0.2,0.5-0.4,0.8c-0.3,0.6-0.5,1.1-0.8,1.6   c-0.2,0.5-0.4,0.9-0.6,1.3l-1,2.1c-0.3,0.6-0.6,1.3-0.9,1.9c-0.6,1.3-1.3,2.6-2,4c-1.7,3.3-3.4,6.6-5.2,9.8l-2,3.6l-0.1,0.2v0   c-1.4,2.5-2.9,4.9-4.3,7.3c-0.4,0.6-0.7,1.2-1.1,1.8c-0.4,0.6-0.7,1.2-1.1,1.8c-0.1,0.1-0.1,0.2-0.2,0.2c0,0.1-0.1,0.1-0.1,0.2   c-0.6,0.9-1.1,1.8-1.7,2.7l-0.7,1c-0.6,1-1.3,2-2,3l-0.1,0.2c-0.7,1-1.3,2-2,3l-0.4,0.7c-1.5,2.2-3,4.3-4.5,6.5l-0.3,0.4   c-0.8,1.1-1.5,2.1-2.3,3.2s-1.7,2.2-2.5,3.3c-1.5,2-3.1,4-4.6,6l-0.8,1c-0.2,0.3-0.4,0.5-0.6,0.7c-0.5,0.7-1.1,1.4-1.6,2l-2.2,2.6   l-0.6,0.7l-2.4,2.8c-1.9,2.2-3.8,4.4-5.7,6.5c-0.4,0.4-0.8,0.8-1.1,1.3c-0.1,0.1-0.2,0.3-0.4,0.4c-0.3,0.3-0.5,0.6-0.8,0.9   l-2.2,2.4c-2,2.1-4,4.2-5.9,6.2c-1.8,1.9-3.7,3.8-5.5,5.6c-0.9,0.9-1.8,1.8-2.8,2.7s-1.8,1.8-2.8,2.7l-2.3,2.1   c-0.5,0.5-1,0.9-1.5,1.4c-0.1,0.1-0.2,0.2-0.3,0.2c-0.1,0.1-0.2,0.2-0.3,0.2c-1.2,1.1-2.4,2.2-3.6,3.3c-1.2,1.1-2.4,2.2-3.7,3.2   c-1.2,1.1-2.4,2.1-3.6,3.2c-2.5,2.1-5,4.2-7.5,6.3c-1,0.8-1.9,1.6-2.9,2.4c-0.5,0.4-1,0.8-1.5,1.3c-1,0.8-2.1,1.7-3.1,2.5   c-1.9,1.5-3.8,2.9-5.7,4.4c0,0,0,0,0,0c-0.7,0.6-1.5,1.1-2.2,1.7c-0.8,0.6-1.5,1.1-2.3,1.7c-0.8,0.6-1.6,1.2-2.4,1.8   c-1,0.7-2,1.4-2.9,2.1c-6.6,4.7-13.3,9.3-20.2,13.7c-0.9,0.6-1.7,1.1-2.6,1.6c-4.3,2.7-8.4,5.3-12.5,7.6l-2.4,1.4l-2.4,1.4   l-2.3,1.3l-2.2,1.3c-8.3,4.7-15.9,8.6-22.4,11.8l-1.6,0.8c-10.6,5.1-18.1,8.2-21,9.3l-0.4,0.2l-0.6,0.2l0,0l-0.1,0h-0.1l-0.2-0.1   h-0.2l-1.1-0.4l-0.5-0.2c-0.9-0.3-2-0.8-3.4-1.4l-0.5-0.2c-1.8-0.8-3.9-1.7-6.3-2.8l-1.4-0.6c-13.6-6.2-26.9-13.1-39.7-20.6   c-0.8-0.5-1.6-0.9-2.4-1.4c-15.5-9.1-30.4-19.2-44.8-30l-0.4-0.3l-2.2-1.7c-1-0.8-2-1.5-3-2.3l-2.8-2.2   c-6.2-4.9-12.4-10.1-18.6-15.7l-1.5-1.4c-1.5-1.4-3.1-2.8-4.6-4.2l-1.7-1.6l-1.8-1.7l-2-1.9c-0.6-0.5-1.1-1.1-1.7-1.6   c-0.6-0.5-1.1-1.1-1.7-1.6c-0.2-0.2-0.4-0.4-0.6-0.6c-0.2-0.2-0.4-0.4-0.6-0.6c-0.2-0.2-0.4-0.4-0.6-0.6c-0.2-0.2-0.4-0.4-0.6-0.6   l-0.2-0.3c-0.8-0.8-1.7-1.7-2.5-2.5c-0.2-0.2-0.3-0.3-0.5-0.5c-0.2-0.2-0.3-0.3-0.5-0.5c-0.3-0.3-0.7-0.7-1-1h0l-2-2.1l-0.1-0.1   l0,0l-2.1-2.2c-0.5-0.5-0.9-1-1.4-1.5c-0.3-0.4-0.7-0.7-1-1.1c-0.6-0.6-1.2-1.3-1.8-1.9c-0.9-0.9-1.7-1.9-2.5-2.8   c-0.2-0.2-0.4-0.4-0.5-0.6c-0.2-0.2-0.3-0.4-0.5-0.5c-0.3-0.4-0.7-0.8-1-1.2c-0.6-0.7-1.1-1.3-1.7-1.9l-2-2.4   c-1.5-1.8-3.1-3.7-4.6-5.6c-1.3-1.6-2.6-3.2-3.8-4.9c-0.8-1-1.5-1.9-2.2-2.9c-1.9-2.5-3.7-5-5.6-7.6l-1.7-2.4   c-0.1-0.2-0.2-0.3-0.4-0.5c-0.6-0.9-1.2-1.7-1.8-2.6c-1-1.4-1.9-2.8-2.8-4.2c-0.7-1.1-1.5-2.2-2.2-3.3l-0.2-0.2l-2.2-3.5   c-0.1-0.1-0.1-0.2-0.2-0.4c-0.7-1.1-1.4-2.3-2.1-3.4s-1.5-2.5-2.2-3.7c-0.7-1.2-1.4-2.4-2.1-3.7c-0.6-1.1-1.2-2.1-1.8-3.2   c-0.3-0.5-0.6-1-0.8-1.5c-0.3-0.4-0.5-0.9-0.7-1.3c-0.2-0.4-0.5-0.8-0.7-1.3c-0.7-1.3-1.4-2.6-2.1-4c-0.6-1.1-1.2-2.3-1.8-3.5   c-0.2-0.3-0.3-0.6-0.5-0.9c-0.1-0.3-0.3-0.5-0.4-0.8c-0.3-0.7-0.7-1.4-1-2.1c0,0,0-0.1,0-0.1c-0.2-0.4-0.4-0.8-0.6-1.3   c0,0,0,0,0-0.1c-0.4-0.9-0.8-1.7-1.3-2.6c0,0,0-0.1,0-0.1h0c-0.4-0.7-0.7-1.5-1-2.3l0-0.1l-0.2-0.4c-0.3-0.6-0.5-1.2-0.8-1.8   l-0.3-0.6c-0.3-0.6-0.5-1.2-0.8-1.8c-0.2-0.4-0.3-0.7-0.5-1.1c-0.1-0.3-0.3-0.7-0.4-1c-0.3-0.7-0.6-1.3-0.9-2   c0-0.1-0.1-0.2-0.1-0.3c-0.3-0.7-0.6-1.5-0.9-2.2c-0.4-1-0.8-2-1.2-3.1c-0.1-0.3-0.2-0.5-0.3-0.8c-0.4-1-0.8-2-1.2-3   c-0.4-1-0.7-1.8-1-2.7l-0.2-0.7c-0.2-0.5-0.3-0.9-0.5-1.4c-0.7-1.8-1.3-3.6-1.9-5.4c-0.2-0.6-0.4-1.2-0.6-1.8   c-0.3-0.8-0.5-1.5-0.8-2.3c-0.1-0.4-0.3-0.8-0.4-1.2c-0.3-0.8-0.5-1.6-0.8-2.4c-0.3-1-0.6-2.1-0.9-3.1c-0.2-0.6-0.4-1.3-0.6-2   c-0.4-1.3-0.7-2.6-1.1-3.9c-0.2-0.7-0.4-1.3-0.5-2c-0.1-0.5-0.3-1-0.4-1.5c-0.3-1.2-0.6-2.5-0.9-3.7c-0.2-0.7-0.3-1.4-0.5-2.1   c-0.1-0.3-0.1-0.6-0.2-0.9c-0.4-1.5-0.7-3.1-1.1-4.7c-0.3-1.2-0.5-2.3-0.7-3.5c-0.1-0.6-0.2-1.2-0.4-1.8c0-0.1,0-0.3-0.1-0.4   c-0.1-0.7-0.3-1.6-0.5-2.4c0-0.2-0.1-0.3-0.1-0.5c-0.1-0.8-0.3-1.6-0.5-2.5c-0.1-0.8-0.3-1.8-0.5-2.8s-0.3-1.8-0.5-2.7   c-0.6-3.7-1.1-7.4-1.6-11.2c-1.2-9.4-1.9-18.8-2.3-28.3c0-0.9-0.1-1.9-0.1-2.8c0-0.5,0-1,0-1.5c0-0.6,0-1.2,0-1.8   c0-1.2,0-2.3,0-3.4V1.5H481.5z"
   id="path6045" />
</g>
<rect
   x="1.5"
   y="1.5"
   class="st1"
   width="480"
   height="67.1"
   id="rect6048" />
<rect
   x="1.5"
   y="134.4"
   class="st1"
   width="480"
   height="67.3"
   id="rect6050" />
<path
   class="st1"
   d="M475.6,267.5l-0.4,2l-0.2,1.2c-0.1,0.7-0.3,1.4-0.5,2.1c-0.5,2.4-1.1,4.7-1.6,7l-0.6,2.3l-0.5,2  c-1,3.9-2.1,7.8-3.3,11.6c-0.2,0.6-0.4,1.2-0.5,1.8c-0.1,0.4-0.2,0.8-0.3,1.2l-0.6,1.9c-0.2,0.6-0.4,1.2-0.6,1.9  c-0.4,1.1-0.7,2.2-1.1,3.3c-0.4,1.1-0.7,2-1,3c-0.5,1.3-0.9,2.6-1.4,3.8c-0.4,1-0.7,2-1.1,3l-0.2,0.5c-0.4,1.1-0.9,2.3-1.3,3.4  s-0.9,2.2-1.3,3.2c0,0.1-0.1,0.3-0.2,0.4c-0.4,1-0.8,2-1.3,3c-0.5,1-0.8,1.8-1.1,2.6l-0.7,1.5c-0.2,0.5-0.5,1-0.7,1.5  c-0.1,0.3-0.3,0.5-0.4,0.8c-0.1,0.3-0.2,0.5-0.3,0.8c-0.2,0.6-0.5,1.1-0.7,1.6H29.5c-0.4-0.8-0.8-1.5-1.1-2.3l-0.2-0.4l0-0.1  c-0.3-0.6-0.5-1.2-0.8-1.8l-0.3-0.6c-0.3-0.6-0.5-1.2-0.8-1.8c-0.1-0.3-0.3-0.6-0.4-1c-0.1-0.3-0.3-0.7-0.4-1  c-0.3-0.7-0.6-1.3-0.9-2c0-0.1-0.1-0.2-0.1-0.3c-0.3-0.8-0.7-1.5-1-2.3c-0.4-1-0.8-2-1.2-3.1c-0.1-0.3-0.2-0.5-0.3-0.8  c-0.4-1-0.8-2-1.2-3s-0.7-1.8-1-2.7l-0.2-0.7c-0.2-0.4-0.3-0.9-0.5-1.3c-0.7-1.8-1.3-3.6-1.9-5.4c-0.2-0.6-0.4-1.2-0.6-1.8  c-0.3-0.8-0.5-1.5-0.8-2.3c-0.1-0.4-0.3-0.8-0.4-1.2c-0.1-0.4-0.3-0.9-0.4-1.4c-0.1-0.5-0.2-0.7-0.3-1c-0.3-1-0.6-2.1-0.9-3.1  c-0.2-0.6-0.4-1.3-0.6-1.9c-0.4-1.3-0.7-2.6-1.1-3.9c-0.2-0.7-0.4-1.4-0.6-2c-0.1-0.5-0.3-1-0.4-1.5c-0.3-1.2-0.6-2.5-0.9-3.7  c-0.2-0.7-0.3-1.4-0.5-2.1c-0.1-0.3-0.1-0.6-0.2-0.9c-0.4-1.5-0.7-3.1-1.1-4.7c-0.3-1.2-0.5-2.3-0.7-3.5c-0.1-0.6-0.2-1.2-0.3-1.8  H475.6z"
   id="path6052" />
<path
   class="st1"
   d="M412.4,400.7c-0.5,0.7-1.1,1.4-1.7,2l-2.2,2.6l-0.6,0.7c-0.8,0.9-1.6,1.9-2.4,2.8c-1.9,2.2-3.8,4.4-5.7,6.5  l-0.3,0.4c-0.3,0.3-0.5,0.6-0.8,0.9c-0.1,0.1-0.2,0.3-0.4,0.4c-0.3,0.3-0.5,0.6-0.8,0.9l-2.2,2.4c-2,2.1-4,4.2-5.9,6.2  c-1.8,1.9-3.7,3.8-5.5,5.6c-0.9,0.9-1.8,1.8-2.8,2.7s-1.8,1.8-2.8,2.7l-2.3,2.1c-0.5,0.5-1,0.9-1.5,1.4c-0.1,0.1-0.2,0.2-0.3,0.2  c-0.1,0.1-0.2,0.2-0.3,0.3c-1.2,1.1-2.4,2.2-3.6,3.3c-1.2,1.1-2.4,2.2-3.7,3.2c-1.2,1.1-2.4,2.1-3.6,3.2c-2.5,2.1-5,4.2-7.5,6.3  c-1,0.8-1.9,1.6-2.9,2.4c-0.5,0.4-1,0.8-1.5,1.3c-1,0.8-2.1,1.7-3.1,2.5c-1.9,1.5-3.8,3-5.7,4.4c0,0,0,0,0,0H140.7l-2.2-1.7  c-1-0.8-2-1.5-3-2.3l-2.8-2.2c-6.2-4.9-12.4-10.1-18.6-15.7l-1.5-1.4c-1.5-1.4-3.1-2.8-4.6-4.2l-1.7-1.6l-1.8-1.7l-2-1.9  c-0.6-0.5-1.1-1.1-1.7-1.6c-0.6-0.5-1.1-1.1-1.7-1.6c-0.2-0.2-0.4-0.4-0.6-0.6c-0.2-0.2-0.4-0.4-0.6-0.6c-0.2-0.2-0.4-0.4-0.6-0.6  c-0.2-0.2-0.4-0.4-0.6-0.6l-0.2-0.3c-0.8-0.8-1.7-1.7-2.5-2.5c-0.2-0.2-0.3-0.3-0.5-0.5c-0.2-0.2-0.3-0.3-0.5-0.5  c-0.3-0.3-0.7-0.7-1-1h0l-2-2.1l-0.1-0.1l0,0l-2.1-2.2c-0.5-0.5-0.9-1-1.4-1.5c-0.3-0.4-0.7-0.7-1-1.1c-0.6-0.6-1.2-1.3-1.8-1.9  c-0.9-0.9-1.7-1.9-2.5-2.8c-0.2-0.2-0.4-0.4-0.5-0.6c-0.2-0.2-0.3-0.4-0.5-0.5c-0.3-0.4-0.7-0.8-1-1.2c-0.6-0.7-1.1-1.3-1.7-1.9  c-0.7-0.8-1.3-1.6-2-2.4c-1.5-1.8-3.1-3.7-4.6-5.6H412.4z"
   id="path6054" />
<g
   id="Layer_3">
	<path
   class="st2"
   d="M481.5,1.5V208c0,1.4,0,2.8,0,4.2c0,0.2,0,0.4,0,0.6c0,0.9,0,1.8-0.1,2.8c0,1.1-0.1,2.2-0.1,3.2   c-0.1,2.5-0.2,5.1-0.4,7.6c-0.2,3.8-0.5,7.6-0.9,11.4c-0.1,1-0.2,2.1-0.3,3.1c-0.2,1.5-0.3,2.9-0.5,4.4c0,0,0,0,0,0   c-0.1,0.9-0.2,1.9-0.4,2.8c0,0.2,0,0.4-0.1,0.6c0,0.3-0.1,0.5-0.1,0.8c-0.1,0.5-0.1,0.9-0.2,1.4c0,0,0,0,0,0   c-0.2,1.7-0.5,3.4-0.8,5c-0.3,1.7-0.5,3.3-0.8,5c-0.1,0.4-0.2,0.9-0.2,1.3c-0.2,0.8-0.3,1.6-0.5,2.4c-0.2,0.8-0.3,1.8-0.5,2.7   l0,0.2l-0.4,2l-0.2,1.2c-0.1,0.7-0.3,1.4-0.5,2.1c-0.5,2.4-1.1,4.7-1.6,7l-0.6,2.3l-0.5,2c-1,3.9-2.1,7.8-3.3,11.6   c-0.2,0.6-0.4,1.2-0.5,1.8c-0.1,0.4-0.2,0.8-0.3,1.2l-0.6,1.9c-0.2,0.6-0.4,1.2-0.6,1.9c-0.4,1.1-0.7,2.2-1.1,3.3   c-0.4,1.1-0.7,2-1,3c-0.5,1.3-0.9,2.6-1.4,3.8c-0.4,1-0.7,2-1.1,3l-0.2,0.5c-0.4,1.1-0.9,2.3-1.3,3.4s-0.9,2.2-1.3,3.2   c0,0.1-0.1,0.3-0.2,0.4c-0.4,1-0.8,2-1.3,3c-0.5,1-0.8,1.8-1.1,2.6l-0.7,1.5c-0.2,0.5-0.5,1-0.7,1.5c-0.1,0.3-0.3,0.5-0.4,0.8   c-0.1,0.3-0.2,0.5-0.3,0.8c-0.2,0.6-0.5,1.1-0.7,1.6c-0.2,0.5-0.4,0.9-0.6,1.3l-1,2.1c-0.3,0.6-0.6,1.3-0.9,1.9   c-0.6,1.3-1.3,2.6-2,4c-1.7,3.3-3.4,6.6-5.2,9.8l-1.2,2.2l-0.8,1.4l-0.1,0.2v0c-1.4,2.5-2.9,4.9-4.3,7.3c-0.4,0.6-0.7,1.2-1.1,1.8   c-0.4,0.6-0.7,1.2-1.1,1.8c-0.1,0.1-0.1,0.2-0.2,0.2c0,0.1-0.1,0.1-0.1,0.2c-0.6,0.9-1.1,1.8-1.7,2.7l-0.7,1c-0.7,1-1.3,2-2,3   l-0.1,0.2c-0.6,1-1.3,2-2,3l-0.5,0.7c-1.5,2.2-3,4.3-4.5,6.5l-0.3,0.4c-0.8,1.1-1.5,2.1-2.3,3.2c-0.8,1-1.7,2.2-2.5,3.3   c-1.5,2-3.1,4-4.6,6l-0.8,1c-0.2,0.2-0.4,0.5-0.6,0.7c-0.5,0.7-1.1,1.4-1.7,2l-2.2,2.6l-0.6,0.7c-0.8,0.9-1.6,1.9-2.4,2.8   c-1.9,2.2-3.8,4.4-5.7,6.5l-0.3,0.4c-0.3,0.3-0.5,0.6-0.8,0.9c-0.1,0.1-0.2,0.3-0.4,0.4c-0.3,0.3-0.5,0.6-0.8,0.9   c-0.7,0.7-1.5,1.6-2.2,2.4c-2,2.1-4,4.2-5.9,6.2c-1.8,1.9-3.7,3.7-5.5,5.6c-0.9,0.9-1.8,1.8-2.8,2.7c-0.9,0.9-1.9,1.8-2.8,2.7   l-2.3,2.1c-0.5,0.5-1,0.9-1.5,1.4c-0.1,0.1-0.2,0.2-0.3,0.2c-0.1,0.1-0.2,0.2-0.3,0.3c-1.2,1.1-2.4,2.2-3.6,3.3   c-1.2,1.1-2.4,2.2-3.7,3.2c-1.2,1.1-2.4,2.1-3.6,3.2c-2.5,2.1-5,4.2-7.5,6.3c-1,0.8-1.9,1.6-2.9,2.4c-0.5,0.4-1,0.8-1.5,1.3   c-1,0.8-2.1,1.7-3.1,2.5c-1.9,1.5-3.8,3-5.7,4.4c0,0,0,0,0,0c-0.7,0.6-1.5,1.1-2.2,1.7c-0.8,0.6-1.5,1.1-2.3,1.7   c-0.8,0.6-1.6,1.2-2.4,1.8c-0.4,0.3-0.9,0.7-1.3,1c-0.5,0.4-1.1,0.8-1.6,1.1c-6.6,4.8-13.3,9.3-20.2,13.7c-0.9,0.6-1.7,1.1-2.6,1.6   c-4.3,2.7-8.4,5.3-12.5,7.6l-2.4,1.4l-2.4,1.4l-2.3,1.3l-2.2,1.3c-8.3,4.7-15.9,8.6-22.4,11.8l-1.6,0.8c-10.6,5.2-18.1,8.2-21,9.4   l-0.4,0.2l-0.6,0.2h-0.2l-0.2-0.1h-0.2l-1.1-0.4l-0.5-0.2c-0.9-0.3-2-0.8-3.4-1.4l-0.5-0.2c-1.8-0.8-3.9-1.7-6.3-2.8l-1.4-0.6   c-13.6-6.2-26.9-13.1-39.8-20.6c-0.8-0.4-1.6-0.9-2.3-1.4c-12.7-7.5-25-15.5-36.9-24.1c-2.7-1.9-5.3-3.9-7.9-5.8l-0.4-0.3l-2.3-1.7   c-1-0.8-2-1.5-2.9-2.3l-2.8-2.2c-6.2-4.9-12.4-10.1-18.6-15.7l-1.5-1.4c-1.5-1.4-3.1-2.8-4.6-4.2l-1.7-1.6l-1.8-1.7l-2-1.9   c-0.6-0.5-1.1-1.1-1.7-1.6c-0.5-0.6-1.1-1.1-1.7-1.6c-0.2-0.2-0.4-0.4-0.6-0.6c-0.2-0.2-0.4-0.4-0.6-0.6c-0.2-0.2-0.4-0.4-0.6-0.6   c-0.2-0.2-0.4-0.4-0.6-0.6l-0.2-0.3c-0.8-0.8-1.7-1.7-2.5-2.5c-0.2-0.2-0.3-0.3-0.5-0.5c-0.2-0.2-0.3-0.3-0.5-0.5   c-0.3-0.3-0.7-0.7-1-1l-2-2.1l-0.1-0.1l0,0l-2.1-2.2c-0.5-0.5-0.9-1-1.4-1.5c-0.3-0.4-0.7-0.7-1-1.1c-0.6-0.6-1.2-1.3-1.8-1.9   c-0.8-0.9-1.7-1.9-2.5-2.8c-0.2-0.2-0.4-0.4-0.6-0.6c-0.2-0.2-0.3-0.4-0.5-0.5c-0.3-0.4-0.7-0.8-1-1.2c-0.6-0.7-1.1-1.3-1.7-1.9   c-0.7-0.8-1.3-1.6-2-2.4c-1.5-1.8-3.1-3.7-4.6-5.6c-1.3-1.6-2.5-3.2-3.8-4.9c-0.8-1-1.5-1.9-2.2-2.9c-1.9-2.5-3.7-5-5.6-7.6   c-0.5-0.8-1.1-1.6-1.7-2.4c-0.1-0.2-0.2-0.3-0.4-0.5c-0.6-0.9-1.2-1.7-1.8-2.6c-0.9-1.4-1.9-2.8-2.8-4.2c-0.7-1.1-1.5-2.2-2.2-3.3   c0-0.1-0.1-0.2-0.1-0.2l-2.2-3.5l-0.2-0.4c-0.7-1.1-1.4-2.3-2.1-3.4s-1.5-2.5-2.2-3.7c-0.7-1.3-1.4-2.4-2.1-3.7   c-0.3-0.5-0.6-1-0.9-1.5c-0.3-0.5-0.6-1.1-0.9-1.7c-0.3-0.5-0.6-1-0.8-1.5c-0.3-0.4-0.5-0.9-0.7-1.3c-0.2-0.4-0.5-0.8-0.7-1.3   c-0.7-1.3-1.4-2.6-2.1-4c-0.6-1.1-1.2-2.3-1.8-3.5c-0.2-0.3-0.3-0.6-0.5-0.9c-0.2-0.3-0.3-0.6-0.5-0.9c-0.3-0.7-0.7-1.4-1-2.1   c-0.2-0.4-0.4-0.9-0.7-1.4c-0.4-0.9-0.8-1.7-1.3-2.6c0,0,0-0.1-0.1-0.1c-0.4-0.8-0.8-1.5-1.1-2.3l-0.2-0.4l0-0.1   c-0.3-0.6-0.5-1.2-0.8-1.8l-0.3-0.6c-0.3-0.6-0.5-1.2-0.8-1.8c-0.1-0.3-0.3-0.6-0.4-1c-0.1-0.3-0.3-0.7-0.4-1   c-0.3-0.7-0.6-1.3-0.9-2c0-0.1-0.1-0.2-0.1-0.3c-0.3-0.8-0.7-1.5-1-2.3c-0.4-1-0.8-2-1.2-3.1c-0.1-0.3-0.2-0.5-0.3-0.8   c-0.4-1-0.8-2-1.2-3s-0.7-1.8-1-2.7l-0.2-0.7c-0.2-0.4-0.3-0.9-0.5-1.3c-0.7-1.8-1.3-3.6-1.9-5.4c-0.2-0.6-0.4-1.2-0.6-1.8   c-0.3-0.8-0.5-1.5-0.8-2.3c-0.1-0.4-0.3-0.8-0.4-1.2c-0.1-0.4-0.3-0.9-0.4-1.4c-0.1-0.5-0.2-0.7-0.3-1c-0.3-1-0.6-2.1-0.9-3.1   c-0.2-0.6-0.4-1.3-0.6-1.9c-0.4-1.3-0.7-2.6-1.1-3.9c-0.2-0.7-0.4-1.4-0.6-2c-0.1-0.5-0.3-1-0.4-1.5c-0.3-1.2-0.6-2.5-0.9-3.7   c-0.2-0.7-0.3-1.4-0.5-2.1c-0.1-0.3-0.1-0.6-0.2-0.9c-0.4-1.5-0.7-3.1-1.1-4.7c-0.3-1.2-0.5-2.3-0.7-3.5c-0.1-0.6-0.2-1.2-0.3-1.8   c0-0.1-0.1-0.3-0.1-0.4c-0.1-0.7-0.3-1.6-0.5-2.5c0-0.2,0-0.3-0.1-0.5c-0.2-0.8-0.3-1.6-0.5-2.5c-0.2-0.8-0.3-1.8-0.5-2.8   c-0.2-0.9-0.3-1.8-0.5-2.7c-0.4-2.5-0.7-5-1.1-7.5c-0.2-1.2-0.3-2.5-0.5-3.7c-0.3-2.4-0.5-4.8-0.8-7.2c-0.7-7-1.2-14-1.4-21.1   c0-0.9-0.1-1.9-0.1-2.8c0-0.5,0-1,0-1.5c0-0.6,0-1.2,0-1.8c0-1.2,0-2.3,0-3.4V1.5H481.5z"
   id="path6056" />
</g>
<path
   id="shine"
   d="M 1.4800018,0.7690284 V 207.14591 c 0,229.66454 239.9199982,319.6031 239.9199982,319.6031 0,0 239.92,-89.93856 239.92,-319.6031 V 0.7690284 Z"
   style="fill:url(#rg);stroke:#000000;stroke-width:2.41218" /></svg>
