<?xml version="1.0" encoding="UTF-8" standalone="no"?>
<svg
   viewBox="0 0 483 527.48"
   version="1.1"
   id="svg36921"
   sodipodi:docname="House Hightower HotD.svg"
   inkscape:version="1.2.1 (9c6d41e410, 2022-07-14)"
   xmlns:inkscape="http://www.inkscape.org/namespaces/inkscape"
   xmlns:sodipodi="http://sodipodi.sourceforge.net/DTD/sodipodi-0.dtd"
   xmlns="http://www.w3.org/2000/svg"
   xmlns:svg="http://www.w3.org/2000/svg">
  <sodipodi:namedview
     id="namedview36923"
     pagecolor="#ffffff"
     bordercolor="#000000"
     borderopacity="0.25"
     inkscape:showpageshadow="2"
     inkscape:pageopacity="0.0"
     inkscape:pagecheckerboard="0"
     inkscape:deskcolor="#d1d1d1"
     showgrid="false"
     inkscape:zoom="1"
     inkscape:cx="227"
     inkscape:cy="274"
     inkscape:window-width="1920"
     inkscape:window-height="1017"
     inkscape:window-x="1912"
     inkscape:window-y="-8"
     inkscape:window-maximized="1"
     inkscape:current-layer="svg36921" />
  <defs
     id="defs36798">
    <style
       id="style36796">.cls-1{fill:#4e5c59;}.cls-2{fill:#3aac3d;}.cls-3{fill:#cfccbe;}.cls-4{fill:none;stroke:#000;stroke-width:3px;}</style>
    <radialGradient
       id="rg"
       gradientUnits="userSpaceOnUse"
       cx="220"
       cy="220"
       r="405"
       gradientTransform="matrix(0.80510068,0,0,0.80302287,0.0497988,-0.6429243)">
      <stop
         style="stop-color:#ffffff;stop-opacity:.3"
         offset="0"
         id="stop753" />
      <stop
         style="stop-color:#ffffff;stop-opacity:.2"
         offset=".2"
         id="stop755" />
      <stop
         style="stop-color:#666666;stop-opacity:.1"
         offset=".6"
         id="stop757" />
      <stop
         style="stop-color:#000000;stop-opacity:.13"
         offset="1"
         id="stop759" />
    </radialGradient>
  </defs>
  <title
     id="title36800">Hightower-Shield</title>
  <g
     id="Layer_2"
     data-name="Layer 2">
    <path
       class="cls-1"
       d="M923,121.76V327.6a314.37,314.37,0,0,1-2.28,38c-.11.93-.24,1.86-.36,2.79s-.24,1.86-.39,2.79q-.7,5.05-1.61,10c-.07.44-.15.87-.23,1.31-.15.8-.29,1.6-.45,2.39s-.34,1.8-.51,2.69l-.45,2.22-.24,1.16c-.15.71-.3,1.44-.47,2.15q-.8,3.55-1.61,7l-.58,2.32-.52,2q-1.52,5.88-3.27,11.61c-.29,1-.59,1.94-.9,2.92l-.6,1.88c-.19.63-.39,1.25-.6,1.86l-1.1,3.26c-.37,1.09-.68,2-1,3-.47,1.28-.92,2.55-1.39,3.81-.36,1-.73,2-1.11,3l-.19.49c-.43,1.14-.87,2.25-1.32,3.37s-.87,2.16-1.32,3.19a3.35,3.35,0,0,1-.18.42c-.4,1-.8,2-1.25,3s-.75,1.75-1.13,2.62l-.66,1.49c-.47,1.07-.95,2.12-1.44,3.15s-.9,2-1.36,2.93l-1,2.12c-.3.63-.6,1.25-.91,1.88-.63,1.32-1.31,2.64-2,4q-2.53,5-5.19,9.77l-2,3.57-.11.21q-2.13,3.71-4.33,7.33c-.71,1.2-1.46,2.39-2.18,3.54-.1.16-.19.31-.3.46-.55.89-1.12,1.78-1.69,2.66l-.66,1c-.65,1-1.31,2-2,3l-.13.18c-.66,1-1.32,2-2,3l-.45.67q-2.26,3.28-4.54,6.46l-.31.42c-.8,1.07-1.54,2.14-2.31,3.19s-1.66,2.23-2.5,3.32q-2.29,3-4.61,6l-.8,1c-.73.93-1.48,1.85-2.22,2.76L850,525.61l-.57.69L847,529.1q-2.83,3.32-5.72,6.53c-.75.85-1.52,1.69-2.29,2.51l-2.22,2.39q-3,3.19-5.93,6.24-2.76,2.83-5.53,5.59c-.91.91-1.84,1.82-2.76,2.71s-1.85,1.78-2.78,2.67l-2.28,2.11c-.68.65-1.36,1.28-2.05,1.91a448.64,448.64,0,0,1-61.76,47.47c-.86.55-1.73,1.1-2.58,1.6q-6.42,4.07-12.46,7.63l-2.41,1.4-2.36,1.36-2.34,1.35-2.22,1.28c-8.35,4.68-15.91,8.59-22.38,11.76l-1.61.8c-10.63,5.15-18.11,8.22-21,9.35l-.42.18-.61.23-.14.06h-.08l-.23-.1-.21,0-1.07-.42-.55-.23c-.87-.34-2-.8-3.36-1.38l-.47-.18c-1.76-.8-3.88-1.67-6.33-2.77l-1.39-.61a443.16,443.16,0,0,1-39.74-20.6c-.8-.45-1.61-.92-2.36-1.38a473.14,473.14,0,0,1-44.78-30l-2.62-2c-1-.75-2-1.52-2.95-2.29l-2.81-2.21c-6.19-4.92-12.43-10.15-18.64-15.69L554.08,565q-2.3-2.05-4.59-4.2l-1.67-1.57L546,557.54l-2-1.94c-1.12-1.07-2.24-2.16-3.34-3.26-.84-.8-1.69-1.67-2.52-2.51l-.24-.26q-1.25-1.25-2.5-2.51c-.66-.68-1.32-1.36-2-2l-2-2.07-.13-.15-2.1-2.24q-3.36-3.61-6.66-7.36c-.68-.8-1.36-1.55-2-2.35-.57-.65-1.12-1.28-1.66-1.94l-2-2.39q-4.26-5.11-8.39-10.48-1.13-1.45-2.24-2.92c-1.89-2.47-3.73-5-5.57-7.55l-1.68-2.39c-.13-.16-.24-.34-.36-.5-.59-.85-1.19-1.7-1.77-2.55-.95-1.38-1.89-2.77-2.82-4.17q-1.11-1.64-2.18-3.31l-.15-.24-2.22-3.47c-.07-.13-.15-.24-.22-.37-.71-1.14-1.41-2.27-2.1-3.4s-1.49-2.46-2.21-3.7-1.44-2.39-2.13-3.67q-4.6-8-8.77-16.47c-.35-.69-.69-1.38-1-2.08-.22-.44-.44-.89-.65-1.35-.43-.87-.8-1.75-1.25-2.63a27.17,27.17,0,0,1-1.15-2.47l-.23-.48c-.26-.58-.52-1.16-.8-1.75l-.26-.57c-.26-.58-.52-1.18-.8-1.77q-1.44-3.26-2.78-6.58c-.42-1-.8-2-1.23-3.07-.1-.26-.21-.53-.31-.8-.4-1-.8-2-1.16-3s-.68-1.82-1-2.74l-.23-.65c-.18-.45-.34-.91-.5-1.36q-1-2.69-1.89-5.44c-.21-.6-.4-1.21-.6-1.8-.26-.8-.51-1.54-.75-2.31-.14-.42-.26-.8-.39-1.22-.26-.8-.5-1.6-.75-2.39-.31-1-.61-2.06-.92-3.1-.18-.65-.39-1.28-.57-2-.37-1.28-.74-2.58-1.08-3.89-.19-.68-.37-1.35-.55-2-.13-.5-.26-1-.39-1.51-.32-1.22-.63-2.46-.92-3.7-.18-.7-.35-1.4-.52-2.11-.07-.29-.13-.57-.19-.85-.37-1.55-.71-3.11-1.07-4.69-.26-1.16-.5-2.33-.74-3.5-.14-.71-.29-1.43-.43-2.14s-.32-1.6-.47-2.45a2.13,2.13,0,0,0-.1-.47c-.15-.8-.3-1.64-.45-2.48s-.31-1.84-.47-2.77-.3-1.8-.45-2.71q-.87-5.52-1.56-11.17A314.73,314.73,0,0,1,443,327.58V121.76Z"
       transform="translate(-441.5 -120.26)"
       id="path36802" />
  </g>
  <g
     id="Layer_7"
     data-name="Layer 7"
     transform="translate(0,-6)">
    <path
       class="cls-2"
       d="m 671.42938,279.08839 c 0,0 -21.92938,-2.33839 -31.17938,-13.58839 -9.25,-11.25 -9.5,-45.75 -2,-54.25 7.5,-8.5 15,-21.5 15.25,-24.5 0.25,-3 -0.32418,-4.613 -2.775,-7.75 0,0 15.775,-2.5 11.275,30.75 0,0 5.5,-2.5 6.25,-21 0.75,-18.5 3,-14.25 -0.75,-32.25 -3.75,-18 1,-14.25 1,-14.25 0,0 7.5,20.25 19.25,25.5 11.75,5.25 16.5,18.5 12.5,37.75 0,0 0.25,1.5 8.75,-6.75 8.5,-8.25 22.75,-6.25 22.75,-6.25 0,0 -11.67678,4.01992 -12.67678,7.76992 -1,3.75 -0.0732,23.23008 4.92678,30.98008 5,7.75 1.25,31 -5.75,35.75 -7,4.75 -24.07973,12.29419 -25.32973,12.04419 C 691.67027,278.79419 694.5,277 700,270.75 c 5.5,-6.25 9.25,-19.75 5.5,-27.75 0,0 -2.25,3.75 -3.75,11.75 -1.5,8 -20.81,1.25 -19.4,-9.75 1.41,-11 0.90736,-13.53769 -0.59264,-18.03769 -1.5,-4.5 2.74264,1.78769 -1.50736,7.03769 -4.25,5.25 -8.98223,14.67678 -9.48223,18.17678 C 670.26777,255.67678 667.5,263 666,263 c -1.5,0 -11.25,-18.75 -12,-19.75 -0.75,-1 -2.25,11.75 3,20.25 5.25,8.5 13.13258,13.05936 14.42938,15.58839 z"
       transform="translate(-441.5,-120.26)"
       id="path36805"
       sodipodi:nodetypes="csssccsscscscssssscssssssssc" />
    <path
       class="cls-2"
       d="m 605.5,276.34 c 0,0 -3.83,-0.67 0,0 3.83,0.67 10.5,7.83 20.67,8.17 10.17,0.34 36.665,1.54231 40.665,10.88231 0,0 -8.88856,-6.85608 -19.335,-3.71231 -14.55963,4.3816 -19.61153,5.795 -29.55972,3.625 C 611.55596,293.91239 605.5,276.34 605.5,276.34 Z"
       transform="translate(-441.5,-120.26)"
       id="path36807"
       sodipodi:nodetypes="csscssc" />
    <path
       class="cls-2"
       d="m 635.69,274.11 a 1.92,1.92 0 0 0 -0.81,-2.41 c -3.45,-2.08 -13.68,-9.2 -14.38,-20.69 -0.83,-13.83 0.83,-30 -4.17,-34.83 -5,-4.83 -16.83,-16.17 -17,-19.67 -0.17,-3.5 -4.83,-0.83 -2.33,7.5 2.5,8.33 6.83,9.67 7.17,14.17 0.34,4.5 1,31.83 2.5,38.17 1.5,6.34 12,17.33 17.5,18.5 4.71,0.98 10.16,2.15 11.52,-0.74 z"
       transform="translate(-441.5,-120.26)"
       id="path36809" />
    <path
       class="cls-2"
       d="m 637.17,199.17 c 0,0 1.5,-10.33 0,-12.83 -2.39794,-4.11936 -2.53576,-1.52612 -5.88128,-3.14229 -0.21413,-1.33613 0.61872,-1.32583 -2.67,-2.68356 -0.37,-0.75 -5.94872,-3.67417 -5.94872,-5.17417 0,-1.5 -2.89326,-3.84678 -3.89326,-3.84678 -1,0 -2.26674,4.17678 -0.26674,9.17678 2,5 8,7.67 10.67,10.83 2.67,3.16 5.49,1.67 7.99,7.67 z"
       transform="translate(-441.5,-120.26)"
       id="path36811"
       sodipodi:nodetypes="ccccsssscc" />
    <path
       class="cls-2"
       d="m 598.52,256.08 c 0,0 -1.44,-9.67 -5.27,-13 -3.83,-3.33 -10.25,-12 -11.33,-14.42 -1.30661,-3.11318 -2.39262,-6.31442 -3.25,-9.58 2.705,-7.64849 -3.83,-0.67 -3.5,2 0.33,2.67 -0.42,15.92 0.42,18.33 0.84,2.41 7.2057,5.0509 13.75,8.08 4.7793,2.21215 7.87,12.34 9.18,8.59 z"
       transform="translate(-441.5,-120.26)"
       id="path36815"
       sodipodi:nodetypes="csccsssc" />
    <path
       class="cls-2"
       d="m 712.08,186.75 c 0,0 -2.16031,1.74134 -2.08031,-1.50866 0,0 -0.68086,-2.10186 1.02031,-5.24134 0.22835,0.20264 0.63395,-2.06386 0.72419,-2.35551 0.77226,-2.50415 0.85873,-2.99668 0.33581,-5.56449 -0.95,-4 13.87,-8.36 19.23,-11 0.52468,-0.26475 1.16199,-0.1414 1.55,0.3 0.77,0.89 0,0 -1.11,4.12 -3.92,2.42 -9.23705,7.74366 -11,9.4655 -1.5485,1.51238 -6.5,9.9545 -8.67,11.7845 z"
       transform="translate(-441.5,-120.26)"
       id="path36817"
       sodipodi:nodetypes="ccccccccsc" />
    <path
       class="cls-2"
       d="m 720.75,276.38 c 0,0 6.63,-6 11,-8.12 4.37,-2.12 7,-5.37 7.75,-15.75 0.75,-10.38 0.13,-25.12 2,-29.75 1.87,-4.63 10.13,-19.76 25.63,-25.26 0,0 4.25,2 -3.37,10.63 -6.9,7.81 -6.53,39.68 -6.4,45.66 a 3.18,3.18 0 0 1 -1.16,2.57 9.39,9.39 0 0 1 -3.18,1.54 4.89,4.89 0 0 0 -3.15,3.05 45.4,45.4 0 0 0 -2,8.06 c -1.24,7.62 -24.99,9.62 -27.12,7.37 z"
       transform="translate(-441.5,-120.26)"
       id="path36819" />
    <path
       class="cls-2"
       d="m 768.07,265.85 c -0.62191,0.78009 -1.82753,0.71368 -2.36,-0.13 -2.19159,-3.48823 -3.06408,-7.64497 -2.46,-11.72 1.13,-8.12 7.25,-17.25 11.75,-19.75 4.5,-2.5 9,-12.87 10,-13.75 1,-0.88 1.27827,-7.99533 2,6.63 4.9356,14.76956 -18.60406,24.78128 -18.68833,30.385 0.22,3.17 0.68833,7.105 -0.24167,8.335 z"
       transform="translate(-441.5,-120.26)"
       id="path36821"
       sodipodi:nodetypes="cccssccc" />
    <path
       class="cls-2"
       d="m 700.23,299.05 c -0.72,1.53 -3.25,0 -3,-1.69 0.62,-4.65 4.11,-14.9 14.17,-15.74 13.5,-1.12 31.25,2 35,0 3.75,-2 13.03166,-7.36808 13.13,-9.25 0.255,-4.88 4.38,3.75 -1.75,9.63 -6.13,5.88 -11.27546,11.14777 -11.27546,11.14777 0,0 -2.73926,1.91058 -4.35926,3.16058 C 732.09886,298.7435 718.7379,292.1282 710.54,291.01 c -3.8,-0.41 -8.29,3.74 -10.31,8.04 z"
       transform="translate(-441.5,-120.26)"
       id="path36823"
       sodipodi:nodetypes="cccssscccc" />
  </g>
  <g
     id="Layer_5"
     data-name="Layer 5"
     transform="translate(0,-16)">
    <path
       class="cls-3"
       d="m 308.24,435.99 v 45.26 c 0.002,2.30065 -0.48924,4.57499 -1.44,6.67 0,0 -12.60832,9.31405 -18.81,13.07 l -39,19.75 -7.49,3.69204 v 0 L 234,520.74 195,500.99 c -6.2583,-4.38082 -12.91394,-8.20208 -18.81,-13.07 -0.95076,-2.09501 -1.44177,-4.36935 -1.44,-6.67 v -45.26 c 0,0 -0.75,-5.5 11.75,-5.5 v -64.25 h 110 v 64.25 c 12.49,0 11.74,5.5 11.74,5.5 z"
       id="path36826"
       sodipodi:nodetypes="ccccccccccccccccc" />
    <polygon
       class="cls-3"
       points="303.67,341.07 178.83,341.07 171.17,330.07 311.33,330.07 "
       id="polygon36828"
       transform="translate(0,2)" />
    <polygon
       class="cls-3"
       points="186.33,351.91 181.17,344.91 301.33,344.91 296.17,351.91 296.17,363.74 186.33,363.74 "
       id="polygon36830" />
    <rect
       class="cls-3"
       x="171.17"
       y="312.23999"
       width="140.16"
       height="17.67"
       id="rect36832" />
    <polygon
       class="cls-3"
       points="198.5,270.24 283.33,270.24 283.33,272.57 286.5,272.57 286.5,277.24 285,277.24 285,308.24 196.83,308.24 196.83,277.24 195.33,277.24 195.33,272.57 198.5,272.57 "
       id="polygon36834"
       transform="translate(0,2)" />
    <polygon
       class="cls-3"
       points="284.63,267.62 283.38,270.24 198.5,270.24 197.25,267.62 197.25,233.86 241.5,233.86 284.63,233.87 "
       id="polygon36836" />
    <rect
       class="cls-3"
       x="211.75"
       y="217.24001"
       width="59"
       height="14.62"
       id="rect36838" />
    <path
       class="cls-3"
       d="m 211.75,217.24 -2.25,-1.5 v -2.25 l 2.085,-2.28449 2.665,-15.71551 h 3.63 v 10.25 c 0,0 2.13,2.38 3.13,-0.5 v -9.75 h 7.88 v 10 c 0,0 1.88,2.75 2.75,-0.12 v -9.87 h 8.13 v 10.13 c 0.3479,0.61554 1.06433,0.92258 1.75,0.75 1.25,-0.25 0.88,-0.25 0.88,-1.75 v -9.12 h 8.1 v 10.23 c 0,0 2.25,2.25 2.75,-0.25 v -10 h 8.13 v 9.88 c 0,0 1.88,2.63 2.88,0 v -9.87 h 3.63 l 2.86,15.40041 2.52,2.59959 v 2.63 l -2.5,1.13 z"
       id="path36840"
       sodipodi:nodetypes="ccccccccccccccccsccccccccccccccc" />
  </g>
  <g
     id="Layer_6"
     data-name="Layer 6"
     transform="translate(0,-16)">
    <polygon
       class="cls-1"
       points="174.75,475.24 308.24,475.24 308.24,477.91 174.74,477.91 "
       id="polygon36843"
       transform="matrix(1.0500374,0,0,1,-11.623543,-4)" />
    <polygon
       class="cls-1"
       points="174.75,456.77 308.24,456.77 308.24,459.43 174.74,459.43 "
       id="polygon36845"
       transform="matrix(1.0750561,0,0,1,-19.335299,-4)" />
    <polygon
       class="cls-1"
       points="174.75,441.02 308.24,441.02 308.24,443.68 174.74,443.68 "
       id="polygon36847"
       transform="matrix(1.0865171,0,0,1,-20.888014,-4)" />
    <rect
       class="cls-1"
       x="202.17"
       y="372.73999"
       width="3.46"
       height="58.5"
       id="rect36849" />
    <rect
       class="cls-1"
       x="234.92"
       y="372.73999"
       width="3.46"
       height="58.5"
       id="rect36851" />
    <rect
       class="cls-1"
       x="244.38"
       y="372.73999"
       width="3.46"
       height="58.5"
       id="rect36853" />
    <rect
       class="cls-1"
       x="267.88"
       y="372.73999"
       width="3.46"
       height="58.5"
       id="rect36855" />
    <rect
       class="cls-1"
       x="277.13"
       y="372.73999"
       width="3.46"
       height="58.5"
       id="rect36857" />
    <rect
       class="cls-1"
       x="211.53999"
       y="372.73999"
       width="3.46"
       height="58.5"
       id="rect36859" />
    <rect
       class="cls-1"
       x="185.67"
       y="477.73999"
       width="1.5"
       height="6.6700001"
       id="rect36861"
       style="stroke-width:0.932535" />
    <rect
       class="cls-1"
       x="212.83"
       y="477.73999"
       width="1.5"
       height="6.6700001"
       id="rect36863"
       style="stroke-width:0.932535" />
    <rect
       class="cls-1"
       x="212.83"
       y="512.96997"
       width="56.699997"
       height="2.6084313"
       id="rect36865"
       style="stroke-width:1.79368" />
    <rect
       class="cls-1"
       x="240.45"
       y="477.73999"
       width="1.5"
       height="6.6700001"
       id="rect36867"
       style="stroke-width:0.932535" />
    <rect
       class="cls-1"
       x="237.64"
       y="501.87"
       width="1.5"
       height="7.6700001"
       id="rect36869" />
    <rect
       class="cls-1"
       x="243.39"
       y="501.87"
       width="1.5"
       height="7.6700001"
       id="rect36871" />
    <rect
       class="cls-1"
       x="268.03"
       y="477.73999"
       width="1.5"
       height="6.6700001"
       id="rect36873"
       style="stroke-width:0.932535" />
    <rect
       class="cls-1"
       x="295.20001"
       y="477.73999"
       width="1.5"
       height="7.6700001"
       id="rect36875" />
    <polygon
       class="cls-1"
       points="296.49,432.49 305.49,433.99 177.5,433.99 186.5,432.49 "
       id="polygon36877"
       transform="matrix(1.1332918,0,0,2.6840041,-32.189302,-731.89046)" />
    <polygon
       class="cls-1"
       points="296.47,351.24 296.47,352.49 186.33,352.49 185.84,351.24 "
       id="polygon36879"
       transform="translate(0,-2)" />
    <polygon
       class="cls-1"
       points="197.15,308.24 196.75,306.99 285,306.99 285,308.24 "
       id="polygon36883"
       transform="matrix(1.0206397,0,0,1,-4.3823084,2)" />
    <polygon
       class="cls-1"
       points="196.75,306.99 285,306.99 285,308.24 197.15,308.24 "
       id="polygon36883-4"
       transform="matrix(1.3418276,0,0,4.0481541,-81.632721,-895.31302)"
       style="fill:#4e5c59" />
    <polygon
       class="cls-1"
       points="197.15,277.99 196.75,276.74 285,276.74 285,277.99 "
       id="polygon36885"
       transform="matrix(1.1303041,0,0,1,-30.76197,2)" />
    <polygon
       class="cls-1"
       points="273.08,217.99 271.08,219.24 211.52,219.24 210.25,217.99 "
       id="polygon36887"
       transform="matrix(1.0930004,0,0,2.032,-22.889949,-226.96568)" />
    <polygon
       class="cls-1"
       points="193.5,352.49 193.5,358.32 200,358.32 200,351.87 193.5,351.87 "
       id="polygon36889" />
    <polygon
       class="cls-1"
       points="208.29,352.49 208.29,358.32 214.79,358.32 214.79,351.87 208.29,351.87 "
       id="polygon36891" />
    <polygon
       class="cls-1"
       points="221.88,352.49 221.88,358.32 228.38,358.32 228.38,351.87 221.88,351.87 "
       id="polygon36893" />
    <polygon
       class="cls-1"
       points="237.9,352.49 237.9,358.32 244.4,358.32 244.4,351.87 237.9,351.87 "
       id="polygon36895" />
    <polygon
       class="cls-1"
       points="253.82,352.49 253.82,358.32 260.32,358.32 260.32,351.87 253.82,351.87 "
       id="polygon36897" />
    <polygon
       class="cls-1"
       points="267.55,352.49 267.55,358.32 274.05,358.32 274.05,351.87 267.55,351.87 "
       id="polygon36899" />
    <polygon
       class="cls-1"
       points="282.63,352.49 282.63,358.32 289.13,358.32 289.13,351.87 282.63,351.87 "
       id="polygon36901" />
    <rect
       class="cls-1"
       x="202.83"
       y="278.74002"
       width="1.5"
       height="31.499981"
       id="rect36903"
       style="stroke-width:1.02045" />
    <rect
       class="cls-1"
       x="278.42001"
       y="278.73999"
       width="1.5"
       height="31.49999"
       id="rect36905"
       style="stroke-width:1.02045" />
    <path
       class="cls-1"
       d="m 207.14796,272.24 0.77833,-32.61293 c 0,0 0.12453,-1.30707 3.11331,-1.30707 2.98879,0 3.37795,1.21143 3.37795,1.21143 V 272.24 Z"
       id="path36907"
       style="stroke-width:1.28615" />
    <path
       class="cls-1"
       d="m 664.5,390.5 0.5,-30.69 c 0,0 0.08,-1.23 2,-1.23 1.92,0 2.17,1.14 2.17,1.14 v 30.78 z"
       id="path36909"
       transform="translate(-441.5,-120.26)" />
    <path
       class="cls-1"
       d="m 680.42,390.5 0.5,-30.69 c 0,0 0.08,-1.23 2,-1.23 1.92,0 2.17,1.14 2.17,1.14 v 30.78 z"
       transform="translate(-441.5,-120.26)"
       id="path36911" />
    <path
       class="cls-1"
       d="m 695.75,390.5 0.5,-30.69 c 0,0 0.08,-1.23 2,-1.23 1.92,0 2.17,1.14 2.17,1.14 v 30.78 z"
       transform="translate(-441.5,-120.26)"
       id="path36913" />
    <path
       class="cls-1"
       d="m 709.92,390.5 0.5,-30.69 c 0,0 0.08,-1.23 2,-1.23 1.92,0 2.17,1.14 2.17,1.14 v 30.78 z"
       transform="translate(-441.5,-120.26)"
       id="path36915" />
  </g>
  <path
     class="cls-1"
     d="m 221.7002,256.24 0.77833,-32.61293 c 0,0 0.12453,-1.30707 3.11331,-1.30707 2.98879,0 3.37795,1.21143 3.37795,1.21143 V 256.24 Z"
     id="path36907-7"
     style="fill:#4e5c59;stroke-width:1.28615" />
  <path
     class="cls-1"
     d="m 237.4804,256.24 0.77833,-32.61293 c 0,0 0.12453,-1.30707 3.11332,-1.30707 2.98879,0 3.37795,1.21143 3.37795,1.21143 V 256.24 Z"
     id="path36907-9"
     style="fill:#4e5c59;stroke-width:1.28615" />
  <path
     class="cls-1"
     d="m 253.26061,256.24 0.77833,-32.61293 c 0,0 0.12453,-1.30707 3.11331,-1.30707 2.98879,0 3.37795,1.21143 3.37795,1.21143 V 256.24 Z"
     id="path36907-5"
     style="fill:#4e5c59;stroke-width:1.28615" />
  <path
     class="cls-1"
     d="m 267.1202,256.24 0.77834,-32.61293 c 0,0 0.12453,-1.30707 3.11331,-1.30707 2.98879,0 3.37795,1.21143 3.37795,1.21143 V 256.24 Z"
     id="path36907-1"
     style="fill:#4e5c59;stroke-width:1.28616" />
  <g
     id="Layer_4"
     data-name="Layer 4">
    <path
       class="cls-4"
       d="M923,121.76V327.6a314.37,314.37,0,0,1-2.28,38c-.11.93-.24,1.86-.36,2.79s-.24,1.86-.39,2.79q-.7,5.05-1.61,10c-.07.44-.15.87-.23,1.31-.15.8-.29,1.6-.45,2.39s-.34,1.8-.51,2.69l-.45,2.22-.24,1.16c-.15.71-.3,1.44-.47,2.15q-.8,3.55-1.61,7l-.58,2.32-.52,2q-1.52,5.88-3.27,11.61c-.29,1-.59,1.94-.9,2.92l-.6,1.88c-.19.63-.39,1.25-.6,1.86l-1.1,3.26c-.37,1.09-.68,2-1,3-.47,1.28-.92,2.55-1.39,3.81-.36,1-.73,2-1.11,3l-.19.49c-.43,1.14-.87,2.25-1.32,3.37s-.87,2.16-1.32,3.19a3.35,3.35,0,0,1-.18.42c-.4,1-.8,2-1.25,3s-.75,1.75-1.13,2.62l-.66,1.49c-.47,1.07-.95,2.12-1.44,3.15s-.9,2-1.36,2.93l-1,2.12c-.3.63-.6,1.25-.91,1.88-.63,1.32-1.31,2.64-2,4q-2.53,5-5.19,9.77l-2,3.57-.11.21q-2.13,3.71-4.33,7.33c-.71,1.2-1.46,2.39-2.18,3.54-.1.16-.19.31-.3.46-.55.89-1.12,1.78-1.69,2.66l-.66,1c-.65,1-1.31,2-2,3l-.13.18c-.66,1-1.32,2-2,3l-.45.67q-2.26,3.28-4.54,6.46l-.31.42c-.8,1.07-1.54,2.14-2.31,3.19s-1.66,2.23-2.5,3.32q-2.29,3-4.61,6l-.8,1c-.73.93-1.48,1.85-2.22,2.76L850,525.61l-.57.69L847,529.1q-2.83,3.32-5.72,6.53c-.75.85-1.52,1.69-2.29,2.51l-2.22,2.39q-3,3.19-5.93,6.24-2.76,2.83-5.53,5.59c-.91.91-1.84,1.82-2.76,2.71s-1.85,1.78-2.78,2.67l-2.28,2.11c-.68.65-1.36,1.28-2.05,1.91a448.64,448.64,0,0,1-61.76,47.47c-.86.55-1.73,1.1-2.58,1.6q-6.42,4.07-12.46,7.63l-2.41,1.4-2.36,1.36-2.34,1.35-2.22,1.28c-8.35,4.68-15.91,8.59-22.38,11.76l-1.61.8c-10.63,5.15-18.11,8.22-21,9.35l-.42.18-.61.23-.14.06h-.08l-.23-.1-.21,0-1.07-.42-.55-.23c-.87-.34-2-.8-3.36-1.38l-.47-.18c-1.76-.8-3.88-1.67-6.33-2.77l-1.39-.61a443.16,443.16,0,0,1-39.74-20.6c-.8-.45-1.61-.92-2.36-1.38a473.14,473.14,0,0,1-44.78-30l-2.62-2c-1-.75-2-1.52-2.95-2.29l-2.81-2.21c-6.19-4.92-12.43-10.15-18.64-15.69L554.08,565q-2.3-2.05-4.59-4.2l-1.67-1.57L546,557.54l-2-1.94c-1.12-1.07-2.24-2.16-3.34-3.26-.84-.8-1.69-1.67-2.52-2.51l-.24-.26q-1.25-1.25-2.5-2.51c-.66-.68-1.32-1.36-2-2l-2-2.07-.13-.15-2.1-2.24q-3.36-3.61-6.66-7.36c-.68-.8-1.36-1.55-2-2.35-.57-.65-1.12-1.28-1.66-1.94l-2-2.39q-4.26-5.11-8.39-10.48-1.13-1.45-2.24-2.92c-1.89-2.47-3.73-5-5.57-7.55l-1.68-2.39c-.13-.16-.24-.34-.36-.5-.59-.85-1.19-1.7-1.77-2.55-.95-1.38-1.89-2.77-2.82-4.17q-1.11-1.64-2.18-3.31l-.15-.24-2.22-3.47c-.07-.13-.15-.24-.22-.37-.71-1.14-1.41-2.27-2.1-3.4s-1.49-2.46-2.21-3.7-1.44-2.39-2.13-3.67q-4.6-8-8.77-16.47c-.35-.69-.69-1.38-1-2.08-.22-.44-.44-.89-.65-1.35-.43-.87-.8-1.75-1.25-2.63a27.17,27.17,0,0,1-1.15-2.47l-.23-.48c-.26-.58-.52-1.16-.8-1.75l-.26-.57c-.26-.58-.52-1.18-.8-1.77q-1.44-3.26-2.78-6.58c-.42-1-.8-2-1.23-3.07-.1-.26-.21-.53-.31-.8-.4-1-.8-2-1.16-3s-.68-1.82-1-2.74l-.23-.65c-.18-.45-.34-.91-.5-1.36q-1-2.69-1.89-5.44c-.21-.6-.4-1.21-.6-1.8-.26-.8-.51-1.54-.75-2.31-.14-.42-.26-.8-.39-1.22-.26-.8-.5-1.6-.75-2.39-.31-1-.61-2.06-.92-3.1-.18-.65-.39-1.28-.57-2-.37-1.28-.74-2.58-1.08-3.89-.19-.68-.37-1.35-.55-2-.13-.5-.26-1-.39-1.51-.32-1.22-.63-2.46-.92-3.7-.18-.7-.35-1.4-.52-2.11-.07-.29-.13-.57-.19-.85-.37-1.55-.71-3.11-1.07-4.69-.26-1.16-.5-2.33-.74-3.5-.14-.71-.29-1.43-.43-2.14s-.32-1.6-.47-2.45a2.13,2.13,0,0,0-.1-.47c-.15-.8-.3-1.64-.45-2.48s-.31-1.84-.47-2.77-.3-1.8-.45-2.71q-.87-5.52-1.56-11.17A314.73,314.73,0,0,1,443,327.58V121.76Z"
       transform="translate(-441.5 -120.26)"
       id="path36918" />
  </g>
  <path
     style="fill:#cfccbe;fill-opacity:1;stroke:none;stroke-width:5.09259;paint-order:markers fill stroke"
     d="m 199.17,256.24 h -3.84 v 3.11775 h 3.84 z"
     id="path1528" />
  <path
     style="fill:#cfccbe;fill-opacity:1;stroke:none;stroke-width:7.17454;paint-order:markers fill stroke"
     d="m 280.16,256.24 h 6.34 v 3.74796 h -6.34 z"
     id="path1530" />
  <path
     style="fill:#cfccbe;fill-opacity:1;stroke:none;stroke-width:4;paint-order:markers fill stroke"
     d="M 196.86695,263.99 H 195.33 v 29 h 1.42 1.49559 l 0.0557,-29 z"
     id="path1534" />
  <path
     style="fill:#cfccbe;fill-opacity:1;stroke:none;stroke-width:4;paint-order:markers fill stroke"
     d="M 284.98966,263.99 H 286.5 l 10e-6,29 h -2.90862 l -0.26139,-29 z"
     id="path1536" />
  <path
     id="shine"
     d="M 1.66,0.9631213 V 207.34 c 0,229.66454 239.92,319.6031 239.92,319.6031 0,0 239.92,-89.93856 239.92,-319.6031 V 0.9631213 Z"
     style="fill:url(#rg);stroke:#000000;stroke-width:2.41218" />
</svg>
