<?xml version="1.0" encoding="UTF-8" standalone="no"?>
<svg
   viewBox="0 0 483 527.48"
   version="1.1"
   id="svg7551"
   sodipodi:docname="House Hoare.svg"
   inkscape:version="1.2.1 (9c6d41e410, 2022-07-14)"
   xmlns:inkscape="http://www.inkscape.org/namespaces/inkscape"
   xmlns:sodipodi="http://sodipodi.sourceforge.net/DTD/sodipodi-0.dtd"
   xmlns="http://www.w3.org/2000/svg"
   xmlns:svg="http://www.w3.org/2000/svg">
  <sodipodi:namedview
     id="namedview7553"
     pagecolor="#ffffff"
     bordercolor="#000000"
     borderopacity="0.25"
     inkscape:showpageshadow="2"
     inkscape:pageopacity="0.0"
     inkscape:pagecheckerboard="0"
     inkscape:deskcolor="#d1d1d1"
     showgrid="false"
     inkscape:zoom="0.79339504"
     inkscape:cx="83.186807"
     inkscape:cy="262.16448"
     inkscape:window-width="1920"
     inkscape:window-height="1017"
     inkscape:window-x="-8"
     inkscape:window-y="-8"
     inkscape:window-maximized="1"
     inkscape:current-layer="svg7551" />
  <defs
     id="defs7289">
    <style
       id="style7287">.cls-1{fill:#171717;}.cls-1,.cls-12,.cls-13,.cls-14,.cls-2,.cls-3,.cls-4,.cls-5,.cls-6,.cls-7,.cls-8,.cls-9{stroke:#000;}.cls-1,.cls-12,.cls-13,.cls-14,.cls-2,.cls-3,.cls-4,.cls-6,.cls-7,.cls-8,.cls-9{stroke-miterlimit:10;}.cls-1,.cls-14,.cls-2,.cls-3,.cls-4,.cls-5{stroke-width:3px;}.cls-2,.cls-6{fill:#a87e17;}.cls-3{fill:#fffffa;}.cls-4{fill:#6196dc;}.cls-12,.cls-5,.cls-9{fill:none;}.cls-7{fill:#2d1e07;}.cls-8{fill:#0c300c;}.cls-10{fill:#7d1717;}.cls-11{fill:#2d1607;}.cls-12{stroke-width:2px;}.cls-13{fill:#191919;}.cls-14{fill:silver;}</style>
    <radialGradient
       id="rg"
       gradientUnits="userSpaceOnUse"
       cx="220"
       cy="220"
       r="405"
       gradientTransform="matrix(0.80510068,0,0,0.80302287,-1.5692547,0.46634271)">
      <stop
         style="stop-color:#ffffff;stop-opacity:.3"
         offset="0"
         id="stop753" />
      <stop
         style="stop-color:#ffffff;stop-opacity:.2"
         offset=".2"
         id="stop755" />
      <stop
         style="stop-color:#666666;stop-opacity:.1"
         offset=".6"
         id="stop757" />
      <stop
         style="stop-color:#000000;stop-opacity:.13"
         offset="1"
         id="stop759" />
    </radialGradient>
  </defs>
  <title
     id="title7291">House Hoare</title>
  <g
     id="Layer_5"
     data-name="Layer 5">
    <polyline
       class="cls-1"
       points="32.76 1.5 241.5 247.87 445.58 1.5"
       id="polyline7293" />
    <path
       class="cls-2"
       d="M821.85,560.52l-.37.34-.29.27c-.58.56-1.17,1.1-1.76,1.64a449.24,449.24,0,0,1-61.76,47.47c-.86.55-1.72,1.1-2.57,1.6q-6.43,4.06-12.47,7.63l-2.41,1.4-2.36,1.37-2.33,1.34-2.23,1.29c-8.34,4.68-15.9,8.59-22.38,11.76l-1.6.8c-10.64,5.15-18.12,8.22-21,9.35l-.42.17-.61.24-.14,0h-.08l-.23-.09-.21,0-1.07-.42-.54-.23c-.87-.34-2-.8-3.37-1.38l-.46-.18c-1.76-.8-3.89-1.67-6.33-2.77l-1.39-.61a442.25,442.25,0,0,1-39.75-20.6c-.8-.44-1.6-.92-2.35-1.38a474,474,0,0,1-44.78-30l-2.63-2c-1-.75-2-1.51-2.94-2.29l-2.81-2.21c-6.1-4.85-12.25-10-18.37-15.45l-.27-.24L558.08,566c-1.34-1.19-2.68-2.41-4-3.66-.2-.17-.39-.36-.59-.54l-1.67-1.57-.61-.57L689.33,394.33l13.67,21Z"
       transform="translate(-445.5 -121.26)"
       id="path7295" />
    <path
       class="cls-3"
       d="M927,122.76V328.6a313.88,313.88,0,0,1-2.28,38c-.11.93-.24,1.86-.36,2.79s-.24,1.86-.39,2.79c-.46,3.37-1,6.69-1.6,10-.07.44-.15.87-.23,1.31-.16.8-.29,1.6-.45,2.4s-.34,1.79-.51,2.69l-.45,2.22-.24,1.15c-.15.71-.3,1.44-.46,2.15-.54,2.37-1.07,4.71-1.61,7l-.58,2.32-.52,2q-1.53,5.88-3.27,11.61c-.29,1-.59,1.94-.9,2.92l-.6,1.88c-.2.63-.4,1.24-.61,1.86-.37,1.09-.73,2.17-1.1,3.25s-.68,2-1,3c-.47,1.28-.93,2.56-1.39,3.81-.36,1-.73,2-1.11,3l-.19.5c-.43,1.14-.87,2.25-1.32,3.36s-.87,2.17-1.31,3.2c0,.15-.12.28-.18.42-.4,1-.8,2-1.25,3s-.76,1.75-1.13,2.62l-.66,1.49c-.48,1.07-1,2.11-1.44,3.15s-.9,2-1.36,2.93l-1,2.12c-.29.63-.6,1.25-.91,1.87-.63,1.33-1.31,2.64-2,4q-2.52,5-5.19,9.77l-2,3.57-.12.21c-1.42,2.47-2.86,4.92-4.33,7.33-.71,1.2-1.46,2.4-2.18,3.54-.11.16-.2.32-.3.47-.55.89-1.12,1.78-1.69,2.66l-.65,1c-.65,1-1.31,2-2,3l-.13.18c-.65,1-1.31,2-2,3l-.45.67q-2.25,3.29-4.54,6.46l-.31.43c-.8,1.07-1.54,2.14-2.31,3.19s-1.66,2.23-2.5,3.32c-1.52,2-3.06,4-4.61,6l-.81,1q-1.09,1.39-2.22,2.76L854,526.61l-.57.69c-.8.94-1.6,1.87-2.41,2.8q-2.82,3.32-5.72,6.53c-.75.85-1.52,1.69-2.29,2.51s-1.47,1.6-2.22,2.4q-3,3.2-5.93,6.24l-.16.16L696.47,380.38l5.53-1.63,210-256Z"
       transform="translate(-445.5 -121.26)"
       id="path7297" />
    <path
       class="cls-4"
       d="M677.19,382l-138,165.85c-.58-.6-1.17-1.2-1.74-1.81l-2-2.06-.13-.15-2.1-2.25q-3.36-3.6-6.66-7.36c-.68-.79-1.36-1.54-2.05-2.34-.57-.65-1.12-1.29-1.66-1.94q-1-1.2-2-2.4-4.28-5.1-8.39-10.48c-.76-1-1.5-1.93-2.24-2.92-1.89-2.47-3.73-5-5.57-7.55-.55-.8-1.12-1.59-1.68-2.39-.13-.16-.24-.34-.36-.5-.59-.86-1.19-1.7-1.77-2.56-.94-1.38-1.89-2.77-2.81-4.17-.74-1.09-1.47-2.2-2.19-3.31a1,1,0,0,0-.15-.24l-2.22-3.48-.22-.36c-.7-1.14-1.41-2.27-2.1-3.4s-1.49-2.46-2.21-3.71-1.43-2.39-2.13-3.67q-4.61-8-8.77-16.46c-.35-.69-.69-1.38-1-2.09-.22-.44-.44-.88-.65-1.35-.43-.87-.8-1.74-1.25-2.63a25.91,25.91,0,0,1-1.15-2.47l-.23-.48c-.27-.58-.53-1.16-.81-1.75l-.26-.57c-.27-.59-.52-1.19-.8-1.78q-1.44-3.25-2.79-6.57c-.42-1-.8-2-1.23-3.08-.1-.25-.21-.52-.31-.79-.4-1-.8-2-1.16-3s-.69-1.82-1-2.74l-.24-.65c-.17-.44-.33-.91-.49-1.35q-1-2.7-1.9-5.44c-.21-.6-.4-1.2-.6-1.8-.26-.8-.51-1.54-.75-2.32-.14-.41-.27-.8-.4-1.22-.25-.8-.49-1.59-.75-2.39-.31-1-.61-2.06-.92-3.11-.19-.64-.39-1.28-.57-1.95-.37-1.29-.74-2.58-1.09-3.89-.19-.68-.37-1.35-.55-2-.13-.5-.27-1-.4-1.51-.32-1.22-.62-2.45-.92-3.7-.18-.7-.34-1.4-.52-2.11-.07-.28-.13-.56-.19-.85-.37-1.55-.72-3.11-1.07-4.69,0-.17-.08-.34-.11-.51a.13.13,0,0,1,0-.06c-.22-1-.42-2-.62-2.93-.13-.71-.29-1.43-.42-2.14s-.32-1.59-.48-2.45a1.86,1.86,0,0,0-.09-.47c-.16-.8-.3-1.64-.45-2.48s-.32-1.84-.48-2.77-.29-1.8-.45-2.71q-.86-5.52-1.55-11.18-.45-3.67-.79-7.37Q447,343.8,447,328.58V122.76h17.46L673.33,380.33Z"
       transform="translate(-445.5 -121.26)"
       id="path7299" />
  </g>
  <g
     id="Layer_2"
     data-name="Layer 2">
    <path
       class="cls-5"
       d="M927,122.76V328.6a313.88,313.88,0,0,1-2.28,38c-.11.93-.24,1.86-.36,2.79s-.24,1.86-.39,2.79c-.46,3.37-1,6.69-1.6,10-.07.44-.15.87-.23,1.31-.16.8-.29,1.6-.45,2.4s-.34,1.79-.51,2.69l-.45,2.22-.24,1.15c-.15.71-.3,1.44-.46,2.15-.54,2.37-1.07,4.71-1.61,7l-.58,2.32-.52,2q-1.53,5.88-3.27,11.61c-.29,1-.59,1.94-.9,2.92l-.6,1.88c-.2.63-.4,1.24-.61,1.86-.37,1.09-.73,2.17-1.1,3.25s-.68,2-1,3c-.47,1.28-.93,2.56-1.39,3.81-.36,1-.73,2-1.11,3l-.19.5c-.43,1.14-.87,2.25-1.32,3.36s-.87,2.17-1.31,3.2c0,.15-.12.28-.18.42-.4,1-.8,2-1.25,3s-.76,1.75-1.13,2.62l-.66,1.49c-.48,1.07-1,2.11-1.44,3.15s-.9,2-1.36,2.93l-1,2.12c-.29.63-.6,1.25-.91,1.87-.63,1.33-1.31,2.64-2,4q-2.52,5-5.19,9.77l-2,3.57-.12.21c-1.42,2.47-2.86,4.92-4.33,7.33-.71,1.2-1.46,2.4-2.18,3.54-.11.16-.2.32-.3.47-.55.89-1.12,1.78-1.69,2.66l-.65,1c-.65,1-1.31,2-2,3l-.13.18c-.65,1-1.31,2-2,3l-.45.67q-2.25,3.29-4.54,6.46l-.31.43c-.8,1.07-1.54,2.14-2.31,3.19s-1.66,2.23-2.5,3.32c-1.52,2-3.06,4-4.61,6l-.81,1q-1.09,1.39-2.22,2.76L854,526.61l-.57.69c-.8.94-1.6,1.87-2.41,2.8q-2.82,3.32-5.72,6.53c-.75.85-1.52,1.69-2.29,2.51s-1.47,1.6-2.22,2.4q-3,3.2-5.93,6.24l-.16.16c-1.78,1.83-3.57,3.63-5.37,5.43-.49.49-1,1-1.48,1.45l0,0-.32.32-.61.59-.33.32c-.73.7-1.46,1.41-2.21,2.1-.19.19-.38.38-.58.56l-1.91,1.78-.37.34-.29.27c-.58.56-1.17,1.1-1.76,1.64a449.24,449.24,0,0,1-61.76,47.47c-.86.55-1.72,1.1-2.57,1.6q-6.43,4.06-12.47,7.63l-2.41,1.4-2.36,1.37-2.33,1.34-2.23,1.29c-8.34,4.68-15.9,8.59-22.38,11.76l-1.6.8c-10.64,5.15-18.12,8.22-21,9.35l-.42.17-.61.24-.14,0h-.08l-.23-.09-.21,0-1.07-.42-.54-.23c-.87-.34-2-.8-3.37-1.38l-.46-.18c-1.76-.8-3.89-1.67-6.33-2.77l-1.39-.61a442.25,442.25,0,0,1-39.75-20.6c-.8-.44-1.6-.92-2.35-1.38a474,474,0,0,1-44.78-30l-2.63-2c-1-.75-2-1.51-2.94-2.29l-2.81-2.21c-6.1-4.85-12.25-10-18.37-15.45l-.27-.24L558.08,566c-1.34-1.19-2.68-2.41-4-3.66-.2-.17-.39-.36-.59-.54l-1.67-1.57-.61-.57L550,558.54l-1.6-1.53-.43-.41c-1.12-1.07-2.23-2.17-3.33-3.27-.85-.79-1.69-1.66-2.52-2.5l-.24-.26c-.84-.83-1.67-1.67-2.5-2.51l-.23-.24c-.58-.6-1.17-1.2-1.74-1.81l-2-2.06-.13-.15-2.1-2.25q-3.36-3.6-6.66-7.36c-.68-.79-1.36-1.54-2.05-2.34-.57-.65-1.12-1.29-1.66-1.94q-1-1.2-2-2.4-4.28-5.1-8.39-10.48c-.76-1-1.5-1.93-2.24-2.92-1.89-2.47-3.73-5-5.57-7.55-.55-.8-1.12-1.59-1.68-2.39-.13-.16-.24-.34-.36-.5-.59-.86-1.19-1.7-1.77-2.56-.94-1.38-1.89-2.77-2.81-4.17-.74-1.09-1.47-2.2-2.19-3.31a1,1,0,0,0-.15-.24l-2.22-3.48-.22-.36c-.7-1.14-1.41-2.27-2.1-3.4s-1.49-2.46-2.21-3.71-1.43-2.39-2.13-3.67q-4.61-8-8.77-16.46c-.35-.69-.69-1.38-1-2.09-.22-.44-.44-.88-.65-1.35-.43-.87-.8-1.74-1.25-2.63a25.91,25.91,0,0,1-1.15-2.47l-.23-.48c-.27-.58-.53-1.16-.81-1.75l-.26-.57c-.27-.59-.52-1.19-.8-1.78q-1.44-3.25-2.79-6.57c-.42-1-.8-2-1.23-3.08-.1-.25-.21-.52-.31-.79-.4-1-.8-2-1.16-3s-.69-1.82-1-2.74l-.24-.65c-.17-.44-.33-.91-.49-1.35q-1-2.7-1.9-5.44c-.21-.6-.4-1.2-.6-1.8-.26-.8-.51-1.54-.75-2.32-.14-.41-.27-.8-.4-1.22-.25-.8-.49-1.59-.75-2.39-.31-1-.61-2.06-.92-3.11-.19-.64-.39-1.28-.57-1.95-.37-1.29-.74-2.58-1.09-3.89-.19-.68-.37-1.35-.55-2-.13-.5-.27-1-.4-1.51-.32-1.22-.62-2.45-.92-3.7-.18-.7-.34-1.4-.52-2.11-.07-.28-.13-.56-.19-.85-.37-1.55-.72-3.11-1.07-4.69,0-.17-.08-.34-.11-.51a.13.13,0,0,1,0-.06c-.22-1-.42-2-.62-2.93-.13-.71-.29-1.43-.42-2.14s-.32-1.59-.48-2.45a1.86,1.86,0,0,0-.09-.47c-.16-.8-.3-1.64-.45-2.48s-.32-1.84-.48-2.77-.29-1.8-.45-2.71q-.86-5.52-1.55-11.18-.45-3.67-.79-7.37Q447,343.8,447,328.58V122.76Z"
       transform="translate(-445.5 -121.26)"
       id="path7302" />
  </g>
  <g
     id="Layer_10"
     data-name="Layer 10">
    <path
       class="cls-6"
       d="M710.13,213.32c-2-4.7-8.83-5.18-15.31-4.45A51.23,51.23,0,0,0,675.94,215c-17.1,9.39-14.77,6.37-14.77,6.37s18.83-20.17,4.33-44-46-26-46-26,11.83-9.83,51.83-8.5,58.33,20.67,61.33,39.42c2.42,15.13-13.39,27.71-19.59,32A2,2,0,0,1,710.13,213.32Z"
       transform="translate(-445.5 -121.26)"
       id="path7305" />
    <path
       class="cls-6"
       d="M770,236.53a11.38,11.38,0,0,1-8,4.09c-6.88.54-22.58,1.71-35.8,2.14-17.5.57-112,0-112,0s-4.41-1.31-11.93-20.35a26.51,26.51,0,0,0-4.47-7.52c-4.15-4.83-9.67-10-6.94-10.39,0,0,6.36,4.83,18.82,16.27a.12.12,0,0,1,0,0q1.82,1.66,3.81,3.52s7.3,1.65,18.73.79c2.17-.16,4.49-.42,6.94-.79C654.5,222,667.5,227.58,708.5,217c35.31-9.11,42.79-11.37,47.78-13.42a4.25,4.25,0,0,0,2.61-4.23c-.37-5.53-.4-16.77,5.56-16,0,0,6.72,4.5-1.12,5.17l-.33,7.3a8.39,8.39,0,0,0,2,5.9,26.6,26.6,0,0,1,6.66,16.13C772.06,226.81,773.67,231.94,770,236.53Z"
       transform="translate(-445.5 -121.26)"
       id="path7307" />
    <path
       class="cls-6"
       d="M632.23,225.12c-11.43.86-18.73-.79-18.73-.79q-2-1.86-3.81-3.52a.12.12,0,0,0,0,0c-.19-.27-1-1.65,3.35-2.1,4.83-.5,14.5-2.17,16.33,0C630.25,219.75,631.35,222.57,632.23,225.12Z"
       transform="translate(-445.5 -121.26)"
       id="path7309" />
  </g>
  <g
     id="Layer_9"
     data-name="Layer 9">
    <path
       class="cls-7"
       d="M854.33,476.25A19.47,19.47,0,0,1,841.46,482c-7.79.17-12.79-.42-14.46-4.33,0,0,6.33-12.75,6.33-22.58V427l4.75-7.75,3.38-7.08,2.21,5.5,2.42,9.83,1.92,3.75V449.9a43.63,43.63,0,0,0,.32,5.28C849,460.62,850.76,472.11,854.33,476.25Z"
       transform="translate(-445.5 -121.26)"
       id="path7312" />
    <path
       class="cls-8"
       d="M831.5,261.67S822,293,819.33,300,806.17,328.67,786,336.83c0,0,6.17,1.2,11-1.48a27,27,0,0,1-6.47,5.65s10-.17,15.39-7.5c0,0-.34,6.8-2.46,10.32S794.67,357.5,784,362.5a24.88,24.88,0,0,0,15.83-2s-.83,5-3.17,7.67a3.3,3.3,0,0,0,2.59-.83.19.19,0,0,1,.3.2c-.6,2.66-4,14.6-18.64,21.38,0,0,9.75,1,13.33,0a8.05,8.05,0,0,1,.17,4.17s7.75-1.7,13.42-5.68c0,0-.42,5.34-.83,6.93a2.78,2.78,0,0,0,2.33-.58s1.5,10.42-24.83,25.92c0,0,7.83,1.92,16.67-4.25,0,0-3.75,7.42-9.08,11.33a86.66,86.66,0,0,0,19.65-9.17,93.32,93.32,0,0,1-4.4,12.5s11.58-2.75,17.92-13.08c0,0,0,7.33-2.5,11.17,0,0,6.17-1.42,10-8.58,0,0,.58,7.92-1.5,13a19.78,19.78,0,0,0,10.42-15.17s0,12.58,8.75,17.83a24.66,24.66,0,0,1-1.75-16.42,53.24,53.24,0,0,0,9,6,45.79,45.79,0,0,1,0-7s8.92,11.67,19.5,10.25c0,0-7.33-6.83-8-13.92,0,0,7.33,11.75,17.83,10.33,0,0-4.08-5.75-8.08-10.25,0,0,12.58,7,23.08,4.42,0,0-18.75-7-25.08-18.25s-3.67-14.58-3.67-14.58,3.42,6.5,7.42,8.25c0,0-.25-2.78-.75-6.68,0,0,6.5,5.1,14.33,3.68,0,0-22.5-18.83-23.33-28.67,0,0,2.5,4.58,14.75,3.83,0,0-21.5-18.5-22.33-27.42a26.8,26.8,0,0,0,6.83,1.08,5.67,5.67,0,0,1-2.25-2.83,36.61,36.61,0,0,0,8.25.83s-11.58-2.92-19.92-18.33-15.08-25.33-18.67-36.17S831.5,261.67,831.5,261.67Z"
       transform="translate(-445.5 -121.26)"
       id="path7314" />
    <path
       class="cls-9"
       d="M803.45,343.82s5.77-1.48,8.28-5.57c0,0,.43,5-.82,7.33,0,0,8.17-3.33,10.75-8.42,0,0,3.17,11.58,4,17.33a41.44,41.44,0,0,0,5.75-16.25s2,4.58,4.08,6.33a23,23,0,0,1,1.5-6.33s1.5,4.42,3.5,5.5c0,0-.17-3.5,1-5.42,0,0,1,1.92,1.71,2.92,0,0-.31-3.45,2.25-3.08.58.08,3.67,5.42,6.83,6.83,0,0-1.17-4.17-.5-7.17a7.23,7.23,0,0,0,5.5-3.42s3.86,3.87,6.08,4.42"
       transform="translate(-445.5 -121.26)"
       id="path7316" />
    <path
       class="cls-9"
       d="M799.56,367.54a32.22,32.22,0,0,0,7.27-3.87s.75,5.33-.58,8.08c0,0,5.67-2.75,7.67-5.25a5.83,5.83,0,0,1-.5,3.83s4.25-.5,6-3.17a11.24,11.24,0,0,1,0,4.58s3.67.83,8.58-4a30.15,30.15,0,0,1-5.33,7.71,20.3,20.3,0,0,0,12.58-8.58s-1,7-2.33,10c0,0,6.83-5.92,9.5-12.08,0,0,1,6.92,2.58,9.92a77.77,77.77,0,0,1,3.75-10.17,22.28,22.28,0,0,0,3.83,3.75s.42-4.42,3.83-6.58c0,0,2.58,5.58,6.92,7.58a21.83,21.83,0,0,1,0-8.25s5,11.18,10.3,8.13"
       transform="translate(-445.5 -121.26)"
       id="path7318" />
    <path
       class="cls-9"
       d="M809.33,393.75s1.75.58,4.5,5a53,53,0,0,0,5.75-8.67s.2,7.08,2.27,11a68.89,68.89,0,0,1,5.23-9.67s.75,9.83,2.92,15.17c0,0,2.75-9.75,5.08-14.25,0,0,2.25,7.42,4.92,10a20.74,20.74,0,0,1,2.92-4s1.42,5,3.92,5.75a31,31,0,0,1,6.75-13.17s1.58,10.33,6.75,11.5c0,0-.67-10.08.75-12.33,0,0,1.67,2.75,3.5-.75,0,0,3.25,4.92,6.58,6.17a11.69,11.69,0,0,1,1.72-5.11"
       transform="translate(-445.5 -121.26)"
       id="path7320" />
  </g>
  <g
     id="Layer_8"
     data-name="Layer 8">
    <path
       class="cls-10"
       d="M737,518.29c6.27.4,11.38,5.48,11,11.13-.67,8.91-7.69,15.78-7.69,15.78-2.88-3.72-7.26-5.9-12-4.62,0,0,3.65-12.75-2.44-17.5C729.42,519.38,733.43,518.05,737,518.29Z"
       transform="translate(-445.5 -121.26)"
       id="path7323" />
    <path
       class="cls-10"
       d="M743.75,554.5c.42,8.33-7.92,13.08-7.92,13.08-6.83,4.59-12.8,1.88-12.8,1.88a16.37,16.37,0,0,0,4.8-9.88c.75-8.83-5.25-11.76-5.25-11.76a11,11,0,0,0,5.75-7.24c4.72-1.28,9.1.9,12,4.62A16.77,16.77,0,0,1,743.75,554.5Z"
       transform="translate(-445.5 -121.26)"
       id="path7325" />
    <path
       class="cls-10"
       d="M722.58,498.73c12.81.51,15.63,8.74,14.46,19.56-3.61-.24-7.62,1.09-11.15,4.79a9.4,9.4,0,0,0-6.14-1.75,29,29,0,0,0-5.31.56h0c-.92-3.67-4-10.66-10.15-12.75a19.72,19.72,0,0,1,18.29-10.4Z"
       transform="translate(-445.5 -121.26)"
       id="path7327" />
    <path
       class="cls-10"
       d="M735.83,567.58s5.72,18.84-11.22,24.59a14.62,14.62,0,0,0-.27-2.55c-.51-2.71-1.8-7-4.86-8.12h0a21.08,21.08,0,0,0-.79-7.66,1,1,0,0,0-.45-.53,22.69,22.69,0,0,0,4.81-3.85S729,572.17,735.83,567.58Z"
       transform="translate(-445.5 -121.26)"
       id="path7329" />
    <path
       class="cls-10"
       d="M725.89,523.08c6.09,4.75,2.44,17.5,2.44,17.5a11,11,0,0,1-5.75,7.24c-7.33,6.32-14.83,0-14.83,0s2.75-11-.67-14.49A40.63,40.63,0,0,0,703.6,530c.06-.21,1.63-6.22,10.84-8.08a29,29,0,0,1,5.31-.56A9.4,9.4,0,0,1,725.89,523.08Z"
       transform="translate(-445.5 -121.26)"
       id="path7331" />
    <path
       class="cls-10"
       d="M722.58,547.82s6,2.93,5.25,11.76a16.37,16.37,0,0,1-4.8,9.88,22.69,22.69,0,0,1-4.81,3.85,1,1,0,0,0-1,0c-2.75,1.63-6.15.55-7.82-.17a.94.94,0,0,0-.36-.08c1.58-14-8-19.33-8-19.33s6.27-4.19,6.77-5.93C707.75,547.82,715.25,554.14,722.58,547.82Z"
       transform="translate(-445.5 -121.26)"
       id="path7333" />
    <path
       class="cls-10"
       d="M724.61,592.17a11.63,11.63,0,0,1-.22,2.43c-2,10.23-14.76,10.72-14.76,10.72a23.53,23.53,0,0,0,.22-10.38.59.59,0,0,0-.66-.48s9.81-4.21,10.23-12c0-.32,0-.62,0-.92h0c3.06,1.12,4.35,5.41,4.86,8.12A14.62,14.62,0,0,1,724.61,592.17Z"
       transform="translate(-445.5 -121.26)"
       id="path7335" />
    <path
       class="cls-10"
       d="M718.67,573.84a21.08,21.08,0,0,1,.79,7.66c0,.3,0,.6,0,.92-.42,7.83-10.23,12-10.23,12a41.09,41.09,0,0,1-9.69-.08,16.11,16.11,0,0,0,.71-11.69,1.34,1.34,0,0,0-.71-.81s6.58-3.29,8.49-8.12a1.06,1.06,0,0,1,1-.68.94.94,0,0,1,.36.08c1.67.72,5.07,1.8,7.82.17a1,1,0,0,1,1,0A1,1,0,0,1,718.67,573.84Z"
       transform="translate(-445.5 -121.26)"
       id="path7337" />
    <path
       class="cls-10"
       d="M714.44,521.88h0c-9.21,1.86-10.78,7.87-10.84,8.08-3.47-2.86-8.56-5.16-17.07-2.05a26.11,26.11,0,0,0-1.15-6.08s3.44-9.4,10.59-12.4a11.42,11.42,0,0,1,3.45-.86,11.75,11.75,0,0,1,4.87.55C710.47,511.22,713.52,518.21,714.44,521.88Z"
       transform="translate(-445.5 -121.26)"
       id="path7339" />
    <path
       class="cls-10"
       d="M709.85,594.94a23.53,23.53,0,0,1-.22,10.38,10.66,10.66,0,0,1-9.35,8.06l-.16.12c-12.49,3.46-12.68-9-12.57-11.73,0-.11,0-.2,0-.27a.19.19,0,0,0,0-.08h0a13.55,13.55,0,0,1,1.41-.17c2.58-.17,8-1.22,10.52-6.86a41.09,41.09,0,0,0,9.69.08A.59.59,0,0,1,709.85,594.94Z"
       transform="translate(-445.5 -121.26)"
       id="path7341" />
    <path
       class="cls-10"
       d="M701,553.75s9.6,5.33,8,19.33a1.06,1.06,0,0,0-1,.68c-1.91,4.83-8.49,8.12-8.49,8.12a1.43,1.43,0,0,0-1.4,0c-9.51,5.67-17.88-1.19-20.41-3.63a1.18,1.18,0,0,0-.86-.33c-.59-2-1.08-4.14-1.08-4.14s-3.92-10.66,9.08-18.91C684.83,554.92,695.38,556.83,701,553.75Z"
       transform="translate(-445.5 -121.26)"
       id="path7343" />
    <path
       class="cls-10"
       d="M703.6,530a40.63,40.63,0,0,1,3.48,3.36c3.42,3.5.67,14.49.67,14.49-.5,1.74-6.77,5.93-6.77,5.93-5.6,3.08-16.15,1.17-16.15,1.17-2-3.92-7.64-11.59-7.64-11.59a14.12,14.12,0,0,1,.5-7.11c1-3.05,3.48-6.35,8.84-8.3C695,524.81,700.13,527.11,703.6,530Z"
       transform="translate(-445.5 -121.26)"
       id="path7345" />
    <path
       class="cls-10"
       d="M705.33,487.17c12-.67,14.57,11.62,14.57,11.62a19.76,19.76,0,0,0-15.61,10.34,11.75,11.75,0,0,0-4.87-.55,11.42,11.42,0,0,0-3.45.86c-.3-6.78-3.55-10.17-6.73-11.86A18.64,18.64,0,0,1,705.33,487.17Z"
       transform="translate(-445.5 -121.26)"
       id="path7347" />
    <path
       class="cls-10"
       d="M687.57,601.41h0c-.61.09-1.22.23-1.82.38-9.45,2.33-13.81-5.12-14.94-7.51a1.28,1.28,0,0,0-1.14-.71A19.53,19.53,0,0,1,676,578.3a1.29,1.29,0,0,1,.82-.33,1.18,1.18,0,0,1,.86.33c2.53,2.44,10.9,9.3,20.41,3.63a1.43,1.43,0,0,1,1.4,0,1.34,1.34,0,0,1,.71.81,16.11,16.11,0,0,1-.71,11.69c-2.5,5.64-7.94,6.69-10.52,6.86A13.55,13.55,0,0,0,687.57,601.41Z"
       transform="translate(-445.5 -121.26)"
       id="path7349" />
    <path
       class="cls-10"
       d="M700.12,613.5s3.5,12.12-10.12,13.75c-14,1.67-15.38-14.75-15.38-14.75s12.07,2.44,12.93-10.73C687.44,604.5,687.63,617,700.12,613.5Z"
       transform="translate(-445.5 -121.26)"
       id="path7351" />
    <path
       class="cls-10"
       d="M668.72,502.45a18.07,18.07,0,0,1,10.9-6.09,16.82,16.82,0,0,1,2.64-.31c.73,0,2.21.09,2.9.17h.06a12.93,12.93,0,0,1,3.36,1l.66.32c3.18,1.69,6.43,5.08,6.73,11.86-7.15,3-10.59,12.4-10.59,12.4-3.44-10.45-13-9.08-19.71-8.51a7.73,7.73,0,0,0-1.09.16A18.85,18.85,0,0,1,668.72,502.45Z"
       transform="translate(-445.5 -121.26)"
       id="path7353" />
    <path
       class="cls-11"
       d="M689.83,473.25s3.18,10.94-4.45,23l-.16,0h-.06a15.64,15.64,0,0,0-2.9-.17h-.43s4.71-8.25,5.59-14.87c1-7.59-8.7-22.34-26.09-30.42,0,0-2.5-10.5,6.34-10.92C667.67,439.83,683.58,456.25,689.83,473.25Z"
       transform="translate(-445.5 -121.26)"
       id="path7355" />
    <path
       class="cls-10"
       d="M687.57,601.42a.19.19,0,0,1,0,.08c0,.07,0,.16,0,.27-.86,13.17-12.93,10.73-12.93,10.73-12.19-3.45-11.43-15-11-18.15a.9.9,0,0,1,.89-.77h5.16a1.28,1.28,0,0,1,1.14.71c1.13,2.39,5.49,9.84,14.94,7.51C686.35,601.65,687,601.51,687.57,601.42Z"
       transform="translate(-445.5 -121.26)"
       id="path7357" />
    <path
       class="cls-10"
       d="M685.38,521.84a26.11,26.11,0,0,1,1.15,6.08c-5.36,2-7.79,5.25-8.84,8.3,0,0-8.61-9.64-14.26-9.78a12,12,0,0,0-9.09,3.69h0c-.91-2.64,0-7,0-7s3.25-8.31,10.25-9.68a7.73,7.73,0,0,1,1.09-.16C672.34,512.76,681.94,511.39,685.38,521.84Z"
       transform="translate(-445.5 -121.26)"
       id="path7359" />
    <path
       class="cls-11"
       d="M685.16,496.22c-.69-.08-2.17-.14-2.9-.17A15.64,15.64,0,0,1,685.16,496.22Z"
       transform="translate(-445.5 -121.26)"
       id="path7361" />
    <path
       class="cls-10"
       d="M677.19,543.33s5.64,7.67,7.64,11.59c-13,8.25-9.08,18.91-9.08,18.91-7.42,1.67-12.92-5.5-12.92-5.5s-4.5-7.91-3-13.41S666.21,542.33,677.19,543.33Z"
       transform="translate(-445.5 -121.26)"
       id="path7363" />
    <path
       class="cls-10"
       d="M677.69,536.22a14.12,14.12,0,0,0-.5,7.11c-11-1-15.86,6.09-17.36,11.59a10.89,10.89,0,0,0-4.9-1.82s-7.26-9.6-4.6-16.52a18.28,18.28,0,0,1,4-6.45,12,12,0,0,1,9.09-3.69C669.08,526.58,677.69,536.22,677.69,536.22Z"
       transform="translate(-445.5 -121.26)"
       id="path7365" />
    <path
       class="cls-10"
       d="M676.83,578a1.29,1.29,0,0,0-.82.33,19.53,19.53,0,0,0-6.34,15.28h-5.16s-7.09-6.16-7.76-9.25a18.05,18.05,0,0,1,1.33-11.25,10.93,10.93,0,0,1,4.75-4.75s5.5,7.17,12.92,5.5C675.75,573.83,676.24,575.93,676.83,578Z"
       transform="translate(-445.5 -121.26)"
       id="path7367" />
    <path
       class="cls-10"
       d="M668.72,502.45a18.85,18.85,0,0,0-4.14,11c-7,1.37-10.25,9.68-10.25,9.68-3.9-.56-8.35,1.81-11.46,5.2,0,0-4.62-14.77,1.71-22.37C651.09,498.19,661.1,496.14,668.72,502.45Z"
       transform="translate(-445.5 -121.26)"
       id="path7369" />
    <path
       class="cls-10"
       d="M659.83,554.92c-1.5,5.5,3,13.41,3,13.41a10.93,10.93,0,0,0-4.75,4.75c-8.63-6.49-9.25-20.25-9.25-20.25a29.34,29.34,0,0,1,6.1.27A10.89,10.89,0,0,1,659.83,554.92Z"
       transform="translate(-445.5 -121.26)"
       id="path7371" />
    <path
       class="cls-10"
       d="M654.33,530.12h0a18.28,18.28,0,0,0-4,6.45c-2.66,6.92,4.6,16.52,4.6,16.52a29.34,29.34,0,0,0-6.1-.27s-9.58-9-9.83-15.7c-.11-2.93,1.48-6.15,3.87-8.76,3.11-3.39,7.56-5.76,11.46-5.2C654.33,523.17,653.42,527.48,654.33,530.12Z"
       transform="translate(-445.5 -121.26)"
       id="path7373" />
    <path
       class="cls-12"
       d="M687.55,601.77c-.11,2.73.08,15.19,12.57,11.73,0,0,3.5,12.12-10.12,13.75-14,1.67-15.38-14.75-15.38-14.75s12.07,2.44,12.93-10.73"
       transform="translate(-445.5 -121.26)"
       id="path7375" />
    <path
       class="cls-12"
       d="M687.58,601.25a.28.28,0,0,1,0,.09v.07"
       transform="translate(-445.5 -121.26)"
       id="path7377" />
    <path
       class="cls-12"
       d="M687.57,601.42a.19.19,0,0,1,0,.08c0,.07,0,.16,0,.27"
       transform="translate(-445.5 -121.26)"
       id="path7379" />
    <path
       class="cls-12"
       d="M699.5,594.38a41.09,41.09,0,0,0,9.69.08.59.59,0,0,1,.66.48,23.53,23.53,0,0,1-.22,10.38,10.66,10.66,0,0,1-9.35,8.06"
       transform="translate(-445.5 -121.26)"
       id="path7381" />
    <path
       class="cls-12"
       d="M709.63,605.32s12.72-.49,14.76-10.72a11.63,11.63,0,0,0,.22-2.43,14.62,14.62,0,0,0-.27-2.55c-.51-2.71-1.8-7-4.86-8.12"
       transform="translate(-445.5 -121.26)"
       id="path7383" />
    <path
       class="cls-12"
       d="M669.67,593.58A19.53,19.53,0,0,1,676,578.3a1.29,1.29,0,0,1,.82-.33,1.18,1.18,0,0,1,.86.33c2.53,2.44,10.9,9.3,20.41,3.63a1.43,1.43,0,0,1,1.4,0,1.34,1.34,0,0,1,.71.81,16.11,16.11,0,0,1-.71,11.69c-2.5,5.64-7.94,6.69-10.52,6.86a13.55,13.55,0,0,0-1.41.17h0c-.61.09-1.22.23-1.82.38-9.45,2.33-13.81-5.12-14.94-7.51a1.28,1.28,0,0,0-1.14-.71h-5.16a.9.9,0,0,0-.89.77c-.43,3.11-1.19,14.7,11,18.15"
       transform="translate(-445.5 -121.26)"
       id="path7385" />
    <path
       class="cls-12"
       d="M699.5,581.88s6.58-3.29,8.49-8.12a1.06,1.06,0,0,1,1-.68.94.94,0,0,1,.36.08c1.67.72,5.07,1.8,7.82.17a1,1,0,0,1,1,0,1,1,0,0,1,.45.53,21.08,21.08,0,0,1,.79,7.66c0,.3,0,.6,0,.92-.42,7.83-10.23,12-10.23,12"
       transform="translate(-445.5 -121.26)"
       id="path7387" />
    <path
       class="cls-12"
       d="M664.51,593.58s-7.09-6.16-7.76-9.25a18.05,18.05,0,0,1,1.33-11.25,10.93,10.93,0,0,1,4.75-4.75s5.5,7.17,12.92,5.5c0,0,.49,2.1,1.08,4.14"
       transform="translate(-445.5 -121.26)"
       id="path7389" />
    <path
       class="cls-12"
       d="M662.83,568.33s-4.5-7.91-3-13.41,6.38-12.59,17.36-11.59c0,0,5.64,7.67,7.64,11.59-13,8.25-9.08,18.91-9.08,18.91"
       transform="translate(-445.5 -121.26)"
       id="path7391" />
    <path
       class="cls-12"
       d="M684.83,554.92s10.55,1.91,16.15-1.17c0,0,9.6,5.33,8,19.33"
       transform="translate(-445.5 -121.26)"
       id="path7393" />
    <path
       class="cls-12"
       d="M701,553.75s6.27-4.19,6.77-5.93c0,0,7.5,6.32,14.83,0,0,0,6,2.93,5.25,11.76a16.37,16.37,0,0,1-4.8,9.88,22.69,22.69,0,0,1-4.81,3.85"
       transform="translate(-445.5 -121.26)"
       id="path7395" />
    <path
       class="cls-12"
       d="M723,569.46s6,2.71,12.8-1.88c0,0,5.72,18.84-11.22,24.59"
       transform="translate(-445.5 -121.26)"
       id="path7397" />
    <path
       class="cls-12"
       d="M735.83,567.58s8.34-4.75,7.92-13.08a16.77,16.77,0,0,0-3.44-9.3c-2.88-3.72-7.26-5.9-12-4.62a11,11,0,0,1-5.75,7.24"
       transform="translate(-445.5 -121.26)"
       id="path7399" />
    <path
       class="cls-12"
       d="M707.75,547.82s2.75-11-.67-14.49A40.63,40.63,0,0,0,703.6,530c-3.47-2.86-8.56-5.16-17.07-2.05-5.36,2-7.79,5.25-8.84,8.3a14.12,14.12,0,0,0-.5,7.11"
       transform="translate(-445.5 -121.26)"
       id="path7401" />
    <path
       class="cls-12"
       d="M658.08,573.08c-8.63-6.49-9.25-20.25-9.25-20.25a29.34,29.34,0,0,1,6.1.27,10.89,10.89,0,0,1,4.9,1.82"
       transform="translate(-445.5 -121.26)"
       id="path7403" />
    <path
       class="cls-12"
       d="M648.83,552.83s-9.58-9-9.83-15.7c-.11-2.93,1.48-6.15,3.87-8.76,3.11-3.39,7.56-5.76,11.46-5.2,0,0-.91,4.31,0,7"
       transform="translate(-445.5 -121.26)"
       id="path7405" />
    <path
       class="cls-12"
       d="M654.93,553.1s-7.26-9.6-4.6-16.52a18.28,18.28,0,0,1,4-6.45,12,12,0,0,1,9.09-3.69c5.65.14,14.26,9.78,14.26,9.78"
       transform="translate(-445.5 -121.26)"
       id="path7407" />
    <path
       class="cls-12"
       d="M728.33,540.58s3.65-12.75-2.44-17.5a9.4,9.4,0,0,0-6.14-1.75,29,29,0,0,0-5.31.56c-9.21,1.86-10.78,7.87-10.84,8.08h0"
       transform="translate(-445.5 -121.26)"
       id="path7409" />
    <path
       class="cls-12"
       d="M740.31,545.2s7-6.87,7.69-15.78c.42-5.65-4.69-10.73-11-11.13-3.61-.24-7.62,1.09-11.15,4.79"
       transform="translate(-445.5 -121.26)"
       id="path7411" />
    <path
       class="cls-12"
       d="M654.33,523.17s3.25-8.31,10.25-9.68a7.73,7.73,0,0,1,1.09-.16c6.67-.57,16.27-1.94,19.71,8.51a26.11,26.11,0,0,1,1.15,6.08"
       transform="translate(-445.5 -121.26)"
       id="path7413" />
    <path
       class="cls-12"
       d="M685.38,521.84s3.44-9.4,10.59-12.4a11.42,11.42,0,0,1,3.45-.86,11.75,11.75,0,0,1,4.87.55c6.18,2.09,9.23,9.08,10.15,12.75"
       transform="translate(-445.5 -121.26)"
       id="path7415" />
    <path
       class="cls-12"
       d="M685.22,496.23a12.93,12.93,0,0,1,3.36,1l.66.32c3.18,1.69,6.43,5.08,6.73,11.86"
       transform="translate(-445.5 -121.26)"
       id="path7417" />
    <path
       class="cls-12"
       d="M664.58,513.49a18.85,18.85,0,0,1,4.14-11,18.07,18.07,0,0,1,10.9-6.09,16.82,16.82,0,0,1,2.64-.31"
       transform="translate(-445.5 -121.26)"
       id="path7419" />
    <path
       class="cls-12"
       d="M642.87,528.37s-4.62-14.77,1.71-22.37c6.51-7.81,16.52-9.86,24.14-3.55l.36.3"
       transform="translate(-445.5 -121.26)"
       id="path7421" />
    <path
       class="cls-12"
       d="M704.29,509.13a19.72,19.72,0,0,1,18.29-10.4c12.81.51,15.63,8.74,14.46,19.56,0,.23,0,.47-.08.71"
       transform="translate(-445.5 -121.26)"
       id="path7423" />
    <path
       class="cls-12"
       d="M689.24,497.58a18.64,18.64,0,0,1,16.09-10.41c12-.67,14.57,11.62,14.57,11.62"
       transform="translate(-445.5 -121.26)"
       id="path7425" />
    <path
       class="cls-12"
       d="M685.22,496.23l.16,0c7.63-12.07,4.45-23,4.45-23-6.25-17-22.16-33.42-22.16-33.42-8.84.42-6.34,10.92-6.34,10.92,17.39,8.08,27.09,22.83,26.09,30.42-.88,6.62-5.59,14.87-5.59,14.87h.43c.73,0,2.21.09,2.9.17Z"
       transform="translate(-445.5 -121.26)"
       id="path7427" />
  </g>
  <g
     id="Layer_6"
     data-name="Layer 6">
    <path
       class="cls-13"
       d="M483.5,419.38s-1-8.71,19.5-15.54c0,0-23.67-19.41-22-47.54,0,0,.67-2.3,1.17-3.46s-1.83-11.67,3.5-22.33c0,0,1.17,16.17,1.33,19,0,0,1.83-16.83,3.33-21.17,0,0,1.75,14.33,1.62,19.17,0,0,1.21-14.67,3.54-19.17a52.4,52.4,0,0,1,1.67,17.83s1.5-10.67,5.83-12.33a119.58,119.58,0,0,0-2,14.5s2.33,2.63,4.5-4.52c0,0,.83,5.35.83,6.85s10.17,6.5,14.33,13.5,14.83-34.33,14.83-34.33V318.67s2.83,0,2.83,10.33c0,0,2.5-6.5,3.67-17.67s5.67-17.28,5.67-17.28-1,16.28-2.33,22.78c0,0,5.83-22.92,9.17-27.21,0,0-1,15-4.83,27.71,0,0,6.67-17.67,11-22.5A220.37,220.37,0,0,1,555,317s5.17-13.5,10.17-18.5c0,0-2.83,10.67-5.33,18.17,0,0,7-13.67,10.57-17a50,50,0,0,1-2.4,11.67,7.94,7.94,0,0,0,4.51-.5.4.4,0,0,1,.58.44,17.9,17.9,0,0,0-.43,4.73s.62.87,2.18,0a.24.24,0,0,1,.34.32,53.85,53.85,0,0,0-2.35,5.47,9.53,9.53,0,0,0,4.67-.33,6.25,6.25,0,0,1-2.83,4.32s.71,1.06,3.83,1.06c0,0-.25,2-3.37,4.88a6.93,6.93,0,0,1,3.38,1.5,25.94,25.94,0,0,1-3.37,4.25,17.75,17.75,0,0,1,3.38.88,15.35,15.35,0,0,1-2.37,4.25,27.48,27.48,0,0,0,3.75.13A19.37,19.37,0,0,1,577,349s4.13,1,5.13,2.75-1.62,2.5-2.12,3.75,2.08,1.13,2.35,2.63a3.39,3.39,0,0,1-1.73,3.63c-1.25.63-.06,2,1.78,2.88s1.22,3-.91,4.5,1,2.25,1,2.25,2.5,3-1.87,6.25c0,0-1,2.25,1,2.88s-.37,3.38-1.5,4.5-.37,2.35,1.13,2.86-1.62,4.51-3.87,5.26-.75,2.88.5,3.13-3.12,1.25-3.5,2.75a6,6,0,0,1-.69,1.59,1.08,1.08,0,0,1-1.69.24,2.86,2.86,0,0,0-2.25-1c-2,.13-8-2.12-15,5a8,8,0,0,0,5.31.16,7,7,0,0,1,6.4,1.17,7.62,7.62,0,0,1,1,1.05c2.13,2.62,18.75,5.62,26.25.62,0,0,6.25,8.13,9,8.13,0,0-14.87-2.41-28.62,5s-16.5,5.08-19.62,9.08-5.75.25-8,2.38-3.08,3.13-4.67,3.63-2.08-3.5-2.08-4.62-3.25,1.38-3.87,3.13-4.5-3.25-4.5-3.25-12.37-.5-16.5-3.87-10.75-5.37-12.62-5.25-4.5.5-6.75-2.12S486.5,418.33,483.5,419.38Z"
       transform="translate(-445.5 -121.26)"
       id="path7430" />
    <path
       class="cls-9"
       d="M503,403.83s14.09,2.21,17.1-3.2,2.6-15.19.6-21.9c-1.68-5.66,1-13.78,1-13.78"
       transform="translate(-445.5 -121.26)"
       id="path7432" />
    <g
       id="Layer_7"
       data-name="Layer 7">
      <circle
         cx="50.29"
         cy="289.48"
         r="1.8"
         id="circle7434" />
    </g>
  </g>
  <g
     id="Layer_4"
     data-name="Layer 4">
    <path
       class="cls-14"
       d="M553,551l-4.25,4.25s-3.75-5.75-2.58-11.92c.85-4.51,10.16-15,15.11-20.29a11.59,11.59,0,0,1,9.49-3.75,6.82,6.82,0,0,1,2.24.54,5.76,5.76,0,0,1,3.33,3.33l-3,3.67s-4.5-1.5-8.17,3.17c-2.39,3-6.82,8.19-9.62,11.42a11.08,11.08,0,0,0-2.73,7.88A14.66,14.66,0,0,0,553,551Z"
       transform="translate(-445.5 -121.26)"
       id="path7438" />
    <path
       class="cls-14"
       d="M606.29,486.25,602,490.5s-3.75-5.75-2.58-11.92c.85-4.51,10.16-15,15.11-20.29a11.59,11.59,0,0,1,9.49-3.75,6.82,6.82,0,0,1,2.24.54,5.76,5.76,0,0,1,3.33,3.33l-3,3.67s-4.5-1.5-8.17,3.17c-2.39,3-6.82,8.19-9.62,11.42a11.08,11.08,0,0,0-2.73,7.88A14.66,14.66,0,0,0,606.29,486.25Z"
       transform="translate(-445.5 -121.26)"
       id="path7440" />
    <path
       class="cls-14"
       d="M580,517.82l-4.25,4.25s-3.75-5.75-2.58-11.92c.85-4.51,10.16-15,15.11-20.29a11.59,11.59,0,0,1,9.49-3.75,6.82,6.82,0,0,1,2.24.54,5.76,5.76,0,0,1,3.33,3.33l-3,3.67s-4.5-1.5-8.17,3.17c-2.39,3-6.82,8.19-9.62,11.42a11.08,11.08,0,0,0-2.73,7.88A14.66,14.66,0,0,0,580,517.82Z"
       transform="translate(-445.5 -121.26)"
       id="path7442" />
    <path
       class="cls-14"
       d="M633.39,452.8,629.14,457s-3.75-5.75-2.58-11.92c.85-4.51,10.16-15,15.11-20.29a11.59,11.59,0,0,1,9.49-3.75,6.82,6.82,0,0,1,2.24.54,5.76,5.76,0,0,1,3.33,3.33l-3,3.67s-4.5-1.5-8.17,3.17c-2.39,3-6.82,8.19-9.62,11.42a11.08,11.08,0,0,0-2.73,7.88A14.66,14.66,0,0,0,633.39,452.8Z"
       transform="translate(-445.5 -121.26)"
       id="path7444" />
    <path
       class="cls-14"
       d="M686.68,388l-4.25,4.25s-3.75-5.75-2.58-11.92c.85-4.51,10.16-15,15.11-20.29a11.59,11.59,0,0,1,9.49-3.75,6.82,6.82,0,0,1,2.24.54,5.76,5.76,0,0,1,3.33,3.33l-3,3.67s-4.5-1.5-8.17,3.17c-2.39,3-6.82,8.19-9.62,11.42a11.08,11.08,0,0,0-2.73,7.88A14.66,14.66,0,0,0,686.68,388Z"
       transform="translate(-445.5 -121.26)"
       id="path7446" />
    <path
       class="cls-14"
       d="M660.41,419.61l-4.25,4.25s-3.75-5.75-2.58-11.92c.85-4.51,10.16-15,15.11-20.29a11.59,11.59,0,0,1,9.49-3.75,6.82,6.82,0,0,1,2.24.54,5.76,5.76,0,0,1,3.33,3.33l-3,3.67s-4.5-1.5-8.17,3.17c-2.39,3-6.82,8.19-9.62,11.42a11.08,11.08,0,0,0-2.73,7.88A14.66,14.66,0,0,0,660.41,419.61Z"
       transform="translate(-445.5 -121.26)"
       id="path7448" />
    <path
       class="cls-14"
       d="M713.91,354.56l-4.25,4.25s-3.75-5.75-2.58-11.92c.85-4.51,10.16-15,15.11-20.29a11.59,11.59,0,0,1,9.49-3.75,6.82,6.82,0,0,1,2.24.54,5.76,5.76,0,0,1,3.33,3.33l-3,3.67s-4.5-1.5-8.17,3.17c-2.39,3-6.82,8.19-9.62,11.42a11.08,11.08,0,0,0-2.73,7.88A14.66,14.66,0,0,0,713.91,354.56Z"
       transform="translate(-445.5 -121.26)"
       id="path7450" />
    <path
       class="cls-14"
       d="M767.19,289.81l-4.25,4.25s-3.75-5.75-2.58-11.92c.85-4.51,10.16-15,15.11-20.29A11.59,11.59,0,0,1,785,258.1a6.82,6.82,0,0,1,2.24.54,5.76,5.76,0,0,1,3.33,3.33l-3,3.67s-4.5-1.5-8.17,3.17c-2.39,3-6.82,8.19-9.62,11.42a11.08,11.08,0,0,0-2.73,7.88A14.66,14.66,0,0,0,767.19,289.81Z"
       transform="translate(-445.5 -121.26)"
       id="path7452" />
    <path
       class="cls-14"
       d="M740.92,321.37l-4.25,4.25s-3.75-5.75-2.58-11.92c.85-4.51,10.16-15,15.11-20.29a11.59,11.59,0,0,1,9.49-3.75,6.82,6.82,0,0,1,2.24.54,5.76,5.76,0,0,1,3.33,3.33l-3,3.67s-4.5-1.5-8.17,3.17c-2.39,3-6.82,8.19-9.62,11.42a11.08,11.08,0,0,0-2.73,7.88A14.66,14.66,0,0,0,740.92,321.37Z"
       transform="translate(-445.5 -121.26)"
       id="path7454" />
    <path
       class="cls-14"
       d="M795.32,255.12l-4.25,4.25s-3.75-5.75-2.58-11.92c.85-4.51,10.16-15,15.11-20.29a11.59,11.59,0,0,1,9.49-3.75,6.82,6.82,0,0,1,2.24.54,5.76,5.76,0,0,1,3.33,3.33l-3,3.67s-4.5-1.5-8.17,3.17c-2.39,3-6.82,8.19-9.62,11.42a11.08,11.08,0,0,0-2.73,7.88A14.66,14.66,0,0,0,795.32,255.12Z"
       transform="translate(-445.5 -121.26)"
       id="path7456" />
    <path
       class="cls-14"
       d="M848.6,190.37l-4.25,4.25s-3.75-5.75-2.58-11.92c.85-4.51,10.16-15,15.11-20.29a11.59,11.59,0,0,1,9.49-3.75,6.82,6.82,0,0,1,2.24.54,5.76,5.76,0,0,1,3.33,3.33l-3,3.67s-4.5-1.5-8.17,3.17c-2.39,3-6.82,8.19-9.62,11.42a11.08,11.08,0,0,0-2.73,7.88A14.66,14.66,0,0,0,848.6,190.37Z"
       transform="translate(-445.5 -121.26)"
       id="path7458" />
    <path
       class="cls-14"
       d="M822.33,221.93l-4.25,4.25s-3.75-5.75-2.58-11.92c.85-4.51,10.16-15,15.11-20.29a11.59,11.59,0,0,1,9.49-3.75,6.82,6.82,0,0,1,2.24.54,5.76,5.76,0,0,1,3.33,3.33l-3,3.67s-4.5-1.5-8.17,3.17c-2.39,3-6.82,8.19-9.62,11.42a11.08,11.08,0,0,0-2.73,7.88A14.66,14.66,0,0,0,822.33,221.93Z"
       transform="translate(-445.5 -121.26)"
       id="path7460" />
    <path
       class="cls-14"
       d="M902.67,125.8,898.42,130a19.31,19.31,0,0,1-1.75-3.71,18.9,18.9,0,0,1-.9-3.58h6.72a10.15,10.15,0,0,0,0,1.35A13,13,0,0,0,902.67,125.8Z"
       transform="translate(-445.5 -121.26)"
       id="path7462" />
    <path
       class="cls-14"
       d="M876.4,157.37l-4.25,4.25s-3.75-5.75-2.58-11.92c.85-4.51,10.16-15,15.11-20.29a11.59,11.59,0,0,1,9.49-3.75,6.82,6.82,0,0,1,2.24.54,5.76,5.76,0,0,1,3.33,3.33l-3,3.67s-4.5-1.5-8.17,3.17c-2.39,3-6.82,8.19-9.62,11.42a11.08,11.08,0,0,0-2.73,7.88A14.66,14.66,0,0,0,876.4,157.37Z"
       transform="translate(-445.5 -121.26)"
       id="path7464" />
    <path
       class="cls-14"
       d="M913.19,122.76l-.09.53c-.85,4.51-10.16,15-15.11,20.29a11.62,11.62,0,0,1-9.49,3.75,6.82,6.82,0,0,1-2.24-.54,7.06,7.06,0,0,1-2.64-2l0-.08-.08-.1a3.9,3.9,0,0,1-.56-1.11l3-3.67s4.5,1.5,8.17-3.17c2.38-3,6.82-8.19,9.62-11.42a11.5,11.5,0,0,0,1.62-2.44Z"
       transform="translate(-445.5 -121.26)"
       id="path7466" />
    <path
       class="cls-14"
       d="M853,180.37l4.25-4.25s3.75,5.75,2.58,11.92c-.85,4.51-10.16,15-15.11,20.29a11.59,11.59,0,0,1-9.49,3.75,6.82,6.82,0,0,1-2.24-.54,5.76,5.76,0,0,1-3.33-3.33l3-3.67s4.5,1.5,8.17-3.17c2.39-3,6.82-8.19,9.62-11.42a11.08,11.08,0,0,0,2.73-7.88A14.66,14.66,0,0,0,853,180.37Z"
       transform="translate(-445.5 -121.26)"
       id="path7468" />
    <path
       class="cls-14"
       d="M879.25,148.81l4.25-4.25s3.75,5.75,2.58,11.92c-.85,4.51-10.16,15-15.11,20.29a11.59,11.59,0,0,1-9.49,3.75,6.82,6.82,0,0,1-2.24-.54,5.76,5.76,0,0,1-3.33-3.33l3-3.67s4.5,1.5,8.17-3.17c2.39-3,6.82-8.19,9.62-11.42a11.08,11.08,0,0,0,2.73-7.88A14.66,14.66,0,0,0,879.25,148.81Z"
       transform="translate(-445.5 -121.26)"
       id="path7470" />
    <path
       class="cls-14"
       d="M825.87,213.83l4.25-4.25s3.75,5.75,2.58,11.92c-.85,4.51-10.16,15-15.11,20.29a11.59,11.59,0,0,1-9.49,3.75,6.82,6.82,0,0,1-2.24-.54,5.76,5.76,0,0,1-3.33-3.33l3-3.67s4.5,1.5,8.17-3.17c2.39-3,6.82-8.19,9.62-11.42a11.08,11.08,0,0,0,2.73-7.88A14.66,14.66,0,0,0,825.87,213.83Z"
       transform="translate(-445.5 -121.26)"
       id="path7472" />
    <path
       class="cls-14"
       d="M772.59,278.58l4.25-4.25s3.75,5.75,2.58,11.92c-.85,4.51-10.16,15-15.11,20.29a11.59,11.59,0,0,1-9.49,3.75,6.82,6.82,0,0,1-2.24-.54,5.76,5.76,0,0,1-3.33-3.33l3-3.67s4.5,1.5,8.17-3.17c2.39-3,6.82-8.19,9.62-11.42a11.08,11.08,0,0,0,2.73-7.88A14.66,14.66,0,0,0,772.59,278.58Z"
       transform="translate(-445.5 -121.26)"
       id="path7474" />
    <path
       class="cls-14"
       d="M798.86,247l4.25-4.25s3.75,5.75,2.58,11.92c-.85,4.51-10.16,15-15.11,20.29a11.59,11.59,0,0,1-9.49,3.75,6.82,6.82,0,0,1-2.24-.54,5.76,5.76,0,0,1-3.33-3.33l3-3.67s4.5,1.5,8.17-3.17c2.39-3,6.82-8.19,9.62-11.42a11.08,11.08,0,0,0,2.73-7.88A14.66,14.66,0,0,0,798.86,247Z"
       transform="translate(-445.5 -121.26)"
       id="path7476" />
    <path
       class="cls-14"
       d="M745.36,312.07l4.25-4.25s3.75,5.75,2.58,11.92c-.85,4.51-10.16,15-15.11,20.29a11.59,11.59,0,0,1-9.49,3.75,6.82,6.82,0,0,1-2.24-.54A5.76,5.76,0,0,1,722,339.9l3-3.67s4.5,1.5,8.17-3.17c2.39-3,6.82-8.19,9.62-11.42a11.08,11.08,0,0,0,2.73-7.88A14.66,14.66,0,0,0,745.36,312.07Z"
       transform="translate(-445.5 -121.26)"
       id="path7478" />
    <path
       class="cls-14"
       d="M692.07,376.82l4.25-4.25s3.75,5.75,2.58,11.92c-.85,4.51-10.16,15-15.11,20.29a11.59,11.59,0,0,1-9.49,3.75,6.82,6.82,0,0,1-2.24-.54,5.76,5.76,0,0,1-3.33-3.33l3-3.67s4.5,1.5,8.17-3.17c2.39-3,6.82-8.19,9.62-11.42a11.08,11.08,0,0,0,2.73-7.88A14.66,14.66,0,0,0,692.07,376.82Z"
       transform="translate(-445.5 -121.26)"
       id="path7480" />
    <path
       class="cls-14"
       d="M718.34,345.25l4.25-4.25s3.75,5.75,2.58,11.92c-.85,4.51-10.16,15-15.11,20.29a11.59,11.59,0,0,1-9.49,3.75,6.82,6.82,0,0,1-2.24-.54,5.76,5.76,0,0,1-3.33-3.33l3-3.67s4.5,1.5,8.17-3.17c2.39-3,6.82-8.19,9.62-11.42a11.08,11.08,0,0,0,2.73-7.88A14.66,14.66,0,0,0,718.34,345.25Z"
       transform="translate(-445.5 -121.26)"
       id="path7482" />
    <path
       class="cls-14"
       d="M663.95,411.51l4.25-4.25s3.75,5.75,2.58,11.92c-.85,4.51-10.16,15-15.11,20.29a11.59,11.59,0,0,1-9.49,3.75,6.82,6.82,0,0,1-2.24-.54,5.76,5.76,0,0,1-3.33-3.33l3-3.67s4.5,1.5,8.17-3.17c2.39-3,6.82-8.19,9.62-11.42a11.08,11.08,0,0,0,2.73-7.88A14.66,14.66,0,0,0,663.95,411.51Z"
       transform="translate(-445.5 -121.26)"
       id="path7484" />
    <path
       class="cls-14"
       d="M610.66,476.26l4.25-4.25s3.75,5.75,2.58,11.92c-.85,4.51-10.16,15-15.11,20.29A11.59,11.59,0,0,1,592.9,508a6.82,6.82,0,0,1-2.24-.54,5.76,5.76,0,0,1-3.33-3.33l3-3.67s4.5,1.5,8.17-3.17c2.39-3,6.82-8.19,9.62-11.42a11.08,11.08,0,0,0,2.73-7.88A14.66,14.66,0,0,0,610.66,476.26Z"
       transform="translate(-445.5 -121.26)"
       id="path7486" />
    <path
       class="cls-14"
       d="M636.93,444.69l4.25-4.25s3.75,5.75,2.58,11.92c-.85,4.51-10.16,15-15.11,20.29a11.59,11.59,0,0,1-9.49,3.75,6.82,6.82,0,0,1-2.24-.54,5.76,5.76,0,0,1-3.33-3.33l3-3.67s4.5,1.5,8.17-3.17c2.39-3,6.82-8.19,9.62-11.42a11.08,11.08,0,0,0,2.73-7.88A14.66,14.66,0,0,0,636.93,444.69Z"
       transform="translate(-445.5 -121.26)"
       id="path7488" />
    <path
       class="cls-14"
       d="M563.43,548.49c-.57,3-5,8.81-9.35,13.87-.2-.17-.39-.36-.59-.54l-1.67-1.57L550,558.54l-1.6-1.53c2-2.33,4.08-4.78,5.67-6.61a11.11,11.11,0,0,0,2.73-7.88c0-.58-.1-1.16-.19-1.7l3.17-3.17,1.08-1.08a19.25,19.25,0,0,1,1.76,3.72A16.06,16.06,0,0,1,563.43,548.49Z"
       transform="translate(-445.5 -121.26)"
       id="path7490" />
    <path
       class="cls-14"
       d="M582.87,509.26l4.25-4.25s3.75,5.75,2.58,11.92c-.85,4.51-10.16,15-15.11,20.29A11.59,11.59,0,0,1,565.1,541a6.82,6.82,0,0,1-2.24-.54,5.76,5.76,0,0,1-3.33-3.33l3-3.67s4.5,1.5,8.17-3.17c2.39-3,6.82-8.19,9.62-11.42a11.08,11.08,0,0,0,2.73-7.88A14.66,14.66,0,0,0,582.87,509.26Z"
       transform="translate(-445.5 -121.26)"
       id="path7492" />
    <path
       class="cls-14"
       d="M823.32,551l4.25,4.25s3.75-5.75,2.58-11.92c-.85-4.51-10.16-15-15.11-20.29a11.59,11.59,0,0,0-9.49-3.75,6.82,6.82,0,0,0-2.24.54,5.76,5.76,0,0,0-3.33,3.33l3,3.67s4.5-1.5,8.17,3.17c2.39,3,6.82,8.19,9.62,11.42a11.08,11.08,0,0,1,2.73,7.88A14.66,14.66,0,0,1,823.32,551Z"
       transform="translate(-445.5 -121.26)"
       id="path7494" />
    <path
       class="cls-14"
       d="M770,486.25l4.25,4.25s3.75-5.75,2.58-11.92c-.85-4.51-10.16-15-15.11-20.29a11.59,11.59,0,0,0-9.49-3.75,6.82,6.82,0,0,0-2.24.54,5.76,5.76,0,0,0-3.33,3.33l3,3.67s4.5-1.5,8.17,3.17c2.39,3,6.82,8.19,9.62,11.42a11.08,11.08,0,0,1,2.73,7.88A14.66,14.66,0,0,1,770,486.25Z"
       transform="translate(-445.5 -121.26)"
       id="path7496" />
    <path
       class="cls-14"
       d="M796.3,517.82l4.25,4.25s3.75-5.75,2.58-11.92c-.85-4.51-10.16-15-15.11-20.29a11.59,11.59,0,0,0-9.49-3.75,6.82,6.82,0,0,0-2.24.54A5.76,5.76,0,0,0,773,490l3,3.67s4.5-1.5,8.17,3.17c2.39,3,6.82,8.19,9.62,11.42a11.08,11.08,0,0,1,2.73,7.88A14.66,14.66,0,0,1,796.3,517.82Z"
       transform="translate(-445.5 -121.26)"
       id="path7498" />
    <path
       class="cls-14"
       d="M742.93,452.8l4.25,4.25s3.75-5.75,2.58-11.92c-.85-4.51-10.16-15-15.11-20.29a11.59,11.59,0,0,0-9.49-3.75,6.82,6.82,0,0,0-2.24.54,5.76,5.76,0,0,0-3.33,3.33l3,3.67s4.5-1.5,8.17,3.17c2.39,3,6.82,8.19,9.62,11.42a11.08,11.08,0,0,1,2.73,7.88A14.66,14.66,0,0,1,742.93,452.8Z"
       transform="translate(-445.5 -121.26)"
       id="path7500" />
    <path
       class="cls-14"
       d="M689.64,388l4.25,4.25s3.75-5.75,2.58-11.92c-.85-4.51-10.16-15-15.11-20.29a11.59,11.59,0,0,0-9.49-3.75,6.82,6.82,0,0,0-2.24.54,5.76,5.76,0,0,0-3.33,3.33l3,3.67s4.5-1.5,8.17,3.17c2.39,3,6.82,8.19,9.62,11.42a11.08,11.08,0,0,1,2.73,7.88A14.66,14.66,0,0,1,689.64,388Z"
       transform="translate(-445.5 -121.26)"
       id="path7502" />
    <path
       class="cls-14"
       d="M715.91,419.61l4.25,4.25s3.75-5.75,2.58-11.92c-.85-4.51-10.16-15-15.11-20.29a11.59,11.59,0,0,0-9.49-3.75,6.82,6.82,0,0,0-2.24.54,5.76,5.76,0,0,0-3.33,3.33l3,3.67s4.5-1.5,8.17,3.17c2.39,3,6.82,8.19,9.62,11.42a11.08,11.08,0,0,1,2.73,7.88A14.66,14.66,0,0,1,715.91,419.61Z"
       transform="translate(-445.5 -121.26)"
       id="path7504" />
    <path
       class="cls-14"
       d="M662.41,354.56l4.25,4.25s3.75-5.75,2.58-11.92c-.85-4.51-10.16-15-15.11-20.29a11.59,11.59,0,0,0-9.49-3.75,6.82,6.82,0,0,0-2.24.54,5.76,5.76,0,0,0-3.33,3.33l3,3.67s4.5-1.5,8.17,3.17c2.39,3,6.82,8.19,9.62,11.42a11.08,11.08,0,0,1,2.73,7.88A14.66,14.66,0,0,1,662.41,354.56Z"
       transform="translate(-445.5 -121.26)"
       id="path7506" />
    <path
       class="cls-14"
       d="M609.12,289.81l4.25,4.25s3.75-5.75,2.58-11.92c-.85-4.51-10.16-15-15.11-20.29a11.59,11.59,0,0,0-9.49-3.75,6.82,6.82,0,0,0-2.24.54,5.76,5.76,0,0,0-3.33,3.33l3,3.67s4.5-1.5,8.17,3.17c2.39,3,6.82,8.19,9.62,11.42a11.08,11.08,0,0,1,2.73,7.88A14.66,14.66,0,0,1,609.12,289.81Z"
       transform="translate(-445.5 -121.26)"
       id="path7508" />
    <path
       class="cls-14"
       d="M635.39,321.37l4.25,4.25s3.75-5.75,2.58-11.92c-.85-4.51-10.16-15-15.11-20.29a11.59,11.59,0,0,0-9.49-3.75,6.82,6.82,0,0,0-2.24.54,5.76,5.76,0,0,0-3.33,3.33l3,3.67s4.5-1.5,8.17,3.17c2.39,3,6.82,8.19,9.62,11.42a11.08,11.08,0,0,1,2.73,7.88A14.66,14.66,0,0,1,635.39,321.37Z"
       transform="translate(-445.5 -121.26)"
       id="path7510" />
    <path
       class="cls-14"
       d="M581,255.12l4.25,4.25s3.75-5.75,2.58-11.92c-.85-4.51-10.16-15-15.11-20.29a11.59,11.59,0,0,0-9.49-3.75,6.82,6.82,0,0,0-2.24.54,5.76,5.76,0,0,0-3.33,3.33l3,3.67s4.5-1.5,8.17,3.17c2.39,3,6.82,8.19,9.62,11.42a11.08,11.08,0,0,1,2.73,7.88A14.66,14.66,0,0,1,581,255.12Z"
       transform="translate(-445.5 -121.26)"
       id="path7512" />
    <path
       class="cls-14"
       d="M527.71,190.37l4.25,4.25s3.75-5.75,2.58-11.92c-.85-4.51-10.16-15-15.11-20.29a11.59,11.59,0,0,0-9.49-3.75,6.82,6.82,0,0,0-2.24.54,5.76,5.76,0,0,0-3.33,3.33l3,3.67s4.5-1.5,8.17,3.17c2.39,3,6.82,8.19,9.62,11.42a11.08,11.08,0,0,1,2.73,7.88A14.66,14.66,0,0,1,527.71,190.37Z"
       transform="translate(-445.5 -121.26)"
       id="path7514" />
    <path
       class="cls-14"
       d="M554,221.93l4.25,4.25s3.75-5.75,2.58-11.92c-.85-4.51-10.16-15-15.11-20.29a11.59,11.59,0,0,0-9.49-3.75,6.82,6.82,0,0,0-2.24.54,5.76,5.76,0,0,0-3.33,3.33l3,3.67s4.5-1.5,8.17,3.17c2.39,3,6.82,8.19,9.62,11.42a11.08,11.08,0,0,1,2.73,7.88A14.66,14.66,0,0,1,554,221.93Z"
       transform="translate(-445.5 -121.26)"
       id="path7516" />
    <path
       class="cls-14"
       d="M480.55,122.76a18.62,18.62,0,0,1-.89,3.57A19.25,19.25,0,0,1,477.9,130L476.81,129l-3.16-3.16c.09-.54.15-1.11.19-1.69a10.15,10.15,0,0,0,0-1.35Z"
       transform="translate(-445.5 -121.26)"
       id="path7518" />
    <path
       class="cls-14"
       d="M499.92,157.37l4.25,4.25s3.75-5.75,2.58-11.92c-.85-4.51-10.16-15-15.11-20.29a11.59,11.59,0,0,0-9.49-3.75,6.82,6.82,0,0,0-2.24.54,5.76,5.76,0,0,0-3.33,3.33l3,3.67s4.5-1.5,8.17,3.17c2.39,3,6.82,8.19,9.62,11.42a11.08,11.08,0,0,1,2.73,7.88A14.66,14.66,0,0,1,499.92,157.37Z"
       transform="translate(-445.5 -121.26)"
       id="path7520" />
    <path
       class="cls-14"
       d="M493.38,143.46a3.61,3.61,0,0,1-.56,1.1.09.09,0,0,1,0,0,.21.21,0,0,1,0,.06,7.1,7.1,0,0,1-2.7,2.12,6.82,6.82,0,0,1-2.23.54,11.61,11.61,0,0,1-9.49-3.75c-5-5.31-14.26-15.78-15.11-20.29l-.09-.53H471a11.09,11.09,0,0,0,1.61,2.44c2.81,3.23,7.24,8.39,9.63,11.42,3.66,4.67,8.16,3.17,8.16,3.17Z"
       transform="translate(-445.5 -121.26)"
       id="path7522" />
    <path
       class="cls-14"
       d="M523.34,180.37l-4.25-4.25s-3.75,5.75-2.58,11.92c.85,4.51,10.16,15,15.11,20.29a11.59,11.59,0,0,0,9.49,3.75,6.82,6.82,0,0,0,2.24-.54,5.76,5.76,0,0,0,3.33-3.33l-3-3.67s-4.5,1.5-8.17-3.17c-2.39-3-6.82-8.19-9.62-11.42a11.08,11.08,0,0,1-2.73-7.88A14.66,14.66,0,0,1,523.34,180.37Z"
       transform="translate(-445.5 -121.26)"
       id="path7524" />
    <path
       class="cls-14"
       d="M497.07,148.81l-4.25-4.25s-3.75,5.75-2.58,11.92c.85,4.51,10.16,15,15.11,20.29a11.59,11.59,0,0,0,9.49,3.75,6.82,6.82,0,0,0,2.24-.54,5.76,5.76,0,0,0,3.33-3.33l-3-3.67s-4.5,1.5-8.17-3.17c-2.39-3-6.82-8.19-9.62-11.42a11.08,11.08,0,0,1-2.73-7.88A14.66,14.66,0,0,1,497.07,148.81Z"
       transform="translate(-445.5 -121.26)"
       id="path7526" />
    <path
       class="cls-14"
       d="M550.44,213.83l-4.25-4.25s-3.75,5.75-2.58,11.92c.85,4.51,10.16,15,15.11,20.29a11.59,11.59,0,0,0,9.49,3.75,6.82,6.82,0,0,0,2.24-.54,5.76,5.76,0,0,0,3.33-3.33l-3-3.67s-4.5,1.5-8.17-3.17c-2.39-3-6.82-8.19-9.62-11.42a11.08,11.08,0,0,1-2.73-7.88A14.66,14.66,0,0,1,550.44,213.83Z"
       transform="translate(-445.5 -121.26)"
       id="path7528" />
    <path
       class="cls-14"
       d="M603.73,278.58l-4.25-4.25s-3.75,5.75-2.58,11.92c.85,4.51,10.16,15,15.11,20.29a11.59,11.59,0,0,0,9.49,3.75,6.82,6.82,0,0,0,2.24-.54,5.76,5.76,0,0,0,3.33-3.33l-3-3.67s-4.5,1.5-8.17-3.17c-2.39-3-6.82-8.19-9.62-11.42a11.08,11.08,0,0,1-2.73-7.88A14.66,14.66,0,0,1,603.73,278.58Z"
       transform="translate(-445.5 -121.26)"
       id="path7530" />
    <path
       class="cls-14"
       d="M577.46,247l-4.25-4.25s-3.75,5.75-2.58,11.92c.85,4.51,10.16,15,15.11,20.29a11.59,11.59,0,0,0,9.49,3.75,6.82,6.82,0,0,0,2.24-.54,5.76,5.76,0,0,0,3.33-3.33l-3-3.67s-4.5,1.5-8.17-3.17c-2.39-3-6.82-8.19-9.62-11.42a11.08,11.08,0,0,1-2.73-7.88A14.66,14.66,0,0,1,577.46,247Z"
       transform="translate(-445.5 -121.26)"
       id="path7532" />
    <path
       class="cls-14"
       d="M631,312.07l-4.25-4.25s-3.75,5.75-2.58,11.92c.85,4.51,10.16,15,15.11,20.29a11.59,11.59,0,0,0,9.49,3.75,6.82,6.82,0,0,0,2.24-.54,5.76,5.76,0,0,0,3.33-3.33l-3-3.67s-4.5,1.5-8.17-3.17c-2.39-3-6.82-8.19-9.62-11.42a11.08,11.08,0,0,1-2.73-7.88A14.66,14.66,0,0,1,631,312.07Z"
       transform="translate(-445.5 -121.26)"
       id="path7534" />
    <path
       class="cls-14"
       d="M684.24,376.82,680,372.57s-3.75,5.75-2.58,11.92c.85,4.51,10.16,15,15.11,20.29a11.59,11.59,0,0,0,9.49,3.75,6.82,6.82,0,0,0,2.24-.54,5.76,5.76,0,0,0,3.33-3.33l-3-3.67s-4.5,1.5-8.17-3.17c-2.39-3-6.82-8.19-9.62-11.42a11.08,11.08,0,0,1-2.73-7.88A14.66,14.66,0,0,1,684.24,376.82Z"
       transform="translate(-445.5 -121.26)"
       id="path7536" />
    <path
       class="cls-14"
       d="M658,345.25,653.73,341s-3.75,5.75-2.58,11.92c.85,4.51,10.16,15,15.11,20.29a11.59,11.59,0,0,0,9.49,3.75,6.82,6.82,0,0,0,2.24-.54,5.76,5.76,0,0,0,3.33-3.33l-3-3.67s-4.5,1.5-8.17-3.17c-2.39-3-6.82-8.19-9.62-11.42a11.08,11.08,0,0,1-2.73-7.88A14.66,14.66,0,0,1,658,345.25Z"
       transform="translate(-445.5 -121.26)"
       id="path7538" />
    <path
       class="cls-14"
       d="M712.37,411.51l-4.25-4.25s-3.75,5.75-2.58,11.92c.85,4.51,10.16,15,15.11,20.29a11.59,11.59,0,0,0,9.49,3.75,6.82,6.82,0,0,0,2.24-.54,5.76,5.76,0,0,0,3.33-3.33l-3-3.67s-4.5,1.5-8.17-3.17c-2.39-3-6.82-8.19-9.62-11.42a11.08,11.08,0,0,1-2.73-7.88A14.66,14.66,0,0,1,712.37,411.51Z"
       transform="translate(-445.5 -121.26)"
       id="path7540" />
    <path
       class="cls-14"
       d="M765.65,476.26,761.4,472s-3.75,5.75-2.58,11.92c.85,4.51,10.16,15,15.11,20.29a11.59,11.59,0,0,0,9.49,3.75,6.82,6.82,0,0,0,2.24-.54,5.76,5.76,0,0,0,3.33-3.33l-3-3.67s-4.5,1.5-8.17-3.17c-2.39-3-6.82-8.19-9.62-11.42a11.08,11.08,0,0,1-2.73-7.88A14.66,14.66,0,0,1,765.65,476.26Z"
       transform="translate(-445.5 -121.26)"
       id="path7542" />
    <path
       class="cls-14"
       d="M739.39,444.69l-4.25-4.25s-3.75,5.75-2.58,11.92c.85,4.51,10.16,15,15.11,20.29a11.59,11.59,0,0,0,9.49,3.75,6.82,6.82,0,0,0,2.24-.54,5.76,5.76,0,0,0,3.33-3.33l-3-3.67s-4.5,1.5-8.17-3.17c-2.39-3-6.82-8.19-9.62-11.42a11.08,11.08,0,0,1-2.73-7.88A14.66,14.66,0,0,1,739.39,444.69Z"
       transform="translate(-445.5 -121.26)"
       id="path7544" />
    <path
       class="cls-14"
       d="M826.88,555.76l-.33.32c-.92.89-1.85,1.78-2.79,2.66l-2.28,2.12-.29.27c-4-4.74-7.78-9.84-8.31-12.64a16.07,16.07,0,0,1,.84-8.21,19.32,19.32,0,0,1,1.75-3.71l4.25,4.25a13.19,13.19,0,0,0-.19,1.7,11.11,11.11,0,0,0,2.73,7.88C823.57,551.91,825.24,553.83,826.88,555.76Z"
       transform="translate(-445.5 -121.26)"
       id="path7546" />
    <path
       class="cls-14"
       d="M793.45,509.26,789.2,505s-3.75,5.75-2.58,11.92c.85,4.51,10.16,15,15.11,20.29a11.59,11.59,0,0,0,9.49,3.75,6.82,6.82,0,0,0,2.24-.54,5.76,5.76,0,0,0,3.33-3.33l-3-3.67s-4.5,1.5-8.17-3.17c-2.39-3-6.82-8.19-9.62-11.42a11.08,11.08,0,0,1-2.73-7.88A14.66,14.66,0,0,1,793.45,509.26Z"
       transform="translate(-445.5 -121.26)"
       id="path7548" />
  </g>
  <path
     id="shine"
     d="M 0.04094644,2.0723882 V 208.44927 c 0,229.66454 239.92000356,319.6031 239.92000356,319.6031 0,0 239.92,-89.93856 239.92,-319.6031 V 2.0723882 Z"
     style="fill:url(#rg);stroke:#000000;stroke-width:2.41218" />
</svg>
