<?xml version="1.0" encoding="UTF-8" standalone="no"?>
<svg
   viewBox="0 0 483 527.48"
   version="1.1"
   id="svg37602"
   sodipodi:docname="House Hollard GoT.svg"
   inkscape:version="1.2.1 (9c6d41e410, 2022-07-14)"
   xmlns:inkscape="http://www.inkscape.org/namespaces/inkscape"
   xmlns:sodipodi="http://sodipodi.sourceforge.net/DTD/sodipodi-0.dtd"
   xmlns="http://www.w3.org/2000/svg"
   xmlns:svg="http://www.w3.org/2000/svg">
  <sodipodi:namedview
     id="namedview37604"
     pagecolor="#ffffff"
     bordercolor="#000000"
     borderopacity="0.25"
     inkscape:showpageshadow="2"
     inkscape:pageopacity="0.0"
     inkscape:pagecheckerboard="0"
     inkscape:deskcolor="#d1d1d1"
     showgrid="false"
     inkscape:zoom="1.12203"
     inkscape:cx="184.04142"
     inkscape:cy="262.91632"
     inkscape:window-width="1920"
     inkscape:window-height="1017"
     inkscape:window-x="-8"
     inkscape:window-y="-8"
     inkscape:window-maximized="1"
     inkscape:current-layer="svg37602" />
  <defs
     id="defs37531">
    <style
       id="style37529">.cls-1{fill:#f0c8cd;}.cls-2{fill:#d63535;}.cls-3{fill:#1f314e;}.cls-4{fill:#cd8959;}.cls-5{fill:none;stroke:#000;stroke-width:3px;}</style>
    <radialGradient
       id="rg"
       gradientUnits="userSpaceOnUse"
       cx="220"
       cy="220"
       r="405"
       gradientTransform="matrix(0.80510068,0,0,0.80302287,-0.03020005,-0.89702351)">
      <stop
         style="stop-color:#ffffff;stop-opacity:.3"
         offset="0"
         id="stop753" />
      <stop
         style="stop-color:#ffffff;stop-opacity:.2"
         offset=".2"
         id="stop755" />
      <stop
         style="stop-color:#666666;stop-opacity:.1"
         offset=".6"
         id="stop757" />
      <stop
         style="stop-color:#000000;stop-opacity:.13"
         offset="1"
         id="stop759" />
    </radialGradient>
  </defs>
  <title
     id="title37533">House Hollard</title>
  <g
     id="Layer_2"
     data-name="Layer 2">
    <path
       class="cls-1"
       d="M927,122.76V328.6q0,15.46-1.51,30.89-.33,3.57-.77,7.13c-.11.93-.24,1.86-.36,2.79,0,.2,0,.4-.08.59-.09.73-.19,1.45-.31,2.17h0v0c-.46,3.37-1,6.69-1.6,10-.07.44-.15.87-.23,1.31-.16.8-.29,1.6-.45,2.4s-.34,1.79-.51,2.69l-.45,2.22-.24,1.15-.27,1.27c-.06.29-.12.59-.19.88-.54,2.37-1.07,4.71-1.61,7l-.58,2.32-.52,2q-.69,2.67-1.43,5.31-.9,3.18-1.84,6.3c-.29,1-.59,1.94-.9,2.92l-.6,1.88c-.2.63-.4,1.24-.61,1.86-.37,1.09-.73,2.17-1.1,3.25s-.68,2-1,3c-.47,1.28-.93,2.56-1.39,3.81-.36,1-.73,2-1.11,3l-.19.5c-.43,1.14-.87,2.25-1.32,3.36s-.87,2.17-1.31,3.2c0,.15-.12.28-.18.42-.4,1-.8,2-1.25,3s-.76,1.75-1.13,2.62l-.66,1.49c-.48,1.07-1,2.11-1.44,3.15s-.9,2-1.36,2.93l-1,2.12c-.19.41-.39.82-.59,1.22-.1.22-.21.43-.32.65s-.23.47-.35.71c-.52,1.09-1.08,2.17-1.62,3.28q-2.52,5-5.19,9.77l-2,3.57-.12.21c-1.4,2.44-2.82,4.86-4.28,7.24a.41.41,0,0,1,0,.09c-.71,1.2-1.46,2.4-2.18,3.54-.11.16-.2.32-.3.47s-.31.5-.47.74c-.4.64-.81,1.28-1.22,1.92l-.65,1c-.65,1-1.31,2-2,3l-.13.18c-.65,1-1.31,2-2,3l-.45.67q-2.25,3.29-4.54,6.46l-.31.43c-.8,1.07-1.54,2.14-2.31,3.19-.58.8-1.24,1.67-1.88,2.52l-.62.8-.06.08c-1.5,2-3,3.95-4.55,5.87l-.81,1c-.38.48-.76,1-1.16,1.44s-.7.88-1.06,1.32L854,526.61l-.57.69c-.4.47-.79.93-1.2,1.39a4.16,4.16,0,0,1-.27.32c-.31.37-.62.73-.94,1.09-1.23,1.44-2.46,2.87-3.73,4.29-.65.75-1.32,1.5-2,2.24s-1.52,1.69-2.29,2.51-1.47,1.6-2.22,2.4q-3,3.2-5.93,6.24-2.76,2.82-5.53,5.59l-.83.82c-.64.64-1.29,1.27-1.93,1.89-.92.89-1.85,1.78-2.79,2.66l-2.28,2.12c-.68.65-1.36,1.28-2,1.91l-2,1.85q-3.07,2.79-6.21,5.53-10.66,9.31-21.91,17.93c-1,.77-2,1.52-3,2.28q-9.86,7.43-20.1,14.31-1.56,1.05-3.12,2.07c-.81.54-1.62,1.07-2.44,1.59l-.51.33a0,0,0,0,1,0,0l-.18.12h0l-2.24,1.45c-.86.55-1.72,1.1-2.57,1.6l-1.74,1.09q-2.45,1.53-4.81,3l-.63.39s0,0,0,0c-1.78,1.09-3.54,2.14-5.28,3.17l-2.41,1.4-2.36,1.37-2.33,1.34-2.23,1.29c-8.34,4.68-15.9,8.59-22.38,11.76l-1.6.8-2.86,1.37c-9.12,4.33-15.52,7-18.12,8l-.42.17-.61.24-.14,0h-.08l-.23-.09-.21,0-1.07-.42-.54-.23c-.87-.34-2-.8-3.37-1.38l-.46-.18c-1.76-.8-3.89-1.67-6.33-2.77l-1.39-.61c-1.56-.71-3.13-1.43-4.68-2.17q-17.94-8.41-35.07-18.43c-.8-.44-1.6-.92-2.35-1.38-1-.62-2.09-1.23-3.12-1.86s-2-1.19-3-1.8q-4.12-2.51-8.2-5.12c-.86-.55-1.71-1.09-2.56-1.65q-4-2.55-7.86-5.2c-.75-.51-1.49-1-2.23-1.53-.57-.38-1.13-.76-1.69-1.16q-2.32-1.61-4.64-3.24l-3.18-2.27-.62-.45c-1-.74-2-1.48-3.06-2.24q-2.34-1.71-4.65-3.46l-2.63-2-.61-.47c-.77-.6-1.55-1.2-2.33-1.82l-2.37-1.86-.44-.35q-4.74-3.78-9.52-7.79c-2.1-1.77-4.21-3.57-6.31-5.42-.94-.82-1.87-1.64-2.81-2.48L558.08,566l-1.55-1.4c-1-.92-2-1.85-3-2.8l-1.67-1.57L550,558.54l-2-1.94c-1.12-1.07-2.23-2.17-3.33-3.27-.85-.79-1.69-1.66-2.52-2.5l-.24-.26c-.84-.83-1.67-1.67-2.5-2.51l-.34-.36c-.55-.56-1.09-1.12-1.63-1.69l-1-1.06-1-1-.13-.15-2.1-2.25c-1.12-1.2-2.24-2.41-3.34-3.64h0c-1.11-1.23-2.21-2.46-3.31-3.71l-1.31-1.5-.74-.84c-.57-.65-1.12-1.29-1.66-1.94q-1-1.2-2-2.4-4.28-5.1-8.39-10.48c-.76-1-1.5-1.93-2.24-2.92l-.59-.78c-1.69-2.22-3.33-4.47-5-6.77-.55-.8-1.12-1.59-1.68-2.39-.13-.16-.24-.34-.36-.5-.59-.86-1.19-1.7-1.77-2.56l-1.54-2.28a1,1,0,0,1-.12-.17c-.39-.57-.77-1.14-1.15-1.72-.74-1.09-1.47-2.2-2.19-3.31a1,1,0,0,0-.15-.24l-2.22-3.48-.22-.36-.88-1.43-1.22-2-.32-.53c-.17-.27-.34-.56-.51-.85-.46-.76-.94-1.56-1.38-2.33l-.64-1.1c-.5-.84-1-1.67-1.49-2.57q-4.61-8-8.77-16.46c0-.09-.09-.17-.13-.26-.31-.6-.6-1.21-.9-1.83-.22-.44-.44-.88-.65-1.35-.43-.87-.8-1.74-1.25-2.63a25.91,25.91,0,0,1-1.15-2.47l-.23-.48c-.27-.58-.53-1.16-.81-1.75l-.26-.57c-.27-.59-.52-1.19-.8-1.78q-1.44-3.25-2.79-6.57c-.42-1-.8-2-1.23-3.08-.1-.25-.21-.52-.31-.79-.4-1-.8-2-1.16-3s-.69-1.82-1-2.74l-.24-.65c-.17-.44-.33-.91-.49-1.35q-1-2.7-1.9-5.44c-.21-.6-.4-1.2-.6-1.8-.26-.8-.51-1.54-.75-2.32-.14-.41-.27-.8-.4-1.22-.25-.8-.49-1.59-.75-2.39-.31-1-.61-2.06-.92-3.11-.19-.64-.39-1.28-.57-1.95l-.57-2c-.18-.63-.35-1.26-.52-1.89s-.37-1.35-.55-2c-.13-.5-.27-1-.4-1.51-.32-1.22-.62-2.45-.92-3.7-.18-.7-.34-1.4-.52-2.11-.07-.28-.13-.56-.19-.85-.37-1.55-.72-3.11-1.07-4.69-.26-1.16-.5-2.33-.74-3.5-.13-.71-.29-1.43-.42-2.14s-.32-1.59-.48-2.45a1.86,1.86,0,0,0-.09-.47c-.16-.8-.3-1.64-.45-2.48s-.32-1.84-.48-2.77-.29-1.8-.45-2.71q-.57-3.7-1.07-7.47c-.17-1.23-.33-2.47-.48-3.71q-.41-3.39-.74-6.8Q447,344.08,447,328.58V122.76Z"
       transform="translate(-445.5 -121.26)"
       id="path37535" />
  </g>
  <g
     id="Layer_4"
     data-name="Layer 4">
    <path
       class="cls-2"
       d="M927,308.21V328.6q0,15.46-1.51,30.89h-477Q447,344.08,447,328.58V308.21Z"
       transform="translate(-445.5 -121.26)"
       id="path37538" />
    <path
       class="cls-2"
       d="M915.89,410.77q-.9,3.18-1.84,6.3c-.29,1-.59,1.94-.9,2.92l-.6,1.88c-.2.63-.4,1.24-.61,1.86-.37,1.09-.73,2.17-1.1,3.25s-.68,2-1,3c-.47,1.28-.93,2.56-1.39,3.81-.36,1-.73,2-1.11,3l-.19.5c-.43,1.14-.87,2.25-1.32,3.36s-.87,2.17-1.31,3.2c0,.15-.12.28-.18.42-.4,1-.8,2-1.25,3s-.76,1.75-1.13,2.62l-.66,1.49c-.48,1.07-1,2.11-1.44,3.15s-.9,2-1.36,2.93l-1,2.12c-.19.41-.39.82-.59,1.22-.1.22-.21.43-.32.65s-.23.47-.35.71H477.83c-.31-.6-.6-1.21-.9-1.83-.22-.44-.44-.88-.65-1.35-.43-.87-.8-1.74-1.25-2.63a25.91,25.91,0,0,1-1.15-2.47l-.23-.48c-.27-.58-.53-1.16-.81-1.75l-.26-.57c-.27-.59-.52-1.19-.8-1.78q-1.44-3.25-2.79-6.57c-.42-1-.8-2-1.23-3.08-.1-.25-.21-.52-.31-.79-.4-1-.8-2-1.16-3s-.69-1.82-1-2.74l-.24-.65c-.17-.44-.33-.91-.49-1.35q-1-2.7-1.9-5.44c-.21-.6-.4-1.2-.6-1.8-.26-.8-.51-1.54-.75-2.32-.14-.41-.27-.8-.4-1.22-.25-.8-.49-1.59-.75-2.39-.31-1-.61-2.06-.92-3.11-.19-.64-.39-1.28-.57-1.95l-.57-2Z"
       transform="translate(-445.5 -121.26)"
       id="path37540" />
    <path
       class="cls-2"
       d="M864.52,513.33l-.62.8-.06.08c-1.5,2-3,3.95-4.55,5.87l-.81,1c-.38.48-.76,1-1.16,1.44s-.7.88-1.06,1.32L854,526.61l-.57.69c-.4.47-.79.93-1.2,1.39a4.16,4.16,0,0,1-.27.32c-.31.37-.62.73-.94,1.09-1.23,1.44-2.46,2.87-3.73,4.29-.65.75-1.32,1.5-2,2.24s-1.52,1.69-2.29,2.51-1.47,1.6-2.22,2.4q-3,3.2-5.93,6.24-2.76,2.82-5.53,5.59l-.83.82c-.64.64-1.29,1.27-1.93,1.89-.92.89-1.85,1.78-2.79,2.66l-2.28,2.12c-.68.65-1.36,1.28-2,1.91l-2,1.85H556.53c-1-.92-2-1.85-3-2.8l-1.67-1.57L550,558.54l-2-1.94c-1.12-1.07-2.23-2.17-3.33-3.27-.85-.79-1.69-1.66-2.52-2.5l-.24-.26c-.84-.83-1.67-1.67-2.5-2.51l-.34-.36c-.55-.56-1.09-1.12-1.63-1.69l-1-1.06-1-1-.13-.15-2.1-2.25c-1.12-1.2-2.24-2.41-3.34-3.64h0c-1.11-1.23-2.21-2.46-3.31-3.71l-1.31-1.5-.74-.84c-.57-.65-1.12-1.29-1.66-1.94q-1-1.2-2-2.4-4.28-5.1-8.39-10.48c-.76-1-1.5-1.93-2.24-2.92l-.59-.78Z"
       transform="translate(-445.5 -121.26)"
       id="path37542" />
    <path
       class="cls-2"
       d="M748.55,615.9l-.63.39s0,0,0,0c-1.78,1.09-3.54,2.14-5.28,3.17l-2.41,1.4-2.36,1.37-2.33,1.34-2.23,1.29c-8.34,4.68-15.9,8.59-22.38,11.76l-1.6.8-2.86,1.37c-9.12,4.33-15.52,7-18.12,8l-.42.17-.61.24-.14,0h-.08l-.23-.09-.21,0-1.07-.42-.54-.23c-.87-.34-2-.8-3.37-1.38l-.46-.18c-1.76-.8-3.89-1.67-6.33-2.77l-1.39-.61c-1.56-.71-3.13-1.43-4.68-2.17q-17.94-8.41-35.07-18.43c-.8-.44-1.6-.92-2.35-1.38-1-.62-2.09-1.23-3.12-1.86s-2-1.19-3-1.8Z"
       transform="translate(-445.5 -121.26)"
       id="path37544" />
  </g>
  <g
     id="Layer_5"
     data-name="Layer 5">
    <rect
       class="cls-3"
       x="1.5"
       y="1.5"
       width="480"
       height="134.16"
       id="rect37547" />
  </g>
  <g
     id="Layer_6"
     data-name="Layer 6">
    <path
       class="cls-4"
       d="M556.5,176.73s8.25,7.41,12.49,7.41,8.68.42,11.64-11c0,0,6.77,15.45,15.24,10.16s9.52-6.14,9.52-6.14-4.87,9.52-5.71,17.57c0,0-27.09-1.9-36.82,0C562.85,194.72,561.79,183.29,556.5,176.73Z"
       transform="translate(-445.5 -121.26)"
       id="path37550" />
    <circle
       class="cls-4"
       cx="120.63"
       cy="77.06"
       r="2.43"
       id="circle37552" />
    <circle
       class="cls-4"
       cx="125.5"
       cy="75.89"
       r="2.43"
       id="circle37554" />
    <circle
       class="cls-4"
       cx="130.74"
       cy="75.89"
       r="2.43"
       id="circle37556" />
    <circle
       class="cls-4"
       cx="135.87"
       cy="75.89"
       r="2.43"
       id="circle37558" />
    <circle
       class="cls-4"
       cx="140.84"
       cy="75.89"
       r="2.43"
       id="circle37560" />
    <circle
       class="cls-4"
       cx="145.71"
       cy="75.89"
       r="2.43"
       id="circle37562" />
    <circle
       class="cls-4"
       cx="151"
       cy="77.06"
       r="2.43"
       id="circle37564" />
    <path
       class="cls-4"
       d="M661.38,176.73s8.25,7.41,12.49,7.41,8.68.42,11.64-11c0,0,6.77,15.45,15.24,10.16s9.52-6.14,9.52-6.14-4.87,9.52-5.71,17.57c0,0-27.09-1.9-36.82,0C667.73,194.72,666.67,183.29,661.38,176.73Z"
       transform="translate(-445.5 -121.26)"
       id="path37566" />
    <circle
       class="cls-4"
       cx="225.51"
       cy="77.06"
       r="2.43"
       id="circle37568" />
    <circle
       class="cls-4"
       cx="230.37"
       cy="75.89"
       r="2.43"
       id="circle37570" />
    <circle
       class="cls-4"
       cx="235.61"
       cy="75.89"
       r="2.43"
       id="circle37572" />
    <circle
       class="cls-4"
       cx="240.74"
       cy="75.89"
       r="2.43"
       id="circle37574" />
    <circle
       class="cls-4"
       cx="245.72"
       cy="75.89"
       r="2.43"
       id="circle37576" />
    <circle
       class="cls-4"
       cx="250.59"
       cy="75.89"
       r="2.43"
       id="circle37578" />
    <circle
       class="cls-4"
       cx="255.88"
       cy="77.06"
       r="2.43"
       id="circle37580" />
    <path
       class="cls-4"
       d="M764.8,176.73s8.25,7.41,12.49,7.41,8.68.42,11.64-11c0,0,6.77,15.45,15.24,10.16s9.52-6.14,9.52-6.14-4.87,9.52-5.71,17.57c0,0-27.09-1.9-36.82,0C771.15,194.72,770.09,183.29,764.8,176.73Z"
       transform="translate(-445.5 -121.26)"
       id="path37582" />
    <circle
       class="cls-4"
       cx="328.93"
       cy="77.06"
       r="2.43"
       id="circle37584" />
    <circle
       class="cls-4"
       cx="333.79"
       cy="75.89"
       r="2.43"
       id="circle37586" />
    <circle
       class="cls-4"
       cx="339.03"
       cy="75.89"
       r="2.43"
       id="circle37588" />
    <circle
       class="cls-4"
       cx="344.16"
       cy="75.89"
       r="2.43"
       id="circle37590" />
    <circle
       class="cls-4"
       cx="349.14"
       cy="75.89"
       r="2.43"
       id="circle37592" />
    <circle
       class="cls-4"
       cx="354"
       cy="75.89"
       r="2.43"
       id="circle37594" />
    <circle
       class="cls-4"
       cx="359.29"
       cy="77.06"
       r="2.43"
       id="circle37596" />
  </g>
  <g
     id="Layer_3"
     data-name="Layer 3">
    <path
       class="cls-5"
       d="M927,122.76V328.6q0,15.46-1.51,30.89-.33,3.57-.77,7.13c-.11.93-.24,1.86-.36,2.79,0,.2,0,.4-.08.59-.09.73-.19,1.45-.31,2.17h0v0c-.46,3.37-1,6.69-1.6,10-.07.44-.15.87-.23,1.31-.16.8-.29,1.6-.45,2.4s-.34,1.79-.51,2.69l-.45,2.22-.24,1.15-.27,1.27c-.06.29-.12.59-.19.88-.54,2.37-1.07,4.71-1.61,7l-.58,2.32-.52,2q-.69,2.67-1.43,5.31-.9,3.18-1.84,6.3c-.29,1-.59,1.94-.9,2.92l-.6,1.88c-.2.63-.4,1.24-.61,1.86-.37,1.09-.73,2.17-1.1,3.25s-.68,2-1,3c-.47,1.28-.93,2.56-1.39,3.81-.36,1-.73,2-1.11,3l-.19.5c-.43,1.14-.87,2.25-1.32,3.36s-.87,2.17-1.31,3.2c0,.15-.12.28-.18.42-.4,1-.8,2-1.25,3s-.76,1.75-1.13,2.62l-.66,1.49c-.48,1.07-1,2.11-1.44,3.15s-.9,2-1.36,2.93l-1,2.12c-.19.41-.39.82-.59,1.22-.1.22-.21.43-.32.65s-.23.47-.35.71c-.52,1.09-1.08,2.17-1.62,3.28q-2.52,5-5.19,9.77l-2,3.57-.12.21c-1.4,2.44-2.82,4.86-4.28,7.24a.41.41,0,0,1,0,.09c-.71,1.2-1.46,2.4-2.18,3.54-.11.16-.2.32-.3.47s-.31.5-.47.74c-.4.64-.81,1.28-1.22,1.92l-.65,1c-.65,1-1.31,2-2,3l-.13.18c-.65,1-1.31,2-2,3l-.45.67q-2.25,3.29-4.54,6.46l-.31.43c-.8,1.07-1.54,2.14-2.31,3.19-.58.8-1.24,1.67-1.88,2.52l-.62.8-.06.08c-1.5,2-3,3.95-4.55,5.87l-.81,1c-.38.48-.76,1-1.16,1.44s-.7.88-1.06,1.32L854,526.61l-.57.69c-.4.47-.79.93-1.2,1.39a4.16,4.16,0,0,1-.27.32c-.31.37-.62.73-.94,1.09-1.23,1.44-2.46,2.87-3.73,4.29-.65.75-1.32,1.5-2,2.24s-1.52,1.69-2.29,2.51-1.47,1.6-2.22,2.4q-3,3.2-5.93,6.24-2.76,2.82-5.53,5.59l-.83.82c-.64.64-1.29,1.27-1.93,1.89-.92.89-1.85,1.78-2.79,2.66l-2.28,2.12c-.68.65-1.36,1.28-2,1.91l-2,1.85q-3.07,2.79-6.21,5.53-10.66,9.31-21.91,17.93c-1,.77-2,1.52-3,2.28q-9.86,7.43-20.1,14.31-1.56,1.05-3.12,2.07c-.81.54-1.62,1.07-2.44,1.59l-.51.33a0,0,0,0,1,0,0l-.18.12h0l-2.24,1.45c-.86.55-1.72,1.1-2.57,1.6l-1.74,1.09q-2.45,1.53-4.81,3l-.63.39s0,0,0,0c-1.78,1.09-3.54,2.14-5.28,3.17l-2.41,1.4-2.36,1.37-2.33,1.34-2.23,1.29c-8.34,4.68-15.9,8.59-22.38,11.76l-1.6.8-2.86,1.37c-9.12,4.33-15.52,7-18.12,8l-.42.17-.61.24-.14,0h-.08l-.23-.09-.21,0-1.07-.42-.54-.23c-.87-.34-2-.8-3.37-1.38l-.46-.18c-1.76-.8-3.89-1.67-6.33-2.77l-1.39-.61c-1.56-.71-3.13-1.43-4.68-2.17q-17.94-8.41-35.07-18.43c-.8-.44-1.6-.92-2.35-1.38-1-.62-2.09-1.23-3.12-1.86s-2-1.19-3-1.8q-4.12-2.51-8.2-5.12c-.86-.55-1.71-1.09-2.56-1.65q-4-2.55-7.86-5.2c-.75-.51-1.49-1-2.23-1.53-.57-.38-1.13-.76-1.69-1.16q-2.32-1.61-4.64-3.24l-3.18-2.27-.62-.45c-1-.74-2-1.48-3.06-2.24q-2.34-1.71-4.65-3.46l-2.63-2-.61-.47c-.77-.6-1.55-1.2-2.33-1.82l-2.37-1.86-.44-.35q-4.74-3.78-9.52-7.79c-2.1-1.77-4.21-3.57-6.31-5.42-.94-.82-1.87-1.64-2.81-2.48L558.08,566l-1.55-1.4c-1-.92-2-1.85-3-2.8l-1.67-1.57L550,558.54l-2-1.94c-1.12-1.07-2.23-2.17-3.33-3.27-.85-.79-1.69-1.66-2.52-2.5l-.24-.26c-.84-.83-1.67-1.67-2.5-2.51l-.34-.36c-.55-.56-1.09-1.12-1.63-1.69l-1-1.06-1-1-.13-.15-2.1-2.25c-1.12-1.2-2.24-2.41-3.34-3.64h0c-1.11-1.23-2.21-2.46-3.31-3.71l-1.31-1.5-.74-.84c-.57-.65-1.12-1.29-1.66-1.94q-1-1.2-2-2.4-4.28-5.1-8.39-10.48c-.76-1-1.5-1.93-2.24-2.92l-.59-.78c-1.69-2.22-3.33-4.47-5-6.77-.55-.8-1.12-1.59-1.68-2.39-.13-.16-.24-.34-.36-.5-.59-.86-1.19-1.7-1.77-2.56l-1.54-2.28a1,1,0,0,1-.12-.17c-.39-.57-.77-1.14-1.15-1.72-.74-1.09-1.47-2.2-2.19-3.31a1,1,0,0,0-.15-.24l-2.22-3.48-.22-.36-.88-1.43-1.22-2-.32-.53c-.17-.27-.34-.56-.51-.85-.46-.76-.94-1.56-1.38-2.33l-.64-1.1c-.5-.84-1-1.67-1.49-2.57q-4.61-8-8.77-16.46c0-.09-.09-.17-.13-.26-.31-.6-.6-1.21-.9-1.83-.22-.44-.44-.88-.65-1.35-.43-.87-.8-1.74-1.25-2.63a25.91,25.91,0,0,1-1.15-2.47l-.23-.48c-.27-.58-.53-1.16-.81-1.75l-.26-.57c-.27-.59-.52-1.19-.8-1.78q-1.44-3.25-2.79-6.57c-.42-1-.8-2-1.23-3.08-.1-.25-.21-.52-.31-.79-.4-1-.8-2-1.16-3s-.69-1.82-1-2.74l-.24-.65c-.17-.44-.33-.91-.49-1.35q-1-2.7-1.9-5.44c-.21-.6-.4-1.2-.6-1.8-.26-.8-.51-1.54-.75-2.32-.14-.41-.27-.8-.4-1.22-.25-.8-.49-1.59-.75-2.39-.31-1-.61-2.06-.92-3.11-.19-.64-.39-1.28-.57-1.95l-.57-2c-.18-.63-.35-1.26-.52-1.89s-.37-1.35-.55-2c-.13-.5-.27-1-.4-1.51-.32-1.22-.62-2.45-.92-3.7-.18-.7-.34-1.4-.52-2.11-.07-.28-.13-.56-.19-.85-.37-1.55-.72-3.11-1.07-4.69-.26-1.16-.5-2.33-.74-3.5-.13-.71-.29-1.43-.42-2.14s-.32-1.59-.48-2.45a1.86,1.86,0,0,0-.09-.47c-.16-.8-.3-1.64-.45-2.48s-.32-1.84-.48-2.77-.29-1.8-.45-2.71q-.57-3.7-1.07-7.47c-.17-1.23-.33-2.47-.48-3.71q-.41-3.39-.74-6.8Q447,344.08,447,328.58V122.76Z"
       transform="translate(-445.5 -121.26)"
       id="path37599" />
  </g>
  <path
     id="shine"
     d="M 1.5800011,0.70902209 V 207.0859 C 1.5800011,436.75044 241.5,526.689 241.5,526.689 c 0,0 239.92,-89.93856 239.92,-319.6031 V 0.70902209 Z"
     style="fill:url(#rg);stroke:#000000;stroke-width:2.41218" />
</svg>
