<?xml version="1.0" encoding="UTF-8" standalone="no"?>
<svg
   viewBox="0 0 483 527.48"
   version="1.1"
   id="svg38200"
   sodipodi:docname="House Hornwood GoT.svg"
   inkscape:version="1.2.1 (9c6d41e410, 2022-07-14)"
   xmlns:inkscape="http://www.inkscape.org/namespaces/inkscape"
   xmlns:sodipodi="http://sodipodi.sourceforge.net/DTD/sodipodi-0.dtd"
   xmlns="http://www.w3.org/2000/svg"
   xmlns:svg="http://www.w3.org/2000/svg">
  <sodipodi:namedview
     id="namedview38202"
     pagecolor="#ffffff"
     bordercolor="#000000"
     borderopacity="0.25"
     inkscape:showpageshadow="2"
     inkscape:pageopacity="0.0"
     inkscape:pagecheckerboard="0"
     inkscape:deskcolor="#d1d1d1"
     showgrid="false"
     inkscape:zoom="0.79339504"
     inkscape:cx="113.43655"
     inkscape:cy="234.43555"
     inkscape:window-width="1920"
     inkscape:window-height="1017"
     inkscape:window-x="-8"
     inkscape:window-y="-8"
     inkscape:window-maximized="1"
     inkscape:current-layer="svg38200" />
  <defs
     id="defs38186">
    <style
       id="style38184">.cls-1,.cls-4{fill:#b86a37;}.cls-1{stroke:#000;stroke-width:3px;}.cls-2{fill:#090703;}.cls-3{fill:#b96b38;}</style>
    <radialGradient
       id="rg"
       gradientUnits="userSpaceOnUse"
       cx="220"
       cy="220"
       r="405"
       gradientTransform="matrix(0.80510068,0,0,0.80302287,-0.03020195,-0.9020156)">
      <stop
         style="stop-color:#ffffff;stop-opacity:.3"
         offset="0"
         id="stop753" />
      <stop
         style="stop-color:#ffffff;stop-opacity:.2"
         offset=".2"
         id="stop755" />
      <stop
         style="stop-color:#666666;stop-opacity:.1"
         offset=".6"
         id="stop757" />
      <stop
         style="stop-color:#000000;stop-opacity:.13"
         offset="1"
         id="stop759" />
    </radialGradient>
  </defs>
  <title
     id="title38188">House Hornwood</title>
  <g
     id="Layer_2"
     data-name="Layer 2">
    <path
       class="cls-1"
       d="M927,122.76V328.6a314.37,314.37,0,0,1-2.28,38c-.11.93-.24,1.86-.36,2.79s-.24,1.86-.39,2.79q-.7,5.05-1.61,10c-.07.44-.15.87-.23,1.31-.15.8-.29,1.6-.45,2.39s-.34,1.8-.51,2.69l-.45,2.22-.24,1.16c-.15.71-.3,1.44-.47,2.15q-.8,3.55-1.61,7l-.58,2.32-.52,2q-1.52,5.88-3.27,11.61c-.29,1-.59,1.94-.9,2.92l-.6,1.88c-.19.63-.39,1.25-.6,1.86l-1.1,3.26c-.37,1.09-.68,2-1,3-.47,1.28-.92,2.55-1.39,3.81-.36,1-.73,2-1.11,3l-.19.49c-.43,1.14-.87,2.25-1.32,3.37s-.87,2.16-1.32,3.19a3.35,3.35,0,0,1-.18.42c-.4,1-.8,2-1.25,3s-.75,1.75-1.13,2.62l-.66,1.49c-.47,1.07-.95,2.12-1.44,3.15s-.9,2-1.36,2.93l-1,2.12c-.3.63-.6,1.25-.91,1.88-.63,1.32-1.31,2.64-2,4q-2.53,5-5.19,9.77l-2,3.57-.11.21q-2.13,3.71-4.33,7.33c-.71,1.2-1.46,2.39-2.18,3.54-.1.16-.19.31-.3.46-.55.89-1.12,1.78-1.69,2.66l-.66,1c-.65,1-1.31,2-2,3l-.13.18c-.66,1-1.32,2-2,3l-.45.67q-2.26,3.28-4.54,6.46l-.31.42c-.8,1.07-1.54,2.14-2.31,3.19s-1.66,2.23-2.5,3.32q-2.29,3-4.61,6l-.8,1c-.73.93-1.48,1.85-2.22,2.76L854,526.61l-.57.69L851,530.1q-2.83,3.32-5.72,6.53c-.75.85-1.52,1.69-2.29,2.51l-2.22,2.39q-3,3.19-5.93,6.24-2.76,2.83-5.53,5.59c-.91.91-1.84,1.82-2.76,2.71s-1.85,1.78-2.78,2.67l-2.28,2.11c-.68.65-1.36,1.28-2.05,1.91a448.64,448.64,0,0,1-61.76,47.47c-.86.55-1.73,1.1-2.58,1.6q-6.42,4.07-12.46,7.63l-2.41,1.4-2.36,1.36-2.34,1.35-2.22,1.28c-8.35,4.68-15.91,8.59-22.38,11.76l-1.61.8c-10.63,5.15-18.11,8.22-21,9.35l-.42.18-.61.23-.14.06h-.08l-.23-.1-.21,0-1.07-.42-.55-.23c-.87-.34-2-.8-3.36-1.38l-.47-.18c-1.76-.8-3.88-1.67-6.33-2.77l-1.39-.61a443.16,443.16,0,0,1-39.74-20.6c-.8-.45-1.61-.92-2.36-1.38a473.14,473.14,0,0,1-44.78-30l-2.62-2c-1-.75-2-1.52-2.95-2.29l-2.81-2.21c-6.19-4.92-12.43-10.15-18.64-15.69L558.08,566q-2.3-2.05-4.59-4.2l-1.67-1.57L550,558.54l-2-1.94c-1.12-1.07-2.24-2.16-3.34-3.26-.84-.8-1.69-1.67-2.52-2.51l-.24-.26q-1.25-1.25-2.5-2.51c-.66-.68-1.32-1.36-2-2l-2-2.07-.13-.15-2.1-2.24q-3.36-3.61-6.66-7.36c-.68-.8-1.36-1.55-2-2.35-.57-.65-1.12-1.28-1.66-1.94l-2-2.39q-4.26-5.11-8.39-10.48-1.13-1.45-2.24-2.92c-1.89-2.47-3.73-5-5.57-7.55l-1.68-2.39c-.13-.16-.24-.34-.36-.5-.59-.85-1.19-1.7-1.77-2.55-.95-1.38-1.89-2.77-2.82-4.17q-1.11-1.64-2.18-3.31l-.15-.24-2.22-3.47c-.07-.13-.15-.24-.22-.37-.71-1.14-1.41-2.27-2.1-3.4s-1.49-2.46-2.21-3.7-1.44-2.39-2.13-3.67q-4.6-8-8.77-16.47c-.35-.69-.69-1.38-1-2.08-.22-.44-.44-.89-.65-1.35-.43-.87-.8-1.75-1.25-2.63a27.17,27.17,0,0,1-1.15-2.47l-.23-.48c-.26-.58-.52-1.16-.8-1.75l-.26-.57c-.26-.58-.52-1.18-.8-1.77q-1.44-3.26-2.78-6.58c-.42-1-.8-2-1.23-3.07-.1-.26-.21-.53-.31-.8-.4-1-.8-2-1.16-3s-.68-1.82-1-2.74l-.23-.65c-.18-.45-.34-.91-.5-1.36q-1-2.69-1.89-5.44c-.21-.6-.4-1.21-.6-1.8-.26-.8-.51-1.54-.75-2.31-.14-.42-.26-.8-.39-1.22-.26-.8-.5-1.6-.75-2.39-.31-1-.61-2.06-.92-3.1-.18-.65-.39-1.28-.57-2-.37-1.28-.74-2.58-1.08-3.89-.19-.68-.37-1.35-.55-2-.13-.5-.26-1-.39-1.51-.32-1.22-.63-2.46-.92-3.7-.18-.7-.35-1.4-.52-2.11-.07-.29-.13-.57-.19-.85-.37-1.55-.71-3.11-1.07-4.69-.26-1.16-.5-2.33-.74-3.5-.14-.71-.29-1.43-.43-2.14s-.32-1.6-.47-2.45a2.13,2.13,0,0,0-.1-.47c-.15-.8-.3-1.64-.45-2.48s-.31-1.84-.47-2.77-.3-1.8-.45-2.71q-.87-5.52-1.56-11.17A314.73,314.73,0,0,1,447,328.58V122.76Z"
       transform="translate(-445.5 -121.26)"
       id="path38190" />
  </g>
  <g
     id="Layer_3"
     data-name="Layer 3">
    <path
       class="cls-2"
       d="M663.54,402.64c-2.65-1.39-3.43-4-4.41-6.3-2-4.77-3.63-9.72-5.62-14.5-3.23-7.76-5.43-15-2.27-24,3.39-9.62-6.21-19.76-16.5-19.6-2,0-2.72,1.38-3.62,2.65a74.71,74.71,0,0,0-8.73,17c-1.49,3.94-.85,7.05,2.56,9.48,2.19,1.57,3.79,3.74,2.14,6-1.5,2.09-4,.72-6-.19a15.59,15.59,0,0,1-3.27-1.46c-9.72-7.65-19.93-7.12-30.58-2.18-7.66,3.55-15.58,2.91-23.45.67a25.93,25.93,0,0,0-8.92-.89c-4.76.32-6.1,2.75-4.25,7.19.49,1.18,2,2.36.37,3.64-1.26,1-2.75.48-4-.18a16,16,0,0,1-6.72-7.47c-2.12-4.35-5.31-5.17-9.36-2.89-3.13,1.76-6.13,3.76-9.2,5.63-5.73,3.49-11.77,3.38-17.91,1.37-.88-.29-2-.91-2.29-1.65-.45-1.34.77-2.22,1.86-2.71,2.55-1.15,5.21-2,7.74-3.22,1.78-.83,3.85-1.66,3.55-4.23-.25-2.2-2.23-3-3.84-3.34-5.25-1.13-10.61-1.73-15.87-2.83-10.76-2.25-19.35-8.27-26.9-16-1-1-2.23-2.18-1.38-3.63s2.66-1,3.83-.63c5.64,2,11.2,4.18,16.79,6.29a26.44,26.44,0,0,0,11.1,2.11c1.75-.11,4,.48,4.82-1.53.87-2.26-1.21-3.7-2.73-4.84a51.1,51.1,0,0,0-8.56-5.51c-14.8-7-22.16-20.24-28.85-34.05-.6-1.24-2.05-3-.3-4.33,1.48-1.12,3.06,0,4.42.82,6.34,3.91,11.68,9.09,17.29,13.91,7.49,6.43,15.23,12.36,25.17,14.53,2.36.52,5.57,1.45,6.83-.29,1.8-2.5-1.08-4.79-2.67-6.65a158.14,158.14,0,0,0-13-14.14c-12-10.93-16.41-25.13-18.62-40.47a102.38,102.38,0,0,1-1.32-19.72c.1-2,.24-4.47,2.77-4.59s2.92,2.16,3.31,4.23c1,5.08,2.13,10.12,3.29,15.16,3.77,16.46,14.93,28,25.56,39.82,3.85,4.3,8.8,7.66,15,8.06,1.91.13,4.34.88,5.54-1.17s-.51-3.75-1.74-5.3c-2.6-3.3-5.28-6.53-7.87-9.83-2.76-3.52-5-7.3-4.83-12,.16-3.84-4-5.76-3.8-9.85a53.13,53.13,0,0,1,3.72-16.24,97.69,97.69,0,0,1,16.57-29c1.06-1.27,2.29-3.61,4.21-2.55,1.71.94.83,3.26.4,5-2.49,9.85-7.16,19.08-8.61,29.21-1,7.15.24,13.77,2.43,20.95,4.56,15,15.9,21.78,28.1,28.42,2.63,1.43,5.53,2.66,7.68,4.65,3.93,3.65,5.87,2,7.22-2.08.81-2.45,1.83-5,2-7.5.52-10.11,6.11-16.61,14.48-21.27a194.06,194.06,0,0,1,23.68-11.55c1.29-.5,2.67-.77,4-1.22,2.91-1,5.43,0,6.72,2.44,1.62,3.1-1.55,4.18-3.41,5.27-7.42,4.34-15.23,8-22,13.48-4.52,3.68-8.86,7.55-11.94,12.57s-2.72,10,1,14.46c9.39,11,20.81,17.32,35.87,14.66,2-.35,4.35-.25,4.9-2.6.48-2.07-1.48-3.07-3-4-2.72-1.68-5.48-3.3-8.24-4.92-2.09-1.23-4.17-2.6-5.32-4.75-2-3.72-4.25-8-2.55-11.91,1.53-3.49,6.14-1.56,9.36-1.89a83.67,83.67,0,0,1,11.41-.07c8.94.33,16.21,3.54,20.9,11.72,4.06,7.07,4.25,7,11.15,2,.81-.58,1.72-1,2.52-1.63,10.45-7.78,20.29-8.55,31.4-.07,10.56,8.06,14.75,6.7,22-4a11.22,11.22,0,0,1,9.42-5.4c7.81-.25,15.63-.06,23.44-.29,3.09-.09,3.78,1.24,3.52,3.94-.76,7.89-3.23,14.29-12,16.59-3.54.93-7.31,2.07-10,5,12.87,9.28,30.23,7.28,40.15-4.53,6.3-7.5,5.71-18-1.4-25.57-7.35-7.85-17-12.62-25.4-19.07-2.85-2.19-8.32-4.23-6.38-8,2.44-4.78,7.34-.94,10.55.65,12.88,6.37,25.81,12.73,36.19,23.1,2.53,2.53,3.58,4.7,2,8.36-2.74,6.27.44,10.44,7.4,10.37,5.74-.06,10.26-3.1,14.58-6.31a91.58,91.58,0,0,0,20.54-21.69c6-8.66,4.78-17.7,2.71-27.08-2.14-9.72-6.17-19-6.71-29.09-.1-1.9-1-4.65,1.07-5.37,2.56-.88,3.65,2,4.62,3.83,8.43,15.7,14.41,32.43,20.4,49.15.76,2.13.1,3.87-.82,5.71-3,5.89-5.66,11.92-9.73,17.2-.94,1.22-2.3,2.55-1.18,4.28s2.87,1.16,4.38.81c11.53-2.65,28.12-22.91,29.56-34.67,1-8,5-15.38,5.51-23.6a3.82,3.82,0,0,1,4.06-3.69c2.35.26,2,2.44,2.31,4.22,2,12.76.55,25.59,1,38.38.1,2.62-1.76,3.9-3.3,5.4-10.91,10.6-21.09,22-33.45,31a3.82,3.82,0,0,0-1.76,4.12c.51,2.51,2.7,2.13,4.35,2.1,9.77-.17,18.09-4.63,26.15-9.48,3.74-2.25,7-5.3,10.43-8.05,1.61-1.29,3.29-2.74,5.37-1.73s1.84,3.29,1.93,5.32c.31,6.73-2.14,11.83-7.85,15.72-6.11,4.16-11.85,8.87-17.68,13.43-1.18.93-3,2-2.28,3.82s2.76,1.15,4.26,1.23a28.43,28.43,0,0,0,13.92-3c4.29-2,7.21-.23,9,3.2,2.23,4.26-1.57,5.65-4.46,6.83-11,4.53-22.37,8.19-34.24,9.89-1.57.22-3.39.18-4,2s.75,3,1.82,4.15a55.16,55.16,0,0,1,4.08,4.4c1.1,1.51,3.15,3.07,1.72,5.24s-3.66,2.33-5.94,1.87A50.24,50.24,0,0,1,846,374.75c-3.77-2.33-6.86-2.47-10,.89a17.52,17.52,0,0,1-4.46,3c-5.58,3-7.12,2.14-7.51-4.18-.34-5.51-2.54-7.07-7.92-5.32-8.44,2.75-17.5,6-25.74,2.53-12.63-5.29-23.22-.79-34.17,3.85-3.47,1.47-5.44-.37-7.07-2.63-2.27-3.15,1.25-3.67,2.78-4.6,4.18-2.55,4.12-6.08,2.68-9.9a47.65,47.65,0,0,0-9.23-14.66c-2.57-2.9-5.79-3.93-9.73-2.2-9.76,4.29-15,5.78-12,18.75,3.26,14-.6,26.51-9.08,37.71-1.73,2.29-4.39,8.49-6.72.07a2.21,2.21,0,0,0-1.79-1.16c-1.15.12-1.43,1.25-1.46,2.29-.24,9.31.9,18.31,6,26.39a45.16,45.16,0,0,1,3,4.46c1.18,2.48,3.5,5.52-2.55,4.68-4-.56-8.48,7-6.45,10.51,2.26,3.9.06,6.44-2.31,9-1.56,1.65-3.57,3-.46,5,2.1,1.39,1.52,3.41.08,4.58-9.81,7.9-10.29,19.32-11.74,30.4-.26,2-.16,4.56-2.45,4.94-2.89.48-3.44-2.42-3.85-4.43-.85-4.09-1.9-8.29-1.73-12.4.27-6.53-2.78-11-7.18-15.1-2.62-2.43-6.05-4.68-2.16-8.82,1.07-1.14.2-2.28-.77-3.06-2.67-2.15-3.14-5.5-4.61-8.29-1.12-2.13-1.75-4,1.44-5,2.43-.8,2.48-3,2-5a4.6,4.6,0,0,0-3.65-3.57c-2.12-.43-4-.06-4.71,2.47-.33,1.24-.79,2.42-2.37,1.93-1.36-.42-1.5-1.83-1.63-3a9.9,9.9,0,0,1,1.44-5.69A83.84,83.84,0,0,0,669,399.59c.22-2.14,1.45-5.24-1.22-5.67s-2.66,2.8-2.85,5C664.81,400.07,665.1,401.34,663.54,402.64Z"
       transform="translate(-445.5 -121.26)"
       id="path38193" />
    <path
       class="cls-3"
       d="M667.21,345.73c4.17,0,10.05,3.9,9.29,6.61-.87,3.11-2.13,6.66-6.34,6.83-3.34.13-8-5.41-8-9.13C662.17,346.54,664.31,345.73,667.21,345.73Z"
       transform="translate(-445.5 -121.26)"
       id="path38195" />
    <path
       class="cls-4"
       d="M708.16,347.16c4.18,0,5.65,2.28,5.51,5.37-.19,4-2.41,7.24-6.52,7.23-3.83,0-6.06-3.48-6.16-6.91C700.86,348,705.35,348,708.16,347.16Z"
       transform="translate(-445.5 -121.26)"
       id="path38197" />
  </g>
  <path
     id="shine"
     d="M 1.5799992,0.7040304 V 207.08091 c 0,229.66454 239.9200008,319.6031 239.9200008,319.6031 0,0 239.92,-89.93856 239.92,-319.6031 V 0.7040304 Z"
     style="fill:url(#rg);stroke:#000000;stroke-width:2.41218" />
</svg>
