<?xml version="1.0" encoding="UTF-8" standalone="no"?>
<!-- Created with Inkscape (http://www.inkscape.org/) -->

<svg
   width="600"
   height="600"
   viewBox="0 0 158.75 158.75"
   version="1.1"
   id="svg5"
   xml:space="preserve"
   sodipodi:docname="House Jordayne Circle.svg"
   inkscape:version="1.2.1 (9c6d41e410, 2022-07-14)"
   xmlns:inkscape="http://www.inkscape.org/namespaces/inkscape"
   xmlns:sodipodi="http://sodipodi.sourceforge.net/DTD/sodipodi-0.dtd"
   xmlns:xlink="http://www.w3.org/1999/xlink"
   xmlns="http://www.w3.org/2000/svg"
   xmlns:svg="http://www.w3.org/2000/svg"
   xmlns:rdf="http://www.w3.org/1999/02/22-rdf-syntax-ns#"
   xmlns:cc="http://creativecommons.org/ns#"
   xmlns:dc="http://purl.org/dc/elements/1.1/"><sodipodi:namedview
     id="namedview3133"
     pagecolor="#ffffff"
     bordercolor="#000000"
     borderopacity="0.25"
     inkscape:showpageshadow="2"
     inkscape:pageopacity="0.0"
     inkscape:pagecheckerboard="0"
     inkscape:deskcolor="#d1d1d1"
     showgrid="false"
     inkscape:zoom="0.98641396"
     inkscape:cx="226.07142"
     inkscape:cy="315.28345"
     inkscape:window-width="1920"
     inkscape:window-height="1017"
     inkscape:window-x="-8"
     inkscape:window-y="-8"
     inkscape:window-maximized="1"
     inkscape:current-layer="svg5" /><title
     id="title10601">House Jordayne</title><defs
     id="defs2"><radialGradient
       id="rg"
       gradientUnits="userSpaceOnUse"
       cx="220"
       cy="220"
       r="405"><stop
         style="stop-color:#fff;stop-opacity:.3"
         offset="0"
         id="stop1099" /><stop
         style="stop-color:#fff;stop-opacity:.2"
         offset=".2"
         id="stop1101" /><stop
         style="stop-color:#666;stop-opacity:.1"
         offset=".6"
         id="stop1103" /><stop
         style="stop-color:#000;stop-opacity:.13"
         offset="1"
         id="stop1105" /></radialGradient><circle
       id="shield"
       cx="300"
       cy="300"
       r="298" /><pattern
       id="chequy"
       patternUnits="userSpaceOnUse"
       width="150"
       height="150"><path
         fill="#0c0"
         d="M0,0v150h150v-150z"
         id="path1109" /><path
         fill="#080"
         d="M0,0v75h150v75h-75v-150z"
         id="path1111" /></pattern><style
       id="style8151">.cls-1{fill:#cfc4b0;}.cls-2{fill:#507225;}.cls-3{fill:#0c0902;}.cls-4{fill:#100d03;}.cls-5{fill:#d5a819;}.cls-6{fill:#090702;}.cls-7{fill:#0f0a03;}.cls-8{fill:#1b1604;}.cls-9{fill:#cda21a;}.cls-10{fill:#d6a818;}.cls-11{fill:none;stroke:#000;stroke-width:3px;}</style><pattern
       patternUnits="userSpaceOnUse"
       width="150"
       height="150"
       patternTransform="translate(-691.86063,135.01662)"
       id="pattern9540"><path
         fill="#00cc00"
         d="M 5.0000006e-7,4.9999998e-7 V 150 H 150 V 4.9999998e-7 Z"
         id="path8147"
         style="fill:#507225;fill-opacity:1;stroke-width:0;stroke-dasharray:none" /><path
         fill="#008800"
         d="M 5.0000006e-7,4.9999998e-7 V 75 H 150 v 75 H 75 V 4.9999998e-7 Z"
         id="path8149"
         style="fill:#cfc4b0;fill-opacity:1;stroke:#008800;stroke-width:0;stroke-dasharray:none;stroke-opacity:1" /></pattern><style
       id="style9909">.cls-1{fill:#cfc4b0;}.cls-2{fill:#507225;}.cls-3{fill:#0c0902;}.cls-4{fill:#100d03;}.cls-5{fill:#d5a819;}.cls-6{fill:#090702;}.cls-7{fill:#0f0a03;}.cls-8{fill:#1b1604;}.cls-9{fill:#cda21a;}.cls-10{fill:#d6a818;}.cls-11{fill:none;stroke:#000;stroke-width:3px;}</style><radialGradient
       id="rg-9"
       gradientUnits="userSpaceOnUse"
       cx="220"
       cy="220"
       r="405"><stop
         style="stop-color:#fff;stop-opacity:.3"
         offset="0"
         id="stop2" /><stop
         style="stop-color:#fff;stop-opacity:.2"
         offset=".2"
         id="stop4" /><stop
         style="stop-color:#666;stop-opacity:.1"
         offset=".6"
         id="stop6" /><stop
         style="stop-color:#000;stop-opacity:.13"
         offset="1"
         id="stop8" /></radialGradient><radialGradient
       id="radialGradient878"
       gradientUnits="userSpaceOnUse"
       cx="220"
       cy="220"
       r="405"><stop
         style="stop-color:#fff;stop-opacity:.3"
         offset="0"
         id="stop870" /><stop
         style="stop-color:#fff;stop-opacity:.2"
         offset=".2"
         id="stop872" /><stop
         style="stop-color:#666;stop-opacity:.1"
         offset=".6"
         id="stop874" /><stop
         style="stop-color:#000;stop-opacity:.13"
         offset="1"
         id="stop876" /></radialGradient></defs><g
     id="layer1"
     transform="matrix(1.0016695,0,0,1.0016695,-25.800294,-43.959594)"><g
       id="g1153"
       transform="matrix(0.26458333,0,0,0.26458333,25.625001,43.754034)"><use
         id="background"
         xlink:href="#shield"
         fill="url(#chequy)"
         style="opacity:1;fill:url(#pattern9540);fill-opacity:1;fill-rule:nonzero" /><use
         id="shine"
         xlink:href="#shield"
         fill="url(#rg)"
         stroke="#000000"
         stroke-width="3"
         style="fill:none" /><g
         id="g10234"
         transform="matrix(1.244187,0,0,1.1328257,0.76712811,29.373604)"><g
           id="Layer_5"
           data-name="Layer 5"><path
             class="cls-3"
             d="m 673.37,559.24 0.34,-2.22 c 1.29,-3.33 -0.47,-7 1.16,-11.26 3.67,3.15 2,7.23 3.09,10.32 a 10.54,10.54 0 0 1 0.4,1.78 c 0.26,1.52 0.08,3.11 0.52,4.61 0.84,2.9 2.62,4.44 5.66,3 7.56,-3.61 4.83,-1.6 3.74,3.69 a 6.72,6.72 0 0 1 -0.48,2.24 22,22 0 0 1 -8.35,14 c -5.91,-4.51 -3,-11.44 -4.56,-17.14 -0.8,-2.85 -0.43,-6.09 -1.52,-9.02 z"
             transform="translate(-445.5,-121.26)"
             id="path10031" /><path
             class="cls-3"
             d="m 692.55,515.89 -1.2,43.7 c -1.54,3.82 -0.77,8.35 -3.55,11.8 -0.4,-2.11 0,-4.17 1.58,-7.65 -3.74,3.07 -6.4,5.37 -9.49,3.32 -3.09,-2.05 -3.12,-5.6 -2.69,-9 2.58,0.32 2.15,2.8 3.11,4.29 2.33,3.64 3.64,0.9 5.09,-0.84 0.6,-8.33 1.56,-16.53 0.91,-25 -0.94,-12.23 -0.22,-24.57 -1.43,-36.84 -1.21,-12.27 -3.04,-24.38 -3.88,-36.67 -0.68,-9.52 -2.1,-19 -2,-28.56 0.52,-5.92 -1.21,-12.13 1.65,-18.24 3.9,2.85 2.11,6.73 3.57,9.56 2.76,7.49 1.87,15.47 2.49,23.16 1.32,16.49 2.7,33 3.83,49.48 0.19,2.78 0.9,5 3.66,6 a 1.65,1.65 0 0 1 0,2.91 c -4.5,2.76 -3.77,7.28 -4.23,11.69 0.45,-1.54 0.03,-3.57 2.58,-3.11 z"
             transform="translate(-445.5,-121.26)"
             id="path10033" /><path
             class="cls-4"
             d="m 681.84,136.17 c 5.78,5 8.59,12 11.77,18.62 5.3,11 10.27,22.25 15.37,33.39 5.15,6.86 7.57,15 9.61,23 2.48,9.82 4.32,19.84 3.72,30.1 -0.75,7.25 -1.06,14.55 -2.73,21.68 -1.41,3.85 -1.67,8 -2.9,11.89 a 1.63,1.63 0 0 1 -1.47,0.84 c -1.13,-0.32 -0.8,-1.59 -1.42,-2.29 -0.49,1.77 0.59,4.62 -3,4.09 -1.89,-4 0.24,-7.74 1.21,-11.41 3.6,-13.69 4.9,-27.45 1.89,-41.39 -3.08,-14.26 -8.59,-27.76 -13.94,-41.25 -4.34,-10.94 -10.12,-21.27 -14.64,-32.16 A 16.59,16.59 0 0 0 684,148.64 c -1.15,-1.79 -2.09,-4.17 -4.67,-3.87 -2.29,0.27 -2.7,2.66 -3.4,4.42 a 139,139 0 0 0 -7.55,27.2 13.18,13.18 0 0 0 1.06,7.46 c 2.37,5.84 3.71,12 5.55,18 a 13.52,13.52 0 0 1 0.54,2.29 c 0.27,2.26 1.41,5.24 -1.46,6.13 -2.38,0.74 -3.55,-1.92 -4.48,-3.88 -1.76,-3.71 -3.47,-7.45 -5.64,-11.11 -1.08,5.37 0.27,10.35 2.45,15.31 2,4.53 5.54,8.13 7.38,12.72 0.67,1.66 1.25,3.58 -0.49,4.85 -1.74,1.27 -3.36,-0.06 -4.69,-1.2 -3,-2.59 -4.84,-6.15 -7.12,-9.34 -1,-1.44 -1.54,-4 -4.33,-2.59 -3.44,4.32 -3.54,9.77 -5,14.75 a 3.91,3.91 0 0 1 -1,1.49 c -2.83,1.58 -3.16,-0.58 -3.7,-2.45 -0.33,-7.11 1.67,-13.82 3.79,-20.46 1.83,-5.72 3.5,-11.5 5.63,-17.13 1.65,-7.26 3.58,-14.49 4.85,-21.79 1.71,-9.83 6,-18.64 9.37,-27.84 0.92,-2.53 2,-5.22 4.89,-6.32 l 1.14,-0.37 z"
             transform="translate(-445.5,-121.26)"
             id="path10035" /><path
             class="cls-3"
             d="m 638.2,506.26 c -5.82,-6.38 -5,-13.74 -2.31,-20.83 3,-7.84 7.93,-14.06 17.38,-14.43 1.61,-0.06 3.17,0 4.05,-1.73 1.23,-2.35 3.28,-2.91 5.81,-3.23 6.25,-0.79 6.51,-1.48 4,-7.54 -0.73,-1.81 -1.5,-3.6 -2.24,-5.4 a 2.54,2.54 0 0 1 -0.28,-1.54 4.27,4.27 0 0 1 1.94,-2.46 c 2.22,-1.05 1.8,-3.17 2.06,-5 0.32,-2.25 0.19,-4.84 3.42,-5.2 a 2.58,2.58 0 0 1 1.24,1.3 c 1,2.87 0.5,5.83 0.66,8.75 0,5.6 0,11.19 0,16.79 0,3.1 -0.74,5.76 -4,7 -1.18,3 1.87,1.2 2.46,2.16 2.55,1.45 3,3.73 1.6,6 -1.52,2.42 -3.45,0.28 -5.16,-0.19 -8.12,-2.21 -16.22,-4.23 -24.24,0.29 -2.73,3.57 -5.47,7.13 -4.68,12.5 3.75,-0.72 5.83,-5.4 10,-3.89 2.44,0.89 3.32,3.15 4,6.06 3.29,-1.72 6.14,-4 9.88,-3.17 2.38,0.53 3.27,2.64 4.79,4.06 2.67,0.92 2.48,-4.26 5,-2.6 2.14,1.43 1.62,4.28 1.54,6.59 -0.38,11.76 2.07,23.42 1.2,35.18 -0.19,2.6 0.66,5.59 -3.23,7.92 0.2,-7.14 -1.17,-13.55 -1.36,-20.13 -0.17,-5.82 -0.41,-11.68 -2.57,-17.22 -1.37,-1.1 -3.13,-1.57 -4.45,-2.75 -2.59,-2.32 -4.62,-3 -5.33,1.52 -0.2,1.27 -0.69,3.19 -2.25,3 -4.49,-0.54 -8.69,2.06 -13.17,1 z"
             transform="translate(-445.5,-121.26)"
             id="path10037" /><path
             class="cls-3"
             d="m 668.93,505.2 c 3.87,4.09 3,9.48 3.26,14.26 0.41,7.37 2.13,14.62 1.75,22 1.92,-15.6 -1.19,-31.13 -0.31,-47.57 -1.79,2.59 -1.69,5.88 -4.7,6.09 -2,0.14 -2.43,-1.56 -2.31,-3.3 4.84,-3 2.9,-7.67 2.64,-11.68 -0.24,-3.74 -3.84,-3.91 -6.69,-4.53 a 30.41,30.41 0 0 0 -14.55,0.09 c -1.66,0.44 -3.37,1.25 -5.07,0 a 5.19,5.19 0 0 1 5,-3.47 c 8.46,-0.37 17.09,-1.4 25.12,3.93 0.43,-2.59 1.3,-4.83 -2.14,-5.54 -1.1,-1.52 -3,-1.92 -4.32,-3.18 5.69,-1.12 6.34,-5 5.88,-9.94 -0.42,-4.58 -0.06,-9.23 0,-13.85 a 1.45,1.45 0 0 1 1.9,0.74 c 1.37,7.88 1.32,15.89 1.93,23.84 a 206.24,206.24 0 0 1 0.09,21.12 c -0.39,15.25 1.91,30.41 1.31,45.67 -0.14,3.68 1.41,7.28 1.07,11 -0.19,2.12 0.16,4.35 -1.57,6.07 -2.79,-2.7 -0.2,-6.44 -1.85,-9.46 -1.69,3 0.82,6.65 -1.6,9.43 -1.2,-14.56 -2.37,-29.12 -3.64,-43.67 a 67.78,67.78 0 0 0 -1.29,-6.87 0.8,0.8 0 0 1 0.09,-1.18 z"
             transform="translate(-445.5,-121.26)"
             id="path10039" /><path
             class="cls-5"
             d="m 677.15,557.06 c -2.38,-36.1 -2.18,-72.28 -3.64,-108.41 -2.48,-15.56 -1.6,-31.25 -1.69,-46.89 -0.15,-26.71 -0.22,-53.43 0.08,-80.14 0.09,-7.63 1.71,-15.2 1.14,-22.88 0.07,-2.15 -0.11,-4.33 0.8,-6.37 1.14,-1.66 2.71,-3 3.45,-5 0.41,-1.11 1.37,-2.51 2.86,-0.77 1.63,4.16 0.63,8.5 0.9,12.76 -3.85,26.34 -2.41,52.87 -1.92,79.28 0.2,10.66 0.08,21.49 1.58,32.23 0.82,5.87 -1.21,12 -0.72,18.1 0.15,1.93 -0.43,3.93 0.49,5.8 0.69,19.56 3.07,39 5.34,58.37 0.68,5.82 1.44,11.66 1.55,17.51 0.31,15.64 1.49,31.27 0.44,46.92 -0.16,2.47 0.28,5.22 -2.48,6.77 -1.25,-1.52 -1,-3.31 -0.93,-5.07 a 551.41,551.41 0 0 0 -4,-83.94 c -3.11,-24.68 -4.29,-49.58 -4.63,-74.5 q -0.51,-37.07 -0.48,-74.14 c 0,-1.94 -0.29,-3.92 0.25,-5.84 -0.66,2.32 -0.25,4.71 -0.28,7.06 -0.61,40.21 0.63,80.41 1.48,120.59 0.62,29 1.64,58 2.27,87 0.15,6.84 1,13.68 1.69,20.51 0.25,2.52 0.76,5.12 -1.44,7.17 L 677.2,558 a 1.39,1.39 0 0 0 -0.05,-0.94 z"
             transform="translate(-445.5,-121.26)"
             id="path10041" /><path
             class="cls-6"
             d="m 731.49,492.07 c 3.12,5.1 1.92,11.33 4.4,16.6 3.13,2.81 3,5.58 -0.07,8.34 -3.95,1 -7.48,1.74 -11.18,-1.66 -2.38,-2.18 -5.78,-0.61 -7.06,2.55 a 29.1,29.1 0 0 1 -2.79,5 c -2,2.43 -2.85,1.23 -3.27,-1.11 a 10.67,10.67 0 0 1 2.11,-5.56 c 2.3,-2.95 2.87,-6 0.81,-9.38 -1.67,-3.58 -4,-7.36 0.64,-10.35 3,-1.92 6.87,0.5 9.71,5.44 1.07,1.87 1.42,4.06 2.76,5.85 a 14.92,14.92 0 0 0 -4,-15.74 c -5.11,-5.07 -11.15,-5 -17.48,-3 -2.74,1.51 -5.32,3.42 -8.67,3.33 -4,-0.11 -5.27,-1.83 -4.28,-5.68 2.62,-10.23 6.8,-19.32 15.3,-26.39 13.35,-11.1 15,-26.82 15.31,-42.82 a 1.93,1.93 0 0 0 -1.15,-1.75 c -3.4,3.26 -5.62,7.64 -8.75,11.27 a 79.58,79.58 0 0 1 -8.58,8.87 c -1.19,1 -2.63,2.08 -4.24,1.07 -1.82,-1.13 -1.58,-3 -1.11,-4.77 a 33.84,33.84 0 0 1 3.81,-7.94 c 4.25,-7.29 8.89,-14.34 13.11,-21.65 5.12,-8.87 9.55,-18 12.4,-27.85 a 141.21,141.21 0 0 0 -0.38,-26.42 c -1.11,-8.93 -0.27,-18 -1.34,-27 -0.6,-5 -1.72,-10.06 -1.39,-15.2 a 23.15,23.15 0 0 1 0.36,-4.69 c 0.31,-1.13 0.68,-2.49 2.14,-2.34 1,0.11 1.51,1.26 1.63,2.22 0.47,3.69 1.38,7.3 1.56,11 0.29,6.06 1.08,12.08 1.87,18.08 0.42,5.57 1.72,11 1.66,16.67 -0.68,9.68 2.35,19.31 0.21,29.06 -0.75,3.42 -1.27,6.86 -2.65,10.09 -1.9,4.95 -5.81,9.7 -1.5,15.28 -0.72,17.32 0.55,34.88 -6.41,51.41 -6.85,7.72 -12.57,16.14 -15.29,26.92 1.86,0.86 4.76,0.13 7.5,0.36 8.64,0.82 12.92,4.29 14.3,11.89 z"
             transform="translate(-445.5,-121.26)"
             id="path10043" /><path
             class="cls-3"
             d="m 692.55,515.89 c -2.95,2.3 -0.08,6 -2.46,9 -2.26,-3.89 -0.26,-8 -1.32,-11.61 -1.69,-5.69 4.59,-5.07 5.92,-8.23 -0.4,-1.31 0.29,-2.23 1.09,-3.12 a 11.31,11.31 0 0 1 5.55,-2.71 q 11.61,0.4 8.19,11.35 c -1,3.13 -2.83,6 -2.33,9.52 0.2,0.51 0.37,1 0.55,1.55 -0.17,2.75 5.51,2.07 3.49,5.9 a 13.87,13.87 0 0 0 -4.71,9.49 c -2.69,1.11 -3,-0.63 -2.89,-2.55 0.28,-8.62 -1.08,-17.35 1.67,-25.81 0,-1.78 0.12,-3.47 -2.5,-3.65 -2.11,-0.15 -3.06,0.88 -4.11,2.44 -1.93,2.89 -1.58,7.48 -6.14,8.43 z"
             transform="translate(-445.5,-121.26)"
             id="path10045" /><path
             class="cls-3"
             d="m 705.3,508.68 a 129.14,129.14 0 0 0 -1.09,23.23 c 0,1.94 -0.94,4.55 2.31,5.12 -0.76,2.93 -3.1,3.19 -3.15,0.43 -0.17,-9.6 -2.51,-19.46 1.93,-28.78 z"
             transform="translate(-445.5,-121.26)"
             id="path10047" /><path
             class="cls-3"
             d="m 711.22,527.55 c 0.14,-3.24 -6.23,-1.51 -4.53,-5.94 1.87,0.08 3.74,-0.19 5.61,-0.16 0.07,1.78 0.88,2.3 2.48,1.45 -0.11,2.37 -1.64,3.66 -3.56,4.65 z"
             transform="translate(-445.5,-121.26)"
             id="path10049" /><path
             class="cls-5"
             d="m 679.3,563.18 c -2.48,-20.2 -1.51,-40.59 -3.2,-60.84 -0.07,-0.78 -0.09,-1.57 -0.11,-2.35 -1.53,-59.21 -1.34,-118.44 -1.18,-177.66 0,-1.08 -0.41,-2.29 1.08,-3.73 0,18.12 -0.54,35.76 0.13,53.35 1,26.74 2.05,53.47 4.17,80.18 1.53,19.27 4.48,38.37 5.46,57.71 0.73,14.51 0.39,29 0.86,43.46 a 38.13,38.13 0 0 1 -1.15,11 c -2.65,2.94 -4.8,3.26 -6.06,-1.12 z"
             transform="translate(-445.5,-121.26)"
             id="path10051" /><path
             class="cls-3"
             d="m 680.49,434.77 c -2.17,-9.81 -1.23,-19.85 -1.86,-29.76 q -2.64,-42.2 -1.28,-84.53 c 0.23,-7.19 1.37,-14.36 2.1,-21.54 a 34.26,34.26 0 0 0 -0.11,-14.34 c -1.65,-8.78 0.89,-17.39 1.13,-26.1 a 4,4 0 0 1 2.17,-3.28 c 2.79,-0.1 2.73,2.08 3,3.86 a 39.34,39.34 0 0 1 0.11,6.23 13.59,13.59 0 0 1 -0.4,3.1 c -1.52,5.24 -0.32,10.64 -0.9,15.94 a 12.28,12.28 0 0 1 -0.34,2 c -1.36,5.27 -0.43,10.64 -0.67,16 a 19,19 0 0 1 -0.49,4.11 c -1.41,6.25 -0.39,12.58 -0.66,18.86 -0.48,14.27 -0.08,28.54 -0.79,42.84 -0.57,11.58 0.41,23.41 1.44,35.09 0.79,4.17 0.46,8.46 1.49,12.61 -0.11,3.52 1.19,7.24 -1.4,10.43 -2.59,-2.25 -0.14,-5.67 -2.5,-9.23 z"
             transform="translate(-445.5,-121.26)"
             id="path10053" /><path
             class="cls-5"
             d="m 683,426.24 -0.13,-10.6 c 2.83,0 2.58,2.33 2.79,4.07 a 27.56,27.56 0 0 0 0.9,5.61 c 1.17,5.75 -0.28,11.68 1.15,17.42 1.36,17.34 2.87,34.68 4,52 0.23,3.7 1.15,6.4 4.4,8.16 l -1.4,2.12 c -5.28,2.66 -5.38,-1.4 -5.67,-4.6 -0.92,-10.31 -1.62,-20.65 -2.45,-31 Q 684.82,447.87 683,426.24 Z"
             transform="translate(-445.5,-121.26)"
             id="path10055" /><path
             class="cls-5"
             d="m 684.26,423.18 c -0.52,-2.42 0.81,-5.32 -1.21,-7.36 a 1.56,1.56 0 0 1 -0.3,-0.4 c -1.79,-3.68 -0.89,-7.62 -1,-11.45 a 358,358 0 0 1 -0.87,-36.37 c 0.24,-14.12 0.08,-28.24 0.36,-42.36 0.39,-6.36 -0.78,-12.77 0.61,-19.1 a 1.3,1.3 0 0 0 0,-0.26 v -2.91 a 1.3,1.3 0 0 1 0,-0.31 c 1.44,-5.49 -0.7,-11.24 1.15,-16.7 a 0.68,0.68 0 0 0 0,-0.84 c 1.47,-5.53 -0.58,-11.3 1.11,-16.82 l 0.07,-2 c 0.94,-9.32 0.69,-18.68 1.48,-28 1.37,-16.35 0.46,-32.79 0.29,-49.2 a 28,28 0 0 0 -0.8,-7.29 1.47,1.47 0 0 0 -2.87,0.19 c -2.06,14.54 -2.4,29.19 -2.58,43.84 a 1.34,1.34 0 0 1 0,0.32 c -2.11,8.2 -0.87,16.65 -1.77,25 -0.94,8.69 -2.92,17.26 -3.15,26 a 1.3,1.3 0 0 1 -0.07,0.38 c -1.56,4.68 -0.18,9.62 -1.21,14.35 a 14.22,14.22 0 0 1 -0.33,2 1.25,1.25 0 0 0 0,0.23 c -0.61,13.68 -1.11,27.36 -1.33,41 -0.41,26.31 0,52.63 -0.2,78.94 -0.07,10.44 0.73,21 -2.6,31.29 a 1.46,1.46 0 0 1 -2.77,0.1 c -0.2,-0.5 -0.37,-1 -0.61,-1.52 a 1.31,1.31 0 0 1 -0.1,-0.27 c -2.29,-9.18 -3.74,-18.56 -6.48,-27.64 v -0.1 c -3,-14.76 -6.5,-29.45 -9,-44.28 -1.75,-10.18 -1.54,-20.7 -1.68,-31 q -0.58,-45.27 -0.08,-90.55 c 0.06,-6.55 0.11,-13.24 3.06,-19.4 l -0.07,0.06 c 1.18,-5.65 2.33,-11.31 4.83,-16.58 1.79,-3.34 3.34,-3.69 5.33,0 2.41,4.49 5.07,8.87 8.86,12.4 0.71,0.67 1.51,1.64 2.49,1.09 1.32,-0.74 0.78,-1.92 0.22,-2.88 -1.48,-2.54 -3.05,-5 -4.69,-7.47 -4.16,-6.23 -6.94,-12.89 -6.39,-20.58 a 10.67,10.67 0 0 1 0.69,-4.21 1.47,1.47 0 0 1 2.65,0.09 c 2,4.59 3.2,9 6.09,13.8 a 1.47,1.47 0 0 0 2.72,-0.84 33.51,33.51 0 0 0 -3.46,-13.22 c -8.27,-17.42 0.49,-32.42 5.57,-48 0.95,-2.9 3.51,-3.16 5.65,-1.15 a 16.2,16.2 0 0 1 4.17,5.6 c 6.17,16.13 14.08,31.49 20.64,47.48 10.64,26 13.88,51.7 4.84,78.56 a 15.36,15.36 0 0 0 -0.4,2.89 c -1.76,12.54 -6.44,24.16 -11.33,35.71 -0.89,2.1 -2.5,3.94 -2.58,7.13 9,-10.23 12.83,-23.07 21.26,-32.89 1.34,-1.57 1.94,-4.43 4.6,-3.85 2.47,0.54 2.42,3.19 3.05,5.24 1.31,4.23 0.78,8.55 0.91,12.83 0.45,15 2.35,30 2.78,45.07 0.24,8.39 0.9,16.81 0.9,25.23 0,1.41 0.49,3 -0.5,4.25 a 1.54,1.54 0 0 0 -0.29,0.55 c -3.71,14.56 -12,26.86 -19.59,39.49 -3,5 -6,10.12 -8.83,15.23 -0.74,1.32 -1.81,3.13 -0.36,4.31 1.73,1.4 2.74,-0.72 3.75,-1.68 a 85.8,85.8 0 0 0 15.56,-19 c 0.75,-1.3 1.3,-3.26 3.27,-2.79 1.97,0.47 1.69,2.42 1.68,3.93 -0.14,18.11 -2.81,35.21 -18.32,47.45 -5.51,4.35 -9.69,9.7 -10,17.23 0,1.12 -0.81,2.19 -1.12,3.32 -0.56,2 -4,3.86 -1.25,6 2.11,1.68 4.88,0.54 7.22,-0.64 l 3,-1.51 a 1.47,1.47 0 0 1 1.25,0 c 2.78,1.22 5,2.59 0.81,5.54 -1.94,1.37 -1.78,4.34 -4.13,5.4 -0.57,0.35 -1.29,0.48 -1.68,1.07 a 1.1,1.1 0 0 1 -0.43,0.42 l -4.63,2.17 c -4.24,1.78 -5.57,-0.73 -5.86,-4.21 -0.91,-11.06 -1.93,-22.12 -2.44,-33.2 -0.35,-7.59 -2,-15.11 -1.31,-22.76 -0.23,-2.85 1.28,-4 3.87,-3.5 2.84,0.56 6,6 4.51,8.47 -3.52,5.84 -1.75,11.8 -1.27,17.78 0.08,0.93 -0.2,2.15 1.08,2.43 a 2.5,2.5 0 0 0 2.47,-1.27 c 2.51,-3.37 5.92,-6.34 3.13,-11.37 a 10.44,10.44 0 0 1 -0.74,-7.49 c 0.5,-2 1.66,-4 3.84,-3.86 2.39,0.11 2.73,2.41 3,4.42 v 0.06 a 1.46,1.46 0 0 0 2.79,0.5 c 1.57,-3.7 5.47,-6.15 6.36,-10.13 a 1.39,1.39 0 0 1 0.17,-0.43 c 1.45,-2.34 3.25,-4.66 0.34,-7.9 -1.59,3 1.81,5.75 -0.45,8.1 -2.82,2.23 -6.55,2.18 -9.64,4.43 -2.69,2 -6.79,-0.14 -9.68,-2.44 -2.59,-2.06 -3.16,-4.78 -2.4,-7.94 1.46,-6 3.87,-11.5 8.42,-15.85 a 50.37,50.37 0 0 0 11.29,-16.5 1.46,1.46 0 0 0 -1.88,-1.93 c -1.62,0.62 -3.11,0.46 -4.27,-2.13 -1.33,-3 0.56,-6.38 4.3,-7.78 a 17.3,17.3 0 0 1 5.2,-0.92 c 1.64,-0.09 3.21,-0.47 3.92,-2.12 3.73,-8.65 6.87,-17.38 3.59,-27 -1.67,-4.89 -0.64,-10.55 -4.54,-14.87 -1,-1.11 0.12,-3 0.47,-4.52 1.31,-5.89 3.33,-11.85 -2.07,-17 -1.52,-1.46 -1.3,-3.64 -0.6,-5.58 v -0.11 a 1.47,1.47 0 0 0 -2,-1.8 3.42,3.42 0 0 1 -0.5,0.16 2.29,2.29 0 0 1 -2.44,-0.79 1.45,1.45 0 0 0 -2.37,0.23 c -2.44,4.51 -6.7,7.63 -9.12,12.14 -1.24,2.31 -4.94,3.87 -8.4,3.15 -3.46,-0.72 -4.55,1.27 -4.74,4.24 0,0.39 -0.07,0.78 -0.06,1.18 0.53,18.45 -2.23,36.85 -1.12,55.29 0.46,7.62 0.91,15.26 1.81,22.85 0.47,3.92 0.93,8 -2,11 a 1.47,1.47 0 0 1 -2.52,-0.79 z"
             transform="translate(-445.5,-121.26)"
             id="path10057" /><path
             class="cls-3"
             d="m 647.43,235.36 c 0.22,-2.15 -0.19,-4.42 1.2,-6.35 0,2 1,2.35 2.71,1.67 -2.66,45.41 -1.94,90.83 0.13,136.21 0.53,11.58 4.28,23 6.5,34.53 1,5 1.82,10 2.73,15 1,7.49 3.13,14.75 4.57,22.15 a 16.72,16.72 0 0 1 0.59,4 c -0.23,4.58 -2.13,2.38 -3.84,0.91 -2.55,-4.08 -3,-8.83 -3.85,-13.36 -1.64,-8.58 -4.78,-16.85 -5.25,-25.67 -0.35,-4.16 -2.63,-7.72 -3.5,-11.76 -3.36,-15.55 -5.44,-31.14 -4.8,-47.15 0.59,-14.85 0.13,-29.74 0.13,-44.61 a 20.58,20.58 0 0 0 -0.79,-7 78.59,78.59 0 0 1 -0.23,-19.9 c 0.55,-5.27 1.18,-10.54 0.75,-15.79 -0.63,-7.87 1.31,-15.33 2.95,-22.88 z"
             transform="translate(-445.5,-121.26)"
             id="path10059" /><path
             class="cls-7"
             d="m 722.14,270.87 c 1.62,-0.28 2.14,0.61 2.16,2 0.52,2 2,3.87 1.61,6 -0.3,1.84 2,5.23 -3.22,4.51 -2.33,-0.32 -2.73,4.12 -4.25,6.25 -6.4,8.4 -10.13,18.41 -16.26,27 -0.91,1.27 -1.65,2.69 -2.66,3.87 -1.01,1.18 -2.25,3.59 -4.09,2.47 -1.84,-1.12 -0.59,-3.22 0.26,-4.75 4.88,-8.8 7.82,-18.37 11.06,-27.82 1.45,-4.24 1.93,-8.81 4.34,-12.72 1.47,-0.59 1.16,-2.21 1.88,-3.21 0.38,-0.53 0.26,-2.21 1.61,-1.21 0.39,0.29 0.18,1.39 0.25,2.12 v 3.5 c -1.32,2.11 -0.22,4.47 -0.75,6.72 2.64,0.51 2.06,-2.21 3.25,-3.09 v 0 c 1.79,-3.76 1.78,-8.33 4.81,-11.64 z"
             transform="translate(-445.5,-121.26)"
             id="path10061" /><path
             class="cls-8"
             d="m 656.1,214.15 c -1.46,5.57 -2.41,11.29 -4.83,16.58 0.07,-5.97 1.08,-11.68 4.83,-16.58 z"
             transform="translate(-445.5,-121.26)"
             id="path10063" /><path
             class="cls-9"
             d="m 643,480.62 c 7.15,-3.08 14.5,-2.64 22,-1.42 4.46,0.72 6.63,2.86 6.22,7.51 -0.24,2.73 0,5.5 -0.26,8.23 -0.27,3 -1.78,3.73 -4.27,1.77 -3.76,-4.75 -6.13,-4.43 -13.25,1.78 -1.4,-0.3 -0.91,-1.48 -0.92,-2.29 0,-2.2 0,-4.5 -2.38,-5.49 -2.38,-0.99 -4.07,0.54 -5.66,2 -0.71,0.67 -1.33,1.44 -2.08,2.05 -1,0.79 -1.63,2.57 -3.27,1.75 -1.22,-0.61 -0.67,-2.07 -0.77,-3.18 -0.57,-4.95 1.27,-9.11 4.64,-12.71 z"
             transform="translate(-445.5,-121.26)"
             id="path10065" /><path
             class="cls-3"
             d="m 666.57,442.61 2,3.82 c 1.81,-15.27 1.22,-30.23 1.37,-45.16 0.22,-21.73 0.1,-43.46 0.34,-65.19 0.14,-12.71 0.66,-25.42 1,-38.13 0.05,-1.74 -0.15,-3.55 0.91,-5.12 2.57,5.35 -0.45,10.9 0.77,15.78 1.22,-3.14 -2.27,-7.61 1.68,-10.85 -2.29,50.28 -0.85,100.58 -1.15,150.88 a 10.5,10.5 0 0 1 -1.1,-0.07 q -0.06,-4.67 -0.11,-9.34 c -1.24,-10.86 -0.1,-21.74 -0.52,-30.73 -0.63,9 0.83,19.87 -0.62,30.7 -1.35,2.33 -1,4.9 -1.06,7.41 -0.06,2.51 -0.46,4.4 -3.65,3.51 -2.08,-2.53 -0.92,-5.02 0.14,-7.51 z"
             transform="translate(-445.5,-121.26)"
             id="path10067" /><path
             class="cls-3"
             d="m 666.57,442.61 q -0.06,3.75 -0.11,7.51 l -1.26,2.16 a 17.71,17.71 0 0 1 -2.12,-9.48 c 3.07,2.85 2.35,-0.2 2.1,-1.5 -1.17,-6 -2.38,-12.08 -3.89,-18 a 21.16,21.16 0 0 1 -0.57,-6.87 199.88,199.88 0 0 1 5.85,26.18 z"
             transform="translate(-445.5,-121.26)"
             id="path10069" /><path
             class="cls-3"
             d="m 671.16,439.21 v -31.53 h 1.15 q 0,15.79 0,31.57 z"
             transform="translate(-445.5,-121.26)"
             id="path10071" /><path
             class="cls-9"
             d="m 646.81,498.68 a 5.24,5.24 0 0 1 2,4.54 c -0.05,1 -0.61,2 -1.88,1.34 -1.61,-0.8 -1.83,-2.39 -1.81,-4 0.04,-1.02 0.35,-1.89 1.69,-1.88 z"
             transform="translate(-445.5,-121.26)"
             id="path10073" /><path
             class="cls-9"
             d="m 666.58,472.37 c 2.52,-0.41 5,-0.75 4.33,3.18 -2.38,0.2 -4.85,0.55 -4.33,-3.18 z"
             transform="translate(-445.5,-121.26)"
             id="path10075" /><path
             class="cls-5"
             d="m 682.92,255.31 a 136,136 0 0 0 -2.42,29.25 c -0.25,0.51 -0.32,1.14 -0.92,1.42 -2.59,1.14 0.33,6.53 -4.56,5.88 -2.29,-1.79 -1.78,-4.43 -1.33,-6.52 3.06,-14.36 3.05,-29.1 5.68,-43.51 a 21.23,21.23 0 0 0 0.75,-7.56 c -0.3,-15.86 0.44,-31.71 0.5,-47.57 a 16.11,16.11 0 0 1 0.26,-4.09 c 0.37,-1.41 1.12,-2.71 2.69,-2.6 1.33,0.1 1.66,1.53 1.91,2.67 a 42.32,42.32 0 0 1 1,7.54 c 0.71,16.41 -0.1,32.82 -0.87,49.19 -0.22,5.23 0.51,11.02 -2.69,15.9 z"
             transform="translate(-445.5,-121.26)"
             id="path10077" /><path
             class="cls-3"
             d="m 680.68,242.58 c -2.24,14.44 -2,29.21 -5.81,43.46 -0.48,1.8 0.07,3.88 0.14,5.83 l -0.35,5.9 c -2.63,4 0,8.74 -2.45,12.89 q 0,-8.91 0,-17.82 a 1.15,1.15 0 0 1 0.06,-1 c 1.82,-4.66 -0.32,-9.63 1.15,-14.32 -1.23,-7.72 2.15,-14.93 2.47,-22.52 0.4,-9.72 1.46,-19.42 2.23,-29.13 2,-7 -0.45,-14.27 2,-21.25 a 231,231 0 0 1 0.56,37.96 z"
             transform="translate(-445.5,-121.26)"
             id="path10079" /><path
             class="cls-3"
             d="m 679.57,286 0.92,-1.42 c -0.37,4.79 1.39,9.74 -1,14.38 z"
             transform="translate(-445.5,-121.26)"
             id="path10081" /><path
             class="cls-10"
             d="m 701.82,499.31 c 0.25,-2 3.4,-2.33 2,-5.73 -1.06,-2.61 3.26,0.73 4.39,-2 0.19,-1.49 -2.07,-2 -2.73,-3.48 a 16.52,16.52 0 0 1 18.93,2.33 c 4.45,4 7.4,14.8 5.28,19.53 a 2.79,2.79 0 0 1 -1.48,1.54 c -1.12,0.25 -1.75,-0.73 -2.08,-1.66 -0.73,-2 -1.18,-4.15 -2.06,-6.1 -1.66,-3.66 -4,-8 -8.51,-6.1 -4.83,2 -0.6,5.87 -0.06,8.92 2.22,3.73 1,7.08 -1.12,10.34 l -2.1,4.58 c -1.83,1.36 -3.64,3.73 -5.61,0.16 v 0.05 c -1.58,-3.61 0.42,-6.68 1.63,-9.77 3.11,-7.92 1.54,-11.08 -6.48,-12.61 z"
             transform="translate(-445.5,-121.26)"
             id="path10083" /><path
             class="cls-3"
             d="m 732.52,294.19 -0.05,36.56 c -2.31,-4.9 -1,-10.31 -2.22,-15.43 -1.14,-4.85 -1.05,-10 -1.89,-15 -1.27,8.87 0.71,17.6 1.11,26.39 0.73,15.83 2.25,31.63 1.79,47.5 a 2.77,2.77 0 0 1 -1.31,2.46 c -0.32,-30.46 -1.89,-60.83 -6.16,-91 -0.07,-0.47 -0.65,-0.87 -1,-1.33 -2.33,1.17 -1.86,4.45 -4.33,5.35 1.44,-2.9 0,-8.07 6.06,-7.3 1.52,0.19 0.85,-1.42 0.79,-2.13 -0.22,-2.46 -0.65,-4.91 -1,-7.36 3.44,5.29 2.83,11.56 4.12,17.37 0.57,2.43 0.5,4.9 4.09,3.92 z"
             transform="translate(-445.5,-121.26)"
             id="path10085" /><path
             class="cls-3"
             d="m 714.4,516.88 a 18.07,18.07 0 0 0 1.12,-10.34 c 2.98,3.81 2.48,7.24 -1.12,10.34 z"
             transform="translate(-445.5,-121.26)"
             id="path10087" /><path
             class="cls-3"
             d="m 701.82,499.31 c 7.68,0.16 10.84,4.79 7.54,11.77 -1.63,3.45 -2.09,7 -2.66,10.58 -3.19,-3.93 -0.13,-7.31 1.14,-10.7 2.67,-7.12 0.69,-10.28 -6.84,-10.33 z"
             transform="translate(-445.5,-121.26)"
             id="path10089" /><path
             class="cls-4"
             d="m 680.68,242.58 c 0,-12.21 -0.28,-21.78 -0.28,-34 -2.62,6.55 0.91,10.92 -2.28,17.33 a 440.89,440.89 0 0 1 2.32,-47.48 c 0.22,-2.1 0.26,-5.06 2.84,-5.16 3.14,-0.13 3,3.06 3.23,5.29 a 333.08,333.08 0 0 1 -0.66,75.59 c -0.5,4 0.31,8.27 -1.59,12.12 -0.82,-3.61 1.14,-7.56 -1.35,-11 0.82,-20.54 2.87,-41 2.24,-61.63 -0.13,-4.26 -0.72,-8.51 -1.15,-13.3 -3,1.92 -2.18,4.48 -2.2,6.53 -0.14,16.27 -0.1,32.54 -0.2,48.82 -0.01,2.31 0.55,4.76 -0.92,6.89 z"
             transform="translate(-445.5,-121.26)"
             id="path10091" /><path
             class="cls-5"
             d="m 681.67,324.7 q 0,39.63 0.05,79.26 c -1.58,-2.06 -1,-4.5 -1.12,-6.79 -1.44,-24 0,-48 0.13,-72 q 0.17,-0.84 0.94,-0.47 z"
             transform="translate(-445.5,-121.26)"
             id="path10093" /><path
             class="cls-7"
             d="m 681.67,324.7 a 4.07,4.07 0 0 0 -0.94,0.47 c 0.39,-6.39 -1.5,-12.91 1.12,-19.17 q -0.09,9.35 -0.18,18.7 z"
             transform="translate(-445.5,-121.26)"
             id="path10095" /><path
             class="cls-4"
             d="m 684.19,268.29 c -0.12,5.62 0.53,11.29 -1.11,16.82 0.36,-5.61 -1.5,-11.36 1.11,-16.82 z"
             transform="translate(-445.5,-121.26)"
             id="path10097" /><path
             class="cls-3"
             d="m 683.09,286 c -0.11,5.64 0.38,11.31 -1.19,16.85 0.4,-5.66 -1.6,-11.45 1.19,-16.85 z"
             transform="translate(-445.5,-121.26)"
             id="path10099" /><path
             class="cls-10"
             d="m 685.29,425.11 c 4.85,-8.85 1.29,-18.16 0.68,-27 a 247.67,247.67 0 0 1 -0.27,-35.75 c 0.73,-9.41 0.21,-18.76 0.81,-28.12 0.28,-4.33 -0.15,-9.27 7.12,-6.1 3.09,1.34 7.59,-2.79 7.62,-3.53 0.21,-4.63 3.63,-6.16 6.34,-8.57 a 8.37,8.37 0 0 0 2.54,-6.38 c 0,-1.29 0.53,-2.39 2.1,-2.08 1.24,0.24 1.39,1.34 1.07,2.31 -0.51,1.58 -1.1,3.43 1,3.83 2,0.37 2.23,-1.82 2.7,-3.22 0.61,-1.81 1.15,-3.6 2.9,-5 a 7.9,7.9 0 0 1 0.59,6.55 c -2.06,5.23 -1.5,8.89 2.28,13.71 2.34,3 1,9.32 -1,13.84 -0.66,1.49 -1.89,3.44 -0.67,4.28 6.91,4.83 3.75,13 5.89,19.26 1.39,4.08 2.35,11.48 -2.37,16.43 a 8.05,8.05 0 0 0 -1.69,4.92 c -0.31,3.73 -1.91,5.41 -6.21,4.78 -3,-0.45 -6.72,-0.21 -8.33,3.74 a 3.44,3.44 0 0 0 1.42,4.58 c 1.57,1 2.29,-0.64 3.1,-1.79 0.81,-1.15 1,-3.83 3,-2.56 2,1.27 1.39,3.8 0.48,5.86 -4.13,9.34 -11.17,16.59 -17.37,24.46 -2.76,3.51 -3.73,8 -4.06,12.21 -0.33,4.21 4.16,4.93 7.4,6.25 3.24,1.32 4.73,0.27 5.55,-2.89 0.47,-1.8 1.74,-1.89 3.12,-0.72 1.72,1.46 3.3,0.43 4.89,-0.32 -0.26,3.47 1.35,7.62 -4.4,8.65 -2.44,0.44 -1.58,3.24 -1,5 0.58,1.76 1,3.46 -1,4.63 a 2.92,2.92 0 0 1 -3.34,0 5.2,5.2 0 0 1 -2,-4.67 2.88,2.88 0 0 1 0.25,-1.14 4.38,4.38 0 0 0 -0.57,-5.42 c -0.22,-0.24 -1.11,-0.17 -1.47,0.08 -1.87,1.29 -2,3.28 -1.79,5.28 a 7.08,7.08 0 0 0 0.82,3.37 c 4.59,6.23 -0.47,10.23 -3.34,14.66 -1.3,2 -4,2.23 -5.8,1.81 -2.16,-0.5 -0.14,-2.57 -0.22,-3.95 -0.17,-3.09 -0.89,-6.18 -0.86,-9.26 0,-3.32 -0.86,-6.61 2.34,-9.75 2.23,-2.19 -1.24,-4.95 -2.95,-6.66 -2.29,-2.3 -3.09,0.69 -4.21,2.06 -2.3,-5.78 -0.49,-11.78 -1.09,-17.67 z"
             transform="translate(-445.5,-121.26)"
             id="path10101" /><path
             class="cls-10"
             d="m 703.24,226.39 c 1.6,-1.39 1.72,-5.76 4.93,-2.76 2.16,2 4.43,4.94 1.69,8.08 -2.74,3.14 -5.4,5.38 1.12,7.71 2.75,1 2.22,5.23 -0.26,7.46 -2.68,2.42 -3.25,4.52 -0.69,7.33 1.35,1.48 1.08,3.27 -0.18,4.83 -5.52,6.85 -5.2,15.41 -6.83,23.39 a 13.53,13.53 0 0 0 0,2.35 c 0,2.19 -0.11,4.87 -2.47,5.45 -3,0.75 -2.6,-2.71 -4.14,-4.65 a 6.15,6.15 0 0 0 1.14,9.07 c 4.43,3.27 2.82,6.25 0.07,8.5 -3.34,2.74 -4.31,5.52 -3.65,9.67 0.69,4.35 -4.19,6.67 -4.78,10.76 -0.11,0.77 -1.29,0.68 -1.9,0 a 3.22,3.22 0 0 1 -0.37,-3.87 c 3.65,-5.64 2.37,-12 1.54,-17.71 -0.72,-5 -3,-9.73 -0.75,-14.75 a 50.9,50.9 0 0 0 3.94,-26.84 c -1,-8 0.65,-14.71 1.88,-22 a 5.63,5.63 0 0 0 -0.28,-2.31 c -0.43,-1.58 -3.11,-3.14 -1.38,-4.55 2.08,-1.69 2.52,1.33 3.59,2.4 a 1.27,1.27 0 0 0 2,0.08 2.45,2.45 0 0 0 0.52,-2.73 c -3.94,-10.73 -1,-22.58 -5.39,-33.29 -0.69,-1.69 -1.16,-4.88 1.59,-5.55 2.59,-0.63 4.19,1.37 4.78,4 0.34,1.52 1.75,3.24 1.34,4.41 -1.92,5.51 -0.82,8.22 5.57,7.76 1.32,-0.1 1,1.53 0.48,2.78 -1.49,3.93 -1.14,8.49 -4.23,11.92 -0.64,0.78 -0.12,1.94 1.12,3.06 z"
             transform="translate(-445.5,-121.26)"
             id="path10103" /><path
             class="cls-10"
             d="m 672.72,186.7 c -0.35,-5.74 -3.13,-10.86 1.33,-15.6 0.57,-0.61 -0.27,-2.55 -0.47,-3.87 a 13.22,13.22 0 0 1 5.47,-13.4 c 1.71,-1.28 3.37,-1.36 4.49,0.56 1.12,1.92 0,2.91 -1.94,3.12 a 4.79,4.79 0 0 0 -4.3,4.89 c -0.25,5.37 -2.12,10.73 -0.82,16.09 0.91,3.76 -0.76,5.78 -3.76,8.21 z"
             transform="translate(-445.5,-121.26)"
             id="path10105" /><path
             class="cls-10"
             d="m 687,165.58 c 0.77,3.17 -1.8,3.32 -3.73,3.59 -2.26,0.32 -3.66,-0.95 -3.74,-3.34 -0.11,-3.6 3,-3.86 5.2,-4.27 3.46,-0.64 1.7,2.44 2.27,4.02 z"
             transform="translate(-445.5,-121.26)"
             id="path10107" /><path
             class="cls-10"
             d="m 715.75,428.66 c 3,0.22 3.49,2.53 3.7,5 0.19,2.15 -0.66,4.78 -2.83,4.12 -2.52,-0.77 -2.47,-4.37 -3.65,-6.66 -0.68,-1.36 1.16,-2.22 2.78,-2.46 z"
             transform="translate(-445.5,-121.26)"
             id="path10109" /><path
             class="cls-10"
             d="m 721.63,297.82 c -0.74,1.74 -1.85,3.31 -4.07,3.29 -1.51,0 -2.79,-1.05 -2.3,-2.58 a 4.18,4.18 0 0 1 4.39,-3 c 1.35,0.04 2.12,0.7 1.98,2.29 z"
             transform="translate(-445.5,-121.26)"
             id="path10111" /><path
             class="cls-10"
             d="m 698.13,497.61 a 2.42,2.42 0 0 1 -1.95,2.48 1.48,1.48 0 0 1 -1.89,-1.56 2.41,2.41 0 0 1 1.93,-2.5 c 1.18,-0.19 1.78,0.49 1.91,1.58 z"
             transform="translate(-445.5,-121.26)"
             id="path10113" /><path
             class="cls-10"
             d="m 692.08,174.73 c 1.9,1.77 1.67,3.66 0.7,6 -2.52,-1.96 -1.18,-4.07 -0.7,-6 z"
             transform="translate(-445.5,-121.26)"
             id="path10115" /><path
             class="cls-8"
             d="m 673.43,277.57 c -0.35,4.77 1.46,9.72 -1.15,14.32 0.02,-4.81 -0.51,-9.65 1.15,-14.32 z"
             transform="translate(-445.5,-121.26)"
             id="path10117" /></g></g></g></g><metadata
     id="metadata10599"><rdf:RDF><cc:Work
         rdf:about=""><dc:title>House Jordayne</dc:title></cc:Work></rdf:RDF></metadata><use
     id="shine-9"
     xlink:href="#shield"
     style="fill:url(#rg-9);stroke:#000000;stroke-width:3"
     transform="matrix(0.26458333,0,0,0.26458333,4.5e-6,3.9205935e-6)" /></svg>
