<?xml version="1.0" encoding="UTF-8" standalone="no"?>
<svg
   viewBox="0 0 483 527.48"
   version="1.1"
   id="svg16737"
   sodipodi:docname="House Mallister.svg"
   inkscape:version="1.2.1 (9c6d41e410, 2022-07-14)"
   xmlns:inkscape="http://www.inkscape.org/namespaces/inkscape"
   xmlns:sodipodi="http://sodipodi.sourceforge.net/DTD/sodipodi-0.dtd"
   xmlns="http://www.w3.org/2000/svg"
   xmlns:svg="http://www.w3.org/2000/svg">
  <sodipodi:namedview
     id="namedview16739"
     pagecolor="#ffffff"
     bordercolor="#000000"
     borderopacity="0.25"
     inkscape:showpageshadow="2"
     inkscape:pageopacity="0.0"
     inkscape:pagecheckerboard="0"
     inkscape:deskcolor="#d1d1d1"
     showgrid="false"
     inkscape:zoom="1.12203"
     inkscape:cx="169.33593"
     inkscape:cy="284.30612"
     inkscape:window-width="1920"
     inkscape:window-height="1017"
     inkscape:window-x="-8"
     inkscape:window-y="-8"
     inkscape:window-maximized="1"
     inkscape:current-layer="svg16737" />
  <defs
     id="defs16659">
    <style
       id="style16657">.cls-1,.cls-17{fill:#2f2e6a;}.cls-1{stroke:#000;stroke-width:3px;}.cls-2{fill:#e5e6e7;}.cls-3{fill:#88292a;}.cls-4{fill:#87282c;}.cls-5{fill:#87272a;}.cls-6{fill:#87292d;}.cls-7{fill:#882b2e;}.cls-8{fill:#88282b;}.cls-9{fill:#852930;}.cls-10{fill:#872a2f;}.cls-11{fill:#625a8f;}.cls-12{fill:#524c83;}.cls-13{fill:#f2f6f0;}.cls-14{fill:#a89ec0;}.cls-15{fill:#756b9d;}.cls-16{fill:#892727;}.cls-18{fill:#e9eaea;}.cls-19{fill:#f0f1ee;}.cls-20{fill:#edf0ec;}.cls-21{fill:#ebedeb;}.cls-22{fill:#eff2ed;}.cls-23{fill:#eff3ee;}.cls-24{fill:#f1f4ee;}.cls-25{fill:#eef0ed;}.cls-26{fill:#a59abe;}.cls-27{fill:#e1e1e5;}.cls-28{fill:#f4f6f1;}.cls-29{fill:#685e94;}.cls-30{fill:#49467d;}.cls-31{fill:#70629b;}.cls-32{fill:#7a6da1;}.cls-33{fill:#776c9e;}.cls-34{fill:#ebefeb;}</style>
    <radialGradient
       id="rg"
       gradientUnits="userSpaceOnUse"
       cx="220"
       cy="220"
       r="405"
       gradientTransform="matrix(0.80510068,0,0,0.80302287,-0.03016894,-0.89702436)">
      <stop
         style="stop-color:#ffffff;stop-opacity:.3"
         offset="0"
         id="stop753" />
      <stop
         style="stop-color:#ffffff;stop-opacity:.2"
         offset=".2"
         id="stop755" />
      <stop
         style="stop-color:#666666;stop-opacity:.1"
         offset=".6"
         id="stop757" />
      <stop
         style="stop-color:#000000;stop-opacity:.13"
         offset="1"
         id="stop759" />
    </radialGradient>
  </defs>
  <title
     id="title16661">House Mallister</title>
  <g
     id="Layer_2"
     data-name="Layer 2">
    <path
       class="cls-1"
       d="M927,122.76V328.6a314.37,314.37,0,0,1-2.28,38c-.11.93-.24,1.86-.36,2.79s-.24,1.86-.39,2.79q-.7,5.05-1.61,10c-.07.44-.15.87-.23,1.31-.15.8-.29,1.6-.45,2.39s-.34,1.8-.51,2.69l-.45,2.22-.24,1.16c-.15.71-.3,1.44-.47,2.15q-.8,3.55-1.61,7l-.58,2.32-.52,2q-1.52,5.88-3.27,11.61c-.29,1-.59,1.94-.9,2.92l-.6,1.88c-.19.63-.39,1.25-.6,1.86l-1.1,3.26c-.37,1.09-.68,2-1,3-.47,1.28-.92,2.55-1.39,3.81-.36,1-.73,2-1.11,3l-.19.49c-.43,1.14-.87,2.25-1.32,3.37s-.87,2.16-1.32,3.19a3.35,3.35,0,0,1-.18.42c-.4,1-.8,2-1.25,3s-.75,1.75-1.13,2.62l-.66,1.49c-.47,1.07-.95,2.12-1.44,3.15s-.9,2-1.36,2.93l-1,2.12c-.3.63-.6,1.25-.91,1.88-.63,1.32-1.31,2.64-2,4q-2.53,5-5.19,9.77l-2,3.57-.11.21q-2.13,3.71-4.33,7.33c-.71,1.2-1.46,2.39-2.18,3.54-.1.16-.19.31-.3.46-.55.89-1.12,1.78-1.69,2.66l-.66,1c-.65,1-1.31,2-2,3l-.13.18c-.66,1-1.32,2-2,3l-.45.67q-2.26,3.28-4.54,6.46l-.31.42c-.8,1.07-1.54,2.14-2.31,3.19s-1.66,2.23-2.5,3.32q-2.29,3-4.61,6l-.8,1c-.73.93-1.48,1.85-2.22,2.76L854,526.61l-.57.69L851,530.1q-2.83,3.32-5.72,6.53c-.75.85-1.52,1.69-2.29,2.51l-2.22,2.39q-3,3.19-5.93,6.24-2.76,2.83-5.53,5.59c-.91.91-1.84,1.82-2.76,2.71s-1.85,1.78-2.78,2.67l-2.28,2.11c-.68.65-1.36,1.28-2.05,1.91a448.64,448.64,0,0,1-61.76,47.47c-.86.55-1.73,1.1-2.58,1.6q-6.42,4.07-12.46,7.63l-2.41,1.4-2.36,1.36-2.34,1.35-2.22,1.28c-8.35,4.68-15.91,8.59-22.38,11.76l-1.61.8c-10.63,5.15-18.11,8.22-21,9.35l-.42.18-.61.23-.14.06h-.08l-.23-.1-.21,0-1.07-.42-.55-.23c-.87-.34-2-.8-3.36-1.38l-.47-.18c-1.76-.8-3.88-1.67-6.33-2.77l-1.39-.61a443.16,443.16,0,0,1-39.74-20.6c-.8-.45-1.61-.92-2.36-1.38a473.14,473.14,0,0,1-44.78-30l-2.62-2c-1-.75-2-1.52-2.95-2.29l-2.81-2.21c-6.19-4.92-12.43-10.15-18.64-15.69L558.08,566q-2.3-2.05-4.59-4.2l-1.67-1.57L550,558.54l-2-1.94c-1.12-1.07-2.24-2.16-3.34-3.26-.84-.8-1.69-1.67-2.52-2.51l-.24-.26q-1.25-1.25-2.5-2.51c-.66-.68-1.32-1.36-2-2l-2-2.07-.13-.15-2.1-2.24q-3.36-3.61-6.66-7.36c-.68-.8-1.36-1.55-2-2.35-.57-.65-1.12-1.28-1.66-1.94l-2-2.39q-4.26-5.11-8.39-10.48-1.13-1.45-2.24-2.92c-1.89-2.47-3.73-5-5.57-7.55l-1.68-2.39c-.13-.16-.24-.34-.36-.5-.59-.85-1.19-1.7-1.77-2.55-.95-1.38-1.89-2.77-2.82-4.17q-1.11-1.64-2.18-3.31l-.15-.24-2.22-3.47c-.07-.13-.15-.24-.22-.37-.71-1.14-1.41-2.27-2.1-3.4s-1.49-2.46-2.21-3.7-1.44-2.39-2.13-3.67q-4.6-8-8.77-16.47c-.35-.69-.69-1.38-1-2.08-.22-.44-.44-.89-.65-1.35-.43-.87-.8-1.75-1.25-2.63a27.17,27.17,0,0,1-1.15-2.47l-.23-.48c-.26-.58-.52-1.16-.8-1.75l-.26-.57c-.26-.58-.52-1.18-.8-1.77q-1.44-3.26-2.78-6.58c-.42-1-.8-2-1.23-3.07-.1-.26-.21-.53-.31-.8-.4-1-.8-2-1.16-3s-.68-1.82-1-2.74l-.23-.65c-.18-.45-.34-.91-.5-1.36q-1-2.69-1.89-5.44c-.21-.6-.4-1.21-.6-1.8-.26-.8-.51-1.54-.75-2.31-.14-.42-.26-.8-.39-1.22-.26-.8-.5-1.6-.75-2.39-.31-1-.61-2.06-.92-3.1-.18-.65-.39-1.28-.57-2-.37-1.28-.74-2.58-1.08-3.89-.19-.68-.37-1.35-.55-2-.13-.5-.26-1-.39-1.51-.32-1.22-.63-2.46-.92-3.7-.18-.7-.35-1.4-.52-2.11-.07-.29-.13-.57-.19-.85-.37-1.55-.71-3.11-1.07-4.69-.26-1.16-.5-2.33-.74-3.5-.14-.71-.29-1.43-.43-2.14s-.32-1.6-.47-2.45a2.13,2.13,0,0,0-.1-.47c-.15-.8-.3-1.64-.45-2.48s-.31-1.84-.47-2.77-.3-1.8-.45-2.71q-.87-5.52-1.56-11.17A314.73,314.73,0,0,1,447,328.58V122.76Z"
       transform="translate(-445.5 -121.26)"
       id="path16663" />
  </g>
  <g
     id="Layer_3"
     data-name="Layer 3">
    <path
       class="cls-2"
       d="M760.44,264.55c8.72,3.56,15.71,2.39,21.47-6,2.49-3.64,7.71-3.58,12.26-2.9,6.43,1,12.53-5.94,10.94-12.14-.38-1.47-1-2.49-2.46-2.73-8-1.33-14.19-6.33-20.61-10.67a22.69,22.69,0,0,0-18.88-3.29c-1.74,1.76-1.15,3.7-.4,5.64l2.17,1.48c-2.41,2.76-5.29,1.15-8,.85-3.71-.4-4.6-3.2-4.43-6.1s2.07-4.55,4.89-5.53c11.37-4,20.75.83,30,6.47,4.25,2.58,8.62,5,13.51,6.11s9.41.67,13.1-3.6c-.72-.54-1.28-1-1.9-1.42-5.6-3.63-10.25-8.06-8.15-15.41s7-12.38,14.62-13.79a68,68,0,0,1,19.38-.92c7.12.74,12.64-3.5,18.47-6.64,1.24-.67,2.32-2.63,3.93-1.33,1.41,1.14.38,2.86,0,4.29-.94,4-3.78,6.55-6.85,8.88-2.1,1.59-4.33,3-7.62,5.28,9.9.74,18.15-1.62,28-3.55-7.9,9.74-17,13.24-28.81,14.36,8.19,5.79,16,7.48,24.17,8.31,2.84.29,5.73.2,8.58.44,1.7.15,3.91.37,4.16,2.34.3,2.3-2.15,2.32-3.67,2.76-10.73,3.15-21.52,5.18-32.58,1.37-1-.34-2.21,0-3.77,0,7.89,11,20,13.91,31.23,18.27,3.55,1.38,7.21,2.45,10.79,3.78,1.24.46,2.64,1.25,2.37,2.81-.23,1.35-1.76,1.18-2.83,1.44-13.46,3.35-26.11.44-38.4-5-3.24-1.44-6.37-3.12-10.74-5.28a109.32,109.32,0,0,0,17,24.78c7.65,8.63,16.65,15.69,25.95,22.42,2.09,1.52,5.76,3.25,4.3,5.8-1.12,2-4.76-.2-6.94-1.27-13.85-6.8-28.3-12.59-40-23.12a2.5,2.5,0,0,0-3.14-.6c7.3,12.07,17.76,21.2,27.55,31.1C845.44,310,835.2,300.89,822.2,294c11.73,28.43,32.13,49,47.8,73.19-4.24,1.13-6.95-1-9.25-2.8-9.76-7.8-21.3-13.47-28.28-24.69-1.94-3.12-6.48-4.53-9.63-7-8.73-6.81-14.15-16.45-21-24.84-.85-1-1.63-2.12-2.44-3.18-2.71-.37-1.54,1.17-1.14,2.32,6.66,13.92,15.1,26.86,22.44,40.4.54,1,1.15,2,1.68,3s1.88,2.47.78,3.61c-1.44,1.5-2.75-.2-3.9-1-14.52-9.58-26.64-21.46-35-36.91-.49-.9-.72-2.27-2.9-2.11l18.49,64a80.84,80.84,0,0,0,18.92,36.53c-3.87,1.1-5.45-.84-7.13-2.53-7.58-7.59-13.88-16.23-20.24-24.81-5.71-4.24-8.47-10.74-11.91-16.53-7.4-12.44-14.14-25.28-19.13-38.95-.16-.45-.31-.7-.62-.64a39.17,39.17,0,0,1,3.91,12.6,123.34,123.34,0,0,0,11.68,34.55,74.25,74.25,0,0,1,4.15,11.26,3.1,3.1,0,0,1-.88,3.65c-1.42,1-2.91.64-4.24-.3a13.09,13.09,0,0,1-3.93-4.85c-8.11-15.75-16.41-31.41-23.28-47.76a14.13,14.13,0,0,1-.61-2.14c-.24.52.12,1,.24,1.4.28,1.09,1,2,1.21,3.15a344.71,344.71,0,0,1,10.45,54.45c.7,6.16,4.35,11.4,4.52,17.58.79,1.92,1.64,3.83,2.37,5.78.66,1.75,1.87,3.75.26,5.33s-3.5-.11-5.2-.72c-2.29-.75-3.82-2.42-5.23-4.25-11.58-15-20.13-31.31-23.18-50.32-1.71-10.69-4.68-21.16-7-31.74.05-1.23-.27-2.48-.16-3,.33,1.93-.35,4.65,1.13,7.17,1.23,7.92,3.07,15.76,3.75,23.75.27,3.1,1.63,7.79-3.16,8.53s-4.86-3.83-5.48-7.13c-1.19-6.29-4-11.91-6.88-17.54-2.68-5.27-5.4-10.52-7.94-15.94-.17,6.88-1.54,13.51,4,19.87,5.87,6.8,8.05,15.19,3,23.94-1.76,3.08-1.11,5.7,1.29,8.29,5.57,6,10.3,12.79,15.61,19.06,1.56,1.85,2.83,3.69.88,6.07s-.67,4.3.72,6.22c4.48,6.19,9,12.29,14.56,17.65,6.45,6.24,13.42,9.38,22.26,5.41a5.64,5.64,0,0,1,3.37-.4c8-3.41,14.29-9.34,20.89-14.75,3.54-2.9,6.7-3.34,9.9.28,3.34,3.15.12,6.15-.2,9.21,3.45,4.88.68,7.18-3.68,8.76a62.7,62.7,0,0,0-7.52,3c7.8,1.12,16.05.9,20.84,8.75-.12,3.63-5.38,3.19-5.43,6.87.46,4.13-1.81,5-5.26,4.32-5.59-1.18-11.17-2.43-16.73-3.71a24.53,24.53,0,0,0-11.17-.11c4.74,3.07,8.16,6,13.4,5.13a17.29,17.29,0,0,1,14.36,4.12c3.85,3.22,4.95,6.63,1.52,10.77a1.83,1.83,0,0,1-1,.37c-2.6.13-4.12-3.34-6.78-2.33-3.18,1.2,1,4.72-1.62,6.31-8,2-13.9-2.15-18.74-7.29-5.31-5.63-11.1-9.64-18.78-10.88-2.73-.44-4.82-2.09-6.7-4.1-1.69-1.81-3.6-3.56-6.16-3.92-3.28-.45-6.23,0-4.35,4.47a5.38,5.38,0,0,1,.07,4.81c-1,3.43-3.48,4.75-6.92,4.54-11.24.74-15.56-2-18.57-11.75-3.24-10.51,4.19-18.86,15-17,2.39.4,4.69,1.76,7.85.89-7.8-9.18-15.37-18.13-23-27-1.45-1.69-3-.59-4.69,0-5.44,1.84-7.29.56-7.48-5.32-.16-4.75-2-8.86-4.09-13-1.64-3.23-3.17-2.07-4.33.08a20.52,20.52,0,0,0-2,5.93c-2,10.78-1.57,21.67-1.15,32.54.17,4.4,3,7.71,5.46,11.14,3.89,5.45,3.35,7.48-1.9,11.2-2.82,2-8,1.86-8.13,6.31-.27,7.88-2.44,16,1.83,23.59,1.92,3.38,4.74,5,8.71,5.59,10.72,1.59,20.34-1.75,29.94-5.71,7.23-3,14.41-6.18,21.84-8.57,12.86-4.14,25.41.53,30.5,10.76-1.63,1.58-3.76.61-5.6,1.07-4.38-1.06-7.58-.05-9.46,4.53-2.55,6.23-8,6.37-13.51,5.54a42.59,42.59,0,0,1-7.14-2c-3.33-1.12-5.29-.27-6.53,3.26-3.31,9.44-5.28,10.08-14,5.25-7.27-4-7.27-4-12.15,2.69-7,9.58-7,9.58-18,3.19-1.37,1.45-1.29,3.4-1.48,5.16-.8,7.31-5.63,11.9-10.88,16.14-2.82,2.27-5,.91-6.5-1.8-.62-1.13-.64-2.57-1.07-3.83-3.47-10.21-4.47-11.09-14.83-10.16-5.19.47-7-2.44-8.79-6.36-3.53-7.89-3.63-7.84-11.66-4.49-7.29,3-9.46,2.26-13.26-4.74-3.89-7.17-3.89-7.17-11.64-4.71-9.63,3.06-12,2.23-16.77-6.85-1.79-3.42-4.26-2.27-6.84-2.1s-6.68,2.12-7.66-1.21c-1.05-3.59,3.26-4.71,5.93-5.65,10.14-3.58,20.32-2.82,30.27.85,12.07,4.46,24.29,8,37.35,7.43a28.8,28.8,0,0,0,7.91-1c7.11-2.36,9.1-5.09,8.83-12.48-.11-3.05-.44-6.11-.37-9.15.1-4.5-.62-8-5.76-9.72-4-1.33-5-5.14-2.49-8.38,9.47-12,8.69-25.52,6.65-39.35a51,51,0,0,1-.31-12c.15-1.7,1.85-4-.71-5-2.33-.89-4.7.45-6.15,2.17-4,4.73-6.9,10.06-7.33,16.44-.06,1,.09,1.93-.06,2.86-.26,1.59,1.1,3.71-.89,4.68-1.83.89-3.08-1-4.48-1.85s-2.19-2.58-4.24-.57c-8.69,8.51-17.57,16.83-26.38,25.23l1,1.58c3.47.59,6.94,1.13,10.4,1.76,8.14,1.49,13.69,6.07,17,13.71,1.58,3.65.76,6.24-2.11,8.54-5.83,4.68-12.34,6.71-19.78,5-4.26-.78-7-2.59-5-7.52.69-2.37,1-4.83,2.65-6.88,1.13-1.44,2.92-3,.88-4.91s-4.32-1.39-6.25.15c-1.77,1.41-3.18,3.25-4.87,4.77a26.53,26.53,0,0,1-13.89,6.25c-2.9.48-6,1.16-7.18,4-4.15,10.39-12.28,10.59-21.32,8.82-3.65-.52-7.08-1.34-7.79-5.8-.16-4.31,2.19-6.56,6.16-7.43,4.4-1,8.8-1.91,12.9-3.87.21-.4,1.18-.55.69-1.11s-1.3-.39-2-.13c-1.68.33-3.4.56-5,1-6.75,1.86-13.13,1.77-18.61-3.34-2.53-1.15-5.42-2-5-5.72,3.46-8.31,7.58-9.9,19.52-7.53.63.18,1.4.41,1.84-.08s-.39-.79-.58-1.21c-2.92-1.37-5.9-2.64-8.75-4.14-3.24-1.71-5.19-4-2.52-7.73,1.38-2.66-1.32-5.25-.13-7.91,4.59-4.27,8.4-3.89,11.9,1.62a38.43,38.43,0,0,0,16.78,14.56,4.52,4.52,0,0,1,2.81-.3c8.69,2.88,14.73-.6,20.56-7.07,6-6.64,11.91-13.39,18.16-19.82,3.47-3.57,3-4.59-1.7-5.73-2.09-.51-4.42-.82-4.65-3.42s2.19-3.39,4-4.28A37.11,37.11,0,0,0,644,388.33a10,10,0,0,0,.89-8.72c-4.16-12.62-2-18.86,9.22-26.2,2.7-1.77,3.53-3.66,2.71-6.67-1-3.65-1.92-7.33-3-11.15-4,9.63-9.36,18.59-12.17,28.63a92.44,92.44,0,0,1-5,14.59c-1,2-2,4.72-4.79,4.06s-2.58-3.69-2.14-5.79c2.76-13.22,5.67-26.41,8.78-39.36a158.88,158.88,0,0,0-9.36,42.61c-.35,4.71-1.26,9-3.66,13-6.49,10.79-12.7,21.76-20.31,31.83-1.5,2-3,4-5.36,5-3.76,1.6-6.21.15-6.95-4C596.72,418,600.94,410,602.87,401c4.42-20.65,10.62-40.89,14.45-61.68.66-1.46.35-3,.21-4.46a8.33,8.33,0,0,1,.62-1.79c.24-.72-.09-1,0-.25s-1,.13-.24.4a11.8,11.8,0,0,1-1.83,2.4c-6,13.16-9.68,27.25-16.55,40a72.34,72.34,0,0,1-13.61,18.21c-1.74,1.67-3.48,3.45-7.91,3,14.87-18,22.48-38.37,26.68-60.14.77-2.88.67-3.14-1.17-3.27-12.67,26.14-29.58,49.31-49.44,70.38-5.36,5.68-9,7.6-14.87,8.49,3.39-7,10.09-10.93,13.88-17.12,3.19-2.34,4.6-5.9,6.47-9.19,9.3-16.36,14.2-34.32,19.35-52.22,2.52-8.74,5.54-17.33,8.33-26a1.46,1.46,0,0,1,.61,1.37c-.75-.12-.08,1.28-.12.76a11,11,0,0,0-.15-5.31l-.71-4.95c-8.18,18.8-20,33.56-33.21,47.37-2.1,2.2-4.16,4.5-7.53,4.67a3.42,3.42,0,0,1-2.7-2.59c12.41-12.9,17.61-29.82,25.36-45.4a284.65,284.65,0,0,1-19.64,22.71Q536.92,339,524.33,351.05c-4.76,4.59-10.7,7.26-17,9.07a11.54,11.54,0,0,1-7.83,0c17.67-11.45,28-27.88,35.72-46.38,3.56-8.56,8.18-16.59,12.76-24.8-5.86,5.15-11.69,10.11-18.41,13.89-5.31,3-10.4,6.36-16.42,7.92-2.55.66-4.82.84-7.51-1.37,12.6-5.45,22.26-13.66,27.32-27L512,293c-5.79,2.93-11.63,5.79-18.06,7.05-1.68.33-4.25,1.3-4.93-1-.55-1.9,1.8-2.66,3.36-3.25,20.15-7.59,29.78-24.92,39.42-42.68-14.3,7.48-29,9.84-44.51,5.42,10.79-1.67,19.5-7.65,28.67-12.6,3-1.61,5-4.06,7-6.62,2.49-3.17.13-3.23-2.1-3.42a28.1,28.1,0,0,0-12.62.09c-6,.48-11.72.11-16.55-5.27,10.07-3.69,21.24-1.37,31.08-7.87-10.67-3.4-20.7-6.1-26.59-16.95,9.09,2.32,17.41,4,26.94,3.16-5.48-4.35-10.46-8.06-14.19-13-1.17-1.56-3.5-3.35-1.93-5.4,1.76-2.31,4-.25,5.52.86,8.35,6,17.83,7.21,27.73,7.11,2.83,0,5.72-.54,8.5.47-5.63,1.6-11.38.26-17.05.83,6.32-.48,12.68.62,19-.6,10.33,2.43,15,10.82,11.41,20.62-.72,2-1.66,3.84-2.45,5.78s-2.16,3.89-.51,5.87c1.86,2.24,4.49,2,6.86,1.16,8.2-3.07,16.33-6.31,24.48-9.49,7.11-2.77,13.73-2.57,19.62,3,5.38,5.07,4.81,8.5-2.12,11.84-1.88-.1-3.75,0-5.63-.05-1.63-.41-3-1.35-2.58-3.11s2.18-1.14,3.43-1.14c2.85,0,5.22-1,4.92-4.14s-2.81-4.17-5.89-4.05c-8.28.33-15.22,4.62-22.61,7.55-3.16,1.25-6,3.24-9.48,3.78a19,19,0,0,0-6.78,0c-2.62.29-4.56-1.58-6.9-2.19-1.76.06-2.71-2.13-5-1.63.19,2.35,3.51,2.25,3.6,4.47,2.12,2.29,3.62,4.67,3.43,8.1s6.31,8.85,9.79,8c6.85-1.71,11.78,1,14.91,6.59,3.3,5.86,10.34,4.24,14.41,8.21.16.16,1-.28,1.47-.56,7.23-4.55,13-1.88,18.28,3.59,6.17,6.41,7,6.36,13.58-.14,1.33-1.32,2.63-2.78,4.63-3.16,2.27-.1,4.55.08,6.82-.1l4.69,1.78c6.61-1.06,7.31-1.85,5.61-6.32A90.13,90.13,0,0,0,636.32,253a23.26,23.26,0,0,0-8.25-2.19c-2.16-.16-4.23-.17-5.78,1.66-2,2.36,2,2.92,1.19,5.22-4.14.76-7.61-.79-8-5.28s3.34-6.07,7.37-6a36.38,36.38,0,0,1,21.29,7.22c4,2.83,7.6,6.54,13.11,6.13a125.74,125.74,0,0,0,28.26-10.31c5.28-2.66,10.47-5.44,14.51-9.89,1.7-1.86,3.46-4,1.92-6.57-1.3-2.16-3.76-1.24-5.77-1-6.45.91-12.52,3.1-18.53,5.49-2.11.84-4.22,1.82-6.6,1-11,4.15-21.79,5.57-32.23-1.48-.06-2.06,1-2,2.38-1.23,9.26,1.67,17.68-1,25.88-4.93,4.28-2,8.63-3.94,13-5.9,6.72-5.32,14.89-7.4,22.77-10.14,1.24-.43,2.68-.15,4.28-1.46-4.66-7.3-12.23-8.93-19.84-10.37-2.39-.45-5,.1-7.09-1.66-15.21-1.51-28.87,2.74-41.51,11-3.15,2.06-6.24,4.33-10,5.24-1-.15-2.08-.26-2.61-1.36,6.36-9.34,11.47-19.9,24.3-22.44,3.78-.75,6.63-3.71,8.66-7.07a17.67,17.67,0,0,1,14.49-9c8.3-.44,14.4-4.07,19.6-10.1,2.23-2.58,4.8-4.9,7.72-.62,1.12,4.27,3.57,4.85,7.13,2.63a21.33,21.33,0,0,1,3.61-1.7c1.88-.72,3.69-2.53,5.84-1s1.62,3.66,1,5.73c-.83,2.57.29,3.54,2.77,3.44a7.25,7.25,0,0,1,1.14.07c2.8.34,6.62-.2,7.63,2.73,1.08,3.13-3.27,3.49-4.84,5.44-.35.44-.74.84-1.48,1.69,2.87,1.25,5.52,2.48,8.22,3.57,3.49,1.41,4,3.69,1.19,5.92-3.76,2.94-1.91,4.8.51,7.14,2.64,2.55,5.54,5.24.22,8.29-1.83,1-1.24,3-.26,4.59,2.92,4.67,2.91,9.8,2.3,15-.24,2.06.77,5.9-3.84,3.56-1.45-.74-1.47.58-1.44,1.47,0,1.33.25,2.66.34,4,.15,2.05,1.1,4.61-.85,5.89-2.18,1.43-3.73-.94-5.37-2.14-1.38-1-2.87-2.56-4.55-1.86-2,.82-1,3.06-.89,4.56.63,7-.78,12.42-8.68,14.38-2.7.67-3.26,3.85-5.13,6.76,9.2-2.4,16.91-5.68,22.09-13.19a55,55,0,0,1,9.79-11.15c5.46-4.57,13.58-3.65,17.2,1.75,1.41,2.1,1.75,4.24.24,6.39-1.37,1.95-3.39,2.37-5.6,1.9a4.09,4.09,0,0,1-3.39-2.77c-.52-2.08,1.56-1.62,2.59-2.18s2.11-1.24,1.48-2.61-1.82-1.08-3-.93c-4.87.63-7.81,4.25-10.28,7.69-6.64,9.23-14.76,15.85-26.25,17.76-1.28.21-2.91.51-2.44,2.41.4,1.61.45,3.61,2.06,4.51s2.56-.56,3.32-1.55c5.07-6.56,11.26-5.81,18-3.23,10.41,4,10.45,3.84,17.75-4.15,1.56-1.71,3.21-3.3,5.78-3.2A8.4,8.4,0,0,0,760.44,264.55Z"
       transform="translate(-445.5 -121.26)"
       id="path16666" />
    <path
       class="cls-3"
       d="M793.33,487.73c-.35-1.25-.69-2.5-1.07-3.75-.65-2.14.24-3.68,2-4.78s2.86,0,3.89,1.14a9.67,9.67,0,0,0,4.66,3c1.62,4.49.58,8.76-1,13.81C799,493.36,797.1,489.65,793.33,487.73Z"
       transform="translate(-445.5 -121.26)"
       id="path16668" />
    <path
       class="cls-4"
       d="M561.31,477.47c2,2.79,5.05,4.06,7.79,5.8-7,1.95-11.58,7.2-17,13.79C552.09,487.8,555.79,482.2,561.31,477.47Z"
       transform="translate(-445.5 -121.26)"
       id="path16670" />
    <path
       class="cls-5"
       d="M802.45,435.49c-1.51-3.1,1.69-6.11.2-9.21,5.51-.61,10.62.41,14.95,4,1.29,1.09,2.77,2.76,1.73,4.36-.91,1.41-2.76.41-4.17-.18C810.76,432.66,806.42,431.72,802.45,435.49Z"
       transform="translate(-445.5 -121.26)"
       id="path16672" />
    <path
       class="cls-6"
       d="M806.66,462.87c-1.54-2.33-1.53-4.11,1.67-4.8a5.8,5.8,0,0,0,3.76-2.06c5.33,3.72,8.82,8.28,7.5,15.9C814.92,468.55,812.8,462.73,806.66,462.87Z"
       transform="translate(-445.5 -121.26)"
       id="path16674" />
    <path
       class="cls-7"
       d="M559.8,428.28c1.06,2.62,4.23,5.21.13,7.91-4.16-3-9.33-3-14.37-4.81C550.18,428.66,554.95,428.3,559.8,428.28Z"
       transform="translate(-445.5 -121.26)"
       id="path16676" />
    <path
       class="cls-8"
       d="M550.41,456.89l5,5.72c-5.32.84-10.22,3.17-16,5.34C542,462.12,545.25,458.54,550.41,456.89Z"
       transform="translate(-445.5 -121.26)"
       id="path16678" />
    <path
       class="cls-9"
       d="M731.75,475.36l6.92-4.54,9.12,6.31C741.69,478,736.54,478.77,731.75,475.36Z"
       transform="translate(-445.5 -121.26)"
       id="path16680" />
    <path
       class="cls-10"
       d="M619.08,471c-.2,3.77,2.15,5.83,5,7.52-6.41,1.14-11.21-1.19-15.26-7C612.68,470.95,616,472.78,619.08,471Z"
       transform="translate(-445.5 -121.26)"
       id="path16682" />
    <path
       class="cls-11"
       d="M579.07,464.94l6-2.25c-1,3.22-2.91,3.24-4.74,3.48Z"
       transform="translate(-445.5 -121.26)"
       id="path16684" />
    <path
       class="cls-12"
       d="M616.05,335.63l1.22-3.37c2.24-.09,1.39,1.38,1.26,2.49l-1.21,4.59C616.86,338.11,617.45,336.53,616.05,335.63Z"
       transform="translate(-445.5 -121.26)"
       id="path16686" />
    <path
       class="cls-13"
       d="M771.94,496.05c1.59-1.82,3.72-.81,5.6-1.07C776.34,498.83,773.95,496.43,771.94,496.05Z"
       transform="translate(-445.5 -121.26)"
       id="path16688" />
    <path
       class="cls-14"
       d="M603.49,333.5c.06-.83.79-1.87,1.22-1.55,2,1.49,1,3.21,0,4.82C604.17,335.72,604.94,334.22,603.49,333.5Z"
       transform="translate(-445.5 -121.26)"
       id="path16690" />
    <path
       class="cls-15"
       d="M571.19,448.06c1.17.24,3.12.63,2.48,1.81s-2.57.55-3.74-.52Z"
       transform="translate(-445.5 -121.26)"
       id="path16692" />
    <path
       class="cls-16"
       d="M674.4,219.76c-7.64,3.23-14.52,8.21-22.88,9.78-8.87,1.67-16.62-.32-24.24-7.06,7.21-1,13.61.7,19.39-2.38,2.83-1.51,6.19-2.23,8.71-4.1,8.79-6.53,18.74-8.75,29.39-8.83,5.67-1.93,10.75,0,15.66,2.57a2.46,2.46,0,0,1,1.47,2.79,1.6,1.6,0,0,1-1.76,1.16C690.73,212.22,683.05,218,674.4,219.76Z"
       transform="translate(-445.5 -121.26)"
       id="path16694" />
    <path
       class="cls-17"
       d="M652.64,263.48c1.3,1,5.15.89,2.9,3.6-1.84,2.21-4.1,7-8.51,2.72Z"
       transform="translate(-445.5 -121.26)"
       id="path16696" />
    <path
       class="cls-17"
       d="M555,237.48c-1-.47-2.06-.88-3-1.41-1.23-.67-3.22-.56-3.45-2.33-.2-1.49,1.3-2.08,2.45-2.69,2.14-1.14,3,.64,4.07,1.82a21.68,21.68,0,0,1,1.33,1.77Z"
       transform="translate(-445.5 -121.26)"
       id="path16698" />
    <path
       class="cls-18"
       d="M550.62,199.21c-6.8,2.52-13.72.24-20.56,1.26l0-1.49h18.66Z"
       transform="translate(-445.5 -121.26)"
       id="path16700" />
    <path
       class="cls-19"
       d="M508.2,235.9a14.85,14.85,0,0,1,12.62-.09A45.36,45.36,0,0,1,508.2,235.9Z"
       transform="translate(-445.5 -121.26)"
       id="path16702" />
    <path
       class="cls-20"
       d="M642.34,268a5.48,5.48,0,0,1-6.82.1A6.48,6.48,0,0,1,642.34,268Z"
       transform="translate(-445.5 -121.26)"
       id="path16704" />
    <path
       class="cls-21"
       d="M543.41,349.2a4.36,4.36,0,0,1,2.7,2.59c-1.47,1-3.35,1.74-4.49.29C540.64,350.84,542.34,349.91,543.41,349.2Z"
       transform="translate(-445.5 -121.26)"
       id="path16706" />
    <path
       class="cls-22"
       d="M602.29,237.93a4.24,4.24,0,0,1,5.63.05A4.87,4.87,0,0,1,602.29,237.93Z"
       transform="translate(-445.5 -121.26)"
       id="path16708" />
    <path
       class="cls-23"
       d="M563.29,236.83a5.6,5.6,0,0,1,6.78,0A7,7,0,0,1,563.29,236.83Z"
       transform="translate(-445.5 -121.26)"
       id="path16710" />
    <path
       class="cls-24"
       d="M626,216.26c1,.11,2.07.28,2.61,1.36-.94.77-2.05,1.25-3.06.45C625,217.59,625.28,216.72,626,216.26Z"
       transform="translate(-445.5 -121.26)"
       id="path16712" />
    <path
       class="cls-25"
       d="M587.56,304.7c1.23,1.13.93,2.6.84,4,0,.66-.51.76-.9.2a3.26,3.26,0,0,1-.28-1Z"
       transform="translate(-445.5 -121.26)"
       id="path16714" />
    <path
       class="cls-26"
       d="M641.23,235.83c-.86.28-1.94.14-2.38,1.23-1.07-.17-2-1.18-1.39-1.78C638.67,234,640.08,234.84,641.23,235.83Z"
       transform="translate(-445.5 -121.26)"
       id="path16716" />
    <path
       class="cls-27"
       d="M756.91,234.74c2.66-.43,5.49.77,8-.85,1.63,2.93-1.18,2-2.07,2.07C760.82,236.14,758.64,236.35,756.91,234.74Z"
       transform="translate(-445.5 -121.26)"
       id="path16718" />
    <path
       class="cls-28"
       d="M760.44,264.55c-1.88,1.66-3.77,1.62-5.69.06A6.91,6.91,0,0,1,760.44,264.55Z"
       transform="translate(-445.5 -121.26)"
       id="path16720" />
    <path
       class="cls-27"
       d="M762.76,232.41c-1.6-2-2.07-3.92.4-5.64C761.92,228.58,762.52,230.51,762.76,232.41Z"
       transform="translate(-445.5 -121.26)"
       id="path16722" />
    <path
       class="cls-29"
       d="M798.23,307c-1.09-1.32-2.07-2.85-.46-4.2.53-.44,1.33,1,1.6,1.87C798.37,305.15,798.46,306.16,798.23,307Z"
       transform="translate(-445.5 -121.26)"
       id="path16724" />
    <path
       class="cls-30"
       d="M670.59,187.72c2-.24,2.81.39,2.56,1.85-.52,3.11-2,5.32-5.54,5.36-1.26,0-3.3.25-3-1.55C665.21,190,668.48,189,670.59,187.72Z"
       transform="translate(-445.5 -121.26)"
       id="path16726" />
    <path
       class="cls-31"
       d="M725.81,338.07c-1.39,1.29-.42,3.14-1.08,4.6-1.31-2.59-1.08-5.35-1-8.54C725.84,335,725.87,336.51,725.81,338.07Z"
       transform="translate(-445.5 -121.26)"
       id="path16728" />
    <path
       class="cls-32"
       d="M618.53,334.74c-.27-.91-.23-2-1.26-2.49l1.36-3.35C620.11,331.27,619.48,333,618.53,334.74Z"
       transform="translate(-445.5 -121.26)"
       id="path16730" />
    <path
       class="cls-33"
       d="M747.76,339.1c-1.09.45-.91,1.56-1.25,2.4-1.32-1.4-1.07-3.1-1.12-5C747.21,336.72,747.55,337.86,747.76,339.1Z"
       transform="translate(-445.5 -121.26)"
       id="path16732" />
    <path
       class="cls-34"
       d="M669.47,195.49c-1.82,2-3,1-4.91,1.58C666.36,195.13,667.58,196.14,669.47,195.49Z"
       transform="translate(-445.5 -121.26)"
       id="path16734" />
  </g>
  <path
     id="shine"
     d="M 1.5800322,0.70902164 V 207.0859 c 0,229.66454 239.9200078,319.6031 239.9200078,319.6031 0,0 239.92,-89.93856 239.92,-319.6031 V 0.70902164 Z"
     style="fill:url(#rg);stroke:#000000;stroke-width:2.41218" />
</svg>
