<?xml version="1.0" encoding="UTF-8" standalone="no"?>
<svg
   id="Layer_2"
   data-name="Layer 2"
   viewBox="0 0 483 527.48"
   version="1.1"
   sodipodi:docname="House Manderly GoT.svg"
   inkscape:version="1.2.1 (9c6d41e410, 2022-07-14)"
   xmlns:inkscape="http://www.inkscape.org/namespaces/inkscape"
   xmlns:sodipodi="http://sodipodi.sourceforge.net/DTD/sodipodi-0.dtd"
   xmlns="http://www.w3.org/2000/svg"
   xmlns:svg="http://www.w3.org/2000/svg">
  <sodipodi:namedview
     id="namedview40225"
     pagecolor="#ffffff"
     bordercolor="#000000"
     borderopacity="0.25"
     inkscape:showpageshadow="2"
     inkscape:pageopacity="0.0"
     inkscape:pagecheckerboard="0"
     inkscape:deskcolor="#d1d1d1"
     showgrid="false"
     inkscape:zoom="1.12203"
     inkscape:cx="185.37828"
     inkscape:cy="241.52651"
     inkscape:window-width="1920"
     inkscape:window-height="1017"
     inkscape:window-x="-8"
     inkscape:window-y="-8"
     inkscape:window-maximized="1"
     inkscape:current-layer="Layer_2" />
  <defs
     id="defs40190">
    <style
       id="style40188">.cls-1,.cls-2{fill:#32ba9c;}.cls-1{stroke:#000;stroke-width:3px;}.cls-3{fill:#fefefe;}</style>
    <radialGradient
       id="rg"
       gradientUnits="userSpaceOnUse"
       cx="220"
       cy="220"
       r="405"
       gradientTransform="matrix(0.80510068,0,0,0.80302287,-0.0302015,-0.89702386)">
      <stop
         style="stop-color:#ffffff;stop-opacity:.3"
         offset="0"
         id="stop753" />
      <stop
         style="stop-color:#ffffff;stop-opacity:.2"
         offset=".2"
         id="stop755" />
      <stop
         style="stop-color:#666666;stop-opacity:.1"
         offset=".6"
         id="stop757" />
      <stop
         style="stop-color:#000000;stop-opacity:.13"
         offset="1"
         id="stop759" />
    </radialGradient>
  </defs>
  <title
     id="title40192">House Manderly</title>
  <path
     class="cls-1"
     d="M927,122.76V328.6a314.37,314.37,0,0,1-2.28,38c-.11.93-.24,1.86-.36,2.79s-.24,1.86-.39,2.79q-.7,5.05-1.61,10c-.07.44-.15.87-.23,1.31-.15.8-.29,1.6-.45,2.39s-.34,1.8-.51,2.69l-.45,2.22-.24,1.16c-.15.71-.3,1.44-.47,2.15q-.8,3.55-1.61,7l-.58,2.32-.52,2q-1.52,5.88-3.27,11.61c-.29,1-.59,1.94-.9,2.92l-.6,1.88c-.19.63-.39,1.25-.6,1.86l-1.1,3.26c-.37,1.09-.68,2-1,3-.47,1.28-.92,2.55-1.39,3.81-.36,1-.73,2-1.11,3l-.19.49c-.43,1.14-.87,2.25-1.32,3.37s-.87,2.16-1.32,3.19a3.35,3.35,0,0,1-.18.42c-.4,1-.8,2-1.25,3s-.75,1.75-1.13,2.62l-.66,1.49c-.47,1.07-.95,2.12-1.44,3.15s-.9,2-1.36,2.93l-1,2.12c-.3.63-.6,1.25-.91,1.88-.63,1.32-1.31,2.64-2,4q-2.53,5-5.19,9.77l-2,3.57-.11.21q-2.13,3.71-4.33,7.33c-.71,1.2-1.46,2.39-2.18,3.54-.1.16-.19.31-.3.46-.55.89-1.12,1.78-1.69,2.66l-.66,1c-.65,1-1.31,2-2,3l-.13.18c-.66,1-1.32,2-2,3l-.45.67q-2.26,3.28-4.54,6.46l-.31.42c-.8,1.07-1.54,2.14-2.31,3.19s-1.66,2.23-2.5,3.32q-2.29,3-4.61,6l-.8,1c-.73.93-1.48,1.85-2.22,2.76L854,526.61l-.57.69L851,530.1q-2.83,3.32-5.72,6.53c-.75.85-1.52,1.69-2.29,2.51l-2.22,2.39q-3,3.19-5.93,6.24-2.76,2.83-5.53,5.59c-.91.91-1.84,1.82-2.76,2.71s-1.85,1.78-2.78,2.67l-2.28,2.11c-.68.65-1.36,1.28-2.05,1.91a448.64,448.64,0,0,1-61.76,47.47c-.86.55-1.73,1.1-2.58,1.6q-6.42,4.07-12.46,7.63l-2.41,1.4-2.36,1.36-2.34,1.35-2.22,1.28c-8.35,4.68-15.91,8.59-22.38,11.76l-1.61.8c-10.63,5.15-18.11,8.22-21,9.35l-.42.18-.61.23-.14.06h-.08l-.23-.1-.21,0-1.07-.42-.55-.23c-.87-.34-2-.8-3.36-1.38l-.47-.18c-1.76-.8-3.88-1.67-6.33-2.77l-1.39-.61a443.16,443.16,0,0,1-39.74-20.6c-.8-.45-1.61-.92-2.36-1.38a473.14,473.14,0,0,1-44.78-30l-2.62-2c-1-.75-2-1.52-2.95-2.29l-2.81-2.21c-6.19-4.92-12.43-10.15-18.64-15.69L558.08,566q-2.3-2.05-4.59-4.2l-1.67-1.57L550,558.54l-2-1.94c-1.12-1.07-2.24-2.16-3.34-3.26-.84-.8-1.69-1.67-2.52-2.51l-.24-.26q-1.25-1.25-2.5-2.51c-.66-.68-1.32-1.36-2-2l-2-2.07-.13-.15-2.1-2.24q-3.36-3.61-6.66-7.36c-.68-.8-1.36-1.55-2-2.35-.57-.65-1.12-1.28-1.66-1.94l-2-2.39q-4.26-5.11-8.39-10.48-1.13-1.45-2.24-2.92c-1.89-2.47-3.73-5-5.57-7.55l-1.68-2.39c-.13-.16-.24-.34-.36-.5-.59-.85-1.19-1.7-1.77-2.55-.95-1.38-1.89-2.77-2.82-4.17q-1.11-1.64-2.18-3.31l-.15-.24-2.22-3.47c-.07-.13-.15-.24-.22-.37-.71-1.14-1.41-2.27-2.1-3.4s-1.49-2.46-2.21-3.7-1.44-2.39-2.13-3.67q-4.6-8-8.77-16.47c-.35-.69-.69-1.38-1-2.08-.22-.44-.44-.89-.65-1.35-.43-.87-.8-1.75-1.25-2.63a27.17,27.17,0,0,1-1.15-2.47l-.23-.48c-.26-.58-.52-1.16-.8-1.75l-.26-.57c-.26-.58-.52-1.18-.8-1.77q-1.44-3.26-2.78-6.58c-.42-1-.8-2-1.23-3.07-.1-.26-.21-.53-.31-.8-.4-1-.8-2-1.16-3s-.68-1.82-1-2.74l-.23-.65c-.18-.45-.34-.91-.5-1.36q-1-2.69-1.89-5.44c-.21-.6-.4-1.21-.6-1.8-.26-.8-.51-1.54-.75-2.31-.14-.42-.26-.8-.39-1.22-.26-.8-.5-1.6-.75-2.39-.31-1-.61-2.06-.92-3.1-.18-.65-.39-1.28-.57-2-.37-1.28-.74-2.58-1.08-3.89-.19-.68-.37-1.35-.55-2-.13-.5-.26-1-.39-1.51-.32-1.22-.63-2.46-.92-3.7-.18-.7-.35-1.4-.52-2.11-.07-.29-.13-.57-.19-.85-.37-1.55-.71-3.11-1.07-4.69-.26-1.16-.5-2.33-.74-3.5-.14-.71-.29-1.43-.43-2.14s-.32-1.6-.47-2.45a2.13,2.13,0,0,0-.1-.47c-.15-.8-.3-1.64-.45-2.48s-.31-1.84-.47-2.77-.3-1.8-.45-2.71q-.87-5.52-1.56-11.17A314.73,314.73,0,0,1,447,328.58V122.76Z"
     transform="translate(-445.5 -121.26)"
     id="path40194" />
  <path
     class="cls-2"
     d="M691.91,216.46s-3.9,2.47-4.73,5.07a1.94,1.94,0,0,0,1.71.14c.82-.41,3.27-2.12,4-3.63A1,1,0,0,0,691.91,216.46Z"
     transform="translate(-445.5 -121.26)"
     id="path40196" />
  <path
     class="cls-3"
     d="M645,263.18c-20.67,4.06-40.73-1.69-61-3.69-6.6-.65-12.93-2.71-19.9,0-5.54,2.19-11.42-1.26-17-2.95-1.16-.35-6.84-13.48-6.38-14.58s1.1-2.22,1.94-2.48c5.8-1.8,12.67-4.31,17.29.2,8,7.79,17.58,7.35,27.1,7.63,11.2.33,22.21-2,33.16-4.15,8.9-1.77,17.7-3,26.34,1.08a4.9,4.9,0,0,0,4.72-.45c4.92-2.8,10.31-3.61,15.87-3.69,4.22-1.68,8.16,1.51,11.64.61a48.06,48.06,0,0,1-11.47-1.9,4.41,4.41,0,0,1,1.41-5c3.48-2.6,2.16-6.1.67-8.18-2.42-3.37-1.32-5.84.4-8.48s1.72-4.35.4-7.4c-2-4.5-.92-9.73-.2-14.62.24-1.62,1.53-3.45,3.25-3.32,4.5.34,7.46-2.54,10.93-4.46,4.64-2.57,9.31-1.31,13.84.33,4.12,1.5,8.11,3.33,12.16,5,3.29.79,4.07,3.14,5.06,6.21,3.08,9.52-.65,18.92.25,28.34.2,2.14-1.43,3.73-3.15,4.88-2.75,1.83-2,3.47.1,5.18,2.33,1.93,5.14,2.74,8,3.53,5.33,1.49,10.48,3.35,14.56,7.35.46.45.65,1.58,1.58,1.12,6-3,10.81.9,15.78,3,2.86,1.21,4.58,1.15,6.57-1.38,3.44-4.38,5.2-9,4.72-14.73-.73-8.71-2.46-17.27-3.23-26-.25-2.77-2.53-2.36-4.14-2.51-6.58-.61-13.19-.19-19.78-.28-5.32-.07-10.64.19-15.94-.13-3-.18-6.37-5.83-5.18-8.5.58-1.3,1.75-1.19,2.81-1.11,13.14,1,26.23-2,39.38-.57,3.7-7,10.59-3.71,16.08-4.84,1.13-.23,2.53.13,3.67-.49,3.65-2,6-.32,7.55,2.86s3.93,3.72,7.16,3.73c8.25,0,16.5.36,24.75.61,2.15.06,4.76-.4,4.84,2.94.07,3.14-2.19,4.13-4.75,4.17-8.26.15-16.53.26-24.79.05-3.53-.09-6.08.69-7.41,4.16a4.26,4.26,0,0,1-1.23,1.81c-7.22,5.59-6.1,12.63-4.06,20.21a198.86,198.86,0,0,1,4.06,20.49c1.63,10.34-.52,19.68-8.11,27.38-2,2.06-4.28,3-6.84,1.35-2.83-1.87-5.88-1.86-9-1.65a42.74,42.74,0,0,1-22.9-4.74c-2.95-1.52-4.71-.63-6.81,1.18-4,3.4-5.79,8.12-7.38,12.73-3.5,10.15-9.51,18.68-16.72,26.26-6.79,7.13-10.18,13.66-3.83,23.18,5.13,7.69,4.77,17.17,2.54,25.69-8.56,32.7-1.71,62.73,13.91,91.73,7.71,14.3,16.44,27.76,27.5,39.68,1.72,1.86,3.2,2.44,6.27,2.35,27-.76,53.71.2,77.41,15.69,1.34.88,4.8,1.82,1.42,4.13-18.29,12.54-36.88,24.42-60.51,22.87-17.7-1.16-33.34-8.26-48.22-17.21-3.33-2-5.5-2.19-8.71.06-13.06,9.16-27.49,15.89-43.11,18.58-20.72,3.57-40.43-2-59.38-10.15-10.27-4.4-20.29-9.42-30.39-14.22-1.27-.6-2.84-1-3.59-3.35,13.19-6.05,26-13.33,41.07-14.14a232.29,232.29,0,0,1,46.14,1.64c7.26,1.06,13.7-1.64,19.3-6.29A9.86,9.86,0,0,0,687,488.5c1.43-14.25-3.22-26.38-12.54-36.88a295.32,295.32,0,0,1-28.8-37.45c-10.94-17.2-11.05-35.28-7.52-54.08,1.71-9.1,5.6-17.44,10.53-25.26a9.76,9.76,0,0,0,1.19-8.8c-4.56-14.77-4.76-29.56.69-44.22a5.21,5.21,0,0,0,0-4.29c-2.36-4.65-.85-8.91,1.19-13.14,5.75-3.52,12.55.2,13.89,7.6a10,10,0,0,0-9.22-9.11C652.64,262.66,648.79,262.14,645,263.18Z"
     transform="translate(-445.5 -121.26)"
     id="path40198" />
  <path
     class="cls-2"
     d="M757.54,197.16c-1.33,2-3.35,1-5,1-10.82,0-21.63-.15-32.45-.09-1.47,0-4.75-1.08-4,1.69.59,2.15-1,6.58,4.43,6.39,10.07-.34,20.16.09,30.24.06a58.07,58.07,0,0,1,12.92,1.23c-3.22,3.49-1.41,6.87-.81,10.69,2,12.42,6,25.33-4.57,36.38-1.6,1.67-2.14,2.34-4.1.7-4.83-4-10.83-5-16.73-6.16-.67,1.88,1.68,2.26,1.46,4.58-6.34-7.33-14.31-10.52-23-12.5-4.11-.94-6.75-4.13-9.35-8a50.28,50.28,0,0,0,4.94-2c1.86-1,3.74-2.54,3-4.73-2.11-6.1.6-11.82.82-17.72s-.32-11.7-5.14-16.05c3-.61,6.65-3,6.91,3,.07,1.6,1.94,1.36,3.17,1.37,5.31,0,10.62.05,15.93,0a5.33,5.33,0,0,0,3.09-.72C746,190.94,751.47,191.12,757.54,197.16Z"
     transform="translate(-445.5 -121.26)"
     id="path40200" />
  <path
     class="cls-3"
     d="M551.78,204.56c5-2.42,9.28-5.8,15.79-3.45,4.7,1.69,10.51.37,15.83.26a3.88,3.88,0,0,0,4-3.81c.2-2.29-1.3-4.38-3.31-4.44-6.78-.19-13.58-2.19-20.35,1.07-4.23,2-7.78-1.93-13.41-3.06,6-2.53,8.67-9.26,15.69-4.91,1.35.84,3.94-.09,5.89-.51a77.5,77.5,0,0,1,19.67-1.77,37.83,37.83,0,0,1,6,.85c2.75.58,4.86,2.18,5,5.1.16,3.27-2.43,4.07-5.82,4.18,8.23,3.89,15.89,5.71,24.37,5.32,13.74-.63,27.54.17,41.27-.58,5.91-.32,5.55,3.21,5.45,6.3-.13,4-3.72,1.82-5.55,1.84-16.88.16-33.77.09-50.65,0-2.76,0-4.91.37-6.5,2.92-1.77,2.85-5.26,3-8.69,4.24,2.31,1.25,5.37.19,5.52,3.23s-2,4.57-4.38,5.7c-7.4,3.46-15.08,2-22.7,1.12-4.15-.48-7.81-2.58-12.53.18-2.85,1.66-6.84-2.36-11.6-4.91,6.2-1.46,9.59-6,16.41-3.15,4.84,2,11.2.61,16.88.48a3.47,3.47,0,0,0,3.53-3.57,5.59,5.59,0,0,0-5.08-5.68c-5.46-.41-11.83-1.81-16.27.36C559.63,211,556.43,206.47,551.78,204.56Z"
     transform="translate(-445.5 -121.26)"
     id="path40202" />
  <path
     class="cls-2"
     d="M645,263.18c10.12-3.28,18.53-.66,21.53,6.7.48,1.18,1.08,2.33.21,3.59-6.42-10.09-8.65-11.44-15.05-9.09C649.86,261.93,647.19,264,645,263.18Z"
     transform="translate(-445.5 -121.26)"
     id="path40204" />
  <path
     class="cls-2"
     d="M667.31,238.84c4.67-.74,9,2.09,13.72,1.35-4.64,2.22-9.26.06-13.88-.07Z"
     transform="translate(-445.5 -121.26)"
     id="path40206" />
  <path
     class="cls-2"
     d="M707.88,505.66c-19.68,18.08-42.59,20.79-67.43,14.09-6.15-1.66-12.22-3.61-18.33-5.42-.27-1,0-1.48,1.1-1.08,11.15,2.85,22.3,5.81,33.82,6.74,18.6,1.49,34.77-5.09,49.76-15.38C707.88,504.2,708.07,504.73,707.88,505.66Z"
     transform="translate(-445.5 -121.26)"
     id="path40208" />
  <path
     class="cls-2"
     d="M712.22,499c1.94-3.59,3.63-1.47,5.43.19,12.21,11.27,26.76,17.51,43.07,19.91-.88,2.83-2.92,1.2-4.54,1.18-13.75-1.23-25.61-6.84-36.25-15.41-2-1.59-3.69-3.6-6.23-4.39Q711.87,500.82,712.22,499Z"
     transform="translate(-445.5 -121.26)"
     id="path40210" />
  <path
     class="cls-2"
     d="M756.19,520.25c1.49-.48,3.31.32,4.54-1.18,15,.28,29.89-.53,44.55-4.25-7.19,3.89-15.1,5-22.93,5.81C773.66,521.57,764.88,522.16,756.19,520.25Z"
     transform="translate(-445.5 -121.26)"
     id="path40212" />
  <path
     class="cls-2"
     d="M623.21,513.25l-1.1,1.08a29.12,29.12,0,0,1-12.59-4.85A49.05,49.05,0,0,1,623.21,513.25Z"
     transform="translate(-445.5 -121.26)"
     id="path40214" />
  <path
     class="cls-2"
     d="M673.86,217.92c.09-2.45-1-4.69,1.11-5.58,1.36-.58,3.1,1.12,3.22,2.3C678.42,217,676,216.86,673.86,217.92Z"
     transform="translate(-445.5 -121.26)"
     id="path40216" />
  <path
     class="cls-2"
     d="M783.07,208c-5.32-.15-5.75-3.48-6-7Z"
     transform="translate(-445.5 -121.26)"
     id="path40218" />
  <path
     class="cls-2"
     d="M712.22,499l1.48,1.47-5.83,5.2-1.09-1.05Z"
     transform="translate(-445.5 -121.26)"
     id="path40220" />
  <path
     class="cls-2"
     d="M692,218.86c-1.37-1.07.32-2.26-.16-3.46s-3.29-.06-1.82-2.27c.24-.36,1.37-.41,1.93-.19a2.76,2.76,0,0,1,1.95,2.95A3.13,3.13,0,0,1,692,218.86Z"
     transform="translate(-445.5 -121.26)"
     id="path40222" />
  <path
     id="shine"
     d="M 1.5799995,0.70902214 V 207.0859 C 1.5799995,436.75044 241.5,526.689 241.5,526.689 c 0,0 239.92,-89.93856 239.92,-319.6031 V 0.70902214 Z"
     style="fill:url(#rg);stroke:#000000;stroke-width:2.41218" />
</svg>
