<?xml version="1.0" encoding="UTF-8" standalone="no"?>
<svg
   viewBox="0 0 483 527.48"
   version="1.1"
   id="svg40807"
   sodipodi:docname="House Marbrand GoT.svg"
   inkscape:version="1.2.1 (9c6d41e410, 2022-07-14)"
   xmlns:inkscape="http://www.inkscape.org/namespaces/inkscape"
   xmlns:sodipodi="http://sodipodi.sourceforge.net/DTD/sodipodi-0.dtd"
   xmlns="http://www.w3.org/2000/svg"
   xmlns:svg="http://www.w3.org/2000/svg">
  <sodipodi:namedview
     id="namedview40809"
     pagecolor="#ffffff"
     bordercolor="#000000"
     borderopacity="0.25"
     inkscape:showpageshadow="2"
     inkscape:pageopacity="0.0"
     inkscape:pagecheckerboard="0"
     inkscape:deskcolor="#d1d1d1"
     showgrid="false"
     inkscape:zoom="0.79339504"
     inkscape:cx="216.78986"
     inkscape:cy="292.41423"
     inkscape:window-width="1920"
     inkscape:window-height="1017"
     inkscape:window-x="-8"
     inkscape:window-y="-8"
     inkscape:window-maximized="1"
     inkscape:current-layer="svg40807" />
  <defs
     id="defs40786">
    <style
       id="style40784">.cls-1{fill:#c0bfbf;}.cls-2{fill:#cb2026;}.cls-3{fill:#090907;}.cls-4{fill:#f68f1d;}.cls-5{fill:#f9d10b;}.cls-6{fill:none;stroke:#000;stroke-width:3px;}</style>
    <radialGradient
       id="rg"
       gradientUnits="userSpaceOnUse"
       cx="220"
       cy="220"
       r="405"
       gradientTransform="matrix(0.80510068,0,0,0.80302287,-0.03015479,-0.89702736)">
      <stop
         style="stop-color:#ffffff;stop-opacity:.3"
         offset="0"
         id="stop753" />
      <stop
         style="stop-color:#ffffff;stop-opacity:.2"
         offset=".2"
         id="stop755" />
      <stop
         style="stop-color:#666666;stop-opacity:.1"
         offset=".6"
         id="stop757" />
      <stop
         style="stop-color:#000000;stop-opacity:.13"
         offset="1"
         id="stop759" />
    </radialGradient>
  </defs>
  <title
     id="title40788">House Marbrand</title>
  <g
     id="Layer_2"
     data-name="Layer 2">
    <path
       class="cls-1"
       d="M927,122.76V328.6a314.37,314.37,0,0,1-2.28,38c-.11.93-.24,1.86-.36,2.79s-.24,1.86-.39,2.79q-.7,5.05-1.61,10c-.07.44-.15.87-.23,1.31-.15.8-.29,1.6-.45,2.39s-.34,1.8-.51,2.69l-.45,2.22-.24,1.16c-.15.71-.3,1.44-.47,2.15q-.8,3.55-1.61,7l-.58,2.32-.52,2q-1.52,5.88-3.27,11.61c-.29,1-.59,1.94-.9,2.92l-.6,1.88c-.19.63-.39,1.25-.6,1.86l-1.1,3.26c-.37,1.09-.68,2-1,3-.47,1.28-.92,2.55-1.39,3.81-.36,1-.73,2-1.11,3l-.19.49c-.43,1.14-.87,2.25-1.32,3.37s-.87,2.16-1.32,3.19a3.35,3.35,0,0,1-.18.42c-.4,1-.8,2-1.25,3s-.75,1.75-1.13,2.62l-.66,1.49c-.47,1.07-.95,2.12-1.44,3.15s-.9,2-1.36,2.93l-1,2.12c-.3.63-.6,1.25-.91,1.88-.63,1.32-1.31,2.64-2,4q-2.53,5-5.19,9.77l-2,3.57-.11.21q-2.13,3.71-4.33,7.33c-.71,1.2-1.46,2.39-2.18,3.54-.1.16-.19.31-.3.46-.55.89-1.12,1.78-1.69,2.66l-.66,1c-.65,1-1.31,2-2,3l-.13.18c-.66,1-1.32,2-2,3l-.45.67q-2.26,3.28-4.54,6.46l-.31.42c-.8,1.07-1.54,2.14-2.31,3.19s-1.66,2.23-2.5,3.32q-2.29,3-4.61,6l-.8,1c-.73.93-1.48,1.85-2.22,2.76L854,526.61l-.57.69L851,530.1q-2.83,3.32-5.72,6.53c-.75.85-1.52,1.69-2.29,2.51l-2.22,2.39q-3,3.19-5.93,6.24-2.76,2.83-5.53,5.59c-.91.91-1.84,1.82-2.76,2.71s-1.85,1.78-2.78,2.67l-2.28,2.11c-.68.65-1.36,1.28-2.05,1.91a448.64,448.64,0,0,1-61.76,47.47c-.86.55-1.73,1.1-2.58,1.6q-6.42,4.07-12.46,7.63l-2.41,1.4-2.36,1.36-2.34,1.35-2.22,1.28c-8.35,4.68-15.91,8.59-22.38,11.76l-1.61.8c-10.63,5.15-18.11,8.22-21,9.35l-.42.18-.61.23-.14.06h-.08l-.23-.1-.21,0-1.07-.42-.55-.23c-.87-.34-2-.8-3.36-1.38l-.47-.18c-1.76-.8-3.88-1.67-6.33-2.77l-1.39-.61a443.16,443.16,0,0,1-39.74-20.6c-.8-.45-1.61-.92-2.36-1.38a473.14,473.14,0,0,1-44.78-30l-2.62-2c-1-.75-2-1.52-2.95-2.29l-2.81-2.21c-6.19-4.92-12.43-10.15-18.64-15.69L558.08,566q-2.3-2.05-4.59-4.2l-1.67-1.57L550,558.54l-2-1.94c-1.12-1.07-2.24-2.16-3.34-3.26-.84-.8-1.69-1.67-2.52-2.51l-.24-.26q-1.25-1.25-2.5-2.51c-.66-.68-1.32-1.36-2-2l-2-2.07-.13-.15-2.1-2.24q-3.36-3.61-6.66-7.36c-.68-.8-1.36-1.55-2-2.35-.57-.65-1.12-1.28-1.66-1.94l-2-2.39q-4.26-5.11-8.39-10.48-1.13-1.45-2.24-2.92c-1.89-2.47-3.73-5-5.57-7.55l-1.68-2.39c-.13-.16-.24-.34-.36-.5-.59-.85-1.19-1.7-1.77-2.55-.95-1.38-1.89-2.77-2.82-4.17q-1.11-1.64-2.18-3.31l-.15-.24-2.22-3.47c-.07-.13-.15-.24-.22-.37-.71-1.14-1.41-2.27-2.1-3.4s-1.49-2.46-2.21-3.7-1.44-2.39-2.13-3.67q-4.6-8-8.77-16.47c-.35-.69-.69-1.38-1-2.08-.22-.44-.44-.89-.65-1.35-.43-.87-.8-1.75-1.25-2.63a27.17,27.17,0,0,1-1.15-2.47l-.23-.48c-.26-.58-.52-1.16-.8-1.75l-.26-.57c-.26-.58-.52-1.18-.8-1.77q-1.44-3.26-2.78-6.58c-.42-1-.8-2-1.23-3.07-.1-.26-.21-.53-.31-.8-.4-1-.8-2-1.16-3s-.68-1.82-1-2.74l-.23-.65c-.18-.45-.34-.91-.5-1.36q-1-2.69-1.89-5.44c-.21-.6-.4-1.21-.6-1.8-.26-.8-.51-1.54-.75-2.31-.14-.42-.26-.8-.39-1.22-.26-.8-.5-1.6-.75-2.39-.31-1-.61-2.06-.92-3.1-.18-.65-.39-1.28-.57-2-.37-1.28-.74-2.58-1.08-3.89-.19-.68-.37-1.35-.55-2-.13-.5-.26-1-.39-1.51-.32-1.22-.63-2.46-.92-3.7-.18-.7-.35-1.4-.52-2.11-.07-.29-.13-.57-.19-.85-.37-1.55-.71-3.11-1.07-4.69-.26-1.16-.5-2.33-.74-3.5-.14-.71-.29-1.43-.43-2.14s-.32-1.6-.47-2.45a2.13,2.13,0,0,0-.1-.47c-.15-.8-.3-1.64-.45-2.48s-.31-1.84-.47-2.77-.3-1.8-.45-2.71q-.87-5.52-1.56-11.17A314.73,314.73,0,0,1,447,328.58V122.76Z"
       transform="translate(-445.5 -121.26)"
       id="path40790" />
  </g>
  <g
     id="Layer_4"
     data-name="Layer 4">
    <path
       class="cls-2"
       d="M676,521.33c-14.87-3.11-26.89-10.95-37.21-21.89-5.68-6-13.17-9.5-21.11-12.94,7.19-10.37,18.18-10.82,29.33-11.33-5-6.77-11.46-8.26-18.65-4.32-6.78,3.71-13.65,6.76-21.6,6.1-12.74-1.05-24.21-4.65-32.41-16.3,8.67-1.58,16-4.57,22.18-10.28,3.35-3.1,2.3-4.62-.94-6.48a25.39,25.39,0,0,0-35.14,9.35c-1.09,1.87-2.12,3.79-3.19,5.7-13-10.18-17.29-31.07-2.42-44.67,3.34-3.05,2.58-4.19-.85-5.47-6.6-2.45-13.1-5.27-19.87-7.1-8.11-2.19-15.8-.11-23.74,5a60.16,60.16,0,0,1,14.51-27.36,63.24,63.24,0,0,1,18.73-14.67c1.13-.56,2.89-.88,2.9-2.26,0-1.79-2-1.87-3.27-2.46-19.51-8.87-26.16-19-26.07-43.19,0-3.06.81-4.34,3.75-2,7.65,6,16.77,7.56,26.06,8.2,6.09.42,12.27-.24,18.22,1.67,3.23,1,3.17-.71,2.31-2.84A19.39,19.39,0,0,0,562,314.2a57.47,57.47,0,0,0-6.14-4.79C536,296.88,534,280.36,539.74,259.49a44.83,44.83,0,0,1,5.71-12.9c.77,6.11,3.84,10.17,8.08,13.45,1.49,1.15,3.25,2.61,5,1.56,2.11-1.26.64-3.42,0-5-4.07-10.81-4.2-21.37,1.65-31.63,4.86-8.53,12.09-13.66,22.6-15.43-2.73,7.28-3.51,14,.82,20.49,3.74,5.6,8.75,9.32,16.07,12-4.38-18.22-.2-32.5,16-42.05,10.32-6.08,23.77-9.81,31-6-5.8,8-6,12.13-.84,20,4.76,7.27,9.6,9,19.2,6.72.9-.21,1.84-.26,2.73-.5,6.66-1.78,6.43-1.88,3.33-7.93-7.51-14.7-4.08-31.71,11.54-40.92,1.24-.73,2.73-2.09,3.43.38,2.55,9,10,13.52,16.84,18.46a95.33,95.33,0,0,0,25.07,13.05c8.86,3,12.4,9.5,12.95,18.08.35,5.51.47,11.07-1.37,17.17,4.78-1.48,6.36-4.71,7.77-8,2.13-5,2.78-10.44,3.07-15.73.7-12.76,9.05-18.18,20.13-22.28-1.9,10.9,3.37,19.07,8.83,27.18,3,4.46,5.9,9,8.91,13.44,6.9,10.22,6.53,20.47.25,30.8a70.8,70.8,0,0,1-9.18,12.53c-.74.77-1.87,1.58-1.38,2.79s1.68,1.14,2.87,1a38.79,38.79,0,0,1,17.48,1.8c10.07,3.61,18.56,2.77,26-7.56-.77,11.8-6.26,19.33-13.44,26.19,9.77,1.9,24.11-6.94,35.11-21.13,3,7.2,2.81,18.68,0,28.43s-9.5,16.52-17.76,23.7c9.18,1.14,14.29,6.42,19.08,12.46,3.3,4.16,8.49,5.36,13.53,5.46,4.77.09,4.3,2.05,2.69,5.07-3.68,6.92-9.8,10.28-17.14,12-6.6,1.58-13.28,1.23-19.94,1.08a17.94,17.94,0,0,0-9,2.33c-3.43,1.81-3.29,3.38,0,5.29,10.52,6.14,21.2,7.47,32.25,1.45,1.46-.8,3-1.43,4.55-2.08.3-.13.72,0,1.53.1-.14,13-5.11,23.79-15.42,31.69-9.78,7.49-21.5,10.09-35.36,11.36,11.31,6.71,16.13,16.13,20.48,26.08,2.52,5.76,8.5,8.56,13.06,12.55-9.07,9.22-31.34,14.16-43,9.07-8.83-3.85-17.29-8.53-26-12.62-9.15-4.29-15.47-2.49-21.83,6,3.48,2.38,8.36,2,11.17,5.58l-.59.61c-5.52-.24-11-1.35-16.52-1.46-3.79-.07-4.48-2.05-2.51-5.19,7.16-11.39,26.78-16,38.33-8.89,2.54,1.55,4.92,3.33,7.34,5.06,9.41,6.73,20,7.29,30.95,5.83a16.93,16.93,0,0,0,7.59-3.34c2-1.48,2.63-3.14.47-5-7.68-6.51-12.81-14.8-17.14-23.76-2-4.05-5.7-6.79-9-9.77-1.48-1.32-4-2.44-3.29-4.68.84-2.6,3.73-1.81,5.85-1.92,3-.16,5.94,0,8.91-.06,14.2-.42,24.31-8,32.48-18.81a15.44,15.44,0,0,0,1.8-3.45,5.63,5.63,0,0,0,.71-2.73c-1-1.41-2.34-.3-3.49-.2-6.94.64-13.7.21-20.23-2.56-5-2.11-9.94-4.16-15.3-5.12-3.46-.62-3.9-2.43-1.76-5,10.74-12.89,24.24-19.22,41.21-17.33,1.42.16,3.15,1.3,4.21,0,1.19-1.5-.08-3.19-.78-4.65-4.61-9.59-16.34-15.76-27.95-14.58-3.69.37-7.41.5-11.09,1.05-1.25.19-2.81.2-3.34-1.29s.76-2.39,1.8-3.1c3.09-2.13,6.67-3.21,10.12-4.58,12-4.78,20.83-12.71,24.48-25.55a19.7,19.7,0,0,0,.88-4.36,3.92,3.92,0,0,0-.46-2.74c-1.46-.94-2.34.44-3.33,1.05-10.36,6.35-21.57,10.79-33,14.69-1.68.57-3.76,1.69-5.16-.05s.12-3.52.75-5.21a83.56,83.56,0,0,1,5.51-10.94c1.46-2.63,1.27-4.17-2.2-4.23-5.46-.08-10.63-1.73-15.76-3.34-7.06-2.22-14.12-3-21.4-1.2-1.72.43-3.79,1.26-5.09-.74-1.18-1.81-.14-3.57.69-5.24,2.59-5.25,6.44-9.5,10.66-13.47a45.68,45.68,0,0,0,10.23-13.1c2.1-4.29,2.37-8.51.26-12.85-1.95-4-3.82-8.08-6.75-11.5-6.26-7.31-12.81-14.4-16.67-24.7-4.21,6.8-5.12,13.38-5.52,19.91-.72,11.69-6.34,19.49-17.24,23.57-1.91.72-4,1.76-5.84.37-2.17-1.64-.47-3.79,0-5.62,1.17-4.88,2.46-9.68,2.38-14.79-.16-9.88-4.54-16.94-13.31-21.45a63.25,63.25,0,0,0-15.56-6c-9.27-2-16.25-7-20.76-15.38-.75-1.39-1.37-3.57-3.21-3.49-2.21.1-2.4,2.56-3.1,4.18-4.68,10.79-2.23,20.27,5.45,28.74.62.69,1.32,1.31,1.94,2,4,4.54,3.56,6.15-2.44,7.77-6.28,1.7-12.6,3.59-19.11,3.6-8.39,0-15.42-4-21.52-9.33-4.44-3.91-8.88-8-12.22-12.93-1.88-2.81-3.58-3.11-6.29-.93-9.61,7.76-15.84,17.13-15.2,30,0,.56,0,1.12,0,1.67,1.36,12.87-3.55,11.19-11.69,9.67-9-1.68-16.57-6.32-23.3-12.41-4.17-3.77-5.22-3.55-7.34,1.68-3.85,9.5-3.16,19.71-4.48,29.61-.12.91,0,1.86-.07,2.78-.39,5.37-1.84,6.29-6.67,4.15-4.42-2-8.22-4.88-12.5-8.72a34.49,34.49,0,0,0,1.83,20.85c2.88,7.2,7.59,13.18,13.07,18.54a79.64,79.64,0,0,1,10.6,12.88,22.65,22.65,0,0,1,2.86,6c2.63,8.72.52,11.2-8.25,9.69a28.88,28.88,0,0,0-10.54-.2c-7.35,1.49-14.38.52-21.41-1.62-4-1.22-5.2-.07-4.18,4,1.8,7.2,6.25,12.53,12.31,16.63a74.71,74.71,0,0,0,17.43,8.62c1.74.61,4,1.27,3.95,3.37s-2.64,2.31-4.34,2.76c-7.06,1.86-13.77,4.43-19.72,8.8a26.64,26.64,0,0,0-6.56,6.75c-4.05,6.1-3.84,6.41,3.16,8.28a40.78,40.78,0,0,1,13.75,7.2,60.21,60.21,0,0,0,15,8.48c4.74,1.78,5.15,3.43,1.64,7.24-4.92,5.34-8.49,11.24-9.47,18.54a12,12,0,0,0-.32,2.76c.31,3.13.1,7,2.73,8.72,2.43,1.63,4.51-1.7,6.68-2.89,8.31-4.57,17.15-4.46,26.05-3,6.59,1.08,12.89,3.52,19.48,4.75,1.59.3,3.53.53,3.78,2.66.22,1.84-1,3.15-2.34,4.2-6,4.87-13.18,7.54-19.93,11-1.81.94-5.11.8-4.69,3.75.35,2.45,2.87,3.91,5.21,4.57,9.38,2.61,18.69,2.86,27.73-1.44,1.17-.56,2.28-1.26,3.43-1.86,11.94-6.19,24.12-2.27,30.44,9.8,2.15,4.11,1.45,5.38-3.22,5-6.67-.57-12.77,1.06-19.6,3.88,8.25,6,11.6,15.21,18.78,21.24a62.27,62.27,0,0,0,27.68,13.46C677.18,519.44,677.26,520.53,676,521.33Z"
       transform="translate(-445.5 -121.26)"
       id="path40793" />
    <path
       class="cls-3"
       d="M676,521.33v-2.89c-1.69-2.11-1-4.61-1.19-7-.18-11.14,1.8-22.19,1.3-33.36a13.78,13.78,0,0,0-3.38-9.09c-8.78-10.07-16-21.38-25.31-31.09-2.4-2.52-4.19-3.51-7.58-1.84-4.41,2.17-8.7.67-12.63-1.86-1.72-1.11-3.19-2.55-4.84-3.76-2.92-2.14-5.7-2.76-8.23.55-3.11,4.07-6.71,3.9-10.78,1.46a47.52,47.52,0,0,1-9.94-8,34.47,34.47,0,0,0-9.07-7.3c-1.47-.75-3.35-1.57-2.85-3.6s2.61-2.41,4.5-2.56c6-.48,11.33,1.47,16.13,5,4.25,3.14,7.79,2.81,11.62-1,2-2.05,1.15-6.52-2-10-1.63-1.8-3.86-2.93-5.41-4.8-1.05-1.28-2.35-2.82-1.18-4.46s2.82-.65,4,.1c2.18,1.34,3,1.36,4.26-1.46,1.39-3.23,3.36-.91,4.27.89a35.71,35.71,0,0,1,3.17,12.34,20.08,20.08,0,0,0,7.26,14c1.77,1.44,3.79,2.62,6.14,1.71,2.53-1,2.53-3.4,2.68-5.65A19.17,19.17,0,0,0,633.7,405c-4.78-6.86-10.22-13.22-14.94-20.13-1.81-2.66-4.89-4-7.75-5.3a52.12,52.12,0,0,1-13.51-9.73c-.91-.85-2.22-1.91-1.13-3.27.92-1.15,2.42-.84,3.61-.2,4.23,2.29,8.17,5.07,12.93,6.41,4,1.12,6.86.49,8.88-3.3a88.88,88.88,0,0,1,5.51-8.37c3.34-4.85,3-5.9-2.15-9.15-1.73-1.08-3.57-2-5.23-3.19-4.44-3.11-8.31-4.05-12.69.68-3,3.28-9.54,1.83-12.39-1.92-.67-.87-1.5-1.83-.93-3s1.83-1.08,2.95-1c2.29.07,5.15,1.38,6.19-1.89.89-2.79-.85-5-2.59-7-2.37-2.74-5.51-4.35-8.64-6-1.62-.85-4-1.79-3.43-3.83.66-2.39,3.06-1.18,4.8-.94.72.1,1.45.34,2.15-.29.34-1.82-1.08-3-1.77-4.47s-2.36-3.25-.8-4.48c1.83-1.44,3.3.69,4.61,1.85,2.1,1.86,3.57,4.26,5.29,6.46,2.74,3.51,5.27,7.23,8.47,10.33,4,3.84,6.39,3,7.6-2.24.33-1.45.33-3,.7-4.4.26-1,.44-2.4,1.86-2.36s2.15,1.27,2.48,2.6c.51,2.07-.19,4.05-.48,6.06-.49,3.41.36,6.15,3.42,8.18,5.91,3.92,8.38,3.11,10.27-3.7a89.58,89.58,0,0,1,6.33-16c4.79-9.61,3.16-15.12-6.49-20.27-6.94-3.7-13.5-7.82-18.82-13.69-.5-.55-1.08-1-1.52-1.63-1.07-1.44-3-3-1.3-4.77,1.33-1.33,3.1.15,4.51,1a28.24,28.24,0,0,1,2.52,1.95c-.89-2.33-2.32-4.33-3-6.65-.31-1.06-.69-2.3.43-3s2.17.09,3,.77c3.92,3.21,6.7,7.44,9.91,11.27a27,27,0,0,0,7.6,6.42c1.12.63,2.39,1.51,3.6.5s1-2.71.48-4.13c-1-2.56-3.05-4.16-5.11-5.75a52.55,52.55,0,0,1-9.17-8.91c-.81-1-1.55-2.43-.34-3.5.95-.83,2.08.08,3,.65,1.84,1.09,3.78,3.85,5.76,2.17,2.26-1.9-.39-4.34-1.06-6.52-.76-2.47-3.93-5.65-.77-7.28,2.35-1.21,3.56,3,5,5a32.91,32.91,0,0,1,5.37,12.71c.92,4.88,4.23,5.78,8.17,2.63a56,56,0,0,0,7.65-8.08c1.07-1.27,2.56-2.76,4.25-1.51,1.41,1,.38,2.77-.19,4.09-2.25,5.17-5.76,9.51-9.29,13.83-.82,1-1.83,1.85-2.57,2.93-1.84,2.7-.74,5.1,1.2,7,2.33,2.29,4,.15,5.6-1.38a26.41,26.41,0,0,0,3.53-5c.76-1.17,1.39-3,3.25-2.35,2,.76,1.73,2.77,1.28,4.34-1.89,6.64-4.19,13.11-9.18,18.2a29.71,29.71,0,0,0-8.63,20c-.33,6.64,4.58,11.36,11.42,10.76a16.87,16.87,0,0,0,3.25-.75c1.92-.56,4.23-2.19,5.76-.51,2,2.17-1,3.39-2,5s-.3,2.35,1.32,2.65c.37.07.75,0,1.11.11,2,.37,5.43-.61,5.47,2.21,0,3-3.35,3.44-6,3.81a33.24,33.24,0,0,1-5-.08c1.11,1.3,3.74,1.93,2.25,4.22-1.09,1.67-3,1-4.64.66-4.6-.86-7.86-4.06-11.45-6.66-5.43-3.94-6.83-3.87-10,1.72-4.1,7.27-8.44,14.42-11.32,22.34-1.43,3.94-1.2,7.14,2.06,10.05,2.63,2.34,5,5,7.55,7.42.9.83,1.81,2.22,3.26,1.47,1.12-.58.77-2,.81-3.06a37.14,37.14,0,0,0-.43-6.67c-.18-1.27-.47-2.82.9-3.52,1.64-.83,2.77.55,3.79,1.57a15.3,15.3,0,0,1,3.54,6.25c.79,2.46,2,2.2,3.64.81a59.68,59.68,0,0,0,5-5.26c1-1.08,2.1-2.46,3.75-1.34,1.27.86.87,2.34.57,3.6-1.87,7.75-5.9,14-12.88,18.08-1.28.75-2.61,1.42-4,2.06-4,1.89-4.38,4.47-1.95,8,6.28,9.23,13.34,17.86,20.33,26.53,3.5,4.34,7.05,8.61,10.18,13.24,1.41,2.09,3.37,4.74,6.22,1.88,2.59-2.6.81-4.75-1.52-6.4-5-3.51-6.66-8.66-7.7-14.3a53.91,53.91,0,0,0-2.63-8.51c-.39-1.08-.59-2.27.46-3.07a3,3,0,0,1,3.18,0c4.12,1.92,6.38,5.49,8.36,9.36,4.43,8.68,5.31,8.85,12.71,2.58a69.73,69.73,0,0,0,6.36-6.25c6.84-7.5,6.19-15.11-1.66-21.55-1.75-1.43-5.46-2.67-4.21-5,1.59-3,4.94-.94,7.52,0a1.45,1.45,0,0,0,1.07,0,1,1,0,0,0,.13-1c-.54-2.36-3.7-5.13-.93-7,2.92-1.93,4.86,1.63,6.64,3.54,4.7,5.05,4.55,5,10.15.7,5.09-3.95,8-9.16,9.62-15.25.68-2.56.37-4.94-1.68-6.63-4-3.26-7.29-7.29-12.92-8.26-6.14-1.06-9.85-6.39-14.74-9.67a1.69,1.69,0,0,1-.6-2.42,2.7,2.7,0,0,1,2.49-1c3.17.11,5.35,2.42,8,3.63,2.45,1.1,5.12,3.69,7.65,1.5,2.71-2.35,1-5.77-.29-8.27a56.49,56.49,0,0,0-15.21-19c-1-.81-2.15-1.47-3.09-2.38s-1.72-1.62-1.16-2.86,1.89-.89,2.92-.63c2.52.64,4.9,1.73,8,2.63-4.28-7-8.21-13.4-15.45-17.35A48.25,48.25,0,0,1,681,304c-1.11-1.4-2.65-3.1-1.47-5,1.52-2.44,3.19.8,4.82.29a2.37,2.37,0,0,0,.4-1.64c0-2.09-1.63-5.26,1.13-5.9,3.42-.79,3.71,3,4.45,5.26,2.68,8.44,2.51,8.18,10.55,3.66,7.35-4.13,11.17-11.23,16.24-17.32,1.33-1.6,2.43-4.81,4.87-3.35s1.16,4.39.19,6.63c-3.35,7.7-7.07,15.17-13.79,20.61-2.36,1.91-2.45,4.1-.59,6.29a186.58,186.58,0,0,1,13,17.37c2.26,3.4,5.13,3.15,7.19.07,3.54-5.29,6.66-10.89,3.23-17.57-.6-1.16-1.34-2.44-.27-3.61s2.55-.73,3.57,0c3.83,2.91,6.49,1.24,8.87-2a9.92,9.92,0,0,1,2.3-2.41,2.29,2.29,0,0,1,2.58-.39c1,.58.85,1.58.73,2.48-.51,3.87-2.62,7.23-3.82,10.72,2,1.89,5.39-.62,6.08,2.28.74,3.09-2.39,4.27-4.26,5.93a48.2,48.2,0,0,1-6.22,4.7c-10.87,6.89-14.17,16.52-9.86,28.62,3.34,9.39,9.36,16.85,16.92,23.1,5.18,4.28,14.35,3.16,19.89-2.23,4.6-4.48,7.37-10.2,10.34-15.78.85-1.6,1.39-4.16,3.52-3.74,2.56.49,1.85,3.23,1.93,5.16.16,3.6-1.74,6.75-2.58,9.82a1.59,1.59,0,0,0,1.6,1c1.59.08,3.67-.82,4.43,1.23s-.94,3.42-2.27,4.71c-8.93,8.64-19.9,11.08-31.83,10.1-6.13-.5-14,4.57-15.32,10.26-.43,1.82.56,2.36,1.92,2.71,4.56,1.16,9.08,2,13.43-.9,1.3-.87,3.14-2.28,4.47-.64s-.5,3.06-1.41,4.36a13.39,13.39,0,0,1-10.38,5.71c-2.22.18-4.46.09-6.69.09-10,0-14.48,3.24-18,12.47-1.19,3.13-.28,4.24,2.86,4.94a31.22,31.22,0,0,0,21.59-2.95c2.09-1.05,5-3.83,6.77-.75,1.49,2.66-2.43,3.51-4.05,5.05a67.08,67.08,0,0,1-8.23,6.65,16.69,16.69,0,0,1-11,3.15c-3.09-.27-6-1.68-7.63,2.78-.78,2.09-3,.27-4.11-.79-3.9-3.83-5.26-.1-7.21,2.2-2.55,3-2,5.24,1.41,7.12,1.68.93,4.48,1.62,3.83,4.07s-3.48,2.36-5.65,2.74a2.69,2.69,0,0,1-1.11,0c-11.21-3-14.75,5.46-19,12.82-.72,14.09-.24,28.16-.21,42.24-.29,2,.13,4.2-1.39,5.92-2.85,11.2,4.31,16.09,13.68,20.31-5.69,2.41-9.85-.21-14.35-1.59-1.25,1.88,1.92,2.54.82,5-3.9-2.95-8.16-4.68-11,.87-1.73-.4-1-1.1-.81-1.74.36-1.49,2.48-2.89.83-4.42-1.25-1.16-2.71.54-4.12.77-2.44.4-4.77,1.76-7.88.75,3.42-3.62,9.37-3.78,10.85-8.48C677.06,530,676.41,525.57,676,521.33Z"
       transform="translate(-445.5 -121.26)"
       id="path40795" />
    <path
       class="cls-2"
       d="M687.74,522.49l0-5.07c12.49-2.17,22.46-9.19,30.35-18.32,11.76-13.61,25.78-16,42.16-11.88,6.86,1.74,8,.62,6.83-6.27-.77-4.64-2.12-9-6.13-12.08-1.29-1-2.69-2.09-2.21-4.12l.21-.25c4.14,1.4,7.52,4.23,10.4,7.17a29.19,29.19,0,0,0,19.11,9.06,24.18,24.18,0,0,1,3.78,1.06c-7.45,7.05-14.48,13.18-25.14,13.29a240.33,240.33,0,0,1-31.08-1.36c-5.29-.63-9,1.39-12.14,5.93C715.17,512.34,704.1,521.71,687.74,522.49Z"
       transform="translate(-445.5 -121.26)"
       id="path40797" />
    <path
       class="cls-4"
       d="M758.76,464.75c7.26,5.32,10.55,12.45,10.2,21.45-.14,3.47-1.11,4.61-4.71,3.57a88.54,88.54,0,0,0-16.84-3c-9.89-.87-17.55,2.77-24.3,9.62s-13.92,13.9-22.82,18.33c-3.86,1.92-7.78,4.52-12.53,2.66a427.74,427.74,0,0,1,.57-45c2.42,2,1.62,4.78,1.65,7.27.13,10.18,0,20.37.11,30.45,2.56.9,3.5-.83,4.61-1.88,3.91-3.71,7.69-7.55,11.47-11.39,13.53-13.75,30-19.85,49.1-18.91-10.84-6.17-22.26-4-33.68-2.15-2.42.39-5.6,2.47-7.11-.34-1.32-2.46,1.5-4.64,3.09-6.63,8.93-11.13,18.95-20.87,32.41-26.53a32.82,32.82,0,0,1,21.27-1.35A111.69,111.69,0,0,1,789,447.48a67,67,0,0,0,26.59,5.46c-8.25-5.89-13.54-13.33-18.53-20.86-5.62-8.48-13.13-11.57-22.89-10.31-1.77.23-4,1.14-5.14-.8s.64-3.8,1.72-5.48c6.25-9.73,16.06-11.87,26.59-12.45,5.74-.31,11.45.73,17.24,0,6.16-.73,11.18-3.4,16.32-7.56-8.36.45-15.4-1.86-22-5.47a32,32,0,0,0-15.9-4.29c-6.24,0-7.44-2.13-4.16-7.53,9-14.83,22.14-23.74,39.37-26.37,3.12-.48,6.25-.85,9.34-1.48.14,0,.24-.26.35-.39-4.26-5.2-7.79-6.35-14-4.06a92.78,92.78,0,0,1-16.52,4.93,23.27,23.27,0,0,1-16.61-3.06c-4.37-2.67-4.66-5.06-1.3-9,7.5-8.72,16.63-14.7,28.07-17,8.58-1.7,14.91-6.29,18.14-15.19-2.49-.36-3.91,1.24-5.53,2.12-13.41,7.3-26.86,14.41-42.36,16.38a31.38,31.38,0,0,1-11.58-.84c-1.64-.4-3.62-.87-3.94-2.65-.37-2.05,1.74-2.65,3.21-3.26,5.84-2.45,10.27-6.67,14.2-11.41,3.08-3.72,2.48-5.37-2.36-6.19a107,107,0,0,0-20.48-2c-3.74.09-6.91,1-9.31,4-1.24,1.6-2.7,3.43-5.07,2.65-2.86-.94-2.7-3.63-3-6-1.74-16,5.36-28,17.09-37.9,2-1.68,4.07-3.25,6.08-4.9,5.1-4.18,5.76-7,2.88-13.07a87.5,87.5,0,0,0-12-18.2c0,3.55,0,6.44,0,9.31-.19,10.28-4.83,17.84-14.2,22.08a56.31,56.31,0,0,1-35.93,3.57c-5.49-1.19-6.19-3.51-2.63-8.13s7.49-9.16,10-14.67c5.29-11.57,2.25-19.5-9.65-23.78-8.45-3-16.74-6.25-22.86-13.27-2-2.24-4-4.41-5-7.08.58,11.67,2.3,14.52,12.75,20.83,9.43,5.7,9.44,12.6-.1,18-12.28,6.9-25.65,9-39.36,7.08-12.12-1.68-21-8.86-27.22-19.36-2.85-4.82-3.57-4.85-7.32-.52-4.44,5.13-3.76,11-2.39,16.91,1.07,4.64,3.75,8.45,6.43,12.26,2.23,3.18,1.66,5.82-2.17,6.84-14.21,3.79-28.39,6.05-42.25-1.52-4.14-2.26-7.3-5.53-10.84-10.37A54.39,54.39,0,0,0,575.32,267c1.67,3.92,3.39,7.84,5.39,11.62,2.63,5,1.59,6.54-4.16,6.85-5.09.27-10-1-14.85-2.08-2.51-.55-5-1.37-7.93-1.38-.17,2.53,1.5,3.88,2.66,5.37,5.81,7.48,12,14.68,18.22,21.8,9.34,10.66,12.92,22.78,9,36.72-1.58,5.65-3.05,6.14-8.09,3.08-6.71-4.08-14.27-5.11-21.91-5.45-4.79-.21-9.62.14-15-2.18,8.79,5.93,17.92,8.36,27,10.86,7.54,2.07,13.57,6.09,16.22,13.88,2.4,7.06.54,9.89-6.93,9.64-12.4-.41-24,1.83-35.06,9.17,6.9.08,11.69,3.73,16.56,7.28,6.16,4.48,12.37,8.87,19.27,12.22,4.81,2.34,4.87,3.49.38,6.8a62.79,62.79,0,0,0-9.43,8.64,13.08,13.08,0,0,0-2.77,5.41c-1.42,5.14-.64,6.16,4.51,5.36,12.92-2,25.47-.27,38,3a192.25,192.25,0,0,1,24.34,7.76c1,.43,2,.9,3,1.39,1.48.73,3.58,1.38,3.33,3.27-.32,2.41-2.8,2.2-4.51,2.11-11.35-.6-20.28,5.16-29.22,10.92a1.84,1.84,0,0,0-.93,1.67c5.69.4,10.76-2,16-3.48,8.63-2.38,17.09-2.75,25.74.11,12.22,4,18.59,13,21.7,24.81a65.54,65.54,0,0,1,1.58,9.33c.21,1.83.48,4.07-1.27,5.13-1.94,1.18-3.4-.72-4.76-1.86-3.32-2.77-6.84-5.13-11.12-6.13a3.51,3.51,0,0,0-3.21.27c6.08,8.9,13.32,16.29,23,21.19,2,1,4,.13,6,.41q-.07,3.92-.15,7.85c-14.91-.64-25.45-9.1-34.46-19.81-4.37-5.19-7.59-11.37-14.75-15,8.82-4.49,17.14-6.61,26.29-4.8-4.84-14.18-17.73-19.58-30.24-12.28-10,5.87-20.43,5.68-31.19,3.55a7.22,7.22,0,0,1-2.53-1.13c-2.46-1.66-5.82-3.42-5.8-6.27,0-2.61,3.95-2.61,6.15-3.77,8-4.17,16.89-6.79,23.92-14.61-14.6-2.3-27.58-9.38-42.27-5.49a24,24,0,0,0-10.72,5.64c-3.64,3.5-4.62,1.63-5.82-1.87-3.88-11.35.05-20.66,7.41-29.06,4.2-4.8,4.28-4.68-1.54-6.91a58.29,58.29,0,0,1-13-7.52c-5.85-4.2-11.63-8.62-19.65-7.8-4,.42-2-2.75-1.51-4.16,3.28-9,10.18-14.4,18.55-18.2a66.86,66.86,0,0,1,17.5-5.05c-7.72-3.52-14.46-5.4-20.35-9.18-6.9-4.42-12.64-9.61-15.43-17.61a20.81,20.81,0,0,1-.86-6.56c-.06-2.15.55-3.15,2.94-2.17,8.62,3.56,17.51,4.12,26.7,2.72a22.51,22.51,0,0,1,11.55.93c4.59,1.78,4.95-.74,4.62-4.24-.75-7.94-5.65-13.59-10.71-19-6.22-6.66-12.61-13.09-16.29-21.66a37.3,37.3,0,0,1-1.71-25.38c4.56,4.07,8.6,8,13.68,10.57,4.31,2.18,5.11,1.14,5.22-3.42.24-10.34.36-20.77,3.72-30.76.47-1.4,1.06-2.77,1.65-4.13,1.79-4.11,3.6-5.35,7.31-1.26,7.34,8.1,16.73,12.73,27.56,14.38,5.92.91,7,.14,6.31-5.62-1.84-16,4.58-28.07,17.1-37.52,2.7-2,4-1.88,6,1a69.6,69.6,0,0,0,19,18.52c7.24,4.71,14.83,5.26,22.88,3.55,4.16-.88,8.24-2.14,12.41-3,3.52-.71,3-2.1.87-3.85a30.9,30.9,0,0,1-10.9-17.66c-1.84-8.81,1.2-16.2,7.34-24.24,5.06,16,17,21.69,31.13,24.72,3.87.83,7.55,3.14,11,5.26,10.12,6.23,12.6,14.46,10.81,28.63-.51,4-2,7.88-3,11.79,8,1,18.57-7.26,20.19-15.79,1.28-6.73,1.47-13.64,3.45-20.25,1-3.17,1.78-6.43,5.33-8.72,3.52,10.72,11,18.51,17.85,26.81a35.45,35.45,0,0,1,3.67,5.56c6.63,12.22,5.63,18.85-4.13,28.93-5,5.18-10.8,9.72-14.1,16.38-.79,1.59-2.08,3-1.55,5.77,11.11-4.73,21.56-1.45,32,1.73a31.22,31.22,0,0,0,10.94,1.68c4.08-.24,5.69.56,2.93,4.85a77.25,77.25,0,0,0-8.44,17.2c14.2-4.78,27.6-9.35,39.41-17.6,1-.7,1.65-2.42,3.15-1.72s.78,2.31.82,3.53c.46,13.68-10.95,28.35-26.3,33.91-4.11,1.49-8.43,2.6-12.59,6.46,5.27-.52,9.55-.81,13.79-1.39,11.56-1.59,23.53,4,29.39,13.94a19.43,19.43,0,0,1,1.61,3.51c1.84,5.33,1.16,6-4.47,5.11-18.19-3-31.94,4.3-43.15,18.51,14.95,2,27.75,13.83,44,7-9,24.35-27.7,31.36-52.06,29.89,12.1,6.18,14.95,18.82,22.08,28.25,2.45,3.23,5.06,6.74,8.41,8.8,5,3.08,2.59,4.88-.28,7-7.69,5.69-16.5,4.89-25.2,3.92a32.48,32.48,0,0,1-18-8.07c-11.46-10-31.16-8.06-41.16,4.87-.63.82-2,1.47-1.22,2.75s2,.78,3.05.71A41.36,41.36,0,0,1,758.76,464.75Z"
       transform="translate(-445.5 -121.26)"
       id="path40799" />
    <path
       class="cls-5"
       d="M676.13,510.58c-.93,2.42-2.07,3.21-4.87,1.89-11.84-5.56-20.24-14.57-27.19-25.53,6.25-.88,9.67.6,21.57,9.08,1.16-22-10.79-38.19-32.34-39.25-8.24-.41-15.67,2.42-23.27,4.64-3.63,1.06-7.17,1.23-12.39.76,12-9.84,23.56-17,38.81-15.87-11.62-6.31-23.84-10.1-36.44-12.81-11.5-2.47-23.12-3.43-34.7-.91-4.67,1-4-1.57-3.73-4.15.78-8,6.35-12.66,12.07-17.19,1.56-1.24,3.29-2.27,5.4-3.71-9.66-4.11-17.73-9.84-25.62-15.86-4.82-3.67-10-6.49-16.84-5.43,4.89-4.74,10.72-7.5,16.84-9.53,7.48-2.48,15.3-2.87,23.09-2.28,5.06.38,5.71-2.08,4.72-6-2.22-8.81-8.64-13-16.87-15.08-7.75-1.94-15.36-4.17-22.4-8.08a16.76,16.76,0,0,1-6.51-6c10.37,5.14,22,1.16,32.55,5,3.48,1.26,7.19,1.86,9.87,4.75,2.48,2.67,3.14.87,3.88-1.48,4.51-14.18,1.38-26.58-8.44-37.55a308.22,308.22,0,0,1-20.79-25.31c-.92-1.28-2.66-2.73-1.45-4.34,1.08-1.43,2.72.21,4.12.39,7.31,1,14.3,3.72,21.86,3.52,4.35-.12,4.61-1.17,2.59-4.77-6.14-10.91-10.83-22.33-10.35-35.22a11.75,11.75,0,0,1,.24-2.2c.07-.29.47-.5,1-1,3.84,4.62,7.14,9.64,12.9,12.44,13.75,6.7,27.47,4.26,41.15.43,4.79-1.34.48-4.16-.39-5.29a32.4,32.4,0,0,1-7.05-20.59c0-6.64,4.26-10.44,8.62-14.18,2.53-2.16,2.46.88,3,2.08,5.27,10.95,13.22,19,25.37,21.48a57.92,57.92,0,0,0,43.24-7.59c6.55-4,6-9.18-.61-13.38-2.19-1.38-4.64-2.38-6.71-3.92-7.45-5.56-9.44-13.16-7.76-23.2C688.94,203,700.22,209,713.19,213c11,3.37,14.17,13.57,9.8,23.65-2.93,6.76-7.31,12.42-12.13,17.83-1.34,1.51-2.87,2.84.32,3.94,11.38,4,34.77,1.87,43.92-6.81,5.91-5.61,7.52-12.51,7.14-20.25-.14-2.88,0-5.78,0-9.79,6.71,7.73,12,15,15.58,23.29,2.63,6,1.57,8.57-3.83,12.77-9.13,7.1-17.76,14.6-21.65,26.12-2,6-1.28,12.12-1.21,18.21,0,2.43,2.17,4.66,3.74,1.94,4.86-8.43,12.62-6.5,19.79-6.27,5.32.18,10.61,1.38,15.9,2.17,3.44.51,4.49,2.13,2.42,5.27-4.92,7.46-11.21,13.22-20.83,16.11,7.89,4.09,15.07,3,22.2,1.41,14.71-3.25,27.59-10.66,40.43-18.11.78-.45,1.42-1.23,2.48-.89.81,6.67-5.34,15.06-13.49,18.13a51.11,51.11,0,0,1-8.54,2.38c-11.1,2.08-18.71,9.31-25.95,17.17-2.55,2.77,0,4,1.71,5.12,7.14,4.72,14.8,3.95,22.48,1.75a83.65,83.65,0,0,0,8.36-3c9-3.64,14-2,19.79,6.75-10.84.76-21.44,2.07-31.06,7.28a53.82,53.82,0,0,0-21,20.79c-1.74,3-1.89,4.87,2.45,4.47,6.74-.62,12.51,1.71,18.46,4.83,7.11,3.73,14.8,6.82,23.5,4.36a27.07,27.07,0,0,1-18.61,11c-6.27.91-12.49-.27-18.74,0-11.8.48-21.72,4.11-27.14,16.14,3.83-.2,7.39-.61,10.95-.52,6.45.16,11.49,2.75,15.58,8.1,6.69,8.76,12.16,18.69,22.72,24.91-8.21,2.62-15.48.5-22.53-1.67-6.71-2.06-13.13-5-19.7-7.56-10-3.85-20-3.91-29.57,1.18-13.38,7.1-23.45,17.77-32.72,30.75,8.5-1.66,16-3.36,23.75-3.43,8-.07,15.27,1.28,21.19,7.35-9.36-1.62-18.27-.16-27.16,2.55-9.31,2.84-17,8-23.87,14.75-4.64,4.55-9.18,9.22-13.8,13.79-1.31,1.29-2.87,3-4.73,2.25s-.93-3-.95-4.52c-.13-12.07-.17-24.14-.24-36.21,2.77-3.68,5.58-7.33,8.29-11,1.68-2.3,3.77-2.57,6.38-2a22.6,22.6,0,0,0,12.07-.32c-.23-.49-.29-1-.54-1.1-10.74-5.52-11-8.74-1.81-16.44,1.71-1.43,2.16-.27,3,.64,1.33,1.48,2.63,3,5,5.64-.63-8,2.95-7.14,7.49-6.06,4.31,1,8.42-.69,12-3.4,3.91-3,7.3-6.65,12.83-9.5-3.9-.64-5.81,1-7.75,2-7.65,4.09-15.63,4.1-23.86,2.48-3.12-.62-4.1-1.78-2.57-4.87a71.24,71.24,0,0,1,5.29-9.12c3.41-4.92,7.48-7.09,13.69-5.84,8.13,1.63,15.15-.33,19.61-9-3.72,1-6.09,4.44-9.66,4.18s-6.94-1.08-10.42-1.6c-3-.45-3.3-1.74-1.52-4s3.47-4.82,5.23-7.21c2.82-3.8,6.47-4.94,11.22-4.34,12.87,1.63,24.33-1.39,33.37-11.28a9.83,9.83,0,0,0,1-1.29c.08-.13,0-.36,0-.79-2.68-.33-5.19,2-8.33.46,2.27-5.21,4.89-10.5,3.45-17.48-3.24,5.78-6,10.88-8.92,15.87q-6,10.27-18,9.93a11.14,11.14,0,0,1-6.79-2.06c-9.83-7.62-17.15-17-19.64-29.43C726.1,344.27,730,336,739.63,330.16a42.47,42.47,0,0,0,11.48-9.69c-3.2-.86-5.88,1.34-8.79-.09,1.64-5,5.24-9.22,6.27-16.44-5.44,5.27-8.43,15.41-17.43,5.4,5.79,8.08,2.52,14.85-.89,21.35s-6.7,6.51-10.88.64-7.6-12-12.76-16.84c-3.36-3.18-2.69-5.46.58-8.11,7.15-5.8,11.11-13.78,14.47-22.09a5.83,5.83,0,0,0-.2-4.24c-3,3.78-6.27,7.34-8.83,11.38C708.47,298,702,301.6,695.57,305.29c-3.18,1.82-4.77.79-5.39-2.64-.68-3.76-1.24-7.6-4.73-10.51.38,2.14.88,4.26,1.1,6.41.13,1.23.34,2.88-.85,3.59-1.51.89-2.26-.83-3.05-1.69-.6-.66-.77-1.72-1.77-2-.57,3.08,1.07,4.76,2.69,6.44,3.63,3.76,7.49,7.5,12.24,9.56,9.53,4.13,13.19,13,19.26,21.94l-13.56-4.7c7.51,5,12.5,12,17.5,19a20.8,20.8,0,0,1,3.89,9.7c.69,5.79-1.77,7.67-7.15,5.31-2.54-1.12-4.87-2.69-7.34-4-1.73-.9-3.31-2.53-6.09-1.25,6.59,3.66,10.93,9.41,19,11.12,11.72,2.49,15.21,14.22,8.79,24.39-3.14,5-8.22,8-12.18,12.16-1.85,1.93-2.33,0-3.07-1.25a29.53,29.53,0,0,0-9.08-9.68c-.42,4.68,3.6,7.22,3.47,11.35-3.73-.58-6.8-3.73-11.61-2.77,2.83,2.09,5.08,3.65,7.22,5.36,5.73,4.59,7,10.85,3.49,17.33-3.88,7.06-10.09,11.78-16.73,16-3.18,2-4.43-.8-5.6-2.66-1.88-3-3.18-6.29-5-9.31s-4.12-5.07-8.81-5.88a26.07,26.07,0,0,1,4.35,10.83c1.12,6.64,3.26,12.3,9.76,15.88,3.94,2.17.7,5.26-.85,7.44-1.67,2.35-4.35,2.7-6.07.15-10.63-15.7-24.08-29.26-34.24-45.32-2.71-4.27.16-5.66,3.18-7,9.18-3.95,15-10.72,17.33-20.41a6,6,0,0,0,.25-1.63c0-.27-.37-.53-1-1.33a28.51,28.51,0,0,1-11.23,11.09c-1.09-4.88-2.41-9.43-7.32-12.93.39,4.8,1.65,8.74,1.1,12.88-.48,3.61-2,3.78-4.17,1.88-4.57-4.06-8.92-8.37-13.25-12.69-1.36-1.36-.68-3.16-.22-4.76,3-10.67,8.91-19.93,14.59-29.28,2-3.36,4.23-3.56,7.16-1,2.51,2.19,5.32,4,8,6.09,2.9,2.24,6.13,2.91,10.72,2.73-2.4-2.84-6.15-2-7.35-5.36,5.09-.92,10.47,1.58,16.07-2.55-3.14,0-5.15,0-7.15,0-1.83,0-4,.21-4.67-2.08s1.37-3.16,2.83-4.25c.86-.64,1.68-1.34,2.81-2.24-2.33-1.5-3.77.11-5.3.66-2.82,1-5.51,1.93-8.61.77-8-3-9.43-5.06-8.38-13.58.89-7.18,3.43-13.58,8.77-18.78,6-5.8,7.89-13.5,9-21.64-2,2.83-3.91,5.81-6.18,8.44-1.72,2-3.92,5-6.74,1.75-2.38-2.79-5.84-6.07-1.81-10.09a70,70,0,0,0,11.25-14.48,9.25,9.25,0,0,0,1.3-5.31c-3.19,3.41-6.28,6.91-9.6,10.2-2,1.93-4.19,4.3-7.19,3.39s-3.84-4.06-4.1-6.79c-.64-6.88-5.33-11.49-9.49-16.5,1.41,2.9,2.87,5.78,4.22,8.71.93,2,2.3,4.5.37,6.19s-4.21-.07-6-1.28a46.44,46.44,0,0,0-4.49-3.07c2.41,5.06,6.78,8.27,11.14,11.42,3,2.15,5.35,4.59,5.65,8.48.34,4.31-1.25,5.51-5.23,3.78-5.11-2.22-8.59-6.37-12.07-10.52-3-3.59-6.07-7.14-10.22-10l6.61,13.22-10.57-7.31c0,2.8,1.74,4,3,5.39a58.82,58.82,0,0,0,17.33,12.93c4,1.94,6.76,4.8,9.7,8,3.6,3.87,3.62,7.36,1.26,11.51A80.8,80.8,0,0,0,637.6,341c-1,4.53-3.39,5.05-7.31,3.49-7.52-3-8.85-4.84-8.11-12.79.23-2.51.84-5-1.51-8.27-.35,3.94-.4,6.81-.89,9.6-.84,4.76-3.48,5.91-7.49,3.13-4.67-3.24-7.34-8.31-10.89-12.58-2.52-3-4.55-6.55-8.68-8.14,1.43,2.27,3,4.47,4.25,6.82.57,1,1.61,2.42.63,3.58s-2.36.05-3.59-.16c-1.74-.31-3.13-2.17-5.33-1.23,1.38,3.06,4.5,3.19,6.82,4.41,4.28,2.25,7.81,5.1,9.14,9.92,1.48,5.37-.47,7.42-5.89,6.59-1.57-.24-2.94-1.74-4.71-.79,5,6.82,9.72,7.19,14.7,1,2.16-2.7,4.8-2.13,7-.95,5.06,2.71,9.87,5.9,14.79,8.9,2.34,1.43,1.35,3.08.29,4.71-3.21,5-6.51,9.94-9.62,15-1.21,2-2.74,2.07-4.74,1.8-5.49-.74-10.25-3.1-14.77-6.16-1.57-1.06-2.89-3.15-5.63-1.75,3.27,2.64,6,6.12,9.64,7.57,13.52,5.45,20,17.71,28.39,28.12a20,20,0,0,1,4.53,15.6c-.31,2.34-.05,5.18-2.73,6.28a8.07,8.07,0,0,1-8.38-1.51c-4.84-3.95-7.22-9.21-8-15.4-.64-5.05-1.11-10.28-4.84-14.8-1.7,2.38,1.26,4.49-.34,6.5-3.34.07-5.2-3.17-8.78-4.12.4,3.41,2.9,4.8,4.85,6.42,2.63,2.18,4.94,4.43,5.65,8s1.71,7.2-3.93,7.53a3.17,3.17,0,0,0-2.19,1.53c-1.91,3.78-3.94,2.15-6.09.33-5.55-4.71-11.57-8.13-19.25-6.83a10.39,10.39,0,0,0-2.13.57c-.27.11-.41.55-1,1.44,8.18,2.65,13,9.53,19.17,14.69s8.74,5,13.87-.86a3.8,3.8,0,0,1,4.91-1.19,25.37,25.37,0,0,1,6.75,4.83c5.28,4.76,9.5,5.29,15.54,1.63,2.07-1.25,3.1-1.08,4.57.71q14.61,17.88,29.38,35.63a6.62,6.62,0,0,1,1.53,4.63Q676.62,492.5,676.13,510.58Z"
       transform="translate(-445.5 -121.26)"
       id="path40801" />
  </g>
  <g
     id="Layer_3"
     data-name="Layer 3">
    <path
       class="cls-6"
       d="M927,122.76V328.6a313.88,313.88,0,0,1-2.28,38c-.11.93-.24,1.86-.36,2.79,0,.2,0,.4-.08.59-.09.74-.19,1.47-.31,2.2-.46,3.37-1,6.69-1.6,10-.07.44-.15.87-.23,1.31-.16.8-.29,1.6-.45,2.4s-.34,1.79-.51,2.69l-.45,2.22-.24,1.15c-.15.71-.3,1.44-.46,2.15-.54,2.37-1.07,4.71-1.61,7l-.58,2.32-.52,2q-1.53,5.88-3.27,11.61c-.29,1-.59,1.94-.9,2.92l-.6,1.88c-.2.63-.4,1.24-.61,1.86-.37,1.09-.73,2.17-1.1,3.25s-.68,2-1,3c-.47,1.28-.93,2.56-1.39,3.81-.36,1-.73,2-1.11,3l-.19.5c-.43,1.14-.87,2.25-1.32,3.36s-.87,2.17-1.31,3.2c0,.15-.12.28-.18.42-.4,1-.8,2-1.25,3s-.76,1.75-1.13,2.62l-.66,1.49c-.48,1.07-1,2.11-1.44,3.15s-.9,2-1.36,2.93l-1,2.12c-.29.63-.6,1.25-.91,1.87-.63,1.33-1.31,2.64-2,4q-2.52,5-5.19,9.77l-2,3.57-.12.21c-1.42,2.47-2.86,4.92-4.33,7.33-.71,1.2-1.46,2.4-2.18,3.54-.11.16-.2.32-.3.47-.55.89-1.12,1.78-1.69,2.66l-.65,1c-.65,1-1.31,2-2,3l-.13.18c-.65,1-1.31,2-2,3l-.45.67q-2.25,3.29-4.54,6.46l-.31.43c-.8,1.07-1.54,2.14-2.31,3.19s-1.66,2.23-2.5,3.32c-1.52,2-3.06,4-4.61,6l-.81,1q-1.09,1.39-2.22,2.76L854,526.61l-.57.69c-.8.94-1.6,1.87-2.41,2.8q-2.82,3.32-5.72,6.53c-.75.85-1.52,1.69-2.29,2.51s-1.47,1.6-2.22,2.4q-3,3.2-5.93,6.24-2.76,2.82-5.53,5.59c-.92.91-1.84,1.82-2.76,2.71s-1.85,1.78-2.79,2.66l-2.28,2.12c-.68.65-1.36,1.28-2,1.91a449.24,449.24,0,0,1-61.76,47.47c-.86.55-1.72,1.1-2.57,1.6q-6.43,4.06-12.47,7.63l-2.41,1.4-2.36,1.37-2.33,1.34-2.23,1.29c-8.34,4.68-15.9,8.59-22.38,11.76l-1.6.8c-10.64,5.15-18.12,8.22-21,9.35l-.42.17-.61.24-.14,0h-.08l-.23-.09-.21,0-1.07-.42-.54-.23c-.87-.34-2-.8-3.37-1.38l-.46-.18c-1.76-.8-3.89-1.67-6.33-2.77l-1.39-.61a442.25,442.25,0,0,1-39.75-20.6c-.8-.44-1.6-.92-2.35-1.38a474,474,0,0,1-44.78-30l-2.63-2c-1-.75-2-1.51-2.94-2.29l-2.81-2.21c-6.19-4.92-12.43-10.15-18.64-15.69L558.08,566q-2.31-2.05-4.59-4.2l-1.67-1.57L550,558.54l-2-1.94c-1.12-1.07-2.23-2.17-3.33-3.27-.85-.79-1.69-1.66-2.52-2.5l-.24-.26c-.84-.83-1.67-1.67-2.5-2.51-.66-.68-1.32-1.36-2-2l-2-2.06-.13-.15-2.1-2.25q-3.36-3.6-6.66-7.36c-.68-.79-1.36-1.54-2.05-2.34-.57-.65-1.12-1.29-1.66-1.94q-1-1.2-2-2.4-4.28-5.1-8.39-10.48c-.76-1-1.5-1.93-2.24-2.92-1.89-2.47-3.73-5-5.57-7.55-.55-.8-1.12-1.59-1.68-2.39-.13-.16-.24-.34-.36-.5-.59-.86-1.19-1.7-1.77-2.56-.94-1.38-1.89-2.77-2.81-4.17-.74-1.09-1.47-2.2-2.19-3.31a1,1,0,0,0-.15-.24l-2.22-3.48-.22-.36c-.7-1.14-1.41-2.27-2.1-3.4s-1.49-2.46-2.21-3.71-1.43-2.39-2.13-3.67q-4.61-8-8.77-16.46c-.35-.69-.69-1.38-1-2.09-.22-.44-.44-.88-.65-1.35-.43-.87-.8-1.74-1.25-2.63a25.91,25.91,0,0,1-1.15-2.47l-.23-.48c-.27-.58-.53-1.16-.81-1.75l-.26-.57c-.27-.59-.52-1.19-.8-1.78q-1.44-3.25-2.79-6.57c-.42-1-.8-2-1.23-3.08-.1-.25-.21-.52-.31-.79-.4-1-.8-2-1.16-3s-.69-1.82-1-2.74l-.24-.65c-.17-.44-.33-.91-.49-1.35q-1-2.7-1.9-5.44c-.21-.6-.4-1.2-.6-1.8-.26-.8-.51-1.54-.75-2.32-.14-.41-.27-.8-.4-1.22-.25-.8-.49-1.59-.75-2.39-.31-1-.61-2.06-.92-3.11-.19-.64-.39-1.28-.57-1.95-.37-1.29-.74-2.58-1.09-3.89-.19-.68-.37-1.35-.55-2-.13-.5-.27-1-.4-1.51-.32-1.22-.62-2.45-.92-3.7-.18-.7-.34-1.4-.52-2.11-.07-.28-.13-.56-.19-.85-.37-1.55-.72-3.11-1.07-4.69-.26-1.16-.5-2.33-.74-3.5-.13-.71-.29-1.43-.42-2.14s-.32-1.59-.48-2.45a1.86,1.86,0,0,0-.09-.47c-.16-.8-.3-1.64-.45-2.48s-.32-1.84-.48-2.77-.29-1.8-.45-2.71q-.57-3.7-1.07-7.47c-.17-1.23-.33-2.47-.48-3.71A312.7,312.7,0,0,1,447,328.58V122.76Z"
       transform="translate(-445.5 -121.26)"
       id="path40804" />
  </g>
  <path
     id="shine"
     d="M 1.5800462,0.70901824 V 207.0859 c 0,229.66454 239.9199938,319.6031 239.9199938,319.6031 0,0 239.92,-89.93856 239.92,-319.6031 V 0.70901824 Z"
     style="fill:url(#rg);stroke:#000000;stroke-width:2.41218" />
</svg>
