<?xml version="1.0" encoding="UTF-8" standalone="no"?>
<svg
   viewBox="0 0 483 527.48"
   version="1.1"
   id="svg41468"
   sodipodi:docname="House Mazin.svg"
   inkscape:version="1.2.1 (9c6d41e410, 2022-07-14)"
   xmlns:inkscape="http://www.inkscape.org/namespaces/inkscape"
   xmlns:sodipodi="http://sodipodi.sourceforge.net/DTD/sodipodi-0.dtd"
   xmlns="http://www.w3.org/2000/svg"
   xmlns:svg="http://www.w3.org/2000/svg">
  <sodipodi:namedview
     id="namedview41470"
     pagecolor="#ffffff"
     bordercolor="#000000"
     borderopacity="0.25"
     inkscape:showpageshadow="2"
     inkscape:pageopacity="0.0"
     inkscape:pagecheckerboard="0"
     inkscape:deskcolor="#d1d1d1"
     showgrid="false"
     inkscape:zoom="0.79339504"
     inkscape:cx="157.55077"
     inkscape:cy="231.91473"
     inkscape:window-width="1920"
     inkscape:window-height="1017"
     inkscape:window-x="-8"
     inkscape:window-y="-8"
     inkscape:window-maximized="1"
     inkscape:current-layer="svg41468" />
  <defs
     id="defs41365">
    <style
       id="style41363">.cls-1{fill:#e2e2c6;}.cls-1,.cls-4{stroke:#000;stroke-width:3px;}.cls-2{fill:#072033;}.cls-3{fill:#7c5e12;}.cls-4{fill:none;}</style>
    <radialGradient
       id="rg"
       gradientUnits="userSpaceOnUse"
       cx="220"
       cy="220"
       r="405"
       gradientTransform="matrix(0.80510068,0,0,0.80302287,-0.0302027,-0.9220146)">
      <stop
         style="stop-color:#ffffff;stop-opacity:.3"
         offset="0"
         id="stop753" />
      <stop
         style="stop-color:#ffffff;stop-opacity:.2"
         offset=".2"
         id="stop755" />
      <stop
         style="stop-color:#666666;stop-opacity:.1"
         offset=".6"
         id="stop757" />
      <stop
         style="stop-color:#000000;stop-opacity:.13"
         offset="1"
         id="stop759" />
    </radialGradient>
  </defs>
  <title
     id="title41367">House Mazin</title>
  <g
     id="Layer_2"
     data-name="Layer 2">
    <path
       class="cls-1"
       d="M927,122.76V328.6a314.37,314.37,0,0,1-2.28,38c-.11.93-.24,1.86-.36,2.79s-.24,1.86-.39,2.79q-.7,5.05-1.61,10c-.07.44-.15.87-.23,1.31-.15.8-.29,1.6-.45,2.39s-.34,1.8-.51,2.69l-.45,2.22-.24,1.16c-.15.71-.3,1.44-.47,2.15q-.8,3.55-1.61,7l-.58,2.32-.52,2q-1.52,5.88-3.27,11.61c-.29,1-.59,1.94-.9,2.92l-.6,1.88c-.19.63-.39,1.25-.6,1.86l-1.1,3.26c-.37,1.09-.68,2-1,3-.47,1.28-.92,2.55-1.39,3.81-.36,1-.73,2-1.11,3l-.19.49c-.43,1.14-.87,2.25-1.32,3.37s-.87,2.16-1.32,3.19a3.35,3.35,0,0,1-.18.42c-.4,1-.8,2-1.25,3s-.75,1.75-1.13,2.62l-.66,1.49c-.47,1.07-.95,2.12-1.44,3.15s-.9,2-1.36,2.93l-1,2.12c-.3.63-.6,1.25-.91,1.88-.63,1.32-1.31,2.64-2,4q-2.53,5-5.19,9.77l-2,3.57-.11.21q-2.13,3.71-4.33,7.33c-.71,1.2-1.46,2.39-2.18,3.54-.1.16-.19.31-.3.46-.55.89-1.12,1.78-1.69,2.66l-.66,1c-.65,1-1.31,2-2,3l-.13.18c-.66,1-1.32,2-2,3l-.45.67q-2.26,3.28-4.54,6.46l-.31.42c-.8,1.07-1.54,2.14-2.31,3.19s-1.66,2.23-2.5,3.32q-2.29,3-4.61,6l-.8,1c-.73.93-1.48,1.85-2.22,2.76L854,526.61l-.57.69L851,530.1q-2.83,3.32-5.72,6.53c-.75.85-1.52,1.69-2.29,2.51l-2.22,2.39q-3,3.19-5.93,6.24-2.76,2.83-5.53,5.59c-.91.91-1.84,1.82-2.76,2.71s-1.85,1.78-2.78,2.67l-2.28,2.11c-.68.65-1.36,1.28-2.05,1.91a448.64,448.64,0,0,1-61.76,47.47c-.86.55-1.73,1.1-2.58,1.6q-6.42,4.07-12.46,7.63l-2.41,1.4-2.36,1.36-2.34,1.35-2.22,1.28c-8.35,4.68-15.91,8.59-22.38,11.76l-1.61.8c-10.63,5.15-18.11,8.22-21,9.35l-.42.18-.61.23-.14.06h-.08l-.23-.1-.21,0-1.07-.42-.55-.23c-.87-.34-2-.8-3.36-1.38l-.47-.18c-1.76-.8-3.88-1.67-6.33-2.77l-1.39-.61a443.16,443.16,0,0,1-39.74-20.6c-.8-.45-1.61-.92-2.36-1.38a473.14,473.14,0,0,1-44.78-30l-2.62-2c-1-.75-2-1.52-2.95-2.29l-2.81-2.21c-6.19-4.92-12.43-10.15-18.64-15.69L558.08,566q-2.3-2.05-4.59-4.2l-1.67-1.57L550,558.54l-2-1.94c-1.12-1.07-2.24-2.16-3.34-3.26-.84-.8-1.69-1.67-2.52-2.51l-.24-.26q-1.25-1.25-2.5-2.51c-.66-.68-1.32-1.36-2-2l-2-2.07-.13-.15-2.1-2.24q-3.36-3.61-6.66-7.36c-.68-.8-1.36-1.55-2-2.35-.57-.65-1.12-1.28-1.66-1.94l-2-2.39q-4.26-5.11-8.39-10.48-1.13-1.45-2.24-2.92c-1.89-2.47-3.73-5-5.57-7.55l-1.68-2.39c-.13-.16-.24-.34-.36-.5-.59-.85-1.19-1.7-1.77-2.55-.95-1.38-1.89-2.77-2.82-4.17q-1.11-1.64-2.18-3.31l-.15-.24-2.22-3.47c-.07-.13-.15-.24-.22-.37-.71-1.14-1.41-2.27-2.1-3.4s-1.49-2.46-2.21-3.7-1.44-2.39-2.13-3.67q-4.6-8-8.77-16.47c-.35-.69-.69-1.38-1-2.08-.22-.44-.44-.89-.65-1.35-.43-.87-.8-1.75-1.25-2.63a27.17,27.17,0,0,1-1.15-2.47l-.23-.48c-.26-.58-.52-1.16-.8-1.75l-.26-.57c-.26-.58-.52-1.18-.8-1.77q-1.44-3.26-2.78-6.58c-.42-1-.8-2-1.23-3.07-.1-.26-.21-.53-.31-.8-.4-1-.8-2-1.16-3s-.68-1.82-1-2.74l-.23-.65c-.18-.45-.34-.91-.5-1.36q-1-2.69-1.89-5.44c-.21-.6-.4-1.21-.6-1.8-.26-.8-.51-1.54-.75-2.31-.14-.42-.26-.8-.39-1.22-.26-.8-.5-1.6-.75-2.39-.31-1-.61-2.06-.92-3.1-.18-.65-.39-1.28-.57-2-.37-1.28-.74-2.58-1.08-3.89-.19-.68-.37-1.35-.55-2-.13-.5-.26-1-.39-1.51-.32-1.22-.63-2.46-.92-3.7-.18-.7-.35-1.4-.52-2.11-.07-.29-.13-.57-.19-.85-.37-1.55-.71-3.11-1.07-4.69-.26-1.16-.5-2.33-.74-3.5-.14-.71-.29-1.43-.43-2.14s-.32-1.6-.47-2.45a2.13,2.13,0,0,0-.1-.47c-.15-.8-.3-1.64-.45-2.48s-.31-1.84-.47-2.77-.3-1.8-.45-2.71q-.87-5.52-1.56-11.17A314.73,314.73,0,0,1,447,328.58V122.76Z"
       transform="translate(-445.5 -121.26)"
       id="path41369" />
  </g>
  <g
     id="Layer_3"
     data-name="Layer 3">
    <rect
       class="cls-2"
       x="125.14"
       y="2.36"
       width="77.69"
       height="77.69"
       id="rect41372" />
    <path
       class="cls-3"
       d="M608.55,195.76A33.78,33.78,0,0,1,574.6,161.4c.07-19,15.26-33.92,34.48-33.82a34.09,34.09,0,0,1-.54,68.18Z"
       transform="translate(-445.5 -121.26)"
       id="path41374" />
    <rect
       class="cls-2"
       x="1.5"
       y="2.36"
       width="45.95"
       height="77.69"
       id="rect41376" />
    <path
       class="cls-3"
       d="M487.4,161.69A34.23,34.23,0,0,1,447,195.2v-67a35.92,35.92,0,0,1,6.7-.59A33.84,33.84,0,0,1,487.4,161.69Z"
       transform="translate(-445.5 -121.26)"
       id="path41378" />
    <rect
       class="cls-2"
       x="435.9"
       y="2.36"
       width="45.6"
       height="77.69"
       id="rect41380" />
    <path
       class="cls-3"
       d="M927,128.37v66.56a35.33,35.33,0,0,1-7.69.83,33.79,33.79,0,0,1-34-34.36c.07-19,15.26-33.92,34.48-33.82A33.71,33.71,0,0,1,927,128.37Z"
       transform="translate(-445.5 -121.26)"
       id="path41382" />
    <rect
       class="cls-2"
       x="280.52"
       y="2.36"
       width="77.69"
       height="77.69"
       id="rect41384" />
    <path
       class="cls-3"
       d="M763.93,195.76A33.78,33.78,0,0,1,730,161.4c.07-19,15.26-33.92,34.48-33.82a34.09,34.09,0,0,1-.54,68.18Z"
       transform="translate(-445.5 -121.26)"
       id="path41386" />
    <rect
       class="cls-2"
       x="202.83"
       y="80.05"
       width="77.69"
       height="77.69"
       id="rect41388" />
    <path
       class="cls-3"
       d="M686.24,273.45a33.78,33.78,0,0,1-33.95-34.36c.07-19,15.26-33.92,34.48-33.82a34.09,34.09,0,0,1-.54,68.18Z"
       transform="translate(-445.5 -121.26)"
       id="path41390" />
    <rect
       class="cls-2"
       x="47.45"
       y="80.05"
       width="77.69"
       height="77.69"
       id="rect41392" />
    <path
       class="cls-3"
       d="M530.86,273.45a33.78,33.78,0,0,1-33.95-34.36c.07-19,15.26-33.92,34.48-33.82a34.09,34.09,0,0,1-.54,68.18Z"
       transform="translate(-445.5 -121.26)"
       id="path41394" />
    <rect
       class="cls-2"
       x="358.21"
       y="80.05"
       width="77.69"
       height="77.69"
       id="rect41396" />
    <path
       class="cls-3"
       d="M841.62,273.45a33.78,33.78,0,0,1-33.95-34.36c.07-19,15.26-33.92,34.48-33.82a34.09,34.09,0,0,1-.54,68.18Z"
       transform="translate(-445.5 -121.26)"
       id="path41398" />
    <rect
       class="cls-2"
       x="125.14"
       y="157.74"
       width="77.69"
       height="77.69"
       id="rect41400" />
    <path
       class="cls-3"
       d="M608.55,351.14a33.78,33.78,0,0,1-33.95-34.36c.07-19,15.26-33.92,34.48-33.82a34.09,34.09,0,0,1-.54,68.18Z"
       transform="translate(-445.5 -121.26)"
       id="path41402" />
    <path
       class="cls-2"
       d="M447,279v49.58q0,11.07.77,22.13c.14,2,.29,4,.48,6H493V279Z"
       transform="translate(-445.5 -121.26)"
       id="path41404" />
    <path
       class="cls-3"
       d="M487.4,317.07a33.83,33.83,0,0,1-34.23,34.07,34.32,34.32,0,0,1-5.4-.43q-.78-11.05-.77-22.13v-45a35.92,35.92,0,0,1,6.7-.59A33.84,33.84,0,0,1,487.4,317.07Z"
       transform="translate(-445.5 -121.26)"
       id="path41406" />
    <path
       class="cls-2"
       d="M927,279v49.6q0,11-.75,21.87-.21,3.12-.49,6.22H881.4V279Z"
       transform="translate(-445.5 -121.26)"
       id="path41408" />
    <path
       class="cls-3"
       d="M927,283.75V328.6q0,11-.75,21.87a36,36,0,0,1-6.94.67,33.79,33.79,0,0,1-34-34.36c.07-19,15.26-33.92,34.48-33.82A33.7,33.7,0,0,1,927,283.75Z"
       transform="translate(-445.5 -121.26)"
       id="path41410" />
    <rect
       class="cls-2"
       x="280.52"
       y="157.74"
       width="77.69"
       height="77.69"
       id="rect41412" />
    <path
       class="cls-3"
       d="M763.93,351.14A33.78,33.78,0,0,1,730,316.78c.07-19,15.26-33.92,34.48-33.82a34.09,34.09,0,0,1-.54,68.18Z"
       transform="translate(-445.5 -121.26)"
       id="path41414" />
    <rect
       class="cls-2"
       x="202.83"
       y="235.43"
       width="77.69"
       height="77.69"
       id="rect41416" />
    <path
       class="cls-3"
       d="M686.24,428.83a33.78,33.78,0,0,1-33.95-34.36c.07-19,15.26-33.92,34.48-33.82a34.09,34.09,0,0,1-.54,68.18Z"
       transform="translate(-445.5 -121.26)"
       id="path41418" />
    <rect
       class="cls-2"
       x="47.45"
       y="235.43"
       width="77.69"
       height="77.69"
       id="rect41420" />
    <path
       class="cls-3"
       d="M530.86,428.83a33.78,33.78,0,0,1-33.95-34.36c.07-19,15.26-33.92,34.48-33.82a34.09,34.09,0,0,1-.54,68.18Z"
       transform="translate(-445.5 -121.26)"
       id="path41422" />
    <rect
       class="cls-2"
       x="358.21"
       y="235.43"
       width="77.69"
       height="77.69"
       id="rect41424" />
    <path
       class="cls-3"
       d="M841.62,428.83a33.78,33.78,0,0,1-33.95-34.36c.07-19,15.26-33.92,34.48-33.82a34.09,34.09,0,0,1-.54,68.18Z"
       transform="translate(-445.5 -121.26)"
       id="path41426" />
    <rect
       class="cls-2"
       x="125.14"
       y="313.12"
       width="77.69"
       height="77.69"
       id="rect41428" />
    <path
       class="cls-3"
       d="M608.55,506.52a33.78,33.78,0,0,1-33.95-34.36c.07-19,15.26-33.92,34.48-33.82a34.09,34.09,0,0,1-.54,68.18Z"
       transform="translate(-445.5 -121.26)"
       id="path41430" />
    <path
       class="cls-2"
       d="M493,434.38v54.81l-1.88-3c-.69-1.14-1.49-2.46-2.21-3.71s-1.38-2.31-2.06-3.54l-.07-.13q-4.61-8-8.77-16.46c-.35-.69-.69-1.38-1-2.09-.22-.44-.44-.88-.65-1.35-.43-.87-.8-1.74-1.25-2.63a25.91,25.91,0,0,1-1.15-2.47l-.23-.48c-.27-.58-.53-1.16-.81-1.75l-.26-.57c-.27-.59-.52-1.19-.8-1.78q-1.44-3.25-2.79-6.57l-.29-.72c-.31-.78-.61-1.57-.94-2.36-.1-.25-.21-.52-.31-.79-.4-1-.8-2-1.16-3l-.51-1.36Z"
       transform="translate(-445.5 -121.26)"
       id="path41432" />
    <path
       class="cls-3"
       d="M487.4,472.45a34.16,34.16,0,0,1-.6,6.45l-.07-.13q-4.61-8-8.77-16.46c-.35-.69-.69-1.38-1-2.09-.22-.44-.44-.88-.65-1.35-.43-.87-.8-1.74-1.25-2.63a25.91,25.91,0,0,1-1.15-2.47l-.23-.48c-.27-.58-.53-1.16-.81-1.75l-.26-.57c-.27-.59-.52-1.19-.8-1.78q-1.44-3.25-2.79-6.57l-.29-.72A34,34,0,0,1,487.4,472.45Z"
       transform="translate(-445.5 -121.26)"
       id="path41434" />
    <path
       class="cls-2"
       d="M908.19,434.38c-.28.78-.57,1.55-.87,2.33l-.19.5c-.43,1.14-.87,2.25-1.32,3.36l-.27.68c-.35.87-.69,1.7-1,2.52,0,.15-.12.28-.18.42-.4,1-.8,2-1.25,3s-.76,1.75-1.13,2.62l-.66,1.49c-.48,1.07-1,2.11-1.44,3.15s-.9,2-1.36,2.93l-1,2.12c-.29.63-.6,1.25-.91,1.87-.63,1.33-1.31,2.64-2,4q-2.52,5-5.19,9.77l-2,3.57-.12.21c-.31.55-.63,1.09-1,1.63-1.11,1.92-2.23,3.82-3.38,5.7q-.75,1.26-1.53,2.49V434.38Z"
       transform="translate(-445.5 -121.26)"
       id="path41436" />
    <path
       class="cls-3"
       d="M905.54,441.25c-.35.87-.69,1.7-1,2.52,0,.15-.12.28-.18.42-.4,1-.8,2-1.25,3s-.76,1.75-1.13,2.62l-.66,1.49c-.48,1.07-1,2.11-1.44,3.15s-.9,2-1.36,2.93l-1,2.12c-.29.63-.6,1.25-.91,1.87-.63,1.33-1.31,2.64-2,4q-2.52,5-5.19,9.77l-2,3.57-.12.21c-.31.55-.63,1.09-1,1.63a35.68,35.68,0,0,1-1-8.35A33.6,33.6,0,0,1,905.54,441.25Z"
       transform="translate(-445.5 -121.26)"
       id="path41438" />
    <rect
       class="cls-2"
       x="280.52"
       y="313.12"
       width="77.69"
       height="77.69"
       id="rect41440" />
    <path
       class="cls-3"
       d="M763.93,506.52A33.78,33.78,0,0,1,730,472.16c.07-19,15.26-33.92,34.48-33.82a34.09,34.09,0,0,1-.54,68.18Z"
       transform="translate(-445.5 -121.26)"
       id="path41442" />
    <rect
       class="cls-2"
       x="202.83"
       y="390.81"
       width="77.69"
       height="77.69"
       id="rect41444" />
    <path
       class="cls-3"
       d="M686.24,584.21a33.78,33.78,0,0,1-33.95-34.36c.07-19,15.26-33.92,34.48-33.82a34.09,34.09,0,0,1-.54,68.18Z"
       transform="translate(-445.5 -121.26)"
       id="path41446" />
    <path
       class="cls-2"
       d="M570.64,512.07v64.82q-5.22-4.34-10.45-9l-.6-.53L558.08,566q-2.31-2.05-4.59-4.2l-1.67-1.57L550,558.54l-2-1.94c-1.12-1.07-2.23-2.17-3.33-3.27-.85-.79-1.69-1.66-2.52-2.5l-.24-.26c-.84-.83-1.67-1.67-2.5-2.51-.66-.68-1.32-1.36-2-2l-2-2.06-.13-.15-2.1-2.25q-3.36-3.6-6.66-7.36c-.68-.79-1.36-1.54-2.05-2.34-.57-.65-1.12-1.29-1.66-1.94q-1-1.2-2-2.4-3.06-3.64-6-7.43c-.8-1-1.59-2-2.37-3s-1.5-1.93-2.24-2.92l-1.54-2Z"
       transform="translate(-445.5 -121.26)"
       id="path41448" />
    <path
       class="cls-3"
       d="M565.09,550.14a34.2,34.2,0,0,1-4.9,17.77l-.6-.53L558.08,566q-2.31-2.05-4.59-4.2l-1.67-1.57L550,558.54l-2-1.94c-1.12-1.07-2.23-2.17-3.33-3.27-.85-.79-1.69-1.66-2.52-2.5l-.24-.26c-.84-.83-1.67-1.67-2.5-2.51-.66-.68-1.32-1.36-2-2l-2-2.06-.13-.15-2.1-2.25q-3.36-3.6-6.66-7.36c-.68-.79-1.36-1.54-2.05-2.34-.57-.65-1.12-1.29-1.66-1.94q-1-1.2-2-2.4-3.06-3.64-6-7.43a34.89,34.89,0,0,1,16.64-4A33.84,33.84,0,0,1,565.09,550.14Z"
       transform="translate(-445.5 -121.26)"
       id="path41450" />
    <path
       class="cls-2"
       d="M865.47,512.07c-.52.69-1,1.39-1.57,2.06-1.52,2-3.06,4-4.61,6l-.37.46-.44.54q-1.09,1.39-2.22,2.76L854,526.61l-.57.69c-.8.94-1.6,1.87-2.41,2.8q-2.82,3.32-5.72,6.53c-.75.85-1.52,1.69-2.29,2.51s-1.47,1.6-2.22,2.4q-3,3.2-5.93,6.24-2.76,2.82-5.53,5.59c-.92.91-1.84,1.82-2.76,2.71s-1.85,1.78-2.79,2.66l-2.28,2.12c-.68.65-1.36,1.28-2,1.91q-3.2,2.94-6.45,5.79-4.57,4.07-9.27,8V512.07Z"
       transform="translate(-445.5 -121.26)"
       id="path41452" />
    <path
       class="cls-3"
       d="M858.92,520.54l-.44.54q-1.09,1.39-2.22,2.76L854,526.61l-.57.69c-.8.94-1.6,1.87-2.41,2.8q-2.82,3.32-5.72,6.53c-.75.85-1.52,1.69-2.29,2.51s-1.47,1.6-2.22,2.4q-3,3.2-5.93,6.24-2.76,2.82-5.53,5.59c-.92.91-1.84,1.82-2.76,2.71s-1.85,1.78-2.79,2.66l-2.28,2.12c-.68.65-1.36,1.28-2,1.91q-3.2,2.94-6.45,5.79a34.43,34.43,0,0,1-5.31-18.71c.07-19,15.26-33.92,34.48-33.82A33.76,33.76,0,0,1,858.92,520.54Z"
       transform="translate(-445.5 -121.26)"
       id="path41454" />
    <path
       class="cls-2"
       d="M648.33,589.76v39.33c-1.87-1-3.74-2-5.59-3q-4.53-2.49-9-5.11c-.8-.44-1.6-.92-2.35-1.38q-18.39-10.84-35.72-23.3-4.45-3.21-8.82-6.5Z"
       transform="translate(-445.5 -121.26)"
       id="path41456" />
    <path
       class="cls-3"
       d="M642.74,626q-4.53-2.49-9-5.11c-.8-.44-1.6-.92-2.35-1.38q-18.39-10.84-35.72-23.3a35.3,35.3,0,0,1,13.41-2.54A33.83,33.83,0,0,1,642.74,626Z"
       transform="translate(-445.5 -121.26)"
       id="path41458" />
    <path
       class="cls-2"
       d="M787.06,589.76q-4.54,3.45-9.18,6.78-9.91,7.13-20.21,13.7c-.86.55-1.72,1.1-2.57,1.6q-6.43,4.06-12.47,7.63l-2.41,1.4-2.36,1.37-2.33,1.34-2.23,1.29L730,626.71l-4,2.16V589.76Z"
       transform="translate(-445.5 -121.26)"
       id="path41460" />
    <path
       class="cls-3"
       d="M777.88,596.54q-9.91,7.13-20.21,13.7c-.86.55-1.72,1.1-2.57,1.6q-6.43,4.06-12.47,7.63l-2.41,1.4-2.36,1.37-2.33,1.34-2.23,1.29L730,626.71c.5-18.62,15.53-33.09,34.47-33A33.65,33.65,0,0,1,777.88,596.54Z"
       transform="translate(-445.5 -121.26)"
       id="path41462" />
  </g>
  <g
     id="Layer_4"
     data-name="Layer 4">
    <path
       class="cls-4"
       d="M927,122.76V328.6q0,11-.75,21.87-.21,3.12-.49,6.22-.44,5-1,9.93c-.11.93-.24,1.86-.36,2.79s-.24,1.86-.39,2.79c-.46,3.37-1,6.69-1.6,10-.07.44-.15.87-.23,1.31-.16.8-.29,1.6-.45,2.4s-.34,1.79-.51,2.69l-.45,2.22-.24,1.15c-.15.71-.3,1.44-.46,2.15-.54,2.37-1.07,4.71-1.61,7l-.58,2.32-.52,2q-1.53,5.88-3.27,11.61c-.29,1-.59,1.94-.9,2.92l-.6,1.88c-.2.63-.4,1.24-.61,1.86-.37,1.09-.73,2.17-1.1,3.25s-.68,2-1,3c-.47,1.28-.93,2.56-1.39,3.81l-.24.64c-.28.78-.57,1.55-.87,2.33l-.19.5c-.43,1.14-.87,2.25-1.32,3.36l-.27.68c-.35.87-.69,1.7-1,2.52,0,.15-.12.28-.18.42-.4,1-.8,2-1.25,3s-.76,1.75-1.13,2.62l-.66,1.49c-.48,1.07-1,2.11-1.44,3.15s-.9,2-1.36,2.93l-1,2.12c-.29.63-.6,1.25-.91,1.87-.63,1.33-1.31,2.64-2,4q-2.52,5-5.19,9.77l-2,3.57-.12.21c-.31.55-.63,1.09-1,1.63-1.11,1.92-2.23,3.82-3.38,5.7q-.75,1.26-1.53,2.49c-.21.35-.43.7-.65,1-.11.16-.2.32-.3.47-.55.89-1.12,1.78-1.69,2.66l-.65,1c-.65,1-1.31,2-2,3l-.13.18c-.65,1-1.31,2-2,3l-.45.67q-2.25,3.29-4.54,6.46l-.31.43c-.8,1.07-1.54,2.14-2.31,3.19l-.93,1.26c-.52.69-1,1.39-1.57,2.06-1.52,2-3.06,4-4.61,6l-.37.46-.44.54q-1.09,1.39-2.22,2.76L854,526.61l-.57.69c-.8.94-1.6,1.87-2.41,2.8q-2.82,3.32-5.72,6.53c-.75.85-1.52,1.69-2.29,2.51s-1.47,1.6-2.22,2.4q-3,3.2-5.93,6.24-2.76,2.82-5.53,5.59c-.92.91-1.84,1.82-2.76,2.71s-1.85,1.78-2.79,2.66l-2.28,2.12c-.68.65-1.36,1.28-2,1.91q-3.2,2.94-6.45,5.79-4.57,4.07-9.27,8-8.16,6.82-16.65,13.24-4.54,3.45-9.18,6.78-9.91,7.13-20.21,13.7c-.86.55-1.72,1.1-2.57,1.6q-6.43,4.06-12.47,7.63l-2.41,1.4-2.36,1.37-2.33,1.34-2.23,1.29L730,626.71l-4,2.16c-5.5,3-10.56,5.54-15.1,7.76l-1.6.8c-10.64,5.15-18.12,8.22-21,9.35l-.42.17-.61.24-.14,0h-.08l-.23-.09-.21,0-1.07-.42-.54-.23c-.87-.34-2-.8-3.37-1.38l-.46-.18c-1.76-.8-3.89-1.67-6.33-2.77l-1.39-.61q-12.78-5.82-25.16-12.45c-1.87-1-3.74-2-5.59-3q-4.53-2.49-9-5.11c-.8-.44-1.6-.92-2.35-1.38q-18.39-10.84-35.72-23.3-4.45-3.21-8.82-6.5l-.24-.18-2.63-2c-1-.75-2-1.51-2.94-2.29l-2.81-2.21c-2.52-2-5.06-4.06-7.59-6.18q-5.22-4.34-10.45-9l-.6-.53L558.08,566q-2.31-2.05-4.59-4.2l-1.67-1.57L550,558.54l-2-1.94c-1.12-1.07-2.23-2.17-3.33-3.27-.85-.79-1.69-1.66-2.52-2.5l-.24-.26c-.84-.83-1.67-1.67-2.5-2.51-.66-.68-1.32-1.36-2-2l-2-2.06-.13-.15-2.1-2.25q-3.36-3.6-6.66-7.36c-.68-.79-1.36-1.54-2.05-2.34-.57-.65-1.12-1.29-1.66-1.94q-1-1.2-2-2.4-3.06-3.64-6-7.43c-.8-1-1.59-2-2.37-3s-1.5-1.93-2.24-2.92l-1.54-2c-1.36-1.81-2.69-3.64-4-5.51-.55-.8-1.12-1.59-1.68-2.39-.13-.16-.24-.34-.36-.5-.59-.86-1.19-1.7-1.77-2.56-.94-1.38-1.89-2.77-2.81-4.17-.74-1.09-1.47-2.2-2.19-3.31a1,1,0,0,0-.15-.24l-2.22-3.48-.22-.36-.22-.36-1.88-3c-.69-1.14-1.49-2.46-2.21-3.71s-1.38-2.31-2.06-3.54l-.07-.13q-4.61-8-8.77-16.46c-.35-.69-.69-1.38-1-2.09-.22-.44-.44-.88-.65-1.35-.43-.87-.8-1.74-1.25-2.63a25.91,25.91,0,0,1-1.15-2.47l-.23-.48c-.27-.58-.53-1.16-.81-1.75l-.26-.57c-.27-.59-.52-1.19-.8-1.78q-1.44-3.25-2.79-6.57l-.29-.72c-.31-.78-.61-1.57-.94-2.36-.1-.25-.21-.52-.31-.79-.4-1-.8-2-1.16-3l-.51-1.36c-.17-.46-.34-.91-.51-1.38l-.24-.65c-.17-.44-.33-.91-.49-1.35q-1-2.7-1.9-5.44c-.21-.6-.4-1.2-.6-1.8-.26-.8-.51-1.54-.75-2.32-.14-.41-.27-.8-.4-1.22-.25-.8-.49-1.59-.75-2.39-.31-1-.61-2.06-.92-3.11-.19-.64-.39-1.28-.57-1.95-.37-1.29-.74-2.58-1.09-3.89-.19-.68-.37-1.35-.55-2-.13-.5-.27-1-.4-1.51-.32-1.22-.62-2.45-.92-3.7-.18-.7-.34-1.4-.52-2.11-.07-.28-.13-.56-.19-.85-.37-1.55-.72-3.11-1.07-4.69-.26-1.16-.5-2.33-.74-3.5-.13-.71-.29-1.43-.42-2.14s-.32-1.59-.48-2.45a1.86,1.86,0,0,0-.09-.47c-.16-.8-.3-1.64-.45-2.48s-.32-1.84-.48-2.77-.29-1.8-.45-2.71q-.86-5.52-1.55-11.18-.59-4.79-1-9.6c-.19-2-.34-4-.48-6q-.78-11.05-.77-22.13V122.76Z"
       transform="translate(-445.5 -121.26)"
       id="path41465" />
  </g>
  <path
     id="shine"
     d="M 1.5799985,0.6840314 V 207.06091 c 0,229.66454 239.9200015,319.6031 239.9200015,319.6031 0,0 239.92,-89.93856 239.92,-319.6031 V 0.6840314 Z"
     style="fill:url(#rg);stroke:#000000;stroke-width:2.41218" />
</svg>
