<?xml version="1.0" encoding="utf-8"?>
<!-- Generator: Adobe Illustrator 28.2.0, SVG Export Plug-In . SVG Version: 6.00 Build 0)  -->
<svg version="1.1"
	 id="svg230" xmlns:cc="http://creativecommons.org/ns#" xmlns:svg="http://www.w3.org/2000/svg" xmlns:sodipodi="http://sodipodi.sourceforge.net/DTD/sodipodi-0.dtd" xmlns:dc="http://purl.org/dc/elements/1.1/" xmlns:rdf="http://www.w3.org/1999/02/22-rdf-syntax-ns#" xmlns:inkscape="http://www.inkscape.org/namespaces/inkscape" sodipodi:docname="House Mooton.svg"
	 xmlns="http://www.w3.org/2000/svg" xmlns:xlink="http://www.w3.org/1999/xlink" x="0px" y="0px" viewBox="0 0 512 559.5"
	 style="enable-background:new 0 0 512 559.5;" xml:space="preserve">
<style type="text/css">
	.st0{fill:#F5F5F5;}
	.st1{fill:none;stroke:#000000;stroke-width:3;}
	.st2{fill:#CC4732;}
	.st3{fill:#C66738;}
	.st4{fill:none;stroke:#000000;stroke-width:2;stroke-miterlimit:10;}
	.st5{fill:#C66738;stroke:#000000;stroke-width:2;stroke-miterlimit:10;}
	.st6{fill:#C66738;stroke:#000000;stroke-width:2;stroke-linecap:round;stroke-linejoin:round;stroke-miterlimit:10;}
	.st7{fill:none;stroke:#000000;stroke-width:2;stroke-linecap:round;stroke-linejoin:round;stroke-miterlimit:10;}
	.st8{fill:none;stroke:#000000;stroke-width:3;stroke-linecap:round;stroke-linejoin:round;stroke-miterlimit:10;}
	.st9{fill:#E0C038;stroke:#000000;stroke-width:1.3444;}
	.st10{fill:url(#shine_00000031191993055597441500000013690609108910840473_);stroke:#000000;stroke-width:2.5587;}
</style>
<sodipodi:namedview  bordercolor="#000000" borderopacity="0.25" id="namedview232" inkscape:current-layer="svg230" inkscape:cx="62.225397" inkscape:cy="175.36248" inkscape:deskcolor="#d1d1d1" inkscape:pagecheckerboard="0" inkscape:pageopacity="0.0" inkscape:showpageshadow="2" inkscape:window-height="1017" inkscape:window-maximized="1" inkscape:window-width="1920" inkscape:window-x="-8" inkscape:window-y="-8" inkscape:zoom="0.70710678" pagecolor="#ffffff" showgrid="false">
	</sodipodi:namedview>
<g id="Layer_3">
	
		<g id="Layer_2_00000056429103609301045510000009876866435929308076_" transform="matrix(1.0635417,0,0,1.0608479,-0.0953125,-0.09127184)">
		<path id="path8" class="st0" d="M481.5,1.5v205.8c0,12.7-0.8,25.4-2.3,38c-0.1,0.9-0.2,1.9-0.4,2.8c-0.1,0.9-0.2,1.9-0.4,2.8
			c-0.5,3.4-1,6.7-1.6,10c-0.1,0.4-0.2,0.9-0.2,1.3c-0.2,0.8-0.3,1.6-0.5,2.4c-0.2,0.8-0.3,1.8-0.5,2.7l-0.5,2.2l-0.2,1.2
			c-0.2,0.7-0.3,1.4-0.5,2.1c-0.5,2.4-1.1,4.7-1.6,7l-0.6,2.3l-0.5,2c-1,3.9-2.1,7.8-3.3,11.6c-0.3,1-0.6,1.9-0.9,2.9l-0.6,1.9
			c-0.2,0.6-0.4,1.2-0.6,1.9l-1.1,3.3c-0.4,1.1-0.7,2-1,3c-0.5,1.3-0.9,2.5-1.4,3.8c-0.4,1-0.7,2-1.1,3l-0.2,0.5
			c-0.4,1.1-0.9,2.2-1.3,3.4s-0.9,2.2-1.3,3.2c-0.1,0.1-0.1,0.3-0.2,0.4c-0.4,1-0.8,2-1.2,3s-0.8,1.8-1.1,2.6l-0.7,1.5
			c-0.5,1.1-1,2.1-1.4,3.1s-0.9,2-1.4,2.9l-1,2.1c-0.3,0.6-0.6,1.2-0.9,1.9c-0.6,1.3-1.3,2.6-2,4c-1.7,3.3-3.4,6.6-5.2,9.8l-2,3.6
			l-0.1,0.2c-1.4,2.5-2.9,4.9-4.3,7.3c-0.7,1.2-1.5,2.4-2.2,3.5c-0.1,0.2-0.2,0.3-0.3,0.5c-0.5,0.9-1.1,1.8-1.7,2.7l-0.7,1
			c-0.7,1-1.3,2-2,3l-0.1,0.2c-0.7,1-1.3,2-2,3l-0.5,0.7c-1.5,2.2-3,4.3-4.5,6.5l-0.3,0.4c-0.8,1.1-1.5,2.1-2.3,3.2
			s-1.7,2.2-2.5,3.3c-1.5,2-3.1,4-4.6,6l-0.8,1c-0.7,0.9-1.5,1.8-2.2,2.8l-2.2,2.7l-0.6,0.7l-2.4,2.8c-1.9,2.2-3.8,4.4-5.7,6.5
			c-0.8,0.8-1.5,1.7-2.3,2.5l-2.2,2.4c-2,2.1-4,4.2-5.9,6.2c-1.8,1.9-3.7,3.8-5.5,5.6c-0.9,0.9-1.8,1.8-2.8,2.7s-1.8,1.8-2.8,2.7
			l-2.3,2.1c-0.7,0.7-1.4,1.3-2,1.9c-19.2,17.6-39.8,33.5-61.8,47.5c-0.9,0.5-1.7,1.1-2.6,1.6c-4.3,2.7-8.4,5.3-12.5,7.6l-2.4,1.4
			l-2.4,1.4l-2.3,1.3l-2.2,1.3c-8.3,4.7-15.9,8.6-22.4,11.8l-1.6,0.8c-10.6,5.2-18.1,8.2-21,9.3l-0.4,0.2l-0.6,0.2l-0.1,0.1h-0.1
			l-0.2-0.1h-0.2l-1.1-0.4l-0.5-0.2c-0.9-0.3-2-0.8-3.4-1.4l-0.5-0.2c-1.8-0.8-3.9-1.7-6.3-2.8l-1.4-0.6
			c-13.6-6.2-26.8-13.1-39.7-20.6c-0.8-0.5-1.6-0.9-2.4-1.4c-15.5-9.1-30.4-19.2-44.8-30l-2.6-2c-1-0.8-2-1.5-3-2.3l-2.8-2.2
			c-6.2-4.9-12.4-10.2-18.6-15.7l-1.5-1.4c-1.5-1.4-3.1-2.8-4.6-4.2l-1.7-1.6l-1.8-1.7l-2-1.9c-1.1-1.1-2.2-2.2-3.3-3.3
			c-0.8-0.8-1.7-1.7-2.5-2.5l-0.2-0.3c-0.8-0.8-1.7-1.7-2.5-2.5c-0.7-0.7-1.3-1.4-2-2l-2-2.1l-0.1-0.2l-2.1-2.2
			c-2.2-2.4-4.5-4.9-6.7-7.4c-0.7-0.8-1.4-1.5-2-2.3c-0.6-0.7-1.1-1.3-1.7-1.9l-2-2.4c-2.8-3.4-5.6-6.9-8.4-10.5
			c-0.8-1-1.5-1.9-2.2-2.9c-1.9-2.5-3.7-5-5.6-7.5l-1.7-2.4c-0.1-0.2-0.2-0.3-0.4-0.5c-0.6-0.9-1.2-1.7-1.8-2.5
			c-1-1.4-1.9-2.8-2.8-4.2c-0.7-1.1-1.5-2.2-2.2-3.3l-0.1-0.2l-2.2-3.5c-0.1-0.1-0.1-0.2-0.2-0.4c-0.7-1.1-1.4-2.3-2.1-3.4
			s-1.5-2.5-2.2-3.7c-0.7-1.2-1.4-2.4-2.1-3.7c-3.1-5.3-6-10.8-8.8-16.5c-0.4-0.7-0.7-1.4-1-2.1c-0.2-0.4-0.4-0.9-0.6-1.4
			c-0.4-0.9-0.8-1.8-1.2-2.6c-0.4-0.8-0.8-1.6-1.1-2.5l-0.2-0.5c-0.3-0.6-0.5-1.2-0.8-1.8l-0.3-0.6c-0.3-0.6-0.5-1.2-0.8-1.8
			c-1-2.2-1.9-4.4-2.8-6.6c-0.4-1-0.8-2-1.2-3.1c-0.1-0.3-0.2-0.5-0.3-0.8c-0.4-1-0.8-2-1.2-3c-0.4-1-0.7-1.8-1-2.7l-0.2-0.6
			c-0.2-0.5-0.3-0.9-0.5-1.4c-0.7-1.8-1.3-3.6-1.9-5.4c-0.2-0.6-0.4-1.2-0.6-1.8c-0.3-0.8-0.5-1.5-0.8-2.3c-0.1-0.4-0.3-0.8-0.4-1.2
			c-0.3-0.8-0.5-1.6-0.8-2.4c-0.3-1-0.6-2.1-0.9-3.1c-0.2-0.6-0.4-1.3-0.6-2c-0.4-1.3-0.7-2.6-1.1-3.9c-0.2-0.7-0.4-1.4-0.5-2
			c-0.1-0.5-0.3-1-0.4-1.5c-0.3-1.2-0.6-2.5-0.9-3.7c-0.2-0.7-0.4-1.4-0.5-2.1c-0.1-0.3-0.1-0.6-0.2-0.9c-0.4-1.5-0.7-3.1-1.1-4.7
			c-0.3-1.2-0.5-2.3-0.7-3.5c-0.1-0.7-0.3-1.4-0.4-2.1c-0.1-0.7-0.3-1.6-0.5-2.5c0-0.2,0-0.3-0.1-0.5c-0.1-0.8-0.3-1.6-0.5-2.5
			c-0.1-0.8-0.3-1.8-0.5-2.8s-0.3-1.8-0.5-2.7c-0.6-3.7-1.1-7.4-1.6-11.2c-1.6-12.5-2.4-25.2-2.4-37.8V1.5H481.5z"/>
	</g>
</g>
<g id="Layer_5" transform="matrix(1.0635417,0,0,1.0608479,-0.0953125,-0.09127184)">
	<path id="path227" class="st1" d="M481.5,1.5v205.8c0,12.7-0.8,25.4-2.3,38c-0.1,0.9-0.2,1.9-0.4,2.8c-0.1,0.9-0.2,1.9-0.4,2.8
		c-0.5,3.4-1,6.7-1.6,10c-0.1,0.4-0.2,0.9-0.2,1.3c-0.2,0.8-0.3,1.6-0.5,2.4c-0.2,0.8-0.3,1.8-0.5,2.7l-0.5,2.2l-0.2,1.2
		c-0.2,0.7-0.3,1.4-0.5,2.1c-0.5,2.4-1.1,4.7-1.6,7l-0.6,2.3l-0.5,2c-1,3.9-2.1,7.8-3.3,11.6c-0.3,1-0.6,1.9-0.9,2.9l-0.6,1.9
		c-0.2,0.6-0.4,1.2-0.6,1.9l-1.1,3.3c-0.4,1.1-0.7,2-1,3c-0.5,1.3-0.9,2.5-1.4,3.8c-0.4,1-0.7,2-1.1,3l-0.2,0.5
		c-0.4,1.1-0.9,2.2-1.3,3.4s-0.9,2.2-1.3,3.2c-0.1,0.1-0.1,0.3-0.2,0.4c-0.4,1-0.8,2-1.2,3s-0.8,1.8-1.1,2.6l-0.7,1.5
		c-0.5,1.1-1,2.1-1.4,3.1s-0.9,2-1.4,2.9l-1,2.1c-0.3,0.6-0.6,1.2-0.9,1.9c-0.6,1.3-1.3,2.6-2,4c-1.7,3.3-3.4,6.6-5.2,9.8l-2,3.6
		l-0.1,0.2c-1.4,2.5-2.9,4.9-4.3,7.3c-0.7,1.2-1.5,2.4-2.2,3.5c-0.1,0.2-0.2,0.3-0.3,0.5c-0.5,0.9-1.1,1.8-1.7,2.7l-0.7,1
		c-0.7,1-1.3,2-2,3l-0.1,0.2c-0.7,1-1.3,2-2,3l-0.5,0.7c-1.5,2.2-3,4.3-4.5,6.5l-0.3,0.4c-0.8,1.1-1.5,2.1-2.3,3.2s-1.7,2.2-2.5,3.3
		c-1.5,2-3.1,4-4.6,6l-0.8,1c-0.7,0.9-1.5,1.8-2.2,2.8l-2.2,2.7l-0.6,0.7l-2.4,2.8c-1.9,2.2-3.8,4.4-5.7,6.5
		c-0.8,0.8-1.5,1.7-2.3,2.5l-2.2,2.4c-2,2.1-4,4.2-5.9,6.2c-1.8,1.9-3.7,3.8-5.5,5.6c-0.9,0.9-1.8,1.8-2.8,2.7s-1.8,1.8-2.8,2.7
		l-2.3,2.1c-0.7,0.7-1.4,1.3-2,1.9c-19.2,17.6-39.8,33.5-61.8,47.5c-0.9,0.5-1.7,1.1-2.6,1.6c-4.3,2.7-8.4,5.3-12.5,7.6l-2.4,1.4
		l-2.4,1.4l-2.3,1.3l-2.2,1.3c-8.3,4.7-15.9,8.6-22.4,11.8l-1.6,0.8c-10.6,5.2-18.1,8.2-21,9.3l-0.4,0.2l-0.6,0.2l-0.1,0.1h-0.1
		l-0.2-0.1h-0.2l-1.1-0.4l-0.5-0.2c-0.9-0.3-2-0.8-3.4-1.4l-0.5-0.2c-1.8-0.8-3.9-1.7-6.3-2.8l-1.4-0.6
		c-13.6-6.2-26.8-13.1-39.7-20.6c-0.8-0.5-1.6-0.9-2.4-1.4c-15.5-9.1-30.4-19.2-44.8-30l-2.6-2c-1-0.8-2-1.5-3-2.3l-2.8-2.2
		c-6.2-4.9-12.4-10.2-18.6-15.7l-1.5-1.4c-1.5-1.4-3.1-2.8-4.6-4.2l-1.7-1.6l-1.8-1.7l-2-1.9c-1.1-1.1-2.2-2.2-3.3-3.3
		c-0.8-0.8-1.7-1.7-2.5-2.5l-0.2-0.3c-0.8-0.8-1.7-1.7-2.5-2.5c-0.7-0.7-1.3-1.4-2-2l-2-2.1l-0.1-0.2l-2.1-2.2
		c-2.2-2.4-4.5-4.9-6.7-7.4c-0.7-0.8-1.4-1.5-2-2.3c-0.6-0.7-1.1-1.3-1.7-1.9l-2-2.4c-2.8-3.4-5.6-6.9-8.4-10.5
		c-0.8-1-1.5-1.9-2.2-2.9c-1.9-2.5-3.7-5-5.6-7.5l-1.7-2.4c-0.1-0.2-0.2-0.3-0.4-0.5c-0.6-0.9-1.2-1.7-1.8-2.5
		c-1-1.4-1.9-2.8-2.8-4.2c-0.7-1.1-1.5-2.2-2.2-3.3l-0.1-0.2l-2.2-3.5c-0.1-0.1-0.1-0.2-0.2-0.4c-0.7-1.1-1.4-2.3-2.1-3.4
		s-1.5-2.5-2.2-3.7c-0.7-1.2-1.4-2.4-2.1-3.7c-3.1-5.3-6-10.8-8.8-16.5c-0.4-0.7-0.7-1.4-1-2.1c-0.2-0.4-0.4-0.9-0.6-1.4
		c-0.4-0.9-0.8-1.8-1.2-2.6c-0.4-0.8-0.8-1.6-1.1-2.5l-0.2-0.5c-0.3-0.6-0.5-1.2-0.8-1.8l-0.3-0.6c-0.3-0.6-0.5-1.2-0.8-1.8
		c-1-2.2-1.9-4.4-2.8-6.6c-0.4-1-0.8-2-1.2-3.1c-0.1-0.3-0.2-0.5-0.3-0.8c-0.4-1-0.8-2-1.2-3c-0.4-1-0.7-1.8-1-2.7l-0.2-0.6
		c-0.2-0.5-0.3-0.9-0.5-1.4c-0.7-1.8-1.3-3.6-1.9-5.4c-0.2-0.6-0.4-1.2-0.6-1.8c-0.3-0.8-0.5-1.5-0.8-2.3c-0.1-0.4-0.3-0.8-0.4-1.2
		c-0.3-0.8-0.5-1.6-0.8-2.4c-0.3-1-0.6-2.1-0.9-3.1c-0.2-0.6-0.4-1.3-0.6-2c-0.4-1.3-0.7-2.6-1.1-3.9c-0.2-0.7-0.4-1.4-0.5-2
		c-0.1-0.5-0.3-1-0.4-1.5c-0.3-1.2-0.6-2.5-0.9-3.7c-0.2-0.7-0.4-1.4-0.5-2.1c-0.1-0.3-0.1-0.6-0.2-0.9c-0.4-1.5-0.7-3.1-1.1-4.7
		c-0.3-1.2-0.5-2.3-0.7-3.5c-0.1-0.7-0.3-1.4-0.4-2.1c-0.1-0.7-0.3-1.6-0.5-2.5c0-0.2,0-0.3-0.1-0.5c-0.1-0.8-0.3-1.6-0.5-2.5
		c-0.1-0.8-0.3-1.8-0.5-2.8s-0.3-1.8-0.5-2.7c-0.6-3.7-1.1-7.4-1.6-11.2c-1.6-12.5-2.4-25.2-2.4-37.8V1.5H481.5z"/>
</g>
<g id="Layer_2">
	<path class="st2" d="M196.1,403.6c0,0,28.9,5.3,54.4,14.6c2,0.7,3.8-1.5,2.7-3.3c-9.4-15.7-37.3-59.2-59.8-66.8
		c0,0-2.7-21.3,6.7-26.2c9.3-4.9,2-25.3-7-40c-9-14.7,7-39.6,16.4-41.3c9.3-1.8,20.9,5.3,32.4,0c11.6-5.3-5.8-20-2.2-25.3
		c3.6-5.3,5.8-10.2,11.1-10.2s30.7-7.1,48.4-20.4c0,0,9.8-0.9,23.6,8.9c13.8,9.8,8-26.2,19.1-32.9c11.1-6.7,35.6-12,40.4-14.7
		s9.3-3.1,16.4-3.1c7.1,0,7.1-15.1-1.8-15.1s-18.7-0.4-13.8-7.1c4.9-6.7,13.3-6.2,18.7-6.2c5.3,0-13.3-28.4-51.1-34.7
		s-100.4,8.4-108.4,8.9c-8,0.4-27.6-12.9-55.6-6.2c0,0,0,12.9,6.7,18.2c6.7,5.3-10.7,9.8-12,29.8c0,0,11.1-2.2,16.4-6.2
		c0,0-33.3,49.8-31.6,75.1c1.8,25.3-7.1,49.8-24,65.8c0,0,1.3,5.8,7.6,5.3c6.2-0.4-7.3,9.3,11,5.8c0,0,1,31.1,3.7,42.7
		c2.7,11.6,2.7,24-7.1,54.2c-9.8,30.2,4,41.8,12,50.7C169.4,423.6,176.1,413.4,196.1,403.6z"/>
	<path class="st3" d="M341.3,160.9c0,0-31.6-6.3-40-23.4s-6.8-22.7-4.8-25.8s1.6-7.8,4-9.6c2.4-1.8,4.2,23.9,13.1,28.2
		c7.3,3.5,15.4,9.2,30.3,10.7c7.8,0.8,15.3,3.4,22,7.5l0,0c1.1,0.7,0.9,2.3-0.2,2.7L341.3,160.9z"/>
	<path class="st3" d="M165.2,354.9c0,0,1.3-21.4-0.7-36.1c-2-14.8-5-35.8-3.6-42c1.4-6.2-7.1,4-9.4-0.4c-2.3-4.4-5.1-6.5-5.1-6.5
		s-1.9-1.6-3.6-3.3c-1.6-1.7,13.6-19.7,15.5-24c1.9-4.3,10.1-27.7,8.5-52.3s25.6-54.9,28.4-62.6s23.4-3.3,23.4-3.3
		s-18.6,14-29.8,42.8c-11.2,28.9,20-20,14.2,0c0,0-19.4,17.6-26.8,81.3c-7.3,62.9,0.7,72.9,3.8,101.8c0,0,9.1,0.6,14.1-1.5
		c5-2.2,7.3,4.5,11.2,6.1c4.2,1.8-22,10.6-33.5,13C146.6,373,165.2,354.9,165.2,354.9z"/>
	<path class="st3" d="M213.8,127.9c0,0,7.3-8.1,6.7-11c-0.7-3-6.2-4.7-2.7-7s3.1-11.1,10-8.9c0,0-0.9-6.3,6-8.2
		c6.9-1.9,1.6-5.9,1.6-5.9s-27.7-12.9-42.7-5.8c0,0-7.4-0.7-5.5,5.8c1.8,6.5,8.7,15.2,8.7,15.2l-7.3,11.1l-6.2,11.1l-0.9,6l16.9-7.2
		L213.8,127.9z"/>
	<path class="st3" d="M341,157c0,0-9.3,36.3-12.3,37.6c-3,1.3-20.9-9.6-25.2-9.8c-4.3-0.2-10.2-0.9-10.2-0.9s-2.8-12,20.3-25.1
		c23.1-13.1,10.4-7.3,10.4-7.3L341,157z"/>
	<path class="st3" d="M205.8,240.8c0,0,21.9-24.3,19.9-35.3c0,0,8.6,7,15.3,7.3c0,0-5.4,2.1,1,11.9c6.4,9.8,4,17.5-6.8,17.7
		S213.6,236,205.8,240.8z"/>
	<path class="st4" d="M196.1,403.6c0,0,30.5,5.6,56.4,15.3c1.3,0.5,2.6-1,1.8-2.2c-8.1-13.7-37.4-60.7-60.9-68.7
		c0,0-2.7-21.3,6.7-26.2c9.3-4.9,2-25.3-7-40c-9-14.7,7-39.6,16.4-41.3c9.3-1.8,20.9,5.3,32.4,0c11.6-5.3-5.8-20-2.2-25.3
		c3.6-5.3,5.8-10.2,11.1-10.2s30.7-7.1,48.4-20.4c0,0,9.8-0.9,23.6,8.9c13.8,9.8,8-26.2,19.1-32.9c11.1-6.7,35.6-12,40.4-14.7
		s9.3-3.1,16.4-3.1c7.1,0,7.1-15.1-1.8-15.1s-18.7-0.4-13.8-7.1c4.9-6.7,13.3-6.2,18.7-6.2c5.3,0-13.3-28.4-51.1-34.7
		s-100.4,8.4-108.4,8.9c-8,0.4-27.6-12.9-55.6-6.2c0,0,0,12.9,6.7,18.2c6.7,5.3-10.7,9.8-12,29.8c0,0,11.1-2.2,16.4-6.2
		c0,0-33.3,49.8-31.6,75.1c1.8,25.3-7.1,49.8-24,65.8c0,0,1.3,5.8,7.6,5.3c6.2-0.4-7.3,9.3,11,5.8c0,0,1,31.1,3.7,42.7
		c2.7,11.6,2.7,24-7.1,54.2c-9.3,28.6,2.6,40.5,10.7,49.2c0.7,0.7,1.9,0.7,2.5-0.1C173.2,418.9,180.7,411.1,196.1,403.6z"/>
	<path class="st5" d="M384.7,118.7c1.9-2.5-13.1,2.9-15.1,10.9s-0.2,7.6,11.3,4.4c11.6-3.1,22.9,2.4,22.9,2.4s4.4-7.8-14.1-9.1
		C389.7,127.4,377.2,128.5,384.7,118.7z"/>
	<path class="st6" d="M335.4,88.7c0,0,22.7,0.4,26.4,10.9c3.8,10.4-6,14-17.1,13.6c-11.1-0.4-15.9-13.8-0.7-23.6"/>
	<g>
		<path d="M353.6,112c0.9,0,1.5,0.1,1.8,0.8c1.9,4.4,2.1,9.2,1.8,13.8c-0.1,1.6-0.3,3.3-0.6,4.9c-0.1,0.5-0.6,0.9-1.2,0.8
			c-0.4-0.1-0.8-0.4-0.8-0.9c-0.9-5.6-0.9-11.5-3.1-16.7c-0.2-0.3-0.1-0.6,0.6-1.3L353.6,112C353.5,112,353.6,112,353.6,112
			L353.6,112z"/>
	</g>
	<circle class="st7" cx="348.5" cy="102.1" r="4.3"/>
	<path class="st7" d="M355.7,141.2c0,0-26.7,2.2-43.6-12.2"/>
	<path class="st7" d="M301.4,109.9c0,0-0.4,9.6,1.1,17.8"/>
	<path class="st7" d="M306.5,131.4c0,0,5,12.9,37.7,18.7"/>
	<path class="st7" d="M301.3,137.4c0,0,3.4,10.2,17.2,15.8"/>
	<path class="st7" d="M313.6,158.7c0,0-18.2,12.2-20,18.4c-1.8,6.2,3.9,8.5,3.9,8.5"/>
	<path class="st7" d="M306.5,183.9c0,0,10.4-14,15.3-21.3"/>
	<path class="st7" d="M315.8,189.1c0,0,9.6-17,14.3-25.5"/>
	<path class="st7" d="M200.1,122c0,0,6.2-6.9,20.4-4.9"/>
	<path class="st7" d="M195.8,109.9c0,0,14-2.9,22,0"/>
	<path class="st7" d="M200.1,99.2c0,0,22.9-1.8,30,2.9"/>
	<path class="st7" d="M197.2,89.9c0,0,8.4-5.8,19.3-1.1c10.9,4.7,22,4.2,22,4.2"/>
	<path class="st7" d="M239.7,414.6c0,0-28.5-45.2-41.4-55.6"/>
	<path class="st7" d="M219,408.7c0,0-7.6-25.3-22.2-40.9"/>
	<path class="st7" d="M205.8,405.6c0,0-2.4-20.5-16.4-35.8"/>
	<path class="st7" d="M195.2,404.1c0,0-14.7-20-20-42.4"/>
	<path class="st7" d="M178.5,357.6c0,0,9.3,2,16.7-8.9"/>
	<path class="st7" d="M185.8,409.4c0,0-18.6-20.2-17.5-45.5"/>
	<path class="st7" d="M174.1,418.3c0,0-13.4-24.7-10.7-48.5"/>
	<path class="st8" d="M180.1,350.3c0,0-4.8-19.1-3.1-31.8"/>
	<path class="st7" d="M174.1,310.1c0,0-4-40.7,5.3-76.4c9.3-35.8,18.9-69.6,41.1-86.9s47.4-36.7,80.8-44.7"/>
	<path class="st7" d="M197.2,202.5c0,0,4-12,8.7-17.8"/>
	<path class="st7" d="M220.5,167.2c0,0,10.7-14.2,20.9-17.1"/>
	<path class="st7" d="M212.3,165.4c0,0,4.4-5.8,8.2-6.7"/>
	<path class="st7" d="M230.1,145.3c0,0,30.2-23.6,60.9-32.1"/>
	<path class="st7" d="M294.7,119.4c0,0,0.9,5.5,3.6,9.8"/>
	<path class="st7" d="M163,248.5c0,0,10-12.7,11.6-22"/>
	<path class="st8" d="M171.8,223.4c0,0,14.2-76.1,46.9-99.1"/>
	<path class="st7" d="M142.3,265c0,0,11.1-4,18.6-11.1"/>
	<path class="st7" d="M150.1,269.2c0,0,6.9-1.8,12.9-7.8"/>
	<path class="st7" d="M151.6,276.3c0,0,8.7-4.2,13.6-11"/>
	<path class="st7" d="M221.8,218.7c-0.9,4.9-16,20.7-16,20.7"/>
	<path class="st7" d="M218.7,240.8c0,0,8.2-7.4,11.3-20.1"/>
	<path class="st7" d="M230.1,242.5c1.1-1.7,6.7-6.6,4.9-17.7"/>
	<path class="st7" d="M224.4,204.3c0,0,8.9,8.4,16.7,8.5"/>
	<path class="st7" d="M243.8,206.1c0,0-2.5-2.9-2.7-5.3"/>
	<path class="st7" d="M306.5,94.1c0,0,6.8-8,16.4-10.9"/>
</g>
<g id="g1151" transform="matrix(0.93131087,0,0,0.90477626,-22.643225,-19.582118)">
	<path id="tressure" class="st9" d="M50,50v209c0,214.6,192,319,250,345.7C358,578,550,473.6,550,259V50H50z M75,75h450v184
		c0,188.8-161.2,286.7-225,318.1C236.2,545.7,75,447.8,75,259V75z"/>
</g>
<radialGradient id="shine_00000016786157808949311200000013323638071799504295_" cx="339.2411" cy="296.6019" r="405" gradientTransform="matrix(0.855 0 0 -0.8509 -101.6929 438.8463)" gradientUnits="userSpaceOnUse">
	<stop  offset="0" style="stop-color:#FFFFFF;stop-opacity:0.3"/>
	<stop  offset="0.2" style="stop-color:#FFFFFF;stop-opacity:0.2"/>
	<stop  offset="0.6" style="stop-color:#666666;stop-opacity:0.1"/>
	<stop  offset="1" style="stop-color:#000000;stop-opacity:0.13"/>
</radialGradient>
<path id="shine" style="fill:url(#shine_00000016786157808949311200000013323638071799504295_);stroke:#000000;stroke-width:2.5587;" d="
	M2,1v218.7C2,463,256.8,558.3,256.8,558.3S511.5,463,511.5,219.7V1H2z"/>
</svg>
