<?xml version="1.0" encoding="UTF-8" standalone="no"?>
<svg
   viewBox="0 0 483 527.48"
   version="1.1"
   id="svg42872"
   sodipodi:docname="House Mormont GoT Rampant Variant.svg"
   inkscape:version="1.2.1 (9c6d41e410, 2022-07-14)"
   xmlns:inkscape="http://www.inkscape.org/namespaces/inkscape"
   xmlns:sodipodi="http://sodipodi.sourceforge.net/DTD/sodipodi-0.dtd"
   xmlns="http://www.w3.org/2000/svg"
   xmlns:svg="http://www.w3.org/2000/svg">
  <sodipodi:namedview
     id="namedview42874"
     pagecolor="#ffffff"
     bordercolor="#000000"
     borderopacity="0.25"
     inkscape:showpageshadow="2"
     inkscape:pageopacity="0.0"
     inkscape:pagecheckerboard="0"
     inkscape:deskcolor="#d1d1d1"
     showgrid="false"
     inkscape:zoom="1.12203"
     inkscape:cx="170.22717"
     inkscape:cy="252.22141"
     inkscape:window-width="1920"
     inkscape:window-height="1017"
     inkscape:window-x="-8"
     inkscape:window-y="-8"
     inkscape:window-maximized="1"
     inkscape:current-layer="svg42872" />
  <defs
     id="defs42670">
    <style
       id="style42668">.cls-1{fill:#d9d99f;}.cls-2{fill:#264a1d;}.cls-3{fill:#8f120d;}.cls-4{fill:#8e0c09;}.cls-5{fill:#8d0c09;}.cls-6{fill:#8a0e0a;}.cls-7{fill:#90100c;}.cls-8{fill:#8f0e0a;}.cls-9{fill:#8e0e0a;}.cls-10{fill:#8d0b08;}.cls-11{fill:#8d110c;}.cls-12{fill:#90130e;}.cls-13{fill:#8f1610;}.cls-14{fill:#8c0907;}.cls-15{fill:#8e120d;}.cls-16{fill:#8e1711;}.cls-17{fill:#931f17;}.cls-18{fill:#8b0e0a;}.cls-19{fill:#8a0c09;}.cls-20{fill:#0d0d0a;}.cls-21{fill:#d7d79e;}.cls-22{fill:#090906;}.cls-23{fill:#0a0a07;}.cls-24{fill:#cfcf97;}.cls-25{fill:#99291e;}.cls-26{fill:#9e3728;}.cls-27{fill:#b77b5a;}.cls-28{fill:#b4b484;}.cls-29{fill:#a03d2c;}.cls-30{fill:#9b2e21;}.cls-31{fill:#d8d89f;}.cls-32{fill:#1b1b14;}.cls-33{fill:#b0684c;}.cls-34{fill:#941c15;}.cls-35{fill:#bd8c66;}.cls-36{fill:#cac893;}.cls-37{fill:#7d0000;}.cls-38{fill:#700;}.cls-39{fill:#600;}.cls-40{fill:#5a0000;}.cls-41{fill:#9d3426;}.cls-42{fill:none;stroke:#000;stroke-width:3px;}</style>
    <radialGradient
       id="rg"
       gradientUnits="userSpaceOnUse"
       cx="220"
       cy="220"
       r="405"
       gradientTransform="matrix(0.80510068,0,0,0.80302287,-0.03015629,-0.89702461)">
      <stop
         style="stop-color:#ffffff;stop-opacity:.3"
         offset="0"
         id="stop753" />
      <stop
         style="stop-color:#ffffff;stop-opacity:.2"
         offset=".2"
         id="stop755" />
      <stop
         style="stop-color:#666666;stop-opacity:.1"
         offset=".6"
         id="stop757" />
      <stop
         style="stop-color:#000000;stop-opacity:.13"
         offset="1"
         id="stop759" />
    </radialGradient>
  </defs>
  <title
     id="title42672">House Mormont</title>
  <g
     id="Layer_2"
     data-name="Layer 2">
    <path
       class="cls-1"
       d="M927,122.76V328.6a314.37,314.37,0,0,1-2.28,38c-.11.93-.24,1.86-.36,2.79s-.24,1.86-.39,2.79q-.7,5.05-1.61,10c-.07.44-.15.87-.23,1.31-.15.8-.29,1.6-.45,2.39s-.34,1.8-.51,2.69l-.45,2.22-.24,1.16c-.15.71-.3,1.44-.47,2.15q-.8,3.55-1.61,7l-.58,2.32-.52,2q-1.52,5.88-3.27,11.61c-.29,1-.59,1.94-.9,2.92l-.6,1.88c-.19.63-.39,1.25-.6,1.86l-1.1,3.26c-.37,1.09-.68,2-1,3-.47,1.28-.92,2.55-1.39,3.81-.36,1-.73,2-1.11,3l-.19.49c-.43,1.14-.87,2.25-1.32,3.37s-.87,2.16-1.32,3.19a3.35,3.35,0,0,1-.18.42c-.4,1-.8,2-1.25,3s-.75,1.75-1.13,2.62l-.66,1.49c-.47,1.07-.95,2.12-1.44,3.15s-.9,2-1.36,2.93l-1,2.12c-.3.63-.6,1.25-.91,1.88-.63,1.32-1.31,2.64-2,4q-2.53,5-5.19,9.77l-2,3.57-.11.21q-2.13,3.71-4.33,7.33c-.71,1.2-1.46,2.39-2.18,3.54-.1.16-.19.31-.3.46-.55.89-1.12,1.78-1.69,2.66l-.66,1c-.65,1-1.31,2-2,3l-.13.18c-.66,1-1.32,2-2,3l-.45.67q-2.26,3.28-4.54,6.46l-.31.42c-.8,1.07-1.54,2.14-2.31,3.19s-1.66,2.23-2.5,3.32q-2.29,3-4.61,6l-.8,1c-.73.93-1.48,1.85-2.22,2.76L854,526.61l-.57.69L851,530.1q-2.83,3.32-5.72,6.53c-.75.85-1.52,1.69-2.29,2.51l-2.22,2.39q-3,3.19-5.93,6.24-2.76,2.83-5.53,5.59c-.91.91-1.84,1.82-2.76,2.71s-1.85,1.78-2.78,2.67l-2.28,2.11c-.68.65-1.36,1.28-2.05,1.91a448.64,448.64,0,0,1-61.76,47.47c-.86.55-1.73,1.1-2.58,1.6q-6.42,4.07-12.46,7.63l-2.41,1.4-2.36,1.36-2.34,1.35-2.22,1.28c-8.35,4.68-15.91,8.59-22.38,11.76l-1.61.8c-10.63,5.15-18.11,8.22-21,9.35l-.42.18-.61.23-.14.06h-.08l-.23-.1-.21,0-1.07-.42-.55-.23c-.87-.34-2-.8-3.36-1.38l-.47-.18c-1.76-.8-3.88-1.67-6.33-2.77l-1.39-.61a443.16,443.16,0,0,1-39.74-20.6c-.8-.45-1.61-.92-2.36-1.38a473.14,473.14,0,0,1-44.78-30l-2.62-2c-1-.75-2-1.52-2.95-2.29l-2.81-2.21c-6.19-4.92-12.43-10.15-18.64-15.69L558.08,566q-2.3-2.05-4.59-4.2l-1.67-1.57L550,558.54l-2-1.94c-1.12-1.07-2.24-2.16-3.34-3.26-.84-.8-1.69-1.67-2.52-2.51l-.24-.26q-1.25-1.25-2.5-2.51c-.66-.68-1.32-1.36-2-2l-2-2.07-.13-.15-2.1-2.24q-3.36-3.61-6.66-7.36c-.68-.8-1.36-1.55-2-2.35-.57-.65-1.12-1.28-1.66-1.94l-2-2.39q-4.26-5.11-8.39-10.48-1.13-1.45-2.24-2.92c-1.89-2.47-3.73-5-5.57-7.55l-1.68-2.39c-.13-.16-.24-.34-.36-.5-.59-.85-1.19-1.7-1.77-2.55-.95-1.38-1.89-2.77-2.82-4.17q-1.11-1.64-2.18-3.31l-.15-.24-2.22-3.47c-.07-.13-.15-.24-.22-.37-.71-1.14-1.41-2.27-2.1-3.4s-1.49-2.46-2.21-3.7-1.44-2.39-2.13-3.67q-4.6-8-8.77-16.47c-.35-.69-.69-1.38-1-2.08-.22-.44-.44-.89-.65-1.35-.43-.87-.8-1.75-1.25-2.63a27.17,27.17,0,0,1-1.15-2.47l-.23-.48c-.26-.58-.52-1.16-.8-1.75l-.26-.57c-.26-.58-.52-1.18-.8-1.77q-1.44-3.26-2.78-6.58c-.42-1-.8-2-1.23-3.07-.1-.26-.21-.53-.31-.8-.4-1-.8-2-1.16-3s-.68-1.82-1-2.74l-.23-.65c-.18-.45-.34-.91-.5-1.36q-1-2.69-1.89-5.44c-.21-.6-.4-1.21-.6-1.8-.26-.8-.51-1.54-.75-2.31-.14-.42-.26-.8-.39-1.22-.26-.8-.5-1.6-.75-2.39-.31-1-.61-2.06-.92-3.1-.18-.65-.39-1.28-.57-2-.37-1.28-.74-2.58-1.08-3.89-.19-.68-.37-1.35-.55-2-.13-.5-.26-1-.39-1.51-.32-1.22-.63-2.46-.92-3.7-.18-.7-.35-1.4-.52-2.11-.07-.29-.13-.57-.19-.85-.37-1.55-.71-3.11-1.07-4.69-.26-1.16-.5-2.33-.74-3.5-.14-.71-.29-1.43-.43-2.14s-.32-1.6-.47-2.45a2.13,2.13,0,0,0-.1-.47c-.15-.8-.3-1.64-.45-2.48s-.31-1.84-.47-2.77-.3-1.8-.45-2.71q-.87-5.52-1.56-11.17A314.73,314.73,0,0,1,447,328.58V122.76Z"
       transform="translate(-445.5 -121.26)"
       id="path42674" />
  </g>
  <g
     id="Layer_4"
     data-name="Layer 4">
    <rect
       class="cls-2"
       x="1.5"
       y="1.5"
       width="480"
       height="57.05"
       id="rect42677" />
    <path
       class="cls-2"
       d="M776.49,596.35v1.18q-9.24,6.6-18.82,12.71c-.86.55-1.72,1.1-2.57,1.6q-6.43,4.06-12.47,7.63l-2.41,1.4-2.36,1.37-2.33,1.34-2.23,1.29c-8.34,4.68-15.9,8.59-22.38,11.76l-1.6.8c-10.64,5.15-18.12,8.22-21,9.35l-.42.17-.61.24-.14,0h-.08l-.23-.09-.21,0-1.07-.42-.54-.23c-.87-.34-2-.8-3.37-1.38l-.46-.18c-1.76-.8-3.89-1.67-6.33-2.77l-1.39-.61a442.25,442.25,0,0,1-39.75-20.6c-.8-.44-1.6-.92-2.35-1.38q-18.3-10.8-35.57-23.2H776.49Z"
       transform="translate(-445.5 -121.26)"
       id="path42679" />
  </g>
  <g
     id="Layer_5"
     data-name="Layer 5">
    <path
       d="M564.2,264.36l2.66-.49c2.86-.77,5.1-3.4,8.41-2.85,1.4,1.32,3.28,1.23,5,1.69,6,8.27,2.88,18.55,6.06,27.45a13.85,13.85,0,0,1,.31,3c.41,3.59,2.86,6.72,5.71,7.05,3,.35,2.36-4,3.39-6.24a15.45,15.45,0,0,0,.72-2.91c1-.52-.06-3.07,2.25-2.4a7.07,7.07,0,0,1,.07,4.84c-1.32,2.45.08,5.23-.94,7.71-.35,1.94-1.28,4.29,1.78,4.71,2.31.31,2.08-1.91,2.52-3.35a28.1,28.1,0,0,1,4.19-9.23V302c1,1-2.49,19,2.35-.75.23-1,1.61,4.52,2.05,5.4a49.44,49.44,0,0,1,3.21,8.72c4.84-3.75.83-10.36,4.84-14.27,4.15,5.37.37,11.19,1.7,16.74,2.48-.32,2.65-2.63,4.06-3.5,3.24-.39.91,3,2.49,3.7,1,4.07,3.76,4.55,7.24,3.61,1.45-.81,1.87.71,2.75,1.2,1.39.92,2.21,2.89,4.37,2.41s-.34-4.18,2.86-3.59c1.9,1.41,4,2.43,6.16.92,1.89-1.33,1.17-3.13.2-4.87-.81-1.46-6.36-7.14,1.47-2.51,4.28,2.53,8.15-.74-1.42-9.54,2.33-2.15,17.37,8.53,9.78-4.72,3.81,1.75,5.72,5.54,8.88,3.78,2.78-1.54.78-5.46,2.82-7.7,2,.27.52,2.63,2.33,3.37a44.37,44.37,0,0,0,3.87-4.16c1.81-2.48,2.44-5.45.41-7.91-2.18-2.64-4.86-.91-7.17.3a32.36,32.36,0,0,0-6.19,3.81c-1.63,1.4-2.76,3.4-4.09,5.1-2.42-.37,1-4.78-2.85-3.74-2,.55-3.35,2.22-4.79,3.66s-2.92,2.72-4.45,4.13c-.35-.62-.75-1.09-.67-1.2,4.15-5.35,4.95-10.38-1.2-14.93-.56-.42-.69-1.42-1-2.15.85-3.52,3.46-3.59,6.3-3.2,8.58,2.51,13.57.87,16.42-5.62,2-4.54,2.34-9.13-1-13.25-4-4.89-9-3.61-14-2-6.15,1.77-10.06-1.45-13.39-6a17.43,17.43,0,0,1-1.42-1.16c-2.73-2.75-7.82-5.18-4.77-9.73,2.77-4.14,7.93-5.5,13.05-4,10.65,3.17,16.57,1.53,23.7-6.77,2-2.31,3.87-5,6.38-6.53,4.84-3,7.5-7.29,8.73-12.86,2.31.19,2.33,4.58,4.34,3,2.26-1.75,3.78-2.06,6.08-5.6.69-1.06,1.66,2.71,3.25,3.16,2.06.58,4.69-2.07,5.69-3.6,1.59-.45,1.41.75,1.53,1.65.15,1.15.09,2.49,1.93,2,1.46-.58,3.13-5.44,4.26.38.43,2.21,2,.88,3.27.2,8.47-4.6,8.62-4.67,14.39,3.48,1.59,2.25,2.34.39,3.32,0,10.76-4.53,14.49-2.34,14.59,9,0,3,.91,3.94,3.78,3.89,3.6-.06,7.2.31,10.4,3.26-4.2,1.12-9.34-.48-11.09,4.16-1,2.56-.74,6,3.24,7.51,2.53.94,4.73,2.79,7.52,4.51-3.28,2.32-6.73-.38-9.61,2.1,2.15,3.07,6.35,4.78,7,9-.32.12-.71.43-.94.33-2.67-1.15-5.72-4.21-8.19-1.75-3,3,1,5.35,2.52,7.77a13.2,13.2,0,0,1,1.88,6.79,47.28,47.28,0,0,0-4.08-3.22c-1.06-.66-1.8-2.89-3.39-1.53s-1.62,3.1-.26,4.91c1.56,2.08,3.44,4.14,2.64,7.15-.41,0-.85.09-1.13-.08-2.08-1.21-3.21-5.17-6.26-3.34-3.44,2.06-.67,4.6.17,7.2.7,2.19,2.67,4.64,1.11,7.27-2.91,0-1.72-5.8-5-3.91-2.27,1.31-3,4.74-3.44,7.57s1.18,4,3.78,4.21c.83.47,1.66.94,1.67,2.06a3.34,3.34,0,0,0,0,1.27c.73.75,2.37.81,1.89,2.47a10.26,10.26,0,0,0-5.52,2.26c-2.83,2.61-7,4.7-2.09,9.49,1.91,1.88,2.13,5.47,3.4,9.09-2.87-1-3.52-4.07-6.25-4-2.1,5.84,5.46,6.91,5.76,11.49.14,2.37-1.35,1.79-2.69,1.49-2.23-.11-3.48.75-3.33,3.17.26,4.2,2.88,6,7,6.12-1.1,2.75-5.54,3.19-4.1,6.26,1,2.11,3.67.27,5.59.26.3-.26.62-.45.83-.32.57.35.34.82.1,1.27a19.26,19.26,0,0,0-2,1.33c-1.29,1.1-3.77,1.34-3.45,3.65s3.36.37,4.49,2.39c-1.41,2.66-6.51,4.61-2.46,8.83.73.94,3.29,0,2.54,2.47-1.89,4.83,2.43,3.31,4.34,4.21-.88,2-2.89,3.86-1.23,6.19,2.06,2.89,4.9.14,7.32.62.56,2-1.4,2.22-2.16,3.22s-1.94,3.54-1.16,3.44c6.78-.88.39,8.58,6.27,7.76,2-.27,3.79-1.36,7-2.56-1.73,2.64-2.83,4.34-4,6-.75,1.14-2.19,2.24-.86,3.69s2.64.42,4-.08c1.21,1.18.16,2.92,1,4.19l1.49,2.29c1.8,1.77,4.55-.37,6.31,1.53-.33,3.37,2.09,2.81,4.1,2.87,1.18.3,3.14-.76,3,1.76-1.57,1.68-5.13,2.57-4.23,5.23,1.07,3.16,4.69,3.3,7.72,3.58,1.16,1.15-1,2.4.11,3.56,3.43,3.4,8.64,3.23,12.31,6.16.18,1.17-.06,1.87-1.44,1.27-2.5.6-4.36-1.68-6.76-1.51a6.59,6.59,0,0,0-3.83-.34c.1.72.89,1,1.1,1.6l-.22.28c.29,1.11.07,1.69-1.22,1.21-5.57-1.43-10.27-4.72-15.34-7.23-4.31-2.14-6.6-.89-6.38,4,.31,6.68.62,13.49,8.8,16.15a17.75,17.75,0,0,1,6.63,4.15c2.68,2.62,8.49,1,8.86,7.34.1,1.79,5.58,3.28,8.59,4.9,1.19,1.77-2.68,1.77-1.26,3.62l6,5.08c1.24,2.43-5.22,1.33-2.12,4.61l9.73,7.42q.45.41.27.79t-.34.37c-1.75.15-4.19-1.43-4.54,2.1-.22,2.26.09,3.8,2.45,4.82,3.48,1.51,7,3.05,9.66,7.36-1.94-.51-3.23-1-4.54-1.2-6-1.08-9.33,2.8-7.47,8.57.3.94.58,1.88.87,2.82a6.18,6.18,0,0,1,.12,4.87c-2.48.17-1.53,2.81-2.78,3.87l-1.3,7c-1,1.18-2.44-1.23-3.41.38l-2,4.16-2-6.85c-2.49,1.91-4.86,3.87-3.58,6.56,2.18,4.6-.46,6.11-3.69,7.9-3.71,2.06-7.58,4-9.89,7.86-2,.35-3.84-.76-5.81-.48a10.82,10.82,0,0,1-3-.89c-2.13-.62-4.71.09-6.33-2.09-1.18-1.81-3.23-2.56-4.79-3.91-1-1.76-1.87-3.54-1-5.62l1.84-2.42a14.75,14.75,0,0,0,4.41-7.81c3.49-4.71,5.49-9.83,4.95-15.85-.58-6.41-2.64-7.69-8.5-4.89a1,1,0,0,1-.42-1q.12-.54.28-.54a14.12,14.12,0,0,0,1.38-2c1-2.08,5-3.32,2-6.53-2.67-2.84-5.46-1.91-8.21-.06a10.47,10.47,0,0,1-4.72,2c.93-1.89,1.82-3.79,2.79-5.65.76-1.45,2-3.23.58-4.43s-2.85.71-4.12,1.55a12.68,12.68,0,0,0-1.75,1.69c-1.28.35-1.65-.42-1.79-1.46-.19-2.5.35-5-.44-7.52l-1.6-2c-2.89.49-1.46,2.3-1.15,3.76-.14,1.29-.52,2-1.66.64A26.29,26.29,0,0,1,729.6,473c-2,.19-1.68,1.9-2.15,3.09-2.88.07-3-2.23-3.64-4.15a10.74,10.74,0,0,0-1.35-5.29c.19.58.26,2,.27,1.45,0-.25.55.45.66.89a3.28,3.28,0,0,1,0,2.17c-.45.77-1.07,1.59-2.07,1.17l-3.92-6.56-1.21,9.46c-1.72-1.92-.68-4.7-2.75-6-1.81,2.6-.66,5.33-.62,8,.71,2.47,1.48,5.3-.38,7.23s-2.33,1.7-2.28,4L709,494.37c-1.39.76-1.73-.61-2.45-1.2-4.33-1-3.39,3.27-4.9,5-1.66,1.92-1,4.61-1.07,7,0,2.59,2.26,5.54-1.24,7.55-.52-1.19,0-3.2-1.94-3.26-1.27,0-1.86,1.38-2.36,2.46-1.72,3.76-1.21,7.9-2,11.83-1.66,1.31,1.15,4.91-2.63,5.14-5.35,6-4.47,13.33-4.52,20.47.37,1.31-.21,1.66-1.41,1.39-1.63-1-3-1.23-3.75,1.06-1.53,4.83-5.61,5.73-9.76,5.7-9.34-.05-18.69-.38-28-.85-4-.2-6.39-3.23-8.76-6.07a30.81,30.81,0,0,1-4-4.74c-.73-2-.77-4.21-1.67-6.18a7.67,7.67,0,0,1-.36-1.66,4.64,4.64,0,0,1,1-3.24l1.64-2.83c1.52-2,3.14-3.66,5.93-2.15,7-.34,13.71,1.67,20.5,3,6.26,1.21,11.2-3,11.13-9.42,0-3.56.28-7.06.33-10.59.07-6-1.18-6.66-7.12-3.47l2.24-16.22c-3.95.88-3.88,4.88-6.4,7-2.34-8.66,2.14-16,3.69-23.7-3.46-.56-3.07,3.48-5.85,3.59.59-6,2.21-11.55,6.26-16.19,1.27-1.45,3.89-2.57,3-4.79-1.08-2.69-3.66,1.21-5.25-.52,2.83-5.79,7.79-9.8,12.35-14.06,2-1.9,2.52-3.48,1.27-5.78-.94-1.73-1.29-4.4-3.75-4.25-2.2.14-3,2.5-3.91,4.33s-1.74,4-3.92,5.63c1.13-4.07,1.74-8.39,3.51-12.16,2.12-4.52.43-4.73-3.31-4.21-2.95.41-6,1.31-9.94-.37,3.57-1.42,6.17-3,8-5.73,1.69-2.51.2-4.72-.9-6.15-1.57-2-2.32.9-3.47,1.58-1.15.29-1.74,0-1.32-1.29.24-.55.52-1.09.71-1.66.69-2.1,4.66-3.65,2.18-6.1-3-3-3.66,2.44-6.15,2.52-1.11-1.56,2.2-4.43-1.72-5.47-2-.53-.41-1.8.47-2.34,3.39-2.07,3.62-5.05,2.5-9.13-4,2.9-6,7.74-11,9.64.75-3.36,3.67-5.51,3.77-9.14-5.64-.13-6.18,5.48-9.14,8.21-1,1.34-2,2.6-3.85,1.29-3.24,1.39-4.61,4.36-6.1,7.22-2.18.63-1.28-1.92-2.44-2.36-.4,0-1.06-.07-1.17.13-4.48,8-13.76,9.87-20,15.69-5,4.63-11.53,4.42-17.88,2.37-1.82-.59-3.8-.63-5.54-1.53-1.83-1.36-4.24-1.61-6-3.15a22.77,22.77,0,0,1-2.8-6.69,4.88,4.88,0,0,1,.43-4.62l1.59-3.33c1.61-2.38,4-3.14,6.72-3.33,6.49-2.3,13.82-2.61,18.94-8.1,0-3.1-2.41-.83-3.46-1.59-1.64-.59-4.22,1.47-4.92-1.75,7.89-3,18-2.37,21.47-13.18-.74-1.62-3.1-.44-4.4-1.58-.64-.69-2-1-1.21-2.43a7.57,7.57,0,0,1,5.91-.73A5.42,5.42,0,0,0,618,371c.93-3.39-3.36-2.35-5.1-3.66a9.26,9.26,0,0,0-2.4-.85c3.34-1.78,6.69-2.14,10.09-2.39.54-3-2.45-2.89-3.49-4.38a5.79,5.79,0,0,0-6-.05h0c-2.17.37-4.56,1.91-6.1-1.14,1.53-1.11,5.29-.25,4.32-3.41-.78-2.55-3.88-2-5.95-1.27-4.11,1.36-7.89.48-12.12-.5,2.07-2.44,4.52-1.79,6.63-2.21,1.55-.31,3.78,0,4-1.87s-2-2.27-3.3-3.16c-3.79-2.6-8.11-2.32-12.39-2.35-2.34,0-4.73.64-7.56-.76,3.42-2.57,8-.63,10.71-3.77-4.69-5.69-12-3.47-19.18-5.59l9.93-2.13c-2.11-2.9-3.9-5.52-5.85-8-1.12-1.42-3.12-1.84.06-4,2.77-1.87-.24-4.19-2.43-4-4.55.49-8.53-2.33-13.42-1.19,7.45-8.33,3.55-19-1.24-26.68-2.7-4.31-5.79-8.4-6.14-13.74.85-2.66,2-5.16,4.35-6.84l2.72-.81C560.17,265.57,562.22,265.08,564.2,264.36Z"
       transform="translate(-445.5 -121.26)"
       id="path42682" />
    <path
       class="cls-3"
       d="M640.61,253.24c4.12,2.75,8.22,5.56,13.39,6l-3.18,7.24c-2.85-.12-.72-3.16-2.36-4-1.86.92-1.41,3.28-2.85,4.63-2.77-.83-1.19-4.06-3.16-5.55-1.79.58-.41,3.47-2.74,4C638.22,261.28,639.4,257.26,640.61,253.24Z"
       transform="translate(-445.5 -121.26)"
       id="path42684" />
    <path
       class="cls-4"
       d="M580.24,262.71c-1.69.42-3.5,1.7-4.82-.64-.22-.65-.93-1-1.1-1.66,2.59-8,2.24-8.85-5.44-12.09a7.91,7.91,0,0,1,9.75-.21c3,2,3.78,5.17,3,8.67C581.22,258.77,580.71,260.73,580.24,262.71Z"
       transform="translate(-445.5 -121.26)"
       id="path42686" />
    <path
       class="cls-4"
       d="M756.69,525.12c2,4.59.25,7-4.41,7.82-.72-6.27-5.67-6.07-10.12-6.63a3.37,3.37,0,0,1-3.77-.07c3.42-5.45,8.18-5.58,13.5-3.37C753.52,523.55,755.09,524.37,756.69,525.12Z"
       transform="translate(-445.5 -121.26)"
       id="path42688" />
    <path
       class="cls-5"
       d="M574.32,260.41l1.1,1.66c-1.78-.74-3-.37-4,1.45-1.24,2.38-2.94,1.49-4.56.35-.76-6.94-3-9-12.42-11.32,8.27-3.93,11.41-3,16.15,4.75C571.49,258.79,571.76,260.94,574.32,260.41Z"
       transform="translate(-445.5 -121.26)"
       id="path42690" />
    <path
       class="cls-6"
       d="M751.93,540.92c2.27.31,5,0,5,3.52.29,1.34-.26,1.79-1.55,1.48-5.15,2.06-11.79,2-12.9,9.71-3.73-4.66-3.09-6.59,2.34-10.54,1.19-.87,5.58-.05,3-4C749.15,539.77,750.52,539.94,751.93,540.92Z"
       transform="translate(-445.5 -121.26)"
       id="path42692" />
    <path
       class="cls-7"
       d="M564.2,264.36c-1.34,2.66-2.94,4.56-6,2-1.83-7.26-7.66-7.26-13.61-7.24,5.69-4.81,10.42-4.75,15.32.17C561.47,260.83,562.77,262.66,564.2,264.36Z"
       transform="translate(-445.5 -121.26)"
       id="path42694" />
    <path
       class="cls-8"
       d="M636.79,529.81,630.86,532c-2.13-6.72-5.93-5.22-10.46-2,.6-4.11,2.3-6.88,6.56-7.56C632.76,521.53,635.73,524.39,636.79,529.81Z"
       transform="translate(-445.5 -121.26)"
       id="path42696" />
    <path
       class="cls-9"
       d="M555.48,267.13c-.83,2.68-1.35,5.54-4.35,6.84-3.88-3.26-7.7-6.66-13.43-6.4C543.67,263.89,549.53,263.16,555.48,267.13Z"
       transform="translate(-445.5 -121.26)"
       id="path42698" />
    <path
       class="cls-10"
       d="M765.43,547.12c2.52-2.27,4.16-.34,5.88,1.23-.15,2-1.65,3.17-2.94,4.39-2.73,2.57-5,5.27-3.76,9.65-4.5-3-4.7-7-3-11.52,0-.27.1-.53.14-.8A5.74,5.74,0,0,1,765.43,547.12Z"
       transform="translate(-445.5 -121.26)"
       id="path42700" />
    <path
       class="cls-11"
       d="M570.23,410.89l.12,5.09-.78,0c-4.9-.44-9.81-3.09-14.68.09-2.3.13-2.19-1.05-1.41-2.6C558.36,408.2,564.28,409.47,570.23,410.89Z"
       transform="translate(-445.5 -121.26)"
       id="path42702" />
    <path
       class="cls-4"
       d="M751.93,540.92l-4.08.19c-3.65.14-7.3.23-10.65,2-1.09.59-2.24,2.59-3.44.63-1-1.57.07-3.26,1.57-4.12a20.91,20.91,0,0,1,5-2c3.33-.87,6.71-1.53,10.07-2.27C751.25,537.13,752.64,538.74,751.93,540.92Z"
       transform="translate(-445.5 -121.26)"
       id="path42704" />
    <path
       class="cls-12"
       d="M630.88,545.61c2.53.72,3.11,2.75,3.35,5-5.29,1.26-9.8,3.38-10.18,10-4.69-5.15-3.19-8.75,5.23-13.58C629.86,546.61,630.07,545.77,630.88,545.61Z"
       transform="translate(-445.5 -121.26)"
       id="path42706" />
    <path
       class="cls-13"
       d="M630.88,545.61l-1.61,1.4c.66-2.07,0-2.56-2-1.93-4.39,1.35-7.63,4.18-10.92,9.21-.52-7.8,4.55-10.14,8.22-13.4,1.36-1.22,2.84-2,4.73-1.24C632.8,540.81,630,543.7,630.88,545.61Z"
       transform="translate(-445.5 -121.26)"
       id="path42708" />
    <path
       class="cls-14"
       d="M755.37,545.93l1.54-1.48c1.61,2.33,4.4-.7,6.08,1.33,1.51,2-.41,3.18-1.06,4.66l-.34.44c-4.39-.23-5.88,3.68-8.5,6-.65.71-1,2-2.4,1.23C749.17,552.84,753.72,549.94,755.37,545.93Z"
       transform="translate(-445.5 -121.26)"
       id="path42710" />
    <path
       class="cls-15"
       d="M569.57,416l.78,0c2.51,1.27,2.84,3.61,2.94,6.05a2.08,2.08,0,0,1-2.85.16c-4.19-.56-7.55,1.39-10.82,3.6-1.36.17-2-.25-1.47-1.72C560.76,419.69,565.88,418.88,569.57,416Z"
       transform="translate(-445.5 -121.26)"
       id="path42712" />
    <path
       class="cls-12"
       d="M570.44,422.19l2.85-.16c2.74-.73,4.5.65,5.92,2.75.7,1.81.42,2.77-1.79,2.08-5.89-1.63-8.74,2.47-11.76,6.24-2.39.05-1.64-1.44-1.33-2.71C565.08,426.7,569.93,426.06,570.44,422.19Z"
       transform="translate(-445.5 -121.26)"
       id="path42714" />
    <path
       class="cls-16"
       d="M652.59,280.08c-1.82,1.62-4.76,1-6.3,3.21-1.64-2.39-4-6.05-6-9a.49.49,0,0,1,.67-.68C645.37,276.28,649.22,278.17,652.59,280.08Z"
       transform="translate(-445.5 -121.26)"
       id="path42716" />
    <path
       class="cls-17"
       d="M629.22,534.79l-.19,3.9a6.5,6.5,0,0,1-4.5.93c-2.62,0-5.31-.49-7.65,1.22-1.2.11-1.61-.35-1.1-1.5C619.08,534.35,624,534.23,629.22,534.79Z"
       transform="translate(-445.5 -121.26)"
       id="path42718" />
    <path
       class="cls-18"
       d="M578.53,404.23c-2.4.79-3.64,3.91-6.72,3.33l-3.54-1.48c-1.3-1.56-4.56,1.08-5-2.34C568.46,401.07,573.49,402.94,578.53,404.23Z"
       transform="translate(-445.5 -121.26)"
       id="path42720" />
    <path
       class="cls-19"
       d="M577.42,426.86c1.29-.09,1.69-1,1.79-2.08,2-.25,4-.31,4.9,2.1-4,2-6.87,5.37-9.53,8.88-2.37.1-2.25-1.22-1.6-2.83A10.6,10.6,0,0,1,577.42,426.86Z"
       transform="translate(-445.5 -121.26)"
       id="path42722" />
    <path
       class="cls-1"
       d="M710.14,488.49c-1.27-2.8-1.25-5.73-1-8.77,3.33-.17,1.46,3.14,3.17,4.25,1.14-2.25.29-4.54.45-6.74C716.6,482.09,712.53,485.09,710.14,488.49Z"
       transform="translate(-445.5 -121.26)"
       id="path42724" />
    <path
       d="M780,428.31c-2-1.13-.41-2.36-.11-3.56h17.73C791,427.38,784.69,423.8,780,428.31Z"
       transform="translate(-445.5 -121.26)"
       id="path42726" />
    <path
       d="M637,322.82l-2.75-1.2c-.86-2.19-.12-4.38-.67-6.75-3-12.81,2.45-.78,2.52-.42.51,2.75.71,4.25,1,6.57A11.1,11.1,0,0,1,637,322.82Z"
       transform="translate(-445.5 -121.26)"
       id="path42728" />
    <path
       class="cls-20"
       d="M699.33,512.74c2.19-2.22.6-5.07,1.24-7.55,2.44,3.94.85,8,1,12.62C698.6,516.27,699.17,514.43,699.33,512.74Z"
       transform="translate(-445.5 -121.26)"
       id="path42730" />
    <path
       class="cls-21"
       d="M738.45,303.3c0-1.6,1.35-1.26,2.28-1.52,1.49-.93,3-1.8,4.88-1.23-.54,1.91,8.25,1.68,1.17,5.1C744.48,303.18,741.07,304.65,738.45,303.3Z"
       transform="translate(-445.5 -121.26)"
       id="path42732" />
    <path
       class="cls-1"
       d="M724.7,471.16c.91,1.65.68,3.94,2.75,4.95-1.66,4.21-3.31.72-5,0,.87-1.48-.19-3.29.81-4.75A1,1,0,0,1,724.7,471.16Z"
       transform="translate(-445.5 -121.26)"
       id="path42734" />
    <path
       d="M690.44,528.91c2.36-1,.7-4,2.63-5.14v11l-.62.13Z"
       transform="translate(-445.5 -121.26)"
       id="path42736" />
    <path
       class="cls-22"
       d="M789.84,469.88c-2.31-2.16,1-2.36,1.26-3.62,2.35.47,4.63,1,5,4.59C793.88,470.46,792.12,466.53,789.84,469.88Z"
       transform="translate(-445.5 -121.26)"
       id="path42738" />
    <path
       d="M738.45,303.3c2.64,0,5.29-.22,7.91,0,2.39.18,1,1.43.41,2.36l-3.6-.08C742.11,303.75,739.2,305.78,738.45,303.3Z"
       transform="translate(-445.5 -121.26)"
       id="path42740" />
    <path
       d="M589.09,392.79c1.68,2.18,4.18.35,6.11,1.26q.52.49.22.74a.74.74,0,0,1-.5.19c-2.24.07-4.48.18-6.72.21-1,0-2.43,0-2.17-1.33C586.33,392.33,587.89,392.68,589.09,392.79Z"
       transform="translate(-445.5 -121.26)"
       id="path42742" />
    <path
       d="M627.13,319.81c-.83-1.23-1.8-4.28-2.63-5.51v-5.66C626.3,310.88,627.7,322.61,627.13,319.81Z"
       transform="translate(-445.5 -121.26)"
       id="path42744" />
    <path
       d="M769,412.13c-1.54-2-4.71.24-6-2.34l7.07-.16c1.17-.18,2.7-1.05,2.56,1.32l-2.3,1.51A.92.92,0,0,1,769,412.13Z"
       transform="translate(-445.5 -121.26)"
       id="path42746" />
    <path
       d="M644.2,321.64c-1.57.7-.83,3.25-2.86,3.59l.49-9C643.87,318,643.46,320.07,644.2,321.64Z"
       transform="translate(-445.5 -121.26)"
       id="path42748" />
    <path
       d="M631.73,403.82l3.85-1.29L633,409.81c-1.17.26-1.77-.06-1.38-1.37Z"
       transform="translate(-445.5 -121.26)"
       id="path42750" />
    <path
       d="M786.07,413.69c.57.13,1.43.07,1.64.42.82,1.33-.13,1.74-1.24,1.75-2.59,0-5.18-.07-7.78-.11.18-2.1,1.81-2,3.25-2.12S784.68,414.72,786.07,413.69Z"
       transform="translate(-445.5 -121.26)"
       id="path42752" />
    <path
       class="cls-23"
       d="M782.37,414.55c-1.26.31-2.74-.08-3.68,1.2l-2.29.19c-1-1.44-2.68-1-4.08-1.38a.91.91,0,0,1,.53-1l5.71-.24C780,413.37,781.9,411.63,782.37,414.55Z"
       transform="translate(-445.5 -121.26)"
       id="path42754" />
    <path
       class="cls-24"
       d="M781.38,435.5a9.63,9.63,0,0,1-4.92-3.72c3.28-.44,5.29,1.62,7.65,2.45Z"
       transform="translate(-445.5 -121.26)"
       id="path42756" />
    <path
       class="cls-25"
       d="M573,432.93c.21,1.13.35,2.29,1.6,2.83l-1.64,6.46C571,438.53,570.9,435.74,573,432.93Z"
       transform="translate(-445.5 -121.26)"
       id="path42758" />
    <path
       d="M623.19,408.69l2.44,2.36c-.34,1.81-1,3.3-3.14,3.45C621.2,412.29,623.62,410.68,623.19,408.69Z"
       transform="translate(-445.5 -121.26)"
       id="path42760" />
    <path
       class="cls-26"
       d="M564.33,430.39c.23,1,.22,2.14,1.33,2.71,0,1.76.08,3.54-2.08,4.55C562.82,435,562.69,432.63,564.33,430.39Z"
       transform="translate(-445.5 -121.26)"
       id="path42762" />
    <path
       d="M741,370.81l-2.54-2.47,7-.45C744.36,370.19,742.42,370.11,741,370.81Z"
       transform="translate(-445.5 -121.26)"
       id="path42764" />
    <path
       d="M798.64,517.61c1.65-1.37.57-3.37,1.15-5,1.57,1.87,1.28,4.06,1.05,6.24-1,.56.11,3.12-2.26,2.39l-.25.15C797.72,520.08,797.49,518.78,798.64,517.61Z"
       transform="translate(-445.5 -121.26)"
       id="path42766" />
    <path
       d="M709.12,212.86c-4.16,1.63-1.56-3.14-3.47-3.65.37-.62.62-1.62,1.14-1.79,1-.31,1.08.6,1.15,1.4C708.06,210.24,707.12,212,709.12,212.86Z"
       transform="translate(-445.5 -121.26)"
       id="path42768" />
    <path
       class="cls-27"
       d="M563.29,403.74c1.07,2,3.85.43,5,2.34h-5.39c-.85,0-1.76-.21-1.44-1.2C561.61,404.35,562.64,404.11,563.29,403.74Z"
       transform="translate(-445.5 -121.26)"
       id="path42770" />
    <path
       class="cls-1"
       d="M793.69,479.57c-3.36-3.4,1-3.27,2.12-4.61,1.8.56,3.79,1.33.19,2.08C794.26,477.4,793.7,478,793.69,479.57Z"
       transform="translate(-445.5 -121.26)"
       id="path42772" />
    <path
       class="cls-28"
       d="M594.93,395a5.28,5.28,0,0,0,.28-.93l5.37-1.27a3.57,3.57,0,0,1-3.1,3.34Z"
       transform="translate(-445.5 -121.26)"
       id="path42774" />
    <path
       class="cls-29"
       d="M553.48,413.52c.09,1.07.18,2.15,1.41,2.6l-2.1,6C551.95,417.9,551.21,415.6,553.48,413.52Z"
       transform="translate(-445.5 -121.26)"
       id="path42776" />
    <path
       class="cls-1"
       d="M792.41,528.73c-.11-1.43-.33-3.35,1.36-3.55s.54,2.58,2,3.17C795,531.17,793.58,528.87,792.41,528.73Z"
       transform="translate(-445.5 -121.26)"
       id="path42778" />
    <path
       d="M779.94,437l1.22-1.21,5.83,1.9C783.62,439.22,781.74,438.42,779.94,437Z"
       transform="translate(-445.5 -121.26)"
       id="path42780" />
    <path
       d="M604.95,375.6l1.21,2.43-6.39.33C601.22,375.89,603.08,375.74,604.95,375.6Z"
       transform="translate(-445.5 -121.26)"
       id="path42782" />
    <path
       class="cls-30"
       d="M750.7,558.08l2.4-1.23c-.68,1.62,2.09,3.84-.06,4.66C751.48,562.1,750.84,559.73,750.7,558.08Z"
       transform="translate(-445.5 -121.26)"
       id="path42784" />
    <path
       d="M745.61,300.54c-1.75-.08-2.87,2.32-4.88,1.23l-1.1-2C741.68,299.6,743.8,298.87,745.61,300.54Z"
       transform="translate(-445.5 -121.26)"
       id="path42786" />
    <path
       d="M735.8,335.38c.93-.43,2.21-.23,2.69-1.49a5.16,5.16,0,0,1,2.33,4.49Z"
       transform="translate(-445.5 -121.26)"
       id="path42788" />
    <path
       d="M605,358.56c1.73,2,4.09.61,6.1,1.14-2.2,2.14-4.77,1.41-7.31.93a1.17,1.17,0,0,1,0-2Z"
       transform="translate(-445.5 -121.26)"
       id="path42790" />
    <path
       d="M782.37,414.55l-3.8-1.21c2.58-1.65,5-.2,7.5.34C785.07,415,783.7,414.66,782.37,414.55Z"
       transform="translate(-445.5 -121.26)"
       id="path42792" />
    <path
       d="M739.64,488.23l1.26,1.25c-.49,1.46-1,3.69-2.82,2.82-1.42-.67.68-2.4.58-3.77C738.79,487.84,739.12,487.7,739.64,488.23Z"
       transform="translate(-445.5 -121.26)"
       id="path42794" />
    <path
       d="M707.83,498.07a4.07,4.07,0,0,1-3.51,3.56l2.08-6.25C707.7,495.84,707.06,497.33,707.83,498.07Z"
       transform="translate(-445.5 -121.26)"
       id="path42796" />
    <path
       class="cls-31"
       d="M772.86,413.59a5.07,5.07,0,0,0-.53,1c-1.58-.58-3.47,1.62-4.75-.29-.55-.82.45-1.73,1.43-2.14l1.32.32Z"
       transform="translate(-445.5 -121.26)"
       id="path42798" />
    <path
       d="M798.57,521.25l2.26-2.39a19.29,19.29,0,0,1-.07,3.54c-.15.8-.47,2.24-1.71,1.56C798.55,523.69,798.71,522.2,798.57,521.25Z"
       transform="translate(-445.5 -121.26)"
       id="path42800" />
    <path
       d="M631.65,408.44l1.38,1.37c-.32,1.66-.92,3.07-3,3.45C629.48,411.24,630.53,409.83,631.65,408.44Z"
       transform="translate(-445.5 -121.26)"
       id="path42802" />
    <path
       class="cls-1"
       d="M624.53,539.62c1.29-1.34,2.92-1,4.5-.93a3.24,3.24,0,0,1,.22,1,7.83,7.83,0,0,1-4.73,1.24Z"
       transform="translate(-445.5 -121.26)"
       id="path42804" />
    <path
       d="M723.87,471.1c-.73,1.59,1,3.86-1.38,5l-1.2-3.76,1.36-1.33A.85.85,0,0,1,723.87,471.1Z"
       transform="translate(-445.5 -121.26)"
       id="path42806" />
    <path
       class="cls-32"
       d="M790.88,435.74l1.44-1.27c1.35.07,3.42.42,2.7,1.82S792.23,436.54,790.88,435.74Z"
       transform="translate(-445.5 -121.26)"
       id="path42808" />
    <path
       d="M707.83,498.07c-1.26-.48-1-1.75-1.43-2.69l.13-2.21,2.45,1.2C709.4,495.85,708.57,496.94,707.83,498.07Z"
       transform="translate(-445.5 -121.26)"
       id="path42810" />
    <path
       d="M653.92,416l1.32,1.29c-.1,1.71-1.52,3-2.59,2.18C651.09,418.19,653.27,417.11,653.92,416Z"
       transform="translate(-445.5 -121.26)"
       id="path42812" />
    <path
       d="M603.77,358.58l0,2c-1.3.15-3.24.58-3.2-1.17C600.66,357.54,602.6,358.6,603.77,358.58Z"
       transform="translate(-445.5 -121.26)"
       id="path42814" />
    <path
       d="M761.5,407.5c-1.37-1.14-.75-2.77-1-4.19.36-.44.66-1.16,1.1-1.27,1.41-.36,1,.51.79,1.33C762,404.72,761.78,406.12,761.5,407.5Z"
       transform="translate(-445.5 -121.26)"
       id="path42816" />
    <path
       class="cls-1"
       d="M739.23,487c-.34.06-.27,1.38-.59,1.52q0-4,0-8C740.85,482.84,739.32,484.38,739.23,487Z"
       transform="translate(-445.5 -121.26)"
       id="path42818" />
    <path
       d="M575.41,321.84c-1.56.9-8,0-9.42-.63-2.2-.74.23-1.18.43-1.24C568,319.43,574.43,320.31,575.41,321.84Z"
       transform="translate(-445.5 -121.26)"
       id="path42820" />
    <path
       d="M597.8,301.21c-.15-2.63-1.05-5.35.94-7.71C598.81,296.12,599.34,298.79,597.8,301.21Z"
       transform="translate(-445.5 -121.26)"
       id="path42822" />
    <path
       d="M687.16,551.8c1.18,1.46,1.92,3.46.4,4.56-1.08.79-1.62-1-1.54-2.17C686.69,553.53,686,552.23,687.16,551.8Z"
       transform="translate(-445.5 -121.26)"
       id="path42824" />
    <path
       d="M598.67,288.66l-2.25,2.4c0-1.57-.19-3.22,1.77-3.9Z"
       transform="translate(-445.5 -121.26)"
       id="path42826" />
    <path
       class="cls-1"
       d="M798.64,517.61l-.32,3.8q-.6,0-1.2,0C797.11,519.9,794.85,517.53,798.64,517.61Z"
       transform="translate(-445.5 -121.26)"
       id="path42828" />
    <path
       class="cls-1"
       d="M735.92,482.29c-1.06-1.5-1.86-3.12-.34-4.67.6-.61,1.41-.1,1.49.91C735.7,479.48,736.28,481,735.92,482.29Z"
       transform="translate(-445.5 -121.26)"
       id="path42830" />
    <path
       d="M772.62,410.94l-2.56-1.32c1.49-.68,3.18-2,4.48-.23C775.08,410.13,773.56,410.72,772.62,410.94Z"
       transform="translate(-445.5 -121.26)"
       id="path42832" />
    <path
       class="cls-33"
       d="M558.09,429.23c-.32.94-1.19,1.31-1.7.61-1-1.45-.67-3,.6-4.22C558.54,426.46,557.32,428.15,558.09,429.23Z"
       transform="translate(-445.5 -121.26)"
       id="path42834" />
    <path
       class="cls-34"
       d="M558.09,429.23c-1.37-.9-.87-2.37-1.1-3.61l1.16-1.55,1.47,1.72Z"
       transform="translate(-445.5 -121.26)"
       id="path42836" />
    <path
       d="M611.09,359.71c2-2,4-2.26,6,.05Z"
       transform="translate(-445.5 -121.26)"
       id="path42838" />
    <path
       class="cls-25"
       d="M615.78,539.35l1.1,1.5c-.55.94-1,2.92-2.17,2S614.79,540.38,615.78,539.35Z"
       transform="translate(-445.5 -121.26)"
       id="path42840" />
    <path
       d="M741.85,352.13l-.92-.95c.57-.92,1.35-1.53,2.43-1,.35.16.43.9.63,1.38Z"
       transform="translate(-445.5 -121.26)"
       id="path42842" />
    <path
       d="M753,502.86l.13,1.53c-.38,1.29-1.8,2.48-2.43,1.52C749.34,503.83,752,503.73,753,502.86Z"
       transform="translate(-445.5 -121.26)"
       id="path42844" />
    <path
       d="M687.16,551.8,686,554.19l-1.51-3.42,1.41-1.39Z"
       transform="translate(-445.5 -121.26)"
       id="path42846" />
    <path
       d="M803.35,488.15a1.84,1.84,0,0,1,.07-1.16,2.89,2.89,0,0,1,3,1.35c.51.77-.17,1-.7,1.13A2.24,2.24,0,0,1,803.35,488.15Z"
       transform="translate(-445.5 -121.26)"
       id="path42848" />
    <path
       class="cls-35"
       d="M738.39,526.25l3.77.07c-1.34,1.06-2.7,2.07-4.57,1.27Z"
       transform="translate(-445.5 -121.26)"
       id="path42850" />
    <path
       class="cls-36"
       d="M683.54,243.06c-3.24-.71-7.62-.53-8-4.33-.35-3.27,3.45-4.86,6.46-5,3.62-.22,7.54,1.27,7.89,5.17C690.19,242.49,685.95,242.06,683.54,243.06Z"
       transform="translate(-445.5 -121.26)"
       id="path42852" />
    <path
       class="cls-37"
       d="M574.31,277.58a14.28,14.28,0,0,0-8-2.49c3.42-1.56,6.69-2.47,9.42,1.06C576.14,277.49,575.53,277.84,574.31,277.58Z"
       transform="translate(-445.5 -121.26)"
       id="path42854" />
    <path
       class="cls-38"
       d="M644.66,540.91c-1.7.31-7.44,8.47-2-2.3.63-1.23,1.86-1,3.06-1.21.77-.13,1.71,0,1.7,1C647.45,540,645.3,540.27,644.66,540.91Z"
       transform="translate(-445.5 -121.26)"
       id="path42856" />
    <path
       class="cls-39"
       d="M574.31,277.58l1.41-1.43c1.16,1.32,2,3.18.24,4C574.72,280.8,574.55,278.72,574.31,277.58Z"
       transform="translate(-445.5 -121.26)"
       id="path42858" />
    <path
       class="cls-1"
       d="M723.87,471.1l-.27-.16,0-.14c-.18-1.29-1.44-2.38-.52-3.64,1.65,1,1.48,2.55,1.65,4h-.42Z"
       transform="translate(-445.5 -121.26)"
       id="path42860" />
    <path
       class="cls-40"
       d="M761.94,550.44l1.06-4.66,2.43,1.35A6.27,6.27,0,0,1,761.94,550.44Z"
       transform="translate(-445.5 -121.26)"
       id="path42862" />
    <path
       class="cls-41"
       d="M683.85,236.39c-.33,1.4-1,2.1-2.15,2-.86-.06-1.64-.59-1.51-1.5s.72-2,2-1.76C682.8,235.28,683.34,236,683.85,236.39Z"
       transform="translate(-445.5 -121.26)"
       id="path42864" />
    <path
       class="cls-16"
       d="M643.6,275.68s-1.27-2.78-.82-4.18c0,0,4.59,3.44,5.38,6.15"
       transform="translate(-445.5 -121.26)"
       id="path42866" />
  </g>
  <g
     id="Layer_3"
     data-name="Layer 3">
    <path
       class="cls-42"
       d="M927,122.76V328.6a313.88,313.88,0,0,1-2.28,38c-.11.93-.24,1.86-.36,2.79s-.24,1.86-.39,2.79c-.46,3.37-1,6.69-1.6,10-.07.44-.15.87-.23,1.31-.16.8-.29,1.6-.45,2.4s-.34,1.79-.51,2.69l-.45,2.22-.24,1.15c-.15.71-.3,1.44-.46,2.15-.54,2.37-1.07,4.71-1.61,7l-.58,2.32-.52,2q-1.53,5.88-3.27,11.61c-.29,1-.59,1.94-.9,2.92l-.6,1.88c-.2.63-.4,1.24-.61,1.86-.37,1.09-.73,2.17-1.1,3.25s-.68,2-1,3c-.47,1.28-.93,2.56-1.39,3.81-.36,1-.73,2-1.11,3l-.19.5c-.43,1.14-.87,2.25-1.32,3.36s-.87,2.17-1.31,3.2c0,.15-.12.28-.18.42-.4,1-.8,2-1.25,3s-.76,1.75-1.13,2.62l-.66,1.49c-.48,1.07-1,2.11-1.44,3.15s-.9,2-1.36,2.93l-1,2.12c-.29.63-.6,1.25-.91,1.87-.63,1.33-1.31,2.64-2,4q-2.52,5-5.19,9.77l-2,3.57-.12.21c-1.42,2.47-2.86,4.92-4.33,7.33-.71,1.2-1.46,2.4-2.18,3.54-.11.16-.2.32-.3.47-.55.89-1.12,1.78-1.69,2.66l-.65,1c-.65,1-1.31,2-2,3l-.13.18c-.65,1-1.31,2-2,3l-.45.67q-2.25,3.29-4.54,6.46l-.31.43c-.8,1.07-1.54,2.14-2.31,3.19s-1.66,2.23-2.5,3.32c-1.52,2-3.06,4-4.61,6l-.81,1q-1.09,1.39-2.22,2.76L854,526.61l-.57.69c-.8.94-1.6,1.87-2.41,2.8q-2.82,3.32-5.72,6.53c-.75.85-1.52,1.69-2.29,2.51s-1.47,1.6-2.22,2.4q-3,3.2-5.93,6.24-2.76,2.82-5.53,5.59c-.92.91-1.84,1.82-2.76,2.71s-1.85,1.78-2.79,2.66l-2.28,2.12c-.68.65-1.36,1.28-2,1.91a446.3,446.3,0,0,1-42.94,34.76q-9.24,6.6-18.82,12.71c-.86.55-1.72,1.1-2.57,1.6q-6.43,4.06-12.47,7.63l-2.41,1.4-2.36,1.37-2.33,1.34-2.23,1.29c-8.34,4.68-15.9,8.59-22.38,11.76l-1.6.8c-10.64,5.15-18.12,8.22-21,9.35l-.42.17-.61.24-.14,0h-.08l-.23-.09-.21,0-1.07-.42-.54-.23c-.87-.34-2-.8-3.37-1.38l-.46-.18c-1.76-.8-3.89-1.67-6.33-2.77l-1.39-.61a442.25,442.25,0,0,1-39.75-20.6c-.8-.44-1.6-.92-2.35-1.38q-18.3-10.8-35.57-23.2-4.65-3.33-9.21-6.78l-2.63-2c-1-.75-2-1.51-2.94-2.29l-2.81-2.21c-6.19-4.92-12.43-10.15-18.64-15.69L558.08,566q-2.31-2.05-4.59-4.2l-1.67-1.57L550,558.54l-2-1.94c-1.12-1.07-2.23-2.17-3.33-3.27-.85-.79-1.69-1.66-2.52-2.5l-.24-.26c-.84-.83-1.67-1.67-2.5-2.51-.66-.68-1.32-1.36-2-2l-2-2.06-.13-.15-2.1-2.25q-3.36-3.6-6.66-7.36c-.68-.79-1.36-1.54-2.05-2.34-.57-.65-1.12-1.29-1.66-1.94q-1-1.2-2-2.4-4.28-5.1-8.39-10.48c-.76-1-1.5-1.93-2.24-2.92-1.89-2.47-3.73-5-5.57-7.55-.55-.8-1.12-1.59-1.68-2.39-.13-.16-.24-.34-.36-.5-.59-.86-1.19-1.7-1.77-2.56-.94-1.38-1.89-2.77-2.81-4.17-.74-1.09-1.47-2.2-2.19-3.31a1,1,0,0,0-.15-.24l-2.22-3.48-.22-.36c-.7-1.14-1.41-2.27-2.1-3.4s-1.49-2.46-2.21-3.71-1.43-2.39-2.13-3.67q-4.61-8-8.77-16.46c-.35-.69-.69-1.38-1-2.09-.22-.44-.44-.88-.65-1.35-.43-.87-.8-1.74-1.25-2.63a25.91,25.91,0,0,1-1.15-2.47l-.23-.48c-.27-.58-.53-1.16-.81-1.75l-.26-.57c-.27-.59-.52-1.19-.8-1.78q-1.44-3.25-2.79-6.57c-.42-1-.8-2-1.23-3.08-.1-.25-.21-.52-.31-.79-.4-1-.8-2-1.16-3s-.69-1.82-1-2.74l-.24-.65c-.17-.44-.33-.91-.49-1.35q-1-2.7-1.9-5.44c-.21-.6-.4-1.2-.6-1.8-.26-.8-.51-1.54-.75-2.32-.14-.41-.27-.8-.4-1.22-.25-.8-.49-1.59-.75-2.39-.31-1-.61-2.06-.92-3.11-.19-.64-.39-1.28-.57-1.95-.37-1.29-.74-2.58-1.09-3.89-.19-.68-.37-1.35-.55-2-.13-.5-.27-1-.4-1.51-.32-1.22-.62-2.45-.92-3.7-.18-.7-.34-1.4-.52-2.11-.07-.28-.13-.56-.19-.85-.37-1.55-.72-3.11-1.07-4.69-.26-1.16-.5-2.33-.74-3.5-.13-.71-.29-1.43-.42-2.14s-.32-1.59-.48-2.45a1.86,1.86,0,0,0-.09-.47c-.16-.8-.3-1.64-.45-2.48s-.32-1.84-.48-2.77-.29-1.8-.45-2.71q-.86-5.52-1.55-11.18A312.7,312.7,0,0,1,447,328.58V122.76Z"
       transform="translate(-445.5 -121.26)"
       id="path42869" />
  </g>
  <path
     id="shine"
     d="M 1.5800447,0.70902099 V 207.0859 c 0,229.66454 239.9199953,319.6031 239.9199953,319.6031 0,0 239.92,-89.93856 239.92,-319.6031 V 0.70902099 Z"
     style="fill:url(#rg);stroke:#000000;stroke-width:2.41218" />
</svg>
