<?xml version="1.0" encoding="UTF-8" standalone="no"?>
<svg
   viewBox="0 0 483 527.48"
   version="1.1"
   id="svg43531"
   sodipodi:docname="House Morrigen H&amp;L.svg"
   inkscape:version="1.2.1 (9c6d41e410, 2022-07-14)"
   xmlns:inkscape="http://www.inkscape.org/namespaces/inkscape"
   xmlns:sodipodi="http://sodipodi.sourceforge.net/DTD/sodipodi-0.dtd"
   xmlns="http://www.w3.org/2000/svg"
   xmlns:svg="http://www.w3.org/2000/svg">
  <sodipodi:namedview
     id="namedview43533"
     pagecolor="#ffffff"
     bordercolor="#000000"
     borderopacity="0.25"
     inkscape:showpageshadow="2"
     inkscape:pageopacity="0.0"
     inkscape:pagecheckerboard="0"
     inkscape:deskcolor="#d1d1d1"
     showgrid="false"
     inkscape:zoom="0.79339504"
     inkscape:cx="123.5198"
     inkscape:cy="214.26905"
     inkscape:window-width="1920"
     inkscape:window-height="1017"
     inkscape:window-x="-8"
     inkscape:window-y="-8"
     inkscape:window-maximized="1"
     inkscape:current-layer="svg43531" />
  <defs
     id="defs43521">
    <style
       id="style43519">.cls-1{fill:#357142;stroke:#000;stroke-width:3px;}</style>
    <radialGradient
       id="rg"
       gradientUnits="userSpaceOnUse"
       cx="220"
       cy="220"
       r="405"
       gradientTransform="matrix(0.80510068,0,0,0.80302287,-0.03016934,-0.9020146)">
      <stop
         style="stop-color:#ffffff;stop-opacity:.3"
         offset="0"
         id="stop753" />
      <stop
         style="stop-color:#ffffff;stop-opacity:.2"
         offset=".2"
         id="stop755" />
      <stop
         style="stop-color:#666666;stop-opacity:.1"
         offset=".6"
         id="stop757" />
      <stop
         style="stop-color:#000000;stop-opacity:.13"
         offset="1"
         id="stop759" />
    </radialGradient>
  </defs>
  <title
     id="title43523">House Morrigen</title>
  <g
     id="Layer_2"
     data-name="Layer 2">
    <path
       class="cls-1"
       d="M927,122.76V328.6a314.37,314.37,0,0,1-2.28,38c-.11.93-.24,1.86-.36,2.79s-.24,1.86-.39,2.79q-.7,5.05-1.61,10c-.07.44-.15.87-.23,1.31-.15.8-.29,1.6-.45,2.39s-.34,1.8-.51,2.69l-.45,2.22-.24,1.16c-.15.71-.3,1.44-.47,2.15q-.8,3.55-1.61,7l-.58,2.32-.52,2q-1.52,5.88-3.27,11.61c-.29,1-.59,1.94-.9,2.92l-.6,1.88c-.19.63-.39,1.25-.6,1.86l-1.1,3.26c-.37,1.09-.68,2-1,3-.47,1.28-.92,2.55-1.39,3.81-.36,1-.73,2-1.11,3l-.19.49c-.43,1.14-.87,2.25-1.32,3.37s-.87,2.16-1.32,3.19a3.35,3.35,0,0,1-.18.42c-.4,1-.8,2-1.25,3s-.75,1.75-1.13,2.62l-.66,1.49c-.47,1.07-.95,2.12-1.44,3.15s-.9,2-1.36,2.93l-1,2.12c-.3.63-.6,1.25-.91,1.88-.63,1.32-1.31,2.64-2,4q-2.53,5-5.19,9.77l-2,3.57-.11.21q-2.13,3.71-4.33,7.33c-.71,1.2-1.46,2.39-2.18,3.54-.1.16-.19.31-.3.46-.55.89-1.12,1.78-1.69,2.66l-.66,1c-.65,1-1.31,2-2,3l-.13.18c-.66,1-1.32,2-2,3l-.45.67q-2.26,3.28-4.54,6.46l-.31.42c-.8,1.07-1.54,2.14-2.31,3.19s-1.66,2.23-2.5,3.32q-2.29,3-4.61,6l-.8,1c-.73.93-1.48,1.85-2.22,2.76L854,526.61l-.57.69L851,530.1q-2.83,3.32-5.72,6.53c-.75.85-1.52,1.69-2.29,2.51l-2.22,2.39q-3,3.19-5.93,6.24-2.76,2.83-5.53,5.59c-.91.91-1.84,1.82-2.76,2.71s-1.85,1.78-2.78,2.67l-2.28,2.11c-.68.65-1.36,1.28-2.05,1.91a448.64,448.64,0,0,1-61.76,47.47c-.86.55-1.73,1.1-2.58,1.6q-6.42,4.07-12.46,7.63l-2.41,1.4-2.36,1.36-2.34,1.35-2.22,1.28c-8.35,4.68-15.91,8.59-22.38,11.76l-1.61.8c-10.63,5.15-18.11,8.22-21,9.35l-.42.18-.61.23-.14.06h-.08l-.23-.1-.21,0-1.07-.42-.55-.23c-.87-.34-2-.8-3.36-1.38l-.47-.18c-1.76-.8-3.88-1.67-6.33-2.77l-1.39-.61a443.16,443.16,0,0,1-39.74-20.6c-.8-.45-1.61-.92-2.36-1.38a473.14,473.14,0,0,1-44.78-30l-2.62-2c-1-.75-2-1.52-2.95-2.29l-2.81-2.21c-6.19-4.92-12.43-10.15-18.64-15.69L558.08,566q-2.3-2.05-4.59-4.2l-1.67-1.57L550,558.54l-2-1.94c-1.12-1.07-2.24-2.16-3.34-3.26-.84-.8-1.69-1.67-2.52-2.51l-.24-.26q-1.25-1.25-2.5-2.51c-.66-.68-1.32-1.36-2-2l-2-2.07-.13-.15-2.1-2.24q-3.36-3.61-6.66-7.36c-.68-.8-1.36-1.55-2-2.35-.57-.65-1.12-1.28-1.66-1.94l-2-2.39q-4.26-5.11-8.39-10.48-1.13-1.45-2.24-2.92c-1.89-2.47-3.73-5-5.57-7.55l-1.68-2.39c-.13-.16-.24-.34-.36-.5-.59-.85-1.19-1.7-1.77-2.55-.95-1.38-1.89-2.77-2.82-4.17q-1.11-1.64-2.18-3.31l-.15-.24-2.22-3.47c-.07-.13-.15-.24-.22-.37-.71-1.14-1.41-2.27-2.1-3.4s-1.49-2.46-2.21-3.7-1.44-2.39-2.13-3.67q-4.6-8-8.77-16.47c-.35-.69-.69-1.38-1-2.08-.22-.44-.44-.89-.65-1.35-.43-.87-.8-1.75-1.25-2.63a27.17,27.17,0,0,1-1.15-2.47l-.23-.48c-.26-.58-.52-1.16-.8-1.75l-.26-.57c-.26-.58-.52-1.18-.8-1.77q-1.44-3.26-2.78-6.58c-.42-1-.8-2-1.23-3.07-.1-.26-.21-.53-.31-.8-.4-1-.8-2-1.16-3s-.68-1.82-1-2.74l-.23-.65c-.18-.45-.34-.91-.5-1.36q-1-2.69-1.89-5.44c-.21-.6-.4-1.21-.6-1.8-.26-.8-.51-1.54-.75-2.31-.14-.42-.26-.8-.39-1.22-.26-.8-.5-1.6-.75-2.39-.31-1-.61-2.06-.92-3.1-.18-.65-.39-1.28-.57-2-.37-1.28-.74-2.58-1.08-3.89-.19-.68-.37-1.35-.55-2-.13-.5-.26-1-.39-1.51-.32-1.22-.63-2.46-.92-3.7-.18-.7-.35-1.4-.52-2.11-.07-.29-.13-.57-.19-.85-.37-1.55-.71-3.11-1.07-4.69-.26-1.16-.5-2.33-.74-3.5-.14-.71-.29-1.43-.43-2.14s-.32-1.6-.47-2.45a2.13,2.13,0,0,0-.1-.47c-.15-.8-.3-1.64-.45-2.48s-.31-1.84-.47-2.77-.3-1.8-.45-2.71q-.87-5.52-1.56-11.17A314.73,314.73,0,0,1,447,328.58V122.76Z"
       transform="translate(-445.5 -121.26)"
       id="path43525" />
  </g>
  <g
     id="Layer_3"
     data-name="Layer 3">
    <path
       d="M845,197.76a86.23,86.23,0,0,1,24.11-3.57c1,0,2.21.2,2.87-.29,2.06-1.54,4.12-2.9,5.83,0,1.47,2.52-1,3.87-2.47,5.12-6.29,5.32-13.62,9.74-21.59,10.37-8.38.66-15.94,4.58-24.3,5,10.12,0,20.4,1.07,30.3-.41a167.73,167.73,0,0,1,17.15-1.74c2.53-.12,5.34,2,5,3-.8,2.19-1.16,7-3.68,6-4.36-1.72-5.21,2.74-8.31,3-4.4.41-8.74,1.89-13,3.22s-8.48,1.34-12.77,1.16c-2.29-.1-3.87,2.1-6.43,1.16a5,5,0,0,0,4.51,3.52c9.63,1.46,19,4.41,28.8,4.77,2.63.1,3.9,2.28,6.33,2.61,2.22.3,1.31,1.86.13,2.89-6.34,5.61-14.95,8.77-21.68,5.38-5.54-2.8-8.51-.23-12.47.57s-7.12-1.52-10.69-2c-5.18-.63-10.48.31-15.52-2.14-2.52-1.23-4.9.75-6.88,2.38s-3.77,3.38-5.66,5.1a46.2,46.2,0,0,0,7.31,5.2c4.23,2.39,4,6.28-.33,8.55a21,21,0,0,0-10,12.23c-2,5.78-4.85,7.47-10.18,3.74-.63-.44-2.11.35-3.71.67,1.07.73,1.6,1.18,2.2,1.5,2.11,1.12,5.66.87,5.37,4.38-.25,2.93-2.47,4.9-5.34,5.62-2.42.61-3.05,2.11-3,4.33,0,1.35.08,2.67-1,3.86-6.07,6.77-11.83,13.84-18.16,20.36-5.36,5.52-11.81,10-16.86,15.78-2.69,3.07-7.54,1.13-9.25,5.32-.16.4-.31-1.52-1-2.07-2.58-1.95-5.13-3.92-8-6.14-1.29,2.71-1,5.44-.45,8,.46,2.05,5.63,3.94-.07,6a1.42,1.42,0,0,0,0,1.11c3.86,6.13,4.58,13.92,11.38,18.57,11.1,7.59,21.8,15.77,32.46,24a41.12,41.12,0,0,1,8.36,8.82c4.31,6.12,3.58,9.5-2.28,15.06-4,3.82-3.22,9.36-4.18,14-2.07,9.92-9.32,14.14-16.83,18.73-4.65,2.84-9.27,2.31-14.22,1.5-2.16-.36-4.8-1-6.72,1-4.25,4.35-7.54.88-10.7-1.45-7.64-5.64-9.44-14.55-11.65-22.9-3.2-12.1-6.45-24.17-10.55-36-.38-1.08,0-2.49-.45-3.48-1.38-2.78-2.14-6.53-6.89-2.93-2,1.53-4.73,4.5-8.38,2.17a2,2,0,0,0-2.87,1.31c-.92,2.91,2.62,2.18,3.38,3.86a12.8,12.8,0,0,1-5.53,4.08,8.87,8.87,0,0,0-4.69,5c-.61,1.87-1.65,3.83-2.86,4-4.65.84-6.15,4.86-8.78,7.71a5.42,5.42,0,0,1-4,2.11c-2.78.08-5,.93-5.55,4.12a1.94,1.94,0,0,1-1,1.37c-9.07,2.47-13.7,12-23.9,13.78-5.44.93-10.74,4.74-16.94,5.69-2.16.33-5,3.76-6.56,6.88-2.1,4.28-5.14,6.88-10,2.27a86,86,0,0,0-2.82,24.15c.25,8.37-3.06,15.83-6.66,23.13-.73,1.48-1.41,3.63-3.74,3-2.06-.57-2-2.79-2.36-4.38-.38-1.86-.09-3.86-.09-6.55-3.22,3.23.85,10.29-6.75,10.31,2.2,2.54,3.79,5.94,2,9.5-1.56,3.06-3.83,5.76-5.83,8.58-.56.79-1.27,1.65-2.4,1.1a2.51,2.51,0,0,1-1.22-2.5c0-4.52-.73-9.21.2-13.53,2.18-10.07.12-20.12,1.27-30.11-1.37-.1-2.3.1-2.34,1-.42,9-4.57,17.1-6.2,25.79-1.21,6.45-6.05,10.73-9.19,16a3.91,3.91,0,0,1-4.72,1.59c-2.63-1.09-.75-2.89-.44-4.42,2.18-11,3.59-22.11,6.61-32.92a11.77,11.77,0,0,0-.22-6.66c-2.71,6.1-5.62,12.11-8.08,18.31-2.37,6-6.89,10.24-10.76,15.05-.81,1-2,1.56-3.12.84s-.59-1.92-.25-3.12c2.73-9.54,4.55-19.35,9.1-29.5-4.11,1.86-5.5,4.74-7.37,7.2s-4.18,6.32-7.15,4.88c-3.18-1.54-.35-5.46.44-7.92,3.86-12,7.79-24,13.14-35.5.7-1.5.45-3.45.65-5.19a50.25,50.25,0,0,0,3.87-8.29c-1.3,3.31-2.46,6.74-6,8.37-1.68,1.83-2.94,4.14-6.13,5.1.88-7.57,4.09-14,6.73-20.58,4.91-12.21,12-23.4,18.82-34.48,10.36-16.78,20.21-33.95,31.61-50,4.25-6,11.23-9.63,19-11.27,12-2.51,22.57-8.46,32.51-15.27,5.84-4,6.22-11.64,2.22-19.14-2.17-4.06-4.1-8.3-6.77-12-1.2-1.67-1.38-4.92-5-4.61-1.71.15-2.61-2.34-2.67-3.41-.24-4.29-3-5.82-6.29-7.5-2.45-1.26-4.17-3-3-6.65s3.56-3.57,6-3.12c13.48,2.49,27.12,4.45,38.63,13.06,5.26,3.94,10.87,7,18.22,4.29,3.37-1.22,4-4,5.65-6a107.24,107.24,0,0,0,19.48-33.5,27.78,27.78,0,0,1,15.36-16c15.8-6.31,30.71-14.46,46.27-21.17,15.38-6.63,30.58-13.74,46.49-19.1,1.17-.4,2.27-1.09,3,.17.58,1-.44,1.72-1,2.5-4.4,5.77-10.85,9.07-16.28,13.79,13.85-7.15,30-6.23,43.95-13.06,3.7-1.81,8.59,0,12.49-2.52.82-.54,1.95.19,2.34,1.22a3.47,3.47,0,0,1-1.4,4.57c-5.59,4-11,8.21-17,11.45-1.67,1.8-4,.91-6,1.9C841,196.9,843.09,196.32,845,197.76Z"
       transform="translate(-445.5 -121.26)"
       id="path43528" />
  </g>
  <path
     id="shine"
     d="M 1.5800319,0.7040314 V 207.08091 c 0,229.66454 239.9200081,319.6031 239.9200081,319.6031 0,0 239.92,-89.93856 239.92,-319.6031 V 0.7040314 Z"
     style="fill:url(#rg);stroke:#000000;stroke-width:2.41218" />
</svg>
