<?xml version="1.0" encoding="UTF-8" standalone="no"?>
<svg
   viewBox="0 0 483 527.48"
   version="1.1"
   id="svg20066"
   sodipodi:docname="House Mudd.svg"
   inkscape:version="1.2.1 (9c6d41e410, 2022-07-14)"
   xmlns:inkscape="http://www.inkscape.org/namespaces/inkscape"
   xmlns:sodipodi="http://sodipodi.sourceforge.net/DTD/sodipodi-0.dtd"
   xmlns="http://www.w3.org/2000/svg"
   xmlns:svg="http://www.w3.org/2000/svg">
  <sodipodi:namedview
     id="namedview20068"
     pagecolor="#ffffff"
     bordercolor="#000000"
     borderopacity="0.25"
     inkscape:showpageshadow="2"
     inkscape:pageopacity="0.0"
     inkscape:pagecheckerboard="0"
     inkscape:deskcolor="#d1d1d1"
     showgrid="false"
     inkscape:zoom="0.39669752"
     inkscape:cx="-489.03759"
     inkscape:cy="536.93303"
     inkscape:window-width="1920"
     inkscape:window-height="1017"
     inkscape:window-x="-8"
     inkscape:window-y="-8"
     inkscape:window-maximized="1"
     inkscape:current-layer="svg20066" />
  <defs
     id="defs19762">
    <style
       id="style19760">.cls-1{fill:#6c250f;stroke-width:3px;}.cls-1,.cls-8,.cls-9{stroke:#000;}.cls-2{fill:#030200;}.cls-3{fill:#bd8f1c;}.cls-4{fill:#44330a;}.cls-5{fill:#2a2006;}.cls-6{fill:#281f06;}.cls-7{fill:#795b12;}.cls-8{fill:#055e33;}.cls-8,.cls-9{stroke-miterlimit:10;}.cls-9{fill:none;}</style>
    <radialGradient
       id="rg"
       gradientUnits="userSpaceOnUse"
       cx="220"
       cy="220"
       r="405"
       gradientTransform="matrix(0.80510068,0,0,0.80302287,0.049797,-0.642926)">
      <stop
         style="stop-color:#ffffff;stop-opacity:.3"
         offset="0"
         id="stop753" />
      <stop
         style="stop-color:#ffffff;stop-opacity:.2"
         offset=".2"
         id="stop755" />
      <stop
         style="stop-color:#666666;stop-opacity:.1"
         offset=".6"
         id="stop757" />
      <stop
         style="stop-color:#000000;stop-opacity:.13"
         offset="1"
         id="stop759" />
    </radialGradient>
  </defs>
  <title
     id="title19764">House Mudd</title>
  <g
     id="Layer_2"
     data-name="Layer 2">
    <path
       class="cls-1"
       d="M927,122.76V328.6a314.37,314.37,0,0,1-2.28,38c-.11.93-.24,1.86-.36,2.79s-.24,1.86-.39,2.79q-.7,5.05-1.61,10c-.07.44-.15.87-.23,1.31-.15.8-.29,1.6-.45,2.39s-.34,1.8-.51,2.69l-.45,2.22-.24,1.16c-.15.71-.3,1.44-.47,2.15q-.8,3.55-1.61,7l-.58,2.32-.52,2q-1.52,5.88-3.27,11.61c-.29,1-.59,1.94-.9,2.92l-.6,1.88c-.19.63-.39,1.25-.6,1.86l-1.1,3.26c-.37,1.09-.68,2-1,3-.47,1.28-.92,2.55-1.39,3.81-.36,1-.73,2-1.11,3l-.19.49c-.43,1.14-.87,2.25-1.32,3.37s-.87,2.16-1.32,3.19a3.35,3.35,0,0,1-.18.42c-.4,1-.8,2-1.25,3s-.75,1.75-1.13,2.62l-.66,1.49c-.47,1.07-.95,2.12-1.44,3.15s-.9,2-1.36,2.93l-1,2.12c-.3.63-.6,1.25-.91,1.88-.63,1.32-1.31,2.64-2,4q-2.53,5-5.19,9.77l-2,3.57-.11.21q-2.13,3.71-4.33,7.33c-.71,1.2-1.46,2.39-2.18,3.54-.1.16-.19.31-.3.46-.55.89-1.12,1.78-1.69,2.66l-.66,1c-.65,1-1.31,2-2,3l-.13.18c-.66,1-1.32,2-2,3l-.45.67q-2.26,3.28-4.54,6.46l-.31.42c-.8,1.07-1.54,2.14-2.31,3.19s-1.66,2.23-2.5,3.32q-2.29,3-4.61,6l-.8,1c-.73.93-1.48,1.85-2.22,2.76L854,526.61l-.57.69L851,530.1q-2.83,3.32-5.72,6.53c-.75.85-1.52,1.69-2.29,2.51l-2.22,2.39q-3,3.19-5.93,6.24-2.76,2.83-5.53,5.59c-.91.91-1.84,1.82-2.76,2.71s-1.85,1.78-2.78,2.67l-2.28,2.11c-.68.65-1.36,1.28-2.05,1.91a448.64,448.64,0,0,1-61.76,47.47c-.86.55-1.73,1.1-2.58,1.6q-6.42,4.07-12.46,7.63l-2.41,1.4-2.36,1.36-2.34,1.35-2.22,1.28c-8.35,4.68-15.91,8.59-22.38,11.76l-1.61.8c-10.63,5.15-18.11,8.22-21,9.35l-.42.18-.61.23-.14.06h-.08l-.23-.1-.21,0-1.07-.42-.55-.23c-.87-.34-2-.8-3.36-1.38l-.47-.18c-1.76-.8-3.88-1.67-6.33-2.77l-1.39-.61a443.16,443.16,0,0,1-39.74-20.6c-.8-.45-1.61-.92-2.36-1.38a473.14,473.14,0,0,1-44.78-30l-2.62-2c-1-.75-2-1.52-2.95-2.29l-2.81-2.21c-6.19-4.92-12.43-10.15-18.64-15.69L558.08,566q-2.3-2.05-4.59-4.2l-1.67-1.57L550,558.54l-2-1.94c-1.12-1.07-2.24-2.16-3.34-3.26-.84-.8-1.69-1.67-2.52-2.51l-.24-.26q-1.25-1.25-2.5-2.51c-.66-.68-1.32-1.36-2-2l-2-2.07-.13-.15-2.1-2.24q-3.36-3.61-6.66-7.36c-.68-.8-1.36-1.55-2-2.35-.57-.65-1.12-1.28-1.66-1.94l-2-2.39q-4.26-5.11-8.39-10.48-1.13-1.45-2.24-2.92c-1.89-2.47-3.73-5-5.57-7.55l-1.68-2.39c-.13-.16-.24-.34-.36-.5-.59-.85-1.19-1.7-1.77-2.55-.95-1.38-1.89-2.77-2.82-4.17q-1.11-1.64-2.18-3.31l-.15-.24-2.22-3.47c-.07-.13-.15-.24-.22-.37-.71-1.14-1.41-2.27-2.1-3.4s-1.49-2.46-2.21-3.7-1.44-2.39-2.13-3.67q-4.6-8-8.77-16.47c-.35-.69-.69-1.38-1-2.08-.22-.44-.44-.89-.65-1.35-.43-.87-.8-1.75-1.25-2.63a27.17,27.17,0,0,1-1.15-2.47l-.23-.48c-.26-.58-.52-1.16-.8-1.75l-.26-.57c-.26-.58-.52-1.18-.8-1.77q-1.44-3.26-2.78-6.58c-.42-1-.8-2-1.23-3.07-.1-.26-.21-.53-.31-.8-.4-1-.8-2-1.16-3s-.68-1.82-1-2.74l-.23-.65c-.18-.45-.34-.91-.5-1.36q-1-2.69-1.89-5.44c-.21-.6-.4-1.21-.6-1.8-.26-.8-.51-1.54-.75-2.31-.14-.42-.26-.8-.39-1.22-.26-.8-.5-1.6-.75-2.39-.31-1-.61-2.06-.92-3.1-.18-.65-.39-1.28-.57-2-.37-1.28-.74-2.58-1.08-3.89-.19-.68-.37-1.35-.55-2-.13-.5-.26-1-.39-1.51-.32-1.22-.63-2.46-.92-3.7-.18-.7-.35-1.4-.52-2.11-.07-.29-.13-.57-.19-.85-.37-1.55-.71-3.11-1.07-4.69-.26-1.16-.5-2.33-.74-3.5-.14-.71-.29-1.43-.43-2.14s-.32-1.6-.47-2.45a2.13,2.13,0,0,0-.1-.47c-.15-.8-.3-1.64-.45-2.48s-.31-1.84-.47-2.77-.3-1.8-.45-2.71q-.87-5.52-1.56-11.17A314.73,314.73,0,0,1,447,328.58V122.76Z"
       transform="translate(-445.5 -121.26)"
       id="path19766" />
  </g>
  <g
     id="Layer_4"
     data-name="Layer 4">
    <path
       class="cls-2"
       d="M819.81,349.9a78.86,78.86,0,0,0,2-22.24c-.16-2.66,0-3.91,2.55-5,22.63-9.37,41.52-24.54,60.61-39.36,2.31-1.79,4.66-3.77,5.68-6.76a1.8,1.8,0,0,1,2.81-1.13c1.44.73,2.09,1.89,1.11,3.41a24,24,0,0,1-2.49,3.32c-7.69,8.34-13.62,17.9-19.67,27.43-6.37,10.05-12.93,20-18,30.78-10.29,22.14-19.24,44.66-22.56,69.15a200.21,200.21,0,0,0-2.22,32.57c.19,6.75-4.31,11.71-12.07,14.58-14,5.17-28.57,5.78-43.17,6.86-15,1.1-30.14,2.3-45,.87-24.09-2.31-48.31-1-72.38-4-16.47-2.06-33.2-2.52-49.37-6.5-11.85-2.91-24.21-4.38-34.94-11.11-3.3-2.07-4.73-4.3-4.44-8.17,1.8-23.84-7.46-45.3-14-67.49-5.38-18.29-17.82-31.37-30-44.33-15.53-16.46-28.94-34.6-43.88-51.49-.9-1-3.32-1.93-1.83-3.72s3.38,0,4.7.87c10.91,7.21,21.55,14.81,32.76,21.58,12,7.23,24.49,13.13,38.23,15.9,5.46,1.1,7.22,4.11,8.1,9.25,1.63,9.51,4,18.89,6.22,28.31.53,2.3,1.84,3,4.4,2.16,7.64-2.62,15-6.22,23.29-6.72,2.47-.15,2.95-1.62,2.15-4.21-2.33-7.6-4.65-15.28-8.53-22.15-8.28-14.68-16.71-29.33-26.08-43.32-6.59-9.83-13-20-21.73-28.25-1-1-2.87-1.87-1.07-3.82,2.14-2.31,3,.1,4.25,1.05,18.86,14.85,37.46,30.09,59.88,39.54,1.28.54,2.48,1.63,3.77,1.71,8.16.53,8.85,5.64,8.37,12.28-.86,11.91.8,23.8,1.16,35.71.18,5.89,1.29,6.43,6.89,4.69,7-2.18,14.15-3.86,21.59-3.5,3.25.16,4.66-.07,4.08-4.56-4.47-34.36-20.91-62.29-45.1-86.25-3-2.94-5.95-5.87-8.82-8.9-1.09-1.16-3.5-2.25-1.58-4.3s3.22-.37,4.89,1c13,10.94,24.64,23.56,39,32.83,9.89,6.36,20.42,11.44,32,13.91,4.2.9,5.47,2.66,4.63,7-2.82,14.57-1.54,29.23-.37,43.87.18,2.31,1.17,3,3.38,3q16.33-.13,32.67-.06c2.71,0,3.44-1.29,3.35-3.67-.52-14.48-.66-29-1.75-43.43-.31-4.14.27-6,3.87-7.89,16-8.18,31.12-17.49,43.58-30.71,5.9-6.25,11.11-12.89,14.39-20.9a5.41,5.41,0,0,1,1.31-2c1.16-1,1.17-4.23,3.56-2.79,1.63,1,0,3-.64,4.27-7.4,14.71-14.56,29.53-21.15,44.63-8.53,19.53-14.54,39.73-16.8,61-.24,2.28.21,3.58,3,4,7.42,1.12,14.81,2.51,22.15,4.06,4.62,1,4.59-2.36,4.53-4.93-.3-12.64,1.74-25.23.28-37.91-1.29-11.26-1.08-11.6,9.27-16.09,18.3-7.93,34.36-19.78,51.73-29.33,5.43-3,9.62-8.22,14.41-12.39,1.22-1.06,2.21-3.71,4.21-2,2.24,1.91-.16,3.55-1.32,4.92-11.61,13.8-24,27.13-32.8,42.92C807,295.71,798.36,314,792.8,333.59c-.79,2.8-.51,4.65,2.84,5.61C803.84,341.53,811.47,345.31,819.81,349.9Z"
       transform="translate(-445.5 -121.26)"
       id="path19769" />
    <path
       class="cls-3"
       d="M570.63,435.71c0-7.8.08-14.14,0-20.47,0-2.4,1.15-3.44,3.09-4.47,21.3-11.32,43.34-20,67.8-21.76,10.06-.7,20.05-2.62,30.18-2.75,17.44-.23,34.78,1.19,52.13,2.95a330.61,330.61,0,0,1,50.06,9.21c16.56,4.32,33.36,8.42,48.65,16.76,4,2.16,5.62,4.58,4.59,8.91a46.59,46.59,0,0,0-.67,15.38c.43,4.36-1.12,4.37-4.26,3-13.78-6.06-27.77-11.57-42.06-16.33-17.61-5.86-35.23-11.5-54-12.7s-37.23-3.07-55.88-2.11c-18,.92-36.2.46-53.63,5.77C601.21,421.8,585.71,426.55,570.63,435.71Z"
       transform="translate(-445.5 -121.26)"
       id="path19771" />
    <path
       class="cls-4"
       d="M824.45,447.59c-5.59,7.77-14.06,8-21.55,9.92C789.22,461,775,460,761.09,461.24c-15.64,1.44-31.31.57-46.88-.24-26.44-1.37-52.92-1.7-79.29-5.34a353.41,353.41,0,0,1-52.65-11.2c-3.67-1.09-9.24-2.11-9.52-5.75-.25-3.19,5.38-4.38,8.61-6.17,1-.58,2.15-1,3.22-1.55,6.61-3.13,12.14-5,20.14-.58,10.41,5.75,23.1,6.7,35.06,7.86,19.09,1.84,38.23,4,57.43,3.67,22.26-.4,44.45-2.2,66.63-4.35,8.51-.83,16.92-1.5,25-4.29.9-.31,2.12-.71,2.83-.35C802.29,438.35,814.16,440.87,824.45,447.59Z"
       transform="translate(-445.5 -121.26)"
       id="path19773" />
    <path
       class="cls-3"
       d="M839.27,243.88c-9.34,11.51-18.1,21.49-24.46,33.23-15.07,27.84-27.77,56.45-30.57,88.55-.79,9.08-2.51,18.08-2.35,27.24.06,3.66-1.5,4.73-4.7,3.47-4.21-1.66-10.47-.31-12.57-3.76s1.68-8.48,2.47-12.9c3.28-18.12,6.39-36.21,6.71-54.76.23-13.09,1.11-26.15-.1-39.24-.3-3.21.06-6.1,3.94-7.68C799,269.37,817.18,254.89,839.27,243.88Z"
       transform="translate(-445.5 -121.26)"
       id="path19775" />
    <path
       class="cls-3"
       d="M766.3,238.25c-7.6,17.47-15.44,34.52-20.56,52.62-6.75,23.88-9.87,48.39-11.46,73.09-.38,5.87-1.44,11.73-.81,17.69.42,4-.93,5.85-5.72,5.45-9.73-.82-9.8-.48-9.2-9.77,1.59-24.63-1.05-49.16-1.59-73.74-.18-8.34-.32-16.69-.88-25-.23-3.44,1.74-4.36,4.09-5.63,15.23-8.2,30.09-16.93,41.83-30C763.43,241.38,764.87,239.82,766.3,238.25Z"
       transform="translate(-445.5 -121.26)"
       id="path19777" />
    <path
       class="cls-3"
       d="M550.41,245.65c13.2,10.72,26.73,20.75,41.81,28.43,6.51,3.32,12.82,7.24,20,9.14,3.21.86,2.57,3,2.6,5.08.17,10.13.37,20.24.8,30.37.64,15.43,4.82,30.05,8.88,44.73,1.9,6.85,3.85,13.7,6.14,20.42,1,3,.65,4.34-2.66,4.75a49.69,49.69,0,0,0-8.7,1.84c-3.45,1.08-4.95.26-5.73-3.48-3.85-18.36-8-36.67-13.23-54.69-4.37-15-13.16-27.8-20.54-41.33C571.09,275.07,560.71,260.44,550.41,245.65Z"
       transform="translate(-445.5 -121.26)"
       id="path19779" />
    <path
       class="cls-3"
       d="M487.88,275c10,6.33,20,12.68,30,19A105,105,0,0,0,554,308.43c3.31.64,4.89,2.27,5.39,5.33,3.72,23.12,11.73,45.15,17.14,67.84,1.5,6.28,4.6,11.82,8.08,17.11,1.54,2.35,1.5,3.12-1.06,4.26-4,1.77-7.79,3.86-11.58,6-3.21,1.8-3.32-1-3.76-2.6-2.06-7.22-3.66-14.58-5.85-21.75-4.61-15.1-8-30.95-18.72-43.18-9.88-11.3-19.05-23.2-30.23-33.49-8.35-7.69-14.56-17.71-21.73-26.68-1.47-1.84-3-3.65-4.49-5.48Z"
       transform="translate(-445.5 -121.26)"
       id="path19781" />
    <path
       class="cls-3"
       d="M622,248.64c13.54,12.35,29.05,21.24,46.82,25.82,4.09,1.05,4.71,2.8,4.41,6.61a281.89,281.89,0,0,0,4.58,79.1c1.35,6.57,1.69,13.36,3.57,19.87.67,2.31.12,4-2.86,3.45a6.6,6.6,0,0,0-1.19,0c-4.16,0-9,1.44-12.29-.25s-1.28-7.2-2.2-11c-3-12.46-6.05-25-7.93-37.62-1.34-9-3.35-17.82-4.57-26.8-1.92-14.06-9.52-25.65-16-37.76-3.86-7.2-9-13.49-13.65-20.09C620.43,248.8,620.84,248.34,622,248.64Z"
       transform="translate(-445.5 -121.26)"
       id="path19783" />
    <path
       class="cls-3"
       d="M880.82,291.55c-25.45,37.56-46.8,76.83-52.51,123.29-4.83-2.29-9.1-4.28-13.34-6.33-3-1.43-2.11-4.05-1.56-6.24a390.45,390.45,0,0,0,11.5-74.34c.08-1.51.28-2.43,1.91-3.13,19.45-8.41,35.91-21.57,53.11-33.54C880,291.2,880.21,291.34,880.82,291.55Z"
       transform="translate(-445.5 -121.26)"
       id="path19785" />
    <path
       class="cls-5"
       d="M611.57,421.35c23.51-11.12,129.92-10.69,157.52,4.65-8.06,2.78-16.29,3.31-24.35,4-27.74,2.46-55.6,1.76-83.38,1-14.87-.38-30-1.86-44.26-7.07C615.45,423.39,613.91,422.48,611.57,421.35Z"
       transform="translate(-445.5 -121.26)"
       id="path19787" />
    <path
       class="cls-3"
       d="M715.76,356.8c0,8.27,1.26,16.6-.36,24.86-.61,3.12-2.08,3.77-4.84,3.58-7.68-.54-15.37-1-23.06-1.35-2.28-.09-3.12-1-3.47-3.06-2.66-16-5.4-31.91-8.09-47.87-.41-2.43-.11-4.18,3.13-4.27,10.66-.29,21.27-1.91,32-.27,3.22.49,4.65,1.69,4.68,4.65C715.81,341,715.76,348.9,715.76,356.8Z"
       transform="translate(-445.5 -121.26)"
       id="path19789" />
    <path
       class="cls-3"
       d="M770.08,346.23c-2.24,13.18-3.83,28.56-8.19,43.44-.64,2.18-1.09,3.38-4,2.63-6.49-1.68-13.12-2.78-19.7-4.12-1.75-.36-2.67-1.06-2.51-3.22,1.22-16.54.9-33.18,4.07-49.6.85-4.4,2.73-4.7,6-3.77a106,106,0,0,0,16.32,3.05C770.31,335.66,770.51,335.91,770.08,346.23Z"
       transform="translate(-445.5 -121.26)"
       id="path19791" />
    <path
       class="cls-3"
       d="M784.21,391.09c.95-15.06,3.14-29.72,5.34-44.38.67-4.44,2.44-5.87,7.2-4.21a150.14,150.14,0,0,1,19.43,8.82c2.62,1.35,3.1,3.18,2.71,5.81-2.23,15.05-4.92,30-8.37,44.83-.66,2.82-2.17,3.71-4.66,3-6.46-1.85-12.92-3.72-19.29-5.85C782,397.59,785.31,393.55,784.21,391.09Z"
       transform="translate(-445.5 -121.26)"
       id="path19793" />
    <path
       class="cls-3"
       d="M638.73,387c-4.53,1.89-6-2.6-7.41-7.82-3.13-11.41-6.69-22.7-9.94-34.08-2.35-8.21-1.49-9.46,6.58-11.56a84.5,84.5,0,0,1,18.75-2.65c3.2-.1,4.8.45,5.49,4.15,2.7,14.54,5.89,29,8.85,43.48.77,3.76.36,6.23-4.71,6.24S646.21,386,638.73,387Z"
       transform="translate(-445.5 -121.26)"
       id="path19795" />
    <path
       class="cls-3"
       d="M595.94,341.65c3.46-.73,5.12.61,5.88,4.06,3.22,14.48,6.51,29,10.1,43.35.81,3.24-1.28,3.28-2.93,3.92-5.16,2-10.51,3.56-15.52,5.89-4.06,1.88-5.93.07-8-2.94-5.7-8.42-7.19-18.32-10-27.75-1.41-4.74-2.22-9.7-4-14.26-1.18-2.95-.65-4.2,1.94-5.46A69.72,69.72,0,0,1,595.94,341.65Z"
       transform="translate(-445.5 -121.26)"
       id="path19797" />
    <path
       class="cls-6"
       d="M783.57,430.53c-23.26,10.8-159.13,12-183-5.16,4.27-2.3,7.17-4.19,12.55-.72,6.66,4.3,15.18,5.31,23.17,6.69,16.43,2.84,33.19,3.3,49.65,3.07,15.76-.23,31.67.54,47.44-1.61,7.82-1.07,15.79-.09,23.72-1.21a86.24,86.24,0,0,0,12.67-2.92C774.85,427.15,779.06,428.15,783.57,430.53Z"
       transform="translate(-445.5 -121.26)"
       id="path19799" />
    <path
       class="cls-7"
       d="M622,248.64,620.71,250,612.63,241C616.64,242.64,619.43,245.53,622,248.64Z"
       transform="translate(-445.5 -121.26)"
       id="path19801" />
  </g>
  <g
     id="Layer_5"
     data-name="Layer 5">
    <path
       class="cls-8"
       d="M757.13,376.5c-.59.78-10.37,8.38-15.93-4s-2.19-30.59,10.43-30.67S764,367.5,757.13,376.5Z"
       transform="translate(-445.5 -121.26)"
       id="path19804" />
    <path
       class="cls-9"
       d="M740.74,371.43s.27-5.31.45-7.31-3.14-2.38,0-8.25v-7.34"
       transform="translate(-445.5 -121.26)"
       id="path19806" />
    <path
       class="cls-9"
       d="M741.19,364.13s5.81,4.75,6.06,8.5a4.91,4.91,0,0,1-2.48,5"
       transform="translate(-445.5 -121.26)"
       id="path19808" />
    <path
       class="cls-9"
       d="M747,375s2.61-.17,3.69,4.48"
       transform="translate(-445.5 -121.26)"
       id="path19810" />
    <path
       class="cls-9"
       d="M749.86,377.23a6.47,6.47,0,0,0,3.12-1.86c1-1.29,2.53-1.09,4.11-.71a7.61,7.61,0,0,1,1,.33"
       transform="translate(-445.5 -121.26)"
       id="path19812" />
    <path
       class="cls-9"
       d="M754.32,378.39a19.51,19.51,0,0,0-.33-3.81s-2-1.45-1.06-5,4.19-3.29,4.31-9.64-4.9-9.73-7.39-9.61-7.36,7.56-6.61,11.47,5.59,11.87,9.69,7.78"
       transform="translate(-445.5 -121.26)"
       id="path19814" />
    <path
       class="cls-9"
       d="M743.41,359.18l-2.22-3.31s5.09-3.75,6.08-8.12-3.55-2.66-3.55-2.66"
       transform="translate(-445.5 -121.26)"
       id="path19816" />
    <path
       class="cls-9"
       d="M756.88,363s3.33.74,2.6,9.2"
       transform="translate(-445.5 -121.26)"
       id="path19818" />
    <path
       class="cls-9"
       d="M758.72,364.89a31.57,31.57,0,0,0,3-3.75"
       transform="translate(-445.5 -121.26)"
       id="path19820" />
    <path
       class="cls-9"
       d="M749.86,350.38a17.6,17.6,0,0,0,3.08-3.25c.69-1.25-1.56-1.84-1.31-5.29"
       transform="translate(-445.5 -121.26)"
       id="path19822" />
    <path
       class="cls-9"
       d="M754,352.23c1.12-5.52-1.06-5.11-1.06-5.11s4-.62,7.78,3.25"
       transform="translate(-445.5 -121.26)"
       id="path19824" />
    <path
       class="cls-9"
       d="M756.16,355s2.61-.33,5.6,4.94"
       transform="translate(-445.5 -121.26)"
       id="path19826" />
    <path
       class="cls-8"
       d="M806.63,388.34c-.59.78-10.37,8.38-15.93-4s-2.19-30.59,10.43-30.67S813.5,379.34,806.63,388.34Z"
       transform="translate(-445.5 -121.26)"
       id="path19828" />
    <path
       class="cls-9"
       d="M790.24,383.27s.27-5.31.45-7.31-3.14-2.38,0-8.25v-7.34"
       transform="translate(-445.5 -121.26)"
       id="path19830" />
    <path
       class="cls-9"
       d="M790.69,376s5.81,4.75,6.06,8.5a4.91,4.91,0,0,1-2.48,5"
       transform="translate(-445.5 -121.26)"
       id="path19832" />
    <path
       class="cls-9"
       d="M796.47,386.82s2.61-.17,3.69,4.48"
       transform="translate(-445.5 -121.26)"
       id="path19834" />
    <path
       class="cls-9"
       d="M799.36,389.07a6.47,6.47,0,0,0,3.12-1.86c1-1.29,2.53-1.09,4.11-.71a7.61,7.61,0,0,1,1,.33"
       transform="translate(-445.5 -121.26)"
       id="path19836" />
    <path
       class="cls-9"
       d="M803.82,390.23a19.51,19.51,0,0,0-.33-3.81s-2-1.45-1.06-5,4.19-3.29,4.31-9.64-4.9-9.73-7.39-9.61-7.36,7.56-6.61,11.47,5.59,11.87,9.69,7.78"
       transform="translate(-445.5 -121.26)"
       id="path19838" />
    <path
       class="cls-9"
       d="M792.91,371l-2.22-3.31s5.09-3.75,6.08-8.12-3.55-2.66-3.55-2.66"
       transform="translate(-445.5 -121.26)"
       id="path19840" />
    <path
       class="cls-9"
       d="M806.38,374.8s3.33.74,2.6,9.2"
       transform="translate(-445.5 -121.26)"
       id="path19842" />
    <path
       class="cls-9"
       d="M808.22,376.73a31.57,31.57,0,0,0,3-3.75"
       transform="translate(-445.5 -121.26)"
       id="path19844" />
    <path
       class="cls-9"
       d="M799.36,362.21a17.6,17.6,0,0,0,3.08-3.25c.69-1.25-1.56-1.84-1.31-5.29"
       transform="translate(-445.5 -121.26)"
       id="path19846" />
    <path
       class="cls-9"
       d="M803.5,364.07c1.12-5.52-1.06-5.11-1.06-5.11s4-.62,7.78,3.25"
       transform="translate(-445.5 -121.26)"
       id="path19848" />
    <path
       class="cls-9"
       d="M805.66,366.88s2.61-.33,5.6,4.94"
       transform="translate(-445.5 -121.26)"
       id="path19850" />
    <path
       class="cls-8"
       d="M704.51,373.32c-.59.78-10.37,8.38-15.93-4s-2.19-30.59,10.43-30.67S711.39,364.32,704.51,373.32Z"
       transform="translate(-445.5 -121.26)"
       id="path19852" />
    <path
       class="cls-9"
       d="M688.13,368.25s.27-5.31.45-7.31-3.14-2.38,0-8.25v-7.34"
       transform="translate(-445.5 -121.26)"
       id="path19854" />
    <path
       class="cls-9"
       d="M688.58,360.94s5.81,4.75,6.06,8.5a4.91,4.91,0,0,1-2.48,5"
       transform="translate(-445.5 -121.26)"
       id="path19856" />
    <path
       class="cls-9"
       d="M694.35,371.8s2.61-.17,3.69,4.48"
       transform="translate(-445.5 -121.26)"
       id="path19858" />
    <path
       class="cls-9"
       d="M697.25,374a6.47,6.47,0,0,0,3.12-1.86c1-1.29,2.53-1.09,4.11-.71a7.61,7.61,0,0,1,1,.33"
       transform="translate(-445.5 -121.26)"
       id="path19860" />
    <path
       class="cls-9"
       d="M701.71,375.21a19.51,19.51,0,0,0-.33-3.81s-2-1.45-1.06-5,4.19-3.29,4.31-9.64-4.9-9.73-7.39-9.61-7.36,7.56-6.61,11.47,5.59,11.87,9.69,7.78"
       transform="translate(-445.5 -121.26)"
       id="path19862" />
    <path
       class="cls-9"
       d="M690.8,356l-2.22-3.31s5.09-3.75,6.08-8.12-3.55-2.66-3.55-2.66"
       transform="translate(-445.5 -121.26)"
       id="path19864" />
    <path
       class="cls-9"
       d="M704.26,359.78s3.33.74,2.6,9.2"
       transform="translate(-445.5 -121.26)"
       id="path19866" />
    <path
       class="cls-9"
       d="M706.1,361.71a31.57,31.57,0,0,0,3-3.75"
       transform="translate(-445.5 -121.26)"
       id="path19868" />
    <path
       class="cls-9"
       d="M697.25,347.19a17.6,17.6,0,0,0,3.08-3.25c.69-1.25-1.56-1.84-1.31-5.29"
       transform="translate(-445.5 -121.26)"
       id="path19870" />
    <path
       class="cls-9"
       d="M701.38,349c1.12-5.52-1.06-5.11-1.06-5.11s4-.62,7.78,3.25"
       transform="translate(-445.5 -121.26)"
       id="path19872" />
    <path
       class="cls-9"
       d="M703.54,351.86s2.61-.33,5.6,4.94"
       transform="translate(-445.5 -121.26)"
       id="path19874" />
    <path
       class="cls-8"
       d="M647.63,373.78c-.59.78-10.37,8.38-15.93-4s-2.19-30.59,10.43-30.67S654.51,364.78,647.63,373.78Z"
       transform="translate(-445.5 -121.26)"
       id="path19876" />
    <path
       class="cls-9"
       d="M631.25,368.71s.27-5.31.45-7.31-3.14-2.38,0-8.25v-7.34"
       transform="translate(-445.5 -121.26)"
       id="path19878" />
    <path
       class="cls-9"
       d="M631.7,361.41s5.81,4.75,6.06,8.5a4.91,4.91,0,0,1-2.48,5"
       transform="translate(-445.5 -121.26)"
       id="path19880" />
    <path
       class="cls-9"
       d="M637.48,372.27s2.61-.17,3.69,4.48"
       transform="translate(-445.5 -121.26)"
       id="path19882" />
    <path
       class="cls-9"
       d="M640.37,374.51a6.47,6.47,0,0,0,3.12-1.86c1-1.29,2.53-1.09,4.11-.71a7.61,7.61,0,0,1,1,.33"
       transform="translate(-445.5 -121.26)"
       id="path19884" />
    <path
       class="cls-9"
       d="M644.83,375.67a19.51,19.51,0,0,0-.33-3.81s-2-1.45-1.06-5,4.19-3.29,4.31-9.64-4.9-9.73-7.39-9.61-7.36,7.56-6.61,11.47,5.59,11.87,9.69,7.78"
       transform="translate(-445.5 -121.26)"
       id="path19886" />
    <path
       class="cls-9"
       d="M633.92,356.46l-2.22-3.31s5.09-3.75,6.08-8.12-3.55-2.66-3.55-2.66"
       transform="translate(-445.5 -121.26)"
       id="path19888" />
    <path
       class="cls-9"
       d="M647.39,360.25s3.33.74,2.6,9.2"
       transform="translate(-445.5 -121.26)"
       id="path19890" />
    <path
       class="cls-9"
       d="M649.22,362.17a31.57,31.57,0,0,0,3-3.75"
       transform="translate(-445.5 -121.26)"
       id="path19892" />
    <path
       class="cls-9"
       d="M640.37,347.66a17.6,17.6,0,0,0,3.08-3.25c.69-1.25-1.56-1.84-1.31-5.29"
       transform="translate(-445.5 -121.26)"
       id="path19894" />
    <path
       class="cls-9"
       d="M644.5,349.51c1.12-5.52-1.06-5.11-1.06-5.11s4-.62,7.78,3.25"
       transform="translate(-445.5 -121.26)"
       id="path19896" />
    <path
       class="cls-9"
       d="M646.67,352.33s2.61-.33,5.6,4.94"
       transform="translate(-445.5 -121.26)"
       id="path19898" />
    <path
       class="cls-8"
       d="M598.39,387c-.59.78-10.37,8.38-15.93-4s-2.19-30.59,10.43-30.67S605.26,378,598.39,387Z"
       transform="translate(-445.5 -121.26)"
       id="path19900" />
    <path
       class="cls-9"
       d="M582,381.94s.27-5.31.45-7.31-3.14-2.38,0-8.25V359"
       transform="translate(-445.5 -121.26)"
       id="path19902" />
    <path
       class="cls-9"
       d="M582.45,374.64s5.81,4.75,6.06,8.5a4.91,4.91,0,0,1-2.48,5"
       transform="translate(-445.5 -121.26)"
       id="path19904" />
    <path
       class="cls-9"
       d="M588.23,385.5s2.61-.17,3.69,4.48"
       transform="translate(-445.5 -121.26)"
       id="path19906" />
    <path
       class="cls-9"
       d="M591.12,387.74a6.47,6.47,0,0,0,3.12-1.86c1-1.29,2.53-1.09,4.11-.71a7.61,7.61,0,0,1,1,.33"
       transform="translate(-445.5 -121.26)"
       id="path19908" />
    <path
       class="cls-9"
       d="M595.58,388.9a19.51,19.51,0,0,0-.33-3.81s-2-1.45-1.06-5,4.19-3.29,4.31-9.64-4.9-9.73-7.39-9.61-7.36,7.56-6.61,11.47,5.59,11.87,9.69,7.78"
       transform="translate(-445.5 -121.26)"
       id="path19910" />
    <path
       class="cls-9"
       d="M584.67,369.69l-2.22-3.31s5.09-3.75,6.08-8.12S585,355.6,585,355.6"
       transform="translate(-445.5 -121.26)"
       id="path19912" />
    <path
       class="cls-9"
       d="M598.14,373.48s3.33.74,2.6,9.2"
       transform="translate(-445.5 -121.26)"
       id="path19914" />
    <path
       class="cls-9"
       d="M600,375.41a31.57,31.57,0,0,0,3-3.75"
       transform="translate(-445.5 -121.26)"
       id="path19916" />
    <path
       class="cls-9"
       d="M591.12,360.89a17.6,17.6,0,0,0,3.08-3.25c.69-1.25-1.56-1.84-1.31-5.29"
       transform="translate(-445.5 -121.26)"
       id="path19918" />
    <path
       class="cls-9"
       d="M595.26,362.74c1.12-5.52-1.06-5.11-1.06-5.11s4-.62,7.78,3.25"
       transform="translate(-445.5 -121.26)"
       id="path19920" />
    <path
       class="cls-9"
       d="M597.42,365.56s2.61-.33,5.6,4.94"
       transform="translate(-445.5 -121.26)"
       id="path19922" />
  </g>
  <g
     id="Layer_6"
     data-name="Layer 6">
    <circle
       class="cls-8"
       cx="285.42"
       cy="278.74"
       r="7.92"
       id="circle19925" />
    <circle
       class="cls-9"
       cx="285.42"
       cy="278.74"
       r="4.33"
       id="circle19927" />
    <path
       class="cls-9"
       d="M723.84,403.54a10,10,0,0,0,3.36-1.33"
       transform="translate(-445.5 -121.26)"
       id="path19929" />
    <path
       class="cls-9"
       d="M734.64,402.21s.68,1,3.35,1.33"
       transform="translate(-445.5 -121.26)"
       id="path19931" />
    <path
       class="cls-9"
       d="M726.58,398.42a4.94,4.94,0,0,1-2.94-1.55"
       transform="translate(-445.5 -121.26)"
       id="path19933" />
    <path
       class="cls-9"
       d="M729.42,395.94A6.84,6.84,0,0,1,727.2,393"
       transform="translate(-445.5 -121.26)"
       id="path19935" />
    <path
       class="cls-9"
       d="M732,395.81a15.15,15.15,0,0,0,2.63-2.8"
       transform="translate(-445.5 -121.26)"
       id="path19937" />
    <path
       class="cls-9"
       d="M735,398.43a13.1,13.1,0,0,0,3.24-1.56"
       transform="translate(-445.5 -121.26)"
       id="path19939" />
    <path
       class="cls-9"
       d="M729.42,404.33a9.71,9.71,0,0,1-1.61,3"
       transform="translate(-445.5 -121.26)"
       id="path19941" />
    <path
       class="cls-9"
       d="M732.58,404a9,9,0,0,0,2.06,3.28"
       transform="translate(-445.5 -121.26)"
       id="path19943" />
    <circle
       class="cls-8"
       cx="327.42"
       cy="288.16"
       r="7.92"
       id="circle19945" />
    <circle
       class="cls-9"
       cx="327.42"
       cy="288.16"
       r="4.33"
       id="circle19947" />
    <path
       class="cls-9"
       d="M765.84,413a10,10,0,0,0,3.36-1.33"
       transform="translate(-445.5 -121.26)"
       id="path19949" />
    <path
       class="cls-9"
       d="M776.64,411.64s.68,1,3.35,1.33"
       transform="translate(-445.5 -121.26)"
       id="path19951" />
    <path
       class="cls-9"
       d="M768.58,407.84a4.94,4.94,0,0,1-2.94-1.55"
       transform="translate(-445.5 -121.26)"
       id="path19953" />
    <path
       class="cls-9"
       d="M771.42,405.36a6.84,6.84,0,0,1-2.23-2.92"
       transform="translate(-445.5 -121.26)"
       id="path19955" />
    <path
       class="cls-9"
       d="M774,405.23a15.15,15.15,0,0,0,2.63-2.8"
       transform="translate(-445.5 -121.26)"
       id="path19957" />
    <path
       class="cls-9"
       d="M777,407.85a13.1,13.1,0,0,0,3.24-1.56"
       transform="translate(-445.5 -121.26)"
       id="path19959" />
    <path
       class="cls-9"
       d="M771.42,413.76a9.71,9.71,0,0,1-1.61,3"
       transform="translate(-445.5 -121.26)"
       id="path19961" />
    <path
       class="cls-9"
       d="M774.58,413.42a9,9,0,0,0,2.06,3.28"
       transform="translate(-445.5 -121.26)"
       id="path19963" />
    <circle
       class="cls-8"
       cx="368.75"
       cy="303.36"
       r="7.92"
       id="circle19965" />
    <circle
       class="cls-9"
       cx="368.75"
       cy="303.36"
       r="4.33"
       id="circle19967" />
    <path
       class="cls-9"
       d="M807.17,428.16a10,10,0,0,0,3.36-1.33"
       transform="translate(-445.5 -121.26)"
       id="path19969" />
    <path
       class="cls-9"
       d="M818,426.84s.68,1,3.35,1.33"
       transform="translate(-445.5 -121.26)"
       id="path19971" />
    <path
       class="cls-9"
       d="M809.91,423a4.94,4.94,0,0,1-2.94-1.55"
       transform="translate(-445.5 -121.26)"
       id="path19973" />
    <path
       class="cls-9"
       d="M812.75,420.56a6.84,6.84,0,0,1-2.23-2.92"
       transform="translate(-445.5 -121.26)"
       id="path19975" />
    <path
       class="cls-9"
       d="M815.34,420.43a15.15,15.15,0,0,0,2.63-2.8"
       transform="translate(-445.5 -121.26)"
       id="path19977" />
    <path
       class="cls-9"
       d="M818.28,423.05a13.1,13.1,0,0,0,3.24-1.56"
       transform="translate(-445.5 -121.26)"
       id="path19979" />
    <path
       class="cls-9"
       d="M812.75,429a9.71,9.71,0,0,1-1.61,3"
       transform="translate(-445.5 -121.26)"
       id="path19981" />
    <path
       class="cls-9"
       d="M815.91,428.62a9,9,0,0,0,2.06,3.28"
       transform="translate(-445.5 -121.26)"
       id="path19983" />
    <circle
       class="cls-8"
       cx="245.06"
       cy="275.39"
       r="7.92"
       id="circle19985" />
    <circle
       class="cls-9"
       cx="245.06"
       cy="275.39"
       r="4.33"
       id="circle19987" />
    <path
       class="cls-9"
       d="M683.48,400.19a10,10,0,0,0,3.36-1.33"
       transform="translate(-445.5 -121.26)"
       id="path19989" />
    <path
       class="cls-9"
       d="M694.28,398.86s.68,1,3.35,1.33"
       transform="translate(-445.5 -121.26)"
       id="path19991" />
    <path
       class="cls-9"
       d="M686.23,395.07a4.94,4.94,0,0,1-2.94-1.55"
       transform="translate(-445.5 -121.26)"
       id="path19993" />
    <path
       class="cls-9"
       d="M689.07,392.59a6.84,6.84,0,0,1-2.23-2.92"
       transform="translate(-445.5 -121.26)"
       id="path19995" />
    <path
       class="cls-9"
       d="M691.65,392.46a15.15,15.15,0,0,0,2.63-2.8"
       transform="translate(-445.5 -121.26)"
       id="path19997" />
    <path
       class="cls-9"
       d="M694.59,395.08a13.1,13.1,0,0,0,3.24-1.56"
       transform="translate(-445.5 -121.26)"
       id="path19999" />
    <path
       class="cls-9"
       d="M689.07,401a9.71,9.71,0,0,1-1.61,3"
       transform="translate(-445.5 -121.26)"
       id="path20001" />
    <path
       class="cls-9"
       d="M692.23,400.65a9,9,0,0,0,2.06,3.28"
       transform="translate(-445.5 -121.26)"
       id="path20003" />
    <circle
       class="cls-8"
       cx="206.77"
       cy="276.39"
       r="7.92"
       id="circle20005" />
    <circle
       class="cls-9"
       cx="206.77"
       cy="276.39"
       r="4.33"
       id="circle20007" />
    <path
       class="cls-9"
       d="M645.19,401.19a10,10,0,0,0,3.36-1.33"
       transform="translate(-445.5 -121.26)"
       id="path20009" />
    <path
       class="cls-9"
       d="M656,399.86s.68,1,3.35,1.33"
       transform="translate(-445.5 -121.26)"
       id="path20011" />
    <path
       class="cls-9"
       d="M647.93,396.07a4.94,4.94,0,0,1-2.94-1.55"
       transform="translate(-445.5 -121.26)"
       id="path20013" />
    <path
       class="cls-9"
       d="M650.77,393.59a6.84,6.84,0,0,1-2.23-2.92"
       transform="translate(-445.5 -121.26)"
       id="path20015" />
    <path
       class="cls-9"
       d="M653.36,393.46a15.15,15.15,0,0,0,2.63-2.8"
       transform="translate(-445.5 -121.26)"
       id="path20017" />
    <path
       class="cls-9"
       d="M656.3,396.08a13.1,13.1,0,0,0,3.24-1.56"
       transform="translate(-445.5 -121.26)"
       id="path20019" />
    <path
       class="cls-9"
       d="M650.77,402a9.71,9.71,0,0,1-1.61,3"
       transform="translate(-445.5 -121.26)"
       id="path20021" />
    <path
       class="cls-9"
       d="M653.93,401.65a9,9,0,0,0,2.06,3.28"
       transform="translate(-445.5 -121.26)"
       id="path20023" />
    <circle
       class="cls-8"
       cx="171.02"
       cy="282.03"
       r="7.92"
       id="circle20025" />
    <circle
       class="cls-9"
       cx="171.02"
       cy="282.03"
       r="4.33"
       id="circle20027" />
    <path
       class="cls-9"
       d="M609.44,406.83a10,10,0,0,0,3.36-1.33"
       transform="translate(-445.5 -121.26)"
       id="path20029" />
    <path
       class="cls-9"
       d="M620.24,405.5s.68,1,3.35,1.33"
       transform="translate(-445.5 -121.26)"
       id="path20031" />
    <path
       class="cls-9"
       d="M612.18,401.71a4.94,4.94,0,0,1-2.94-1.55"
       transform="translate(-445.5 -121.26)"
       id="path20033" />
    <path
       class="cls-9"
       d="M615,399.23a6.84,6.84,0,0,1-2.23-2.92"
       transform="translate(-445.5 -121.26)"
       id="path20035" />
    <path
       class="cls-9"
       d="M617.61,399.1a15.15,15.15,0,0,0,2.63-2.8"
       transform="translate(-445.5 -121.26)"
       id="path20037" />
    <path
       class="cls-9"
       d="M620.55,401.72a13.1,13.1,0,0,0,3.24-1.56"
       transform="translate(-445.5 -121.26)"
       id="path20039" />
    <path
       class="cls-9"
       d="M615,407.62a9.71,9.71,0,0,1-1.61,3"
       transform="translate(-445.5 -121.26)"
       id="path20041" />
    <path
       class="cls-9"
       d="M618.18,407.29a9,9,0,0,0,2.06,3.28"
       transform="translate(-445.5 -121.26)"
       id="path20043" />
    <circle
       class="cls-8"
       cx="138.94"
       cy="293.5"
       r="7.92"
       id="circle20045" />
    <circle
       class="cls-9"
       cx="138.94"
       cy="293.5"
       r="4.33"
       id="circle20047" />
    <path
       class="cls-9"
       d="M577.36,418.3a10,10,0,0,0,3.36-1.33"
       transform="translate(-445.5 -121.26)"
       id="path20049" />
    <path
       class="cls-9"
       d="M588.16,417s.68,1,3.35,1.33"
       transform="translate(-445.5 -121.26)"
       id="path20051" />
    <path
       class="cls-9"
       d="M580.1,413.17a4.94,4.94,0,0,1-2.94-1.55"
       transform="translate(-445.5 -121.26)"
       id="path20053" />
    <path
       class="cls-9"
       d="M582.94,410.69a6.84,6.84,0,0,1-2.23-2.92"
       transform="translate(-445.5 -121.26)"
       id="path20055" />
    <path
       class="cls-9"
       d="M585.52,410.57a15.15,15.15,0,0,0,2.63-2.8"
       transform="translate(-445.5 -121.26)"
       id="path20057" />
    <path
       class="cls-9"
       d="M588.47,413.18a13.1,13.1,0,0,0,3.24-1.56"
       transform="translate(-445.5 -121.26)"
       id="path20059" />
    <path
       class="cls-9"
       d="M582.94,419.09a9.71,9.71,0,0,1-1.61,3"
       transform="translate(-445.5 -121.26)"
       id="path20061" />
    <path
       class="cls-9"
       d="M586.1,418.76a9,9,0,0,0,2.06,3.28"
       transform="translate(-445.5 -121.26)"
       id="path20063" />
  </g>
  <path
     id="shine"
     d="M 1.659998,0.963119 V 207.34 c 0,229.66454 239.920002,319.6031 239.920002,319.6031 0,0 239.92,-89.93856 239.92,-319.6031 V 0.963119 Z"
     style="fill:url(#rg);stroke:#000000;stroke-width:2.41218" />
</svg>
