<?xml version="1.0" encoding="UTF-8" standalone="no"?>
<svg
   viewBox="0 0 483 527.48"
   version="1.1"
   id="svg20849"
   sodipodi:docname="House Payne.svg"
   inkscape:version="1.2.1 (9c6d41e410, 2022-07-14)"
   xmlns:inkscape="http://www.inkscape.org/namespaces/inkscape"
   xmlns:sodipodi="http://sodipodi.sourceforge.net/DTD/sodipodi-0.dtd"
   xmlns="http://www.w3.org/2000/svg"
   xmlns:svg="http://www.w3.org/2000/svg">
  <sodipodi:namedview
     id="namedview20851"
     pagecolor="#ffffff"
     bordercolor="#000000"
     borderopacity="0.25"
     inkscape:showpageshadow="2"
     inkscape:pageopacity="0.0"
     inkscape:pagecheckerboard="0"
     inkscape:deskcolor="#d1d1d1"
     showgrid="false"
     inkscape:zoom="0.56101501"
     inkscape:cx="-155.07606"
     inkscape:cy="461.66322"
     inkscape:window-width="1920"
     inkscape:window-height="1017"
     inkscape:window-x="-8"
     inkscape:window-y="-8"
     inkscape:window-maximized="1"
     inkscape:current-layer="svg20849" />
  <defs
     id="defs20766">
    <style
       id="style20764">.cls-1{fill:#e0e0e0;}.cls-2{fill:#742d82;}.cls-3{fill:#d8cb0b;}.cls-4{fill:#dfc621;}.cls-5{fill:#d8d80e;}.cls-6{fill:none;stroke:#000;stroke-width:3px;}</style>
    <radialGradient
       id="rg"
       gradientUnits="userSpaceOnUse"
       cx="220"
       cy="220"
       r="405"
       gradientTransform="matrix(0.80510068,0,0,0.80302287,-0.03015989,-0.94701325)">
      <stop
         style="stop-color:#ffffff;stop-opacity:.3"
         offset="0"
         id="stop753" />
      <stop
         style="stop-color:#ffffff;stop-opacity:.2"
         offset=".2"
         id="stop755" />
      <stop
         style="stop-color:#666666;stop-opacity:.1"
         offset=".6"
         id="stop757" />
      <stop
         style="stop-color:#000000;stop-opacity:.13"
         offset="1"
         id="stop759" />
    </radialGradient>
  </defs>
  <title
     id="title20768">House Payne</title>
  <g
     id="Layer_2"
     data-name="Layer 2">
    <path
       class="cls-1"
       d="M927,122.76V328.6a313.88,313.88,0,0,1-2.28,38c-.11.93-.24,1.86-.36,2.79,0,.2,0,.4-.08.59-.09.74-.19,1.47-.31,2.2-.46,3.37-1,6.69-1.6,10-.07.44-.15.87-.23,1.31-.16.8-.29,1.6-.45,2.4s-.34,1.79-.51,2.69l-.45,2.22-.24,1.15c-.15.71-.3,1.44-.46,2.15-.54,2.37-1.07,4.71-1.61,7l-.58,2.32-.52,2q-1.53,5.88-3.27,11.61c-.29,1-.59,1.94-.9,2.92l-.6,1.88c-.2.63-.4,1.24-.61,1.86-.37,1.09-.73,2.17-1.1,3.25s-.68,2-1,3l-.24.66-1.15,3.15c-.36,1-.73,2-1.11,3l-.19.5c-.43,1.14-.87,2.25-1.32,3.36-.25.63-.49,1.23-.74,1.82l-.57,1.38c0,.15-.12.28-.18.42-.4,1-.8,2-1.25,3s-.76,1.75-1.13,2.62l-.66,1.49c-.48,1.07-1,2.11-1.44,3.15s-.9,2-1.36,2.93l-1,2.12c-.29.63-.6,1.25-.91,1.87-.37.78-.76,1.56-1.15,2.35-.05.09-.1.19-.14.28-.23.45-.46.9-.68,1.36q-2,4-4.19,8c-.33.61-.67,1.21-1,1.81l-2,3.57-.12.21c-1.42,2.47-2.86,4.92-4.33,7.33-.71,1.2-1.46,2.4-2.18,3.54-.11.16-.2.32-.3.47-.55.89-1.12,1.78-1.69,2.66l-.65,1c-.65,1-1.31,2-2,3l-.13.18c-.65,1-1.31,2-2,3l-.45.67q-2.25,3.29-4.54,6.46l-.31.43c-.8,1.07-1.54,2.14-2.31,3.19s-1.66,2.23-2.5,3.32c-1.52,2-3.06,4-4.61,6l-.81,1q-1.09,1.39-2.22,2.76L854,526.61l-.57.69c-.8.94-1.6,1.87-2.41,2.8q-2.82,3.32-5.72,6.53c-.75.85-1.52,1.69-2.29,2.51s-1.47,1.6-2.22,2.4q-3,3.2-5.93,6.24-2.76,2.82-5.53,5.59c-.86.85-1.73,1.71-2.59,2.54-.06.06-.11.12-.17.17-.92.89-1.85,1.78-2.79,2.66l-2.28,2.12c-.68.65-1.36,1.28-2,1.91l-.2.18-.23.21q-12.16,11.13-25.13,21.34-12.66,10-26,19l-.27.18q-.68.47-1.35.9c-2.83,1.92-5.68,3.78-8.55,5.62-.86.55-1.72,1.1-2.57,1.6q-6.43,4.06-12.47,7.63l-2.41,1.4-2.34,1.36h0l-.22.13-2.11,1.21-2.23,1.29c-1.29.73-2.57,1.43-3.82,2.12-6.84,3.75-13.08,7-18.56,9.64l-1.6.8c-10.64,5.15-18.12,8.22-21,9.35l-.42.17-.61.24-.14,0h-.08l-.23-.09-.21,0-1.07-.42-.54-.23c-.87-.34-2-.8-3.37-1.38l-.46-.18c-1.76-.8-3.89-1.67-6.33-2.77l-1.39-.61q-15.06-6.86-29.57-14.84c-.38-.2-.76-.41-1.13-.63-.92-.49-1.84-1-2.75-1.53-1.82-1-3.63-2-5.43-3.1a2,2,0,0,1-.25-.14l-.62-.36c-.8-.44-1.6-.92-2.35-1.38q-12.73-7.52-25-15.8l-.32-.22-1.23-.85q-9.3-6.33-18.27-13.11l-2.63-2c-1-.75-2-1.51-2.94-2.29l-1-.79-1.81-1.42c-6.19-4.92-12.43-10.15-18.64-15.69L558.08,566c-1.41-1.25-2.8-2.53-4.19-3.83l-.22-.2-.18-.17-1.67-1.57L550,558.54l-2-1.94c-.55-.52-1.09-1-1.63-1.58l-1.7-1.69c-.85-.79-1.69-1.66-2.52-2.5l-.24-.26c-.84-.83-1.67-1.67-2.5-2.51-.66-.68-1.32-1.36-2-2l-2-2.06-.13-.15-2.1-2.25q-3.36-3.6-6.66-7.36c-.68-.79-1.36-1.54-2.05-2.34-.57-.65-1.12-1.29-1.66-1.94q-1-1.2-2-2.4-4.28-5.1-8.39-10.48c-.76-1-1.5-1.93-2.24-2.92-1.89-2.47-3.73-5-5.57-7.55-.55-.8-1.12-1.59-1.68-2.39-.13-.16-.24-.34-.36-.5-.59-.86-1.19-1.7-1.77-2.56-.94-1.38-1.89-2.77-2.81-4.17-.74-1.09-1.47-2.2-2.19-3.31a1,1,0,0,0-.15-.24l-2.22-3.48-.22-.36c-.7-1.14-1.41-2.27-2.1-3.4s-1.49-2.46-2.21-3.71-1.43-2.39-2.13-3.67q-1.89-3.27-3.68-6.63c-.25-.42-.47-.83-.69-1.25q-1-1.82-1.92-3.66c-.84-1.62-1.67-3.27-2.48-4.92l-.3-.6-.14-.28c-.2-.4-.39-.8-.59-1.21s-.44-.88-.65-1.35c-.43-.87-.8-1.74-1.25-2.63a25.91,25.91,0,0,1-1.15-2.47l-.23-.48c-.27-.58-.53-1.16-.81-1.75l-.26-.57c-.27-.59-.52-1.19-.8-1.78q-1.44-3.25-2.79-6.57l-.09-.23c-.39-.94-.74-1.9-1.14-2.85-.1-.25-.21-.52-.31-.79-.4-1-.8-2-1.16-3s-.69-1.82-1-2.74l-.24-.65c-.17-.44-.33-.91-.49-1.35l-.15-.41q-.9-2.49-1.75-5c-.21-.6-.4-1.2-.6-1.8-.26-.8-.51-1.54-.75-2.32-.14-.41-.27-.8-.4-1.22-.25-.8-.49-1.59-.75-2.39-.31-1-.61-2.06-.92-3.11-.19-.64-.39-1.28-.57-1.95-.37-1.29-.74-2.58-1.09-3.89-.19-.68-.37-1.35-.55-2-.13-.5-.27-1-.4-1.51-.32-1.22-.62-2.45-.92-3.7-.18-.7-.34-1.4-.52-2.11-.07-.28-.13-.56-.19-.85-.37-1.55-.72-3.11-1.07-4.69-.26-1.16-.5-2.33-.74-3.5-.13-.71-.29-1.43-.42-2.14s-.32-1.59-.48-2.45a1.86,1.86,0,0,0-.09-.47c-.16-.8-.3-1.64-.45-2.48s-.32-1.84-.48-2.77-.29-1.8-.45-2.71q-.57-3.7-1.07-7.47c-.17-1.23-.33-2.47-.48-3.71A312.7,312.7,0,0,1,447,328.58V122.76Z"
       transform="translate(-445.5 -121.26)"
       id="path20770" />
  </g>
  <g
     id="Layer_4"
     data-name="Layer 4">
    <rect
       class="cls-2"
       x="320.17"
       y="1.5"
       width="161.33"
       height="153.91"
       id="rect20773" />
    <ellipse
       class="cls-3"
       cx="401.1"
       cy="75.49"
       rx="62.62"
       ry="65.25"
       id="ellipse20775" />
    <path
       class="cls-4"
       d="M801.44,230.18s-32.33-80.76,53.76-90c0,0-31.31-10.7-48.76,13.1s-17,67-11,73.94S801.44,230.18,801.44,230.18Z"
       transform="translate(-445.5 -121.26)"
       id="path20777" />
    <path
       class="cls-5"
       d="M846.6,131.77c-34.38,0-62.36,29.15-62.36,65s28,65,62.36,65,62.36-29.15,62.36-65S881,131.77,846.6,131.77Zm0,120.34c-21.45,0-40-13.32-48.34-32.43h0a57,57,0,0,1-4.77-22.92c0-30.52,23.83-55.36,53.12-55.36h.12c29.24.07,53,24.88,53,55.36S875.89,252.11,846.6,252.11Z"
       transform="translate(-445.5 -121.26)"
       id="path20779" />
    <ellipse
       class="cls-3"
       cx="240.32"
       cy="75.49"
       rx="62.62"
       ry="65.25"
       id="ellipse20781" />
    <path
       class="cls-4"
       d="M640.65,230.17s-32.33-80.76,53.76-90c0,0-31.31-10.7-48.76,13.1s-17,67-11,73.94S640.65,230.17,640.65,230.17Z"
       transform="translate(-445.5 -121.26)"
       id="path20783" />
    <path
       class="cls-5"
       d="M685.82,131.76c-34.39,0-62.36,29.15-62.36,65s28,65,62.36,65,62.36-29.15,62.36-65S720.2,131.76,685.82,131.76Zm0,120.34c-21.46,0-40-13.33-48.35-32.44h0a56.94,56.94,0,0,1-4.76-22.9c0-30.53,23.83-55.36,53.12-55.36h.11c29.24.07,53,24.86,53,55.36S715.11,252.1,685.82,252.1Z"
       transform="translate(-445.5 -121.26)"
       id="path20785" />
    <rect
       class="cls-2"
       x="1.5"
       y="1.5"
       width="157.88"
       height="153.9"
       id="rect20787" />
    <ellipse
       class="cls-3"
       cx="78.98"
       cy="75.49"
       rx="62.62"
       ry="65.25"
       id="ellipse20789" />
    <path
       class="cls-4"
       d="M479.32,230.17s-32.33-80.76,53.76-90c0,0-31.31-10.7-48.76,13.1s-17,67-11,73.94S479.32,230.17,479.32,230.17Z"
       transform="translate(-445.5 -121.26)"
       id="path20791" />
    <path
       class="cls-5"
       d="M524.48,131.76c-34.38,0-62.35,29.15-62.35,65s28,65,62.35,65,62.36-29.15,62.36-65S558.87,131.76,524.48,131.76Zm0,120.34c-21.43,0-39.94-13.29-48.33-32.38,0,0,0,0,0,0a57,57,0,0,1-4.78-23c0-30.53,23.83-55.36,53.12-55.36h.12c29.24.07,53,24.87,53,55.36S553.77,252.1,524.48,252.1Z"
       transform="translate(-445.5 -121.26)"
       id="path20793" />
    <ellipse
       class="cls-3"
       cx="401.1"
       cy="229.4"
       rx="62.62"
       ry="65.25"
       id="ellipse20795" />
    <path
       class="cls-4"
       d="M801.44,384.09s-32.33-80.76,53.76-90c0,0-31.31-10.7-48.76,13.1s-17,67-11,73.94S801.44,384.09,801.44,384.09Z"
       transform="translate(-445.5 -121.26)"
       id="path20797" />
    <path
       class="cls-5"
       d="M846.6,285.68c-34.38,0-62.36,29.15-62.36,65s28,65,62.36,65,62.36-29.15,62.36-65S881,285.68,846.6,285.68Zm0,120.34c-21.45,0-40-13.32-48.34-32.43h0a57,57,0,0,1-4.77-22.92c0-30.52,23.83-55.35,53.12-55.35h.06c29.26,0,53.06,24.85,53.06,55.35S875.89,406,846.6,406Z"
       transform="translate(-445.5 -121.26)"
       id="path20799" />
    <rect
       class="cls-2"
       x="159.38"
       y="155.41"
       width="161.33"
       height="153.91"
       id="rect20801" />
    <ellipse
       class="cls-3"
       cx="240.32"
       cy="229.4"
       rx="62.62"
       ry="65.25"
       id="ellipse20803" />
    <path
       class="cls-4"
       d="M640.65,384.08s-32.33-80.76,53.76-90c0,0-31.31-10.7-48.76,13.1s-17,67-11,73.94S640.65,384.08,640.65,384.08Z"
       transform="translate(-445.5 -121.26)"
       id="path20805" />
    <path
       class="cls-5"
       d="M685.82,285.67c-34.39,0-62.36,29.16-62.36,65s28,65,62.36,65,62.36-29.15,62.36-65S720.2,285.67,685.82,285.67Zm0,120.34c-21.46,0-40-13.33-48.35-32.44h0a56.94,56.94,0,0,1-4.76-22.9c0-30.53,23.83-55.36,53.12-55.36h.11c29.24.07,53,24.86,53,55.36S715.11,406,685.82,406Z"
       transform="translate(-445.5 -121.26)"
       id="path20807" />
    <ellipse
       class="cls-3"
       cx="78.98"
       cy="229.4"
       rx="62.62"
       ry="65.25"
       id="ellipse20809" />
    <path
       class="cls-4"
       d="M479.32,384.08s-32.33-80.76,53.76-90c0,0-31.31-10.7-48.76,13.1s-17,67-11,73.94S479.32,384.08,479.32,384.08Z"
       transform="translate(-445.5 -121.26)"
       id="path20811" />
    <path
       class="cls-5"
       d="M524.48,285.67c-34.38,0-62.35,29.16-62.35,65s28,65,62.35,65,62.36-29.15,62.36-65S558.87,285.67,524.48,285.67Zm0,120.34c-21.43,0-39.94-13.29-48.33-32.38,0,0,0,0,0,0a57,57,0,0,1-4.78-23c0-30.53,23.83-55.36,53.12-55.36h.12c29.24.07,53,24.87,53,55.36S553.77,406,524.48,406Z"
       transform="translate(-445.5 -121.26)"
       id="path20813" />
    <path
       class="cls-2"
       d="M909.58,430.59l-1.15,3.15c-.36,1-.73,2-1.11,3l-.19.5c-.43,1.14-.87,2.25-1.32,3.36-.25.63-.49,1.23-.74,1.82l-.57,1.38c0,.15-.12.28-.18.42-.4,1-.8,2-1.25,3s-.76,1.75-1.13,2.62l-.66,1.49c-.48,1.07-1,2.11-1.44,3.15s-.9,2-1.36,2.93l-1,2.12c-.29.63-.6,1.25-.91,1.87-.37.78-.76,1.56-1.15,2.35-.05.09-.1.19-.14.28-.23.45-.46.9-.68,1.36q-2,4-4.19,8c-.33.61-.67,1.21-1,1.81l-2,3.57-.12.21c-1.42,2.47-2.86,4.92-4.33,7.33-.71,1.2-1.46,2.4-2.18,3.54-.11.16-.2.32-.3.47-.55.89-1.12,1.78-1.69,2.66l-.65,1c-.65,1-1.31,2-2,3l-.13.18c-.65,1-1.31,2-2,3l-.45.67q-2.25,3.29-4.54,6.46l-.31.43c-.8,1.07-1.54,2.14-2.31,3.19s-1.66,2.23-2.5,3.32c-1.52,2-3.06,4-4.61,6l-.81,1q-1.09,1.39-2.22,2.76L854,526.61l-.57.69c-.8.94-1.6,1.87-2.41,2.8q-2.82,3.32-5.72,6.53c-.75.85-1.52,1.69-2.29,2.51s-1.47,1.6-2.22,2.4q-3,3.2-5.93,6.24-2.76,2.82-5.53,5.59c-.86.85-1.73,1.71-2.59,2.54-.06.06-.11.12-.17.17-.92.89-1.85,1.78-2.79,2.66l-2.28,2.12c-.68.65-1.36,1.28-2,1.91l-.2.18-.23.21q-12.16,11.13-25.13,21.34h-28.2V430.59Z"
       transform="translate(-445.5 -121.26)"
       id="path20815" />
    <path
       class="cls-3"
       d="M895.4,463.69c-.05.09-.1.19-.14.28-.23.45-.46.9-.68,1.36q-2,4-4.19,8c-.33.61-.67,1.21-1,1.81l-2,3.57-.12.21c-1.42,2.47-2.86,4.92-4.33,7.33-.71,1.2-1.46,2.4-2.18,3.54-.11.16-.2.32-.3.47-.55.89-1.12,1.78-1.69,2.66l-.65,1c-.65,1-1.31,2-2,3l-.13.18c-.65,1-1.31,2-2,3l-.45.67q-2.25,3.29-4.54,6.46l-.31.43c-.8,1.07-1.54,2.14-2.31,3.19s-1.66,2.23-2.5,3.32c-1.52,2-3.06,4-4.61,6l-.81,1q-1.09,1.39-2.22,2.76L854,526.61l-.57.69c-.8.94-1.6,1.87-2.41,2.8q-2.82,3.32-5.72,6.53c-.75.85-1.52,1.69-2.29,2.51s-1.47,1.6-2.22,2.4q-3,3.2-5.93,6.24-2.76,2.82-5.53,5.59c-.86.85-1.73,1.71-2.59,2.54-.06.06-.11.12-.17.17-.92.89-1.85,1.78-2.79,2.66l-2.28,2.12c-.68.65-1.36,1.28-2,1.91l-.2.18-.23.21c-20.74-10.63-35-32.87-35-58.58,0-36,28-65.25,62.61-65.25A61.61,61.61,0,0,1,895.4,463.69Z"
       transform="translate(-445.5 -121.26)"
       id="path20817" />
    <path
       class="cls-4"
       d="M801.44,538s-32.33-80.76,53.76-90c0,0-31.31-10.7-48.76,13.1s-17,67-11,73.94S801.44,538,801.44,538Z"
       transform="translate(-445.5 -121.26)"
       id="path20819" />
    <path
       class="cls-5"
       d="M846.6,439.6c-34.38,0-62.36,29.15-62.36,65,0,25.6,14.29,47.8,35,58.37l.2-.18c.69-.63,1.37-1.26,2-1.91l2.28-2.12c.94-.88,1.87-1.77,2.79-2.66.06,0,.11-.11.17-.17a54.44,54.44,0,0,1-28.46-28.4h0a57,57,0,0,1-4.77-22.92c0-30.52,23.83-55.35,53.12-55.35h.06c18.13,0,34.16,9.56,43.73,24.06q2.14-3.93,4.19-8c.22-.46.45-.91.68-1.36C883.81,449.12,866.26,439.6,846.6,439.6Z"
       transform="translate(-445.5 -121.26)"
       id="path20821" />
    <ellipse
       class="cls-3"
       cx="240.32"
       cy="383.32"
       rx="62.62"
       ry="65.25"
       id="ellipse20823" />
    <path
       class="cls-4"
       d="M640.65,538s-32.33-80.76,53.76-90c0,0-31.31-10.7-48.76,13.1s-17,67-11,73.94S640.65,538,640.65,538Z"
       transform="translate(-445.5 -121.26)"
       id="path20825" />
    <path
       class="cls-5"
       d="M685.82,439.59c-34.39,0-62.36,29.16-62.36,65s28,65,62.36,65,62.36-29.15,62.36-65S720.2,439.59,685.82,439.59Zm0,120.34c-21.46,0-40-13.33-48.35-32.44h0a56.94,56.94,0,0,1-4.76-22.9c0-30.53,23.83-55.36,53.12-55.36h.11c29.24.07,53,24.86,53,55.36S715.11,559.93,685.82,559.93Z"
       transform="translate(-445.5 -121.26)"
       id="path20827" />
    <path
       class="cls-2"
       d="M766.22,584.49v20.13c-2.83,1.92-5.68,3.78-8.55,5.62-.86.55-1.72,1.1-2.57,1.6q-6.43,4.06-12.47,7.63l-2.41,1.4-2.34,1.36h0l-.22.13-2.11,1.21-2.23,1.29c-1.29.73-2.57,1.43-3.82,2.12-6.84,3.75-13.08,7-18.56,9.64l-1.6.8c-10.64,5.15-18.12,8.22-21,9.35l-.42.17-.61.24-.14,0h-.08l-.23-.09-.21,0-1.07-.42-.54-.23c-.87-.34-2-.8-3.37-1.38l-.46-.18c-1.76-.8-3.89-1.67-6.33-2.77l-1.39-.61q-15.06-6.86-29.57-14.84c-.38-.2-.76-.41-1.13-.63-.92-.49-1.84-1-2.75-1.53-1.82-1-3.63-2-5.43-3.1a2,2,0,0,1-.25-.14l-.62-.36c-.8-.44-1.6-.92-2.35-1.38q-12.73-7.52-25-15.8l-.32-.22-1.23-.85v-18.2Z"
       transform="translate(-445.5 -121.26)"
       id="path20829" />
    <path
       class="cls-3"
       d="M737.88,622.23h0l-.22.13-2.11,1.21-2.23,1.29c-1.29.73-2.57,1.43-3.82,2.12-6.84,3.75-13.08,7-18.56,9.64l-1.6.8c-10.64,5.15-18.12,8.22-21,9.35l-.42.17-.61.24-.14,0h-.08l-.23-.09-.21,0-1.07-.42-.54-.23c-.87-.34-2-.8-3.37-1.38l-.46-.18c-1.76-.8-3.89-1.67-6.33-2.77l-1.39-.61q-15.06-6.86-29.57-14.84c-.38-.2-.76-.41-1.13-.63-.92-.49-1.84-1-2.75-1.53-1.82-1-3.63-2-5.43-3.1a2,2,0,0,1-.25-.14c11.3-17,30.14-28.07,51.46-28.07C707.53,593.23,726.65,604.74,737.88,622.23Z"
       transform="translate(-445.5 -121.26)"
       id="path20831" />
    <path
       class="cls-4"
       d="M694.41,601.92c-3,.32-5.83.73-8.54,1.21-21.56,3.87-34.48,12.8-42,23.57-.38-.2-.76-.41-1.13-.63-.92-.49-1.84-1-2.75-1.53a58.92,58.92,0,0,1,5.62-9.51C663.11,591.23,694.41,601.92,694.41,601.92Z"
       transform="translate(-445.5 -121.26)"
       id="path20833" />
    <path
       class="cls-5"
       d="M685.82,593.5c-21.19,0-39.94,11.06-51.21,27.94,1.8,1,3.61,2.09,5.43,3.1.91.52,1.83,1,2.75,1.53a52.43,52.43,0,0,1,43-22.94h0c18,0,34,9.46,43.61,23.86,1.25-.69,2.53-1.39,3.82-2.12l2.23-1.29,2.11-1.21C726.44,605,707.39,593.5,685.82,593.5Z"
       transform="translate(-445.5 -121.26)"
       id="path20835" />
    <path
       class="cls-2"
       d="M604.88,430.59v153.9H580l-1.81-1.42c-6.19-4.92-12.43-10.15-18.64-15.69L558.08,566c-1.41-1.25-2.8-2.53-4.19-3.83l-.22-.2-.18-.17-1.67-1.57L550,558.54l-2-1.94c-.55-.52-1.09-1-1.63-1.58l-1.7-1.69c-.85-.79-1.69-1.66-2.52-2.5l-.24-.26c-.84-.83-1.67-1.67-2.5-2.51-.66-.68-1.32-1.36-2-2l-2-2.06-.13-.15-2.1-2.25q-3.36-3.6-6.66-7.36c-.68-.79-1.36-1.54-2.05-2.34-.57-.65-1.12-1.29-1.66-1.94q-1-1.2-2-2.4-4.28-5.1-8.39-10.48c-.76-1-1.5-1.93-2.24-2.92-1.89-2.47-3.73-5-5.57-7.55-.55-.8-1.12-1.59-1.68-2.39-.13-.16-.24-.34-.36-.5-.59-.86-1.19-1.7-1.77-2.56-.94-1.38-1.89-2.77-2.81-4.17-.74-1.09-1.47-2.2-2.19-3.31a1,1,0,0,0-.15-.24l-2.22-3.48-.22-.36c-.7-1.14-1.41-2.27-2.1-3.4s-1.49-2.46-2.21-3.71-1.43-2.39-2.13-3.67q-1.89-3.27-3.68-6.63c-.25-.42-.47-.83-.69-1.25q-1-1.82-1.92-3.66c-.84-1.62-1.67-3.27-2.48-4.92l-.3-.6-.14-.28c-.2-.4-.39-.8-.59-1.21s-.44-.88-.65-1.35c-.43-.87-.8-1.74-1.25-2.63a25.91,25.91,0,0,1-1.15-2.47l-.23-.48c-.27-.58-.53-1.16-.81-1.75l-.26-.57c-.27-.59-.52-1.19-.8-1.78q-1.44-3.25-2.79-6.57l-.09-.23c-.39-.94-.74-1.9-1.14-2.85-.1-.25-.21-.52-.31-.79-.4-1-.8-2-1.16-3s-.69-1.82-1-2.74l-.24-.65c-.17-.44-.33-.91-.49-1.35l-.15-.41Z"
       transform="translate(-445.5 -121.26)"
       id="path20837" />
    <path
       class="cls-3"
       d="M587.1,504.58c0,25-13.45,46.64-33.21,57.61l-.22-.2-.18-.17-1.67-1.57L550,558.54l-2-1.94c-.55-.52-1.09-1-1.63-1.58l-1.7-1.69c-.85-.79-1.69-1.66-2.52-2.5l-.24-.26c-.84-.83-1.67-1.67-2.5-2.51-.66-.68-1.32-1.36-2-2l-2-2.06-.13-.15-2.1-2.25q-3.36-3.6-6.66-7.36c-.68-.79-1.36-1.54-2.05-2.34-.57-.65-1.12-1.29-1.66-1.94q-1-1.2-2-2.4-4.28-5.1-8.39-10.48c-.76-1-1.5-1.93-2.24-2.92-1.89-2.47-3.73-5-5.57-7.55-.55-.8-1.12-1.59-1.68-2.39-.13-.16-.24-.34-.36-.5-.59-.86-1.19-1.7-1.77-2.56-.94-1.38-1.89-2.77-2.81-4.17-.74-1.09-1.47-2.2-2.19-3.31a1,1,0,0,0-.15-.24l-2.22-3.48-.22-.36c-.7-1.14-1.41-2.27-2.1-3.4s-1.49-2.46-2.21-3.71-1.43-2.39-2.13-3.67q-1.89-3.27-3.68-6.63c-.25-.42-.47-.83-.69-1.25q-1-1.82-1.92-3.66c-.84-1.62-1.67-3.27-2.48-4.92l-.3-.6-.14-.28a61.39,61.39,0,0,1,47-22.1C559.07,439.33,587.1,468.54,587.1,504.58Z"
       transform="translate(-445.5 -121.26)"
       id="path20839" />
    <path
       class="cls-4"
       d="M533.08,448c-3,.32-5.79.72-8.48,1.2h0c-21.16,3.78-34,12.43-41.54,22.92-.25-.42-.47-.83-.69-1.25q-1-1.82-1.92-3.66a56,56,0,0,1,3.88-6.11C501.77,437.32,533.08,448,533.08,448Z"
       transform="translate(-445.5 -121.26)"
       id="path20841" />
    <path
       class="cls-5"
       d="M524.48,439.59a61.18,61.18,0,0,0-46.82,22.12l.3.6c.81,1.65,1.64,3.3,2.48,4.92q.95,1.85,1.92,3.66a52.34,52.34,0,0,1,42.12-21.67h.12c29.24.07,53,24.87,53,55.36,0,22.41-12.85,41.75-31.27,50.44.54.53,1.08,1.06,1.63,1.58l2,1.94,1.83,1.71,1.67,1.57.18.17c19.72-10.93,33.17-32.56,33.17-57.41C586.84,468.75,558.87,439.59,524.48,439.59Z"
       transform="translate(-445.5 -121.26)"
       id="path20843" />
  </g>
  <g
     id="Layer_3"
     data-name="Layer 3">
    <path
       class="cls-6"
       d="M927,122.76V328.6a313.88,313.88,0,0,1-2.28,38c-.11.93-.24,1.86-.36,2.79,0,.2,0,.4-.08.59-.09.74-.19,1.47-.31,2.2-.46,3.37-1,6.69-1.6,10-.07.44-.15.87-.23,1.31-.16.8-.29,1.6-.45,2.4s-.34,1.79-.51,2.69l-.45,2.22-.24,1.15c-.15.71-.3,1.44-.46,2.15-.54,2.37-1.07,4.71-1.61,7l-.58,2.32-.52,2q-1.53,5.88-3.27,11.61c-.29,1-.59,1.94-.9,2.92l-.6,1.88c-.2.63-.4,1.24-.61,1.86-.37,1.09-.73,2.17-1.1,3.25s-.68,2-1,3l-.24.66-1.15,3.15c-.36,1-.73,2-1.11,3l-.19.5c-.43,1.14-.87,2.25-1.32,3.36-.25.63-.49,1.23-.74,1.82l-.57,1.38c0,.15-.12.28-.18.42-.4,1-.8,2-1.25,3s-.76,1.75-1.13,2.62l-.66,1.49c-.48,1.07-1,2.11-1.44,3.15s-.9,2-1.36,2.93l-1,2.12c-.29.63-.6,1.25-.91,1.87-.37.78-.76,1.56-1.15,2.35-.05.09-.1.19-.14.28-.23.45-.46.9-.68,1.36q-2,4-4.19,8c-.33.61-.67,1.21-1,1.81l-2,3.57-.12.21c-1.42,2.47-2.86,4.92-4.33,7.33-.71,1.2-1.46,2.4-2.18,3.54-.11.16-.2.32-.3.47-.55.89-1.12,1.78-1.69,2.66l-.65,1c-.65,1-1.31,2-2,3l-.13.18c-.65,1-1.31,2-2,3l-.45.67q-2.25,3.29-4.54,6.46l-.31.43c-.8,1.07-1.54,2.14-2.31,3.19s-1.66,2.23-2.5,3.32c-1.52,2-3.06,4-4.61,6l-.81,1q-1.09,1.39-2.22,2.76L854,526.61l-.57.69c-.8.94-1.6,1.87-2.41,2.8q-2.82,3.32-5.72,6.53c-.75.85-1.52,1.69-2.29,2.51s-1.47,1.6-2.22,2.4q-3,3.2-5.93,6.24-2.76,2.82-5.53,5.59c-.86.85-1.73,1.71-2.59,2.54-.06.06-.11.12-.17.17-.92.89-1.85,1.78-2.79,2.66l-2.28,2.12c-.68.65-1.36,1.28-2,1.91l-.2.18-.23.21q-12.16,11.13-25.13,21.34-12.66,10-26,19l-.27.18q-.68.47-1.35.9c-2.83,1.92-5.68,3.78-8.55,5.62-.86.55-1.72,1.1-2.57,1.6q-6.43,4.06-12.47,7.63l-2.41,1.4-2.34,1.36h0l-.22.13-2.11,1.21-2.23,1.29c-1.29.73-2.57,1.43-3.82,2.12-6.84,3.75-13.08,7-18.56,9.64l-1.6.8c-10.64,5.15-18.12,8.22-21,9.35l-.42.17-.61.24-.14,0h-.08l-.23-.09-.21,0-1.07-.42-.54-.23c-.87-.34-2-.8-3.37-1.38l-.46-.18c-1.76-.8-3.89-1.67-6.33-2.77l-1.39-.61q-15.06-6.86-29.57-14.84c-.38-.2-.76-.41-1.13-.63-.92-.49-1.84-1-2.75-1.53-1.82-1-3.63-2-5.43-3.1a2,2,0,0,1-.25-.14l-.62-.36c-.8-.44-1.6-.92-2.35-1.38q-12.73-7.52-25-15.8l-.32-.22-1.23-.85q-9.3-6.33-18.27-13.11l-2.63-2c-1-.75-2-1.51-2.94-2.29l-1-.79-1.81-1.42c-6.19-4.92-12.43-10.15-18.64-15.69L558.08,566c-1.41-1.25-2.8-2.53-4.19-3.83l-.22-.2-.18-.17-1.67-1.57L550,558.54l-2-1.94c-.55-.52-1.09-1-1.63-1.58l-1.7-1.69c-.85-.79-1.69-1.66-2.52-2.5l-.24-.26c-.84-.83-1.67-1.67-2.5-2.51-.66-.68-1.32-1.36-2-2l-2-2.06-.13-.15-2.1-2.25q-3.36-3.6-6.66-7.36c-.68-.79-1.36-1.54-2.05-2.34-.57-.65-1.12-1.29-1.66-1.94q-1-1.2-2-2.4-4.28-5.1-8.39-10.48c-.76-1-1.5-1.93-2.24-2.92-1.89-2.47-3.73-5-5.57-7.55-.55-.8-1.12-1.59-1.68-2.39-.13-.16-.24-.34-.36-.5-.59-.86-1.19-1.7-1.77-2.56-.94-1.38-1.89-2.77-2.81-4.17-.74-1.09-1.47-2.2-2.19-3.31a1,1,0,0,0-.15-.24l-2.22-3.48-.22-.36c-.7-1.14-1.41-2.27-2.1-3.4s-1.49-2.46-2.21-3.71-1.43-2.39-2.13-3.67q-1.89-3.27-3.68-6.63c-.25-.42-.47-.83-.69-1.25q-1-1.82-1.92-3.66c-.84-1.62-1.67-3.27-2.48-4.92l-.3-.6-.14-.28c-.2-.4-.39-.8-.59-1.21s-.44-.88-.65-1.35c-.43-.87-.8-1.74-1.25-2.63a25.91,25.91,0,0,1-1.15-2.47l-.23-.48c-.27-.58-.53-1.16-.81-1.75l-.26-.57c-.27-.59-.52-1.19-.8-1.78q-1.44-3.25-2.79-6.57l-.09-.23c-.39-.94-.74-1.9-1.14-2.85-.1-.25-.21-.52-.31-.79-.4-1-.8-2-1.16-3s-.69-1.82-1-2.74l-.24-.65c-.17-.44-.33-.91-.49-1.35l-.15-.41q-.9-2.49-1.75-5c-.21-.6-.4-1.2-.6-1.8-.26-.8-.51-1.54-.75-2.32-.14-.41-.27-.8-.4-1.22-.25-.8-.49-1.59-.75-2.39-.31-1-.61-2.06-.92-3.11-.19-.64-.39-1.28-.57-1.95-.37-1.29-.74-2.58-1.09-3.89-.19-.68-.37-1.35-.55-2-.13-.5-.27-1-.4-1.51-.32-1.22-.62-2.45-.92-3.7-.18-.7-.34-1.4-.52-2.11-.07-.28-.13-.56-.19-.85-.37-1.55-.72-3.11-1.07-4.69-.26-1.16-.5-2.33-.74-3.5-.13-.71-.29-1.43-.42-2.14s-.32-1.59-.48-2.45a1.86,1.86,0,0,0-.09-.47c-.16-.8-.3-1.64-.45-2.48s-.32-1.84-.48-2.77-.29-1.8-.45-2.71q-.57-3.7-1.07-7.47c-.17-1.23-.33-2.47-.48-3.71A312.7,312.7,0,0,1,447,328.58V122.76Z"
       transform="translate(-445.5 -121.26)"
       id="path20846" />
  </g>
  <path
     id="shine"
     d="M 1.5800413,0.65903225 V 207.03591 c 0,229.66454 239.9200087,319.6031 239.9200087,319.6031 0,0 239.92,-89.93856 239.92,-319.6031 V 0.65903225 Z"
     style="fill:url(#rg);stroke:#000000;stroke-width:2.41218" />
</svg>
