<?xml version="1.0" encoding="UTF-8" standalone="no"?>
<svg
   width="600"
   height="600"
   version="1.1"
   id="svg72"
   sodipodi:docname="House Qorgyle.svg"
   inkscape:version="1.2.1 (9c6d41e410, 2022-07-14)"
   xmlns:inkscape="http://www.inkscape.org/namespaces/inkscape"
   xmlns:sodipodi="http://sodipodi.sourceforge.net/DTD/sodipodi-0.dtd"
   xmlns:xlink="http://www.w3.org/1999/xlink"
   xmlns="http://www.w3.org/2000/svg"
   xmlns:svg="http://www.w3.org/2000/svg"
   xmlns:rdf="http://www.w3.org/1999/02/22-rdf-syntax-ns#"
   xmlns:cc="http://creativecommons.org/ns#"
   xmlns:dc="http://purl.org/dc/elements/1.1/">
  <title
     id="title3717">House Qorgyle</title>
  <sodipodi:namedview
     id="namedview74"
     pagecolor="#ffffff"
     bordercolor="#000000"
     borderopacity="0.25"
     inkscape:showpageshadow="2"
     inkscape:pageopacity="0.0"
     inkscape:pagecheckerboard="0"
     inkscape:deskcolor="#d1d1d1"
     showgrid="false"
     inkscape:zoom="0.98641396"
     inkscape:cx="71.977895"
     inkscape:cy="312.24213"
     inkscape:window-width="1920"
     inkscape:window-height="1017"
     inkscape:window-x="-8"
     inkscape:window-y="-8"
     inkscape:window-maximized="1"
     inkscape:current-layer="svg72" />
  <defs
     id="defs54">
    <radialGradient
       id="rg"
       gradientUnits="userSpaceOnUse"
       cx="220"
       cy="220"
       r="405">
      <stop
         style="stop-color:#fff;stop-opacity:.3"
         offset="0"
         id="stop2" />
      <stop
         style="stop-color:#fff;stop-opacity:.2"
         offset=".2"
         id="stop4" />
      <stop
         style="stop-color:#666;stop-opacity:.1"
         offset=".6"
         id="stop6" />
      <stop
         style="stop-color:#000;stop-opacity:.13"
         offset="1"
         id="stop8" />
    </radialGradient>
    <circle
       id="shield"
       cx="300"
       cy="300"
       r="298" />
    <g
       id="sun"
       transform="translate(300,300)scale(0.9)translate(-300,-300)"
       style="stroke-width:1;stroke-linecap:round;stroke-linejoin:round;">
      <g
         id="wavy-rays"
         transform="rotate(22.5,300,300)">
        <g
           id="wavy-ray">
          <path
             style="fill:#cc0000;stroke:none;"
             d="m 295.71673,70.37585 c -2.38477,5.976283 -6.7925,17.205125 -9.21187,29.4824 -2.48155,13.19766 -2.69547,27.57144 -1.27552,43.82304 v 2e-5 c 0.9165,13.14114 2.36127,26.69187 0.2801,36.94871 -1.5238,9.64131 -6.37028,19.49065 -11.65569,30.465 -6.48769,12.08882 -13.44166,26.83452 -16.40516,47.21637 -1.10448,16.24642 1.28913,30.23675 5.17828,41.68861 h 37.36937 l 18.02493,-120.0503 -18.02117,-59.97485 -2.71283,-29.987425 2.71283,-29.987425 c 0,0 -1.59954,3.650359 -4.28327,10.37585 z"
             id="path12" />
          <path
             style="fill:#aa0000;stroke:none;"
             d="m 337.36561,300 c -1.98638,-5.85559 -4.36398,-11.09158 -6.86602,-15.53917 -1e-5,-4e-5 -0.0316,-0.0736 -0.0317,-0.0736 h 5e-5 v 0 c -3.60485,-8.37348 -8.77008,-17.39754 -8.83053,-22.69862 -1.56615,-6.81556 1.57439,-17.21075 4.50884,-32.78363 3.53396,-14.92204 5.36752,-31.99714 3.05631,-49.535 -2.90283,-17.45097 -9.21149,-31.54555 -14.4319,-43.05129 l -1e-5,-1e-5 c -6.10281,-13.8338 -10.29735,-24.63776 -12.38351,-36.17693 -1.99032,-10.56752 -2.15623,-22.657551 -2.24509,-28.944025 -0.10163,-7.188564 -0.14205,-11.197725 -0.14205,-11.197725 -2.575,13.3333 -5.316,26.6667 -5.554,40 -0.238,13.333 2.231,26.667 5.554,40 3.323,13.333 6.9715,26.66699 7.356,40 0.3845,13.33299 -2.815,26.667 -7.356,40 -4.541,13.333 -9.7555,26.66703 -10.457,40 -0.7015,13.33303 3.664,26.667 10.457,40"
             id="path14" />
        </g>
        <use
           xlink:href="#wavy-ray"
           transform="rotate(45,300,300)"
           id="use17" />
        <use
           xlink:href="#wavy-ray"
           transform="rotate(90,300,300)"
           id="use19" />
        <use
           xlink:href="#wavy-ray"
           transform="rotate(135,300,300)"
           id="use21" />
        <use
           xlink:href="#wavy-ray"
           transform="rotate(180,300,300)"
           id="use23" />
        <use
           xlink:href="#wavy-ray"
           transform="rotate(225,300,300)"
           id="use25" />
        <use
           xlink:href="#wavy-ray"
           transform="rotate(270,300,300)"
           id="use27" />
        <use
           xlink:href="#wavy-ray"
           transform="rotate(315,300,300)"
           id="use29" />
      </g>
      <g
         id="straight-rays">
        <g
           id="straight-ray">
          <path
             style="fill:#cc0000;stroke:none;"
             d="m 300,60 -30.61467,166.08964 30.61467,73.91036 15,-73.91036 z"
             id="path32" />
          <path
             style="fill:#aa0000;stroke:none;"
             d="m 300,300 v -240 l 30.61467,166.08964 z"
             id="path34" />
        </g>
        <use
           xlink:href="#straight-ray"
           transform="rotate(45,300,300)"
           id="use37" />
        <use
           xlink:href="#straight-ray"
           transform="rotate(90,300,300)"
           id="use39" />
        <use
           xlink:href="#straight-ray"
           transform="rotate(135,300,300)"
           id="use41" />
        <use
           xlink:href="#straight-ray"
           transform="rotate(180,300,300)"
           id="use43" />
        <use
           xlink:href="#straight-ray"
           transform="rotate(225,300,300)"
           id="use45" />
        <use
           xlink:href="#straight-ray"
           transform="rotate(270,300,300)"
           id="use47" />
        <use
           xlink:href="#straight-ray"
           transform="rotate(315,300,300)"
           id="use49" />
      </g>
      <circle
         id="disk"
         style="fill:#cc0000;stroke:#aa0000;"
         cx="300"
         cy="300"
         r="80" />
    </g>
    <radialGradient
       id="rg-0"
       gradientUnits="userSpaceOnUse"
       cx="220"
       cy="220"
       r="405">
      <stop
         style="stop-color:#fff;stop-opacity:.3"
         offset="0"
         id="stop2-2" />
      <stop
         style="stop-color:#fff;stop-opacity:.2"
         offset=".2"
         id="stop4-4" />
      <stop
         style="stop-color:#666;stop-opacity:.1"
         offset=".6"
         id="stop6-2" />
      <stop
         style="stop-color:#000;stop-opacity:.13"
         offset="1"
         id="stop8-2" />
    </radialGradient>
    <radialGradient
       id="radialGradient878"
       gradientUnits="userSpaceOnUse"
       cx="220"
       cy="220"
       r="405">
      <stop
         style="stop-color:#fff;stop-opacity:.3"
         offset="0"
         id="stop870" />
      <stop
         style="stop-color:#fff;stop-opacity:.2"
         offset=".2"
         id="stop872" />
      <stop
         style="stop-color:#666;stop-opacity:.1"
         offset=".6"
         id="stop874" />
      <stop
         style="stop-color:#000;stop-opacity:.13"
         offset="1"
         id="stop876" />
    </radialGradient>
  </defs>
  <use
     id="circle"
     xlink:href="#shield"
     style="fill:#550000;stroke:#000;stroke-width:3;opacity:1;fill-opacity:1" />
  <g
     id="Layer_5"
     data-name="Layer 5"
     transform="matrix(1.4669524,0,0,1.3360794,-49.846143,-18.130226)">
    <path
       d="m 754.83,333.33 c 0,0 -11.17,5.5 -12.83,21.5 -1.66,16 3.33,17.5 3.33,17.5 0,0 2.67,-2 5.33,-1.67 2.66,0.33 6.5,-6.83 5,-13.33 -1.5,-6.5 -6.49,-9 -0.83,-24 z"
       transform="translate(-445.5,-121.26)"
       id="path28401" />
    <path
       d="m 755.53,353.87 c -0.32,-0.95 -0.74,-2.19 -1.09,-3.18 a 1.54,1.54 0 0 1 0.78,-1.91 c 1.58,-0.76 4.13,-2.08 4.6,-2.84 0,0 1.16,5.68 -2.39,8.52 a 1.22,1.22 0 0 1 -1.9,-0.59 z"
       transform="translate(-445.5,-121.26)"
       id="path28403" />
    <path
       d="m 746.56,374.25 c 0,0 -1.75,-2.4 3.06,-1.92 0.01,0 -0.81,3.36 -3.06,1.92 z"
       transform="translate(-445.5,-121.26)"
       id="path28405" />
    <path
       d="m 747.25,376.5 c 0,0 2.81,-2.62 4.56,-2.37 1.75,0.25 5.94,2.88 7.75,5 1,1.12 -1.81,5.38 -2.94,5.38 -1.13,0 -2.74,1.99 -9.37,-8.01 z"
       transform="translate(-445.5,-121.26)"
       id="path28407" />
    <path
       d="m 759.38,385 c 0,0 -0.56,-4.25 1.56,-3.87 2.12,0.38 3.44,1.88 2.57,3.54 -0.44,0.83 -4.13,0.33 -4.13,0.33 z"
       transform="translate(-445.5,-121.26)"
       id="path28409" />
    <path
       d="m 765.19,383.75 c 0,0 -2.12,-2.73 -2.25,-4.36 -0.13,-1.63 7,-5.95 8.13,-5.64 1.13,0.31 2.25,2.13 2.63,3.81 0.38,1.68 -7.38,7.85 -8.51,6.19 z"
       transform="translate(-445.5,-121.26)"
       id="path28411" />
    <path
       d="m 773.06,372.88 a 7.92,7.92 0 0 1 1.44,3.69 c 0,0 2.18,0.56 1.43,-2.45 -0.61,-2.49 -2.43,-2.12 -2.87,-1.24 z"
       transform="translate(-445.5,-121.26)"
       id="path28413" />
    <path
       d="m 730.38,379.39 c 0,0 3.94,-1.95 6.06,-1.39 2.12,0.56 0.37,3.27 -6.06,1.39 z"
       transform="translate(-445.5,-121.26)"
       id="path28415" />
    <path
       d="m 738.24,381.52 a 2.6,2.6 0 0 1 -0.2,-2.21 1,1 0 0 1 1.27,-0.68 c 1.56,0.5 8.85,8.75 9.52,11.06 0.67,2.31 -4.41,2.73 -10.59,-8.17 z"
       transform="translate(-445.5,-121.26)"
       id="path28417" />
    <path
       d="m 750.88,391 c 0,0 3.94,-1 6.13,0 2.19,1 5.5,-0.06 6.19,0.69 0.69,0.75 -4.14,4.86 -12.32,-0.69 z"
       transform="translate(-445.5,-121.26)"
       id="path28419" />
    <path
       d="m 765.81,392.2 a 10,10 0 0 1 -1.06,-1.65 c -0.25,-0.61 5.06,-2.68 6.75,-3.18 1.69,-0.5 -2.85,4.63 -5.69,4.83 z"
       transform="translate(-445.5,-121.26)"
       id="path28421" />
    <path
       d="m 728.33,407 c 0,0 2.17,-3.5 3.42,-2.67 1.25,0.83 -1.42,3.5 -3.42,2.67 z"
       transform="translate(-445.5,-121.26)"
       id="path28423" />
    <path
       d="m 734.42,407 c 0,0 0.17,-2.51 0.67,-2.79 0.5,-0.28 8.75,8 9.17,9 0.42,1 -0.75,2.92 -2.08,2.58 -1.33,-0.34 -7.85,-7.91 -7.76,-8.79 z"
       transform="translate(-445.5,-121.26)"
       id="path28425" />
    <path
       d="m 745.25,415.87 c 0,0 -1.08,-2 1,-2 2.08,0 11.25,-1.92 12.5,-1.92 1.25,0 3.83,4.71 -13.5,3.92 z"
       transform="translate(-445.5,-121.26)"
       id="path28427" />
    <path
       d="m 760.64,410.6 c 0.74,-2.45 4.26,-13.46 8.11,-15 0,0 -4.76,16.77 -7.69,15.92 a 0.71,0.71 0 0 1 -0.42,-0.92 z"
       transform="translate(-445.5,-121.26)"
       id="path28429" />
    <path
       d="m 729.73,431.65 a 0.82,0.82 0 0 1 -0.84,-1.27 c 0.81,-1.18 2.38,-3.12 3.94,-3.12 1.78,-0.01 -1.02,3.84 -3.1,4.39 z"
       transform="translate(-445.5,-121.26)"
       id="path28431" />
    <path
       d="m 734.42,429.17 c 0,0 -0.33,-2.25 1.25,-1.92 1.58,0.33 8.5,6.67 9.92,7.08 1.42,0.41 0.27,2.5 -0.61,2.58 -0.88,0.08 -10.6,-6.65 -10.56,-7.74 z"
       transform="translate(-445.5,-121.26)"
       id="path28433" />
    <path
       d="m 749.17,436.81 a 1.51,1.51 0 0 1 -1.68,-1.72 1.07,1.07 0 0 1 0.76,-0.84 c 1.5,-0.5 10.3,-5.42 12.36,-4.25 2.06,1.17 -1.17,5.77 -11.44,6.81 z"
       transform="translate(-445.5,-121.26)"
       id="path28435" />
    <path
       d="m 762.94,429.82 c -0.08,0.22 -1.78,-0.12 -1.77,-0.36 0.11,-3.11 1.45,-12.11 4.5,-17.21 0,0 4.33,-2.42 -2.73,17.57 z"
       transform="translate(-445.5,-121.26)"
       id="path28437" />
    <path
       d="m 776.47,460.2 a 4.38,4.38 0 0 1 3.68,-0.08 c 1.56,0.68 3.61,1.9 4.43,3.79 1.42,3.25 -7.33,8.25 -10.08,13.92 0,0 -7.83,-1.75 -10.83,-1.33 0,0 -0.77,-9.63 12.8,-16.3 z"
       transform="translate(-445.5,-121.26)"
       id="path28439" />
    <path
       d="m 765,488.33 a 13.93,13.93 0 0 1 -1.63,-6.73 c 0.07,-2.23 0.78,-4.6 3.57,-4.1 5.08,0.92 7.83,7.25 8.75,9.17 0.92,1.92 2.42,0 2.92,0.5 0.5,0.5 -1.5,0.33 -2.17,3.08 -0.67,2.75 1.34,10.42 -5.42,5.42 A 21,21 0 0 1 765,488.33 Z"
       transform="translate(-445.5,-121.26)"
       id="path28441" />
    <path
       d="m 776.42,499.67 c 0,0 -0.67,-2.67 1,-3.33 1.67,-0.66 -0.42,-4.83 4.5,-5.17 4.92,-0.34 6.75,0.58 8.33,-2.58 0,0 0.67,1.42 1.25,2.42 0.58,1 1.5,6.5 1.25,8.67 -0.25,2.17 -12.25,5.15 -16.33,-0.01 z"
       transform="translate(-445.5,-121.26)"
       id="path28443" />
    <path
       d="m 793.92,499.58 c 0,0 0.33,-6.08 2.5,-7.58 2.17,-1.5 3.67,-5.83 6.58,-6.5 2.91,-0.67 4.17,-1.42 4.33,-4.58 a 3.08,3.08 0 0 1 2.33,2.08 c 0.75,1.92 3.25,2 3,5.58 -0.25,3.58 -8.19,11.18 -13.33,9.92 -5.14,-1.26 -2.41,2.17 -5.41,1.08 z"
       transform="translate(-445.5,-121.26)"
       id="path28445" />
    <path
       d="m 814.17,485.92 c 0,0 -2.92,-2.08 -3,-4 -0.08,-1.92 1.08,-1.75 1.08,-2.75 0,-1 0.08,-9.42 6.17,-8.83 6.09,0.59 5.91,11.91 -4.25,15.58 z"
       transform="translate(-445.5,-121.26)"
       id="path28447" />
    <path
       d="m 821.5,468.79 c 0,0 -4.17,1 -6.33,-1 -2.16,-2 -0.33,-12.75 -0.75,-14.67 -0.42,-1.92 -5.08,-6.25 -5.08,-6.25 0,0 9.08,1.67 11.42,7.92 2.34,6.25 3.99,11.71 0.74,14 z"
       transform="translate(-445.5,-121.26)"
       id="path28449" />
    <path
       d="M 784.33,462.06 Z"
       transform="translate(-445.5,-121.26)"
       id="path28451" />
    <path
       d="m 796.13,444.17 c -1.62,0.73 -11.19,0.66 -11.8,0.66 v 0 c -0.61,0 -10.18,0.07 -11.8,-0.66 -1.62,-0.73 -6.08,-6.72 -3.75,-14.28 0,0 9.3,3.35 15.55,3 v 0 c 6.25,0.32 15.55,-3 15.55,-3 2.33,7.56 -2.08,13.53 -3.75,14.28 z"
       transform="translate(-445.5,-121.26)"
       id="path28453" />
    <path
       d="m 801,411.92 c -0.81,3.81 -15.82,4.81 -16.63,4.86 v 0 c -0.77,-0.05 -15.82,-1.05 -16.63,-4.86 -0.81,-3.81 0.08,-7.61 1.91,-7.72 1.83,-0.11 8.15,2.07 14.72,2.08 v 0 c 6.57,0 12.88,-2.2 14.72,-2.08 1.84,0.12 2.71,3.8 1.91,7.72 z"
       transform="translate(-445.5,-121.26)"
       id="path28455" />
    <path
       d="m 797.3,394.83 c -0.89,2 -12.28,1.93 -13,1.92 v 0 c -0.69,0 -12.08,0.11 -13,-1.92 -0.92,-2.03 -0.62,-4.62 1.73,-5.06 2.35,-0.44 10.64,0 11.24,0 v 0 c 0.57,0 9,-0.43 11.24,0 2.24,0.43 2.7,2.98 1.79,5.06 z"
       transform="translate(-445.5,-121.26)"
       id="path28457" />
    <path
       d="M 784.33,387.93 Z"
       transform="translate(-445.5,-121.26)"
       id="path28459" />
    <path
       d="m 780.25,372.27 a 1.9,1.9 0 0 1 -0.33,-2.1 c 0,0 0.83,1.5 1.25,1.58 0.42,0.08 -0.92,0.52 -0.92,0.52 z"
       transform="translate(-445.5,-121.26)"
       id="path28461" />
    <path
       d="m 813.8,333.33 c 0,0 11.17,5.5 12.83,21.5 1.66,16 -3.33,17.5 -3.33,17.5 0,0 -2.67,-2 -5.33,-1.67 -2.66,0.33 -6.5,-6.83 -5,-13.33 1.5,-6.5 6.49,-9 0.83,-24 z"
       transform="translate(-445.5,-121.26)"
       id="path28463" />
    <path
       d="m 813.1,353.87 c 0.32,-0.95 0.74,-2.19 1.09,-3.18 a 1.54,1.54 0 0 0 -0.78,-1.91 c -1.58,-0.76 -4.13,-2.08 -4.6,-2.84 0,0 -1.16,5.68 2.39,8.52 a 1.22,1.22 0 0 0 1.9,-0.59 z"
       transform="translate(-445.5,-121.26)"
       id="path28465" />
    <path
       d="m 822.07,374.25 c 0,0 1.75,-2.4 -3.06,-1.92 -0.01,0 0.81,3.36 3.06,1.92 z"
       transform="translate(-445.5,-121.26)"
       id="path28467" />
    <path
       d="m 821.38,376.5 c 0,0 -2.81,-2.62 -4.56,-2.37 -1.75,0.25 -5.94,2.88 -7.75,5 -1,1.12 1.81,5.38 2.94,5.38 1.13,0 2.74,1.99 9.37,-8.01 z"
       transform="translate(-445.5,-121.26)"
       id="path28469" />
    <path
       d="m 809.25,385 c 0,0 0.56,-4.25 -1.56,-3.87 -2.12,0.38 -3.44,1.88 -2.57,3.54 0.44,0.83 4.13,0.33 4.13,0.33 z"
       transform="translate(-445.5,-121.26)"
       id="path28471" />
    <path
       d="m 803.44,383.75 c 0,0 2.13,-2.73 2.25,-4.36 0.12,-1.63 -7,-5.95 -8.12,-5.64 -1.12,0.31 -2.25,2.13 -2.62,3.81 -0.37,1.68 7.36,7.85 8.49,6.19 z"
       transform="translate(-445.5,-121.26)"
       id="path28473" />
    <path
       d="m 795.57,372.88 a 7.92,7.92 0 0 0 -1.44,3.69 c 0,0 -2.18,0.56 -1.43,-2.45 0.61,-2.49 2.43,-2.12 2.87,-1.24 z"
       transform="translate(-445.5,-121.26)"
       id="path28475" />
    <path
       d="m 838.25,379.39 c 0,0 -3.94,-1.95 -6.06,-1.39 -2.12,0.56 -0.37,3.27 6.06,1.39 z"
       transform="translate(-445.5,-121.26)"
       id="path28477" />
    <path
       d="m 830.39,381.52 a 2.6,2.6 0 0 0 0.2,-2.21 1,1 0 0 0 -1.27,-0.68 c -1.56,0.5 -8.85,8.75 -9.52,11.06 -0.67,2.31 4.41,2.73 10.59,-8.17 z"
       transform="translate(-445.5,-121.26)"
       id="path28479" />
    <path
       d="m 817.75,391 c 0,0 -3.94,-1 -6.12,0 -2.18,1 -5.5,-0.06 -6.19,0.69 -0.69,0.75 4.13,4.86 12.31,-0.69 z"
       transform="translate(-445.5,-121.26)"
       id="path28481" />
    <path
       d="m 802.82,392.2 a 10,10 0 0 0 1.06,-1.65 c 0.25,-0.61 -5.06,-2.68 -6.75,-3.18 -1.69,-0.5 2.87,4.63 5.69,4.83 z"
       transform="translate(-445.5,-121.26)"
       id="path28483" />
    <path
       d="m 840.3,407 c 0,0 -2.17,-3.5 -3.42,-2.67 -1.25,0.83 1.42,3.5 3.42,2.67 z"
       transform="translate(-445.5,-121.26)"
       id="path28485" />
    <path
       d="m 834.21,407 c 0,0 -0.17,-2.51 -0.67,-2.79 -0.5,-0.28 -8.75,8 -9.17,9 -0.42,1 0.75,2.92 2.08,2.58 1.33,-0.34 7.85,-7.91 7.76,-8.79 z"
       transform="translate(-445.5,-121.26)"
       id="path28487" />
    <path
       d="m 823.38,415.87 c 0,0 1.08,-2 -1,-2 -2.08,0 -11.25,-1.92 -12.5,-1.92 -1.25,0 -3.88,4.71 13.5,3.92 z"
       transform="translate(-445.5,-121.26)"
       id="path28489" />
    <path
       d="m 808,410.6 c -0.74,-2.45 -4.26,-13.46 -8.11,-15 0,0 4.76,16.77 7.69,15.92 A 0.71,0.71 0 0 0 808,410.6 Z"
       transform="translate(-445.5,-121.26)"
       id="path28491" />
    <path
       d="m 838.9,431.65 a 0.82,0.82 0 0 0 0.84,-1.27 c -0.81,-1.18 -2.38,-3.12 -3.94,-3.12 -1.8,-0.01 1.02,3.84 3.1,4.39 z"
       transform="translate(-445.5,-121.26)"
       id="path28493" />
    <path
       d="m 834.21,429.17 c 0,0 0.33,-2.25 -1.25,-1.92 -1.58,0.33 -8.5,6.67 -9.92,7.08 -1.42,0.41 -0.27,2.5 0.61,2.58 0.88,0.08 10.6,-6.65 10.56,-7.74 z"
       transform="translate(-445.5,-121.26)"
       id="path28495" />
    <path
       d="m 819.46,436.81 a 1.51,1.51 0 0 0 1.68,-1.72 1.07,1.07 0 0 0 -0.76,-0.84 c -1.5,-0.5 -10.3,-5.42 -12.36,-4.25 -2.06,1.17 1.17,5.77 11.44,6.81 z"
       transform="translate(-445.5,-121.26)"
       id="path28497" />
    <path
       d="m 805.69,429.82 c 0.08,0.22 1.78,-0.12 1.77,-0.36 -0.11,-3.11 -1.45,-12.11 -4.5,-17.21 0.04,0 -4.35,-2.42 2.73,17.57 z"
       transform="translate(-445.5,-121.26)"
       id="path28499" />
    <path
       d="m 796.46,445.92 c 0.33,9.28 -11.4,15.75 -12.13,16.14 -0.73,0.39 0,0 0,0 -0.73,-0.39 -12.46,-6.86 -12.13,-16.14 0,0 7.63,1 12.13,1 v 0 c 4.5,0 12.13,-1 12.13,-1 z"
       transform="translate(-445.5,-121.26)"
       id="path28501" />
    <path
       d="m 784.32,462.07 v 0 0 c 0,0 -0.01,0 0,0 z"
       transform="translate(-445.5,-121.26)"
       id="path28503" />
    <path
       d="m 801,427.22 c -1.46,3.37 -15.87,3.84 -16.63,3.86 v 0 c -0.78,0 -15.17,-0.49 -16.63,-3.86 -1.46,-3.37 0.41,-12.22 0.41,-12.22 0,0 8.15,3.32 16.22,3.33 v 0 c 8.07,0 16.21,-3.33 16.21,-3.33 0,0 1.88,8.75 0.42,12.22 z"
       transform="translate(-445.5,-121.26)"
       id="path28505" />
    <path
       d="m 799.46,402.17 c -1.37,1.86 -14.42,2.47 -15.13,2.5 v 0 c -0.73,0 -13.76,-0.64 -15.13,-2.5 -1.37,-1.86 0,-5.5 3.89,-5 3.89,0.5 10.69,0.73 11.24,0.75 v 0 c 0.52,0 7.52,-0.27 11.24,-0.75 3.72,-0.48 5.31,3.08 3.89,5 z"
       transform="translate(-445.5,-121.26)"
       id="path28507" />
    <path
       d="m 795.57,388.42 c -3.59,-1.93 -10.71,-0.59 -11.24,-0.49 v 0 c -0.53,-0.1 -7.65,-1.44 -11.24,0.49 0,0 2.19,-12.17 5.61,-15.59 a 13.49,13.49 0 0 0 5.63,1.58 v 0 a 13.49,13.49 0 0 0 5.63,-1.58 c 3.42,3.42 5.61,15.59 5.61,15.59 z"
       transform="translate(-445.5,-121.26)"
       id="path28509" />
    <path
       d="M 784.32,387.94 Z"
       transform="translate(-445.5,-121.26)"
       id="path28511" />
    <path
       d="m 788.38,372.27 a 1.9,1.9 0 0 0 0.33,-2.1 c 0,0 -0.83,1.5 -1.25,1.58 -0.42,0.08 0.92,0.52 0.92,0.52 z"
       transform="translate(-445.5,-121.26)"
       id="path28513" />
    <path
       d="m 554.17,333.33 c 0,0 -11.17,5.5 -12.83,21.5 -1.66,16 3.33,17.5 3.33,17.5 0,0 2.67,-2 5.33,-1.67 2.66,0.33 6.5,-6.83 5,-13.33 -1.5,-6.5 -6.5,-9 -0.83,-24 z"
       transform="translate(-445.5,-121.26)"
       id="path28515" />
    <path
       d="m 554.86,353.87 c -0.32,-0.95 -0.74,-2.19 -1.09,-3.18 a 1.54,1.54 0 0 1 0.78,-1.91 c 1.58,-0.76 4.13,-2.08 4.6,-2.84 0,0 1.16,5.68 -2.39,8.52 a 1.22,1.22 0 0 1 -1.9,-0.59 z"
       transform="translate(-445.5,-121.26)"
       id="path28517" />
    <path
       d="m 545.9,374.25 c 0,0 -1.75,-2.4 3.06,-1.92 0.04,0 -0.81,3.36 -3.06,1.92 z"
       transform="translate(-445.5,-121.26)"
       id="path28519" />
    <path
       d="m 546.58,376.5 c 0,0 2.81,-2.62 4.56,-2.37 1.75,0.25 5.94,2.88 7.75,5 1,1.12 -1.81,5.38 -2.94,5.38 -1.13,0 -2.74,1.99 -9.37,-8.01 z"
       transform="translate(-445.5,-121.26)"
       id="path28521" />
    <path
       d="m 558.71,385 c 0,0 -0.56,-4.25 1.56,-3.87 2.12,0.38 3.44,1.88 2.57,3.54 -0.44,0.83 -4.13,0.33 -4.13,0.33 z"
       transform="translate(-445.5,-121.26)"
       id="path28523" />
    <path
       d="m 564.52,383.75 c 0,0 -2.12,-2.73 -2.25,-4.36 -0.13,-1.63 7,-5.95 8.13,-5.64 1.13,0.31 2.25,2.13 2.63,3.81 0.38,1.68 -7.38,7.85 -8.51,6.19 z"
       transform="translate(-445.5,-121.26)"
       id="path28525" />
    <path
       d="m 572.4,372.88 a 7.92,7.92 0 0 1 1.44,3.69 c 0,0 2.18,0.56 1.43,-2.45 -0.61,-2.49 -2.44,-2.12 -2.87,-1.24 z"
       transform="translate(-445.5,-121.26)"
       id="path28527" />
    <path
       d="m 529.71,379.39 c 0,0 3.94,-1.95 6.06,-1.39 2.12,0.56 0.38,3.27 -6.06,1.39 z"
       transform="translate(-445.5,-121.26)"
       id="path28529" />
    <path
       d="m 537.57,381.52 a 2.6,2.6 0 0 1 -0.2,-2.21 1,1 0 0 1 1.27,-0.68 c 1.56,0.5 8.85,8.75 9.52,11.06 0.67,2.31 -4.4,2.73 -10.59,-8.17 z"
       transform="translate(-445.5,-121.26)"
       id="path28531" />
    <path
       d="m 550.21,391 c 0,0 3.94,-1 6.13,0 2.19,1 5.5,-0.06 6.19,0.69 0.69,0.75 -4.13,4.86 -12.32,-0.69 z"
       transform="translate(-445.5,-121.26)"
       id="path28533" />
    <path
       d="m 565.15,392.2 a 10,10 0 0 1 -1.06,-1.65 c -0.25,-0.61 5.06,-2.68 6.75,-3.18 1.69,-0.5 -2.84,4.63 -5.69,4.83 z"
       transform="translate(-445.5,-121.26)"
       id="path28535" />
    <path
       d="m 527.67,407 c 0,0 2.17,-3.5 3.42,-2.67 1.25,0.83 -1.42,3.5 -3.42,2.67 z"
       transform="translate(-445.5,-121.26)"
       id="path28537" />
    <path
       d="m 533.75,407 c 0,0 0.17,-2.51 0.67,-2.79 0.5,-0.28 8.75,8 9.17,9 0.42,1 -0.75,2.92 -2.08,2.58 -1.33,-0.34 -7.85,-7.91 -7.76,-8.79 z"
       transform="translate(-445.5,-121.26)"
       id="path28539" />
    <path
       d="m 544.58,415.87 c 0,0 -1.08,-2 1,-2 2.08,0 11.25,-1.92 12.5,-1.92 1.25,0 3.84,4.71 -13.5,3.92 z"
       transform="translate(-445.5,-121.26)"
       id="path28541" />
    <path
       d="m 560,410.6 c 0.74,-2.45 4.26,-13.46 8.11,-15 0,0 -4.76,16.77 -7.69,15.92 A 0.71,0.71 0 0 1 560,410.6 Z"
       transform="translate(-445.5,-121.26)"
       id="path28543" />
    <path
       d="m 529.06,431.65 a 0.82,0.82 0 0 1 -0.84,-1.27 c 0.81,-1.18 2.38,-3.12 3.94,-3.12 1.79,-0.01 -1.02,3.84 -3.1,4.39 z"
       transform="translate(-445.5,-121.26)"
       id="path28545" />
    <path
       d="m 533.75,429.17 c 0,0 -0.33,-2.25 1.25,-1.92 1.58,0.33 8.5,6.67 9.92,7.08 1.42,0.41 0.27,2.5 -0.61,2.58 -0.88,0.08 -10.59,-6.65 -10.56,-7.74 z"
       transform="translate(-445.5,-121.26)"
       id="path28547" />
    <path
       d="m 548.51,436.81 a 1.51,1.51 0 0 1 -1.68,-1.72 1.07,1.07 0 0 1 0.76,-0.84 c 1.5,-0.5 10.3,-5.42 12.36,-4.25 2.06,1.17 -1.18,5.77 -11.44,6.81 z"
       transform="translate(-445.5,-121.26)"
       id="path28549" />
    <path
       d="m 562.27,429.82 c -0.08,0.22 -1.78,-0.12 -1.77,-0.36 0.11,-3.11 1.45,-12.11 4.5,-17.21 0,0 4.36,-2.42 -2.73,17.57 z"
       transform="translate(-445.5,-121.26)"
       id="path28551" />
    <path
       d="m 575.8,460.2 a 4.38,4.38 0 0 1 3.68,-0.08 c 1.56,0.68 3.61,1.9 4.43,3.79 1.42,3.25 -7.33,8.25 -10.08,13.92 0,0 -7.83,-1.75 -10.83,-1.33 0,0 -0.77,-9.63 12.8,-16.3 z"
       transform="translate(-445.5,-121.26)"
       id="path28553" />
    <path
       d="m 564.31,488.33 a 13.93,13.93 0 0 1 -1.63,-6.73 c 0.07,-2.23 0.78,-4.6 3.57,-4.1 5.08,0.92 7.83,7.25 8.75,9.17 0.92,1.92 2.42,0 2.92,0.5 0.5,0.5 -1.5,0.33 -2.17,3.08 -0.67,2.75 1.34,10.42 -5.42,5.42 a 21,21 0 0 1 -6.02,-7.34 z"
       transform="translate(-445.5,-121.26)"
       id="path28555" />
    <path
       d="m 575.75,499.67 c 0,0 -0.67,-2.67 1,-3.33 1.67,-0.66 -0.42,-4.83 4.5,-5.17 4.92,-0.34 6.75,0.58 8.33,-2.58 0,0 0.67,1.42 1.25,2.42 0.58,1 1.5,6.5 1.25,8.67 -0.25,2.17 -12.25,5.15 -16.33,-0.01 z"
       transform="translate(-445.5,-121.26)"
       id="path28557" />
    <path
       d="m 593.25,499.58 c 0,0 0.33,-6.08 2.5,-7.58 2.17,-1.5 3.67,-5.83 6.58,-6.5 2.91,-0.67 4.17,-1.42 4.33,-4.58 A 3.08,3.08 0 0 1 609,483 c 0.75,1.92 3.25,2 3,5.58 -0.25,3.58 -8.19,11.18 -13.33,9.92 -5.14,-1.26 -2.42,2.17 -5.42,1.08 z"
       transform="translate(-445.5,-121.26)"
       id="path28559" />
    <path
       d="m 613.5,485.92 c 0,0 -2.92,-2.08 -3,-4 -0.08,-1.92 1.08,-1.75 1.08,-2.75 0,-1 0.08,-9.42 6.17,-8.83 6.09,0.59 5.92,11.91 -4.25,15.58 z"
       transform="translate(-445.5,-121.26)"
       id="path28561" />
    <path
       d="m 620.83,468.79 c 0,0 -4.17,1 -6.33,-1 -2.16,-2 -0.33,-12.75 -0.75,-14.67 -0.42,-1.92 -5.08,-6.25 -5.08,-6.25 0,0 9.08,1.67 11.42,7.92 2.34,6.25 3.99,11.71 0.74,14 z"
       transform="translate(-445.5,-121.26)"
       id="path28563" />
    <path
       d="M 583.66,462.06 Z"
       transform="translate(-445.5,-121.26)"
       id="path28565" />
    <path
       d="m 595.46,444.17 c -1.62,0.73 -11.19,0.66 -11.8,0.66 v 0 c -0.61,0 -10.18,0.07 -11.8,-0.66 -1.62,-0.73 -6.08,-6.72 -3.75,-14.28 0,0 9.3,3.35 15.55,3 v 0 c 6.25,0.32 15.55,-3 15.55,-3 2.33,7.56 -2.08,13.53 -3.75,14.28 z"
       transform="translate(-445.5,-121.26)"
       id="path28567" />
    <path
       d="m 600.29,411.92 c -0.81,3.81 -15.82,4.81 -16.63,4.86 v 0 c -0.77,-0.05 -15.82,-1.05 -16.63,-4.86 -0.81,-3.81 0.08,-7.61 1.91,-7.72 1.83,-0.11 8.15,2.07 14.72,2.08 v 0 c 6.57,0 12.88,-2.2 14.72,-2.08 1.84,0.12 2.75,3.8 1.91,7.72 z"
       transform="translate(-445.5,-121.26)"
       id="path28569" />
    <path
       d="m 596.63,394.83 c -0.89,2 -12.28,1.93 -13,1.92 v 0 c -0.69,0 -12.08,0.11 -13,-1.92 -0.92,-2.03 -0.62,-4.62 1.73,-5.06 2.35,-0.44 10.64,0 11.24,0 v 0 c 0.57,0 9,-0.43 11.24,0 2.24,0.43 2.7,2.98 1.79,5.06 z"
       transform="translate(-445.5,-121.26)"
       id="path28571" />
    <path
       d="M 583.66,387.93 Z"
       transform="translate(-445.5,-121.26)"
       id="path28573" />
    <path
       d="m 579.58,372.27 a 1.9,1.9 0 0 1 -0.33,-2.1 c 0,0 0.83,1.5 1.25,1.58 0.42,0.08 -0.92,0.52 -0.92,0.52 z"
       transform="translate(-445.5,-121.26)"
       id="path28575" />
    <path
       d="m 613.13,333.33 c 0,0 11.17,5.5 12.83,21.5 1.66,16 -3.33,17.5 -3.33,17.5 0,0 -2.67,-2 -5.33,-1.67 -2.66,0.33 -6.5,-6.83 -5,-13.33 1.5,-6.5 6.5,-9 0.83,-24 z"
       transform="translate(-445.5,-121.26)"
       id="path28577" />
    <path
       d="m 612.43,353.87 c 0.32,-0.95 0.74,-2.19 1.09,-3.18 a 1.54,1.54 0 0 0 -0.78,-1.91 c -1.58,-0.76 -4.13,-2.08 -4.6,-2.84 0,0 -1.16,5.68 2.39,8.52 a 1.22,1.22 0 0 0 1.9,-0.59 z"
       transform="translate(-445.5,-121.26)"
       id="path28579" />
    <path
       d="m 621.4,374.25 c 0,0 1.75,-2.4 -3.06,-1.92 0,0 0.81,3.36 3.06,1.92 z"
       transform="translate(-445.5,-121.26)"
       id="path28581" />
    <path
       d="m 620.71,376.5 c 0,0 -2.81,-2.62 -4.56,-2.37 -1.75,0.25 -5.94,2.88 -7.75,5 -1,1.12 1.81,5.38 2.94,5.38 1.13,0 2.75,1.99 9.37,-8.01 z"
       transform="translate(-445.5,-121.26)"
       id="path28583" />
    <path
       d="m 608.59,385 c 0,0 0.56,-4.25 -1.56,-3.87 -2.12,0.38 -3.44,1.88 -2.57,3.54 0.44,0.83 4.13,0.33 4.13,0.33 z"
       transform="translate(-445.5,-121.26)"
       id="path28585" />
    <path
       d="m 602.77,383.75 c 0,0 2.13,-2.73 2.25,-4.36 0.12,-1.63 -7,-5.95 -8.12,-5.64 -1.12,0.31 -2.25,2.13 -2.62,3.81 -0.37,1.68 7.36,7.85 8.49,6.19 z"
       transform="translate(-445.5,-121.26)"
       id="path28587" />
    <path
       d="m 594.9,372.88 a 7.92,7.92 0 0 0 -1.44,3.69 c 0,0 -2.18,0.56 -1.43,-2.45 0.61,-2.49 2.43,-2.12 2.87,-1.24 z"
       transform="translate(-445.5,-121.26)"
       id="path28589" />
    <path
       d="m 637.59,379.39 c 0,0 -3.94,-1.95 -6.06,-1.39 -2.12,0.56 -0.38,3.27 6.06,1.39 z"
       transform="translate(-445.5,-121.26)"
       id="path28591" />
    <path
       d="m 629.72,381.52 a 2.6,2.6 0 0 0 0.2,-2.21 1,1 0 0 0 -1.27,-0.68 c -1.56,0.5 -8.85,8.75 -9.52,11.06 -0.67,2.31 4.41,2.73 10.59,-8.17 z"
       transform="translate(-445.5,-121.26)"
       id="path28593" />
    <path
       d="m 617.09,391 c 0,0 -3.94,-1 -6.12,0 -2.18,1 -5.5,-0.06 -6.19,0.69 -0.69,0.75 4.12,4.86 12.31,-0.69 z"
       transform="translate(-445.5,-121.26)"
       id="path28595" />
    <path
       d="m 602.15,392.2 a 10,10 0 0 0 1.06,-1.65 c 0.25,-0.61 -5.06,-2.68 -6.75,-3.18 -1.69,-0.5 2.85,4.63 5.69,4.83 z"
       transform="translate(-445.5,-121.26)"
       id="path28597" />
    <path
       d="m 639.63,407 c 0,0 -2.17,-3.5 -3.42,-2.67 -1.25,0.83 1.42,3.5 3.42,2.67 z"
       transform="translate(-445.5,-121.26)"
       id="path28599" />
    <path
       d="m 633.55,407 c 0,0 -0.17,-2.51 -0.67,-2.79 -0.5,-0.28 -8.75,8 -9.17,9 -0.42,1 0.75,2.92 2.08,2.58 1.33,-0.34 7.84,-7.91 7.76,-8.79 z"
       transform="translate(-445.5,-121.26)"
       id="path28601" />
    <path
       d="m 622.71,415.87 c 0,0 1.08,-2 -1,-2 -2.08,0 -11.25,-1.92 -12.5,-1.92 -1.25,0 -3.83,4.71 13.5,3.92 z"
       transform="translate(-445.5,-121.26)"
       id="path28603" />
    <path
       d="m 607.32,410.6 c -0.74,-2.45 -4.26,-13.46 -8.11,-15 0,0 4.76,16.77 7.69,15.92 a 0.71,0.71 0 0 0 0.42,-0.92 z"
       transform="translate(-445.5,-121.26)"
       id="path28605" />
    <path
       d="m 638.23,431.65 a 0.82,0.82 0 0 0 0.84,-1.27 c -0.81,-1.18 -2.38,-3.12 -3.94,-3.12 -1.78,-0.01 1.02,3.84 3.1,4.39 z"
       transform="translate(-445.5,-121.26)"
       id="path28607" />
    <path
       d="m 633.55,429.17 c 0,0 0.33,-2.25 -1.25,-1.92 -1.58,0.33 -8.5,6.67 -9.92,7.08 -1.42,0.41 -0.27,2.5 0.61,2.58 0.88,0.08 10.59,-6.65 10.56,-7.74 z"
       transform="translate(-445.5,-121.26)"
       id="path28609" />
    <path
       d="m 618.79,436.81 a 1.51,1.51 0 0 0 1.68,-1.72 1.07,1.07 0 0 0 -0.76,-0.84 c -1.5,-0.5 -10.3,-5.42 -12.36,-4.25 -2.06,1.17 1.17,5.77 11.44,6.81 z"
       transform="translate(-445.5,-121.26)"
       id="path28611" />
    <path
       d="m 605,429.82 c 0.08,0.22 1.78,-0.12 1.77,-0.36 -0.11,-3.11 -1.45,-12.11 -4.5,-17.21 0.03,0 -4.33,-2.42 2.73,17.57 z"
       transform="translate(-445.5,-121.26)"
       id="path28613" />
    <path
       d="m 595.79,445.92 c 0.33,9.28 -11.4,15.75 -12.13,16.14 -0.73,0.39 0,0 0,0 -0.73,-0.39 -12.46,-6.86 -12.13,-16.14 0,0 7.63,1 12.13,1 v 0 c 4.5,0 12.13,-1 12.13,-1 z"
       transform="translate(-445.5,-121.26)"
       id="path28615" />
    <path
       d="m 583.65,462.07 v 0 0 c 0,0 -0.01,0 0,0 z"
       transform="translate(-445.5,-121.26)"
       id="path28617" />
    <path
       d="m 600.29,427.22 c -1.46,3.37 -15.87,3.84 -16.63,3.86 v 0 c -0.78,0 -15.17,-0.49 -16.63,-3.86 -1.46,-3.37 0.41,-12.22 0.41,-12.22 0,0 8.15,3.32 16.22,3.33 v 0 c 8.07,0 16.21,-3.33 16.21,-3.33 0,0 1.92,8.75 0.42,12.22 z"
       transform="translate(-445.5,-121.26)"
       id="path28619" />
    <path
       d="m 598.79,402.17 c -1.37,1.86 -14.42,2.47 -15.13,2.5 v 0 c -0.73,0 -13.76,-0.64 -15.13,-2.5 -1.37,-1.86 0,-5.5 3.89,-5 3.89,0.5 10.69,0.73 11.24,0.75 v 0 c 0.52,0 7.52,-0.27 11.24,-0.75 3.72,-0.48 5.31,3.08 3.89,5 z"
       transform="translate(-445.5,-121.26)"
       id="path28621" />
    <path
       d="m 594.9,388.42 c -3.59,-1.93 -10.71,-0.59 -11.24,-0.49 v 0 c -0.53,-0.1 -7.65,-1.44 -11.24,0.49 0,0 2.19,-12.17 5.61,-15.59 a 13.49,13.49 0 0 0 5.63,1.58 v 0 a 13.49,13.49 0 0 0 5.63,-1.58 c 3.42,3.42 5.61,15.59 5.61,15.59 z"
       transform="translate(-445.5,-121.26)"
       id="path28623" />
    <path
       d="M 583.65,387.94 Z"
       transform="translate(-445.5,-121.26)"
       id="path28625" />
    <path
       d="m 587.71,372.27 a 1.9,1.9 0 0 0 0.33,-2.1 c 0,0 -0.83,1.5 -1.25,1.58 -0.42,0.08 0.92,0.52 0.92,0.52 z"
       transform="translate(-445.5,-121.26)"
       id="path28627" />
    <path
       d="m 653.52,176.75 c 0,0 -11.17,5.5 -12.83,21.5 -1.66,16 3.33,17.5 3.33,17.5 0,0 2.67,-2 5.33,-1.67 2.66,0.33 6.5,-6.83 5,-13.33 -1.5,-6.5 -6.5,-9 -0.83,-24 z"
       transform="translate(-445.5,-121.26)"
       id="path28629" />
    <path
       d="m 654.21,197.28 c -0.32,-0.95 -0.74,-2.19 -1.09,-3.18 a 1.54,1.54 0 0 1 0.78,-1.91 c 1.58,-0.76 4.13,-2.08 4.6,-2.84 0,0 1.16,5.68 -2.39,8.52 a 1.22,1.22 0 0 1 -1.9,-0.59 z"
       transform="translate(-445.5,-121.26)"
       id="path28631" />
    <path
       d="m 645.25,217.66 c 0,0 -1.75,-2.4 3.06,-1.92 0,0.01 -0.81,3.36 -3.06,1.92 z"
       transform="translate(-445.5,-121.26)"
       id="path28633" />
    <path
       d="m 645.94,219.91 c 0,0 2.81,-2.62 4.56,-2.37 1.75,0.25 5.94,2.88 7.75,5 1,1.12 -1.81,5.38 -2.94,5.38 -1.13,0 -2.75,1.99 -9.37,-8.01 z"
       transform="translate(-445.5,-121.26)"
       id="path28635" />
    <path
       d="m 658.06,228.41 c 0,0 -0.56,-4.25 1.56,-3.87 2.12,0.38 3.44,1.88 2.57,3.54 -0.44,0.83 -4.13,0.33 -4.13,0.33 z"
       transform="translate(-445.5,-121.26)"
       id="path28637" />
    <path
       d="m 663.87,227.16 c 0,0 -2.12,-2.73 -2.25,-4.36 -0.13,-1.63 7,-5.95 8.13,-5.64 1.13,0.31 2.25,2.13 2.63,3.81 0.38,1.68 -7.38,7.85 -8.51,6.19 z"
       transform="translate(-445.5,-121.26)"
       id="path28639" />
    <path
       d="m 671.75,216.29 a 7.92,7.92 0 0 1 1.44,3.69 c 0,0 2.18,0.56 1.43,-2.45 -0.62,-2.53 -2.43,-2.12 -2.87,-1.24 z"
       transform="translate(-445.5,-121.26)"
       id="path28641" />
    <path
       d="m 629.06,222.8 c 0,0 3.94,-1.95 6.06,-1.39 2.12,0.56 0.38,3.28 -6.06,1.39 z"
       transform="translate(-445.5,-121.26)"
       id="path28643" />
    <path
       d="m 636.93,224.93 a 2.6,2.6 0 0 1 -0.2,-2.21 A 1,1 0 0 1 638,222 c 1.56,0.5 8.85,8.75 9.52,11.06 0.67,2.31 -4.41,2.77 -10.59,-8.13 z"
       transform="translate(-445.5,-121.26)"
       id="path28645" />
    <path
       d="m 649.56,234.41 c 0,0 3.94,-1 6.13,0 2.19,1 5.5,-0.06 6.19,0.69 0.69,0.75 -4.13,4.9 -12.32,-0.69 z"
       transform="translate(-445.5,-121.26)"
       id="path28647" />
    <path
       d="m 664.5,235.62 a 10,10 0 0 1 -1.06,-1.65 c -0.25,-0.61 5.06,-2.68 6.75,-3.18 1.69,-0.5 -2.85,4.62 -5.69,4.83 z"
       transform="translate(-445.5,-121.26)"
       id="path28649" />
    <path
       d="m 627,250.41 c 0,0 2.17,-3.5 3.42,-2.67 1.25,0.83 -1.42,3.51 -3.42,2.67 z"
       transform="translate(-445.5,-121.26)"
       id="path28651" />
    <path
       d="m 633.1,250.41 c 0,0 0.17,-2.51 0.67,-2.79 0.5,-0.28 8.75,8 9.17,9 0.42,1 -0.75,2.92 -2.08,2.58 -1.33,-0.34 -7.86,-7.9 -7.76,-8.79 z"
       transform="translate(-445.5,-121.26)"
       id="path28653" />
    <path
       d="m 643.94,259.29 c 0,0 -1.08,-2 1,-2 2.08,0 11.25,-1.92 12.5,-1.92 1.25,0 3.83,4.71 -13.5,3.92 z"
       transform="translate(-445.5,-121.26)"
       id="path28655" />
    <path
       d="m 659.33,254 c 0.74,-2.45 4.26,-13.46 8.11,-15 0,0 -4.76,16.77 -7.69,15.92 A 0.71,0.71 0 0 1 659.33,254 Z"
       transform="translate(-445.5,-121.26)"
       id="path28657" />
    <path
       d="m 628.42,275.06 a 0.82,0.82 0 0 1 -0.84,-1.27 c 0.81,-1.18 2.38,-3.12 3.94,-3.12 1.78,-0.01 -1.03,3.85 -3.1,4.39 z"
       transform="translate(-445.5,-121.26)"
       id="path28659" />
    <path
       d="m 633.1,272.58 c 0,0 -0.33,-2.25 1.25,-1.92 1.58,0.33 8.5,6.67 9.92,7.08 1.42,0.41 0.27,2.5 -0.61,2.58 -0.88,0.08 -10.59,-6.65 -10.56,-7.74 z"
       transform="translate(-445.5,-121.26)"
       id="path28661" />
    <path
       d="m 647.86,280.22 a 1.51,1.51 0 0 1 -1.68,-1.72 1.07,1.07 0 0 1 0.76,-0.84 c 1.5,-0.5 10.3,-5.42 12.36,-4.25 2.06,1.17 -1.17,5.77 -11.44,6.81 z"
       transform="translate(-445.5,-121.26)"
       id="path28663" />
    <path
       d="m 661.62,273.24 c -0.08,0.22 -1.78,-0.12 -1.77,-0.36 0.11,-3.11 1.45,-12.11 4.5,-17.21 0,-0.01 4.36,-2.43 -2.73,17.57 z"
       transform="translate(-445.5,-121.26)"
       id="path28665" />
    <path
       d="m 675.15,303.62 a 4.38,4.38 0 0 1 3.68,-0.08 c 1.56,0.68 3.61,1.9 4.43,3.79 1.42,3.25 -7.33,8.25 -10.08,13.92 0,0 -7.83,-1.75 -10.83,-1.33 0,-0.01 -0.77,-9.64 12.8,-16.3 z"
       transform="translate(-445.5,-121.26)"
       id="path28667" />
    <path
       d="M 663.67,331.74 A 13.93,13.93 0 0 1 662,325 c 0.07,-2.23 0.78,-4.6 3.57,-4.1 5.08,0.92 7.83,7.25 8.75,9.17 0.92,1.92 2.42,0 2.92,0.5 0.5,0.5 -1.5,0.33 -2.17,3.08 -0.67,2.75 1.34,10.42 -5.42,5.42 a 21,21 0 0 1 -5.98,-7.33 z"
       transform="translate(-445.5,-121.26)"
       id="path28669" />
    <path
       d="m 675.1,343.08 c 0,0 -0.67,-2.67 1,-3.33 1.67,-0.66 -0.42,-4.83 4.5,-5.17 4.92,-0.34 6.75,0.58 8.33,-2.58 0,0 0.67,1.42 1.25,2.42 0.58,1 1.5,6.5 1.25,8.67 -0.25,2.17 -12.24,5.16 -16.33,-0.01 z"
       transform="translate(-445.5,-121.26)"
       id="path28671" />
    <path
       d="m 692.6,343 c 0,0 0.33,-6.08 2.5,-7.58 2.17,-1.5 3.67,-5.83 6.58,-6.5 2.91,-0.67 4.17,-1.42 4.33,-4.58 a 3.08,3.08 0 0 1 2.33,2.08 c 0.75,1.92 3.25,2 3,5.58 -0.25,3.58 -8.19,11.18 -13.33,9.92 -5.14,-1.26 -2.41,2.16 -5.41,1.08 z"
       transform="translate(-445.5,-121.26)"
       id="path28673" />
    <path
       d="m 712.85,329.33 c 0,0 -2.92,-2.08 -3,-4 -0.08,-1.92 1.08,-1.75 1.08,-2.75 0,-1 0.08,-9.42 6.17,-8.83 6.09,0.59 5.9,11.91 -4.25,15.58 z"
       transform="translate(-445.5,-121.26)"
       id="path28675" />
    <path
       d="m 720.19,312.21 c 0,0 -4.17,1 -6.33,-1 -2.16,-2 -0.33,-12.75 -0.75,-14.67 -0.42,-1.92 -5.08,-6.25 -5.08,-6.25 0,0 9.08,1.67 11.42,7.92 2.34,6.25 3.99,11.71 0.74,14 z"
       transform="translate(-445.5,-121.26)"
       id="path28677" />
    <path
       d="M 683,305.47 Z"
       transform="translate(-445.5,-121.26)"
       id="path28679" />
    <path
       d="m 694.82,287.58 c -1.62,0.73 -11.19,0.66 -11.8,0.66 v 0 c -0.61,0 -10.18,0.07 -11.8,-0.66 -1.62,-0.73 -6.08,-6.72 -3.75,-14.28 0,0 9.3,3.35 15.55,3 v 0 c 6.25,0.32 15.55,-3 15.55,-3 2.33,7.56 -2.08,13.53 -3.75,14.28 z"
       transform="translate(-445.5,-121.26)"
       id="path28681" />
    <path
       d="m 699.65,255.33 c -0.81,3.81 -15.82,4.81 -16.63,4.86 v 0 c -0.77,-0.05 -15.82,-1.05 -16.63,-4.86 -0.81,-3.81 0.08,-7.61 1.91,-7.72 1.83,-0.11 8.15,2.07 14.72,2.08 v 0 c 6.57,0 12.88,-2.2 14.72,-2.08 1.84,0.12 2.75,3.8 1.91,7.72 z"
       transform="translate(-445.5,-121.26)"
       id="path28683" />
    <path
       d="m 696,238.24 c -0.89,2 -12.28,1.93 -13,1.92 v 0 c -0.69,0 -12.08,0.11 -13,-1.92 -0.92,-2.03 -0.62,-4.62 1.73,-5.06 2.35,-0.44 10.64,0 11.24,0 v 0 c 0.57,0 9,-0.43 11.24,0 2.24,0.43 2.69,2.98 1.79,5.06 z"
       transform="translate(-445.5,-121.26)"
       id="path28685" />
    <path
       d="M 683,231.34 Z"
       transform="translate(-445.5,-121.26)"
       id="path28687" />
    <path
       d="m 678.94,215.68 a 1.9,1.9 0 0 1 -0.33,-2.1 c 0,0 0.83,1.5 1.25,1.58 0.42,0.08 -0.92,0.52 -0.92,0.52 z"
       transform="translate(-445.5,-121.26)"
       id="path28689" />
    <path
       d="m 712.48,176.75 c 0,0 11.17,5.5 12.83,21.5 1.66,16 -3.33,17.5 -3.33,17.5 0,0 -2.67,-2 -5.33,-1.67 -2.66,0.33 -6.5,-6.83 -5,-13.33 1.5,-6.5 6.5,-9 0.83,-24 z"
       transform="translate(-445.5,-121.26)"
       id="path28691" />
    <path
       d="m 711.79,197.28 c 0.32,-0.95 0.74,-2.19 1.09,-3.18 a 1.54,1.54 0 0 0 -0.78,-1.91 c -1.58,-0.76 -4.13,-2.08 -4.6,-2.84 0,0 -1.16,5.68 2.39,8.52 a 1.22,1.22 0 0 0 1.9,-0.59 z"
       transform="translate(-445.5,-121.26)"
       id="path28693" />
    <path
       d="m 720.75,217.66 c 0,0 1.75,-2.4 -3.06,-1.92 0,0.01 0.81,3.36 3.06,1.92 z"
       transform="translate(-445.5,-121.26)"
       id="path28695" />
    <path
       d="m 720.06,219.91 c 0,0 -2.81,-2.62 -4.56,-2.37 -1.75,0.25 -5.94,2.88 -7.75,5 -1,1.12 1.81,5.38 2.94,5.38 1.13,0 2.75,1.99 9.37,-8.01 z"
       transform="translate(-445.5,-121.26)"
       id="path28697" />
    <path
       d="m 707.94,228.41 c 0,0 0.56,-4.25 -1.56,-3.87 -2.12,0.38 -3.44,1.88 -2.57,3.54 0.44,0.83 4.13,0.33 4.13,0.33 z"
       transform="translate(-445.5,-121.26)"
       id="path28699" />
    <path
       d="m 702.13,227.16 c 0,0 2.13,-2.73 2.25,-4.36 0.12,-1.63 -7,-5.95 -8.12,-5.64 -1.12,0.31 -2.25,2.13 -2.62,3.81 -0.37,1.68 7.36,7.85 8.49,6.19 z"
       transform="translate(-445.5,-121.26)"
       id="path28701" />
    <path
       d="m 694.25,216.29 a 7.92,7.92 0 0 0 -1.44,3.69 c 0,0 -2.18,0.56 -1.43,-2.45 0.62,-2.53 2.43,-2.12 2.87,-1.24 z"
       transform="translate(-445.5,-121.26)"
       id="path28703" />
    <path
       d="m 736.94,222.8 c 0,0 -3.94,-1.95 -6.06,-1.39 -2.12,0.56 -0.38,3.28 6.06,1.39 z"
       transform="translate(-445.5,-121.26)"
       id="path28705" />
    <path
       d="m 729.07,224.93 a 2.6,2.6 0 0 0 0.2,-2.21 A 1,1 0 0 0 728,222 c -1.56,0.5 -8.85,8.75 -9.52,11.06 -0.67,2.31 4.41,2.77 10.59,-8.13 z"
       transform="translate(-445.5,-121.26)"
       id="path28707" />
    <path
       d="m 716.44,234.41 c 0,0 -3.94,-1 -6.12,0 -2.18,1 -5.5,-0.06 -6.19,0.69 -0.69,0.75 4.12,4.9 12.31,-0.69 z"
       transform="translate(-445.5,-121.26)"
       id="path28709" />
    <path
       d="m 701.5,235.62 a 10,10 0 0 0 1.06,-1.65 c 0.25,-0.61 -5.06,-2.68 -6.75,-3.18 -1.69,-0.5 2.85,4.62 5.69,4.83 z"
       transform="translate(-445.5,-121.26)"
       id="path28711" />
    <path
       d="m 739,250.41 c 0,0 -2.17,-3.5 -3.42,-2.67 -1.25,0.83 1.42,3.51 3.42,2.67 z"
       transform="translate(-445.5,-121.26)"
       id="path28713" />
    <path
       d="m 732.9,250.41 c 0,0 -0.17,-2.51 -0.67,-2.79 -0.5,-0.28 -8.75,8 -9.17,9 -0.42,1 0.75,2.92 2.08,2.58 1.33,-0.34 7.86,-7.9 7.76,-8.79 z"
       transform="translate(-445.5,-121.26)"
       id="path28715" />
    <path
       d="m 722.06,259.29 c 0,0 1.08,-2 -1,-2 -2.08,0 -11.25,-1.92 -12.5,-1.92 -1.25,0 -3.83,4.71 13.5,3.92 z"
       transform="translate(-445.5,-121.26)"
       id="path28717" />
    <path
       d="m 706.67,254 c -0.74,-2.45 -4.26,-13.46 -8.11,-15 0,0 4.76,16.77 7.69,15.92 a 0.71,0.71 0 0 0 0.42,-0.92 z"
       transform="translate(-445.5,-121.26)"
       id="path28719" />
    <path
       d="m 737.58,275.06 a 0.82,0.82 0 0 0 0.84,-1.27 c -0.81,-1.18 -2.38,-3.12 -3.94,-3.12 -1.78,-0.01 1.03,3.85 3.1,4.39 z"
       transform="translate(-445.5,-121.26)"
       id="path28721" />
    <path
       d="m 732.9,272.58 c 0,0 0.33,-2.25 -1.25,-1.92 -1.58,0.33 -8.5,6.67 -9.92,7.08 -1.42,0.41 -0.27,2.5 0.61,2.58 0.88,0.08 10.59,-6.65 10.56,-7.74 z"
       transform="translate(-445.5,-121.26)"
       id="path28723" />
    <path
       d="m 718.14,280.22 a 1.51,1.51 0 0 0 1.68,-1.72 1.07,1.07 0 0 0 -0.76,-0.84 c -1.5,-0.5 -10.3,-5.42 -12.36,-4.25 -2.06,1.17 1.17,5.77 11.44,6.81 z"
       transform="translate(-445.5,-121.26)"
       id="path28725" />
    <path
       d="m 704.38,273.24 c 0.08,0.22 1.78,-0.12 1.77,-0.36 -0.11,-3.11 -1.45,-12.11 -4.5,-17.21 0,-0.01 -4.36,-2.43 2.73,17.57 z"
       transform="translate(-445.5,-121.26)"
       id="path28727" />
    <path
       d="m 695.15,289.33 c 0.33,9.28 -11.4,15.75 -12.13,16.14 -0.73,0.39 0,0 0,0 -0.73,-0.39 -12.46,-6.86 -12.13,-16.14 0,0 7.63,1 12.13,1 v 0 c 4.5,0 12.13,-1 12.13,-1 z"
       transform="translate(-445.5,-121.26)"
       id="path28729" />
    <path
       d="m 683,305.48 v 0 0 c 0,0 0,0 0,0 z"
       transform="translate(-445.5,-121.26)"
       id="path28731" />
    <path
       d="m 699.65,270.63 c -1.46,3.37 -15.87,3.84 -16.63,3.86 v 0 c -0.78,0 -15.17,-0.49 -16.63,-3.86 -1.46,-3.37 0.41,-12.22 0.41,-12.22 0,0 8.15,3.32 16.22,3.33 v 0 c 8.07,0 16.21,-3.33 16.21,-3.33 0,0 1.92,8.75 0.42,12.22 z"
       transform="translate(-445.5,-121.26)"
       id="path28733" />
    <path
       d="m 698.15,245.58 c -1.37,1.86 -14.42,2.47 -15.13,2.5 v 0 c -0.73,0 -13.76,-0.64 -15.13,-2.5 -1.37,-1.86 0,-5.5 3.89,-5 3.89,0.5 10.69,0.73 11.24,0.75 v 0 c 0.52,0 7.52,-0.27 11.24,-0.75 3.72,-0.48 5.31,3.08 3.89,5 z"
       transform="translate(-445.5,-121.26)"
       id="path28735" />
    <path
       d="m 694.26,231.83 c -3.59,-1.93 -10.71,-0.59 -11.24,-0.49 v 0 c -0.53,-0.1 -7.65,-1.44 -11.24,0.49 0,0 2.19,-12.17 5.61,-15.59 a 13.49,13.49 0 0 0 5.63,1.58 v 0 a 13.49,13.49 0 0 0 5.63,-1.58 c 3.42,3.42 5.61,15.59 5.61,15.59 z"
       transform="translate(-445.5,-121.26)"
       id="path28737" />
    <path
       d="M 683,231.35 Z"
       transform="translate(-445.5,-121.26)"
       id="path28739" />
    <path
       d="m 687.06,215.68 a 1.9,1.9 0 0 0 0.33,-2.1 c 0,0 -0.83,1.5 -1.25,1.58 -0.42,0.08 0.92,0.52 0.92,0.52 z"
       transform="translate(-445.5,-121.26)"
       id="path28741" />
  </g>
  <metadata
     id="metadata3715">
    <rdf:RDF>
      <cc:Work
         rdf:about="">
        <dc:title>House Qorgyle</dc:title>
      </cc:Work>
    </rdf:RDF>
  </metadata>
  <use
     id="shine"
     xlink:href="#shield"
     style="fill:url(#rg-0);stroke:#000000;stroke-width:3" />
</svg>
