<?xml version="1.0" encoding="UTF-8" standalone="no"?>
<svg
   viewBox="0 0 483 527.48"
   version="1.1"
   id="svg44182"
   sodipodi:docname="House Redwyne GoT.svg"
   inkscape:version="1.2.1 (9c6d41e410, 2022-07-14)"
   xmlns:inkscape="http://www.inkscape.org/namespaces/inkscape"
   xmlns:sodipodi="http://sodipodi.sourceforge.net/DTD/sodipodi-0.dtd"
   xmlns="http://www.w3.org/2000/svg"
   xmlns:svg="http://www.w3.org/2000/svg">
  <sodipodi:namedview
     id="namedview44184"
     pagecolor="#ffffff"
     bordercolor="#000000"
     borderopacity="0.25"
     inkscape:showpageshadow="2"
     inkscape:pageopacity="0.0"
     inkscape:pagecheckerboard="0"
     inkscape:deskcolor="#d1d1d1"
     showgrid="false"
     inkscape:zoom="1.12203"
     inkscape:cx="244.20024"
     inkscape:cy="219.24547"
     inkscape:window-width="1920"
     inkscape:window-height="1017"
     inkscape:window-x="-8"
     inkscape:window-y="-8"
     inkscape:window-maximized="1"
     inkscape:current-layer="svg44182" />
  <defs
     id="defs44083">
    <style
       id="style44081">.cls-1{fill:#e1e1d8;}.cls-2{fill:#542f91;}.cls-3{fill:#542f92;}.cls-4{fill:#543092;}.cls-5{fill:#553092;}.cls-6{fill:#553192;}.cls-7{fill:#1f7c3e;}.cls-11,.cls-8{fill:none;}.cls-9{fill:#a4844b;}.cls-10{fill:#a88b55;}.cls-11{stroke:#000;stroke-width:3px;}</style>
    <radialGradient
       id="rg"
       gradientUnits="userSpaceOnUse"
       cx="220"
       cy="220"
       r="405"
       gradientTransform="matrix(0.80510068,0,0,0.80302287,1.3598024,-2.0660236)">
      <stop
         style="stop-color:#ffffff;stop-opacity:.3"
         offset="0"
         id="stop753" />
      <stop
         style="stop-color:#ffffff;stop-opacity:.2"
         offset=".2"
         id="stop755" />
      <stop
         style="stop-color:#666666;stop-opacity:.1"
         offset=".6"
         id="stop757" />
      <stop
         style="stop-color:#000000;stop-opacity:.13"
         offset="1"
         id="stop759" />
    </radialGradient>
  </defs>
  <title
     id="title44085">House Redwyne</title>
  <g
     id="Layer_2"
     data-name="Layer 2">
    <path
       class="cls-1"
       d="M927,122.76V328.6a314.37,314.37,0,0,1-2.28,38c-.11.93-.24,1.86-.36,2.79s-.24,1.86-.39,2.79q-.7,5.05-1.61,10c-.07.44-.15.87-.23,1.31-.15.8-.29,1.6-.45,2.39s-.34,1.8-.51,2.69l-.45,2.22-.24,1.16c-.15.71-.3,1.44-.47,2.15q-.8,3.55-1.61,7l-.58,2.32-.52,2q-1.52,5.88-3.27,11.61c-.29,1-.59,1.94-.9,2.92l-.6,1.88c-.19.63-.39,1.25-.6,1.86l-1.1,3.26c-.37,1.09-.68,2-1,3-.47,1.28-.92,2.55-1.39,3.81-.36,1-.73,2-1.11,3l-.19.49c-.43,1.14-.87,2.25-1.32,3.37s-.87,2.16-1.32,3.19a3.35,3.35,0,0,1-.18.42c-.4,1-.8,2-1.25,3s-.75,1.75-1.13,2.62l-.66,1.49c-.47,1.07-.95,2.12-1.44,3.15s-.9,2-1.36,2.93l-1,2.12c-.3.63-.6,1.25-.91,1.88-.63,1.32-1.31,2.64-2,4q-2.53,5-5.19,9.77l-2,3.57-.11.21q-2.13,3.71-4.33,7.33c-.71,1.2-1.46,2.39-2.18,3.54-.1.16-.19.31-.3.46-.55.89-1.12,1.78-1.69,2.66l-.66,1c-.65,1-1.31,2-2,3l-.13.18c-.66,1-1.32,2-2,3l-.45.67q-2.26,3.28-4.54,6.46l-.31.42c-.8,1.07-1.54,2.14-2.31,3.19s-1.66,2.23-2.5,3.32q-2.29,3-4.61,6l-.8,1c-.73.93-1.48,1.85-2.22,2.76L854,526.61l-.57.69L851,530.1q-2.83,3.32-5.72,6.53c-.75.85-1.52,1.69-2.29,2.51l-2.22,2.39q-3,3.19-5.93,6.24-2.76,2.83-5.53,5.59c-.91.91-1.84,1.82-2.76,2.71s-1.85,1.78-2.78,2.67l-2.28,2.11c-.68.65-1.36,1.28-2.05,1.91a448.64,448.64,0,0,1-61.76,47.47c-.86.55-1.73,1.1-2.58,1.6q-6.42,4.07-12.46,7.63l-2.41,1.4-2.36,1.36-2.34,1.35-2.22,1.28c-8.35,4.68-15.91,8.59-22.38,11.76l-1.61.8c-10.63,5.15-18.11,8.22-21,9.35l-.42.18-.61.23-.14.06h-.08l-.23-.1-.21,0-1.07-.42-.55-.23c-.87-.34-2-.8-3.36-1.38l-.47-.18c-1.76-.8-3.88-1.67-6.33-2.77l-1.39-.61a443.16,443.16,0,0,1-39.74-20.6c-.8-.45-1.61-.92-2.36-1.38a473.14,473.14,0,0,1-44.78-30l-2.62-2c-1-.75-2-1.52-2.95-2.29l-2.81-2.21c-6.19-4.92-12.43-10.15-18.64-15.69L558.08,566q-2.3-2.05-4.59-4.2l-1.67-1.57L550,558.54l-2-1.94c-1.12-1.07-2.24-2.16-3.34-3.26-.84-.8-1.69-1.67-2.52-2.51l-.24-.26q-1.25-1.25-2.5-2.51c-.66-.68-1.32-1.36-2-2l-2-2.07-.13-.15-2.1-2.24q-3.36-3.61-6.66-7.36c-.68-.8-1.36-1.55-2-2.35-.57-.65-1.12-1.28-1.66-1.94l-2-2.39q-4.26-5.11-8.39-10.48-1.13-1.45-2.24-2.92c-1.89-2.47-3.73-5-5.57-7.55l-1.68-2.39c-.13-.16-.24-.34-.36-.5-.59-.85-1.19-1.7-1.77-2.55-.95-1.38-1.89-2.77-2.82-4.17q-1.11-1.64-2.18-3.31l-.15-.24-2.22-3.47c-.07-.13-.15-.24-.22-.37-.71-1.14-1.41-2.27-2.1-3.4s-1.49-2.46-2.21-3.7-1.44-2.39-2.13-3.67q-4.6-8-8.77-16.47c-.35-.69-.69-1.38-1-2.08-.22-.44-.44-.89-.65-1.35-.43-.87-.8-1.75-1.25-2.63a27.17,27.17,0,0,1-1.15-2.47l-.23-.48c-.26-.58-.52-1.16-.8-1.75l-.26-.57c-.26-.58-.52-1.18-.8-1.77q-1.44-3.26-2.78-6.58c-.42-1-.8-2-1.23-3.07-.1-.26-.21-.53-.31-.8-.4-1-.8-2-1.16-3s-.68-1.82-1-2.74l-.23-.65c-.18-.45-.34-.91-.5-1.36q-1-2.69-1.89-5.44c-.21-.6-.4-1.21-.6-1.8-.26-.8-.51-1.54-.75-2.31-.14-.42-.26-.8-.39-1.22-.26-.8-.5-1.6-.75-2.39-.31-1-.61-2.06-.92-3.1-.18-.65-.39-1.28-.57-2-.37-1.28-.74-2.58-1.08-3.89-.19-.68-.37-1.35-.55-2-.13-.5-.26-1-.39-1.51-.32-1.22-.63-2.46-.92-3.7-.18-.7-.35-1.4-.52-2.11-.07-.29-.13-.57-.19-.85-.37-1.55-.71-3.11-1.07-4.69-.26-1.16-.5-2.33-.74-3.5-.14-.71-.29-1.43-.43-2.14s-.32-1.6-.47-2.45a2.13,2.13,0,0,0-.1-.47c-.15-.8-.3-1.64-.45-2.48s-.31-1.84-.47-2.77-.3-1.8-.45-2.71q-.87-5.52-1.56-11.17A314.73,314.73,0,0,1,447,328.58V122.76Z"
       transform="translate(-445.5 -121.26)"
       id="path44087" />
  </g>
  <g
     id="Layer_4"
     data-name="Layer 4">
    <path
       class="cls-2"
       d="M692.72,457.47c.32-11.21,4.9-16.84,15.57-19.25a11.3,11.3,0,0,0,4.25-1.5c7-5.28,13.71-3.71,20.25.84,7.73,5.38,11.33,12.94,10.86,22.24-.7,13.66-13.16,24.59-26.66,23.72C702.78,482.6,692.32,471.37,692.72,457.47Z"
       transform="translate(-445.5 -121.26)"
       id="path44090" />
    <path
       class="cls-2"
       d="M666.18,445c-16,.09-27.47-15.59-22.1-30.5,2.11-5.87,5.21-11,13-10.21a14.34,14.34,0,0,0,9.31-2.4c4.38-3,8.09-1.63,11.93.73,8.8,5.42,13.06,15.69,10.44,25.14A23.62,23.62,0,0,1,666.18,445Z"
       transform="translate(-445.5 -121.26)"
       id="path44092" />
    <path
       class="cls-3"
       d="M632.29,376.14c-1.37-8.67,5.26-15.14,10.63-19.6a3.66,3.66,0,0,1,3.86-.54,22.63,22.63,0,0,0,16.23.42c9.89-3.82,17.63,24.27,10.78,31.64s-14.7,12.85-24.93,10.17S632.2,386.82,632.29,376.14Z"
       transform="translate(-445.5 -121.26)"
       id="path44094" />
    <path
       class="cls-2"
       d="M633.72,330c.14-12.28,10.14-21.83,22.74-21.73a22.17,22.17,0,0,1,22.13,23c-.28,11.67-10.79,21.49-22.74,21.27A22.38,22.38,0,0,1,633.72,330Z"
       transform="translate(-445.5 -121.26)"
       id="path44096" />
    <path
       class="cls-3"
       d="M725.37,504c-.09,11.06-7.75,19.61-19,21.17a21.63,21.63,0,0,1-23.62-15.06c-3.13-10.3,1.52-20.51,11.49-25.39,3.31-1.62,6.39-2.15,9.69.24a20,20,0,0,0,8.46,3.11C721.48,489.64,725.45,494.55,725.37,504Z"
       transform="translate(-445.5 -121.26)"
       id="path44098" />
    <path
       class="cls-2"
       d="M711.51,545.23c.14,11.21-7.7,19.81-19.49,21.39-9.71,1.3-20.51-5.69-23.2-15a21.49,21.49,0,0,1,12.09-25.84c2.8-1.22,25.92,5.71,27.48,8.36A20.89,20.89,0,0,1,711.51,545.23Z"
       transform="translate(-445.5 -121.26)"
       id="path44100" />
    <path
       class="cls-2"
       d="M721.16,297.83c10.39.06,18.33,5.3,21.58,13.72,3.41,8.86,1.09,18.92-5.75,24.88a23.74,23.74,0,0,1-25.53,3.11c-2.83-1.41-3.58-3.07-2.64-6.16a25.19,25.19,0,0,0-3.69-22.8c-1.78-2.51-1.38-3.92.57-6A21.32,21.32,0,0,1,721.16,297.83Z"
       transform="translate(-445.5 -121.26)"
       id="path44102" />
    <path
       class="cls-2"
       d="M661.58,527.85a22.49,22.49,0,0,1-22.08-17.36c-2.1-9.52,2.8-19.13,12-23.4,1.35-.63,3.3-1.79,4.19-1.29a54.92,54.92,0,0,0,20.74,6.39c2.24.27,1.56,3.11,1,5-1.42,4.9-1.89,10.09.35,14.58,2.73,5.51.14,8.49-3.68,11.4A22.28,22.28,0,0,1,661.58,527.85Z"
       transform="translate(-445.5 -121.26)"
       id="path44104" />
    <path
       class="cls-3"
       d="M673.92,486.49c-17.49-.31-28.41-19.08-19.73-33.8,1.62-2.74,3.22-4,6.73-3.13,7.24,1.7,14.16.08,20.45-3.78,2-1.22,3.52-2.14,5.78-.55s1.67,3.57,1.1,5.7a27,27,0,0,0,3,21.81c2.16,3.49,1.15,5.47-1.46,7.64C685.23,484.22,680.06,486.61,673.92,486.49Z"
       transform="translate(-445.5 -121.26)"
       id="path44106" />
    <path
       class="cls-3"
       d="M683,378.26c.89-7.57-2.09-14.3-7.19-20.3-1-1.12-2.58-2.08-1.93-3.79.83-2.16,2.81-1.47,4.49-1.29a28.31,28.31,0,0,0,20.76-5.51c2.75-2.09,4.67-1.21,6.94.32a21.91,21.91,0,0,1,7.23,27.59,23.41,23.41,0,0,1-27.4,11.81C680.46,385.35,683.25,381.77,683,378.26Z"
       transform="translate(-445.5 -121.26)"
       id="path44108" />
    <path
       class="cls-3"
       d="M625.79,299.89a59.83,59.83,0,0,1,6,1c3.17.83,6.78,2,8.12,4.86,1.62,3.47-2.86,4.44-4.53,6.53-6.54,8.22-9.34,17.31-5.07,27.12,2.47,5.67-.05,6.16-4.25,6.46-12.52.89-24.28-9.85-24.56-22.4C601.2,310.62,611.63,300,625.79,299.89Z"
       transform="translate(-445.5 -121.26)"
       id="path44110" />
    <path
       class="cls-2"
       d="M702,433.58c-7.61-.07-8.34-.92-7.64-8.19.8-8.36-1.08-15.93-7.16-22-2-2-3.56-3.47-.65-6.2,5.8-5.45,19-7.49,25.94-3.6,9.16,5.13,13.37,15,10.6,24.82C720.59,427.28,711.73,433.67,702,433.58Z"
       transform="translate(-445.5 -121.26)"
       id="path44112" />
    <path
       class="cls-3"
       d="M728.86,412.42a22.76,22.76,0,0,0-3.32-13c-2.1-3.34-.12-4.63,2.24-6,8.69-5.2,16.53-4.7,25.06,7.46,6.48,8.37,7,14.17,2.21,21.24a20.75,20.75,0,0,1-23.3,8.56c-4.6-1.26-8.34-2.84-4.68-8.76C728.78,419.1,728.93,415.7,728.86,412.42Z"
       transform="translate(-445.5 -121.26)"
       id="path44114" />
    <path
       class="cls-3"
       d="M754.48,337.49a41,41,0,0,1-4.56-.68c-3-.72-4.84-1.45-2.84-5.61,4.3-9,3.71-18.19-2.29-26.38-2.56-3.5-2-5,1.73-6.6,7.87-3.42,17.51-2.05,23.63,3.69a20.81,20.81,0,0,1,4.86,22.7C772,332.26,764.31,337.39,754.48,337.49Z"
       transform="translate(-445.5 -121.26)"
       id="path44116" />
    <path
       class="cls-3"
       d="M753.54,342.25c13.32.65,21.77,10,20.56,22.87-1.09,11.62-11.75,19.37-24.19,17.69-4.07-.55-6.38-1.06-3.41-6.18,4.92-8.48,4.3-17.34-.88-25.75-3.59-5.83-2.38-8.08,4.7-8.62C751.38,342.18,752.46,342.25,753.54,342.25Z"
       transform="translate(-445.5 -121.26)"
       id="path44118" />
    <path
       class="cls-3"
       d="M604.64,365.2c.11-4.16,2.86-9.37,7.39-13.75.16-.15.3-.31.47-.45.76-.61,24.07-1.19,24.87-.59,1.61,1.22,3.22,2.1.59,4.29-10.22,8.48-13.68,19.1-9.08,31.83,1.58,4.38-1.37,3.58-3.63,3.48C613.77,389.49,604.5,379.32,604.64,365.2Z"
       transform="translate(-445.5 -121.26)"
       id="path44120" />
    <path
       class="cls-3"
       d="M678.92,347.15c8-19.41,6.69-27-7-39.67,6.33-5.46,16-5.13,24.09.83a22.11,22.11,0,0,1,7.24,25.51C699.09,344,689.82,349.05,678.92,347.15Z"
       transform="translate(-445.5 -121.26)"
       id="path44122" />
    <path
       class="cls-3"
       d="M714.91,348.5a1.2,1.2,0,0,1,1.28-1.76,28.93,28.93,0,0,0,13.66-.63c2.9-.87,5,.84,7,2.41,7.4,5.67,9.57,17,5.06,25.87-4.09,8.1-15.15,13.18-23.6,10.65-1.42-.42-4.12-.12-2.86-3.54C722.14,363.46,722.4,362.13,714.91,348.5Z"
       transform="translate(-445.5 -121.26)"
       id="path44124" />
    <path
       class="cls-3"
       d="M792.75,338.87c-4.55-.06-7.28-.33-9.88-1.68-4.22-2.21-7.14-4.37-3.49-9.75,3.16-4.66,3.43-10.41,1.92-15.64-1.37-4.76.7-6.2,4.47-7.37,6.25-2,14.4.17,18.77,5.53,4.61,5.66,5.62,12.19,2.49,18.81S798.41,338.74,792.75,338.87Z"
       transform="translate(-445.5 -121.26)"
       id="path44126" />
    <path
       class="cls-3"
       d="M615.37,413.86a20.3,20.3,0,0,1,4.06-12c6.56-8.95,18.42-8.65,24.57.51,1.3,1.94-.49,2.68-1.22,3.79-4.76,7.21-6.68,15-4,23.35,1.09,3.37.07,4-3,4.16C624.87,434.14,615.38,425,615.37,413.86Z"
       transform="translate(-445.5 -121.26)"
       id="path44128" />
    <path
       class="cls-3"
       d="M789.62,385.11c0,9-6,16.58-13.84,18.26a18.23,18.23,0,0,1-20.51-10.07c-1.36-3.07-1.22-4.62,2.63-5.25a24.33,24.33,0,0,0,18.63-13.67c2.27-4.56,4.87-3.57,7.56-1.08C787.7,376.65,790,380.77,789.62,385.11Z"
       transform="translate(-445.5 -121.26)"
       id="path44130" />
    <path
       class="cls-4"
       d="M599.49,366.91c-.28,10.3,3.89,17.83,11.69,23.21,3.38,2.33,3.84,3.52-.05,5.54a19.61,19.61,0,0,1-25.49-7.41,18.29,18.29,0,0,1,6.16-25c2.15-1.31,4.61-3.64,7.07-2.31S598.51,365.35,599.49,366.91Z"
       transform="translate(-445.5 -121.26)"
       id="path44132" />
    <path
       class="cls-5"
       d="M645.4,484.27c-8.94,7.46-13,15.9-11.23,26.46.49,3-.82,3.31-3.15,3.17-7.58-.46-15.07-8.8-15.64-17.47-.54-8.34,5.89-17.56,13.06-18.87a3.85,3.85,0,0,1,3.56,1C635.48,481.68,639.83,483,645.4,484.27Z"
       transform="translate(-445.5 -121.26)"
       id="path44134" />
    <path
       class="cls-4"
       d="M707.24,566.06c2,11.61-2.79,20.23-12.45,23.18-7.83,2.39-20.46-.61-24.33-9.51-1.18-2.71-3.45-6.09-1.13-8.41a9,9,0,0,1,9.1-1.61C688.48,573.69,697.8,572.25,707.24,566.06Z"
       transform="translate(-445.5 -121.26)"
       id="path44136" />
    <path
       class="cls-4"
       d="M804.17,349.68c-.12,8-5.61,14.51-13.9,16.44-7.67,1.78-9.7.38-11-7.26A25.54,25.54,0,0,0,772,344.71c-1.82-1.82-2.33-3.26-.59-5.48,2-2.55,3.31-1.28,5.26.11a23.93,23.93,0,0,0,19.67,4.05C803.18,341.91,804.28,342.76,804.17,349.68Z"
       transform="translate(-445.5 -121.26)"
       id="path44138" />
    <path
       class="cls-3"
       d="M628.29,460c0-8.06,5.92-15.44,13.54-18,4.21-1.39,5.92,1.72,8.35,3.51s0,3.47-.72,5c-3.87,7.79-4.78,15.77-1.24,23.82,1.89,4.28.19,4.85-3.49,4.49C635.92,478,628.27,469.23,628.29,460Z"
       transform="translate(-445.5 -121.26)"
       id="path44140" />
    <path
       class="cls-2"
       d="M591.32,347.76c4.15,1.18,3.31,3.23.11,4.89A17.69,17.69,0,0,1,573,352c-6.7-4.14-9.49-10.34-8.66-18.14.73-6.9,6.34-14,12.44-16.27C576.75,317.63,575.13,343.15,591.32,347.76Z"
       transform="translate(-445.5 -121.26)"
       id="path44142" />
    <path
       class="cls-6"
       d="M601.47,306.21c-8.34,14.9-6.41,27.28,5.9,39.24-7.73,1.17-13.25-.94-17.88-5.24-5.85-5.44-8-12.27-5.47-20.05S591.9,307.65,601.47,306.21Z"
       transform="translate(-445.5 -121.26)"
       id="path44144" />
    <path
       class="cls-4"
       d="M635,439.13c-7.42,5.68-11.47,11.8-11.84,19.9-.13,2.79-1.57,2.39-3.47,1.69-10.8-4-14.84-20.28-7.16-28.87,1.76-2,3.14-2.6,5.2-.35C622,436.13,627.53,438.24,635,439.13Z"
       transform="translate(-445.5 -121.26)"
       id="path44146" />
    <path
       class="cls-6"
       d="M666.22,532.11c-6,12.41-3.58,22.58,3.83,32-8.39,1.57-15.45-1.77-19.26-8.74s-3.37-16.53,1.32-21.34C655.89,530.2,660.72,533.58,666.22,532.11Z"
       transform="translate(-445.5 -121.26)"
       id="path44148" />
    <path
       class="cls-3"
       d="M713.87,528.15c3.89-1.64,11.52-5.91,14.17-14.87a3.88,3.88,0,0,1,3.72-2.78h0a3.85,3.85,0,0,1,3,1.47c2.3,2.95,6.43,10.16,2,20.14-4.09,9.28-12.87,11.15-17.74,11.44a3,3,0,0,1-3.12-3,15.53,15.53,0,0,0-2.78-9.67A1.75,1.75,0,0,1,713.87,528.15Z"
       transform="translate(-445.5 -121.26)"
       id="path44150" />
    <path
       class="cls-3"
       d="M726.38,489.27A21.38,21.38,0,0,1,730.3,504a1.06,1.06,0,0,0,1.26,1.12c6.29-1.25,31-7.9,15.14-32.85a1.07,1.07,0,0,0-1.84,0c-1.9,3.44-7.28,11.41-17.67,14.43A1.63,1.63,0,0,0,726.38,489.27Z"
       transform="translate(-445.5 -121.26)"
       id="path44152" />
    <path
       class="cls-5"
       d="M763.47,406.47s5.45,4.7,10.74,1.87a18.58,18.58,0,0,1,3.18,8.82c-.73,12.92-13.73,23.67-27.93,16.89,9.22-5.83,13.81-16.24,14-26.54"
       transform="translate(-445.5 -121.26)"
       id="path44154" />
    <path
       class="cls-7"
       d="M722.28,195.87a4.17,4.17,0,0,0,.7-.17,2.34,2.34,0,0,0,1.43-1.27Z"
       transform="translate(-445.5 -121.26)"
       id="path44156" />
    <path
       class="cls-7"
       d="M748.09,215.35h.09l-.19.06Z"
       transform="translate(-445.5 -121.26)"
       id="path44158" />
    <path
       class="cls-7"
       d="M726.15,229a2.64,2.64,0,0,0,.46.21l-.54.39c0-.19.06-.37.08-.54Z"
       transform="translate(-445.5 -121.26)"
       id="path44160" />
    <path
       class="cls-7"
       d="M737.57,231.44a60,60,0,0,0,5.52,3.44l-14.78-4.17c1-.67,2-1.36,2.91-2.06l1.33-1A61.11,61.11,0,0,0,737.57,231.44Z"
       transform="translate(-445.5 -121.26)"
       id="path44162" />
    <path
       class="cls-7"
       d="M754.38,242.74c.19.17.39.33.59.48l-.31-.06C754.56,243,754.47,242.88,754.38,242.74Z"
       transform="translate(-445.5 -121.26)"
       id="path44164" />
    <path
       class="cls-7"
       d="M758.75,245.9a22,22,0,0,1,2.47.73,17.92,17.92,0,0,1-4.87-1.2C757.15,245.56,758,245.71,758.75,245.9Z"
       transform="translate(-445.5 -121.26)"
       id="path44166" />
    <path
       class="cls-7"
       d="M761.34,216.18c.4,0,.8,0,1.21,0C762.14,216.21,761.74,216.2,761.34,216.18Z"
       transform="translate(-445.5 -121.26)"
       id="path44168" />
    <path
       class="cls-8"
       d="M776.22,199l.38-.11-.42.15"
       transform="translate(-445.5 -121.26)"
       id="path44170" />
    <path
       class="cls-7"
       d="M776.18,199s0,0,0,0l.19-.13a44.6,44.6,0,0,1,7.72-4.58.16.16,0,0,0,.11-.19A.17.17,0,0,0,784,194a32.12,32.12,0,0,0-8.45,3.56l-1.81,1h0l-.87.51c-1.73,1-3.44,2-5.18,2.89-1.32.7-2.65,1.34-4,1.92l-2.1.89-.64.3a2.61,2.61,0,0,1-.92-.64,1.62,1.62,0,0,1-.18-.2h0c.53-1.16,1.08-2.31,1.69-3.42a41.9,41.9,0,0,1,2.27-3.6,30.19,30.19,0,0,1,2.79-3.25l0,0a.54.54,0,0,0,.1-.58.53.53,0,0,0-.69-.24,13.67,13.67,0,0,0-3.83,2.71,21.27,21.27,0,0,0-2.86,3.7,27.11,27.11,0,0,0-2,4.16,22.3,22.3,0,0,0-1.11,3.79c-1.61.86-3.19,1.77-4.75,2.71a99.76,99.76,0,0,0-14.9,10.74c-1.18,1.1-2.16,2.07-3.31,3.05s-2.27,1.93-3.44,2.85-2.12,1.62-3.21,2.39l-.54.39c0-.19.06-.37.08-.54V229l.05-.71c0-.51,0-1,0-1.51a26.17,26.17,0,0,1,.35-5.52,10.92,10.92,0,0,1,2.43-4.6,42.44,42.44,0,0,1,8.82-7.13.54.54,0,0,0,.19-.69.52.52,0,0,0-.72-.24,50,50,0,0,0-5.17,2.84,28.87,28.87,0,0,0-3.28,2.39A36,36,0,0,0,729,208a28.83,28.83,0,0,0-.54-4.22c-.12-.7-.32-1.39-.49-2.09l-.64-2c-.05-.14-.09-.28-.13-.42s-.15-.49-.22-.74a37.28,37.28,0,0,1-1.06-6.7,59.61,59.61,0,0,1,0-8.13v0a.49.49,0,0,0-.41-.51.48.48,0,0,0-.57.4,46.48,46.48,0,0,0-.64,8.33c0,.83.05,1.67.12,2.5l-2.13,1.44-.17-.11c-.45-.33-.91-.67-1.34-1a10.54,10.54,0,0,1-2.18-2.5,5.62,5.62,0,0,1-.65-1.49,3.62,3.62,0,0,1-.12-1.51l0-.09A.42.42,0,0,0,717,189a5.51,5.51,0,0,0,.57,3.81,11.57,11.57,0,0,0,2.22,3c.43.44.89.85,1.36,1.25s1,.77,1.46,1.11c.86.61,1.76,1.15,2.67,1.68,0,.17.08.34.13.51l.56,1.95c.15.64.33,1.28.42,1.93a32.7,32.7,0,0,1,.45,3.95,35.76,35.76,0,0,1,0,4,36.64,36.64,0,0,1-.36,4v0a12.18,12.18,0,0,0-2.38,4.41,28.41,28.41,0,0,0-.75,6.06c0,.48-.07.94-.12,1.4l-.08.68-.11.57a8.79,8.79,0,0,1-.95,2.27,23.23,23.23,0,0,1-3.33,4.25,55.48,55.48,0,0,1-4.67,4.23,28.13,28.13,0,0,0-.65-3,30.09,30.09,0,0,0-2.07-5.29,21.76,21.76,0,0,1-1.83-4.89c-.43-1.69-.56-3.4-.89-5.34a6.75,6.75,0,0,0-1.25-3l-1.82-2.09a37,37,0,0,1-3.18-4.28,19.68,19.68,0,0,1-1-1.84h0c-.1-.21-.2-.42-.28-.63h0a7.51,7.51,0,0,1-.63-2.08,12.26,12.26,0,0,1-.09-1.31l-.1-1.37c-.08-.91-.14-1.83-.26-2.75a.51.51,0,0,0-1,0c-.12.92-.18,1.84-.26,2.75l-.1,1.37c0,.48-.07.86,0,1.44a8.08,8.08,0,0,0,.21,1.51,7.18,7.18,0,0,1-1.1-.57,18.6,18.6,0,0,1-2.49-1.94,43.5,43.5,0,0,1-4.42-4.77h0a.36.36,0,0,0-.48-.07.37.37,0,0,0-.11.51,45.86,45.86,0,0,0,4,5.3,20.07,20.07,0,0,0,2.5,2.36,8.59,8.59,0,0,0,1.56,1,4.76,4.76,0,0,0,1.26.38c.3.66.66,1.29,1,1.9a41,41,0,0,0,3.3,4.58l1.28,1.52c-.17.3-.44.43-.95.45a6.37,6.37,0,0,1-2.54-.72,25.94,25.94,0,0,1-4.93-3.19h0a.54.54,0,0,0-.71.82,27.09,27.09,0,0,0,5,3.76,8,8,0,0,0,3.18,1.11,3,3,0,0,0,2-.55,7.14,7.14,0,0,1,.22.91,52,52,0,0,0,.9,5.48,24.47,24.47,0,0,0,2.05,5.35,33.37,33.37,0,0,1,2,4.89,25.45,25.45,0,0,1,.63,2.54c.08.43.15.89.19,1.33-.67.51-1.36,1-2,1.46l0,0,0,0a1.78,1.78,0,0,0-.55.64c-2.72,1.28-5.72,3.07-8.6,3.2.55-11.93-4.91-20.22-15.62-24.26-8.86-3.35-8.36-10.49-8.73-17.44-.3-5.83.55-11.8-4.11-16.57,3.16-2.62,6.35-1.47,9.47-1.34,2.4.09,4.79,2.88,7.25-1.66,1.42-2.63,5.81,2.2,9.47,2.16,0-2.81-.36-5.63.06-8.33,1.26-8,3.31-8.77,10-3.36,1.6-3.53,3.17-7.05,6.14-9.51,1.7-1.41,3.27-4.09,5.65-.67,1.32,1.9,2.63.76,3.7-.37s1.84-2.42,2.88-3.51c2-2.1,2.54-6.75,5.44-6.49,3.28.3,3.47,5,5.36,7.54s.27,9.06,6.93,6c.11-.05.74.51.75.78.06,8.66,4.45,3.51,7,1.94,6.18-3.83,6.17.62,6,4.7,3.76-.94,6.84-2,10-2.44s7.69-2.53,6.79,4.42c-.39,3,2.94,2.52,5,2.51,6.71,0,13.43-.3,20.13-.27,2.74,0,5.67-.26,8.42,2.1a38.87,38.87,0,0,0-15.71,16.06c-1.45,2.65-3.52,6.32,2.76,5.07,2.8-.56,2.12,1.48,1.9,2.79-.65,3.81-3,6.55-5.76,9.15-6.3,6-6.25,6.07,2.23,9.07-5.71,2.35-6.45,10.33-14.09,9.45,1.55,4.86,6.27,6.27,8.54,10.4,3.42,6.23-1.27,12.4,2.72,18.38-5.47.41-10.43-2.13-15,2.87-1.85,2-8.16,0-12.31-.2-1.25,2.5,1.46,3.67,1.32,5.79-3.25,1.4-6.17-.21-9.21-1.11-2.2-.66-4.19-4.09-6.12-2.39-2.38,2.11,0,5.21.73,7.84.27,1,.62,2,1,3-2.74,1.16-4.89-.42-7.17-.68-1.67-.19-3.84-3.09-4.69,1.24-.34,1.75-2.19.37-3.11-.31a64.24,64.24,0,0,1-5.52-4.51c-2.82-2.6-4.94-3.19-5.34,2.43-6.44-6-13.74-10.07-17.16-18-1.79-4.14-4.64-3.95-7.79-1.62-4.18,3.1-8.3,6.25-12.44,9.38-2.81.4-3.67-.82-2.84-3.43,8.56-5.87,17-11.18,25.59-17a1.9,1.9,0,0,0,1-.36c.69-.5,1.35-1,2-1.52a39.88,39.88,0,0,1,4.22,3.27c.35.32.69.64,1,1l.27.27.3.33c.1.11.2.21.29.33l.28.34.36.4a10.06,10.06,0,0,0,3.43,2.2c1.71.74,3.38,1.38,4.92,2.19a11.85,11.85,0,0,0,.14,1.81,16.62,16.62,0,0,0,.54,2.32,18.81,18.81,0,0,0,.84,2.2,22.75,22.75,0,0,0,1.06,2.09.46.46,0,0,0,.82-.43h0c-.32-.68-.63-1.36-.9-2.05a20.72,20.72,0,0,1-.66-2.12,16.26,16.26,0,0,1-.37-2.16c0-.27,0-.56,0-.84l.25.15a14.22,14.22,0,0,1,4.67,5.27.65.65,0,0,0,.83.28.63.63,0,0,0,.31-.84,15.67,15.67,0,0,0-4.88-6,22.16,22.16,0,0,0-3.34-2c-1.16-.55-2.33-1-3.43-1.51a8.52,8.52,0,0,1-2.8-1.81l-.07-.08c1.27-.23,2.56-.44,3.84-.62,1.84-.26,3.68-.46,5.53-.55a.51.51,0,0,0,.48-.48.5.5,0,0,0-.48-.52c-1.89-.07-3.79,0-5.67,0s-3.45.23-5.19.42c-.33-.35-.68-.69-1-1a40.78,40.78,0,0,0-3.93-3.18l1.11-.95a47.79,47.79,0,0,0,4.28-4.26,26.42,26.42,0,0,0,3.59-5.09,1.47,1.47,0,0,0,.1-.22c1.12-.68,2.22-1.39,3.3-2.12s2-1.36,2.91-2.06l1.33-1a61.11,61.11,0,0,0,5,3.79,60,60,0,0,0,5.52,3.44c.23.14.47.26.7.39a39.71,39.71,0,0,0,5,2.31c.83,1.29,1.68,2.49,2.55,3.71.66.91,1.32,1.81,2,2.7v0a1,1,0,0,0,.86,1.11h0l0,.06q3,3.84,6.12,7.51a.45.45,0,0,0,.6.06.44.44,0,0,0,.08-.61c-1.69-2.21-3.32-4.46-4.91-6.74l.17,0c.8.13,1.61.28,2.4.47a22,22,0,0,1,2.47.73,7.54,7.54,0,0,1,1.61.79l.51.34a3.15,3.15,0,0,0,.59.33,6.41,6.41,0,0,0,1.2.43,13.5,13.5,0,0,0,2.39.43,29,29,0,0,0,4.75.06.44.44,0,0,0,.4-.43.42.42,0,0,0-.43-.42h0a27.75,27.75,0,0,1-4.56-.33,7.83,7.83,0,0,1-4-1.55,14.75,14.75,0,0,0-4.49-2,43.45,43.45,0,0,0-4.23-1l-.31-.06c-.1-.14-.19-.28-.28-.42-.54-.8-1.06-1.6-1.58-2.41-.4-.64-.8-1.28-1.18-1.92a14.25,14.25,0,0,0,2.7.34,7.38,7.38,0,0,0,3.79-.81.49.49,0,0,0,.24-.56.5.5,0,0,0-.6-.33h0c-2.12.61-4.41,0-6.56-.74-.4-.15-.79-.3-1.19-.47a1.45,1.45,0,0,1-.26-.11h0a48.34,48.34,0,0,1-4.85-2.38,116.16,116.16,0,0,1-10.63-7c.22-.17.43-.35.64-.53,1.17-1,2.35-2.12,3.4-3.07a77.33,77.33,0,0,1,7-5.47c.9-.63,1.79-1.25,2.7-1.85l.1-.07h.09c1.71.31,3.42.57,5.14.81,2,.29,4,.54,6,.79a46.34,46.34,0,0,0,6.1.65,15.61,15.61,0,0,0,6-1.59.23.23,0,0,0,.13-.24.23.23,0,0,0-.26-.21,30.83,30.83,0,0,1-5.84.31c-1.85-.18-3.82-.7-5.82-1s-4-.62-6-.88c-1-.14-1.93-.27-2.89-.38l2-1.29c2.55-1.58,5.14-3.08,7.8-4.42.66-.33,1.33-.66,2-1l2.06-.91a41.2,41.2,0,0,0,4.13-2.13c1.78-1,3.47-2.15,5.14-3.28.59.09,1.14.16,1.71.23s1.34.12,2,.17c1.34.08,2.68.11,4,.11a.69.69,0,0,0,.67-.62.68.68,0,0,0-.62-.72c-1.3-.1-2.6-.25-3.88-.43l-1.65-.28Z"
       transform="translate(-445.5 -121.26)"
       id="path44172" />
    <path
       class="cls-9"
       d="M705,290c-3.1-9.42-9.76-16.2-16.38-23.06a4.88,4.88,0,0,1-2.84-3.43c-13.67-10.77-23.47-24.6-31.37-39.91-8.16-15.8-6.74-31,3.72-45.16,7.58-10.29,17.63-15.78,30.77-14.48,1.8.18,3.45.63,4.25,2.44a2.75,2.75,0,0,1-.56,3c-2,2.39-2.76-.39-4.08-1-1.72-.8-3.57-.78-4.59,1-1.21,2.11.65,3.15,2.09,4,3.63,2.16,6.75,1.25,9-2.14,2.54-3.88,2.06-7.57-2-10.06-6.1-3.74-12.57-2.84-18.73-.27-12,5-19.72,14.34-24.9,26.08-1.79,4.07-1.72,8.93-5.18,12.28-1.19-.18-2,0-1.54,1.33l.09.26c1.7,18.34,7.71,34.92,20.74,48.72-5-1-9.25-2.7-13.58-3.92-13-3.63-25.39-2.58-36.43,5.73-7.65,5.76-8.88,14.76-3.62,22.45,5.5,8,14.32,10,22.65,5,1.25-.75,2.31-2.43,3.9-1,3.6,3.18,8.25,2.1,12.3,3.36s4.42-1.5,3.38-3.6c-1.8-3.64-.11-5.94,1.56-8.75,2-3.32,1.73-7,.66-10.9-3.44.91-6.75,1.75-10,2.67-1.74.49-3.21.84-4.44-1.18-1.44-2.35-3.62-5.77-6.23-4.49-2.82,1.38-1.16,5.44-1.24,8.35a6.59,6.59,0,0,0,.47,2.55c1.65,4.21,2.23,8-3,10.25-5.51,2.37-12,1.06-14.7-3.09a15.84,15.84,0,0,1,6.83-23A29,29,0,0,1,638.44,248c30.91,5.19,51.37,22.9,62.58,51.93C706.41,298.45,706.55,294.8,705,290Zm-71-27.29a.61.61,0,0,1,1.13-.41l3.42,5.74c1.88-.47,3.81-.83,5.7-1.24,1.09-.24,2.17-.5,3.22-.8a8.81,8.81,0,0,0,2.82-1.29l.07-.06a.47.47,0,0,1,.65.06.45.45,0,0,1,0,.54,7.36,7.36,0,0,1-2.86,2.41,22.83,22.83,0,0,1-3.24,1.46,30.93,30.93,0,0,1-4.66,1.35,1.84,1.84,0,0,0,.17.22,28.35,28.35,0,0,0,3.39,3.45,36.85,36.85,0,0,0,3.92,2.91l.06,0a.84.84,0,0,1-.75,1.48,16.46,16.46,0,0,1-4.79-2.45,7.83,7.83,0,0,1-1.06-.84c-.34-.3-.69-.59-1-.9a22.85,22.85,0,0,1-1.8-2c-.46-.59-.89-1.19-1.29-1.82a1.08,1.08,0,0,1-.34-.47l-.06-.17a19.23,19.23,0,0,1-1.12-2.1,19,19,0,0,1-1.59-5.09Z"
       transform="translate(-445.5 -121.26)"
       id="path44174" />
    <path
       class="cls-10"
       d="M644.16,199.32l-1.45,1.59c-1.24-3.63-2.87-6.59-7.63-5.86-1.08.17-2.46-.73-3.5-1.44-1.82-1.26-3.55-3.07-3-5.32.76-2.87,3.56-1.79,5.51-1.7C642.3,187,642.81,193.5,644.16,199.32Z"
       transform="translate(-445.5 -121.26)"
       id="path44176" />
  </g>
  <g
     id="Layer_3"
     data-name="Layer 3">
    <path
       class="cls-11"
       d="M927,122.76V328.6a313.88,313.88,0,0,1-2.28,38c-.11.93-.24,1.86-.36,2.79,0,.2,0,.4-.08.59-.09.74-.19,1.47-.31,2.2-.46,3.37-1,6.69-1.6,10-.07.44-.15.87-.23,1.31-.16.8-.29,1.6-.45,2.4s-.34,1.79-.51,2.69l-.45,2.22-.24,1.15c-.15.71-.3,1.44-.46,2.15-.54,2.37-1.07,4.71-1.61,7l-.58,2.32-.52,2q-1.53,5.88-3.27,11.61c-.29,1-.59,1.94-.9,2.92l-.6,1.88c-.2.63-.4,1.24-.61,1.86-.37,1.09-.73,2.17-1.1,3.25s-.68,2-1,3c-.47,1.28-.93,2.56-1.39,3.81-.36,1-.73,2-1.11,3l-.19.5c-.43,1.14-.87,2.25-1.32,3.36s-.87,2.17-1.31,3.2c0,.15-.12.28-.18.42-.4,1-.8,2-1.25,3s-.76,1.75-1.13,2.62l-.66,1.49c-.48,1.07-1,2.11-1.44,3.15s-.9,2-1.36,2.93l-1,2.12c-.29.63-.6,1.25-.91,1.87-.63,1.33-1.31,2.64-2,4q-2.52,5-5.19,9.77l-2,3.57-.12.21c-1.42,2.47-2.86,4.92-4.33,7.33-.71,1.2-1.46,2.4-2.18,3.54-.11.16-.2.32-.3.47-.55.89-1.12,1.78-1.69,2.66l-.65,1c-.65,1-1.31,2-2,3l-.13.18c-.65,1-1.31,2-2,3l-.45.67q-2.25,3.29-4.54,6.46l-.31.43c-.8,1.07-1.54,2.14-2.31,3.19s-1.66,2.23-2.5,3.32c-1.52,2-3.06,4-4.61,6l-.81,1q-1.09,1.39-2.22,2.76L854,526.61l-.57.69c-.8.94-1.6,1.87-2.41,2.8q-2.82,3.32-5.72,6.53c-.75.85-1.52,1.69-2.29,2.51s-1.47,1.6-2.22,2.4q-3,3.2-5.93,6.24-2.76,2.82-5.53,5.59c-.92.91-1.84,1.82-2.76,2.71s-1.85,1.78-2.79,2.66l-2.28,2.12c-.68.65-1.36,1.28-2,1.91a449.24,449.24,0,0,1-61.76,47.47c-.86.55-1.72,1.1-2.57,1.6q-6.43,4.06-12.47,7.63l-2.41,1.4-2.36,1.37-2.33,1.34-2.23,1.29c-8.34,4.68-15.9,8.59-22.38,11.76l-1.6.8c-10.64,5.15-18.12,8.22-21,9.35l-.42.17-.61.24-.14,0h-.08l-.23-.09-.21,0-1.07-.42-.54-.23c-.87-.34-2-.8-3.37-1.38l-.46-.18c-1.76-.8-3.89-1.67-6.33-2.77l-1.39-.61a442.25,442.25,0,0,1-39.75-20.6c-.8-.44-1.6-.92-2.35-1.38a474,474,0,0,1-44.78-30l-2.63-2c-1-.75-2-1.51-2.94-2.29l-2.81-2.21c-6.19-4.92-12.43-10.15-18.64-15.69L558.08,566q-2.31-2.05-4.59-4.2l-1.67-1.57L550,558.54l-2-1.94c-1.12-1.07-2.23-2.17-3.33-3.27-.85-.79-1.69-1.66-2.52-2.5l-.24-.26c-.84-.83-1.67-1.67-2.5-2.51-.66-.68-1.32-1.36-2-2l-2-2.06-.13-.15-2.1-2.25q-3.36-3.6-6.66-7.36c-.68-.79-1.36-1.54-2.05-2.34-.57-.65-1.12-1.29-1.66-1.94q-1-1.2-2-2.4-4.28-5.1-8.39-10.48c-.76-1-1.5-1.93-2.24-2.92-1.89-2.47-3.73-5-5.57-7.55-.55-.8-1.12-1.59-1.68-2.39-.13-.16-.24-.34-.36-.5-.59-.86-1.19-1.7-1.77-2.56-.94-1.38-1.89-2.77-2.81-4.17-.74-1.09-1.47-2.2-2.19-3.31a1,1,0,0,0-.15-.24l-2.22-3.48-.22-.36c-.7-1.14-1.41-2.27-2.1-3.4s-1.49-2.46-2.21-3.71-1.43-2.39-2.13-3.67q-4.61-8-8.77-16.46c-.35-.69-.69-1.38-1-2.09-.22-.44-.44-.88-.65-1.35-.43-.87-.8-1.74-1.25-2.63a25.91,25.91,0,0,1-1.15-2.47l-.23-.48c-.27-.58-.53-1.16-.81-1.75l-.26-.57c-.27-.59-.52-1.19-.8-1.78q-1.44-3.25-2.79-6.57c-.42-1-.8-2-1.23-3.08-.1-.25-.21-.52-.31-.79-.4-1-.8-2-1.16-3s-.69-1.82-1-2.74l-.24-.65c-.17-.44-.33-.91-.49-1.35q-1-2.7-1.9-5.44c-.21-.6-.4-1.2-.6-1.8-.26-.8-.51-1.54-.75-2.32-.14-.41-.27-.8-.4-1.22-.25-.8-.49-1.59-.75-2.39-.31-1-.61-2.06-.92-3.11-.19-.64-.39-1.28-.57-1.95-.37-1.29-.74-2.58-1.09-3.89-.19-.68-.37-1.35-.55-2-.13-.5-.27-1-.4-1.51-.32-1.22-.62-2.45-.92-3.7-.18-.7-.34-1.4-.52-2.11-.07-.28-.13-.56-.19-.85-.37-1.55-.72-3.11-1.07-4.69-.26-1.16-.5-2.33-.74-3.5-.13-.71-.29-1.43-.42-2.14s-.32-1.59-.48-2.45a1.86,1.86,0,0,0-.09-.47c-.16-.8-.3-1.64-.45-2.48s-.32-1.84-.48-2.77-.29-1.8-.45-2.71q-.57-3.7-1.07-7.47c-.17-1.23-.33-2.47-.48-3.71A312.7,312.7,0,0,1,447,328.58V122.76Z"
       transform="translate(-445.5 -121.26)"
       id="path44179" />
  </g>
  <path
     id="shine"
     d="M 2.9700036,-0.4599776 V 205.9169 C 2.9700036,435.58144 242.89,525.52 242.89,525.52 c 0,0 239.92,-89.93856 239.92,-319.6031 V -0.4599776 Z"
     style="fill:url(#rg);stroke:#000000;stroke-width:2.41218" />
</svg>
