<?xml version="1.0" encoding="UTF-8" standalone="no"?>
<svg
   viewBox="0 0 483 527.48"
   version="1.1"
   id="svg23489"
   sodipodi:docname="House Reed.svg"
   inkscape:version="1.2.1 (9c6d41e410, 2022-07-14)"
   xmlns:inkscape="http://www.inkscape.org/namespaces/inkscape"
   xmlns:sodipodi="http://sodipodi.sourceforge.net/DTD/sodipodi-0.dtd"
   xmlns="http://www.w3.org/2000/svg"
   xmlns:svg="http://www.w3.org/2000/svg">
  <sodipodi:namedview
     id="namedview23491"
     pagecolor="#ffffff"
     bordercolor="#000000"
     borderopacity="0.25"
     inkscape:showpageshadow="2"
     inkscape:pageopacity="0.0"
     inkscape:pagecheckerboard="0"
     inkscape:deskcolor="#d1d1d1"
     showgrid="false"
     inkscape:zoom="1.12203"
     inkscape:cx="180.03083"
     inkscape:cy="282.52363"
     inkscape:window-width="1920"
     inkscape:window-height="1017"
     inkscape:window-x="-8"
     inkscape:window-y="-8"
     inkscape:window-maximized="1"
     inkscape:current-layer="svg23489" />
  <defs
     id="defs23400">
    <style
       id="style23398">.cls-1{fill:#63916c;stroke-width:3px;}.cls-1,.cls-3{stroke:#000;}.cls-2,.cls-4{stroke:#405e45;}.cls-2{stroke-miterlimit:10;}.cls-2,.cls-3,.cls-4{stroke-width:2px;}.cls-3,.cls-4{fill:none;stroke-linecap:round;stroke-linejoin:round;}</style>
    <radialGradient
       id="rg"
       gradientUnits="userSpaceOnUse"
       cx="220"
       cy="220"
       r="405"
       gradientTransform="matrix(0.80510068,0,0,0.80302287,-0.0302038,-0.9020141)">
      <stop
         style="stop-color:#ffffff;stop-opacity:.3"
         offset="0"
         id="stop753" />
      <stop
         style="stop-color:#ffffff;stop-opacity:.2"
         offset=".2"
         id="stop755" />
      <stop
         style="stop-color:#666666;stop-opacity:.1"
         offset=".6"
         id="stop757" />
      <stop
         style="stop-color:#000000;stop-opacity:.13"
         offset="1"
         id="stop759" />
    </radialGradient>
  </defs>
  <title
     id="title23402">House Reed</title>
  <g
     id="Layer_2"
     data-name="Layer 2">
    <path
       class="cls-1"
       d="M927,122.76V328.6a314.37,314.37,0,0,1-2.28,38c-.11.93-.24,1.86-.36,2.79s-.24,1.86-.39,2.79q-.7,5.05-1.61,10c-.07.44-.15.87-.23,1.31-.15.8-.29,1.6-.45,2.39s-.34,1.8-.51,2.69l-.45,2.22-.24,1.16c-.15.71-.3,1.44-.47,2.15q-.8,3.55-1.61,7l-.58,2.32-.52,2q-1.52,5.88-3.27,11.61c-.29,1-.59,1.94-.9,2.92l-.6,1.88c-.19.63-.39,1.25-.6,1.86l-1.1,3.26c-.37,1.09-.68,2-1,3-.47,1.28-.92,2.55-1.39,3.81-.36,1-.73,2-1.11,3l-.19.49c-.43,1.14-.87,2.25-1.32,3.37s-.87,2.16-1.32,3.19a3.35,3.35,0,0,1-.18.42c-.4,1-.8,2-1.25,3s-.75,1.75-1.13,2.62l-.66,1.49c-.47,1.07-.95,2.12-1.44,3.15s-.9,2-1.36,2.93l-1,2.12c-.3.63-.6,1.25-.91,1.88-.63,1.32-1.31,2.64-2,4q-2.53,5-5.19,9.77l-2,3.57-.11.21q-2.13,3.71-4.33,7.33c-.71,1.2-1.46,2.39-2.18,3.54-.1.16-.19.31-.3.46-.55.89-1.12,1.78-1.69,2.66l-.66,1c-.65,1-1.31,2-2,3l-.13.18c-.66,1-1.32,2-2,3l-.45.67q-2.26,3.28-4.54,6.46l-.31.42c-.8,1.07-1.54,2.14-2.31,3.19s-1.66,2.23-2.5,3.32q-2.29,3-4.61,6l-.8,1c-.73.93-1.48,1.85-2.22,2.76L854,526.61l-.57.69L851,530.1q-2.83,3.32-5.72,6.53c-.75.85-1.52,1.69-2.29,2.51l-2.22,2.39q-3,3.19-5.93,6.24-2.76,2.83-5.53,5.59c-.91.91-1.84,1.82-2.76,2.71s-1.85,1.78-2.78,2.67l-2.28,2.11c-.68.65-1.36,1.28-2.05,1.91a448.64,448.64,0,0,1-61.76,47.47c-.86.55-1.73,1.1-2.58,1.6q-6.42,4.07-12.46,7.63l-2.41,1.4-2.36,1.36-2.34,1.35-2.22,1.28c-8.35,4.68-15.91,8.59-22.38,11.76l-1.61.8c-10.63,5.15-18.11,8.22-21,9.35l-.42.18-.61.23-.14.06h-.08l-.23-.1-.21,0-1.07-.42-.55-.23c-.87-.34-2-.8-3.36-1.38l-.47-.18c-1.76-.8-3.88-1.67-6.33-2.77l-1.39-.61a443.16,443.16,0,0,1-39.74-20.6c-.8-.45-1.61-.92-2.36-1.38a473.14,473.14,0,0,1-44.78-30l-2.62-2c-1-.75-2-1.52-2.95-2.29l-2.81-2.21c-6.19-4.92-12.43-10.15-18.64-15.69L558.08,566q-2.3-2.05-4.59-4.2l-1.67-1.57L550,558.54l-2-1.94c-1.12-1.07-2.24-2.16-3.34-3.26-.84-.8-1.69-1.67-2.52-2.51l-.24-.26q-1.25-1.25-2.5-2.51c-.66-.68-1.32-1.36-2-2l-2-2.07-.13-.15-2.1-2.24q-3.36-3.61-6.66-7.36c-.68-.8-1.36-1.55-2-2.35-.57-.65-1.12-1.28-1.66-1.94l-2-2.39q-4.26-5.11-8.39-10.48-1.13-1.45-2.24-2.92c-1.89-2.47-3.73-5-5.57-7.55l-1.68-2.39c-.13-.16-.24-.34-.36-.5-.59-.85-1.19-1.7-1.77-2.55-.95-1.38-1.89-2.77-2.82-4.17q-1.11-1.64-2.18-3.31l-.15-.24-2.22-3.47c-.07-.13-.15-.24-.22-.37-.71-1.14-1.41-2.27-2.1-3.4s-1.49-2.46-2.21-3.7-1.44-2.39-2.13-3.67q-4.6-8-8.77-16.47c-.35-.69-.69-1.38-1-2.08-.22-.44-.44-.89-.65-1.35-.43-.87-.8-1.75-1.25-2.63a27.17,27.17,0,0,1-1.15-2.47l-.23-.48c-.26-.58-.52-1.16-.8-1.75l-.26-.57c-.26-.58-.52-1.18-.8-1.77q-1.44-3.26-2.78-6.58c-.42-1-.8-2-1.23-3.07-.1-.26-.21-.53-.31-.8-.4-1-.8-2-1.16-3s-.68-1.82-1-2.74l-.23-.65c-.18-.45-.34-.91-.5-1.36q-1-2.69-1.89-5.44c-.21-.6-.4-1.21-.6-1.8-.26-.8-.51-1.54-.75-2.31-.14-.42-.26-.8-.39-1.22-.26-.8-.5-1.6-.75-2.39-.31-1-.61-2.06-.92-3.1-.18-.65-.39-1.28-.57-2-.37-1.28-.74-2.58-1.08-3.89-.19-.68-.37-1.35-.55-2-.13-.5-.26-1-.39-1.51-.32-1.22-.63-2.46-.92-3.7-.18-.7-.35-1.4-.52-2.11-.07-.29-.13-.57-.19-.85-.37-1.55-.71-3.11-1.07-4.69-.26-1.16-.5-2.33-.74-3.5-.14-.71-.29-1.43-.43-2.14s-.32-1.6-.47-2.45a2.13,2.13,0,0,0-.1-.47c-.15-.8-.3-1.64-.45-2.48s-.31-1.84-.47-2.77-.3-1.8-.45-2.71q-.87-5.52-1.56-11.17A314.73,314.73,0,0,1,447,328.58V122.76Z"
       transform="translate(-445.5 -121.26)"
       id="path23404" />
  </g>
  <g
     id="Layer_7"
     data-name="Layer 7">
    <path
       class="cls-2"
       d="M561,426.27c-.28.07-29.39-22.06-39-31,0,0-35.73-29.1-36.46-46.52s-2-49.34,39-54.24c0,0,32.29,1.45,16.69-13.42s-27.21-16.51-28.3-19.59c0,0,31,7.44,38.64,21s3.63,17.78-13.79,21.77-33.56-1.27-43,27.39,37.95,72.44,67.59,85.19c0,0,14.39,1.72,17.82,1.6s7.23.71,10.23,7.14,6.62,9.16,6.62,9.16S563.58,425.64,561,426.27Z"
       transform="translate(-445.5 -121.26)"
       id="path23407" />
    <path
       class="cls-2"
       d="M487.4,375.39s1.4-5.2,8.86-5.73a41.26,41.26,0,0,0-4.43,11.17"
       transform="translate(-445.5 -121.26)"
       id="path23409" />
    <path
       class="cls-2"
       d="M493.17,383.57s3.39-5,9-2.74a25.14,25.14,0,0,0-5.44,9"
       transform="translate(-445.5 -121.26)"
       id="path23411" />
    <path
       class="cls-2"
       d="M498.1,392.41s4.45-4.77,9.07-4.32c0,0-3.54,2.26-5,9.38"
       transform="translate(-445.5 -121.26)"
       id="path23413" />
    <path
       class="cls-2"
       d="M505.56,400.3s1.06-6.4,5.24-8.31c0,0-.55,6.89.68,11.11"
       transform="translate(-445.5 -121.26)"
       id="path23415" />
    <path
       class="cls-2"
       d="M513.75,403.87a9.48,9.48,0,0,1,5.12-7.17,59.91,59.91,0,0,0,2.63,9.9"
       transform="translate(-445.5 -121.26)"
       id="path23417" />
    <path
       class="cls-2"
       d="M527.38,409a17.24,17.24,0,0,1,2.89-6.67,17,17,0,0,1,1.41,12"
       transform="translate(-445.5 -121.26)"
       id="path23419" />
    <path
       class="cls-2"
       d="M532.17,388.81a14.06,14.06,0,0,0-6.49,5.26s5.8,1.81,9.16-2.63"
       transform="translate(-445.5 -121.26)"
       id="path23421" />
    <path
       class="cls-2"
       d="M529.27,382.8s-5.23,1.38-6.41,4.56c0,0,4.85,1.15,8.5-.83"
       transform="translate(-445.5 -121.26)"
       id="path23423" />
    <path
       class="cls-2"
       d="M508.44,340.2a13.87,13.87,0,0,0-10.76,7.92s6.73-2.75,12.06-.58"
       transform="translate(-445.5 -121.26)"
       id="path23425" />
    <path
       class="cls-2"
       d="M511.76,352.55s-4.5,1.8-7.58,9.41a37,37,0,0,1,11.9-2.67"
       transform="translate(-445.5 -121.26)"
       id="path23427" />
    <path
       class="cls-2"
       d="M518.86,362.74s-5.16,1.4-6.88,8.93a19.44,19.44,0,0,1,11.29-3.25l-3.94-5.68"
       transform="translate(-445.5 -121.26)"
       id="path23429" />
    <path
       class="cls-2"
       d="M523.59,369.66a17.2,17.2,0,0,0-5.08,6.64s4.78-2.27,8.6-2.36"
       transform="translate(-445.5 -121.26)"
       id="path23431" />
    <path
       class="cls-2"
       d="M526.82,376.3a18.72,18.72,0,0,0-5.32,3.94,55.42,55.42,0,0,1,7.44-.5"
       transform="translate(-445.5 -121.26)"
       id="path23433" />
  </g>
  <g
     id="Layer_4"
     data-name="Layer 4">
    <path
       class="cls-2"
       d="M892.76,321.57c-1.35-32.25-12.65-62.58-20.54-78.91s-18.64-33.06-42.45-54.56S776.85,155.86,754,147.83s-45-5.17-62.71-5-44.62,8.45-58.77,14.56-50.19,26.66-72.1,54.42-27.61,50.48-27.61,50.48c10.47,1.35,17.82-6.4,17.82-6.4a10.89,10.89,0,0,0,6.26.13c3.32-.93-.38-9.41-.53-9.78.29.17,4.55,2.64,6.79.82s-.14-11.17-.14-11.17,6.67,2.59,7.76.28-.27-10.62-.27-10.62,4.63,4.49,6.4,1.5,1.63-10.88,1.63-10.88,5,3.94,7.2,2.31,1.9-10.47,1.9-10.47,4.08,4.35,6.39,3.13,3.27-9.53,3.27-9.53,4.77,5.18,6.94,3.41,4.9-8.16,4.9-8.16,4.22,5,6.53,4.49,4.08-8.16,4.08-8.16,4.63,5.7,6.93,4.48,5-8.29,5-8.29,2.45,6.79,5.44,4.76,6.39-7.62,6.39-7.62,1.92,6.13,5,4.49,5.17-8.3,5.17-8.3,2.59,6.93,5.71,4.35,6.8-8,6.8-8,1.9,6.53,4.22,5.16S677,176.4,677,176.4s-.32,7.49,4.45,6.26,7.75-7.35,7.75-7.35.28,7.35,3.68,6.53,7.62-5.57,7.62-5.57-.67,5.7,2.31,6.12,10.34-5,10.34-5-1.89,8.16,1.92,7.2,8.4-5.42,8.7-5.69c-.09.46-1.64,8.27,2.19,7.87s8.78-3.6,9.1-3.8c-.07.35-1.55,8,1.92,7.88s9.12-3.54,9.12-3.54-2,8.58,1.63,7.89a53.44,53.44,0,0,0,9-3,13.41,13.41,0,0,0-.5,5.2,1.23,1.23,0,0,0,1.59,1c3.22-1,8.37-3.2,8.7-3.33-.08.21-2.36,6,1,7.06s10.07-2.18,10.07-2.18-1.23,4.09-.82,6.67,9.93,0,9.93,0a23.71,23.71,0,0,0-1.35,6.93c0,3.19,9.08,1.58,9.5,1.51A30.8,30.8,0,0,0,793,222c-.27,3.12,9.93,2.85,9.93,2.85s-2.85,1-2.58,5.44,9.39,4.22,9.39,4.22a13.43,13.43,0,0,0-2.46,6.25c-.4,3.68,9.66,2.72,9.66,2.72a8.6,8.6,0,0,0-2.45,5.72c0,3.4,9,4.61,9,4.61s-2.45,3.27-2.18,6.27,9.38,2.44,9.38,2.44-2.58,2.46-2.44,5.58,9.25,3.81,9.25,3.81-5.31,2.72-5.18,6.26,8.3,5.31,8.3,5.31a7.26,7.26,0,0,0-5,4.35c-1.22,3.53,7.9,6.79,7.9,6.79s-4.22,1.09-5.31,4.77,6.26,7.07,6.26,7.07-4.08,1.09-4.63,4.22,6.26,7.88,6.26,7.88-4.35,1.09-5,4.09,5,7.88,5,7.88-4.35-.13-5.17,2.59,5.17,9.52,5.17,9.52-5.71,0-6.53,2.86,3.8,8.62,4.07,9c-.26-.13-4-1.92-6.25,1.1s3,9.59,3.25,9.93c-.27-.16-4.42-2.71-6.52,1.37s2.71,9.1,3,9.37c-.28-.12-4.29-1.78-6.39,1s1.33,11,1.49,11.42c-.17-.21-2.09-2.36-6.11-.81-4.22,1.63-.69,9.94-.69,9.94a15.28,15.28,0,0,0-6.13-1.63c-3.4-.14-2.31,10.47-2.31,10.47a9.78,9.78,0,0,0-6.4-2.18c-3.94,0-2,9.94-1.9,10.58-.09-.3-1-2.73-5.17-3.37-4.48-.67-4.9,10.34-4.9,10.34s-2.72-3.27-5.7-3.27-4.22,9.39-4.22,9.39-1.22-4.49-5.57-4.49-5,10.08-5,10.08-2.32-5.72-5.71-5.72-5.57,8.3-5.57,8.3a5,5,0,0,0-4.49-4.49c-4.35-.67-7.22,8.16-7.22,8.16s-1.35-4.35-4.76-5.44-6.26,7.76-6.26,7.76-.27-4.21-3.68-5.71-8.29,7.75-8.29,7.75-1.09-4.21-4.35-5.44-6.94,6.81-6.94,6.81-1.49-4.77-3.81-6.13-8.16,5.84-8.16,5.84-1.89-5-4.76-6.53-7.48,7.36-7.48,7.36-1-4.49-3.55-6.27-8.16,6.53-8.16,6.53-2.18-5.44-4.76-6.53-7.22,7.49-7.22,7.49-1.22-5.86-3.27-7.35-9.11,7.35-9.11,7.35-.95-5.71-2.86-6.94-8.71,6.13-8.71,6.13.54-4.63-1.35-7.76-10.88,5.72-10.88,5.72,2.72-7.49,0-9.53-9.66,5-9.66,5,.67-5.58-.67-7.89-10.67,3-11.14,3.25c.3-.34,4.06-4.38,3.93-8.28s-9.52-1.8-10.17-1.64c.4-.26,4.14-2.78,3.36-6.26-.61-2.71-5.61-3.28-8.16-3.37a.84.84,0,0,1-.67-1.28c1.14-1.88,3-5.39,2-7s-5.94-1-8.92-.46a.84.84,0,0,1-.87-1.26,15,15,0,0,0,1.77-5.35c.81-5.31-9.66-3.13-9.66-3.13,4.77-7.31,2-11.11-.78-12.94a10.91,10.91,0,0,0-4.7-1.64c-16.12-2-27.38-6.9-35.06-15.89-5.8-6.8-15.29-16.12-19.9-20.56a7,7,0,0,1-2.11-5.82c1.12-10.49-6.83-9.81-6.83-9.81-10-1.3-10.77,6.33-9.74,12.74a32.89,32.89,0,0,0,5.39,13.2c4.8,7.06,7.64,8.42,10.48,14.32,3.4,7.07,3.27,11.7,8.71,18.23s12.23,4.35,14.15,9.52,7.75,12.66,13.19,17.14c4.09,3.37,16.27,2.91,22.06,2.46a4.69,4.69,0,0,1,4.35,2.24c2.44,4,7.78,11.23,10,14.22a.14.14,0,0,1-.2.19c-5.12-4.75-16.74-13.07-22.62-10.95-6.4,2.31-18.63,1.5-18.63,1.5-8.45.4-11.84-6.67-16.06-6.27s-4.48.28-9.25-6.93-11.56-5.84-22-10.48-15.38-20-17.56-22.86-8.16-6.93-8,3.13,9.93,18.09,16.59,25.45,11.3,6.53,17.7,13.87,27.88,18.92,27.88,18.92c-.41,6.94,2.72,10.75,6.4,14.42s19.18,25,19.18,25c-19.32-4.76-25.85,7.62-25.85,7.62s-3-5.17-16.47-6.93S510.89,496,510.89,496c17.27-10.47,21.49-1.76,21.49-1.76-11.16,2.59-9.93,22.58-9.93,22.58,12-14.55,23-15.64,23-15.64-.67,21.48,15.24,19.31,15.24,19.31-6.75-21.35,9.37-24.42,20.4-24.2a65.92,65.92,0,0,0,15.31-1.62,12.73,12.73,0,0,1,6.94.34,3.47,3.47,0,0,1,2.19,2.37c5,18.46,27.5,14.9,28.7,14.7-4.38,1-13.55,11-13.55,11s-10.2-11.16-21.48-6.66a17.77,17.77,0,0,0-11.3,15.78c15.37-9.53,20.68-3,20.68-3-11.84,5.18-9.12,22.59-9.12,22.59,15-17.56,22.59-14.15,22.59-14.15,1.49,21.9,16.87,20.27,16.87,20.27l-2-2.8c-6.26-8.11-2.61-17.16,7.56-20.54,7.86-2.6,13.62.86,20.89-1.4,11.22-3.48,6.37-19.61,6.37-19.61,27.21,6.67,62.71,1.09,62.71,1.09-1.35,5-4.07,7.76-12.78,10.88s-5.44,10.74-5.44,10.74c6-5.44,16.18-6,16.18-6-6.93,8.3-2.86,16.61-2.86,16.61,5.72-11.43,12.11-13.06,12.11-13.06,2.72,8.57,9.52,10.06,9.52,10.06s-1.9-11.14,3.4-16.59c4.48-4.59,4.31-14.32,4.15-17.25a1.08,1.08,0,0,1,.78-1.09A77.49,77.49,0,0,0,778.22,501c4.61,2.45,18.76,5,18.76,5-4.61,8.16-7.88,10.88-17.27,15.24s-5,12-5,12c6-5.86,17.83-5.86,17.83-5.86-5.86,6.12-3.13,17.83-3.13,17.83,3-7.9,14.43-14.43,14.43-14.43,2.39,9,10.87,12.16,11.13,12.24-.17-.4-3.86-8.94-1.34-13.19s8.29-10.34,9.38-20-3.68-31-3.68-31c32.79-24.23,56.74-71.7,60.54-81.63S894.13,353.8,892.76,321.57ZM582.45,399.52A20.83,20.83,0,0,1,577,399c-3.86-.7-10.11-12.32-10.11-12.32s2.56-1.41,10.06-1S582.45,399.52,582.45,399.52Z"
       transform="translate(-445.5 -121.26)"
       id="path23436" />
  </g>
  <g
     id="Layer_6"
     data-name="Layer 6">
    <path
       class="cls-3"
       d="M572,395.24a13.17,13.17,0,0,1,8.21-8.32"
       transform="translate(-445.5 -121.26)"
       id="path23439" />
  </g>
  <g
     id="Layer_5"
     data-name="Layer 5">
    <path
       class="cls-4"
       d="M623.4,449.44s7.75-4.76,9-1.09a13.39,13.39,0,0,1,.82,6s8.43-5.88,9.8-3.69,1.22,8.59,1.22,8.59,7.48-7.21,9.25-4.22a16.79,16.79,0,0,1,2,6.39s6.8-7.62,8.43-5.58a48.78,48.78,0,0,1,3.95,6.94s5.85-7.07,8.43-5.85,3.81,5.85,3.81,5.85,4.86-7.89,7-7.21,5.39,6.26,5.39,6.26,6.39-7.75,8.3-6,3.95,6,3.95,6,4.63-7.92,7.21-7,4.9,6,4.9,6,5.85-7.11,7.75-6,4.08,5.87,4.08,5.87,5.71-7.92,7.89-5.87a41.67,41.67,0,0,1,3.95,4.37s6-7.89,8-6.94,4.22,4.76,4.22,4.76,4.35-8.71,7.21-7.35,4.76,5.15,4.76,5.15,4.63-9,7.21-7.91,4.35,4.38,4.35,4.38,3-9.93,6-8.57a17.88,17.88,0,0,1,5.44,4.35s3.54-9.8,6-9a14.72,14.72,0,0,1,4.76,3.13s2.72-9.11,4.22-9.39,6.39,3.4,6.39,3.4,1.63-11,4.22-10.75a18.09,18.09,0,0,1,5.58,1.9s.14-10.75,3-10.07A27.24,27.24,0,0,1,828,419s.14-11.16,2.45-11.7,6,1.22,6,1.22-1.63-11.16,1-10.88,6,.82,6,.82-2.72-10.75,0-12a10.32,10.32,0,0,1,5.31-.82s-3.54-7.48-2.58-10.2,6.39-2,6.39-2-4.76-9.52-2.72-12,5.44-1,5.44-1-4.76-7.75-3.95-10.07,6.39-3.27,6.39-3.27-6-7.21-4.35-9.39,5.17-3.54,5.17-3.54-6.12-6.12-5.44-8.71,5.44-4.08,5.44-4.08-7.35-6.26-6.8-8.57,4.63-4.76,4.63-4.76-7.07-5.71-5.85-7.21,5.17-6,5.17-6-9-5.58-7.48-8a30.19,30.19,0,0,1,3.81-4.76s-7.89-3.4-7.62-6.12,4.35-6,4.35-6-9.11-2.45-9.11-5.58a7.85,7.85,0,0,1,2.45-5.31s-9.39-1.63-9-3.81a51.75,51.75,0,0,1,2-6.39s-9.11-2.18-9-5a13.55,13.55,0,0,1,2.18-5.85s-8.84,0-9.52-3.4,3-6.8,3-6.8-11.43-1.77-11.16-5.31a9.18,9.18,0,0,1,2.72-5.71s-9.8-.14-9.39-2.86a78.61,78.61,0,0,1,1.9-7.75s-10.34.82-10.48-2a21.2,21.2,0,0,1,1.36-6.8s-10.07,1.63-9.66,0,0-7.75,0-7.75-6.67,2.86-9.39,2.86-1.5-7.89-1.5-7.89-7.21,3-9,4.08-1.63-7.75-1.63-7.75-7.07,3.27-9.66,3.13-.54-8.71-.54-8.71-7.62,3.27-9.66,3.4-1.77-7.48-1.77-7.48-6.53,3.4-9.66,3.4-1.9-6.94-1.9-6.94-6.67,3.67-8.84,3.54-2.72-6.8-2.72-6.8-6.12,6-8.84,5.58-3.4-6.94-3.4-6.94-5.44,5.44-8,5.58-3.4-5.58-3.4-5.58-4.76,4.9-8.16,6.67-4.22-5.71-4.22-5.71-5,6.39-6.53,7.21-5.31-4.49-5.31-4.49-3.81,6.67-6.67,7.62-5.71-4.9-5.71-4.9-2.72,7.75-5.17,9-5.71-4.35-5.71-4.35-3,6.67-5.85,8.16-6.39-4.76-6.39-4.76-2,8.3-5,9-6.26-5.31-6.26-5.31-3.13,6.12-4.63,8.16"
       transform="translate(-445.5 -121.26)"
       id="path23442" />
    <path
       class="cls-4"
       d="M638.13,477.88s-12.33,5.26-4.72,11.43,13.24-1.72,38.27,24.22"
       transform="translate(-445.5 -121.26)"
       id="path23444" />
    <path
       class="cls-4"
       d="M734.41,514.61s20.63-2.36,24.22-5.44"
       transform="translate(-445.5 -121.26)"
       id="path23446" />
    <path
       class="cls-4"
       d="M764.75,454.87s-6.12,41.87,13.47,46.13"
       transform="translate(-445.5 -121.26)"
       id="path23448" />
    <path
       class="cls-4"
       d="M797,506s13,.5,18.09-3.58"
       transform="translate(-445.5 -121.26)"
       id="path23450" />
    <path
       class="cls-4"
       d="M809.55,510.16s-5.35,8.43-.73,15.69"
       transform="translate(-445.5 -121.26)"
       id="path23452" />
    <path
       class="cls-4"
       d="M605,496.18s1.65-7.39,8-9.57"
       transform="translate(-445.5 -121.26)"
       id="path23454" />
    <path
       class="cls-4"
       d="M570.29,479.33s12.24,10.25,18.41,9.8S602,494.29,602,494.29"
       transform="translate(-445.5 -121.26)"
       id="path23456" />
    <path
       class="cls-4"
       d="M593.48,489.77c.49.16,22.53-.92,26.25-24"
       transform="translate(-445.5 -121.26)"
       id="path23458" />
    <path
       class="cls-4"
       d="M544.9,440.33s22.31,23,48.07,10.88"
       transform="translate(-445.5 -121.26)"
       id="path23460" />
    <path
       class="cls-4"
       d="M556,435.86s10.34,10.62,19.75,4.22c5.94-4,11.66,0,15.35,4.87q.65.87,1.27,1.89"
       transform="translate(-445.5 -121.26)"
       id="path23462" />
    <path
       class="cls-4"
       d="M554,399.52s5,18.68,24.76,13.15"
       transform="translate(-445.5 -121.26)"
       id="path23464" />
    <path
       class="cls-4"
       d="M563.31,389.81s9.63,12.06,10.89,13.06,3.17-1.36,4.53,0,19.14,22.58,21.59,14.15"
       transform="translate(-445.5 -121.26)"
       id="path23466" />
    <path
       class="cls-4"
       d="M592.06,416.08s-9.61-12.3-9.61-16.57,1.18-12.88-4.81-13.79-9,2.36-17.23-1.63S541.27,366,541.27,366"
       transform="translate(-445.5 -121.26)"
       id="path23468" />
    <path
       class="cls-4"
       d="M566.67,386s5.53,15.65,15.78,13.47"
       transform="translate(-445.5 -121.26)"
       id="path23470" />
    <path
       class="cls-4"
       d="M634.5,480s64.33,22.57,130.3,1.78"
       transform="translate(-445.5 -121.26)"
       id="path23472" />
    <path
       class="cls-4"
       d="M792.86,460.19s-1.92,6.28-1.28,10.53l.09,0a74.09,74.09,0,0,0,16.84-12.07C826,442,866,398,869.23,339.66c4.08-74.82-25.94-128.61-62.85-151.82-37.54-23.61-81-45.17-146.38-31.29-66.66,14.15-117.27,96.59-117.27,96.59"
       transform="translate(-445.5 -121.26)"
       id="path23474" />
    <path
       class="cls-4"
       d="M791.58,470.72s.28,6.43,4.36,5.43,14.33-6.26,19.14-1.63,5.17,8.34,5.17,8.34"
       transform="translate(-445.5 -121.26)"
       id="path23476" />
    <path
       class="cls-4"
       d="M636.32,530.53s14.28-10.75,22.31-3.67"
       transform="translate(-445.5 -121.26)"
       id="path23478" />
    <path
       class="cls-4"
       d="M634.5,511.89s15.84-3.67,22.64-1.5"
       transform="translate(-445.5 -121.26)"
       id="path23480" />
    <path
       class="cls-4"
       d="M515.38,411.62s10.75,1.22,18.09,14.28"
       transform="translate(-445.5 -121.26)"
       id="path23482" />
    <path
       class="cls-4"
       d="M515.38,348.12c.41.24,19.86,13.92,27.34,39.94"
       transform="translate(-445.5 -121.26)"
       id="path23484" />
    <path
       class="cls-4"
       d="M514.09,334.55s5.71-1,6.8,1.43a8.37,8.37,0,0,1,.61,4.69S514.56,335.58,514.09,334.55Z"
       transform="translate(-445.5 -121.26)"
       id="path23486" />
  </g>
  <path
     id="shine"
     d="M 1.5799973,0.7040319 V 207.08091 c 0,229.66454 239.9200027,319.6031 239.9200027,319.6031 0,0 239.92,-89.93856 239.92,-319.6031 V 0.7040319 Z"
     style="fill:url(#rg);stroke:#000000;stroke-width:2.41218" />
</svg>
