<?xml version="1.0" encoding="UTF-8" standalone="no"?>
<svg
   viewBox="0 0 483 527.48"
   version="1.1"
   id="svg44988"
   sodipodi:docname="House Reyne H&amp;L.svg"
   inkscape:version="1.2.1 (9c6d41e410, 2022-07-14)"
   xmlns:inkscape="http://www.inkscape.org/namespaces/inkscape"
   xmlns:sodipodi="http://sodipodi.sourceforge.net/DTD/sodipodi-0.dtd"
   xmlns="http://www.w3.org/2000/svg"
   xmlns:svg="http://www.w3.org/2000/svg">
  <sodipodi:namedview
     id="namedview44990"
     pagecolor="#ffffff"
     bordercolor="#000000"
     borderopacity="0.25"
     inkscape:showpageshadow="2"
     inkscape:pageopacity="0.0"
     inkscape:pagecheckerboard="0"
     inkscape:deskcolor="#d1d1d1"
     showgrid="false"
     inkscape:zoom="0.79339504"
     inkscape:cx="202.92539"
     inkscape:cy="267.20611"
     inkscape:window-width="1920"
     inkscape:window-height="1017"
     inkscape:window-x="-8"
     inkscape:window-y="-8"
     inkscape:window-maximized="1"
     inkscape:current-layer="svg44988" />
  <defs
     id="defs44779">
    <style
       id="style44777">.cls-1{fill:#c9bbaa;}.cls-2{fill:#fef1d1;}.cls-3{fill:#600608;}.cls-10,.cls-11,.cls-4,.cls-5,.cls-6,.cls-7,.cls-8,.cls-9{fill:none;stroke:#000;}.cls-4,.cls-5{stroke-miterlimit:10;}.cls-11,.cls-4,.cls-7{stroke-width:3px;}.cls-10,.cls-6,.cls-7,.cls-8,.cls-9{stroke-linecap:round;stroke-linejoin:round;}.cls-8{stroke-width:4.23px;}.cls-9{stroke-width:2px;}.cls-10{stroke-width:4.25px;}</style>
    <radialGradient
       id="rg"
       gradientUnits="userSpaceOnUse"
       cx="220"
       cy="220"
       r="405"
       gradientTransform="matrix(0.80510068,0,0,0.80302287,-0.0302027,-0.9220146)">
      <stop
         style="stop-color:#ffffff;stop-opacity:.3"
         offset="0"
         id="stop753" />
      <stop
         style="stop-color:#ffffff;stop-opacity:.2"
         offset=".2"
         id="stop755" />
      <stop
         style="stop-color:#666666;stop-opacity:.1"
         offset=".6"
         id="stop757" />
      <stop
         style="stop-color:#000000;stop-opacity:.13"
         offset="1"
         id="stop759" />
    </radialGradient>
  </defs>
  <title
     id="title44781">House Reyne</title>
  <g
     id="Layer_2"
     data-name="Layer 2">
    <path
       class="cls-1"
       d="M927,122.76V328.6a314.37,314.37,0,0,1-2.28,38c-.11.93-.24,1.86-.36,2.79s-.24,1.86-.39,2.79q-.7,5.05-1.61,10c-.07.44-.15.87-.23,1.31-.15.8-.29,1.6-.45,2.39s-.34,1.8-.51,2.69l-.45,2.22-.24,1.16c-.15.71-.3,1.44-.47,2.15q-.8,3.55-1.61,7l-.58,2.32-.52,2q-1.52,5.88-3.27,11.61c-.29,1-.59,1.94-.9,2.92l-.6,1.88c-.19.63-.39,1.25-.6,1.86l-1.1,3.26c-.37,1.09-.68,2-1,3-.47,1.28-.92,2.55-1.39,3.81-.36,1-.73,2-1.11,3l-.19.49c-.43,1.14-.87,2.25-1.32,3.37s-.87,2.16-1.32,3.19a3.35,3.35,0,0,1-.18.42c-.4,1-.8,2-1.25,3s-.75,1.75-1.13,2.62l-.66,1.49c-.47,1.07-.95,2.12-1.44,3.15s-.9,2-1.36,2.93l-1,2.12c-.3.63-.6,1.25-.91,1.88-.63,1.32-1.31,2.64-2,4q-2.53,5-5.19,9.77l-2,3.57-.11.21q-2.13,3.71-4.33,7.33c-.71,1.2-1.46,2.39-2.18,3.54-.1.16-.19.31-.3.46-.55.89-1.12,1.78-1.69,2.66l-.66,1c-.65,1-1.31,2-2,3l-.13.18c-.66,1-1.32,2-2,3l-.45.67q-2.26,3.28-4.54,6.46l-.31.42c-.8,1.07-1.54,2.14-2.31,3.19s-1.66,2.23-2.5,3.32q-2.29,3-4.61,6l-.8,1c-.73.93-1.48,1.85-2.22,2.76L854,526.61l-.57.69L851,530.1q-2.83,3.32-5.72,6.53c-.75.85-1.52,1.69-2.29,2.51l-2.22,2.39q-3,3.19-5.93,6.24-2.76,2.83-5.53,5.59c-.91.91-1.84,1.82-2.76,2.71s-1.85,1.78-2.78,2.67l-2.28,2.11c-.68.65-1.36,1.28-2.05,1.91a448.64,448.64,0,0,1-61.76,47.47c-.86.55-1.73,1.1-2.58,1.6q-6.42,4.07-12.46,7.63l-2.41,1.4-2.36,1.36-2.34,1.35-2.22,1.28c-8.35,4.68-15.91,8.59-22.38,11.76l-1.61.8c-10.63,5.15-18.11,8.22-21,9.35l-.42.18-.61.23-.14.06h-.08l-.23-.1-.21,0-1.07-.42-.55-.23c-.87-.34-2-.8-3.36-1.38l-.47-.18c-1.76-.8-3.88-1.67-6.33-2.77l-1.39-.61a443.16,443.16,0,0,1-39.74-20.6c-.8-.45-1.61-.92-2.36-1.38a473.14,473.14,0,0,1-44.78-30l-2.62-2c-1-.75-2-1.52-2.95-2.29l-2.81-2.21c-6.19-4.92-12.43-10.15-18.64-15.69L558.08,566q-2.3-2.05-4.59-4.2l-1.67-1.57L550,558.54l-2-1.94c-1.12-1.07-2.24-2.16-3.34-3.26-.84-.8-1.69-1.67-2.52-2.51l-.24-.26q-1.25-1.25-2.5-2.51c-.66-.68-1.32-1.36-2-2l-2-2.07-.13-.15-2.1-2.24q-3.36-3.61-6.66-7.36c-.68-.8-1.36-1.55-2-2.35-.57-.65-1.12-1.28-1.66-1.94l-2-2.39q-4.26-5.11-8.39-10.48-1.13-1.45-2.24-2.92c-1.89-2.47-3.73-5-5.57-7.55l-1.68-2.39c-.13-.16-.24-.34-.36-.5-.59-.85-1.19-1.7-1.77-2.55-.95-1.38-1.89-2.77-2.82-4.17q-1.11-1.64-2.18-3.31l-.15-.24-2.22-3.47c-.07-.13-.15-.24-.22-.37-.71-1.14-1.41-2.27-2.1-3.4s-1.49-2.46-2.21-3.7-1.44-2.39-2.13-3.67q-4.6-8-8.77-16.47c-.35-.69-.69-1.38-1-2.08-.22-.44-.44-.89-.65-1.35-.43-.87-.8-1.75-1.25-2.63a27.17,27.17,0,0,1-1.15-2.47l-.23-.48c-.26-.58-.52-1.16-.8-1.75l-.26-.57c-.26-.58-.52-1.18-.8-1.77q-1.44-3.26-2.78-6.58c-.42-1-.8-2-1.23-3.07-.1-.26-.21-.53-.31-.8-.4-1-.8-2-1.16-3s-.68-1.82-1-2.74l-.23-.65c-.18-.45-.34-.91-.5-1.36q-1-2.69-1.89-5.44c-.21-.6-.4-1.21-.6-1.8-.26-.8-.51-1.54-.75-2.31-.14-.42-.26-.8-.39-1.22-.26-.8-.5-1.6-.75-2.39-.31-1-.61-2.06-.92-3.1-.18-.65-.39-1.28-.57-2-.37-1.28-.74-2.58-1.08-3.89-.19-.68-.37-1.35-.55-2-.13-.5-.26-1-.39-1.51-.32-1.22-.63-2.46-.92-3.7-.18-.7-.35-1.4-.52-2.11-.07-.29-.13-.57-.19-.85-.37-1.55-.71-3.11-1.07-4.69-.26-1.16-.5-2.33-.74-3.5-.14-.71-.29-1.43-.43-2.14s-.32-1.6-.47-2.45a2.13,2.13,0,0,0-.1-.47c-.15-.8-.3-1.64-.45-2.48s-.31-1.84-.47-2.77-.3-1.8-.45-2.71q-.87-5.52-1.56-11.17A314.73,314.73,0,0,1,447,328.58V122.76Z"
       transform="translate(-445.5 -121.26)"
       id="path44783" />
  </g>
  <g
     id="Layer_4"
     data-name="Layer 4">
    <path
       class="cls-2"
       d="M729.68,535.8c-.23,1.36-1.31,1.77-2.52,2.09-7.35,2-13-1.09-18.06-6l-.76-.73A12.61,12.61,0,0,1,720.62,525a13.38,13.38,0,0,0,7,8.38C728.69,534,729.95,534.24,729.68,535.8Z"
       transform="translate(-445.5 -121.26)"
       id="path44786" />
    <path
       class="cls-2"
       d="M697.62,549.18c3,3.12-1,3.35-2.1,4.76h-.71a44.65,44.65,0,0,0-3.73-2.64,10.37,10.37,0,0,1-5.5-9.52,9.28,9.28,0,0,0-.11-1.44l.52,0s3.53-5.18,11.63,2.21C694.51,544.83,695.37,546.87,697.62,549.18Z"
       transform="translate(-445.5 -121.26)"
       id="path44788" />
    <path
       class="cls-2"
       d="M674.63,267.72a8.94,8.94,0,0,0-5.6-4.51c-.05.22-.1.43-.16.62l-8.1-5.48-10.23-6.93c5.66.73,10.45,3.87,15.74,5.64a9.91,9.91,0,0,0,6.78,0c8.23-2.79,14.47-8.58,20.82-14.05,6-5.16,13.06-6.91,20.12-3.76a9.93,9.93,0,0,1,6.09,7.65c.26,1.5,0,3-2.24,2.23-6.71-2.26-10.09-.73-14.38,4.81-2.83,3.66-4.87,8-8.76,10.88h0A13.51,13.51,0,0,1,693,266c-4.79,2.57-9.51,3.9-14.8,1.88-1.59-.61-2.91-.88-3.54-.11Z"
       transform="translate(-445.5 -121.26)"
       id="path44790" />
    <path
       class="cls-2"
       d="M672.83,546c-1.79,1-3-1-3.81-2.28-3.82-5.55-6.21-11.41-5-18h0c.26-.05,5.85-1,9.46,7.46-1.83,1.54-2.21,3.67-1.57,6.27.2.79.51,1.57.63,2.37C672.81,543.26,674.48,545,672.83,546Z"
       transform="translate(-445.5 -121.26)"
       id="path44792" />
    <path
       class="cls-3"
       d="M674.63,267.72l-5.76-3.89c.06-.2.11-.4.16-.62A8.94,8.94,0,0,1,674.63,267.72Z"
       transform="translate(-445.5 -121.26)"
       id="path44794" />
    <path
       class="cls-2"
       d="M668.87,263.83c-1.1,3.74-3.9,2.68-3.9,2.68a12,12,0,0,0-4.86-7.18l.67-1Z"
       transform="translate(-445.5 -121.26)"
       id="path44796" />
    <path
       class="cls-2"
       d="M650.54,251.42l10.23,6.93-.67,1a7.57,7.57,0,0,0-1.31-.72c-.42,4.48-2.36,6.61-2.36,6.61-1.06-3.63-8.74-8.22-9.7-9.81s1.79-5,2-5.23a1.59,1.59,0,0,0,1.46,1.19Z"
       transform="translate(-445.5 -121.26)"
       id="path44798" />
    <path
       class="cls-2"
       d="M654.6,517.78c-1.39-.7-.84-2.12-.55-3.16,1.4-5.16,3.25-10,8.52-12.66a30.18,30.18,0,0,0,4.46-3.25l.33.13s2.55,2.9-1.43,13.91c-1.39-1-2.53-.76-3.8.24a19.37,19.37,0,0,0-3.89,3.53C657.33,517.75,656.1,518.54,654.6,517.78Z"
       transform="translate(-445.5 -121.26)"
       id="path44800" />
    <path
       class="cls-3"
       d="M650.54,251.42l-.39-.05a1.59,1.59,0,0,1-1.46-1.19h0Z"
       transform="translate(-445.5 -121.26)"
       id="path44802" />
    <path
       d="M636.43,210.83c15.07-.43,11.95,8.39,11.95,8.39C639.27,215.95,636.43,210.83,636.43,210.83Z"
       transform="translate(-445.5 -121.26)"
       id="path44804" />
    <path
       class="cls-3"
       d="M614.37,313.14l-.38.09a24.71,24.71,0,0,0-6.43,8.76c0-.44-.79-13,6.06-19.79l.32.05A29,29,0,0,0,614.37,313.14Z"
       transform="translate(-445.5 -121.26)"
       id="path44806" />
    <path
       class="cls-2"
       d="M613.31,512.36c.52.62,1.13,1.42.58,2.21-.68,1-1.77.56-2.56.15-4.16-2.14-9-2.88-12.74-5.85-1.3-1-2.41-1.34-3.27-.94l-.57-1.31a4.72,4.72,0,0,1-.26-.46l1.69-.11s7.38-9.11,16.86-2.3C611.86,506.65,611,509.56,613.31,512.36Z"
       transform="translate(-445.5 -121.26)"
       id="path44808" />
    <path
       class="cls-3"
       d="M582.78,269.85a33.69,33.69,0,0,1,2.29-6.49C584.93,263.77,584,266.38,582.78,269.85Z"
       transform="translate(-445.5 -121.26)"
       id="path44810" />
    <path
       class="cls-2"
       d="M579.52,531c-2.16.66-3.3-1.54-4.27-3-2.93-4.5-5.15-9.16-2.92-14.8q.22-.55.41-1.1s7.3-5.05,12.7,6.47h0a6.58,6.58,0,0,0-1,.35c-3,1.28-3.39,4.33-3.55,7.45C580.74,528,581.68,530.37,579.52,531Z"
       transform="translate(-445.5 -121.26)"
       id="path44812" />
    <path
       class="cls-3"
       d="M576.12,228.27c-1.39-1.22-.28-2.8.12-4.25a10.9,10.9,0,0,1,5-6.63c6-3.43,10.74-9.32,18.25-10.08.68-.07,1.52-.4,1.42-1.25-.05-.44-.69-.85-1.15-1.16a10.63,10.63,0,0,0-6-1.55c-2.82,0-5.62-.1-8.43-.26-.81-.05-1.71-.44-1.72-1.46s.93-1.19,1.75-1.31c7.91-1.2,15.81-2.36,23.65.44a16.35,16.35,0,0,0,2,.52c4.77,1.08,5.05.9,6.16-3.79.89-3.76,2.38-4.63,6.3-4.39,5,.3,9.06,3.07,13.33,5.15,7.37,3.58,14.57,7.54,21.77,11.47,3.48,1.9,5.29,5.79,9.05,7.59,4.86,2.33,9.08,5.91,14.5,7.07h0a16.24,16.24,0,0,0,3,.38c3.38.1,6.11,4.68,5.4,8.23a29.07,29.07,0,0,1-9,15.51,3.32,3.32,0,0,1-1.84.95c-3.45.18-6.2,1.73-8.83,3.82a3.3,3.3,0,0,1-3.66.48c-1.45-.82-.81-2.26-.7-3.5a13,13,0,0,0,.27-2.77c-.19-1.53-.88-2.46-2.59-1.36a21.4,21.4,0,0,1-2.8,1.48c-3.37,1.53-4.36,1.13-5.12-2.44-.54-2.57-2-2.69-3.85-1.83-2.67,1.22-3.38,3.75-3.68,6.38a1.57,1.57,0,0,0,0,.49c-.16.2-2.89,3.68-2,5.23s8.64,6.19,9.7,9.81c0,0,1.94-2.13,2.36-6.61a7.57,7.57,0,0,1,1.31.72,12,12,0,0,1,4.86,7.18s2.8,1.06,3.9-2.68l5.76,3.89h0c-.4.49-.52,1.39-.26,2.9a46.86,46.86,0,0,1,.2,7c.06,2.11-.26,3.9-2.5,4.94-1.77.83-2.28,3-2.27,4.45,0,1.64,2.36,1.65,3.77,1.75,3.86.28,6.64,1.24,8.29,5.49,2,5.21,5.25,9.93,7.92,14.89s2.18,10.74,3.66,16a24.82,24.82,0,0,1,.9,8.36c-.06,1,.24,2.27-.9,2.83s-2.16-.37-3.16-1c-2-1.23-2.65-3-2.87-5.3a6.69,6.69,0,0,0-4.8-6c-2.55-.88-4.22.73-5.79,2.38a3.6,3.6,0,0,0-1.18,2.46h-.13s-6.39,17.32-13.65,26.16c.13-.62,3.87-18-2-22.17,0,0-3.13,19.91-23.47,28.44,0,0,11.54-11.38,1.29-31.43,0,0-6.55,19.06-19.07,25.31,0,0,4.84-23.75-2-36.27a24.2,24.2,0,0,1-2.29-5.92,29,29,0,0,1-.43-10.88l-.32-.05c-6.85,6.78-6.09,19.35-6.06,19.79h0a36.11,36.11,0,0,0-3.07,12.37,47.46,47.46,0,0,1-3.42-18h0s-5.72,8.25-5.73,15.36a115.65,115.65,0,0,1-1-43.82h0a24.71,24.71,0,0,0-6.07,16.79s-9.64-17.49-5.44-34.84c1.25-3.47,2.15-6.08,2.29-6.49a33.69,33.69,0,0,0-2.29,6.49c-2.21,6.13-5.56,14.93-7.94,19.06,0,0-.86-12.15-.11-20.54,0,0,0,0,0,0,0-.3.07-.6.09-.89,0-.05,0-.09,0-.15a73.52,73.52,0,0,0,0-10.35c0-.9-.26-2.07-1.33-2.25-.72-.13-1.13.31-1.47.84l-1.34-.4h0c-1.9,2.37-3,3.81-3,3.81-.65-.94-.29-2.47-.16-3.7,1-9.35,5.56-17.3,10.14-25.23.59-1,1.22-2,1.89-3.06C577.92,226.5,577.64,229.61,576.12,228.27Zm72.25-9.05s3.12-8.82-11.95-8.39C636.43,210.83,639.27,215.95,648.38,219.22Z"
       transform="translate(-445.5 -121.26)"
       id="path44814" />
    <path
       class="cls-3"
       d="M567.72,258.95s1.09-1.43,3-3.81h0l1.34.4c-.18.28-.34.59-.51.85-.07.09-.1.22-.18.31-.93,1-.61,3.66-2.71,2.93A1.82,1.82,0,0,1,567.72,258.95Z"
       transform="translate(-445.5 -121.26)"
       id="path44816" />
    <path
       class="cls-2"
       d="M563.93,516.22c-.1,1.32.55,3.11-1.35,3.53-1.61.37-2.51-1-3.27-2.23-3.31-5.17-3.58-10.69-2.3-16.36,0,0,8.35-5.74,12.86,2.22a9.49,9.49,0,0,1-4.77,7.27C563.1,511.88,564.1,514.29,563.93,516.22Z"
       transform="translate(-445.5 -121.26)"
       id="path44818" />
    <path
       class="cls-2"
       d="M553.79,478.78c1.84-6.85,4.68-8.18,11.87-7.74a30.46,30.46,0,0,1,7.25,1.44l-.17.54s0,2.21-6.49,7.56a8.89,8.89,0,0,0-1.66-1.49c-3.62-2.42-4.73-2.29-7,1.33-.72,1.16-1.31,3-3,2.37C552.77,482.1,553.4,480.23,553.79,478.78Z"
       transform="translate(-445.5 -121.26)"
       id="path44820" />
    <path
       class="cls-2"
       d="M553.76,409.7c.55,2.92,4.95,5,8.58,4.08,1.19-.31,2.61-1.45,3.51,0s-.55,2.63-1.44,3.62a7.29,7.29,0,0,1-6,2.43c-2.36-.09-4.59-.93-6.88-1.31-1.71-.28-3.53-2.14-5.3-1.32,0,0-4.28-11,7.63-9.63A5.63,5.63,0,0,0,553.76,409.7Z"
       transform="translate(-445.5 -121.26)"
       id="path44822" />
    <path
       class="cls-2"
       d="M542,443.22c-1.21,1.23-2.38,0-3.36-.74a10.08,10.08,0,0,1-3.51-4.34c-1.52-4.24-3.41-8.4-4.47-12.77l.5-.13s2.85-4.51,10.19-.55a5,5,0,0,0,.06,1.37,4.17,4.17,0,0,1-.64,3.39c-3.06,3.74-1.65,7.2.49,10.68C541.86,441.07,543.08,442.13,542,443.22Z"
       transform="translate(-445.5 -121.26)"
       id="path44824" />
    <path
       class="cls-2"
       d="M529.1,209.64c1-1.08,2.31-.24,3.17.46a49.63,49.63,0,0,1,9.86,11.32c3.45,5.27,4.35,10.14,1.66,15.18a37.3,37.3,0,0,1-10.23-8.33h-1.17c2.67-1.4,3.4-3.74,2.7-6.94-.77-3.48-3.06-6-5.16-8.69C529.22,211.76,528,210.8,529.1,209.64Z"
       transform="translate(-445.5 -121.26)"
       id="path44826" />
    <path
       class="cls-3"
       d="M771.22,336.37c1-.25,2.17-.86,2.82.38s-.44,2.17-1.36,2.87c-6.19,4.74-8.32,11.29-7.46,18.64,1.6,13.71-2.11,25.46-11.75,35.36a28.59,28.59,0,0,0-2.42,3c-.87,1.16-2.76,2.2-1.91,3.76.73,1.35,2.73,1.14,4.22,1.16,6.68.09,13.36.12,20,.79,5.43.55,8.92-3,12.1-6.52,6.32-7.06,6.19-15.89,7-24.71.73-8-3.35-13.76-6.45-20.26-8.26-17.27-9.15-34.61,1.89-51.09,4.08-6.08,9.79-10.95,15.71-15.37,2.61-1.95,4.09-4.26,3.86-7.74-.19-2.72-.37-5.1-3.25-6.4-1.08-.49-2.07-1.68-1.37-2.85.83-1.35,2.14-.32,3.11.17a10.55,10.55,0,0,1,5.82,8.67,26.13,26.13,0,0,0,.54,3.46c1.28,4.86,3.2,5.43,7.14,2.45,2.18-1.65,2.1-3.06.3-4.86-4.17-4.16-6.58-9-6-15.13a13.94,13.94,0,0,1,2-5.94c.44-.73,1-1.37,2-1a1.62,1.62,0,0,1,.91,1.75c-.07,1.76-.29,3.52-.32,5.27-.06,3.4,1.62,5.65,5,7.28-3.7-15.11,3.79-26.68,10.81-38.35a5.32,5.32,0,0,1,2.58-2.3c5.05-1.66,9.29-4.92,14.14-6.93,1.07-.44,2.25-1.31,3.23-.19s.18,2.44-.64,3.46c-4.8,5.95-5.46,12.82-4.19,20,1.08,6.09,9.37,12,15.53,11.42,3.64-.34,7.42-4.6,7.49-8.48,0-1-.67-2.32.84-2.62,1.19-.24,1.78.93,2.4,1.78,7.91,11,5.69,22-5.91,29-3,1.83-6.5,1.76-9.91,1.79-5.56,0-6.19.87-6.08,6.33.1,5.05-2.4,9.24-5.32,13.12-1.11,1.48-3,.88-4.64.92a.87.87,0,0,1-.9-.9c-.05-1,.73-1.41,1.43-1.82,2.24-1.3,3.94-2.88,4-5.75,0-2.11-.2-3.94-2.3-5.1-2.53-1.41-5.15-1.93-7.68-.38a31.08,31.08,0,0,1-6.75,2.93c-12.77,4.1-22.89,12.19-32.1,21.54-5.23,5.3-7.14,12.37-8.6,19.35-1.28,6.09,2.37,9.92,8.64,10,4.47.05,8.54-.95,11.71-4.53,1.41-1.6,3.64-3.91,5.52-2s-.46,3.87-2.07,5.55c-5.27,5.46-7.45,12.34-8.53,19.64-1.45,9.84.24,19.68.07,29.52-.07,4.16-.15,8.19-2.79,11.71-1.26,1.67-1,2.36,1.39,2.71,10.46,1.47,17.28-4.19,23.37-11.45a31.11,31.11,0,0,0,2.42-3.44c2.32-3.7,4.16-7.42.85-11.61-.63-.79-1.94-2-.7-3s2.06.47,2.83,1.23c3.28,3.21,3.93,7.71,1.88,12.51q-2,4.68-4,9.4a18,18,0,0,1-5.84,7.3c-13,10.25-28.08,13.84-44.32,14.21-11.44.26-22.68-1.07-34-2.48-6.38-.8-12.89-.43-19.2-2-4.89-1.23-9.78-2.45-14.69-3.57-1.38-.32-3.35-1.26-4,.71a3.87,3.87,0,0,0,2.08,4.46c1.63.92,3.39,1.6,5.09,2.41,4,1.9,4.18,3.55.64,6.05a15.58,15.58,0,0,0-1.43,1c-.73.67-2.07,1.21-1.25,2.47.58.9,1.78.67,2.59.21,4-2.36,7.18-.39,10.27,1.94,1.37,1,2.67,2.24,2.32,4s-2.23,1.25-3.51,1.57a6.53,6.53,0,0,0-1,.38c-.26,1.25.77,1.27,1.43,1.64,2.49,1.39,3.09,3.46,1.85,5.91-.61,1.21-1.13,2.27-.66,3.64s.3,3.16,2.07,3.25c1.54.09,1.28-1.71,1.7-2.71,1.63-3.92,5-5.49,8.45-3.92,1.83.82,2.3,1.89.75,3.46a9.91,9.91,0,0,0-1.78,2.12,2.09,2.09,0,0,0,.66,2.83c1.16.72,1.69-.48,2-1.27.94-2.18,2.94-2.94,4.84-3.82a2,2,0,0,1,2.56.51c.59.73.3,1.51,0,2.31-2.31,6-1.28,10.33,3.59,14.29,2,1.66,3,3.25,1,5.56-2.92,3.42-2.82,6.63-.22,10.46,2.3,3.4,1.37,8,2.84,11.84.42,1.09-.88,1.76-1.83,2.28-.58.32-1.48.49-1.33,1.38s1,1,1.65,1.12c1.63.37,3.08,1.09,2.59,3s-2.33,1.53-3.81,1.41c-5.61-.42-7.94,1.16-10.64,6.1s-6.1,9-11.23,11.66c-3,1.54-5.49,3.77-9.11,4.2-2.12.26-2.71,2.4-2.09,4.5a12.61,12.61,0,0,0-12.27,6.14,30.8,30.8,0,0,0-2.39-2.09c-1.25-1-2.58-3-4.07-2-1.83,1.25-3.46,3.38-3.06,5.94a19.14,19.14,0,0,1-.37,7.31c-.18.79-.31,1.83-.84,2.23-8.1-7.39-11.63-2.21-11.63-2.21l-.52,0a3.27,3.27,0,0,0-.45-1.28c-2.88-4.34-3.56-8.82-.75-14.13a7.19,7.19,0,0,0-4.12,2.91,11.65,11.65,0,0,1-5,4.33,7.52,7.52,0,0,0-1.63,1c-3.62-8.42-9.2-7.51-9.46-7.46a19.19,19.19,0,0,1,.87-3.17c.76-2.09,1.24-4.28,1.92-6.41a2.69,2.69,0,0,0-.93-3.4h0c4-11,1.43-13.91,1.43-13.91l-.33-.13c1.75-1.37,3.56-2.53,5.82-2.39,4.71.29,8.59-1.5,12.74-2.88,2.72-.9,5.1.14,7.17,1.85a55.47,55.47,0,0,1,6.5,5.89c1.43,1.65,3,1.71,3.6.15,1.56-3.74,5.18-5.65,7.19-9,1.1-1.82,1.47-3.36.55-5.22-5.51-11.08-11.27-21.67-23.75-26.91-7.07-3-14.39-5.24-21.55-7.92q-2.39-.88-4.76-1.86a46.78,46.78,0,0,1-6.28-3.12c-1.19-.72-1.89-.67-2.15.08a3.33,3.33,0,0,0-.1,1.31,17.42,17.42,0,0,0,.28,1.73c1.08,5.77,1.08,5.79,6.49,3.92a8.19,8.19,0,0,1,5.7.15,44.76,44.76,0,0,1,4.86,2.36,1.17,1.17,0,0,1,.63,1.49c-.53,1.15-1.71,1.18-2.73,1.15-3.4-.11-5.26,1.64-6,4.79-.33,1.51-.2,2.69,1.92,1.83a19.29,19.29,0,0,1,3.38-.95c3.83-.79,4.18-.36,4.42,3.48.17,2.64-.67,3.52-3.21,2.81-1.24-.35-2.52-.7-3.75.09-.73.46-1.25.84-.68,1.94,1.54,3,0,5.5-3.32,4.92-3.07-.55-3.6.33-3.38,3.2.27,3.52-2.85,5.21-6,3.5a14.72,14.72,0,0,0-2.41-1.37,1.74,1.74,0,0,0-2.37.91,1.84,1.84,0,0,0,.87,2.39c.77.52,2.89.66,2,1.66-1.14,1.34-2.82,3.81-4.68,3-4.21-1.85-7.49.42-11.09,1.49-.79.23-1.55.56-2.35.75-4.11,1-4.64,3.06-1.65,6.3.86.94,2.9,1.38,2,3.22-.85,1.66-2.55.84-3.83.61-3.57-.65-7.26-.47-10.71-1.84a2.42,2.42,0,0,0-3.42,1.52c-9.48-6.81-16.86,2.3-16.86,2.3l-1.69.11a4.72,4.72,0,0,0,.26.46l.57,1.31a3.54,3.54,0,0,0-1.63,2.53,10.4,10.4,0,0,1-8.25,8.11c-5.4-11.52-12.7-6.47-12.7-6.47a74.13,74.13,0,0,0,1.95-7.36c.2-.89,2.12-2.23,0-2.72-1.62-.38-4.36-1.14-4.78,1.37-4.51-8-12.86-2.22-12.86-2.22.11-.52.25-1,.39-1.57.44-1.58,1.1-3.1,1.56-4.68l.15-.49c1.66-5.32,4.51-9.06,11-8.41a3.81,3.81,0,0,0,2.08-.9c-2.94-.38-4.25-2.67-5.94-4.53,6.45-5.35,6.49-7.56,6.49-7.56l.17-.54c4.22,1.31,8.25,3.17,12.59,4.09,5,1,9.75,3.16,15.05,3,6.11-.22,9.86-4.4,14.1-7.82,10.8-8.7,7.5-16.76-1.13-27.06-3.72-4.43-7-9-8.07-14.87a28.19,28.19,0,0,0-2-7.08c-3.33-6.95-.23-13.06,2.31-19.17a15.31,15.31,0,0,1,8.27-8.23,9.78,9.78,0,0,0,2.83-2,7.69,7.69,0,0,1,5.49-2.52c4-.16,7.17-2.61,10-5.29.88-.83.88-1.47.49-2a3.43,3.43,0,0,0-1.39-.89,40.36,40.36,0,0,0-5-1.37c-4.63-1.18-7.11-5.18-10.53-7.94-.73-.59-1.44-1.2-2.18-1.78-2-1.6-4.31-3-6.66-1s-4.26,4.4-3.4,7.93c1.13,4.67.41,5.44-4.46,5-5.66-.55-6.75.29-6.17,6.08.36,3.5-1.2,4-4,4a15.43,15.43,0,0,1-5.47-1.16c-1.15-.45-2.42-1.41-3.56-.18s-.77,2.62-.47,4c.24,1.13,1.91,2.33.28,3.39a3.78,3.78,0,0,1-4.63-.39c-4.28-4.4-9.25-2-13.84-1.48-3,.31-6.69,5.93-7.51,9.83-11.9-1.38-7.63,9.63-7.63,9.63a4,4,0,0,0-1.68,1.78c-1.09,1.94-3,3.44-3.19,5.73-7.34-4-10.19.55-10.19.55l-.5.13a26.49,26.49,0,0,1-.83-6.66c0-2.07-.23-3.68-1.51-4.22a4.51,4.51,0,0,0-2.94.09c-1.67.47-3.49.44-5.18.87,1.37-12-2-15.2-2-15.2.88-.6,2.6-.75,2-2.38a1.28,1.28,0,0,0-.75-.78c2-7.25.09-10.61-.47-11.39.91-.3,1.83-.58,2.76-.84,6.4-1.84,12,.67,17.1,4.32,3.13,2.23,5.73,2,7.58-1.36q7-12.77,13.72-25.73c4.53-8.73,9-17.5,13.93-26,.94-1.62,1.72-3.33,2.64-5,2.9-5.17,2.94-5.18-1-9.32-.92-1-1.86-2.59-3.45-1.78-1.42.73-1.72,2.44-1.78,4,0,1,1.31,2.36-.48,3-1.37.47-2.44-.35-3.43-1.28-3.24-3.07-3.81-7.14-4.2-11.24-.19-2-.2-4-1.17-5.81-.39-.72-.85-1.54-1.83-1.39s-.91,1.18-1,2c-.18,1.42.45,3.39-1.7,3.71s-3.17-1.19-4.08-2.77a12,12,0,0,1-1.44-6.45,4,4,0,0,0-2.92-4.29,3.48,3.48,0,0,0-4.28,1.5c-1.78,2.44-3.77,1.73-4.57-.45-1.23-3.39.11-16-1.19-12.88-4.27,10.24-9.14-5.5-7.26-11.27,1.71-5.25-1.93-10-7.3-9.53,0-15.05-11.85-7.35-12.07-7.87h0c-.38-3-2.54-6.36-5-7.24a25.74,25.74,0,0,0,2.34-14c5.21-1,5-1,4.56-6.42a30.74,30.74,0,0,0-.32-4.6s8.71-3.06,13.1-2.68a17.2,17.2,0,0,1,1,1.54c.79,1.31,1.23,4.14,3.58,3.4a9.45,9.45,0,0,0,1.59-.65h1.17a37.3,37.3,0,0,0,10.23,8.33,18.94,18.94,0,0,1-2.08,3.1c-3.09,3.81-1.89,8.35,1.8,11.43,8.84,7.36,18.7,13.27,28.11,19.82,1.91,1.33,2.64.76,3-1.35.06-.41.12-.82.16-1.23-.75,8.39.11,20.54.11,20.54,2.37-4.13,5.73-12.93,7.94-19.06-4.21,17.36,5.44,34.84,5.44,34.84a24.71,24.71,0,0,1,6.07-16.79h0a115.65,115.65,0,0,0,1,43.82c0-7.11,5.73-15.36,5.73-15.36h0a47.46,47.46,0,0,0,3.42,18A36.11,36.11,0,0,1,607.56,322h0a24.71,24.71,0,0,1,6.43-8.76l.38-.09a24.2,24.2,0,0,0,2.29,5.92c6.83,12.52,2,36.27,2,36.27,12.52-6.26,19.07-25.31,19.07-25.31,10.25,20.05-1.29,31.43-1.29,31.43C656.76,352.91,659.9,333,659.9,333c5.86,4.19,2.12,21.55,2,22.17,7.25-8.83,13.65-26.16,13.65-26.16h.13a4.14,4.14,0,0,0,.77,2.24c4,6.21,5.3,13.49,7.83,20.28,1.55,4.16.67,8.82,2.58,13.25a35.28,35.28,0,0,0,12,15.23c3.75,2.7,7.21,5.56,9.3,9.83a4.57,4.57,0,0,0,4.51,2.8c3.17-.1,6.33-.12,9.5-.12a5.81,5.81,0,0,0,4.79-2.47c3.54-4.45,2.89-13.35-.72-17.62-5.75-6.8-13.28-11.44-19.82-17.27-4.93-4.42-9.77-16.41-3.19-23.83,2.23-2.51,10.53-3.94,13-2a1.15,1.15,0,0,1,.44.85,1.22,1.22,0,0,1-1.22,1.06c-1.75.11-3.51.15-5.27.17-2.82,0-4.3,1.48-4.59,4.27-.49,4.71.58,8.82,4.22,12.11,5.64,5.11,11.06,10.39,17.54,14.6,7.91,5.15,10.92,13.76,13.6,22.36.37,1.17,0,2.63,1.43,3.67,4-6.16,3.58-12.54,1.5-19.08-2-6.11-5.39-11.45-9-16.67-2.2-3.2-4.2-6.49-6.08-9.86-7.11-12.68-6.66-25.51-.94-38.48.62-1.4,1.25-2.78,1.86-4.18,4-9.46,11-16,20.18-20.43,2.76-1.32,4.67-3.58,6.49-5.82,3.64-4.51,8-8.6,9-14.82.41-2.53-.18-4.89-.28-7.32-.05-1.26-.84-3.21,1.17-3.51,1.71-.26,1.61,1.6,2,2.78a30.47,30.47,0,0,0,5.29,9.86c2.45,2.88,5,2.69,7.1-.36,4.28-6.2,4.69-13.18,3.76-20.27-.6-4.59-.8-9.36-3.55-13.47a4.66,4.66,0,0,0-5.38-2.23c-3.24.68-3.91,2.7-2,6.14.52,1,1.83,2,.55,3.06s-2.12-.38-3-1.11c-4.43-3.65-8.49-7.92-13.36-10.82a78.33,78.33,0,0,1-13.85-11.17c-5.35-5.11-8.44-11.08-8.63-18.53-.07-2.65,1.76-4.06,3.49-5.33,1.37-1,2.12.07,2.12,1.56,0,1.88-.1,3.75-.07,5.63.1,5.95,1.92,8.43,7.59,10.35,1.33.45,2.72.73,4.09,1.07s2.61.94,3.62-.26c1.15-1.37.69-3-.15-4.27a29.74,29.74,0,0,1-3.5-9.15c-1.86-7.34,1.68-14.21,7.34-18a28.39,28.39,0,0,1,21.2-4.35c.83.15,1.74.25,2,1.14.35,1.18-.61,1.69-1.46,2.07a17.17,17.17,0,0,0-5.94,4.8,9.82,9.82,0,0,0-2,9.86c3.72,12,17.39,20.57,29.77,13.24,8.8-5.21,8.78-17.79.06-23.33-1.66-1.06-5.18-1.48-4.39-3.75.9-2.62,3.94-.49,5.94-.33,6.72.53,11.83,3.88,15.69,9.45,2,2.86,5.06,4.95,6,8.55.36,1.48.92,3,.38,4.51-2,5.37-3.56,10.88-7.45,15.36a12,12,0,0,1-6.15,3.77c-4,1.1-7.37,2.89-9.12,7-1.89,4.42-1.06,6.94,3.49,8.5,3.44,1.19,6.26,2.75,6.66,6.78a10.36,10.36,0,0,1-.16,3.12c-.26,1.17-.85,2.38-2.28,2.29-1.58-.11-1.06-1.56-1.17-2.51-.47-4-3.76-5.62-7.22-3.33a11.88,11.88,0,0,0-4.55,6c-2.55,6.72-3.64,14.09-8.44,19.89s-10,11.69-16.62,15.91a7.62,7.62,0,0,1-2.87,1.26c-5.68.82-10.54,3.71-15.62,6.08-11.83,5.5-18.93,14.2-19.06,27.77,0,3.84-1.2,7.7.45,11.46.37.83.49,2,1.61,2.08s1.36-1.15,1.66-2a14.2,14.2,0,0,1,8-8.43,13.55,13.55,0,0,0,5.76-4.51c2.61-3.68,2.5-6.77-.28-10.21-.62-.77-1.89-1.5-.8-2.63.81-.84,2-.5,3-.08,4.91,2.07,7.25,8.21,5.72,14.41-1.47,6-5.53,10.55-8.28,15.83-1.89,3.64-3.64,7.33-5.22,11.12-2.24,5.33-1.39,10.31.9,15.28,1.13,2.45,2.27,4.89,3.46,7.31.41.84,1,1.78,2.08,1.56s1.4-1.23,1.45-2.18c.12-2.35.18-4.69.2-7C756.13,347.11,763,338.4,771.22,336.37Z"
       transform="translate(-445.5 -121.26)"
       id="path44828" />
    <path
       class="cls-2"
       d="M506,218.46a7.06,7.06,0,0,1,4-1.16c6.29.35,12.21,1.36,16.21,6.68-4.39-.38-13.1,2.68-13.1,2.68a4.87,4.87,0,0,0-2.06-2.94,11.14,11.14,0,0,0-4.55-1.61c-.82-.17-1.64-.46-1.84-1.41C504.4,219.59,505.12,219,506,218.46Z"
       transform="translate(-445.5 -121.26)"
       id="path44830" />
    <path
       class="cls-2"
       d="M519,385.71c.55.79,2.43,4.15.47,11.39a4.33,4.33,0,0,0-2.06.06c-3.33.56-6.74.61-9.81,2.48-2.36,1.44-3.36.13-3.58-2.32-.38-4.32,3-6.07,5.79-7.65A47.75,47.75,0,0,1,519,385.71Z"
       transform="translate(-445.5 -121.26)"
       id="path44832" />
    <path
       class="cls-2"
       d="M518.25,400.26s3.35,3.17,2,15.2c-2.87.73-4.74,2.5-5,5.63-.12,1.6-.31,3.11-2.38,3.28s-3-.95-3.76-2.56c-3.09-6.49-.09-16,6.36-20C516.37,401.22,517.38,400.85,518.25,400.26Z"
       transform="translate(-445.5 -121.26)"
       id="path44834" />
    <path
       class="cls-2"
       d="M511.51,259c.21.52,12.11-7.19,12.07,7.87-2.12.18-3.88.94-4.39,3.32a6.26,6.26,0,0,1-.55,1.66c-.84,1.6-1.2,4-3.59,3.77s-2.34-2.46-2.65-4.31a18.61,18.61,0,0,0-1.2-4,6.41,6.41,0,0,1,0-5.41A5.47,5.47,0,0,0,511.51,259Z"
       transform="translate(-445.5 -121.26)"
       id="path44836" />
    <path
       class="cls-2"
       d="M496.85,256.86c-1.63-.17-2-1.3-2.18-2.71-.9-8.58,1.89-15.2,11.76-16a19.77,19.77,0,0,0,2.42-.47,25.74,25.74,0,0,1-2.34,14c-3.44-1.22-5.45-.36-6.81,3.1C499.15,256.18,498.41,257,496.85,256.86Z"
       transform="translate(-445.5 -121.26)"
       id="path44838" />
    <path
       class="cls-4"
       d="M674.64,267.73c-.4.49-.52,1.39-.26,2.9a46.86,46.86,0,0,1,.2,7c.06,2.11-.26,3.9-2.5,4.94-1.77.83-2.28,3-2.27,4.45,0,1.64,2.36,1.65,3.77,1.75,3.86.28,6.64,1.24,8.29,5.49,2,5.21,5.25,9.93,7.92,14.89s2.18,10.74,3.66,16a24.82,24.82,0,0,1,.9,8.36c-.06,1,.24,2.27-.9,2.83s-2.16-.37-3.16-1c-2-1.23-2.65-3-2.87-5.3a6.69,6.69,0,0,0-4.8-6c-2.55-.88-4.22.73-5.79,2.38a3.6,3.6,0,0,0-1.18,2.46,4.14,4.14,0,0,0,.77,2.24c4,6.21,5.3,13.49,7.83,20.28,1.55,4.16.67,8.82,2.58,13.25a35.28,35.28,0,0,0,12,15.23c3.75,2.7,7.21,5.56,9.3,9.83a4.57,4.57,0,0,0,4.51,2.8c3.17-.1,6.33-.12,9.5-.12a5.81,5.81,0,0,0,4.79-2.47c3.54-4.45,2.89-13.35-.72-17.62-5.75-6.8-13.28-11.44-19.82-17.27-4.93-4.42-9.77-16.41-3.19-23.83,2.23-2.51,10.53-3.94,13-2a1.15,1.15,0,0,1,.44.85,1.22,1.22,0,0,1-1.22,1.06c-1.75.11-3.51.15-5.27.17-2.82,0-4.3,1.48-4.59,4.27-.49,4.71.58,8.82,4.22,12.11,5.64,5.11,11.06,10.39,17.54,14.6,7.91,5.15,10.92,13.76,13.6,22.36.37,1.17,0,2.63,1.43,3.67,4-6.16,3.58-12.54,1.5-19.08-2-6.11-5.39-11.45-9-16.67-2.2-3.2-4.2-6.49-6.08-9.86-7.11-12.68-6.66-25.51-.94-38.48.62-1.4,1.25-2.78,1.86-4.18,4-9.46,11-16,20.18-20.43,2.76-1.32,4.67-3.58,6.49-5.82,3.64-4.51,8-8.6,9-14.82.41-2.53-.18-4.89-.28-7.32-.05-1.26-.84-3.21,1.17-3.51,1.71-.26,1.61,1.6,2,2.78a30.47,30.47,0,0,0,5.29,9.86c2.45,2.88,5,2.69,7.1-.36,4.28-6.2,4.69-13.18,3.76-20.27-.6-4.59-.8-9.36-3.55-13.47a4.66,4.66,0,0,0-5.38-2.23c-3.24.68-3.91,2.7-2,6.14.52,1,1.83,2,.55,3.06s-2.12-.38-3-1.11c-4.43-3.65-8.49-7.92-13.36-10.82a78.33,78.33,0,0,1-13.85-11.17c-5.35-5.11-8.44-11.08-8.63-18.53-.07-2.65,1.76-4.06,3.49-5.33,1.37-1,2.12.07,2.12,1.56,0,1.88-.1,3.75-.07,5.63.1,5.95,1.92,8.43,7.59,10.35,1.33.45,2.72.73,4.09,1.07s2.61.94,3.62-.26c1.15-1.37.69-3-.15-4.27a29.74,29.74,0,0,1-3.5-9.15c-1.86-7.34,1.68-14.21,7.34-18a28.39,28.39,0,0,1,21.2-4.35c.83.15,1.74.25,2,1.14.35,1.18-.61,1.69-1.46,2.07a17.17,17.17,0,0,0-5.94,4.8,9.82,9.82,0,0,0-2,9.86c3.72,12,17.39,20.57,29.77,13.24,8.8-5.21,8.78-17.79.06-23.33-1.66-1.06-5.18-1.48-4.39-3.75.9-2.62,3.94-.49,5.94-.33,6.72.53,11.83,3.88,15.69,9.45,2,2.86,5.06,4.95,6,8.55.36,1.48.92,3,.38,4.51-2,5.37-3.56,10.88-7.45,15.36a12,12,0,0,1-6.15,3.77c-4,1.1-7.37,2.89-9.12,7-1.89,4.42-1.06,6.94,3.49,8.5,3.44,1.19,6.26,2.75,6.66,6.78a10.36,10.36,0,0,1-.16,3.12c-.26,1.17-.85,2.38-2.28,2.29-1.58-.11-1.06-1.56-1.17-2.51-.47-4-3.76-5.62-7.22-3.33a11.88,11.88,0,0,0-4.55,6c-2.55,6.72-3.64,14.09-8.44,19.89s-10,11.69-16.62,15.91a7.62,7.62,0,0,1-2.87,1.26c-5.68.82-10.54,3.71-15.62,6.08-11.83,5.5-18.93,14.2-19.06,27.77,0,3.84-1.2,7.7.45,11.46.37.83.49,2,1.61,2.08s1.36-1.15,1.66-2a14.2,14.2,0,0,1,8-8.43,13.55,13.55,0,0,0,5.76-4.51c2.61-3.68,2.5-6.77-.28-10.21-.62-.77-1.89-1.5-.8-2.63.81-.84,2-.5,3-.08,4.91,2.07,7.25,8.21,5.72,14.41-1.47,6-5.53,10.55-8.28,15.83-1.89,3.64-3.64,7.33-5.22,11.12-2.24,5.33-1.39,10.31.9,15.28,1.13,2.45,2.27,4.89,3.46,7.31.41.84,1,1.78,2.08,1.56s1.4-1.23,1.45-2.18c.12-2.35.18-4.69.2-7,.09-8.48,7-17.2,15.17-19.23,1-.25,2.17-.86,2.82.38s-.44,2.17-1.36,2.87c-6.19,4.74-8.32,11.29-7.46,18.64,1.6,13.71-2.11,25.46-11.75,35.36a28.59,28.59,0,0,0-2.42,3c-.87,1.16-2.76,2.2-1.91,3.76.73,1.35,2.73,1.14,4.22,1.16,6.68.09,13.36.12,20,.79,5.43.55,8.92-3,12.1-6.52,6.32-7.06,6.19-15.89,7-24.71.73-8-3.35-13.76-6.45-20.26-8.26-17.27-9.15-34.61,1.89-51.09,4.08-6.08,9.79-10.95,15.71-15.37,2.61-1.95,4.09-4.26,3.86-7.74-.19-2.72-.37-5.1-3.25-6.4-1.08-.49-2.07-1.68-1.37-2.85.83-1.35,2.14-.32,3.11.17a10.55,10.55,0,0,1,5.82,8.67,26.13,26.13,0,0,0,.54,3.46c1.28,4.86,3.2,5.43,7.14,2.45,2.18-1.65,2.1-3.06.3-4.86-4.17-4.16-6.58-9-6-15.13a13.94,13.94,0,0,1,2-5.94c.44-.73,1-1.37,2-1a1.62,1.62,0,0,1,.91,1.75c-.07,1.76-.29,3.52-.32,5.27-.06,3.4,1.62,5.65,5,7.28-3.7-15.11,3.79-26.68,10.81-38.35a5.32,5.32,0,0,1,2.58-2.3c5.05-1.66,9.29-4.92,14.14-6.93,1.07-.44,2.25-1.31,3.23-.19s.18,2.44-.64,3.46c-4.8,5.95-5.46,12.82-4.19,20,1.08,6.09,9.37,12,15.53,11.42,3.64-.34,7.42-4.6,7.49-8.48,0-1-.67-2.32.84-2.62,1.19-.24,1.78.93,2.4,1.78,7.91,11,5.69,22-5.91,29-3,1.83-6.5,1.76-9.91,1.79-5.56,0-6.19.87-6.08,6.33.1,5.05-2.4,9.24-5.32,13.12-1.11,1.48-3,.88-4.64.92a.87.87,0,0,1-.9-.9c-.05-1,.73-1.41,1.43-1.82,2.24-1.3,3.94-2.88,4-5.75,0-2.11-.2-3.94-2.3-5.1-2.53-1.41-5.15-1.93-7.68-.38a31.08,31.08,0,0,1-6.75,2.93c-12.77,4.1-22.89,12.19-32.1,21.54-5.23,5.3-7.14,12.37-8.6,19.35-1.28,6.09,2.37,9.92,8.64,10,4.47.05,8.54-.95,11.71-4.53,1.41-1.6,3.64-3.91,5.52-2s-.46,3.87-2.07,5.55c-5.27,5.46-7.45,12.34-8.53,19.64-1.45,9.84.24,19.68.07,29.52-.07,4.16-.15,8.19-2.79,11.71-1.26,1.67-1,2.36,1.39,2.71,10.46,1.47,17.28-4.19,23.37-11.45a31.11,31.11,0,0,0,2.42-3.44c2.32-3.7,4.16-7.42.85-11.61-.63-.79-1.94-2-.7-3s2.06.47,2.83,1.23c3.28,3.21,3.93,7.71,1.88,12.51q-2,4.68-4,9.4a18,18,0,0,1-5.84,7.3c-13,10.25-28.08,13.84-44.32,14.21-11.44.26-22.68-1.07-34-2.48-6.38-.8-12.89-.43-19.2-2-4.89-1.23-9.78-2.45-14.69-3.57-1.38-.32-3.35-1.26-4,.71a3.87,3.87,0,0,0,2.08,4.46c1.63.92,3.39,1.6,5.09,2.41,4,1.9,4.18,3.55.64,6.05a15.58,15.58,0,0,0-1.43,1c-.73.67-2.07,1.21-1.25,2.47.58.9,1.78.67,2.59.21,4-2.36,7.18-.39,10.27,1.94,1.37,1,2.67,2.24,2.32,4s-2.23,1.25-3.51,1.57a6.53,6.53,0,0,0-1,.38c-.26,1.25.77,1.27,1.43,1.64,2.49,1.39,3.09,3.46,1.85,5.91-.61,1.21-1.13,2.27-.66,3.64s.3,3.16,2.07,3.25c1.54.09,1.28-1.71,1.7-2.71,1.63-3.92,5-5.49,8.45-3.92,1.83.82,2.3,1.89.75,3.46a9.91,9.91,0,0,0-1.78,2.12,2.09,2.09,0,0,0,.66,2.83c1.16.72,1.69-.48,2-1.27.94-2.18,2.94-2.94,4.84-3.82a2,2,0,0,1,2.56.51c.59.73.3,1.51,0,2.31-2.31,6-1.28,10.33,3.59,14.29,2,1.66,3,3.25,1,5.56-2.92,3.42-2.82,6.63-.22,10.46,2.3,3.4,1.37,8,2.84,11.84.42,1.09-.88,1.76-1.83,2.28-.58.32-1.48.49-1.33,1.38s1,1,1.65,1.12c1.63.37,3.08,1.09,2.59,3s-2.33,1.53-3.81,1.41c-5.61-.42-7.94,1.16-10.64,6.1s-6.1,9-11.23,11.66c-3,1.54-5.49,3.77-9.11,4.2-2.12.26-2.71,2.4-2.09,4.5a13.38,13.38,0,0,0,7,8.38c1.07.54,2.32.81,2.06,2.37-.23,1.36-1.31,1.77-2.52,2.09-7.35,2-13-1.09-18.06-6l-.76-.73a30.8,30.8,0,0,0-2.39-2.09c-1.25-1-2.58-3-4.07-2-1.83,1.25-3.46,3.38-3.06,5.94a19.14,19.14,0,0,1-.37,7.31c-.18.79-.31,1.83-.84,2.23-3.11,2.29-2.25,4.33,0,6.64,3,3.12-1,3.35-2.1,4.76h-.71a44.65,44.65,0,0,0-3.73-2.64,10.37,10.37,0,0,1-5.5-9.52,9.28,9.28,0,0,0-.11-1.44,3.27,3.27,0,0,0-.45-1.28c-2.88-4.34-3.56-8.82-.75-14.13a7.19,7.19,0,0,0-4.12,2.91,11.65,11.65,0,0,1-5,4.33,7.52,7.52,0,0,0-1.63,1c-1.83,1.54-2.21,3.67-1.57,6.27.2.79.51,1.57.63,2.37.21,1.42,1.89,3.19.24,4.16s-3-1-3.81-2.28c-3.82-5.55-6.21-11.41-5-18"
       transform="translate(-445.5 -121.26)"
       id="path44840" />
    <path
       class="cls-4"
       d="M682.09,224.37a16.24,16.24,0,0,0,3,.38c3.38.1,6.11,4.68,5.4,8.23a29.07,29.07,0,0,1-9,15.51,3.32,3.32,0,0,1-1.84.95c-3.45.18-6.2,1.73-8.83,3.82a3.3,3.3,0,0,1-3.66.48c-1.45-.82-.81-2.26-.7-3.5a13,13,0,0,0,.27-2.77c-.19-1.53-.88-2.46-2.59-1.36a21.4,21.4,0,0,1-2.8,1.48c-3.37,1.53-4.36,1.13-5.12-2.44-.54-2.57-2-2.69-3.85-1.83-2.67,1.22-3.38,3.75-3.68,6.38a1.57,1.57,0,0,0,0,.49"
       transform="translate(-445.5 -121.26)"
       id="path44842" />
    <path
       class="cls-4"
       d="M574.84,267.3a73.52,73.52,0,0,0,0-10.35c0-.9-.26-2.07-1.33-2.25-.72-.13-1.13.31-1.47.84-.18.28-.34.59-.51.85-.07.09-.1.22-.18.31-.93,1-.61,3.66-2.71,2.93a1.82,1.82,0,0,1-.94-.68c-.65-.94-.29-2.47-.16-3.7,1-9.35,5.56-17.3,10.14-25.23.59-1,1.22-2,1.89-3.06-1.67-.45-2,2.65-3.47,1.31s-.28-2.8.12-4.25a10.9,10.9,0,0,1,5-6.63c6-3.43,10.74-9.32,18.25-10.08.68-.07,1.52-.4,1.42-1.25-.05-.44-.69-.85-1.15-1.16a10.63,10.63,0,0,0-6-1.55c-2.82,0-5.62-.1-8.43-.26-.81-.05-1.71-.44-1.72-1.46s.93-1.19,1.75-1.31c7.91-1.2,15.81-2.36,23.65.44a16.35,16.35,0,0,0,2,.52c4.77,1.08,5.05.9,6.16-3.79.89-3.76,2.38-4.63,6.3-4.39,5,.3,9.06,3.07,13.33,5.15,7.37,3.58,14.57,7.54,21.77,11.47,3.48,1.9,5.29,5.79,9.05,7.59,4.86,2.33,9.08,5.91,14.5,7.07"
       transform="translate(-445.5 -121.26)"
       id="path44844" />
    <path
       class="cls-4"
       d="M574.73,268.34c0-.3.07-.6.09-.89"
       transform="translate(-445.5 -121.26)"
       id="path44846" />
    <path
       class="cls-4"
       d="M511.51,258.95c-.38-3-2.54-6.36-5-7.24-3.44-1.22-5.45-.36-6.81,3.1-.55,1.37-1.28,2.21-2.84,2s-2-1.3-2.18-2.71c-.9-8.58,1.89-15.2,11.76-16a19.77,19.77,0,0,0,2.42-.47c5.21-1,5-1,4.56-6.42a30.74,30.74,0,0,0-.32-4.6,4.87,4.87,0,0,0-2.06-2.94,11.14,11.14,0,0,0-4.55-1.61c-.82-.17-1.64-.46-1.84-1.41-.24-1.11.49-1.73,1.33-2.24a7.06,7.06,0,0,1,4-1.16c6.29.35,12.21,1.36,16.21,6.68a17.2,17.2,0,0,1,1,1.54c.79,1.31,1.23,4.14,3.58,3.4a9.45,9.45,0,0,0,1.59-.65c2.67-1.4,3.4-3.74,2.7-6.94-.77-3.48-3.06-6-5.16-8.69-.7-.89-1.93-1.84-.82-3s2.31-.24,3.17.46a49.63,49.63,0,0,1,9.86,11.32c3.45,5.27,4.35,10.14,1.66,15.18a18.94,18.94,0,0,1-2.08,3.1c-3.09,3.81-1.89,8.35,1.8,11.43,8.84,7.36,18.7,13.27,28.11,19.82,1.91,1.33,2.64.76,3-1.35.06-.41.12-.82.16-1.23"
       transform="translate(-445.5 -121.26)"
       id="path44848" />
    <path
       class="cls-4"
       d="M664.07,525.74a19.19,19.19,0,0,1,.87-3.17c.76-2.09,1.24-4.28,1.92-6.41a2.69,2.69,0,0,0-.93-3.4h0c-1.39-1-2.53-.76-3.8.24a19.37,19.37,0,0,0-3.89,3.53c-.9,1.23-2.13,2-3.64,1.26s-.84-2.12-.55-3.16c1.4-5.16,3.25-10,8.52-12.66a30.18,30.18,0,0,0,4.46-3.25c1.75-1.37,3.56-2.53,5.82-2.39,4.71.29,8.59-1.5,12.74-2.88,2.72-.9,5.1.14,7.17,1.85a55.47,55.47,0,0,1,6.5,5.89c1.43,1.65,3,1.71,3.6.15,1.56-3.74,5.18-5.65,7.19-9,1.1-1.82,1.47-3.36.55-5.22-5.51-11.08-11.27-21.67-23.75-26.91-7.07-3-14.39-5.24-21.55-7.92q-2.39-.88-4.76-1.86a46.78,46.78,0,0,1-6.28-3.12c-1.19-.72-1.89-.67-2.15.08a3.33,3.33,0,0,0-.1,1.31,17.42,17.42,0,0,0,.28,1.73c1.08,5.77,1.08,5.79,6.49,3.92a8.19,8.19,0,0,1,5.7.15,44.76,44.76,0,0,1,4.86,2.36,1.17,1.17,0,0,1,.63,1.49c-.53,1.15-1.71,1.18-2.73,1.15-3.4-.11-5.26,1.64-6,4.79-.33,1.51-.2,2.69,1.92,1.83a19.29,19.29,0,0,1,3.38-.95c3.83-.79,4.18-.36,4.42,3.48.17,2.64-.67,3.52-3.21,2.81-1.24-.35-2.52-.7-3.75.09-.73.46-1.25.84-.68,1.94,1.54,3,0,5.5-3.32,4.92-3.07-.55-3.6.33-3.38,3.2.27,3.52-2.85,5.21-6,3.5a14.72,14.72,0,0,0-2.41-1.37,1.74,1.74,0,0,0-2.37.91,1.84,1.84,0,0,0,.87,2.39c.77.52,2.89.66,2,1.66-1.14,1.34-2.82,3.81-4.68,3-4.21-1.85-7.49.42-11.09,1.49-.79.23-1.55.56-2.35.75-4.11,1-4.64,3.06-1.65,6.3.86.94,2.9,1.38,2,3.22-.85,1.66-2.55.84-3.83.61-3.57-.65-7.26-.47-10.71-1.84a2.42,2.42,0,0,0-3.42,1.52c-1.18,2.88-2.08,5.79.27,8.6.52.62,1.13,1.42.58,2.21-.68,1-1.77.56-2.56.15-4.16-2.14-9-2.88-12.74-5.85-1.3-1-2.41-1.34-3.27-.94a3.54,3.54,0,0,0-1.63,2.53,10.4,10.4,0,0,1-8.25,8.11h0a6.58,6.58,0,0,0-1,.35c-3,1.28-3.39,4.33-3.55,7.45-.09,1.63.86,4-1.31,4.65s-3.3-1.54-4.27-3c-2.93-4.5-5.15-9.16-2.92-14.8q.22-.55.41-1.1a74.13,74.13,0,0,0,1.95-7.36c.2-.89,2.12-2.23,0-2.72-1.62-.38-4.36-1.14-4.78,1.37a9.49,9.49,0,0,1-4.77,7.27c-2,1.22-1,3.64-1.18,5.56-.1,1.32.55,3.11-1.35,3.53-1.61.37-2.51-1-3.27-2.23-3.31-5.17-3.58-10.69-2.3-16.36.11-.52.25-1,.39-1.57.44-1.58,1.1-3.1,1.56-4.68l.15-.49c1.66-5.32,4.51-9.06,11-8.41a3.81,3.81,0,0,0,2.08-.9c-2.94-.38-4.25-2.67-5.94-4.53a8.89,8.89,0,0,0-1.66-1.49c-3.62-2.42-4.73-2.29-7,1.33-.72,1.16-1.31,3-3,2.37-1.85-.69-1.22-2.56-.84-4,1.84-6.85,4.68-8.18,11.87-7.74a30.46,30.46,0,0,1,7.25,1.44c4.22,1.31,8.25,3.17,12.59,4.09,5,1,9.75,3.16,15.05,3,6.11-.22,9.86-4.4,14.1-7.82,10.8-8.7,7.5-16.76-1.13-27.06-3.72-4.43-7-9-8.07-14.87a28.19,28.19,0,0,0-2-7.08c-3.33-6.95-.23-13.06,2.31-19.17a15.31,15.31,0,0,1,8.27-8.23,9.78,9.78,0,0,0,2.83-2,7.69,7.69,0,0,1,5.49-2.52c4-.16,7.17-2.61,10-5.29.88-.83.88-1.47.49-2a3.43,3.43,0,0,0-1.39-.89,40.36,40.36,0,0,0-5-1.37c-4.63-1.18-7.11-5.18-10.53-7.94-.73-.59-1.44-1.2-2.18-1.78-2-1.6-4.31-3-6.66-1s-4.26,4.4-3.4,7.93c1.13,4.67.41,5.44-4.46,5-5.66-.55-6.75.29-6.17,6.08.36,3.5-1.2,4-4,4a15.43,15.43,0,0,1-5.47-1.16c-1.15-.45-2.42-1.41-3.56-.18s-.77,2.62-.47,4c.24,1.13,1.91,2.33.28,3.39a3.78,3.78,0,0,1-4.63-.39c-4.28-4.4-9.25-2-13.84-1.48-3,.31-6.69,5.93-7.51,9.83a5.63,5.63,0,0,0-.1,2.17c.55,2.92,4.95,5,8.58,4.08,1.19-.31,2.61-1.45,3.51,0s-.55,2.63-1.44,3.62a7.29,7.29,0,0,1-6,2.43c-2.36-.09-4.59-.93-6.88-1.31-1.71-.28-3.53-2.14-5.3-1.32a4,4,0,0,0-1.68,1.78c-1.09,1.94-3,3.44-3.19,5.73a5,5,0,0,0,.06,1.37,4.17,4.17,0,0,1-.64,3.39c-3.06,3.74-1.65,7.2.49,10.68.59,1,1.81,2,.74,3.11s-2.38,0-3.36-.74a10.08,10.08,0,0,1-3.51-4.34c-1.52-4.24-3.41-8.4-4.47-12.77a26.49,26.49,0,0,1-.83-6.66c0-2.07-.23-3.68-1.51-4.22a4.51,4.51,0,0,0-2.94.09c-1.67.47-3.49.44-5.18.87-2.87.73-4.74,2.5-5,5.63-.12,1.6-.31,3.11-2.38,3.28s-3-.95-3.76-2.56c-3.09-6.49-.09-16,6.36-20,.9-.55,1.91-.93,2.77-1.52s2.6-.75,2-2.38a1.28,1.28,0,0,0-.75-.78,4.33,4.33,0,0,0-2.06.06c-3.33.56-6.74.61-9.81,2.48-2.36,1.44-3.36.13-3.58-2.32-.38-4.32,3-6.07,5.79-7.65a47.75,47.75,0,0,1,9.18-4c.91-.3,1.83-.58,2.76-.84,6.4-1.84,12,.67,17.1,4.32,3.13,2.23,5.73,2,7.58-1.36q7-12.77,13.72-25.73c4.53-8.73,9-17.5,13.93-26,.94-1.62,1.72-3.33,2.64-5,2.9-5.17,2.94-5.18-1-9.32-.92-1-1.86-2.59-3.45-1.78-1.42.73-1.72,2.44-1.78,4,0,1,1.31,2.36-.48,3-1.37.47-2.44-.35-3.43-1.28-3.24-3.07-3.81-7.14-4.2-11.24-.19-2-.2-4-1.17-5.81-.39-.72-.85-1.54-1.83-1.39s-.91,1.18-1,2c-.18,1.42.45,3.39-1.7,3.71s-3.17-1.19-4.08-2.77a12,12,0,0,1-1.44-6.45,4,4,0,0,0-2.92-4.29,3.48,3.48,0,0,0-4.28,1.5c-1.78,2.44-3.77,1.73-4.57-.45-1.23-3.39.11-16-1.19-12.88-4.27,10.24-9.14-5.5-7.26-11.27,1.71-5.25-1.93-10-7.3-9.53-2.12.18-3.88.94-4.39,3.32a6.26,6.26,0,0,1-.55,1.66c-.84,1.6-1.2,4-3.59,3.77s-2.34-2.46-2.65-4.31a18.61,18.61,0,0,0-1.2-4,6.41,6.41,0,0,1,0-5.41,5.47,5.47,0,0,0,.31-2.87"
       transform="translate(-445.5 -121.26)"
       id="path44850" />
    <path
       class="cls-5"
       d="M506.5,251.71a25.74,25.74,0,0,0,2.34-14"
       transform="translate(-445.5 -121.26)"
       id="path44852" />
    <path
       class="cls-5"
       d="M513.08,226.67s8.71-3.06,13.1-2.68"
       transform="translate(-445.5 -121.26)"
       id="path44854" />
    <path
       class="cls-5"
       d="M533.55,228.27a37.3,37.3,0,0,0,10.23,8.33"
       transform="translate(-445.5 -121.26)"
       id="path44856" />
    <path
       class="cls-5"
       d="M511.51,258.95h0c.21.52,12.11-7.19,12.07,7.87"
       transform="translate(-445.5 -121.26)"
       id="path44858" />
    <path
       class="cls-6"
       d="M546.24,417.17s-4.28-11,7.63-9.63"
       transform="translate(-445.5 -121.26)"
       id="path44860" />
    <path
       class="cls-5"
       d="M531.17,425.24s2.85-4.51,10.19-.55"
       transform="translate(-445.5 -121.26)"
       id="path44862" />
    <path
       class="cls-5"
       d="M518.25,400.26s3.35,3.17,2,15.2"
       transform="translate(-445.5 -121.26)"
       id="path44864" />
    <path
       class="cls-5"
       d="M518.83,385.52l.15.19c.55.79,2.43,4.15.47,11.39l-.05.19"
       transform="translate(-445.5 -121.26)"
       id="path44866" />
    <path
       class="cls-5"
       d="M708.35,531.19h0A12.61,12.61,0,0,1,720.62,525"
       transform="translate(-445.5 -121.26)"
       id="path44868" />
    <path
       class="cls-5"
       d="M686,540.33s3.53-5.18,11.63,2.21"
       transform="translate(-445.5 -121.26)"
       id="path44870" />
    <path
       class="cls-5"
       d="M664.07,525.74c.26-.05,5.85-1,9.46,7.46"
       transform="translate(-445.5 -121.26)"
       id="path44872" />
    <path
       class="cls-4"
       d="M664.06,525.74h0"
       transform="translate(-445.5 -121.26)"
       id="path44874" />
    <path
       class="cls-5"
       d="M667.35,498.84s2.55,2.9-1.43,13.91c-.06.18-.13.36-.2.55"
       transform="translate(-445.5 -121.26)"
       id="path44876" />
    <path
       class="cls-5"
       d="M596.17,506.07s7.38-9.11,16.86-2.3"
       transform="translate(-445.5 -121.26)"
       id="path44878" />
    <path
       class="cls-5"
       d="M572.74,512.11s7.3-5.05,12.7,6.47"
       transform="translate(-445.5 -121.26)"
       id="path44880" />
    <path
       class="cls-5"
       d="M557,501.17s8.35-5.74,12.86,2.22"
       transform="translate(-445.5 -121.26)"
       id="path44882" />
    <path
       class="cls-5"
       d="M572.74,473s0,2.21-6.49,7.56"
       transform="translate(-445.5 -121.26)"
       id="path44884" />
    <path
       class="cls-4"
       d="M648.69,250.18h0"
       transform="translate(-445.5 -121.26)"
       id="path44886" />
    <path
       class="cls-4"
       d="M694.73,264.85A13.51,13.51,0,0,1,693,266c-4.79,2.57-9.51,3.9-14.8,1.88-1.59-.61-2.91-.88-3.54-.11h0a8.94,8.94,0,0,0-5.6-4.51c-.05.22-.1.43-.16.62-1.1,3.74-3.9,2.68-3.9,2.68a12,12,0,0,0-4.86-7.18,7.57,7.57,0,0,0-1.31-.72c-.42,4.48-2.36,6.61-2.36,6.61-1.06-3.63-8.74-8.22-9.7-9.81s1.79-5,2-5.23a1.59,1.59,0,0,0,1.46,1.19l.39.05c5.66.73,10.45,3.87,15.74,5.64a9.91,9.91,0,0,0,6.78,0c8.23-2.79,14.47-8.58,20.82-14.05,6-5.16,13.06-6.91,20.12-3.76a9.93,9.93,0,0,1,6.09,7.65c.26,1.5,0,3-2.24,2.23-6.71-2.26-10.09-.73-14.38,4.81-2.83,3.66-4.87,8-8.76,10.88"
       transform="translate(-445.5 -121.26)"
       id="path44888" />
    <path
       class="cls-7"
       d="M652.1,447.41s-14.26-18.41-3.3-36.75,15.92-30.58,15.92-30.58"
       transform="translate(-445.5 -121.26)"
       id="path44890" />
    <path
       class="cls-7"
       d="M632.85,383.51a14.77,14.77,0,0,1,4.86,2,21,21,0,0,1,7.81,8.93"
       transform="translate(-445.5 -121.26)"
       id="path44892" />
    <path
       class="cls-7"
       d="M637.72,385.52s-.73,6.93-8.83,11.77"
       transform="translate(-445.5 -121.26)"
       id="path44894" />
    <path
       class="cls-7"
       d="M615.47,358.79a40.08,40.08,0,0,1-8.4,11.78"
       transform="translate(-445.5 -121.26)"
       id="path44896" />
    <line
       class="cls-7"
       x1="169.98"
       y1="237.52"
       x2="169.97"
       y2="237.53"
       id="line44898" />
    <path
       class="cls-7"
       d="M572.56,383.51s35.76-15.75,42.91-24.71"
       transform="translate(-445.5 -121.26)"
       id="path44900" />
    <path
       class="cls-8"
       d="M661.89,355.17c.13-.62,3.87-18-2-22.17,0,0-3.13,19.91-23.47,28.44,0,0,11.54-11.38,1.29-31.43,0,0-6.55,19.06-19.07,25.31,0,0,4.84-23.75-2-36.27a24.2,24.2,0,0,1-2.29-5.92,29,29,0,0,1-.43-10.88,33.25,33.25,0,0,1,2.71-9.36"
       transform="translate(-445.5 -121.26)"
       id="path44902" />
    <path
       class="cls-8"
       d="M675.54,329s-6.39,17.32-13.65,26.16v0"
       transform="translate(-445.5 -121.26)"
       id="path44904" />
    <path
       class="cls-9"
       d="M604.49,334.38a63,63,0,0,0,4.92,9.86"
       transform="translate(-445.5 -121.26)"
       id="path44906" />
    <path
       class="cls-7"
       d="M603.57,303.56s-2.4,4.79-2.51,12.8a47.46,47.46,0,0,0,3.42,18"
       transform="translate(-445.5 -121.26)"
       id="path44908" />
    <path
       class="cls-7"
       d="M601.06,316.36s-5.72,8.25-5.73,15.36a115.65,115.65,0,0,1-1-43.82A101.93,101.93,0,0,1,598,272.7"
       transform="translate(-445.5 -121.26)"
       id="path44910" />
    <path
       class="cls-7"
       d="M585.08,263.31a.12.12,0,0,0,0,.05c-.14.41-1,3-2.29,6.49-2.21,6.13-5.56,14.93-7.94,19.06,0,0-.86-12.15-.11-20.54,0,0,0,0,0,0,0-.3.06-.6.09-.89,0-.05,0-.09,0-.15"
       transform="translate(-445.5 -121.26)"
       id="path44912" />
    <path
       class="cls-7"
       d="M594.28,287.9a24.71,24.71,0,0,0-6.07,16.79s-9.64-17.49-5.44-34.84a33.69,33.69,0,0,1,2.29-6.49"
       transform="translate(-445.5 -121.26)"
       id="path44914" />
    <path
       class="cls-7"
       d="M638.56,261.32s18,21,31.25,25.73"
       transform="translate(-445.5 -121.26)"
       id="path44916" />
    <path
       class="cls-9"
       d="M634.86,254.92s3.84-11.81,7.68-15.36,6.08-.15,11.65-2.85"
       transform="translate(-445.5 -121.26)"
       id="path44918" />
    <line
       class="cls-4"
       x1="249.23"
       y1="143.59"
       x2="249.24"
       y2="143.59"
       id="line44920" />
    <path
       class="cls-9"
       d="M677.88,263.1s6.32,4.29,16.85,1.76"
       transform="translate(-445.5 -121.26)"
       id="path44922" />
    <path
       class="cls-9"
       d="M646.54,224.37s4.53,2.56,7.65,2.67a3.17,3.17,0,0,1,3.32,2.77"
       transform="translate(-445.5 -121.26)"
       id="path44924" />
    <path
       class="cls-9"
       d="M682.79,234.72c-2.82-.84-3.57-3.26-5.31-4.48a4.53,4.53,0,0,0-.78-.43c-2.35-1-8.21.1-9,0,0,0-1.07,3.09,3.84,4.91"
       transform="translate(-445.5 -121.26)"
       id="path44926" />
    <path
       class="cls-9"
       d="M677.48,230.24a9.34,9.34,0,0,1,4.6-5.87h0"
       transform="translate(-445.5 -121.26)"
       id="path44928" />
    <path
       class="cls-7"
       d="M614,247.72c1,3.66,3.09,7.89,7.14,13.13"
       transform="translate(-445.5 -121.26)"
       id="path44930" />
    <path
       class="cls-7"
       d="M618.46,217c0,.32-4.91,9.92-5.12,17.17-.13,4.25-.8,8.33.65,13.53"
       transform="translate(-445.5 -121.26)"
       id="path44932" />
    <path
       class="cls-7"
       d="M614,247.71h0c0,.41.21,10.37,3.11,15.59"
       transform="translate(-445.5 -121.26)"
       id="path44934" />
    <path
       class="cls-7"
       d="M570.72,255.14c5.27-6.56,16.7-20.3,28.3-30.77"
       transform="translate(-445.5 -121.26)"
       id="path44936" />
    <path
       class="cls-4"
       d="M567.72,258.95s1.09-1.43,3-3.81"
       transform="translate(-445.5 -121.26)"
       id="path44938" />
    <path
       class="cls-7"
       d="M576.12,228.27s7.4-13.46,31.65-11.26"
       transform="translate(-445.5 -121.26)"
       id="path44940" />
    <path
       class="cls-7"
       d="M532.88,262.31s26.6,31.29,37.55,37.84"
       transform="translate(-445.5 -121.26)"
       id="path44942" />
    <path
       class="cls-9"
       d="M528.33,414.49a8.71,8.71,0,0,0,2.84-6.54"
       transform="translate(-445.5 -121.26)"
       id="path44944" />
    <path
       class="cls-9"
       d="M540.13,408.53s1.68,5.63,6.1,8.64"
       transform="translate(-445.5 -121.26)"
       id="path44946" />
    <path
       d="M519.73,395.84c.34,0,.78-.1,1.16-.18s.79-.16,1.18-.26a10,10,0,0,0,2.09-.75l.12-.06a1.5,1.5,0,0,1,1.68,2.46,12.61,12.61,0,0,1-2.59,1.69c-.44.22-.87.43-1.32.62s-.87.36-1.38.54l-.07,0a2.11,2.11,0,0,1-1.36-4A2.21,2.21,0,0,1,519.73,395.84Z"
       transform="translate(-445.5 -121.26)"
       id="path44948" />
    <path
       class="cls-9"
       d="M575.51,501.17a13.92,13.92,0,0,1,8-4.74"
       transform="translate(-445.5 -121.26)"
       id="path44950" />
    <path
       class="cls-9"
       d="M595.81,506.94s-1.17-.46-1.33-.76a8.67,8.67,0,0,1-.3-7"
       transform="translate(-445.5 -121.26)"
       id="path44952" />
    <path
       class="cls-9"
       d="M612,493.44s-1.16,3.56,1.79,8.19"
       transform="translate(-445.5 -121.26)"
       id="path44954" />
    <path
       class="cls-9"
       d="M669.09,452.85s-9.34-7.2-11.2-11.61"
       transform="translate(-445.5 -121.26)"
       id="path44956" />
    <path
       class="cls-9"
       d="M615.48,358.78s9.28,14.5,21.76,17.17a23.13,23.13,0,0,1,16.43,13.76"
       transform="translate(-445.5 -121.26)"
       id="path44958" />
    <line
       class="cls-9"
       x1="169.98"
       y1="237.52"
       x2="169.98"
       y2="237.52"
       id="line44960" />
    <path
       class="cls-9"
       d="M620.92,340.75a26.57,26.57,0,0,0,7.25-17.92,37.62,37.62,0,0,0-4.91-18.67"
       transform="translate(-445.5 -121.26)"
       id="path44962" />
    <path
       class="cls-9"
       d="M607.56,322a24.71,24.71,0,0,1,6.43-8.76"
       transform="translate(-445.5 -121.26)"
       id="path44964" />
    <path
       class="cls-9"
       d="M604.49,334.37A36.11,36.11,0,0,1,607.56,322"
       transform="translate(-445.5 -121.26)"
       id="path44966" />
    <path
       class="cls-7"
       d="M604.49,334.38h0"
       transform="translate(-445.5 -121.26)"
       id="path44968" />
    <path
       class="cls-9"
       d="M607.56,322h0c0-.44-.79-13,6.06-19.79"
       transform="translate(-445.5 -121.26)"
       id="path44970" />
    <path
       class="cls-10"
       d="M610.57,256.16c.54.32,4.27,15.9,7.15,19.74"
       transform="translate(-445.5 -121.26)"
       id="path44972" />
    <path
       class="cls-9"
       d="M653.45,456s1.07,7.47-2.24,5.55-7.58-13.65-7.89-18.89"
       transform="translate(-445.5 -121.26)"
       id="path44974" />
    <path
       class="cls-9"
       d="M569.87,492.44s9-3.7,12.94-2.13"
       transform="translate(-445.5 -121.26)"
       id="path44976" />
    <path
       class="cls-9"
       d="M574.7,479.21s7.54,2.56,9.53,5.12"
       transform="translate(-445.5 -121.26)"
       id="path44978" />
    <path
       class="cls-9"
       d="M667.35,513.28c.26.36,7.48-5.05,15.16-7.47"
       transform="translate(-445.5 -121.26)"
       id="path44980" />
    <path
       class="cls-9"
       d="M513.49,236.6s4.21,1.67,5.93,5.18"
       transform="translate(-445.5 -121.26)"
       id="path44982" />
  </g>
  <g
     id="Layer_3"
     data-name="Layer 3">
    <path
       class="cls-11"
       d="M927,122.76V328.6a313.88,313.88,0,0,1-2.28,38c-.11.93-.24,1.86-.36,2.79,0,.2,0,.4-.08.59-.09.74-.19,1.47-.31,2.2-.46,3.37-1,6.69-1.6,10-.07.44-.15.87-.23,1.31-.16.8-.29,1.6-.45,2.4s-.34,1.79-.51,2.69l-.45,2.22-.24,1.15c-.15.71-.3,1.44-.46,2.15-.54,2.37-1.07,4.71-1.61,7l-.58,2.32-.52,2q-1.53,5.88-3.27,11.61c-.29,1-.59,1.94-.9,2.92l-.6,1.88c-.2.63-.4,1.24-.61,1.86-.37,1.09-.73,2.17-1.1,3.25s-.68,2-1,3c-.47,1.28-.93,2.56-1.39,3.81-.36,1-.73,2-1.11,3l-.19.5c-.43,1.14-.87,2.25-1.32,3.36s-.87,2.17-1.31,3.2c0,.15-.12.28-.18.42-.4,1-.8,2-1.25,3s-.76,1.75-1.13,2.62l-.66,1.49c-.48,1.07-1,2.11-1.44,3.15s-.9,2-1.36,2.93l-1,2.12c-.29.63-.6,1.25-.91,1.87-.63,1.33-1.31,2.64-2,4q-2.52,5-5.19,9.77l-2,3.57-.12.21c-1.42,2.47-2.86,4.92-4.33,7.33-.71,1.2-1.46,2.4-2.18,3.54-.11.16-.2.32-.3.47-.55.89-1.12,1.78-1.69,2.66l-.65,1c-.65,1-1.31,2-2,3l-.13.18c-.65,1-1.31,2-2,3l-.45.67q-2.25,3.29-4.54,6.46l-.31.43c-.8,1.07-1.54,2.14-2.31,3.19s-1.66,2.23-2.5,3.32c-1.52,2-3.06,4-4.61,6l-.81,1q-1.09,1.39-2.22,2.76L854,526.61l-.57.69c-.8.94-1.6,1.87-2.41,2.8q-2.82,3.32-5.72,6.53c-.75.85-1.52,1.69-2.29,2.51s-1.47,1.6-2.22,2.4q-3,3.2-5.93,6.24-2.76,2.82-5.53,5.59c-.92.91-1.84,1.82-2.76,2.71s-1.85,1.78-2.79,2.66l-2.28,2.12c-.68.65-1.36,1.28-2,1.91a449.24,449.24,0,0,1-61.76,47.47c-.86.55-1.72,1.1-2.57,1.6q-6.43,4.06-12.47,7.63l-2.41,1.4-2.36,1.37-2.33,1.34-2.23,1.29c-8.34,4.68-15.9,8.59-22.38,11.76l-1.6.8c-10.64,5.15-18.12,8.22-21,9.35l-.42.17-.61.24-.14,0h-.08l-.23-.09-.21,0-1.07-.42-.54-.23c-.87-.34-2-.8-3.37-1.38l-.46-.18c-1.76-.8-3.89-1.67-6.33-2.77l-1.39-.61a442.25,442.25,0,0,1-39.75-20.6c-.8-.44-1.6-.92-2.35-1.38a474,474,0,0,1-44.78-30l-2.63-2c-1-.75-2-1.51-2.94-2.29l-2.81-2.21c-6.19-4.92-12.43-10.15-18.64-15.69L558.08,566q-2.31-2.05-4.59-4.2l-1.67-1.57L550,558.54l-2-1.94c-1.12-1.07-2.23-2.17-3.33-3.27-.85-.79-1.69-1.66-2.52-2.5l-.24-.26c-.84-.83-1.67-1.67-2.5-2.51-.66-.68-1.32-1.36-2-2l-2-2.06-.13-.15-2.1-2.25q-3.36-3.6-6.66-7.36c-.68-.79-1.36-1.54-2.05-2.34-.57-.65-1.12-1.29-1.66-1.94q-1-1.2-2-2.4-4.28-5.1-8.39-10.48c-.76-1-1.5-1.93-2.24-2.92-1.89-2.47-3.73-5-5.57-7.55-.55-.8-1.12-1.59-1.68-2.39-.13-.16-.24-.34-.36-.5-.59-.86-1.19-1.7-1.77-2.56-.94-1.38-1.89-2.77-2.81-4.17-.74-1.09-1.47-2.2-2.19-3.31a1,1,0,0,0-.15-.24l-2.22-3.48-.22-.36c-.7-1.14-1.41-2.27-2.1-3.4s-1.49-2.46-2.21-3.71-1.43-2.39-2.13-3.67q-4.61-8-8.77-16.46c-.35-.69-.69-1.38-1-2.09-.22-.44-.44-.88-.65-1.35-.43-.87-.8-1.74-1.25-2.63a25.91,25.91,0,0,1-1.15-2.47l-.23-.48c-.27-.58-.53-1.16-.81-1.75l-.26-.57c-.27-.59-.52-1.19-.8-1.78q-1.44-3.25-2.79-6.57c-.42-1-.8-2-1.23-3.08-.1-.25-.21-.52-.31-.79-.4-1-.8-2-1.16-3s-.69-1.82-1-2.74l-.24-.65c-.17-.44-.33-.91-.49-1.35q-1-2.7-1.9-5.44c-.21-.6-.4-1.2-.6-1.8-.26-.8-.51-1.54-.75-2.32-.14-.41-.27-.8-.4-1.22-.25-.8-.49-1.59-.75-2.39-.31-1-.61-2.06-.92-3.11-.19-.64-.39-1.28-.57-1.95-.37-1.29-.74-2.58-1.09-3.89-.19-.68-.37-1.35-.55-2-.13-.5-.27-1-.4-1.51-.32-1.22-.62-2.45-.92-3.7-.18-.7-.34-1.4-.52-2.11-.07-.28-.13-.56-.19-.85-.37-1.55-.72-3.11-1.07-4.69-.26-1.16-.5-2.33-.74-3.5-.13-.71-.29-1.43-.42-2.14s-.32-1.59-.48-2.45a1.86,1.86,0,0,0-.09-.47c-.16-.8-.3-1.64-.45-2.48s-.32-1.84-.48-2.77-.29-1.8-.45-2.71q-.57-3.7-1.07-7.47c-.17-1.23-.33-2.47-.48-3.71A312.7,312.7,0,0,1,447,328.58V122.76Z"
       transform="translate(-445.5 -121.26)"
       id="path44985" />
  </g>
  <path
     id="shine"
     d="M 1.5799985,0.6840314 V 207.06091 c 0,229.66454 239.9200015,319.6031 239.9200015,319.6031 0,0 239.92,-89.93856 239.92,-319.6031 V 0.6840314 Z"
     style="fill:url(#rg);stroke:#000000;stroke-width:2.41218" />
</svg>
