<?xml version="1.0" encoding="UTF-8" standalone="no"?>
<svg
   viewBox="0 0 512 559"
   version="1.1"
   id="svg1301"
   sodipodi:docname="House Rosby.svg"
   inkscape:version="1.2.1 (9c6d41e410, 2022-07-14)"
   xmlns:inkscape="http://www.inkscape.org/namespaces/inkscape"
   xmlns:sodipodi="http://sodipodi.sourceforge.net/DTD/sodipodi-0.dtd"
   xmlns:xlink="http://www.w3.org/1999/xlink"
   xmlns="http://www.w3.org/2000/svg"
   xmlns:svg="http://www.w3.org/2000/svg"
   xmlns:rdf="http://www.w3.org/1999/02/22-rdf-syntax-ns#"
   xmlns:cc="http://creativecommons.org/ns#"
   xmlns:dc="http://purl.org/dc/elements/1.1/">
   <title
      id="title8344">House Rosby</title>
   <sodipodi:namedview
      id="namedview1303"
      pagecolor="#ffffff"
      bordercolor="#000000"
      borderopacity="0.25"
      inkscape:showpageshadow="2"
      inkscape:pageopacity="0.0"
      inkscape:pagecheckerboard="0"
      inkscape:deskcolor="#d1d1d1"
      showgrid="false"
      inkscape:zoom="1.2681818"
      inkscape:cx="196.34409"
      inkscape:cy="279.92832"
      inkscape:window-width="1920"
      inkscape:window-height="1017"
      inkscape:window-x="-8"
      inkscape:window-y="-8"
      inkscape:window-maximized="1"
      inkscape:current-layer="svg1301" />
   <defs
      id="defs1289">
      <radialGradient
         id="rg"
         gradientUnits="userSpaceOnUse"
         cx="220"
         cy="220"
         r="405">
         <stop
            style="stop-color:#ffffff;stop-opacity:.3"
            offset="0"
            id="stop1272" />
         <stop
            style="stop-color:#ffffff;stop-opacity:.2"
            offset=".2"
            id="stop1274" />
         <stop
            style="stop-color:#666666;stop-opacity:.1"
            offset=".6"
            id="stop1276" />
         <stop
            style="stop-color:#000000;stop-opacity:.13"
            offset="1"
            id="stop1278" />
      </radialGradient>
      <pattern
         id="ermine"
         patternUnits="userSpaceOnUse"
         x="0"
         y="0"
         width="133.3"
         height="188.6">
         <rect
            width="133.3"
            height="188.6"
            style="fill:#ffffff;"
            id="rect1281" />
         <path
            transform="translate(33.3,47.15)scale(0.9)"
            id="ermine-unit"
            d="m 0.40009,-18.332585 c -4.60101,20.84701 -13.10288,35.56792 -22.40493,46.1743 3.90086,-1.09721 8.20181,-4.02311 12.40273,-6.6747 -2.60057,5.48605 -5.20114,10.1492 -7.70169,14.99522 1.50033,-0.54861 6.4014,-5.39463 13.00285,-12.5265 1.00022,9.78347 2.40053,14.44662 4.50099,21.12132 1.70038,-6.6747 2.90064,-11.15498 4.20093,-21.21275 4.00088,4.48028 7.80171,9.05199 13.2029,12.89223 l -7.50165,-15.54383 c 3.90086,2.46873 8.2018,5.76036 12.40272,7.13188 C 12.70279,16.869605 4.40097,2.514425 0.40009,-18.332585 Z m -11.70257,-5.66893 c -5.20115,0.27431 -10.9024,7.31474 -16.50363,1.37152 3.30072,8.13765 9.20202,4.20597 9.70213,5.48605 5.9013,9.8749 14.70323,1.82869 12.70279,-2.83446 -1.90042,-3.10876 -3.80083,-4.11454 -5.90129,-4.02311 z m 21.80479,-0.0914 c -1.8004,0.18287 -3.50077,1.28008 -5.10112,4.02311 -2.00044,4.66314 6.80149,12.70936 12.80281,2.83446 0.40009,-1.18865 6.30138,2.65159 9.60211,-5.48606 -5.60123,5.8518 -11.30248,-1.09721 -16.50363,-1.37151 -0.30006,0 -0.50011,0 -0.80017,0 z m -11.8026,-20.66414 c 7.00154,8.77769 -12.60277,12.25219 -2.00044,20.48127 4.50099,2.83446 15.10332,-3.29163 5.80128,-10.78924 -1.20026,-0.64004 4.20092,-5.02889 -3.80084,-9.69203 z" />
         <use
            xlink:href="#ermine-unit"
            transform="translate(66.6,94.3)"
            id="use1284" />
      </pattern>
      <clipPath
         id="clip-shield">
         <path
            id="shield"
            d="m 2,2 v 257 c 0,286 298,398 298,398 0,0 298,-112 298,-398 V 2 Z" />
      </clipPath>
      <radialGradient
         id="rg-3"
         gradientUnits="userSpaceOnUse"
         cx="220"
         cy="220"
         r="405"
         gradientTransform="matrix(0.85569064,0,0,0.84987986,-0.39929644,-0.73463991)">
         <stop
            style="stop-color:#ffffff;stop-opacity:.3"
            offset="0"
            id="stop753" />
         <stop
            style="stop-color:#ffffff;stop-opacity:.2"
            offset=".2"
            id="stop755" />
         <stop
            style="stop-color:#666666;stop-opacity:.1"
            offset=".6"
            id="stop757" />
         <stop
            style="stop-color:#000000;stop-opacity:.13"
            offset="1"
            id="stop759" />
      </radialGradient>
   </defs>
   <g
      id="Layer_2"
      data-name="Layer 2"
      transform="matrix(1.0600417,0,0,1.0598558,0.30778462,-0.17754351)"
      style="fill:#e8e8e8;fill-opacity:1">
      <path
         class="cls-1"
         d="M 927,122.76 V 328.6 a 314.37,314.37 0 0 1 -2.28,38 c -0.11,0.93 -0.24,1.86 -0.36,2.79 -0.12,0.93 -0.24,1.86 -0.39,2.79 q -0.7,5.05 -1.61,10 c -0.07,0.44 -0.15,0.87 -0.23,1.31 -0.15,0.8 -0.29,1.6 -0.45,2.39 -0.16,0.79 -0.34,1.8 -0.51,2.69 l -0.45,2.22 -0.24,1.16 c -0.15,0.71 -0.3,1.44 -0.47,2.15 q -0.8,3.55 -1.61,7 l -0.58,2.32 -0.52,2 q -1.52,5.88 -3.27,11.61 c -0.29,1 -0.59,1.94 -0.9,2.92 l -0.6,1.88 c -0.19,0.63 -0.39,1.25 -0.6,1.86 l -1.1,3.26 c -0.37,1.09 -0.68,2 -1,3 -0.47,1.28 -0.92,2.55 -1.39,3.81 -0.36,1 -0.73,2 -1.11,3 l -0.19,0.49 c -0.43,1.14 -0.87,2.25 -1.32,3.37 -0.45,1.12 -0.87,2.16 -1.32,3.19 a 3.35,3.35 0 0 1 -0.18,0.42 c -0.4,1 -0.8,2 -1.25,3 -0.45,1 -0.75,1.75 -1.13,2.62 l -0.66,1.49 c -0.47,1.07 -0.95,2.12 -1.44,3.15 -0.49,1.03 -0.9,2 -1.36,2.93 l -1,2.12 c -0.3,0.63 -0.6,1.25 -0.91,1.88 -0.63,1.32 -1.31,2.64 -2,4 q -2.53,5 -5.19,9.77 l -2,3.57 -0.11,0.21 q -2.13,3.71 -4.33,7.33 c -0.71,1.2 -1.46,2.39 -2.18,3.54 -0.1,0.16 -0.19,0.31 -0.3,0.46 -0.55,0.89 -1.12,1.78 -1.69,2.66 l -0.66,1 c -0.65,1 -1.31,2 -2,3 l -0.13,0.18 c -0.66,1 -1.32,2 -2,3 l -0.45,0.67 q -2.26,3.28 -4.54,6.46 l -0.31,0.42 c -0.8,1.07 -1.54,2.14 -2.31,3.19 -0.77,1.05 -1.66,2.23 -2.5,3.32 q -2.29,3 -4.61,6 l -0.8,1 c -0.73,0.93 -1.48,1.85 -2.22,2.76 l -2.24,2.65 -0.57,0.69 -2.43,2.8 q -2.83,3.32 -5.72,6.53 c -0.75,0.85 -1.52,1.69 -2.29,2.51 l -2.22,2.39 q -3,3.19 -5.93,6.24 -2.76,2.83 -5.53,5.59 c -0.91,0.91 -1.84,1.82 -2.76,2.71 -0.92,0.89 -1.85,1.78 -2.78,2.67 l -2.28,2.11 c -0.68,0.65 -1.36,1.28 -2.05,1.91 a 448.64,448.64 0 0 1 -61.76,47.47 c -0.86,0.55 -1.73,1.1 -2.58,1.6 q -6.42,4.07 -12.46,7.63 l -2.41,1.4 -2.36,1.36 -2.34,1.35 -2.22,1.28 c -8.35,4.68 -15.91,8.59 -22.38,11.76 l -1.61,0.8 c -10.63,5.15 -18.11,8.22 -21,9.35 l -0.42,0.18 -0.61,0.23 -0.14,0.06 h -0.08 l -0.23,-0.1 h -0.21 l -1.07,-0.42 -0.55,-0.23 c -0.87,-0.34 -2,-0.8 -3.36,-1.38 l -0.47,-0.18 c -1.76,-0.8 -3.88,-1.67 -6.33,-2.77 l -1.39,-0.61 a 443.16,443.16 0 0 1 -39.74,-20.6 c -0.8,-0.45 -1.61,-0.92 -2.36,-1.38 a 473.14,473.14 0 0 1 -44.78,-30 l -2.62,-2 c -1,-0.75 -2,-1.52 -2.95,-2.29 l -2.81,-2.21 c -6.19,-4.92 -12.43,-10.15 -18.64,-15.69 L 558.08,566 q -2.3,-2.05 -4.59,-4.2 l -1.67,-1.57 -1.82,-1.69 -2,-1.94 c -1.12,-1.07 -2.24,-2.16 -3.34,-3.26 -0.84,-0.8 -1.69,-1.67 -2.52,-2.51 l -0.24,-0.26 q -1.25,-1.25 -2.5,-2.51 c -0.66,-0.68 -1.32,-1.36 -2,-2 l -2,-2.07 -0.13,-0.15 -2.1,-2.24 q -3.36,-3.61 -6.66,-7.36 c -0.68,-0.8 -1.36,-1.55 -2,-2.35 -0.57,-0.65 -1.12,-1.28 -1.66,-1.94 l -2,-2.39 q -4.26,-5.11 -8.39,-10.48 -1.13,-1.45 -2.24,-2.92 c -1.89,-2.47 -3.73,-5 -5.57,-7.55 l -1.68,-2.39 c -0.13,-0.16 -0.24,-0.34 -0.36,-0.5 -0.59,-0.85 -1.19,-1.7 -1.77,-2.55 -0.95,-1.38 -1.89,-2.77 -2.82,-4.17 q -1.11,-1.64 -2.18,-3.31 l -0.15,-0.24 -2.22,-3.47 c -0.07,-0.13 -0.15,-0.24 -0.22,-0.37 -0.71,-1.14 -1.41,-2.27 -2.1,-3.4 -0.69,-1.13 -1.49,-2.46 -2.21,-3.7 -0.72,-1.24 -1.44,-2.39 -2.13,-3.67 q -4.6,-8 -8.77,-16.47 c -0.35,-0.69 -0.69,-1.38 -1,-2.08 -0.22,-0.44 -0.44,-0.89 -0.65,-1.35 -0.43,-0.87 -0.8,-1.75 -1.25,-2.63 a 27.17,27.17 0 0 1 -1.15,-2.47 l -0.23,-0.48 c -0.26,-0.58 -0.52,-1.16 -0.8,-1.75 l -0.26,-0.57 c -0.26,-0.58 -0.52,-1.18 -0.8,-1.77 q -1.44,-3.26 -2.78,-6.58 c -0.42,-1 -0.8,-2 -1.23,-3.07 -0.1,-0.26 -0.21,-0.53 -0.31,-0.8 -0.4,-1 -0.8,-2 -1.16,-3 -0.36,-1 -0.68,-1.82 -1,-2.74 l -0.23,-0.65 c -0.18,-0.45 -0.34,-0.91 -0.5,-1.36 q -1,-2.69 -1.89,-5.44 c -0.21,-0.6 -0.4,-1.21 -0.6,-1.8 -0.26,-0.8 -0.51,-1.54 -0.75,-2.31 -0.14,-0.42 -0.26,-0.8 -0.39,-1.22 -0.26,-0.8 -0.5,-1.6 -0.75,-2.39 -0.31,-1 -0.61,-2.06 -0.92,-3.1 -0.18,-0.65 -0.39,-1.28 -0.57,-2 -0.37,-1.28 -0.74,-2.58 -1.08,-3.89 -0.19,-0.68 -0.37,-1.35 -0.55,-2 -0.13,-0.5 -0.26,-1 -0.39,-1.51 -0.32,-1.22 -0.63,-2.46 -0.92,-3.7 -0.18,-0.7 -0.35,-1.4 -0.52,-2.11 -0.07,-0.29 -0.13,-0.57 -0.19,-0.85 -0.37,-1.55 -0.71,-3.11 -1.07,-4.69 -0.26,-1.16 -0.5,-2.33 -0.74,-3.5 -0.14,-0.71 -0.29,-1.43 -0.43,-2.14 -0.14,-0.71 -0.32,-1.6 -0.47,-2.45 a 2.13,2.13 0 0 0 -0.1,-0.47 c -0.15,-0.8 -0.3,-1.64 -0.45,-2.48 -0.15,-0.84 -0.31,-1.84 -0.47,-2.77 -0.16,-0.93 -0.3,-1.8 -0.45,-2.71 q -0.87,-5.52 -1.56,-11.17 A 314.73,314.73 0 0 1 447,328.58 V 122.76 Z"
         transform="translate(-445.5,-121.26)"
         id="path188"
         style="fill:#e8e8e8;fill-opacity:1" />
   </g>
   <g
      id="g594-9-2"
      transform="matrix(4.0064569,0,0,4.0057542,-247.72688,-285.18251)">
      <path
         class="cls-4"
         d="m 126.02239,79.50977 c 0.86421,5.885901 2.8014,11.662245 3.36692,17.573624 -0.46699,0.11325 -0.53118,-0.165197 -0.71014,-0.30539 -1.22349,-0.970808 -1.24219,-0.985189 -2.39656,0.06154 -0.33241,0.303264 -0.57716,0.415686 -0.90146,0.06921 -0.9328,-1.001656 -1.828,-0.85043 -2.74894,0.02378 a 0.43976836,0.63764583 89.314653 0 1 -0.76219,0.209863 l 3.71584,-17.62732 z"
         id="path199-4-5"
         style="fill:#140b0b;stroke-width:0.219727" />
      <path
         class="cls-10"
         d="m 124.18636,79.441774 c -0.0741,0.862541 -0.42333,1.404937 -1.32291,1.397 -1.00013,0 -1.47638,-0.590021 -1.4949,-1.529292 a 1.2356042,1.2356042 0 0 1 1.32292,-1.362604 c 0.94191,-0.0053 1.44198,0.592667 1.49489,1.494896 z"
         id="path223-1-3"
         style="fill:#221917;stroke-width:0.264583" />
      <path
         class="cls-13"
         d="m 127.26876,75.467733 c -0.0926,0.809625 -0.58473,1.370541 -1.45785,1.346729 -0.87313,-0.02381 -1.36525,-0.579438 -1.35996,-1.486959 0,-0.830791 0.43127,-1.407583 1.24883,-1.412875 0.90488,-0.01058 1.51871,0.486834 1.56898,1.553105 z"
         id="path229-3-7"
         style="fill:#201714;stroke-width:0.264583" />
      <path
         class="cls-15"
         d="m 128.81922,78.166482 c 0.79375,0.15875 1.30704,0.5715 1.27529,1.439333 -0.0344,0.939271 -0.59531,1.383771 -1.49754,1.354667 -0.79375,-0.02646 -1.21709,-0.566208 -1.21709,-1.30175 -0.005,-0.899583 0.52388,-1.394354 1.43934,-1.49225 z"
         id="path247-4-9"
         style="fill:#201715;stroke-width:0.264583" />
   </g>
   <g
      id="g594-9-2-3-9"
      transform="matrix(4.0064569,0,0,4.0057542,-75.770188,-44.710905)">
      <path
         class="cls-4"
         d="m 126.02239,79.50977 c 0.86421,5.885901 2.8014,11.662245 3.36692,17.573624 -0.46699,0.11325 -0.53118,-0.165197 -0.71014,-0.30539 -1.22349,-0.970808 -1.24219,-0.985189 -2.39656,0.06154 -0.33241,0.303264 -0.57716,0.415686 -0.90146,0.06921 -0.9328,-1.001656 -1.828,-0.85043 -2.74894,0.02378 a 0.43976836,0.63764583 89.314653 0 1 -0.76219,0.209863 l 3.71584,-17.62732 z"
         id="path199-4-5-5-8"
         style="fill:#140b0b;stroke-width:0.219727" />
      <path
         class="cls-10"
         d="m 124.18636,79.441774 c -0.0741,0.862541 -0.42333,1.404937 -1.32291,1.397 -1.00013,0 -1.47638,-0.590021 -1.4949,-1.529292 a 1.2356042,1.2356042 0 0 1 1.32292,-1.362604 c 0.94191,-0.0053 1.44198,0.592667 1.49489,1.494896 z"
         id="path223-1-3-5-6"
         style="fill:#221917;stroke-width:0.264583" />
      <path
         class="cls-13"
         d="m 127.26876,75.467733 c -0.0926,0.809625 -0.58473,1.370541 -1.45785,1.346729 -0.87313,-0.02381 -1.36525,-0.579438 -1.35996,-1.486959 0,-0.830791 0.43127,-1.407583 1.24883,-1.412875 0.90488,-0.01058 1.51871,0.486834 1.56898,1.553105 z"
         id="path229-3-7-8-2"
         style="fill:#201714;stroke-width:0.264583" />
      <path
         class="cls-15"
         d="m 128.81922,78.166482 c 0.79375,0.15875 1.30704,0.5715 1.27529,1.439333 -0.0344,0.939271 -0.59531,1.383771 -1.49754,1.354667 -0.79375,-0.02646 -1.21709,-0.566208 -1.21709,-1.30175 -0.005,-0.899583 0.52388,-1.394354 1.43934,-1.49225 z"
         id="path247-4-9-5-0"
         style="fill:#201715;stroke-width:0.264583" />
   </g>
   <g
      id="g594-9-2-3-9-7"
      transform="matrix(4.0064569,0,0,4.0057542,-426.6976,-40.060257)">
      <path
         class="cls-4"
         d="m 126.02239,79.50977 c 0.86421,5.885901 2.8014,11.662245 3.36692,17.573624 -0.46699,0.11325 -0.53118,-0.165197 -0.71014,-0.30539 -1.22349,-0.970808 -1.24219,-0.985189 -2.39656,0.06154 -0.33241,0.303264 -0.57716,0.415686 -0.90146,0.06921 -0.9328,-1.001656 -1.828,-0.85043 -2.74894,0.02378 a 0.43976836,0.63764583 89.314653 0 1 -0.76219,0.209863 l 3.71584,-17.62732 z"
         id="path199-4-5-5-8-1"
         style="fill:#140b0b;stroke-width:0.219727" />
      <path
         class="cls-10"
         d="m 124.18636,79.441774 c -0.0741,0.862541 -0.42333,1.404937 -1.32291,1.397 -1.00013,0 -1.47638,-0.590021 -1.4949,-1.529292 a 1.2356042,1.2356042 0 0 1 1.32292,-1.362604 c 0.94191,-0.0053 1.44198,0.592667 1.49489,1.494896 z"
         id="path223-1-3-5-6-8"
         style="fill:#221917;stroke-width:0.264583" />
      <path
         class="cls-13"
         d="m 127.26876,75.467733 c -0.0926,0.809625 -0.58473,1.370541 -1.45785,1.346729 -0.87313,-0.02381 -1.36525,-0.579438 -1.35996,-1.486959 0,-0.830791 0.43127,-1.407583 1.24883,-1.412875 0.90488,-0.01058 1.51871,0.486834 1.56898,1.553105 z"
         id="path229-3-7-8-2-8"
         style="fill:#201714;stroke-width:0.264583" />
      <path
         class="cls-15"
         d="m 128.81922,78.166482 c 0.79375,0.15875 1.30704,0.5715 1.27529,1.439333 -0.0344,0.939271 -0.59531,1.383771 -1.49754,1.354667 -0.79375,-0.02646 -1.21709,-0.566208 -1.21709,-1.30175 -0.005,-0.899583 0.52388,-1.394354 1.43934,-1.49225 z"
         id="path247-4-9-5-0-6"
         style="fill:#201715;stroke-width:0.264583" />
   </g>
   <g
      id="g594-9-2-3-9-7-4-2"
      transform="matrix(4.0064569,0,0,4.0057542,-247.72688,99.687959)">
      <path
         class="cls-4"
         d="m 126.02239,79.50977 c 0.86421,5.885901 2.8014,11.662245 3.36692,17.573624 -0.46699,0.11325 -0.53118,-0.165197 -0.71014,-0.30539 -1.22349,-0.970808 -1.24219,-0.985189 -2.39656,0.06154 -0.33241,0.303264 -0.57716,0.415686 -0.90146,0.06921 -0.9328,-1.001656 -1.828,-0.85043 -2.74894,0.02378 a 0.43976836,0.63764583 89.314653 0 1 -0.76219,0.209863 l 3.71584,-17.62732 z"
         id="path199-4-5-5-8-1-1-1"
         style="fill:#140b0b;stroke-width:0.219727" />
      <path
         class="cls-10"
         d="m 124.18636,79.441774 c -0.0741,0.862541 -0.42333,1.404937 -1.32291,1.397 -1.00013,0 -1.47638,-0.590021 -1.4949,-1.529292 a 1.2356042,1.2356042 0 0 1 1.32292,-1.362604 c 0.94191,-0.0053 1.44198,0.592667 1.49489,1.494896 z"
         id="path223-1-3-5-6-8-9-5"
         style="fill:#221917;stroke-width:0.264583" />
      <path
         class="cls-13"
         d="m 127.26876,75.467733 c -0.0926,0.809625 -0.58473,1.370541 -1.45785,1.346729 -0.87313,-0.02381 -1.36525,-0.579438 -1.35996,-1.486959 0,-0.830791 0.43127,-1.407583 1.24883,-1.412875 0.90488,-0.01058 1.51871,0.486834 1.56898,1.553105 z"
         id="path229-3-7-8-2-8-6-8"
         style="fill:#201714;stroke-width:0.264583" />
      <path
         class="cls-15"
         d="m 128.81922,78.166482 c 0.79375,0.15875 1.30704,0.5715 1.27529,1.439333 -0.0344,0.939271 -0.59531,1.383771 -1.49754,1.354667 -0.79375,-0.02646 -1.21709,-0.566208 -1.21709,-1.30175 -0.005,-0.899583 0.52388,-1.394354 1.43934,-1.49225 z"
         id="path247-4-9-5-0-6-8-0"
         style="fill:#201715;stroke-width:0.264583" />
   </g>
   <g
      clip-path="url(#clip-shield)"
      style="fill:none;stroke:#dd0000;stroke-width:40;stroke-linecap:square"
      id="g1298"
      transform="matrix(0.85475793,0,0,0.84941183,-0.42737897,-0.42470591)"
      inkscape:label="g1298">
      <path
         d="M 0,0 300,300 600,0"
         id="path1292"
         inkscape:label="path1292"
         style="fill-rule:nonzero;stroke:#8a0000;stroke-opacity:1"
         sodipodi:nodetypes="ccc" />
      <path
         d="M 0,-113 300,187 600,-113"
         id="path1294"
         style="fill:none;stroke-width:39.99973302;stroke-dasharray:none;stroke:#8a0000;stroke-opacity:1" />
      <path
         d="M 0,113 300,413 600,113"
         id="path1296"
         style="stroke:#8a0000;stroke-opacity:1" />
   </g>
   <use
      id="shine"
      xlink:href="#shield"
      style="fill:none;stroke:#000000;stroke-width:3"
      transform="matrix(0.85475793,0,0,0.84941183,-0.42737897,-0.42470591)"
      inkscape:label="shine" />
   <metadata
      id="metadata8342">
      <rdf:RDF>
         <cc:Work
            rdf:about="">
            <dc:title>House Rosby</dc:title>
         </cc:Work>
      </rdf:RDF>
   </metadata>
   <path
      id="shine-3"
      d="M 1.3120846,0.96511976 V 219.38424 c 0,243.06562 254.9958054,338.25217 254.9958054,338.25217 0,0 254.99581,-95.18655 254.99581,-338.25217 V 0.96511976 Z"
      style="fill:url(#rg-3);stroke:#000000;stroke-width:2.55833" />
</svg>