<?xml version="1.0" encoding="utf-8"?>
<!-- Generator: Adobe Illustrator 28.2.0, SVG Export Plug-In . SVG Version: 6.00 Build 0)  -->
<svg version="1.1"
	 id="svg38" xmlns:cc="http://creativecommons.org/ns#" xmlns:sodipodi="http://sodipodi.sourceforge.net/DTD/sodipodi-0.dtd" xmlns:svg="http://www.w3.org/2000/svg" xmlns:dc="http://purl.org/dc/elements/1.1/" xmlns:inkscape="http://www.inkscape.org/namespaces/inkscape" xmlns:rdf="http://www.w3.org/1999/02/22-rdf-syntax-ns#"
	 xmlns="http://www.w3.org/2000/svg" xmlns:xlink="http://www.w3.org/1999/xlink" x="0px" y="0px" viewBox="0 0 483 527.5"
	 style="enable-background:new 0 0 483 527.5;" xml:space="preserve">
<style type="text/css">
	.st0{fill:#F5F5F5;stroke:#000000;stroke-width:3;}
	.st1{fill:#BC9A47;stroke:#000000;stroke-width:2;stroke-linecap:round;stroke-miterlimit:10;}
	.st2{fill:url(#shine_00000113337825357294393790000006922773043061920387_);stroke:#000000;stroke-width:2.4122;}
</style>
<sodipodi:namedview  bordercolor="#000000" borderopacity="0.25" id="namedview25468" inkscape:current-layer="svg38" inkscape:cx="177.71727" inkscape:cy="394.50713" inkscape:deskcolor="#d1d1d1" inkscape:pagecheckerboard="0" inkscape:pageopacity="0.0" inkscape:showpageshadow="2" inkscape:window-height="1017" inkscape:window-maximized="1" inkscape:window-width="1920" inkscape:window-x="-8" inkscape:window-y="-8" inkscape:zoom="0.79339504" pagecolor="#ffffff" showgrid="false">
	</sodipodi:namedview>
<g id="Layer_2_00000183226154642615473400000009514877684764858775_">
	<path id="path8" class="st0" d="M481.5,1.5v205.8c0,12.7-0.8,25.4-2.3,38c-0.1,0.9-0.2,1.9-0.4,2.8s-0.2,1.9-0.4,2.8
		c-0.5,3.4-1,6.7-1.6,10c-0.1,0.4-0.2,0.9-0.2,1.3c-0.2,0.8-0.3,1.6-0.5,2.4s-0.3,1.8-0.5,2.7l-0.5,2.2l-0.2,1.2
		c-0.2,0.7-0.3,1.4-0.5,2.1c-0.5,2.4-1.1,4.7-1.6,7l-0.6,2.3l-0.5,2c-1,3.9-2.1,7.8-3.3,11.6c-0.3,1-0.6,1.9-0.9,2.9l-0.6,1.9
		c-0.2,0.6-0.4,1.2-0.6,1.9l-1.1,3.3c-0.4,1.1-0.7,2-1,3c-0.5,1.3-0.9,2.5-1.4,3.8c-0.4,1-0.7,2-1.1,3l-0.2,0.5
		c-0.4,1.1-0.9,2.2-1.3,3.4s-0.9,2.2-1.3,3.2c-0.1,0.1-0.1,0.3-0.2,0.4c-0.4,1-0.8,2-1.2,3s-0.8,1.8-1.1,2.6l-0.7,1.5
		c-0.5,1.1-1,2.1-1.4,3.1s-0.9,2-1.4,2.9l-1,2.1c-0.3,0.6-0.6,1.2-0.9,1.9c-0.6,1.3-1.3,2.6-2,4c-1.7,3.3-3.4,6.6-5.2,9.8l-2,3.5
		l-0.1,0.2c-1.4,2.5-2.9,4.9-4.3,7.3c-0.7,1.2-1.5,2.4-2.2,3.5c-0.1,0.2-0.2,0.3-0.3,0.5c-0.5,0.9-1.1,1.8-1.7,2.7l-0.7,1
		c-0.7,1-1.3,2-2,3l-0.1,0.2c-0.7,1-1.3,2-2,3l-0.5,0.7c-1.5,2.2-3,4.3-4.5,6.5l-0.3,0.4c-0.8,1.1-1.5,2.1-2.3,3.2s-1.7,2.2-2.5,3.3
		c-1.5,2-3.1,4-4.6,6l-0.8,1c-0.7,0.9-1.5,1.8-2.2,2.8l-2.3,2.8l-0.6,0.7l-2.4,2.8c-1.9,2.2-3.8,4.4-5.7,6.5
		c-0.8,0.8-1.5,1.7-2.3,2.5l-2.2,2.4c-2,2.1-4,4.2-5.9,6.2c-1.8,1.9-3.7,3.8-5.5,5.6c-0.9,0.9-1.8,1.8-2.8,2.7s-1.8,1.8-2.8,2.7
		l-2.3,2.1c-0.7,0.7-1.4,1.3-2,1.9c-19.2,17.6-39.8,33.5-61.8,47.5c-0.9,0.5-1.7,1.1-2.6,1.6c-4.3,2.7-8.4,5.3-12.5,7.6l-2.4,1.4
		l-2.4,1.4l-2.3,1.3l-2.2,1.3c-8.3,4.7-15.9,8.6-22.4,11.8l-1.6,0.8c-10.6,5.2-18.1,8.2-21,9.3l-0.4,0.2l-0.6,0.2l-0.1,0.1h-0.1
		l-0.2-0.1h-0.2l-1.1-0.4l-0.5-0.2c-0.9-0.3-2-0.8-3.4-1.4l-0.5-0.2c-1.8-0.8-3.9-1.7-6.3-2.8l-1.4-0.6
		c-13.6-6.2-26.8-13.1-39.7-20.6c-0.8-0.5-1.6-0.9-2.4-1.4c-15.5-9.1-30.4-19.2-44.8-30l-2.6-2c-1-0.8-2-1.5-3-2.3l-2.8-2.2
		c-6.2-4.9-12.4-10.2-18.6-15.7l-1.5-1.4c-1.5-1.4-3.1-2.8-4.6-4.2l-1.7-1.6l-1.8-1.7l-2-1.9c-1.1-1.1-2.2-2.2-3.3-3.3
		c-0.8-0.8-1.7-1.7-2.5-2.5l-0.2-0.3c-0.8-0.8-1.7-1.7-2.5-2.5c-0.7-0.7-1.3-1.4-2-2l-2-2.1l-0.1-0.2l-2.1-2.2
		c-2.2-2.4-4.5-4.9-6.7-7.4c-0.7-0.8-1.4-1.5-2-2.3c-0.6-0.7-1.1-1.3-1.7-1.9l-2-2.4c-2.8-3.4-5.6-6.9-8.4-10.5
		c-0.8-1-1.5-1.9-2.2-2.9c-1.9-2.5-3.7-5-5.6-7.5l-1.7-2.4c-0.1-0.2-0.2-0.3-0.4-0.5c-0.6-0.9-1.2-1.7-1.8-2.5
		c-1-1.4-1.9-2.8-2.8-4.2c-0.7-1.1-1.5-2.2-2.2-3.3l-0.1-0.2l-2.2-3.6c-0.1-0.1-0.1-0.2-0.2-0.4c-0.7-1.1-1.4-2.3-2.1-3.4
		s-1.5-2.5-2.2-3.7s-1.4-2.4-2.1-3.7c-3.1-5.3-6-10.8-8.8-16.5c-0.4-0.7-0.7-1.4-1-2.1c-0.2-0.4-0.4-0.9-0.6-1.4
		c-0.4-0.9-0.8-1.8-1.2-2.6c-0.4-0.8-0.8-1.6-1.1-2.5l-0.2-0.5c-0.3-0.6-0.5-1.2-0.8-1.8l-0.3-0.6c-0.3-0.6-0.5-1.2-0.8-1.8
		c-1-2.2-1.9-4.4-2.8-6.6c-0.4-1-0.8-2-1.2-3.1c-0.1-0.3-0.2-0.5-0.3-0.8c-0.4-1-0.8-2-1.2-3s-0.7-1.8-1-2.7l-0.2-0.6
		c-0.2-0.5-0.3-0.9-0.5-1.4c-0.7-1.8-1.3-3.6-1.9-5.4c-0.2-0.6-0.4-1.2-0.6-1.8c-0.3-0.8-0.5-1.5-0.8-2.3c-0.1-0.4-0.3-0.8-0.4-1.2
		c-0.3-0.8-0.5-1.6-0.8-2.4c-0.3-1-0.6-2.1-0.9-3.1c-0.2-0.6-0.4-1.3-0.6-2c-0.4-1.3-0.7-2.6-1.1-3.9c-0.2-0.7-0.4-1.4-0.5-2
		c-0.1-0.5-0.3-1-0.4-1.5c-0.3-1.2-0.6-2.5-0.9-3.7c-0.2-0.7-0.4-1.4-0.5-2.1c-0.1-0.3-0.1-0.6-0.2-0.9c-0.4-1.5-0.7-3.1-1.1-4.7
		c-0.3-1.2-0.5-2.3-0.7-3.5c-0.1-0.7-0.3-1.4-0.4-2.1s-0.3-1.6-0.5-2.5c0-0.2,0-0.3-0.1-0.5c-0.1-0.8-0.3-1.6-0.5-2.5
		s-0.3-1.8-0.5-2.8s-0.3-1.8-0.5-2.7c-0.6-3.7-1.1-7.4-1.6-11.2c-1.5-12.5-2.3-25.1-2.2-37.7V1.5H481.5z"/>
</g>
<g id="Layer_2_00000056393160757038062540000010836190530807865524_">
	<path class="st1" d="M71.8,250.8c-1.3,4.9-7.6,8.3-8,8.5l0,0c-32.7-3-27.8-31.7-27.8-31.7C62.6,220.4,71.8,250.8,71.8,250.8z"/>
	<path class="st1" d="M95.5,257.1L95.5,257.1c-0.7,29-17.7,34.4-17.7,34.4c-15.6-3.5-14-35.2-14-35.2l0,0l9.8-4L95.5,257.1z"/>
	<path class="st1" d="M131.7,253.9c-1,43.3-34,39.5-34,39.5c4.2-14.5,8.4-36.2,8.4-36.2l17.3-7.4L131.7,253.9z"/>
	<path class="st1" d="M129,243.4l-5,4.6h-13.7c-0.4-0.1-15.8-5.4-10.5-30.5C99.7,217.6,123.4,214.5,129,243.4z"/>
	<path class="st1" d="M124.4,175.2c-0.4,1.7-0.8,3.4-1.3,5c-11.4,38.7-40.7,28.4-40.7,28.4c-4.7-27.6,22.8-32.5,35.6-33.3
		C121.9,175.1,124.4,175.2,124.4,175.2z"/>
	<path class="st1" d="M175.3,202.6c0,0-37.6-13.5-29.6-39C145.7,163.6,192.8,156,175.3,202.6z"/>
	<path class="st1" d="M133.3,160.4c-24-3-15.1-37.1-14.8-38l0,0c2-8.6,21.8,2.1,21.8,2.1c0.1,1.8,0.1,3.5,0.1,5.1
		C140.7,158.9,133.3,160.4,133.3,160.4z"/>
	<path class="st1" d="M95.5,102.7c0,0-0.8,1.5-2.4,3.8C87.8,114,73,129.2,46.5,119c0,0,9-21.8,41-17.7
		C90,101.6,92.7,102.1,95.5,102.7z"/>
	<path class="st1" d="M80.1,93.1C80,93,80,93,80.1,93.1c0,0-27.5,10.2-40.5-12c0,0,14.5-15.5,30-6.8c3.1,1.7,6.1,4.3,9.2,8.2
		C96.6,105.2,81.1,93.8,80.1,93.1z"/>
	<path class="st1" d="M71.5,66.6c-0.1,0.5-0.3,1.1-0.5,1.6c0,0-0.9,0.2-2.6,0.3c-8,0.7-32.6-0.3-38-37.2
		C39.3,31.3,79.3,38.3,71.5,66.6z"/>
	<path class="st1" d="M119.3,84.1c0,0-38.5,5.8-35-28.5c0,0,19.8-4.2,25.9,8.6c0,0-9.1-18.9,10.5-37.1c0,0,14.7,7.7,12.1,41.5
		c0,0,23.6-3,27.8,21.5c0,0-16.4,13.9-31.2-4.7h-5.2L119.3,84.1z"/>
	<path class="st1" d="M265,109.3c0,0,22.4-27.5,41.3-19.4c0,0,8.6,24.5-42.9,29.9L265,109.3z"/>
	<path class="st1" d="M396.3,93.4c0,0,31.5-1.4,38.7,24.1c0,0-33.6,17.7-44.8-18L396.3,93.4z"/>
	<path class="st1" d="M305.3,187.7c0,0-9.1-28.9,9.6-41.3c0,0,19.1,11,7.5,41.3H305.3z"/>
	<path class="st1" d="M350.6,180.7c0,0-22.2-15.2-22.9-26.8s10.3-3.3,12.6-14.5c2.3-11.2,5.6-16.6,16.6-13.8c11,2.8,10,21.9,1.9,25
		c-8.2,3-6.1,17.7-2.1,23.8S350.6,180.7,350.6,180.7z"/>
	<path class="st1" d="M352.2,187.7c0,0,15.6,30.3,38,21c0,0-3.3-29.9-19-43.6L352.2,187.7z"/>
	<path class="st1" d="M383.3,157.3c0,0-7.2-25.3,5.8-35.5c0,0,20.1,2.6,13.1,37.4c0,0,28.7-7.9,34.1,29.9
		C436.2,189.1,400.8,202.4,383.3,157.3z"/>
	<path class="st1" d="M351.1,241.8c0,0-3.7-18.4,5.8-31.4c0,0,26.8,12.9,4,38.8L351.1,241.8z"/>
	<path class="st1" d="M357.8,120.7c33.5-8.8,45.8-29.9,48.8-36.5c0.5-1-0.1-2.2-1.2-2.4l-6-1.3c-0.9-0.2-1.8,0.3-2,1.2
		c-5.6,22.3-43.3,23.6-53.6,25c-10.5,1.4-7-11.9-4.9-19.6c1.7-6.2-5.2-5.1-8-4.5c-0.7,0.2-1.2,0.7-1.3,1.4
		c-0.5,2.4-1.7,9.1-3.3,19.9c-2.1,14-42.7,33.6-53.2,30.8s-2.8-29.4-2.1-37.8c0.6-7.4,16.4-28.9,20.2-34c0.5-0.6,0.5-1.5,0-2.1
		l-2.5-3.2c-0.8-1-2.3-0.9-2.9,0.2C278.1,71.3,267.1,92,260.5,92c-7,0-2.8-19.6-8.4-20.3c-4.8-0.6-7,5.5-7.6,7.2
		c-0.1,0.3-0.1,0.6,0,0.9c0.8,3.7,6.8,30.4,6.2,40.2c-0.7,10.5,8.4,22.4,14.7,26.6c6.3,4.2-5.6,53.2-19.6,59.3s-39.2-28.5-23.8-39
		c11.9-8.1,5.4-18.8,1.8-23.2c-0.8-1-2.4-0.8-2.9,0.4l-3.8,8.1c-8.4,14.7-41.3,2.1-44.1-25.2c-2.4-23.4,16.3-27.3,21.7-27.9
		c0.8-0.1,1.5-0.8,1.5-1.6l0.5-7.1c0.1-1-0.8-1.9-1.8-1.9c-3.8,0.2-12.2,0.4-14.9-0.1s-1.6-9-1-12.8c0.2-1-0.6-1.9-1.6-2l-6.5-0.4
		c-1.1-0.1-2,0.9-1.8,2c4.1,35.1-10.8,38.5-10.8,38.5c-8,4.9-17.5,4.2-27.3,0.5c-0.7-0.3-1.1-0.9-1.1-1.7c0-4.8,0.2-22.7,0-26.4
		c-0.2-3.2-6.2-2.7-9-2.3c-0.8,0.1-1.5,0.8-1.5,1.7c-0.1,5,0,14.8,0,19.9c0,1.4-1.5,2.2-2.7,1.5C96.8,94.5,78.4,74.4,71.5,66.6
		c0,0,0,0-0.1-0.1c-1.1-1.3-3.2-0.4-3.1,1.3c0,0.2,0,0.5,0.1,0.8c0.1,1.6,0.5,3.5,1.1,5.7C71,79.1,73.9,85.5,80,93l0,0
		c2.1,2.6,4.6,5.4,7.5,8.2c1.3,1.3,2.8,2.7,4.3,4c0.5,0.4,0.9,0.8,1.4,1.2c8.2,7.1,17,12.2,25.3,15.8c8,3.5,15.7,5.8,21.9,7.2
		c7.1,1.6,12.5,2.1,14.7,2.3c0.7,0.1,1.2,0.5,1.5,1.1c10.1,27.3,37.5,39.6,40.9,43.7c2.7,3.3,10.2,19.1,13.5,26
		c0.6,1.3-0.5,2.7-1.9,2.4c-20.3-4.2-45.4-1.6-54.9-2.5c-14.7-1.4-11.9-35-28.7-35c-11.7,0-28.4-2-37.6-3.3c-2.1-0.3-3.8-0.5-5-0.7
		l0,0c-1-0.1-1.5-0.2-1.5-0.2c0.6,1.1,5.6-0.3,6.4,0.8c0.3,0.3,0.6,0.6,0.8,0.9l-5.7-1.5c1.1,1.1,8.1,3.6,9.4,4.6
		c7.5,5.2,18.6,8.1,26.1,8.1c1.4,0,2.6,0.4,3.9,1.1c1.8,1,3.5,2.7,5,4.9c5.7,7.7,9.7,20.7,12.1,26.9c2.7,6.9,18.2,10.4,25.5,11.6
		c1.5,0.3-2.3,4.7-3.5,5.6c-10.3,8.1-21.5,13.4-32.5,17c-6.4,2.1-12.8,3.6-18.8,4.6l0,0c-18.1,3.1-33.2,2.3-38.5,2.8
		c-0.4,0-0.7,0.1-1,0.1c-5.1,0.9-7.7-0.7-8.1,1.4c-0.2,1,4.2,4.1,5.2,4.2c4.7,0.2,17.8,0.6,30,0.8c3.7,0,7.3,0.1,10.5,0.1
		c4.2,0,7.8-0.1,10.3-0.2c4.3-0.2,9.5-1.1,15.4-3.1c11.1-3.7,25.1-11.4,42-25.6c24.4-20.4,40.9,10.4,43,13.7
		c0.1,0.2,0.2,0.4,0.2,0.7c1,7.3,15.4,122.9-27.3,122.9c-44.1,0-42,9.8-52.5,12.6c-7.7,2.1-22.4-5.8-29.5-10
		c-1.4-0.9-3.1,0.6-2.5,2.1c1.8,4.5,5.2,11.3,11,16.7c9.5,8.7,6.3,21.7,21,18.2s27.3-26.2,44.1-17.8c16.8,8.4-31.5,15.4-31.5,43.1
		c0,0-0.7,16.5,14.7,14.7c0,0,4.9,2.1,7.7-7.7c2.8-9.8-8,2.1-6.6-10.5s10.9-0.3,15.4-9.1c4.6-8.7,10.9-13.3,16.1-15.4l0,0h0.1
		c4.3-1.4-2.4,15.4-9.8,25.1c-1.5,2-0.4,4.9,2.1,5.4c3.8,0.7,9.3,0,15.6-5.9c11.6-10.9,9,10.8,1.4,16.1
		c-8.7,6.2,10.2,33.5,28.8,17.9c0.3-0.3,0.5-0.6,0.6-1c0.5-2.5,2.8-11.9,9.5-13.8c7.1-1.9,11.5,4.8,8.6,12.7c-0.4,1.2,0.1,2.5,1.2,3
		c3.9,1.6,12,3.6,13.3-6.6c1.7-13.7-20-20.3-20-29.4c0-8.1,1.7-19.2,7.4-18.4c0.7,0.1,1.5,0.4,2.4,0.9c7.7,4.6,2.6,10.5,10.3,19.6
		c7.6,9.1,12.1,2.4,14.9,11.9s22.8,1.4,24.9-6.6s-18.6-1.4-21-11.5c-1.6-6.8-5.8-15.1-8.3-19.9c-0.8-1.5,0.7-3.1,2.2-2.4
		c4.7,2,11.9,6.3,15.9,15.3c6.3,14,29.8,7.4,34.3,2.1s-22.8-8-27.7-15.1c-4.1-5.8-13.2-12.9-13.4-19.2c-0.1-1.3,0.3-2.6,1.1-3.8
		c4.9-7.1,20.7,14.6,28.4,20.5c7.7,5.9,28,14.7,32.2,4.9c4.2-9.8-7-6.3-8-15.1c-0.7-5.7,22-13.2,33.2-14.3c1.5-0.1,2.1-1.9,1.1-2.9
		c-4.2-4.4-13.2-11.3-21.4-2.1c-3.2,3.6-7,5.9-10.7,7.2c-8.5,3.2-18.1,1.6-25.6-3.6c-32.5-22.1-34.8,1.6-51.2-13.5
		c-17.5-16.1-16.8-77-10.5-110.6c2.8-15.1,11.6-21.7,20.4-24.4c9.6-2.9,20.1-1.3,28.6,4c20.8,13,51.7,23.3,60.1,26
		c0.5,0.1,0.8-0.5,0.4-0.8l-14.3-11.8c-11.2-9.2-27.8-21.5-36.9-28.2c-3.7-2.7-3.7-8.3,0-11c17.1-12.5,30.1,5.2,38.2-14.1
		c8.5-20.2,26.7-25.3,29.1-25.8c0.2,0,0.4-0.1,0.5-0.2c1.7-1.1,10.9-7.7-3.8-9.6c-16.1-2.1-28,11.9-33.6,19.6
		c-5.6,7.7-21.7,6.3-37.1,9.8c-11.8,2.7-28.4,16.8-35.6,23.3c-1.2,1.1-3.1,0.1-2.9-1.6C285.7,127.2,318.7,131,357.8,120.7z
		 M234.4,445.6c0,0,1,7-5.7,7c-6.6,0-14.7-4.2-10.5-15.8c4.2-11.5-1.7-20.7,2.5-24.1c4.2-3.5,14.9-7,13.7,4.6
		C233.2,428.8,234.4,445.6,234.4,445.6z"/>
	<g>
		<path d="M276.3,206.9l-12.9,16l11.3-17.2C275.4,204.6,277.1,205.9,276.3,206.9L276.3,206.9z"/>
	</g>
	<g>
		<path d="M185.1,387.7c8.2-2.9,16.4-6.2,23.6-11.1c-3.4,2.8-7.2,5.1-11,7.2c-3.9,2.1-7.8,4-11.9,5.8
			C184.6,390.1,183.8,388.2,185.1,387.7L185.1,387.7z"/>
	</g>
	<g>
		<path d="M199.1,401.5c8.2-3.3,16.8-7.7,21.6-15.5c-1,2-2.4,3.9-3.9,5.6c-4.7,5.1-10.7,8.7-16.9,11.7
			C198.6,403.9,197.8,402,199.1,401.5L199.1,401.5z"/>
	</g>
	<g>
		<path d="M230.8,409.7c1.5-6.9,2.6-14,3.6-21c-0.3,5.3-0.6,10.7-1.1,16c-0.2,1.8-0.3,3.5-0.6,5.4c-0.1,0.5-0.6,0.9-1.1,0.9
			C231,410.8,230.6,410.2,230.8,409.7L230.8,409.7z"/>
	</g>
	<g>
		<path d="M257.3,408.1c-2-4.3-2.9-9.1-3.1-13.8c0.8,4.5,2.3,9,4.8,12.8C259.8,408.3,257.9,409.3,257.3,408.1L257.3,408.1z"/>
	</g>
	<g>
		<path d="M281.5,400.7c-6-3.1-11.8-6.9-16-12.1c3.5,3.6,7.8,6.1,12.3,8.3c1.5,0.7,3,1.4,4.5,1.9
			C283.5,399.4,282.7,401.3,281.5,400.7L281.5,400.7z"/>
	</g>
	<g>
		<path d="M292.4,383.6c-8.2-2.4-16.6-5.1-23.9-9.8c3.8,2.1,7.8,3.5,11.9,4.8c4.1,1.2,8.3,2.3,12.4,3.1
			C294.2,381.9,293.8,383.9,292.4,383.6L292.4,383.6z"/>
	</g>
	<g>
		<path d="M210.9,203.4c7.9,5.4,15.4,11.7,20.9,19.5c-3-3.7-6.5-6.9-10.2-9.9c-3.7-2.9-7.7-5.6-11.8-7.9
			C208.6,204.4,209.7,202.7,210.9,203.4L210.9,203.4z"/>
	</g>
	<path class="st1" d="M365,251.2c0,0,42.5-31.7,64,0C429,251.2,400.4,299.7,365,251.2z"/>
	<path class="st1" d="M366.3,252.9c0,0-34.6,36.3-5,55c0,0,22.6-5.3,21.5-39.4C382.8,268.5,370.6,261,366.3,252.9z"/>
	<path class="st1" d="M89.2,166.5c0,0-0.3,1.3-1.2,3.3c-3.3,7.9-14.2,26.7-41.5,19.1c0,0,3.2-20.5,27.2-23c2.9-0.3,6.2-0.4,9.7-0.1
		c0.2,0,0.3,0,0.5,0c0,0,0,0,0.1,0c0.4,0,0.8,0.1,1.1,0.1C86.5,166.1,87.8,166.2,89.2,166.5z"/>
	<path class="st1" d="M88.8,165.2c0,0-49.5,2.1-49.8-31.3C39,133.9,69.4,116.4,88.8,165.2z"/>
	<path class="st1" d="M92,162.3c-0.8,0.8-1.7,1.7-2.7,2.5c-0.3,0.3-0.6,0.5-0.8,0.8c0,0,0,0,0-0.1c-0.1-0.1-0.2-0.4-0.3-0.8
		c-0.3-0.7-0.7-1.7-1.1-3.1c-0.1-0.2-0.1-0.4-0.2-0.6l0,0c-3-9.3-7.2-30,12.5-38.5C99.2,122.4,116.3,138.2,92,162.3z"/>
	<path class="st1" d="M328.7,89.1c0,0-32.4-8.7-23.1-28c0,0,15.2-3.2,21.9,4c0,0-4-30.3,14.9-30.8c0,0,21.9,21.7-1.9,37.3
		c0,0,28.9-5.9,31.7,14C372.3,85.7,370.7,100.4,328.7,89.1z"/>
	<path class="st1" d="M397.5,88.4c0,0-24-5.7-25.2-29.9c0,0,12.6-3.6,28.9,8.5c0,0,3.3-28.9,38-31.3
		C439.3,35.8,459.3,90.4,397.5,88.4z"/>
	<path class="st1" d="M171.4,81.3c0,0-18-7-12.6-45.5c0,0,22.4,5.4,25.2,15.4S183,76.3,171.4,81.3z"/>
	<path class="st1" d="M193.4,96.6c-0.7-1.9-1.1-3.8-1.3-5.8c-0.6-8.6-1.5-32.6,6.1-40.8c9.3-10,17,6.8,16.3,17.3
		s-10.5,11.1-8.4,18.1c2.1,7.1,13.1,3.9,15.6,11.2c2.6,7.3-5.1,19.9-5.1,19.9S200.9,116.3,193.4,96.6L193.4,96.6z"/>
	<path class="st1" d="M248.9,84.1c0,0-25.4,5.6-29.9-4.2c-4.4-9.8,8.2-13.1,16.7-11.2c0,0-16.9-15.9-17.6-23.8s5.1-17.7,11.9-22.2
		c0,0,18.4,6.1,15.6,32.9c0,0,15.9-5.8,29.4-5.6C275,50,280.6,65,248.9,84.1z"/>
	<path class="st1" d="M284.8,65.3c0,0-5.8-16.7,3-27C296.7,28,313,25.4,313,25.4S326.3,58.9,284.8,65.3z"/>
	<path class="st1" d="M220.8,154.5c0,0-21.2-14.1-19.4-32.1c0,0,17.3-3.6,24.7,7.1c0,0,0.9-25.4,14.9-27.3c0,0,15.4,12.6-2.8,42
		c0,0,19.8,4.9,14.2,30.1C252.6,174.4,238.3,172.1,220.8,154.5z"/>
</g>
<radialGradient id="shine_00000093894472059483100130000013587419241155216788_" cx="567.6285" cy="904.9218" r="405" gradientTransform="matrix(0.8051 0 0 0.803 -279.8561 -550.8586)" gradientUnits="userSpaceOnUse">
	<stop  offset="0" style="stop-color:#FFFFFF;stop-opacity:0.3"/>
	<stop  offset="0.2" style="stop-color:#FFFFFF;stop-opacity:0.2"/>
	<stop  offset="0.6" style="stop-color:#666666;stop-opacity:0.1"/>
	<stop  offset="1" style="stop-color:#000000;stop-opacity:0.13"/>
</radialGradient>
<path id="shine" style="fill:url(#shine_00000093894472059483100130000013587419241155216788_);stroke:#000000;stroke-width:2.4122;" d="
	M1.6,0.7v206.4c0,229.7,239.9,319.6,239.9,319.6s239.9-89.9,239.9-319.6V0.7H1.6z"/>
</svg>
