<?xml version="1.0" encoding="UTF-8" standalone="no"?>
<svg
   viewBox="0 0 483 527.48"
   version="1.1"
   id="svg45831"
   sodipodi:docname="House Royce GoT.svg"
   inkscape:version="1.2.1 (9c6d41e410, 2022-07-14)"
   xmlns:inkscape="http://www.inkscape.org/namespaces/inkscape"
   xmlns:sodipodi="http://sodipodi.sourceforge.net/DTD/sodipodi-0.dtd"
   xmlns="http://www.w3.org/2000/svg"
   xmlns:svg="http://www.w3.org/2000/svg">
  <sodipodi:namedview
     id="namedview45833"
     pagecolor="#ffffff"
     bordercolor="#000000"
     borderopacity="0.25"
     inkscape:showpageshadow="2"
     inkscape:pageopacity="0.0"
     inkscape:pagecheckerboard="0"
     inkscape:deskcolor="#d1d1d1"
     showgrid="false"
     inkscape:zoom="0.79339504"
     inkscape:cx="144.31651"
     inkscape:cy="310.05992"
     inkscape:window-width="1920"
     inkscape:window-height="1017"
     inkscape:window-x="-8"
     inkscape:window-y="-8"
     inkscape:window-maximized="1"
     inkscape:current-layer="svg45831" />
  <defs
     id="defs45640">
    <style
       id="style45638">.cls-1{fill:#f2f2de;stroke-width:3px;}.cls-1,.cls-3{stroke:#000;}.cls-2{fill:#cc6924;}.cls-3{fill:none;stroke-linecap:round;stroke-linejoin:round;stroke-width:5px;}</style>
    <radialGradient
       id="rg"
       gradientUnits="userSpaceOnUse"
       cx="220"
       cy="220"
       r="405"
       gradientTransform="matrix(0.80510068,0,0,0.80302287,-0.39020261,-0.9020141)">
      <stop
         style="stop-color:#ffffff;stop-opacity:.3"
         offset="0"
         id="stop753" />
      <stop
         style="stop-color:#ffffff;stop-opacity:.2"
         offset=".2"
         id="stop755" />
      <stop
         style="stop-color:#666666;stop-opacity:.1"
         offset=".6"
         id="stop757" />
      <stop
         style="stop-color:#000000;stop-opacity:.13"
         offset="1"
         id="stop759" />
    </radialGradient>
  </defs>
  <title
     id="title45642">House Royce</title>
  <g
     id="Layer_2"
     data-name="Layer 2">
    <path
       class="cls-1"
       d="M927,122.76V328.6a314.37,314.37,0,0,1-2.28,38c-.11.93-.24,1.86-.36,2.79s-.24,1.86-.39,2.79q-.7,5.05-1.61,10c-.07.44-.15.87-.23,1.31-.15.8-.29,1.6-.45,2.39s-.34,1.8-.51,2.69l-.45,2.22-.24,1.16c-.15.71-.3,1.44-.47,2.15q-.8,3.55-1.61,7l-.58,2.32-.52,2q-1.52,5.88-3.27,11.61c-.29,1-.59,1.94-.9,2.92l-.6,1.88c-.19.63-.39,1.25-.6,1.86l-1.1,3.26c-.37,1.09-.68,2-1,3-.47,1.28-.92,2.55-1.39,3.81-.36,1-.73,2-1.11,3l-.19.49c-.43,1.14-.87,2.25-1.32,3.37s-.87,2.16-1.32,3.19a3.35,3.35,0,0,1-.18.42c-.4,1-.8,2-1.25,3s-.75,1.75-1.13,2.62l-.66,1.49c-.47,1.07-.95,2.12-1.44,3.15s-.9,2-1.36,2.93l-1,2.12c-.3.63-.6,1.25-.91,1.88-.63,1.32-1.31,2.64-2,4q-2.53,5-5.19,9.77l-2,3.57-.11.21q-2.13,3.71-4.33,7.33c-.71,1.2-1.46,2.39-2.18,3.54-.1.16-.19.31-.3.46-.55.89-1.12,1.78-1.69,2.66l-.66,1c-.65,1-1.31,2-2,3l-.13.18c-.66,1-1.32,2-2,3l-.45.67q-2.26,3.28-4.54,6.46l-.31.42c-.8,1.07-1.54,2.14-2.31,3.19s-1.66,2.23-2.5,3.32q-2.29,3-4.61,6l-.8,1c-.73.93-1.48,1.85-2.22,2.76L854,526.61l-.57.69L851,530.1q-2.83,3.32-5.72,6.53c-.75.85-1.52,1.69-2.29,2.51l-2.22,2.39q-3,3.19-5.93,6.24-2.76,2.83-5.53,5.59c-.91.91-1.84,1.82-2.76,2.71s-1.85,1.78-2.78,2.67l-2.28,2.11c-.68.65-1.36,1.28-2.05,1.91a448.64,448.64,0,0,1-61.76,47.47c-.86.55-1.73,1.1-2.58,1.6q-6.42,4.07-12.46,7.63l-2.41,1.4-2.36,1.36-2.34,1.35-2.22,1.28c-8.35,4.68-15.91,8.59-22.38,11.76l-1.61.8c-10.63,5.15-18.11,8.22-21,9.35l-.42.18-.61.23-.14.06h-.08l-.23-.1-.21,0-1.07-.42-.55-.23c-.87-.34-2-.8-3.36-1.38l-.47-.18c-1.76-.8-3.88-1.67-6.33-2.77l-1.39-.61a443.16,443.16,0,0,1-39.74-20.6c-.8-.45-1.61-.92-2.36-1.38a473.14,473.14,0,0,1-44.78-30l-2.62-2c-1-.75-2-1.52-2.95-2.29l-2.81-2.21c-6.19-4.92-12.43-10.15-18.64-15.69L558.08,566q-2.3-2.05-4.59-4.2l-1.67-1.57L550,558.54l-2-1.94c-1.12-1.07-2.24-2.16-3.34-3.26-.84-.8-1.69-1.67-2.52-2.51l-.24-.26q-1.25-1.25-2.5-2.51c-.66-.68-1.32-1.36-2-2l-2-2.07-.13-.15-2.1-2.24q-3.36-3.61-6.66-7.36c-.68-.8-1.36-1.55-2-2.35-.57-.65-1.12-1.28-1.66-1.94l-2-2.39q-4.26-5.11-8.39-10.48-1.13-1.45-2.24-2.92c-1.89-2.47-3.73-5-5.57-7.55l-1.68-2.39c-.13-.16-.24-.34-.36-.5-.59-.85-1.19-1.7-1.77-2.55-.95-1.38-1.89-2.77-2.82-4.17q-1.11-1.64-2.18-3.31l-.15-.24-2.22-3.47c-.07-.13-.15-.24-.22-.37-.71-1.14-1.41-2.27-2.1-3.4s-1.49-2.46-2.21-3.7-1.44-2.39-2.13-3.67q-4.6-8-8.77-16.47c-.35-.69-.69-1.38-1-2.08-.22-.44-.44-.89-.65-1.35-.43-.87-.8-1.75-1.25-2.63a27.17,27.17,0,0,1-1.15-2.47l-.23-.48c-.26-.58-.52-1.16-.8-1.75l-.26-.57c-.26-.58-.52-1.18-.8-1.77q-1.44-3.26-2.78-6.58c-.42-1-.8-2-1.23-3.07-.1-.26-.21-.53-.31-.8-.4-1-.8-2-1.16-3s-.68-1.82-1-2.74l-.23-.65c-.18-.45-.34-.91-.5-1.36q-1-2.69-1.89-5.44c-.21-.6-.4-1.21-.6-1.8-.26-.8-.51-1.54-.75-2.31-.14-.42-.26-.8-.39-1.22-.26-.8-.5-1.6-.75-2.39-.31-1-.61-2.06-.92-3.1-.18-.65-.39-1.28-.57-2-.37-1.28-.74-2.58-1.08-3.89-.19-.68-.37-1.35-.55-2-.13-.5-.26-1-.39-1.51-.32-1.22-.63-2.46-.92-3.7-.18-.7-.35-1.4-.52-2.11-.07-.29-.13-.57-.19-.85-.37-1.55-.71-3.11-1.07-4.69-.26-1.16-.5-2.33-.74-3.5-.14-.71-.29-1.43-.43-2.14s-.32-1.6-.47-2.45a2.13,2.13,0,0,0-.1-.47c-.15-.8-.3-1.64-.45-2.48s-.31-1.84-.47-2.77-.3-1.8-.45-2.71q-.87-5.52-1.56-11.17A314.73,314.73,0,0,1,447,328.58V122.76Z"
       transform="translate(-445.5 -121.26)"
       id="path45644" />
  </g>
  <g
     id="Layer_5"
     data-name="Layer 5">
    <rect
       class="cls-2"
       x="127.76"
       y="99.82"
       width="227.34"
       height="227.05"
       id="rect45647" />
  </g>
  <g
     id="Layer_4"
     data-name="Layer 4">
    <polygon
       class="cls-3"
       points="127.76 99.82 127.76 53.9 136.89 53.9 151.43 67.59 136.89 80.99 153.43 99.82 127.76 99.82"
       id="polygon45650" />
    <polyline
       class="cls-3"
       points="179.96 97.54 179.96 53.9 204.2 66.16 204.2 97.54"
       id="polyline45652" />
    <line
       class="cls-3"
       x1="242.71"
       y1="53.89"
       x2="242.71"
       y2="97.54"
       id="line45654" />
    <line
       class="cls-3"
       x1="228.45"
       y1="61.6"
       x2="256.4"
       y2="82.13"
       id="line45656" />
    <polyline
       class="cls-3"
       points="280.65 53.9 280.65 75.72 305.18 61.6 305.18 97.54"
       id="polyline45658" />
    <line
       class="cls-3"
       x1="353.67"
       y1="61.6"
       x2="398.74"
       y2="61.6"
       id="line45660" />
    <polyline
       class="cls-3"
       points="353.67 86.7 357.67 86.7 373.92 71.86 387.33 86.7 400.17 69.01"
       id="polyline45662" />
    <line
       class="cls-3"
       x1="355.1"
       y1="160.01"
       x2="400.17"
       y2="160.01"
       id="line45664" />
    <line
       class="cls-3"
       x1="372.5"
       y1="173.7"
       x2="392.47"
       y2="144.6"
       id="line45666" />
    <line
       class="cls-3"
       x1="355.1"
       y1="217.63"
       x2="400.17"
       y2="217.63"
       id="line45668" />
    <polyline
       class="cls-3"
       points="355.1 225.33 369.07 240.44 382.48 225.33 393.61 240.44 400.17 234.17"
       id="polyline45670" />
    <polyline
       class="cls-3"
       points="355.1 256.99 400.17 256.99 383.91 273.25 400.17 287.8 355.1 287.8"
       id="polyline45672" />
    <line
       class="cls-3"
       x1="355.1"
       y1="297.78"
       x2="400.17"
       y2="297.78"
       id="line45674" />
    <line
       class="cls-3"
       x1="372.5"
       y1="297.78"
       x2="382.48"
       y2="308.9"
       id="line45676" />
    <line
       class="cls-3"
       x1="388.64"
       y1="297.78"
       x2="398.63"
       y2="308.9"
       id="line45678" />
    <polyline
       class="cls-3"
       points="381.06 326.87 368.5 340.57 385.33 357.11"
       id="polyline45680" />
    <polyline
       class="cls-3"
       points="398.91 326.87 386.36 340.57 400.17 354.14"
       id="polyline45682" />
    <polyline
       class="cls-3"
       points="326.86 326.87 347.68 340.51 324.58 352.26 347.68 371.09"
       id="polyline45684" />
    <polyline
       class="cls-3"
       points="283.22 326.87 283.22 369.66 298.9 355.4 314.31 371.09 314.31 326.87"
       id="polyline45686" />
    <line
       class="cls-3"
       x1="217.9"
       y1="371.09"
       x2="217.9"
       y2="326.87"
       id="line45688" />
    <polyline
       class="cls-3"
       points="219.04 355.4 250.7 355.4 250.7 371.09"
       id="polyline45690" />
    <line
       class="cls-3"
       x1="250.7"
       y1="355.4"
       x2="250.7"
       y2="326.87"
       id="line45692" />
    <line
       class="cls-3"
       x1="234.87"
       y1="355.4"
       x2="234.87"
       y2="326.87"
       id="line45694" />
    <line
       class="cls-3"
       x1="203.06"
       y1="326.87"
       x2="203.06"
       y2="369.95"
       id="line45696" />
    <polyline
       class="cls-3"
       points="171.69 355.4 187.37 340.51 203.06 354.14"
       id="polyline45698" />
    <polyline
       class="cls-3"
       points="173.96 371.09 187.37 358.35 203.06 370.84"
       id="polyline45700" />
    <polyline
       class="cls-3"
       points="83.26 325.73 88.11 325.73 104.94 344.27 90.39 358.35 106.94 371.09"
       id="polyline45702" />
    <line
       class="cls-3"
       x1="113.78"
       y1="371.09"
       x2="113.78"
       y2="324.31"
       id="line45704" />
    <line
       class="cls-3"
       x1="83.26"
       y1="286.08"
       x2="126.62"
       y2="286.08"
       id="line45706" />
    <polyline
       class="cls-3"
       points="355.1 369.95 355.1 326.87 400.17 326.87"
       id="polyline45708" />
    <polyline
       class="cls-3"
       points="83.26 269.82 88.96 262.69 101.52 276.96 113.78 262.69 127.76 278.1"
       id="polyline45710" />
    <polyline
       class="cls-3"
       points="92.96 231.03 83.83 247.58 127.76 247.58"
       id="polyline45712" />
    <polyline
       class="cls-3"
       points="83.83 190.24 96.67 205.07 83.26 215.91 127.76 215.91"
       id="polyline45714" />
    <polyline
       class="cls-3"
       points="99.02 186.82 115.28 205.07 101.87 215.91"
       id="polyline45716" />
    <line
       class="cls-3"
       x1="83.26"
       y1="179.12"
       x2="127.76"
       y2="179.12"
       id="line45718" />
    <polyline
       class="cls-3"
       points="102.37 179.12 113.78 165.14 97.52 148.03"
       id="polyline45720" />
    <polyline
       class="cls-3"
       points="83.83 179.12 96.38 167.42 83.55 152.59"
       id="polyline45722" />
    <polygon
       class="cls-3"
       points="127.76 134.33 83.26 99.53 129.29 99.17 84.01 133.84 127.76 134.33"
       id="polygon45724" />
    <polyline
       class="cls-3"
       points="129.47 326.87 355.1 326.87 355.1 99.53 400.17 99.53 388.76 124.64 355.1 124.64"
       id="polyline45726" />
    <polyline
       class="cls-3"
       points="355.1 99.53 127.76 99.82 129.47 326.87 129.47 358.35 156.57 371.09 156.57 326.87"
       id="polyline45728" />
    <circle
       cx="103.23"
       cy="76.71"
       r="5.13"
       id="circle45730" />
    <circle
       cx="371.07"
       cy="190.81"
       r="5.13"
       id="circle45732" />
    <circle
       cx="152"
       cy="131.77"
       r="12.69"
       id="circle45734" />
    <circle
       cx="152"
       cy="161.86"
       r="12.69"
       id="circle45736" />
    <circle
       cx="152"
       cy="191.95"
       r="12.69"
       id="circle45738" />
    <circle
       cx="152"
       cy="220.91"
       r="12.69"
       id="circle45740" />
    <circle
       cx="152"
       cy="251"
       r="12.69"
       id="circle45742" />
    <circle
       cx="152"
       cy="281.09"
       r="12.69"
       id="circle45744" />
    <circle
       cx="181.95"
       cy="145.89"
       r="12.69"
       id="circle45746" />
    <circle
       cx="181.95"
       cy="175.98"
       r="12.69"
       id="circle45748" />
    <circle
       cx="181.95"
       cy="206.07"
       r="12.69"
       id="circle45750" />
    <circle
       cx="181.95"
       cy="235.03"
       r="12.69"
       id="circle45752" />
    <circle
       cx="181.95"
       cy="265.12"
       r="12.69"
       id="circle45754" />
    <circle
       cx="181.95"
       cy="295.21"
       r="12.69"
       id="circle45756" />
    <circle
       cx="212.19"
       cy="131.13"
       r="12.69"
       id="circle45758" />
    <circle
       cx="212.19"
       cy="161.22"
       r="12.69"
       id="circle45760" />
    <circle
       cx="212.19"
       cy="191.31"
       r="12.69"
       id="circle45762" />
    <circle
       cx="212.19"
       cy="220.26"
       r="12.69"
       id="circle45764" />
    <circle
       cx="212.19"
       cy="250.36"
       r="12.69"
       id="circle45766" />
    <circle
       cx="212.19"
       cy="280.45"
       r="12.69"
       id="circle45768" />
    <circle
       cx="241.14"
       cy="145.1"
       r="12.69"
       id="circle45770" />
    <circle
       cx="241.14"
       cy="175.2"
       r="12.69"
       id="circle45772" />
    <circle
       cx="241.14"
       cy="205.29"
       r="12.69"
       id="circle45774" />
    <circle
       cx="241.14"
       cy="234.24"
       r="12.69"
       id="circle45776" />
    <circle
       cx="241.14"
       cy="264.33"
       r="12.69"
       id="circle45778" />
    <circle
       cx="241.14"
       cy="294.43"
       r="12.69"
       id="circle45780" />
    <circle
       cx="271.38"
       cy="161.29"
       r="12.69"
       id="circle45782" />
    <circle
       cx="271.38"
       cy="131.13"
       r="12.69"
       id="circle45784" />
    <circle
       cx="271.38"
       cy="191.38"
       r="12.69"
       id="circle45786" />
    <circle
       cx="271.38"
       cy="221.48"
       r="12.69"
       id="circle45788" />
    <circle
       cx="271.38"
       cy="250.43"
       r="12.69"
       id="circle45790" />
    <circle
       cx="271.38"
       cy="280.52"
       r="12.69"
       id="circle45792" />
    <circle
       cx="301.33"
       cy="144.46"
       r="12.69"
       id="circle45794" />
    <circle
       cx="301.33"
       cy="174.55"
       r="12.69"
       id="circle45796" />
    <circle
       cx="301.33"
       cy="204.65"
       r="12.69"
       id="circle45798" />
    <circle
       cx="301.33"
       cy="233.6"
       r="12.69"
       id="circle45800" />
    <circle
       cx="301.33"
       cy="263.69"
       r="12.69"
       id="circle45802" />
    <circle
       cx="301.33"
       cy="293.79"
       r="12.69"
       id="circle45804" />
    <circle
       cx="330.14"
       cy="131.41"
       r="12.69"
       id="circle45806" />
    <circle
       cx="330.14"
       cy="161.5"
       r="12.69"
       id="circle45808" />
    <circle
       cx="330.14"
       cy="191.6"
       r="12.69"
       id="circle45810" />
    <circle
       cx="330.14"
       cy="220.55"
       r="12.69"
       id="circle45812" />
    <circle
       cx="330.14"
       cy="250.64"
       r="12.69"
       id="circle45814" />
    <circle
       cx="330.14"
       cy="280.74"
       r="12.69"
       id="circle45816" />
    <circle
       cx="101.52"
       cy="303.34"
       r="5.13"
       id="circle45818" />
    <circle
       cx="265.82"
       cy="359.49"
       r="5.13"
       id="circle45820" />
    <circle
       cx="387.62"
       cy="190.81"
       r="5.13"
       id="circle45822" />
    <circle
       cx="341.41"
       cy="66.73"
       r="5.13"
       id="circle45824" />
    <circle
       cx="341.41"
       cy="84.42"
       r="5.13"
       id="circle45826" />
    <rect
       class="cls-3"
       x="81.83"
       y="53.89"
       width="318.33"
       height="317.19"
       id="rect45828" />
  </g>
  <path
     id="shine"
     d="M 1.2199984,0.7040319 V 207.08091 c 0,229.66454 239.9200016,319.6031 239.9200016,319.6031 0,0 239.92,-89.93856 239.92,-319.6031 V 0.7040319 Z"
     style="fill:url(#rg);stroke:#000000;stroke-width:2.41218" />
</svg>
