<?xml version="1.0" encoding="UTF-8" standalone="no"?>
<svg
   viewBox="0 0 483 527.48"
   version="1.1"
   id="svg26697"
   sodipodi:docname="House Selmy.svg"
   inkscape:version="1.2.1 (9c6d41e410, 2022-07-14)"
   xmlns:inkscape="http://www.inkscape.org/namespaces/inkscape"
   xmlns:sodipodi="http://sodipodi.sourceforge.net/DTD/sodipodi-0.dtd"
   xmlns="http://www.w3.org/2000/svg"
   xmlns:svg="http://www.w3.org/2000/svg">
  <sodipodi:namedview
     id="namedview26699"
     pagecolor="#ffffff"
     bordercolor="#000000"
     borderopacity="0.25"
     inkscape:showpageshadow="2"
     inkscape:pageopacity="0.0"
     inkscape:pagecheckerboard="0"
     inkscape:deskcolor="#d1d1d1"
     showgrid="false"
     inkscape:zoom="0.79339504"
     inkscape:cx="97.051275"
     inkscape:cy="267.20611"
     inkscape:window-width="1920"
     inkscape:window-height="1017"
     inkscape:window-x="-8"
     inkscape:window-y="-8"
     inkscape:window-maximized="1"
     inkscape:current-layer="svg26697" />
  <defs
     id="defs26609">
    <style
       id="style26607">.cls-1,.cls-14{fill:#170e0a;}.cls-1{stroke:#000;stroke-width:3px;}.cls-2{fill:#c08913;}.cls-3{fill:#a58453;}.cls-4{fill:#a48353;}.cls-5{fill:#a38252;}.cls-6{fill:#937648;}.cls-7{fill:#a58353;}.cls-8{fill:#a07f50;}.cls-9{fill:#a28152;}.cls-10{fill:#a08050;}.cls-11{fill:#a48352;}.cls-12{fill:#a18151;}.cls-13{fill:#9d7d4f;}</style>
    <radialGradient
       id="rg"
       gradientUnits="userSpaceOnUse"
       cx="220"
       cy="220"
       r="405"
       gradientTransform="matrix(0.80510068,0,0,0.80302287,0.049797,-0.6429179)">
      <stop
         style="stop-color:#ffffff;stop-opacity:.3"
         offset="0"
         id="stop753" />
      <stop
         style="stop-color:#ffffff;stop-opacity:.2"
         offset=".2"
         id="stop755" />
      <stop
         style="stop-color:#666666;stop-opacity:.1"
         offset=".6"
         id="stop757" />
      <stop
         style="stop-color:#000000;stop-opacity:.13"
         offset="1"
         id="stop759" />
    </radialGradient>
  </defs>
  <title
     id="title26611">House Selmy</title>
  <g
     id="Layer_2"
     data-name="Layer 2">
    <path
       class="cls-1"
       d="M927,122.76V328.6a314.37,314.37,0,0,1-2.28,38c-.11.93-.24,1.86-.36,2.79s-.24,1.86-.39,2.79q-.7,5.05-1.61,10c-.07.44-.15.87-.23,1.31-.15.8-.29,1.6-.45,2.39s-.34,1.8-.51,2.69l-.45,2.22-.24,1.16c-.15.71-.3,1.44-.47,2.15q-.8,3.55-1.61,7l-.58,2.32-.52,2q-1.52,5.88-3.27,11.61c-.29,1-.59,1.94-.9,2.92l-.6,1.88c-.19.63-.39,1.25-.6,1.86l-1.1,3.26c-.37,1.09-.68,2-1,3-.47,1.28-.92,2.55-1.39,3.81-.36,1-.73,2-1.11,3l-.19.49c-.43,1.14-.87,2.25-1.32,3.37s-.87,2.16-1.32,3.19a3.35,3.35,0,0,1-.18.42c-.4,1-.8,2-1.25,3s-.75,1.75-1.13,2.62l-.66,1.49c-.47,1.07-.95,2.12-1.44,3.15s-.9,2-1.36,2.93l-1,2.12c-.3.63-.6,1.25-.91,1.88-.63,1.32-1.31,2.64-2,4q-2.53,5-5.19,9.77l-2,3.57-.11.21q-2.13,3.71-4.33,7.33c-.71,1.2-1.46,2.39-2.18,3.54-.1.16-.19.31-.3.46-.55.89-1.12,1.78-1.69,2.66l-.66,1c-.65,1-1.31,2-2,3l-.13.18c-.66,1-1.32,2-2,3l-.45.67q-2.26,3.28-4.54,6.46l-.31.42c-.8,1.07-1.54,2.14-2.31,3.19s-1.66,2.23-2.5,3.32q-2.29,3-4.61,6l-.8,1c-.73.93-1.48,1.85-2.22,2.76L854,526.61l-.57.69L851,530.1q-2.83,3.32-5.72,6.53c-.75.85-1.52,1.69-2.29,2.51l-2.22,2.39q-3,3.19-5.93,6.24-2.76,2.83-5.53,5.59c-.91.91-1.84,1.82-2.76,2.71s-1.85,1.78-2.78,2.67l-2.28,2.11c-.68.65-1.36,1.28-2.05,1.91a448.64,448.64,0,0,1-61.76,47.47c-.86.55-1.73,1.1-2.58,1.6q-6.42,4.07-12.46,7.63l-2.41,1.4-2.36,1.36-2.34,1.35-2.22,1.28c-8.35,4.68-15.91,8.59-22.38,11.76l-1.61.8c-10.63,5.15-18.11,8.22-21,9.35l-.42.18-.61.23-.14.06h-.08l-.23-.1-.21,0-1.07-.42-.55-.23c-.87-.34-2-.8-3.36-1.38l-.47-.18c-1.76-.8-3.88-1.67-6.33-2.77l-1.39-.61a443.16,443.16,0,0,1-39.74-20.6c-.8-.45-1.61-.92-2.36-1.38a473.14,473.14,0,0,1-44.78-30l-2.62-2c-1-.75-2-1.52-2.95-2.29l-2.81-2.21c-6.19-4.92-12.43-10.15-18.64-15.69L558.08,566q-2.3-2.05-4.59-4.2l-1.67-1.57L550,558.54l-2-1.94c-1.12-1.07-2.24-2.16-3.34-3.26-.84-.8-1.69-1.67-2.52-2.51l-.24-.26q-1.25-1.25-2.5-2.51c-.66-.68-1.32-1.36-2-2l-2-2.07-.13-.15-2.1-2.24q-3.36-3.61-6.66-7.36c-.68-.8-1.36-1.55-2-2.35-.57-.65-1.12-1.28-1.66-1.94l-2-2.39q-4.26-5.11-8.39-10.48-1.13-1.45-2.24-2.92c-1.89-2.47-3.73-5-5.57-7.55l-1.68-2.39c-.13-.16-.24-.34-.36-.5-.59-.85-1.19-1.7-1.77-2.55-.95-1.38-1.89-2.77-2.82-4.17q-1.11-1.64-2.18-3.31l-.15-.24-2.22-3.47c-.07-.13-.15-.24-.22-.37-.71-1.14-1.41-2.27-2.1-3.4s-1.49-2.46-2.21-3.7-1.44-2.39-2.13-3.67q-4.6-8-8.77-16.47c-.35-.69-.69-1.38-1-2.08-.22-.44-.44-.89-.65-1.35-.43-.87-.8-1.75-1.25-2.63a27.17,27.17,0,0,1-1.15-2.47l-.23-.48c-.26-.58-.52-1.16-.8-1.75l-.26-.57c-.26-.58-.52-1.18-.8-1.77q-1.44-3.26-2.78-6.58c-.42-1-.8-2-1.23-3.07-.1-.26-.21-.53-.31-.8-.4-1-.8-2-1.16-3s-.68-1.82-1-2.74l-.23-.65c-.18-.45-.34-.91-.5-1.36q-1-2.69-1.89-5.44c-.21-.6-.4-1.21-.6-1.8-.26-.8-.51-1.54-.75-2.31-.14-.42-.26-.8-.39-1.22-.26-.8-.5-1.6-.75-2.39-.31-1-.61-2.06-.92-3.1-.18-.65-.39-1.28-.57-2-.37-1.28-.74-2.58-1.08-3.89-.19-.68-.37-1.35-.55-2-.13-.5-.26-1-.39-1.51-.32-1.22-.63-2.46-.92-3.7-.18-.7-.35-1.4-.52-2.11-.07-.29-.13-.57-.19-.85-.37-1.55-.71-3.11-1.07-4.69-.26-1.16-.5-2.33-.74-3.5-.14-.71-.29-1.43-.43-2.14s-.32-1.6-.47-2.45a2.13,2.13,0,0,0-.1-.47c-.15-.8-.3-1.64-.45-2.48s-.31-1.84-.47-2.77-.3-1.8-.45-2.71q-.87-5.52-1.56-11.17A314.73,314.73,0,0,1,447,328.58V122.76Z"
       transform="translate(-445.5 -121.26)"
       id="path26613" />
  </g>
  <g
     id="Layer_3"
     data-name="Layer 3">
    <path
       class="cls-2"
       d="M575.41,330c-3.73-2.15-7.68-4-11.13-6.53-2.94-2.15-6.42-5.35-4.14-9.14,2-3.28,5.87-.94,8.89,0,.78.24,1.52.58,3.12,1.2-5.43-7-8.89-14.06-10.43-22-.64-3.3-.86-6.95,2.21-8.78s5.57.87,7.76,3a95.75,95.75,0,0,1,14.55,17.38c1.07-3,1.85-5.5,2.85-7.91.92-2.2,2-4.61,4.75-4.82s3.94,2.24,5.13,4.31c5.22,9,3.54,18.82,1.9,28.78,2.35-3.18,4.61-8.39,9.28-7s5,6.52,5.39,10.85c.51,5.24-3.21,11.4-4.67,17,2.82-1.22,4.89-4.85,6.07-6.38s2.34-4,5-3.49c3.14.57,4,3.33,4.12,5.88.2,6.42.17,12.41-2,19,3.49-2.71,7.95-4.6,12-2.17s4.58,6.46,4.55,10.79c-.06,8.65-.26,17.29-4.45,25.14-1.36,2.55.61,3.7,1.55,5.06A208.92,208.92,0,0,1,659,438.55c18.12,43.46,11.85,84-14.79,121.93-5,7.09-12.75,10.84-20.42,14.44-1.95.92-4.1,1.38-4.92-1-.87-2.58,1.35-4.12,3.39-4.7,5.48-1.54,9-5.77,13.32-8.95,11-8.09,15.9-20.2,21.07-32,6-13.61,8.06-28.23,8.11-43,0-12.61-3.65-24.76-8.16-36.36-6-15.45-12-31-22.54-44.25-2.39-3-5.53-3.87-8.47-5.5-9.25-5.1-18.84-9.71-26.48-17.24-3.68-3.63-9.68-8.22-4.07-13.19,1.78-1.58,13.56.26,11.5-.62-2.38-1-14.79-4.39-17.06-5.6-2.5-1.34-6.67-5.09-6.19-8.27s6.33-1.52,9.38-1.87c-12.59-4.94-22-8.82-18.51-18.19,1.43-1.51,3.17-1.7,5.31-1.14A8.7,8.7,0,0,1,575.41,330Z"
       transform="translate(-445.5 -121.26)"
       id="path26616" />
    <path
       class="cls-2"
       d="M787,374.56c5.34,4.52,2.39,8.37-1.1,12a70,70,0,0,1-24.2,16c-10.3,4.21-15.59,12.26-20.18,20.75-8.93,16.53-16.44,33.94-20.06,52.42-4.53,23.15.29,45.29,10.34,66.51a71.33,71.33,0,0,0,22.78,27.64c1.91,1.39,3.59,2.93,6,3.66s6,1.87,4.67,4.94c-1.5,3.38-4.89,1.35-7.31.18-8.29-4-15.46-9.37-20.64-17.19-16.7-25.2-24.42-52.86-21.42-82.95,1.52-15.28,6.7-29.75,13.46-43.69,5.1-10.53,11.36-20.27,17.86-29.91,1.47-2.18,1.6-3.57.42-6.22-4-8.88-4.36-18.54-3.25-28,.94-8,7.73-9.51,15.33-3.25A58.78,58.78,0,0,1,758.36,350c.29-3.49.07-7.78,4-8.64s4.92,3.44,6.51,6.17c.52.9.54,2.15,2.29,2.48-.73-4.41-1.56-8.68-2.09-13a16.22,16.22,0,0,1,.61-7.06c.88-2.72,1.54-5.76,4.7-6.43,3.54-.75,5.48,1.81,7,4.59.41.73.88,1.42,1.57,2.51-1.7-9.49-2.34-18.47,1.6-27.07,1.22-2.66,2.44-6.22,6.05-6,3.82.28,4.72,4,5.73,7,.38,1.17-1.47,4.36.4,5.6,4.94-5.22,11.2-12.3,16.31-17.55,1.92-2,4-4.8,7.08-3.54,3.45,1.41,2.75,5,2.56,8-.5,8.2-7,15.52-11.58,22.09,1.78,1,5.4-.6,6.6-.86,2.48-.55,5.27-2.17,6.92,1,1.41,2.69-.52,5-2.12,7-3.07,3.94-8.16,4.73-12,7.52-2.17,1.73-4,4-6.8,4.45-1,.35.22,1.3-.25.57-.11-.18,0-.43.4-.45,1.74-.07,3.35-2.54,5.22-.31,3.34,5.52,2.48,9.6-3.05,13.57a45.07,45.07,0,0,1-6.13,3.57c-2.08,1-7.27,1.18-9.68,2.21,2.47.83,9,.27,9.52,3.48.5,3-1.9,5.07-4.54,6.36-3.08,1.51-6.22,2.89-9.34,4.33-1.29,1.6-3.35,1.31-5.14,2.13C783,373.34,785.26,372.33,787,374.56Z"
       transform="translate(-445.5 -121.26)"
       id="path26618" />
    <path
       class="cls-2"
       d="M705.37,300.27c5.5-1.11,6.56,1.57,5.31,6.22-1.91,7.07-7.21,11.27-12.68,17.51,5-1.27,9.84-1,12.5,3.44s.57,8.53-1.64,12.17c-4.36,7.17-8.73,14.52-16,19.17-2.38,1.51-1.54,3.35-1.56,5.05-.17,14.08,1.35,28.07,2.7,42,2.22,22.88,2.14,45.82,2.33,68.76.06,6.9,1.67,13.75.54,20.69-.44,2.72-.79,5.57-4.32,5.18-3.22-.36-2.84-3.2-2.84-5.61,0-23.38.05-46.75,0-70.13-.06-20.15-2.13-40.17-3.93-60.21-.22-2.45-1.67-3.85-2.83-5.61-6.08-9.18-12-18.44-15.38-29.05-3.09-9.8-4.4-19.9,11.72-9-1.24-3.87-8-9.23-10-12.57-1.66-2.78-3.2-5.76-1.57-8.46,2-3.23,4.73.31,8.08.69a37.12,37.12,0,0,1-8.38-11.64c-1.88-4.2-3.29-8.94,1-12.53,4.48-3.77,5.69,2.62,9.46,3.72-3.4-5.59-6.49-10.64-9.54-15.71a22.12,22.12,0,0,1-2.14-4c-1.14-3.27-2.79-7.18.84-9.47s5.51,1.9,7.82,3.88c.44.37.84.79,1.69,1.59,0-6.71-.57-12.94,1.33-19,.85-2.69,1.51-5.44,3.3-7.7,3.46-4.36,6.54-4.09,8.46,1.14a71.63,71.63,0,0,1,4.47,25.79c3.07-2.7,5.36-5.27,8.14-7.05,4.37-2.8,6.81-1.41,7.25,3.81.74,8.72-4.49,14.9-9.37,21.7-1.1,1.53-3.76,2.95-4.62,4.88,1-.58,4.42-2.37,5.49-2.87,2.17-1,4.76-2.17,7-.37s2,6.57,1.62,9.25c-.61,4.54-3.77,7.71-5.65,11.55-1,1.4-1.44,3.28-2.56,3.91C702.2,300.73,703.91,300.86,705.37,300.27Z"
       transform="translate(-445.5 -121.26)"
       id="path26620" />
    <path
       class="cls-3"
       d="M725.6,155.29c-.59,9.41-5.58,17.46-8.09,26.32-3.89,13.7-7.9,27.34-10.53,41.35a14.37,14.37,0,0,1-.38,2.55c-.61,1.55-1,3.93-3.07,3.58-2.62-.45-1.28-2.89-1-4.31,2.3-12.06,4.88-24.05,8.3-35.87A137.54,137.54,0,0,1,725.6,155.29Z"
       transform="translate(-445.5 -121.26)"
       id="path26622" />
    <path
       class="cls-4"
       d="M706.74,162c-1.34,9.28-2.95,18.53-4,27.85-1.17,10.72-3.27,21.25-5.22,31.83-.3,1.64-.7,4-2.65,3.86-2.39-.2-1.5-2.76-1.45-4.26C694.16,200.73,698.88,181,706.74,162Z"
       transform="translate(-445.5 -121.26)"
       id="path26624" />
    <path
       class="cls-5"
       d="M636,174c11.68,15.59,18.33,33.6,25.26,51.49,1.32,3.4,2.52,6.85,3.86,10.24.8,2,2.22,4.56-.37,5.63s-2.8-2.07-3.43-3.66c-5.19-13-10.22-26.14-15.38-39.19C642.66,190.26,639.27,182.12,636,174Z"
       transform="translate(-445.5 -121.26)"
       id="path26626" />
    <path
       class="cls-4"
       d="M842,212.6c-3.31,8.09-6.71,16.15-9.92,24.28-5.07,12.84-10,25.75-15.07,38.58-.6,1.5-.71,4.54-3.49,3.46-1.82-.71-1.45-2.91-.76-4.6,8.35-20.57,15.23-41.79,27-60.82a7.18,7.18,0,0,1,1.35-1.27Z"
       transform="translate(-445.5 -121.26)"
       id="path26628" />
    <path
       class="cls-6"
       d="M686.44,137.78c1.07,28,2.49,55.94,1.38,83.91h-3.2A780.09,780.09,0,0,1,686.44,137.78Z"
       transform="translate(-445.5 -121.26)"
       id="path26630" />
    <path
       class="cls-4"
       d="M736.54,164c0,4.29-2.5,7.47-3.79,11-6.6,18-13.49,35.84-17.88,54.53-.43,1.84-.62,4.61-3.07,3.9s-1.12-3.26-.71-5.07c4.82-21.54,12.81-41.92,22.6-61.64C734.22,165.61,734.66,164.34,736.54,164Z"
       transform="translate(-445.5 -121.26)"
       id="path26632" />
    <path
       class="cls-4"
       d="M545.33,210c11.77,15.74,18.5,33.73,25.14,51.76,1.19,3.23,2.54,6.4,3.87,9.58.81,1.93,1.39,4.23-.92,5-2.14.71-2.57-1.92-3.14-3.36-5.34-13.43-10.54-26.91-15.83-40.35C551.46,225,548.37,217.53,545.33,210Z"
       transform="translate(-445.5 -121.26)"
       id="path26634" />
    <path
       class="cls-4"
       d="M505,267.94c17,9.71,31.14,23.14,46.56,34.91,1.47,1.13,2.9,3.21,2,4.37-1.73,2.33-3.41-.09-4.8-1.18q-24.49-19.11-48.91-38.31C501.71,263.72,503.28,267.13,505,267.94Z"
       transform="translate(-445.5 -121.26)"
       id="path26636" />
    <path
       class="cls-7"
       d="M885.88,271.51q-23.56,18.67-47.15,37.3c-1.37,1.08-3,3.64-4.79,1.72-1.59-1.68.28-3.62,1.8-4.78,15.74-12,30.09-25.88,47.65-35.45C884.84,269.44,885.94,269.28,885.88,271.51Z"
       transform="translate(-445.5 -121.26)"
       id="path26638" />
    <path
       class="cls-8"
       d="M574.25,191.78c9.07,22.14,14.68,44.87,11.92,69C584.39,237.43,578.63,214.72,574.25,191.78Z"
       transform="translate(-445.5 -121.26)"
       id="path26640" />
    <path
       class="cls-5"
       d="M506.58,250.75a255.19,255.19,0,0,1,48,45.64L553,298l-47.76-46Z"
       transform="translate(-445.5 -121.26)"
       id="path26642" />
    <path
       class="cls-5"
       d="M865.06,215.62l-38.16,67.92L824.08,282c12.11-23.55,26.74-45.71,39.9-68.68C866.09,213.26,866.26,214.13,865.06,215.62Z"
       transform="translate(-445.5 -121.26)"
       id="path26644" />
    <path
       class="cls-9"
       d="M577.95,267.7,560.3,206.11l1.89-.55c8.92,19.64,14.21,40.36,18.32,61.44Z"
       transform="translate(-445.5 -121.26)"
       id="path26646" />
    <path
       class="cls-5"
       d="M880.78,256l-46.51,44.85-1.66-1.72c13.42-16.55,29.06-30.88,45.71-44.19C879.89,253.53,880.69,253.93,880.78,256Z"
       transform="translate(-445.5 -121.26)"
       id="path26648" />
    <path
       class="cls-4"
       d="M826.43,210.54,809.3,270.41l-2.29-.64c3.3-21.32,9.7-41.83,17.89-61.86C827.36,207.66,826.79,209.17,826.43,210.54Z"
       transform="translate(-445.5 -121.26)"
       id="path26650" />
    <path
       class="cls-4"
       d="M653.33,170.15a278.53,278.53,0,0,1,18.11,62l-2.29.68-17.28-60C651.29,171.35,650.93,170,653.33,170.15Z"
       transform="translate(-445.5 -121.26)"
       id="path26652" />
    <path
       class="cls-10"
       d="M812,201.47c-4.18,20.5-9.46,40.82-9.5,63.1-3.28-4.81-3.48-6.39-3.13-11.57a187,187,0,0,1,11.34-54.15C813.13,198.71,812.59,200.07,812,201.47Z"
       transform="translate(-445.5 -121.26)"
       id="path26654" />
    <path
       class="cls-11"
       d="M527.15,217.06C539,237.84,552.47,257.72,563,279.22l-2.72,1.54-34.67-62.27C525.36,217.19,525.95,216.79,527.15,217.06Z"
       transform="translate(-445.5 -121.26)"
       id="path26656" />
    <path
       class="cls-12"
       d="M520.85,241.56a123.33,123.33,0,0,1,35.58,46.35c-10.38-16.59-25-29.69-37-45C519.22,241.76,519.54,241.15,520.85,241.56Z"
       transform="translate(-445.5 -121.26)"
       id="path26658" />
    <path
       class="cls-13"
       d="M670.07,169a125.71,125.71,0,0,1,7.23,56.73c-.73-18.33-6.62-35.8-8.61-53.91C668.4,170.5,667.55,168.92,670.07,169Z"
       transform="translate(-445.5 -121.26)"
       id="path26660" />
    <path
       class="cls-5"
       d="M866.66,247.08c-11.82,14.64-25.68,27.63-35.85,43.65a121.49,121.49,0,0,1,34.32-45.19C866.43,245.28,867,245.74,866.66,247.08Z"
       transform="translate(-445.5 -121.26)"
       id="path26662" />
    <path
       class="cls-4"
       d="M505,267.94c-1.73.56-3.29-3-5.11-.21-5-1.93-8.22-6.54-13.12-8.68C493.32,261,500,262.59,505,267.94Z"
       transform="translate(-445.5 -121.26)"
       id="path26664" />
    <path
       class="cls-7"
       d="M885.88,271.51c-.43-1.21-1.52-1.1-2.49-1.21,3.68-4.52,9-5.9,14.29-7.36C893.65,265.68,890.86,270.09,885.88,271.51Z"
       transform="translate(-445.5 -121.26)"
       id="path26666" />
    <path
       class="cls-7"
       d="M826.43,210.54c-.31-1-.11-2.28-1.53-2.63a31.41,31.41,0,0,1,8.66-14.6Z"
       transform="translate(-445.5 -121.26)"
       id="path26668" />
    <path
       class="cls-7"
       d="M880.78,256c-.41-1.31-1.49-1.06-2.46-1.06,4.51-4.18,9.35-7.78,15.78-8.67Z"
       transform="translate(-445.5 -121.26)"
       id="path26670" />
    <path
       class="cls-4"
       d="M653.33,170.15c-1.44.38-1.18,1.67-1.46,2.68-3.23-5.27-3.19-11.94-7-17C649.84,159.29,651.44,164.81,653.33,170.15Z"
       transform="translate(-445.5 -121.26)"
       id="path26672" />
    <path
       class="cls-7"
       d="M866.66,247.08l-1.53-1.54a44.06,44.06,0,0,1,12.53-10.8C875.23,240,870.61,243.23,866.66,247.08Z"
       transform="translate(-445.5 -121.26)"
       id="path26674" />
    <path
       class="cls-4"
       d="M670.07,169c-1.15.6-1.11,1.79-1.38,2.82a90.41,90.41,0,0,1-5.12-19.18C667.93,158.28,668.42,163.86,670.07,169Z"
       transform="translate(-445.5 -121.26)"
       id="path26676" />
    <path
       class="cls-7"
       d="M865.06,215.62c0-.92,0-1.9-1.07-2.34,1.29-4.78,5.93-7,8.48-10.95A37.15,37.15,0,0,1,865.06,215.62Z"
       transform="translate(-445.5 -121.26)"
       id="path26678" />
    <path
       class="cls-4"
       d="M520.85,241.56l-1.39,1.36c-3.83-3.13-7.76-6.17-11-11.72C514.3,234.06,517.63,237.75,520.85,241.56Z"
       transform="translate(-445.5 -121.26)"
       id="path26680" />
    <path
       class="cls-4"
       d="M527.15,217.06l-1.53,1.42c-3.21-2.83-4-7.18-6.44-10.46-.26-1.29.31-1.71,1.53-1.43C523.08,209.94,525.89,213,527.15,217.06Z"
       transform="translate(-445.5 -121.26)"
       id="path26682" />
    <path
       class="cls-14"
       d="M575.41,330l10.18,4.68c-5.14.78-8.25-1.83-11.47-.46Z"
       transform="translate(-445.5 -121.26)"
       id="path26684" />
    <path
       class="cls-14"
       d="M705.37,300.27l-7.66,5.37-1.1-1.22,7.36-6.86C704.06,298.65,704.23,299.71,705.37,300.27Z"
       transform="translate(-445.5 -121.26)"
       id="path26686" />
    <path
       class="cls-14"
       d="M809.11,338.15l-8,2-.58-.92,10-5.39Z"
       transform="translate(-445.5 -121.26)"
       id="path26688" />
    <path
       class="cls-7"
       d="M812,201.47c-.17-1-.14-2.11-1.3-2.62a14.09,14.09,0,0,1,3.47-8A16.22,16.22,0,0,1,812,201.47Z"
       transform="translate(-445.5 -121.26)"
       id="path26690" />
    <path
       class="cls-14"
       d="M787,374.56a16.85,16.85,0,0,0-9.68,1.28c2.56-2.19,5-4.35,8.55-4.16Z"
       transform="translate(-445.5 -121.26)"
       id="path26692" />
    <path
       class="cls-4"
       d="M520.7,206.6,519.18,208c-2.8-2-3.27-5.21-4-8.47Z"
       transform="translate(-445.5 -121.26)"
       id="path26694" />
  </g>
  <path
     id="shine"
     d="M 1.659998,0.9631276 V 207.34 c 0,229.66454 239.920002,319.6031 239.920002,319.6031 0,0 239.92,-89.93856 239.92,-319.6031 V 0.9631276 Z"
     style="fill:url(#rg);stroke:#000000;stroke-width:2.41218" />
</svg>
