<?xml version="1.0" encoding="UTF-8" standalone="no"?>
<svg
   id="Layer_2"
   data-name="Layer 2"
   viewBox="0 0 483 527.48"
   version="1.1"
   sodipodi:docname="House Staunton HotD.svg"
   inkscape:version="1.2.1 (9c6d41e410, 2022-07-14)"
   xmlns:inkscape="http://www.inkscape.org/namespaces/inkscape"
   xmlns:sodipodi="http://sodipodi.sourceforge.net/DTD/sodipodi-0.dtd"
   xmlns="http://www.w3.org/2000/svg"
   xmlns:svg="http://www.w3.org/2000/svg">
  <sodipodi:namedview
     id="namedview48526"
     pagecolor="#ffffff"
     bordercolor="#000000"
     borderopacity="0.25"
     inkscape:showpageshadow="2"
     inkscape:pageopacity="0.0"
     inkscape:pagecheckerboard="0"
     inkscape:deskcolor="#d1d1d1"
     showgrid="false"
     inkscape:zoom="0.79339504"
     inkscape:cx="362.99698"
     inkscape:cy="299.97667"
     inkscape:window-width="1920"
     inkscape:window-height="1017"
     inkscape:window-x="-8"
     inkscape:window-y="-8"
     inkscape:window-maximized="1"
     inkscape:current-layer="Layer_2" />
  <defs
     id="defs48477">
    <style
       id="style48464">
      .cls-1 {
        fill: none;
        stroke: #000;
        stroke-width: 3px;
      }

      .cls-2 {
        fill: #fffdf5;
      }

      .cls-3 {
        fill: #bc985e;
      }

      .cls-4 {
        filter: url(#drop-shadow-1);
      }

      .cls-5 {
        fill: #75613d;
      }
    </style>
    <filter
       id="drop-shadow-1"
       filterUnits="userSpaceOnUse">
      <feOffset
         dx="1"
         dy="0"
         id="feOffset48466" />
      <feGaussianBlur
         result="blur"
         stdDeviation="0"
         id="feGaussianBlur48468" />
      <feFlood
         flood-color="#000"
         flood-opacity=".72"
         id="feFlood48470" />
      <feComposite
         in2="blur"
         operator="in"
         id="feComposite48472"
         result="result1" />
      <feComposite
         in="SourceGraphic"
         in2="result1"
         id="feComposite48474" />
    </filter>
    <radialGradient
       id="rg"
       gradientUnits="userSpaceOnUse"
       cx="220"
       cy="220"
       r="405"
       gradientTransform="matrix(0.80510068,0,0,0.80302287,-0.03020036,-0.89702636)">
      <stop
         style="stop-color:#ffffff;stop-opacity:.3"
         offset="0"
         id="stop753" />
      <stop
         style="stop-color:#ffffff;stop-opacity:.2"
         offset=".2"
         id="stop755" />
      <stop
         style="stop-color:#666666;stop-opacity:.1"
         offset=".6"
         id="stop757" />
      <stop
         style="stop-color:#000000;stop-opacity:.13"
         offset="1"
         id="stop759" />
    </radialGradient>
  </defs>
  <g
     id="Layer_2-2"
     data-name="Layer 2">
    <path
       class="cls-2"
       d="m481.5,1.5v205.84c.01,12.7-.75,25.4-2.28,38.02-.11.93-.24,1.86-.36,2.79-.03.2-.05.4-.08.59-.09.74-.19,1.47-.31,2.2-.46,3.37-1,6.69-1.6,9.97-.07.44-.15.87-.23,1.31-.16.8-.29,1.6-.45,2.4s-.34,1.79-.51,2.69l-.45,2.22-.24,1.15c-.15.71-.3,1.44-.46,2.15-.54,2.37-1.07,4.71-1.61,7.02l-.58,2.32-.52,2.03c-1.02,3.92-2.11,7.79-3.27,11.61-.29.97-.59,1.94-.9,2.92l-.6,1.88c-.2.63-.4,1.24-.61,1.86-.37,1.09-.73,2.17-1.1,3.25-.37,1.09-.68,1.98-1.02,2.95-.47,1.28-.93,2.56-1.39,3.81-.36,1-.73,1.98-1.11,2.97l-.19.5c-.43,1.14-.87,2.25-1.32,3.36-.45,1.12-.87,2.17-1.31,3.2-.05.15-.12.28-.18.42-.4,1-.8,1.98-1.25,2.97-.45.99-.76,1.75-1.13,2.62l-.66,1.49c-.48,1.07-.95,2.11-1.44,3.15-.49,1.04-.9,1.96-1.36,2.93l-1.02,2.12c-.29.63-.6,1.25-.91,1.87-.63,1.33-1.31,2.64-1.97,3.99-1.68,3.31-3.41,6.57-5.19,9.77l-2.01,3.57-.12.21c-1.4,2.44-2.82,4.86-4.28,7.24-.01.03-.03.06-.05.09-.71,1.2-1.46,2.4-2.18,3.54-.11.16-.2.32-.3.47-.15.25-.31.5-.47.74-.4.64-.81,1.28-1.22,1.92l-.65,1.02c-.65,1.01-1.31,2.02-1.98,3.01l-.13.18c-.65.99-1.31,1.98-1.99,2.97l-.45.67c-1.5,2.19-3.01,4.34-4.54,6.46l-.31.43c-.8,1.07-1.54,2.14-2.31,3.19-.77,1.05-1.66,2.23-2.5,3.32-1.52,2.01-3.06,4-4.61,5.95l-.81,1c-.73.93-1.47,1.85-2.22,2.76l-2.28,2.77-.57.69c-.4.47-.79.93-1.2,1.39-.08.11-.18.22-.27.32-.31.37-.62.73-.94,1.09-1.23,1.44-2.46,2.87-3.73,4.29-.65.75-1.32,1.5-1.99,2.24-.75.85-1.52,1.69-2.29,2.51-.76.82-1.47,1.6-2.22,2.4-1.97,2.13-3.95,4.21-5.93,6.24-1.84,1.88-3.68,3.74-5.53,5.59-.28.27-.55.55-.83.82-.64.64-1.29,1.27-1.93,1.89-.92.89-1.85,1.78-2.79,2.66l-2.28,2.12c-.68.65-1.36,1.28-2.05,1.91-9.68,8.88-19.74,17.32-30.16,25.31-.99.77-1.99,1.52-2.99,2.28-6.57,4.95-13.27,9.73-20.1,14.31-1.04.7-2.08,1.39-3.12,2.07-.98.65-1.96,1.29-2.95,1.92,0,0,0,.01-.01.01-.06.05-.12.08-.18.12h-.01c-.75.49-1.49.97-2.24,1.45-.86.55-1.72,1.1-2.57,1.6-.58.37-1.16.73-1.74,1.09-3.67,2.31-7.25,4.48-10.73,6.54l-2.41,1.4-2.36,1.37-2.33,1.34-2.23,1.29c-8.34,4.68-15.9,8.59-22.38,11.76l-1.6.8c-10.64,5.15-18.12,8.22-20.98,9.35l-.42.17-.61.24-.14.05h-.08l-.23-.09-.21-.02-1.07-.42-.54-.23c-.87-.34-1.99-.8-3.37-1.38l-.46-.18c-1.76-.8-3.89-1.67-6.33-2.77l-1.39-.61c-13.59-6.19-26.86-13.07-39.75-20.6-.8-.44-1.6-.92-2.35-1.38-4.82-2.84-9.58-5.77-14.29-8.78-3.51-2.24-6.98-4.52-10.42-6.85-.75-.51-1.49-1.01-2.23-1.53-.57-.38-1.13-.76-1.69-1.16-5.47-3.77-10.85-7.65-16.15-11.66l-2.63-2.01c-.2-.16-.4-.31-.61-.47-.77-.6-1.55-1.2-2.33-1.82-.83-.65-1.59-1.25-2.37-1.86-.15-.12-.29-.23-.44-.35-6.19-4.92-12.43-10.15-18.64-15.69l-1.51-1.36c-1.54-1.37-3.07-2.77-4.59-4.2l-1.67-1.57-1.83-1.71-2.03-1.94c-1.12-1.07-2.23-2.17-3.33-3.27-.85-.79-1.69-1.66-2.52-2.5l-.24-.26c-.84-.83-1.67-1.67-2.5-2.51-.12-.12-.23-.24-.34-.36-.55-.56-1.09-1.12-1.63-1.69l-1.02-1.06-.97-1-.13-.15-2.1-2.25c-1.12-1.2-2.24-2.41-3.34-3.64l-.01-.01c-1.11-1.23-2.21-2.46-3.31-3.71-.44-.51-.88-1-1.31-1.5-.25-.28-.49-.56-.74-.84-.57-.65-1.12-1.29-1.66-1.94-.69-.8-1.37-1.6-2.04-2.4-2.85-3.4-5.64-6.89-8.39-10.48-.76-.96-1.5-1.93-2.24-2.92-1.89-2.47-3.73-4.98-5.57-7.55-.55-.8-1.12-1.59-1.68-2.39-.13-.16-.24-.34-.36-.5-.59-.86-1.19-1.7-1.77-2.56-.51-.76-1.03-1.52-1.54-2.28-.05-.05-.08-.11-.12-.17-.39-.57-.77-1.14-1.15-1.72-.4-.58-.79-1.17-1.18-1.77-.34-.51-.68-1.03-1.01-1.54-.04-.09-.09-.17-.15-.24l-2.22-3.48c-.07-.12-.15-.24-.22-.36-.29-.48-.59-.96-.88-1.43-.41-.66-.82-1.32-1.22-1.97-.1-.17-.21-.35-.32-.53-.17-.27-.34-.56-.51-.85-.46-.76-.94-1.56-1.38-2.33-.21-.37-.43-.74-.64-1.1-.5-.84-1-1.67-1.49-2.57-3.07-5.32-5.99-10.81-8.77-16.46-.35-.69-.69-1.38-1.03-2.09-.22-.44-.44-.88-.65-1.35-.43-.87-.8-1.74-1.25-2.63-.45-.88-.81-1.6-1.15-2.47l-.23-.48c-.27-.58-.53-1.16-.81-1.75l-.26-.57c-.27-.59-.52-1.19-.8-1.78-.96-2.17-1.89-4.36-2.79-6.57-.42-1.02-.8-2.05-1.23-3.08-.1-.25-.21-.52-.31-.79-.4-1-.8-2.02-1.16-3.01-.37-1-.69-1.82-1.02-2.74-.08-.22-.16-.44-.24-.65-.17-.44-.33-.91-.49-1.35-.65-1.8-1.28-3.61-1.9-5.44-.21-.6-.4-1.2-.6-1.8-.26-.8-.51-1.54-.75-2.32-.14-.41-.27-.8-.4-1.22-.25-.8-.49-1.59-.75-2.39-.31-1.02-.61-2.06-.92-3.11-.19-.64-.39-1.28-.57-1.95-.37-1.29-.74-2.58-1.09-3.89-.19-.68-.37-1.35-.55-2.03-.13-.5-.27-.99-.4-1.51-.32-1.22-.62-2.45-.92-3.7-.18-.7-.34-1.4-.52-2.11-.07-.28-.13-.56-.19-.85-.37-1.55-.72-3.11-1.07-4.69-.26-1.16-.5-2.33-.74-3.5-.13-.71-.29-1.43-.42-2.14-.14-.71-.32-1.59-.48-2.45-.01-.16-.04-.32-.09-.47-.16-.8-.3-1.64-.45-2.48-.16-.84-.32-1.84-.48-2.77s-.29-1.8-.45-2.71c-.38-2.47-.74-4.96-1.07-7.47-.17-1.23-.33-2.47-.48-3.71-1.51-12.51-2.26-25.11-2.25-37.71V1.5h480Z"
       id="path48479" />
  </g>
  <g
     id="Layer_5"
     data-name="Layer 5">
    <rect
       x="207.214"
       y="70"
       width="68.571"
       height="68.5"
       id="rect48482" />
    <rect
       x="275.786"
       y="138.5"
       width="68.571"
       height="68.5"
       id="rect48484" />
    <rect
       x="344.357"
       y="70"
       width="68.571"
       height="68.5"
       id="rect48486" />
    <rect
       x="412.929"
       y="1.5"
       width="68.571"
       height="68.5"
       id="rect48488" />
    <rect
       x="275.786"
       y="1.5"
       width="68.571"
       height="68.5"
       id="rect48490" />
    <rect
       x="412.929"
       y="138.5"
       width="68.571"
       height="68.5"
       id="rect48492" />
    <rect
       x="138.643"
       y="1.5"
       width="68.571"
       height="68.5"
       id="rect48494" />
    <rect
       x="70.071"
       y="70"
       width="68.571"
       height="68.5"
       id="rect48496" />
    <rect
       x="1.5"
       y="1.5"
       width="68.571"
       height="68.5"
       id="rect48498" />
    <rect
       x="1.5"
       y="138.5"
       width="68.571"
       height="68.5"
       id="rect48500" />
    <rect
       x="138.643"
       y="138.5"
       width="68.571"
       height="68.5"
       id="rect48502" />
  </g>
  <g
     id="Layer_3"
     data-name="Layer 3">
    <path
       class="cls-1"
       d="m481.5,1.5v205.84c.01,12.7-.75,25.4-2.28,38.02-.11.93-.24,1.86-.36,2.79-.03.2-.05.4-.08.59-.09.74-.19,1.47-.31,2.2-.46,3.37-1,6.69-1.6,9.97-.07.44-.15.87-.23,1.31-.16.8-.29,1.6-.45,2.4s-.34,1.79-.51,2.69l-.45,2.22-.24,1.15c-.15.71-.3,1.44-.46,2.15-.54,2.37-1.07,4.71-1.61,7.02l-.58,2.32-.52,2.03c-1.02,3.92-2.11,7.79-3.27,11.61-.29.97-.59,1.94-.9,2.92l-.6,1.88c-.2.63-.4,1.24-.61,1.86-.37,1.09-.73,2.17-1.1,3.25-.37,1.09-.68,1.98-1.02,2.95-.47,1.28-.93,2.56-1.39,3.81-.36,1-.73,1.98-1.11,2.97l-.19.5c-.43,1.14-.87,2.25-1.32,3.36-.45,1.12-.87,2.17-1.31,3.2-.05.15-.12.28-.18.42-.4,1-.8,1.98-1.25,2.97-.45.99-.76,1.75-1.13,2.62l-.66,1.49c-.48,1.07-.95,2.11-1.44,3.15-.49,1.04-.9,1.96-1.36,2.93l-1.02,2.12c-.29.63-.6,1.25-.91,1.87-.63,1.33-1.31,2.64-1.97,3.99-1.68,3.31-3.41,6.57-5.19,9.77l-2.01,3.57-.12.21c-1.4,2.44-2.82,4.86-4.28,7.24-.01.03-.03.06-.05.09-.71,1.2-1.46,2.4-2.18,3.54-.11.16-.2.32-.3.47-.15.25-.31.5-.47.74-.4.64-.81,1.28-1.22,1.92l-.65,1.02c-.65,1.01-1.31,2.02-1.98,3.01l-.13.18c-.65.99-1.31,1.98-1.99,2.97l-.45.67c-1.5,2.19-3.01,4.34-4.54,6.46l-.31.43c-.8,1.07-1.54,2.14-2.31,3.19-.77,1.05-1.66,2.23-2.5,3.32-1.52,2.01-3.06,4-4.61,5.95l-.81,1c-.73.93-1.47,1.85-2.22,2.76l-2.28,2.77-.57.69c-.4.47-.79.93-1.2,1.39-.08.11-.18.22-.27.32-.31.37-.62.73-.94,1.09-1.23,1.44-2.46,2.87-3.73,4.29-.65.75-1.32,1.5-1.99,2.24-.75.85-1.52,1.69-2.29,2.51-.76.82-1.47,1.6-2.22,2.4-1.97,2.13-3.95,4.21-5.93,6.24-1.84,1.88-3.68,3.74-5.53,5.59-.28.27-.55.55-.83.82-.64.64-1.29,1.27-1.93,1.89-.92.89-1.85,1.78-2.79,2.66l-2.28,2.12c-.68.65-1.36,1.28-2.05,1.91-9.68,8.88-19.74,17.32-30.16,25.31-.99.77-1.99,1.52-2.99,2.28-6.57,4.95-13.27,9.73-20.1,14.31-1.04.7-2.08,1.39-3.12,2.07-.98.65-1.96,1.29-2.95,1.92,0,0,0,.01-.01.01-.06.05-.12.08-.18.12h-.01c-.75.49-1.49.97-2.24,1.45-.86.55-1.72,1.1-2.57,1.6-.58.37-1.16.73-1.74,1.09-3.67,2.31-7.25,4.48-10.73,6.54l-2.41,1.4-2.36,1.37-2.33,1.34-2.23,1.29c-8.34,4.68-15.9,8.59-22.38,11.76l-1.6.8c-10.64,5.15-18.12,8.22-20.98,9.35l-.42.17-.61.24-.14.05h-.08l-.23-.09-.21-.02-1.07-.42-.54-.23c-.87-.34-1.99-.8-3.37-1.38l-.46-.18c-1.76-.8-3.89-1.67-6.33-2.77l-1.39-.61c-13.59-6.19-26.86-13.07-39.75-20.6-.8-.44-1.6-.92-2.35-1.38-4.82-2.84-9.58-5.77-14.29-8.78-3.51-2.24-6.98-4.52-10.42-6.85-.75-.51-1.49-1.01-2.23-1.53-.57-.38-1.13-.76-1.69-1.16-5.47-3.77-10.85-7.65-16.15-11.66l-2.63-2.01c-.2-.16-.4-.31-.61-.47-.77-.6-1.55-1.2-2.33-1.82-.83-.65-1.59-1.25-2.37-1.86-.15-.12-.29-.23-.44-.35-6.19-4.92-12.43-10.15-18.64-15.69l-1.51-1.36c-1.54-1.37-3.07-2.77-4.59-4.2l-1.67-1.57-1.83-1.71-2.03-1.94c-1.12-1.07-2.23-2.17-3.33-3.27-.85-.79-1.69-1.66-2.52-2.5l-.24-.26c-.84-.83-1.67-1.67-2.5-2.51-.12-.12-.23-.24-.34-.36-.55-.56-1.09-1.12-1.63-1.69l-1.02-1.06-.97-1-.13-.15-2.1-2.25c-1.12-1.2-2.24-2.41-3.34-3.64l-.01-.01c-1.11-1.23-2.21-2.46-3.31-3.71-.44-.51-.88-1-1.31-1.5-.25-.28-.49-.56-.74-.84-.57-.65-1.12-1.29-1.66-1.94-.69-.8-1.37-1.6-2.04-2.4-2.85-3.4-5.64-6.89-8.39-10.48-.76-.96-1.5-1.93-2.24-2.92-1.89-2.47-3.73-4.98-5.57-7.55-.55-.8-1.12-1.59-1.68-2.39-.13-.16-.24-.34-.36-.5-.59-.86-1.19-1.7-1.77-2.56-.51-.76-1.03-1.52-1.54-2.28-.05-.05-.08-.11-.12-.17-.39-.57-.77-1.14-1.15-1.72-.4-.58-.79-1.17-1.18-1.77-.34-.51-.68-1.03-1.01-1.54-.04-.09-.09-.17-.15-.24l-2.22-3.48c-.07-.12-.15-.24-.22-.36-.29-.48-.59-.96-.88-1.43-.41-.66-.82-1.32-1.22-1.97-.1-.17-.21-.35-.32-.53-.17-.27-.34-.56-.51-.85-.46-.76-.94-1.56-1.38-2.33-.21-.37-.43-.74-.64-1.1-.5-.84-1-1.67-1.49-2.57-3.07-5.32-5.99-10.81-8.77-16.46-.35-.69-.69-1.38-1.03-2.09-.22-.44-.44-.88-.65-1.35-.43-.87-.8-1.74-1.25-2.63-.45-.88-.81-1.6-1.15-2.47l-.23-.48c-.27-.58-.53-1.16-.81-1.75l-.26-.57c-.27-.59-.52-1.19-.8-1.78-.96-2.17-1.89-4.36-2.79-6.57-.42-1.02-.8-2.05-1.23-3.08-.1-.25-.21-.52-.31-.79-.4-1-.8-2.02-1.16-3.01-.37-1-.69-1.82-1.02-2.74-.08-.22-.16-.44-.24-.65-.17-.44-.33-.91-.49-1.35-.65-1.8-1.28-3.61-1.9-5.44-.21-.6-.4-1.2-.6-1.8-.26-.8-.51-1.54-.75-2.32-.14-.41-.27-.8-.4-1.22-.25-.8-.49-1.59-.75-2.39-.31-1.02-.61-2.06-.92-3.11-.19-.64-.39-1.28-.57-1.95-.37-1.29-.74-2.58-1.09-3.89-.19-.68-.37-1.35-.55-2.03-.13-.5-.27-.99-.4-1.51-.32-1.22-.62-2.45-.92-3.7-.18-.7-.34-1.4-.52-2.11-.07-.28-.13-.56-.19-.85-.37-1.55-.72-3.11-1.07-4.69-.26-1.16-.5-2.33-.74-3.5-.13-.71-.29-1.43-.42-2.14-.14-.71-.32-1.59-.48-2.45-.01-.16-.04-.32-.09-.47-.16-.8-.3-1.64-.45-2.48-.16-.84-.32-1.84-.48-2.77s-.29-1.8-.45-2.71c-.38-2.47-.74-4.96-1.07-7.47-.17-1.23-.33-2.47-.48-3.71-1.51-12.51-2.26-25.11-2.25-37.71V1.5h480Z"
       id="path48505" />
  </g>
  <g
     id="Layer_7"
     data-name="Layer 7">
    <path
       d="m103.5,240.073s23.619,5.667,35.143,19.333,14.024,13.833,24.524,26c0,0-9.167-3.667-19.667-11.667s-40.167-24.167-56.5-3.833c0,0,8.33-.284,16,.167,8.5.5,19,1.333,26.333,7.833s25.167,20.167,33.833,22.5c0,0-2.833,1.667-8.667,0s-25.667-14.833-32.5-16c-6.754-1.153-24.333-.833-22.5,12.667,0,0,9-9.167,20-4.5,10.365,4.397,25.022,15.602,40.764,19.251,2.311.536,3.58,3.212,2.268,5.188-.693,1.045-1.99,1.686-4.365,1.061,0,0-39.833-25.167-43.833,4.833,0,0,8.333-5,13.5-4.5,5.472.53,15.167,2,24.667,8.833s28.5,4.167,31.833,5.167-7.5,5.5-17.5,3.333-34-9-26,13.833c0,0,1.667-10.167,7.833-9.833s26.667,8.833,34.667,9.833,9.667,2.833,8.5,4.5-44.5-7.167-29.5,15.167c0,0,3.5-9.167,6.833-8.667s20,.833,20.5,4.667-10.5,2.167-6,7.667,9.5,4.5,10.833,8.167,4.5,8.5,8.833,11.667,16.833,19.667.667,33.5-22.333,2.667-22.667-3.833c0,0-2.667,5.5,1.833,13.333s20.5,3.833,24.5,0c0,0-1.167,5.833,2.167,8.833s7.5,3.667,10.333,4-5.667,5.333-4,14.167,11.5,34.833,36.167,17.833c0,0-14.5,2.167-19.167-2.167s-8.333-17.167-5.167-20.667c0,0,4.333,10.5,8,11.833s6.667-3.167,5.5-8.333c-.911-4.033-6.086-11.722-5.777-17.993.125-2.532,2.34-4.496,4.872-4.376,2.074.098,4.698-.228,6.239-2.131,2.833-3.5-5.333-12.833-6.5-19-1.03-5.444-1.333-17.667,3.167-19.333s5,2.5,2.833,9.667c0,0-.5,12.667,6,21.333s3,13.833,0,18c0,0,4-1.833,6.5-6.667s-4.333-19.5-2.5-23.5c0,0,2.5,5.5,10.333,5,0,0-4.833,6.167-2.167,14.667s-1.667,15.833-5.5,18.167-19.833,13.167-5.333,21.833c0,0-2.833-10.667,2.333-13.5s17.5-10,19-17.667-3.833-12.833-1.667-21c0,0,9.833,8.833,16,6.833s5.5,10.167-1.5,13.667-12,14.333-4.833,21.833c0,0-1.333-14.5,3.5-15.167s10.667-2.167,13.333-13.667-12.333-14.833-12.667-31.333c0,0,10.167,5.833,17.667,2.667s8.167-9.5,8.167-9.5c0,0-14.5,10-20.667,3.167s-4.833-14.667.333-16.5,7.167-3.833,7.5-6.167-4.333-2.333-2.833-5.5,6,2.167,8.833-.167,2-7.333,0-10.5,6.5-6.5,9.667-4.167,8.167,5.667,11.5,3.833-3.667-8-10.667-11.667-4.667-4.167,4.5-8.167,16.333-4,22.5,1.333,7.333-3.167,6.667-6.667c-.639-3.357-6.338-8.707-25.92-6.786-.446.044-.617-.569-.204-.743,3.411-1.436,10.117-4.11,17.624-6.304,10.833-3.167,13.333-7.167,19.167-6.333s6.167-3.833-2.333-6.167-18.5,9.833-33.5,8c0,0,.167-4,12-8.667s16.5-15,26.167-15.833,19.5.833,22.167-1.333c0,0-4.167-7.667-14.833-5.833s-26.333,7.833-37.833,15.333c0,0,7.667-10.833,20.333-17.333s26-11.5,39.5-11.333c0,0-1.167-6.167-11-7.5s-35.5,10.167-44.167,16.5c0,0,3.667-9.167,12.333-14.667s26.333-14,30.167-17.667,12.5-2.333,16.333-1.167c0,0,.5-7.167-8-8.333-8.361-1.148-55.746,12.057-87.749,59.44-1.361,2.016-3.76,3.199-6.147,2.726-2.104-.417-3.854-2-2.437-6.667,2.833-9.333,7-5.833,7.833-13.167s-12.5.833-13-1.833,3.833-8.667,3.5-13.5-6.5-12.333-8.167-7,1,13.5-1,13.667-6.333-5.167-4.667-9.667,1.5-10.167,6.333-13c0,0-6.5-.667-10.667,9s2,10.167,4.833,16.333-14.167-5.333-16.833,6,18-2.667,21.833,5.5,1.5,9-5.5,6-13.5-3.5-14.833-1.5,14.833,5,16.333,8,2,13.167-6,24.167,6.5,18.667,2.333,25-35.667,1.333-48.667,5.167c0,0-10.167-2.833-7.167-15.167s7.167-12.833,5.833-17.333-10.333-12.167-10.667-15.5,10.667-5.333,11.667-7.167-7.667-1.333-12.5,1.333,7.5-10.833,17.833-12.833.5-10-1.833-9.667,11-24-16-24.5c0,0,17.167,13,8.667,20.5,0,0-9-12.5-20-8,0,0,8.5,3.667,8.667,10.667s-3.167,8.167-7.667,6.667-5.667,4-1.833,12,5.5,16.833,2.667,17.5-7.333-15-10.333-23.5-62.333-70.167-89.5-52.333Z"
       id="path48508" />
  </g>
  <g
     id="Layer_8"
     data-name="Layer 8">
    <path
       class="cls-5"
       d="m293.344,392.984s6.831-6.714,6.332-9.799,8.831-8.348,11.83-11.07-1-6.17-9.081-3.992c0,0-.359-4.312.497-8.348.583-2.746-.008-12.511-4.713-10.616-.774.312-6.691,1.802-7.458,2.13-6.546,2.799-8.807,2.972-14.727,4.675-1.278.367,1.941,7.31.681,7.35-1.701.053-7.001-5.278-8.467-6.312-5.424-3.828-12.3-3.487-17.799-2.943,0,0,2.749-8.983,7.748-8.983s5.249-7.077,0-8.983-3.249-10.888-9.997-10.344h-2.638c-7.123-.544-5.012,8.438-10.552,10.344s-5.276,8.983,0,8.983,8.178,8.983,8.178,8.983c-5.804-.544-12.014,2.45-18.872,3.811-2.106.418,12.522,13.157,10.412,12.601-4.285-1.129-12.045-4.162-19.304-11.116-5.705-5.465-11.529-6.088-15.419-6.036-1.381.018-4.707-.298-6.042-.654-4.459-1.188-7.664,4.842-6.17,7.11,1.673,2.541-1.475,7.348-1.475,7.348-8.53-2.178-10.75,2.27-7.585,4.992s13.014,7.985,12.487,11.07,6.683,9.799,6.683,9.799c0,0,50.738-18.873,95.452,0Z"
       id="path48511" />
  </g>
  <g
     id="Layer_9"
     data-name="Layer 9"
     class="cls-4">
    <circle
       class="cls-3"
       cx="246.807"
       cy="372.84"
       r="4.628"
       id="circle48514" />
    <circle
       class="cls-3"
       cx="268.765"
       cy="374.111"
       r="4.628"
       id="circle48516" />
    <circle
       class="cls-3"
       cx="287.457"
       cy="379.736"
       r="4.628"
       id="circle48518" />
    <circle
       class="cls-3"
       cx="226.392"
       cy="375.744"
       r="4.628"
       id="circle48520" />
    <circle
       class="cls-3"
       cx="207.7"
       cy="381.369"
       r="4.628"
       id="circle48522" />
  </g>
  <path
     id="shine"
     d="M 1.5800008,0.70901964 V 207.0859 C 1.5800008,436.75044 241.5,526.689 241.5,526.689 c 0,0 239.92,-89.93856 239.92,-319.6031 V 0.70901964 Z"
     style="fill:url(#rg);stroke:#000000;stroke-width:2.41218" />
</svg>
