<?xml version="1.0" encoding="utf-8"?>
<!-- Generator: Adobe Illustrator 28.2.0, SVG Export Plug-In . SVG Version: 6.00 Build 0)  -->
<svg version="1.1"
	 id="svg27443" xmlns:inkscape="http://www.inkscape.org/namespaces/inkscape" xmlns:sodipodi="http://sodipodi.sourceforge.net/DTD/sodipodi-0.dtd" xmlns:svg="http://www.w3.org/2000/svg" sodipodi:docname="House Stokeworth.svg"
	 xmlns="http://www.w3.org/2000/svg" xmlns:xlink="http://www.w3.org/1999/xlink" x="0px" y="0px" viewBox="0 0 483 527.5"
	 style="enable-background:new 0 0 483 527.5;" xml:space="preserve">
<style type="text/css">
	.st0{fill:#457945;}
	.st1{fill:#A87531;}
	.st2{fill:#895A22;}
	.st3{fill:#E5E4DA;stroke:#457945;stroke-miterlimit:10;}
	.st4{fill:none;stroke:#457945;stroke-miterlimit:10;}
	.st5{fill:none;stroke:#457945;stroke-width:2;stroke-miterlimit:10;}
	.st6{fill:none;stroke:#000000;stroke-width:3;}
	.st7{fill:url(#shine_00000128453595910004617330000002712709742054796431_);stroke:#000000;stroke-width:2.4122;}
</style>
<sodipodi:namedview  bordercolor="#000000" borderopacity="0.25" id="namedview27445" inkscape:current-layer="svg27443" inkscape:cx="80.665995" inkscape:cy="349.13251" inkscape:deskcolor="#d1d1d1" inkscape:pagecheckerboard="0" inkscape:pageopacity="0.0" inkscape:showpageshadow="2" inkscape:window-height="1017" inkscape:window-maximized="1" inkscape:window-width="1920" inkscape:window-x="-8" inkscape:window-y="-8" inkscape:zoom="0.79339504" pagecolor="#ffffff" showgrid="false">
	</sodipodi:namedview>
<g id="Layer_2_00000060010176289393350470000013508015144742356402_">
	<path id="path27292" class="st0" d="M481.5,1.5v205.8c0,12.7-0.8,25.4-2.3,38c-0.1,0.9-0.2,1.9-0.4,2.8c0,0.2,0,0.4-0.1,0.6
		c-0.1,0.7-0.2,1.5-0.3,2.2c-0.5,3.4-1,6.7-1.6,10c-0.1,0.4-0.2,0.9-0.2,1.3c-0.2,0.8-0.3,1.6-0.5,2.4s-0.3,1.8-0.5,2.7l-0.5,2.2
		l-0.2,1.1c-0.2,0.7-0.3,1.4-0.5,2.1c-0.5,2.4-1.1,4.7-1.6,7l-0.6,2.3l-0.5,2c-1,3.9-2.1,7.8-3.3,11.6c-0.3,1-0.6,1.9-0.9,2.9
		l-0.6,1.9c-0.2,0.6-0.4,1.2-0.6,1.9c-0.4,1.1-0.7,2.2-1.1,3.2s-0.7,2-1,3c-0.5,1.3-0.9,2.6-1.4,3.8c-0.4,1-0.7,2-1.1,3l-0.2,0.5
		c-0.4,1.1-0.9,2.2-1.3,3.4s-0.9,2.2-1.3,3.2c0,0.1-0.1,0.3-0.2,0.4c-0.4,1-0.8,2-1.2,3s-0.8,1.8-1.1,2.6l-0.7,1.5
		c-0.5,1.1-1,2.1-1.4,3.1s-0.9,2-1.4,2.9l-1,2.1c-0.3,0.6-0.6,1.2-0.9,1.9c-0.6,1.3-1.3,2.6-2,4c-1.7,3.3-3.4,6.6-5.2,9.8l-2,3.6
		l-0.1,0.2c-1.4,2.4-2.8,4.9-4.3,7.2v0.1c-0.7,1.2-1.5,2.4-2.2,3.5c-0.1,0.2-0.2,0.3-0.3,0.5s-0.3,0.5-0.5,0.7
		c-0.4,0.6-0.8,1.3-1.2,1.9l-0.7,1c-0.7,1-1.3,2-2,3l-0.1,0.2c-0.7,1-1.3,2-2,3l-0.5,0.7c-1.5,2.2-3,4.3-4.5,6.5l-0.3,0.4
		c-0.8,1.1-1.5,2.1-2.3,3.2s-1.7,2.2-2.5,3.3c-1.5,2-3.1,4-4.6,6l-0.8,1c-0.7,0.9-1.5,1.8-2.2,2.8l-2.3,2.6l-0.6,0.7
		c-0.4,0.5-0.8,0.9-1.2,1.4c-0.1,0.1-0.2,0.2-0.3,0.3c-0.3,0.4-0.6,0.7-0.9,1.1c-1.2,1.4-2.5,2.9-3.7,4.3c-0.7,0.8-1.3,1.5-2,2.2
		s-1.5,1.7-2.3,2.5l-0.8,0.8l-1.4,1.5c-2,2.1-4,4.2-5.9,6.2c-1.8,1.9-3.7,3.7-5.5,5.6l-0.8,0.8c-0.6,0.6-1.3,1.3-1.9,1.9
		c-0.9,0.9-1.8,1.8-2.8,2.7l-2.3,2.1c-0.7,0.7-1.4,1.3-2,1.9c-9.7,8.9-19.7,17.3-30.2,25.3c-1,0.8-2,1.5-3,2.3
		c-6.6,5-13.3,9.7-20.1,14.3c-1,0.7-2.1,1.4-3.1,2.1s-2,1.3-3,1.9l0,0l-0.2,0.1l0,0l-2.2,1.5c-0.9,0.5-1.7,1.1-2.6,1.6l-1.7,1.1
		c-3.7,2.3-7.2,4.5-10.7,6.5l-2.4,1.4l-2.4,1.4l-2.3,1.3l-2.2,1.3c-8.3,4.7-15.9,8.6-22.4,11.8l-1.6,0.8c-10.6,5.2-18.1,8.2-21,9.3
		l-0.4,0.2l-0.6,0.2h-0.1h-0.1l-0.2-0.1h-0.2l-1.1-0.4l-0.5-0.2c-0.9-0.3-2-0.8-3.4-1.4l-0.5-0.2c-1.8-0.8-3.9-1.7-6.3-2.8l-1.4-0.6
		c-13.6-6.2-26.9-13.1-39.8-20.6c-0.8-0.4-1.6-0.9-2.3-1.4c-4.8-2.8-9.6-5.8-14.3-8.8c-3.5-2.2-7-4.5-10.4-6.8
		c-0.8-0.5-1.5-1-2.2-1.5c-0.6-0.4-1.1-0.8-1.7-1.2c-5.5-3.8-10.9-7.7-16.2-11.7l-2.6-2l-0.6-0.5c-0.8-0.6-1.5-1.2-2.3-1.8l-2.4-1.9
		l-0.4-0.3c-6.2-4.9-12.4-10.2-18.6-15.7l-1.5-1.4c-1.5-1.4-3.1-2.8-4.6-4.2l-1.7-1.6l-1.8-1.7l-2-1.9c-1.1-1.1-2.2-2.2-3.3-3.3
		c-0.8-0.8-1.7-1.7-2.5-2.5l-0.2-0.3c-0.8-0.8-1.7-1.7-2.5-2.5l-0.3-0.4l-0.4-0.4l-1.3-1.3l-1-1.1l-1-1l-0.1-0.2l-2.1-2.2
		c-1.1-1.1-2.2-2.3-3.2-3.5l-0.1-0.1l0,0c-1.1-1.2-2.2-2.5-3.3-3.7l-1.3-1.5l-0.7-0.8c-0.6-0.7-1.1-1.3-1.7-1.9
		c-0.7-0.8-1.3-1.6-2-2.4c-2.9-3.4-5.7-6.9-8.4-10.5c-0.8-1-1.5-1.9-2.2-2.9c-1.9-2.5-3.7-5-5.6-7.5c-0.5-0.8-1.1-1.6-1.7-2.4
		c-0.1-0.2-0.2-0.3-0.4-0.5c-0.6-0.9-1.2-1.7-1.8-2.6l-1.5-2.3c0-0.1-0.1-0.1-0.1-0.2c-0.4-0.6-0.8-1.1-1.1-1.7
		c-0.7-1.1-1.5-2.2-2.2-3.3c0-0.1-0.1-0.2-0.1-0.2l-2.2-3.5l-0.2-0.4l-0.9-1.4l-1.2-2l-0.3-0.5c-0.2-0.3-0.3-0.6-0.5-0.9
		c-0.5-0.8-0.9-1.6-1.4-2.3l-0.6-1.1c-0.5-0.8-1-1.7-1.5-2.6c-3.1-5.3-6-10.8-8.8-16.5c-0.4-0.7-0.7-1.4-1-2.1
		c-0.2-0.4-0.4-0.9-0.6-1.4c-0.4-0.9-0.8-1.7-1.2-2.6c-0.4-0.8-0.8-1.6-1.1-2.5l-0.2-0.5c-0.3-0.6-0.5-1.2-0.8-1.8l-0.3-0.6
		c-0.3-0.6-0.5-1.2-0.8-1.8c-1-2.2-1.9-4.4-2.8-6.6c-0.4-1-0.8-2-1.2-3.1c-0.1-0.2-0.2-0.5-0.3-0.8c-0.4-1-0.8-2-1.2-3
		s-0.7-1.8-1-2.7l-0.2-0.6c-0.2-0.4-0.3-0.9-0.5-1.4c-0.7-1.8-1.3-3.6-1.9-5.4c-0.2-0.6-0.4-1.2-0.6-1.8c-0.3-0.8-0.5-1.5-0.8-2.3
		c-0.1-0.4-0.3-0.8-0.4-1.2c-0.2-0.8-0.5-1.6-0.8-2.4s-0.5-1.7-0.8-2.6c-0.1-0.2-0.1-0.4-0.2-0.5c-0.2-0.6-0.4-1.3-0.6-2
		c-0.4-1.3-0.7-2.6-1.1-3.9c-0.2-0.7-0.4-1.4-0.5-2c-0.1-0.5-0.3-1-0.4-1.5c-0.3-1.2-0.6-2.5-0.9-3.7c-0.2-0.7-0.3-1.4-0.5-2.1
		c-0.1-0.3-0.1-0.6-0.2-0.9c-0.4-1.5-0.7-3.1-1.1-4.7c-0.3-1.2-0.5-2.3-0.7-3.5c-0.1-0.7-0.3-1.4-0.4-2.1s-0.3-1.6-0.5-2.5
		c0-0.2,0-0.3-0.1-0.5c-0.2-0.8-0.3-1.6-0.5-2.5S6.5,259,6.3,258s-0.3-1.8-0.5-2.7c-0.4-2.5-0.7-5-1.1-7.5c-0.2-1.2-0.3-2.5-0.5-3.7
		c-1.5-12.5-2.3-25.1-2.3-37.7V1.5H481.5z"/>
</g>
<g id="Layer_2_00000158714979825915777000000010218184275983893640_">
	<path class="st1" d="M285.4,296.8c-1.7,9.6-11,18.3-25.8,28.1c-15.8,10.5-11,39.4-10.8,45.5s5.9,12.2,5.9,12.2H229
		c0,0,5.7-6.1,5.9-12.2s7.2-35.4-8.8-45.5c-10.4-6.5-26-18.5-27.8-28.1c-1.7-9.6-2.6-15.7,0-16.6c2.4-0.8,38.8-0.1,43.5,0l0,0
		c4.7-0.1,41.1-0.8,43.5,0C288,281.2,287.1,287.3,285.4,296.8z"/>
	<path class="st2" d="M253,382.7c0,0,4.8-0.2,7,3c0,0-2.3,3.9-19.8,3.9h2.1c-17.5,0-19.8-3.9-19.8-3.9c2.2-3.3,7-3,7-3H253z"/>
	<path class="st3" d="M96.2,89.3c0,0-3.8,18.9-5.5,23.5s-10.5,14.2-7.6,22.1s10.5,13.9,2.9,31.4c-7.6,17.4,7.6,8.4,10.2,35.1
		c0,0-0.9,13.9,0,17.4s5.5,27.6,4.9,36.3s-2.3,29.3,2,41.8c4.4,12.5,3.5,33.7,2.3,39.2s-9.6,17.1-12.2,29s-7.9,3.5-10.8,18.3
		c0,0,18.9,3.5,25.3-8.7c6.4-12.2,5.2-13.7,13.4-13.1c8.1,0.6,5.5-8.4,1.7-20.3s-3.2-43.6-0.6-47.9s4.6-15.4,5.5-20
		c0.9-4.6,5.8-18,10.2-19.2s7.6,25,11.6,40.4c4.1,15.4,4.6,38.9,16.3,43.3c11.6,4.4,60.7,21.5,80.5,24.7s10.5-11,4.6-15.7
		c-5.8-4.6-7-9.3-10.5-6.1c-3.5,3.2-6.1,3.8-15.7,1.2c-9.6-2.6-48.2-15.1-50.3-22.7s2.6-22.9,4.4-30.5c1.7-7.6,0.6-27,6.4-28.8
		c5.8-1.7,27-3.2,31.4,2.6c4.4,5.8,16.3-0.3,19.5-2.3s24.1,2.9,30.5-0.3s16.8-4.9,20.3,1.2s16.3,12.2,18,27.9
		c1.7,15.7-20,67.1-20,72s-3.5,7.8-3.2,12.5s2.3,13.1,8.1,13.9s8.7-1.7,8.4-8.7s8.7-11,8.7-15.7s-1.2-13.4,2-21.2
		c3.2-7.8,2.6-10.5,6.7-20c4.1-9.6,8.1-22.1,12.5-22.4s14.5-3.8,17.1,0s18.3,32.2,17.7,41.5c-0.6,9.3-1.2,27.6-6.7,38.1
		s-0.3,16.8,6.7,11.6c7-5.2,7-12.8,10.7-12.8s10.5,0.3,8.7-6.1c-1.7-6.4-7.8-31.4-7-42.7c0.9-11.3-4.1-12.8-2-17.4
		c2-4.6,7.6-4.4,4.4-11.3s-9-13.9-10.5-18s-9.6-18.6-6.4-26.4s5.8-11.3,6.7-16.3c0,0,0.6,11.6-2.6,20c-3.2,8.4,12.2,32.8,13.9,32.8
		c1.7,0,10.2,3.8,12.2,8.1s14.5-4.1,13.1-13.7c-1.5-9.6-9.6-17.7-10.5-25c-0.9-7.3-6.7-17.9-7.6-21.1c-0.9-3.3,1.5-9.4,1.5-15.5
		s-8.7-19.5-14.8-24.1c-6.1-4.6,5.5-12.2-17.4-20.3s-21.8-11.3-37.5-6.1s-3.5-18-44.2-0.6c0,0-20.6-11.6-39.2,0.6
		c0,0-23.8-4.6-27.3-0.9c-3.5,3.8-11.4-6.2-14.6-6.5c-3.2-0.3-13.9,0.7-16.2-2.3c-2.3-2.9-4.6-13.9-10.2-15.4s3.2-7.8-5.8-22.9
		l-3-7.3c-0.4-1.1,0.1-2.3,1.3-2.6c4-1.2,13.3-3.6,25.6-5.2c0,0,3.3-1.3,2.6-5.4s-15.9-3-21.1-1.1c0,0,12.4-5.2,22.7-2.2
		c0,0,4.6,1.3,4.1-2c-0.4-3-3.7-5.7-6.2-6.9c-0.1,0,0-0.2,0-0.1c1.5,0.3,4.7,0.6,8.1-0.2c0,0,2-6.5-5-8.9s-15.7-5-16.8-7
		s-10.7-5-11.3-5.7c-0.7-0.7-4.4-10.5-7.8-11.8s-8.3-2.8-13.1,1.3c0,0-5.9-4.6-11.1-4.6s-7.6,1.5-10.7,0c-3-1.5-10.7-5.4-11.1-8.7
		c0,0-3.7,2.2-1.1,10s2.4,12.6,1.1,13.3s-11.1-0.9-14.4-0.4c-3.3,0.4-8.4-0.4-11-1.7c-2.5-1.3-1.4,5,1.4,7.4s0.6,7.2,2.2,8.3
		C87.7,86.6,88.2,88.5,96.2,89.3z"/>
	<path class="st4" d="M164.3,89.2c0,0-9.4,3.7-14.4,2.8s-8.5-4.6-8.5-4.6S154.7,78.1,164.3,89.2z"/>
	<path class="st0" d="M147.9,84.6c0,0,1.3,5.3,6.7,7.4c0,0,2.7,0.3,1.8-3.7s1.8-3.5,1.8-3.5S153.5,82.5,147.9,84.6z"/>
	<g>
		<path class="st0" d="M95.2,88.8c4.3,0.6,8.8,1,13.2,0.9c2.6-0.2,5.4-0.3,7.3-1.9c2.4-3.2-1.5-6.5-4.4-7.7c-2-0.9-4.2-1.3-6.4-1.2
			c-3.3,0.3-6.8,0.9-10.1-0.2c-1.1-0.3-2.1-0.8-3-1.6c0.9,0.7,2,1.1,3,1.4c3.3,0.9,6.6,0.1,10-0.4c4.6-0.3,9.8,1.1,12.5,5.2
			c5,10.9-16.7,8.9-22.6,8.5C94.8,91.8,95.2,88.8,95.2,88.8L95.2,88.8z"/>
	</g>
	<g>
		<path class="st0" d="M108.6,103.3c13.5,9,34.6,19.7,50.8,13.5l1.1,2.8C143,125.3,122.2,113.4,108.6,103.3L108.6,103.3z"/>
	</g>
	<g>
		<path class="st0" d="M106.6,70c4.5,1.8,10.9,5.2,13.8,9.3c-3.3-3.6-9.7-6.3-14.3-7.4c-0.1,0,2.1-0.8,2.1-0.8L106.6,70z"/>
	</g>
	<path class="st4" d="M161,72c0,0-6.1-3.8-11.3-0.5s-9.7-1.1-12.5,0.5s-6.5,5.3-9.8,4.6s-5.1-5.3-0.5-6.4c4.6-1.2,5.3,2.3,4.6,3.3
		c-0.8,1-3.8,2.2-5,0.8c-1.2-1.4,0.9-2.7,2.2-2.2"/>
	<path class="st4" d="M106.6,67.2c0,0,2.9-3.5,6.8-4s7.2-1.8,8.8-5.1"/>
	<path class="st5" d="M94.9,211.1c0,0,10.4,28.5,16.7,30.4s15.1,11.7,25.4,13.6"/>
	<g>
		<path class="st0" d="M136.6,255.2c-2.4-6.9-4.5-13.7-6.3-20.7c-1.7-7-3.6-14.1-3.4-21.3c0.4,7.2,2.9,14,5.3,20.7
			s4.8,14.7,7.7,21.2L136.6,255.2L136.6,255.2z"/>
	</g>
	<g>
		<path class="st0" d="M182.5,263.4c-8.3-2.8-32.4-10.5-34.9-19.2c-2.4-7.2,2.2-16.4,10-17.5c0.9-0.1,1.9-0.1,2.8,0.1
			c3.5,0.6,7,1.9,9.5,4.6c3.6,3.7,2.5,11.2-2.8,12.7c-2.4,0.7-4.9,0.1-7.1-0.8c-1.1-0.4-2.3-1.1-3.1-2c-2-2.1-2.2-5.9,1-6.9
			c1.3-0.4,2.5-0.2,3.5,0.3c-1.1,0.2-2.2,0.5-2.9,1c-1.2,0.8-1.4,1.9-0.9,3c1.2,2.7,6.3,4,8.9,3.2c3.7-1.1,4.3-6.7,1.7-9.2
			c-2.7-2.6-7.4-4.3-11-3.6c-1.9,0.4-3.6,1.5-4.9,3c-4,4.5-4.4,12.3,1.1,15.7c8.9,6.2,19.4,9.9,29.6,13.7
			C183.1,261.7,182.5,263.4,182.5,263.4L182.5,263.4z"/>
	</g>
	<path class="st0" d="M333.6,300c-0.2-0.7-4.9-12.5-8.7-18.1c-4-6-13.4-19.3-20.8-21.7c-7.1-2.3-11.9-11.9-11-20.2
		s-4.8-12.4-2.6-19.6c2.2-7.2,5.9-10,11.8-11.1c0,0-10.7,9.4-7.6,15.9c3,6.5,3.3,20.7,3.3,22.9c0,6.5,20.3,16.7,22.4,20.3
		c2.6,4.3,19.3,23.2,23.9,30.8C348.3,305.8,333.6,300,333.6,300z"/>
	<g>
		<path class="st0" d="M363.8,251.3c2.5-7.2,4.8-15.5,2.3-23c-0.6-1.3-1.5-3.1-1.9-4.5c-1-3-1.7-6.6-0.3-9.6
			c-0.6,1.5-0.5,3.2-0.2,4.7c0.5,3.2,2.1,6,3.7,8.8c2.1,4.6,2,9.9,1.4,14.8c-0.4,3.3-1.1,6.5-2.1,9.7L363.8,251.3L363.8,251.3z"/>
	</g>
</g>
<g id="Layer_3">
	<path id="path27440" class="st6" d="M481.5,1.5v205.8c0,12.7-0.8,25.4-2.3,38c-0.1,0.9-0.2,1.9-0.4,2.8c0,0.2,0,0.4-0.1,0.6
		c-0.1,0.7-0.2,1.5-0.3,2.2c-0.5,3.4-1,6.7-1.6,10c-0.1,0.4-0.2,0.9-0.2,1.3c-0.2,0.8-0.3,1.6-0.5,2.4s-0.3,1.8-0.5,2.7l-0.5,2.2
		l-0.2,1.1c-0.2,0.7-0.3,1.4-0.5,2.1c-0.5,2.4-1.1,4.7-1.6,7l-0.6,2.3l-0.5,2c-1,3.9-2.1,7.8-3.3,11.6c-0.3,1-0.6,1.9-0.9,2.9
		l-0.6,1.9c-0.2,0.6-0.4,1.2-0.6,1.9c-0.4,1.1-0.7,2.2-1.1,3.2s-0.7,2-1,3c-0.5,1.3-0.9,2.6-1.4,3.8c-0.4,1-0.7,2-1.1,3l-0.2,0.5
		c-0.4,1.1-0.9,2.2-1.3,3.4s-0.9,2.2-1.3,3.2c0,0.1-0.1,0.3-0.2,0.4c-0.4,1-0.8,2-1.2,3s-0.8,1.8-1.1,2.6l-0.7,1.5
		c-0.5,1.1-1,2.1-1.4,3.1s-0.9,2-1.4,2.9l-1,2.1c-0.3,0.6-0.6,1.2-0.9,1.9c-0.6,1.3-1.3,2.6-2,4c-1.7,3.3-3.4,6.6-5.2,9.8l-2,3.6
		l-0.1,0.2c-1.4,2.4-2.8,4.9-4.3,7.2v0.1c-0.7,1.2-1.5,2.4-2.2,3.5c-0.1,0.2-0.2,0.3-0.3,0.5s-0.3,0.5-0.5,0.7
		c-0.4,0.6-0.8,1.3-1.2,1.9l-0.7,1c-0.7,1-1.3,2-2,3l-0.1,0.2c-0.7,1-1.3,2-2,3l-0.5,0.7c-1.5,2.2-3,4.3-4.5,6.5l-0.3,0.4
		c-0.8,1.1-1.5,2.1-2.3,3.2s-1.7,2.2-2.5,3.3c-1.5,2-3.1,4-4.6,6l-0.8,1c-0.7,0.9-1.5,1.8-2.2,2.8l-2.3,2.6l-0.6,0.7
		c-0.4,0.5-0.8,0.9-1.2,1.4c-0.1,0.1-0.2,0.2-0.3,0.3c-0.3,0.4-0.6,0.7-0.9,1.1c-1.2,1.4-2.5,2.9-3.7,4.3c-0.7,0.8-1.3,1.5-2,2.2
		s-1.5,1.7-2.3,2.5l-0.8,0.8l-1.4,1.5c-2,2.1-4,4.2-5.9,6.2c-1.8,1.9-3.7,3.7-5.5,5.6l-0.8,0.8c-0.6,0.6-1.3,1.3-1.9,1.9
		c-0.9,0.9-1.8,1.8-2.8,2.7l-2.3,2.1c-0.7,0.7-1.4,1.3-2,1.9c-9.7,8.9-19.7,17.3-30.2,25.3c-1,0.8-2,1.5-3,2.3
		c-6.6,5-13.3,9.7-20.1,14.3c-1,0.7-2.1,1.4-3.1,2.1s-2,1.3-3,1.9l0,0l-0.2,0.1l0,0l-2.2,1.5c-0.9,0.5-1.7,1.1-2.6,1.6l-1.7,1.1
		c-3.7,2.3-7.2,4.5-10.7,6.5l-2.4,1.4l-2.4,1.4l-2.3,1.3l-2.2,1.3c-8.3,4.7-15.9,8.6-22.4,11.8l-1.6,0.8c-10.6,5.2-18.1,8.2-21,9.3
		l-0.4,0.2l-0.6,0.2h-0.1h-0.1l-0.2-0.1h-0.2l-1.1-0.4l-0.5-0.2c-0.9-0.3-2-0.8-3.4-1.4l-0.5-0.2c-1.8-0.8-3.9-1.7-6.3-2.8l-1.4-0.6
		c-13.6-6.2-26.9-13.1-39.8-20.6c-0.8-0.4-1.6-0.9-2.3-1.4c-4.8-2.8-9.6-5.8-14.3-8.8c-3.5-2.2-7-4.5-10.4-6.8
		c-0.8-0.5-1.5-1-2.2-1.5c-0.6-0.4-1.1-0.8-1.7-1.2c-5.5-3.8-10.9-7.7-16.2-11.7l-2.6-2l-0.6-0.5c-0.8-0.6-1.5-1.2-2.3-1.8l-2.4-1.9
		l-0.4-0.3c-6.2-4.9-12.4-10.2-18.6-15.7l-1.5-1.4c-1.5-1.4-3.1-2.8-4.6-4.2l-1.7-1.6l-1.8-1.7l-2-1.9c-1.1-1.1-2.2-2.2-3.3-3.3
		c-0.8-0.8-1.7-1.7-2.5-2.5l-0.2-0.3c-0.8-0.8-1.7-1.7-2.5-2.5l-0.3-0.4l-0.4-0.4l-1.3-1.3l-1-1.1l-1-1l-0.1-0.2l-2.1-2.2
		c-1.1-1.1-2.2-2.3-3.2-3.5l-0.1-0.1l0,0c-1.1-1.2-2.2-2.5-3.3-3.7l-1.3-1.5l-0.7-0.8c-0.6-0.7-1.1-1.3-1.7-1.9
		c-0.7-0.8-1.3-1.6-2-2.4c-2.9-3.4-5.7-6.9-8.4-10.5c-0.8-1-1.5-1.9-2.2-2.9c-1.9-2.5-3.7-5-5.6-7.5c-0.5-0.8-1.1-1.6-1.7-2.4
		c-0.1-0.2-0.2-0.3-0.4-0.5c-0.6-0.9-1.2-1.7-1.8-2.6l-1.5-2.3c0-0.1-0.1-0.1-0.1-0.2c-0.4-0.6-0.8-1.1-1.1-1.7
		c-0.7-1.1-1.5-2.2-2.2-3.3c0-0.1-0.1-0.2-0.1-0.2l-2.2-3.5l-0.2-0.4l-0.9-1.4l-1.2-2l-0.3-0.5c-0.2-0.3-0.3-0.6-0.5-0.9
		c-0.5-0.8-0.9-1.6-1.4-2.3l-0.6-1.1c-0.5-0.8-1-1.7-1.5-2.6c-3.1-5.3-6-10.8-8.8-16.5c-0.4-0.7-0.7-1.4-1-2.1
		c-0.2-0.4-0.4-0.9-0.6-1.4c-0.4-0.9-0.8-1.7-1.2-2.6c-0.4-0.8-0.8-1.6-1.1-2.5l-0.2-0.5c-0.3-0.6-0.5-1.2-0.8-1.8l-0.3-0.6
		c-0.3-0.6-0.5-1.2-0.8-1.8c-1-2.2-1.9-4.4-2.8-6.6c-0.4-1-0.8-2-1.2-3.1c-0.1-0.2-0.2-0.5-0.3-0.8c-0.4-1-0.8-2-1.2-3
		s-0.7-1.8-1-2.7l-0.2-0.6c-0.2-0.4-0.3-0.9-0.5-1.4c-0.7-1.8-1.3-3.6-1.9-5.4c-0.2-0.6-0.4-1.2-0.6-1.8c-0.3-0.8-0.5-1.5-0.8-2.3
		c-0.1-0.4-0.3-0.8-0.4-1.2c-0.2-0.8-0.5-1.6-0.8-2.4s-0.5-1.7-0.8-2.6c-0.1-0.2-0.1-0.4-0.2-0.5c-0.2-0.6-0.4-1.3-0.6-2
		c-0.4-1.3-0.7-2.6-1.1-3.9c-0.2-0.7-0.4-1.4-0.5-2c-0.1-0.5-0.3-1-0.4-1.5c-0.3-1.2-0.6-2.5-0.9-3.7c-0.2-0.7-0.3-1.4-0.5-2.1
		c-0.1-0.3-0.1-0.6-0.2-0.9c-0.4-1.5-0.7-3.1-1.1-4.7c-0.3-1.2-0.5-2.3-0.7-3.5c-0.1-0.7-0.3-1.4-0.4-2.1s-0.3-1.6-0.5-2.5
		c0-0.2,0-0.3-0.1-0.5c-0.2-0.8-0.3-1.6-0.5-2.5S6.5,259,6.3,258s-0.3-1.8-0.5-2.7c-0.4-2.5-0.7-5-1.1-7.5c-0.2-1.2-0.3-2.5-0.5-3.7
		c-1.5-12.5-2.3-25.1-2.3-37.7V1.5H481.5z"/>
</g>
<radialGradient id="shine_00000016792278972853852080000013463645474529738905_" cx="567.6285" cy="904.9218" r="405" gradientTransform="matrix(0.8051 0 0 0.803 -279.9061 -550.9086)" gradientUnits="userSpaceOnUse">
	<stop  offset="0" style="stop-color:#FFFFFF;stop-opacity:0.3"/>
	<stop  offset="0.2" style="stop-color:#FFFFFF;stop-opacity:0.2"/>
	<stop  offset="0.6" style="stop-color:#666666;stop-opacity:0.1"/>
	<stop  offset="1" style="stop-color:#000000;stop-opacity:0.13"/>
</radialGradient>
<path id="shine" style="fill:url(#shine_00000016792278972853852080000013463645474529738905_);stroke:#000000;stroke-width:2.4122;" d="
	M1.6,0.7v206.4c0,229.7,239.9,319.6,239.9,319.6s239.9-89.9,239.9-319.6V0.7H1.6z"/>
</svg>
