<?xml version="1.0" encoding="UTF-8" standalone="no"?>
<svg
   viewBox="0 0 483 527.48"
   version="1.1"
   id="svg28924"
   sodipodi:docname="House Sunglass.svg"
   inkscape:version="1.2.1 (9c6d41e410, 2022-07-14)"
   xmlns:inkscape="http://www.inkscape.org/namespaces/inkscape"
   xmlns:sodipodi="http://sodipodi.sourceforge.net/DTD/sodipodi-0.dtd"
   xmlns="http://www.w3.org/2000/svg"
   xmlns:svg="http://www.w3.org/2000/svg">
  <sodipodi:namedview
     id="namedview28926"
     pagecolor="#ffffff"
     bordercolor="#000000"
     borderopacity="0.25"
     inkscape:showpageshadow="2"
     inkscape:pageopacity="0.0"
     inkscape:pagecheckerboard="0"
     inkscape:deskcolor="#d1d1d1"
     showgrid="false"
     inkscape:zoom="1.12203"
     inkscape:cx="166.66221"
     inkscape:cy="273.61122"
     inkscape:window-width="1920"
     inkscape:window-height="1017"
     inkscape:window-x="-8"
     inkscape:window-y="-8"
     inkscape:window-maximized="1"
     inkscape:current-layer="svg28924" />
  <defs
     id="defs28657">
    <style
       id="style28655">.cls-1{fill:#dddad0;}.cls-2{fill:#b23d26;}.cls-3{fill:#d1ba59;}.cls-4{fill:none;stroke:#000;stroke-width:3px;}</style>
    <radialGradient
       id="rg"
       gradientUnits="userSpaceOnUse"
       cx="220"
       cy="220"
       r="405"
       gradientTransform="matrix(0.80510068,0,0,0.80302287,-0.03015929,-0.89702731)">
      <stop
         style="stop-color:#ffffff;stop-opacity:.3"
         offset="0"
         id="stop753" />
      <stop
         style="stop-color:#ffffff;stop-opacity:.2"
         offset=".2"
         id="stop755" />
      <stop
         style="stop-color:#666666;stop-opacity:.1"
         offset=".6"
         id="stop757" />
      <stop
         style="stop-color:#000000;stop-opacity:.13"
         offset="1"
         id="stop759" />
    </radialGradient>
  </defs>
  <title
     id="title28659">House Sunglass</title>
  <g
     id="Layer_2"
     data-name="Layer 2">
    <path
       class="cls-1"
       d="M927,122.76V328.6a313.88,313.88,0,0,1-2.28,38c-.11.93-.24,1.86-.36,2.79,0,.2,0,.4-.08.59-.09.74-.19,1.47-.31,2.2-.46,3.37-1,6.69-1.6,10-.07.44-.15.87-.23,1.31-.16.8-.29,1.6-.45,2.4s-.34,1.79-.51,2.69l-.45,2.22-.24,1.15c-.15.71-.3,1.44-.46,2.15-.54,2.37-1.07,4.71-1.61,7l-.58,2.32-.52,2q-1.53,5.88-3.27,11.61c-.29,1-.59,1.94-.9,2.92l-.6,1.88c-.2.63-.4,1.24-.61,1.86-.37,1.09-.73,2.17-1.1,3.25s-.68,2-1,3c-.47,1.28-.93,2.56-1.39,3.81-.36,1-.73,2-1.11,3l-.19.5c-.43,1.14-.87,2.25-1.32,3.36s-.87,2.17-1.31,3.2c0,.15-.12.28-.18.42-.4,1-.8,2-1.25,3s-.76,1.75-1.13,2.62l-.66,1.49c-.48,1.07-1,2.11-1.44,3.15s-.9,2-1.36,2.93l-1,2.12c-.29.63-.6,1.25-.91,1.87-.63,1.33-1.31,2.64-2,4q-2.52,5-5.19,9.77l-2,3.57-.12.21c-1.4,2.44-2.82,4.86-4.28,7.24a.41.41,0,0,1,0,.09c-.71,1.2-1.46,2.4-2.18,3.54-.11.16-.2.32-.3.47s-.31.5-.47.74c-.4.64-.81,1.28-1.22,1.92l-.65,1c-.65,1-1.31,2-2,3l-.13.18c-.65,1-1.31,2-2,3l-.45.67q-2.25,3.29-4.54,6.46l-.31.43c-.8,1.07-1.54,2.14-2.31,3.19s-1.66,2.23-2.5,3.32c-1.52,2-3.06,4-4.61,6l-.81,1q-1.09,1.39-2.22,2.76L854,526.61l-.57.69c-.4.47-.79.93-1.2,1.39a4.16,4.16,0,0,1-.27.32c-.31.37-.62.73-.94,1.09-1.23,1.44-2.46,2.87-3.73,4.29-.65.75-1.32,1.5-2,2.24s-1.52,1.69-2.29,2.51-1.47,1.6-2.22,2.4q-3,3.2-5.93,6.24-2.76,2.82-5.53,5.59l-.83.82c-.64.64-1.29,1.27-1.93,1.89-.92.89-1.85,1.78-2.79,2.66l-2.28,2.12c-.68.65-1.36,1.28-2,1.91q-14.52,13.32-30.16,25.31c-1,.77-2,1.52-3,2.28q-9.86,7.43-20.1,14.31-1.56,1.05-3.12,2.07c-1,.65-2,1.29-3,1.92a0,0,0,0,1,0,0l-.18.12h0l-2.24,1.45c-.86.55-1.72,1.1-2.57,1.6l-1.74,1.09c-3.67,2.31-7.25,4.48-10.73,6.54l-2.41,1.4-2.36,1.37-2.33,1.34-2.23,1.29c-8.34,4.68-15.9,8.59-22.38,11.76l-1.6.8c-10.64,5.15-18.12,8.22-21,9.35l-.42.17-.61.24-.14,0h-.08l-.23-.09-.21,0-1.07-.42-.54-.23c-.87-.34-2-.8-3.37-1.38l-.46-.18c-1.76-.8-3.89-1.67-6.33-2.77l-1.39-.61a442.25,442.25,0,0,1-39.75-20.6c-.8-.44-1.6-.92-2.35-1.38q-7.23-4.26-14.29-8.78-5.26-3.36-10.42-6.85c-.75-.51-1.49-1-2.23-1.53-.57-.38-1.13-.76-1.69-1.16q-8.21-5.66-16.15-11.66l-2.63-2-.61-.47c-.77-.6-1.55-1.2-2.33-1.82l-2.37-1.86-.44-.35c-6.19-4.92-12.43-10.15-18.64-15.69L558.08,566q-2.31-2.05-4.59-4.2l-1.67-1.57L550,558.54l-2-1.94c-1.12-1.07-2.23-2.17-3.33-3.27-.85-.79-1.69-1.66-2.52-2.5l-.24-.26c-.84-.83-1.67-1.67-2.5-2.51l-.34-.36c-.55-.56-1.09-1.12-1.63-1.69l-1-1.06-1-1-.13-.15-2.1-2.25c-1.12-1.2-2.24-2.41-3.34-3.64h0c-1.11-1.23-2.21-2.46-3.31-3.71l-1.31-1.5-.74-.84c-.57-.65-1.12-1.29-1.66-1.94q-1-1.2-2-2.4-4.28-5.1-8.39-10.48c-.76-1-1.5-1.93-2.24-2.92-1.89-2.47-3.73-5-5.57-7.55-.55-.8-1.12-1.59-1.68-2.39-.13-.16-.24-.34-.36-.5-.59-.86-1.19-1.7-1.77-2.56l-1.54-2.28a1,1,0,0,1-.12-.17c-.39-.57-.77-1.14-1.15-1.72s-.79-1.17-1.18-1.77l-1-1.54a1,1,0,0,0-.15-.24l-2.22-3.48-.22-.36-.88-1.43-1.22-2-.32-.53c-.17-.27-.34-.56-.51-.85-.46-.76-.94-1.56-1.38-2.33l-.64-1.1c-.5-.84-1-1.67-1.49-2.57q-4.61-8-8.77-16.46c-.35-.69-.69-1.38-1-2.09-.22-.44-.44-.88-.65-1.35-.43-.87-.8-1.74-1.25-2.63a25.91,25.91,0,0,1-1.15-2.47l-.23-.48c-.27-.58-.53-1.16-.81-1.75l-.26-.57c-.27-.59-.52-1.19-.8-1.78q-1.44-3.25-2.79-6.57c-.42-1-.8-2-1.23-3.08-.1-.25-.21-.52-.31-.79-.4-1-.8-2-1.16-3s-.69-1.82-1-2.74l-.24-.65c-.17-.44-.33-.91-.49-1.35q-1-2.7-1.9-5.44c-.21-.6-.4-1.2-.6-1.8-.26-.8-.51-1.54-.75-2.32-.14-.41-.27-.8-.4-1.22-.25-.8-.49-1.59-.75-2.39-.31-1-.61-2.06-.92-3.11-.19-.64-.39-1.28-.57-1.95-.37-1.29-.74-2.58-1.09-3.89-.19-.68-.37-1.35-.55-2-.13-.5-.27-1-.4-1.51-.32-1.22-.62-2.45-.92-3.7-.18-.7-.34-1.4-.52-2.11-.07-.28-.13-.56-.19-.85-.37-1.55-.72-3.11-1.07-4.69-.26-1.16-.5-2.33-.74-3.5-.13-.71-.29-1.43-.42-2.14s-.32-1.59-.48-2.45a1.86,1.86,0,0,0-.09-.47c-.16-.8-.3-1.64-.45-2.48s-.32-1.84-.48-2.77-.29-1.8-.45-2.71q-.57-3.7-1.07-7.47c-.17-1.23-.33-2.47-.48-3.71A312.7,312.7,0,0,1,447,328.58V122.76Z"
       transform="translate(-445.5 -121.26)"
       id="path28661" />
  </g>
  <g
     id="Layer_5"
     data-name="Layer 5">
    <path
       class="cls-2"
       d="M684.16,564.83s4-4,5.87-16.18,4.12-17.61,2.38-23.32-8.09-16-7.46-18.09c.4-1.29-.89,10.22-1.91,19.07a88.78,88.78,0,0,0-.15,19c.73,7.27,1.54,16.6,1.27,19.47Z"
       transform="translate(-445.5 -121.26)"
       id="path28664" />
    <path
       class="cls-3"
       d="M685,507.45a9.47,9.47,0,0,1,.39,2.18c.51,6.18-2.44,17-1.89,19.82.65,3.43,4.29,10.15,4,15.7s-3.38,19.67-3.38,19.67-1.11-15.55-4.76-22.06-4.13-16-1.43-22,5.55-7.78,7-13.49Z"
       transform="translate(-445.5 -121.26)"
       id="path28666" />
    <path
       class="cls-2"
       d="M680.55,505.82a2,2,0,0,0-.65.71,9.65,9.65,0,0,0-.69,1.33v0c-1.72,3.84-3.81,12-6,16.1-2.74,5.31-8.1,7.61-18,15s-15.5,7.48-15.5,7.48h0l0,0c2.23-1.9,8.13-9.11,12.66-14.8a88.92,88.92,0,0,1,13.41-13.53c5.32-4.32,11.86-9.67,14-11.61l.53-.48h0Z"
       transform="translate(-445.5 -121.26)"
       id="path28668" />
    <path
       class="cls-3"
       d="M680.54,505.82c-5,3.09-8.27,2.34-14.41,4.78s-12.45,9.58-14.38,16.78-12,19.11-12,19.11,12.08-7.94,16.16-11.72,6.17-11.13,8.1-14S678.25,510.9,680.54,505.82Z"
       transform="translate(-445.5 -121.26)"
       id="path28670" />
    <path
       class="cls-2"
       d="M689.16,505.89a2.11,2.11,0,0,0,.7.64,9.75,9.75,0,0,0,1.34.7h0c3.84,1.72,12,3.81,16.1,5.94,5.31,2.74,7.61,8.1,15,18s7.48,15.5,7.48,15.5h0l0,0c-1.9-2.23-9.11-8.14-14.8-12.67a89.26,89.26,0,0,1-13.53-13.4c-4.33-5.33-9.68-11.88-11.62-14.05l-.47-.52h0Z"
       transform="translate(-445.5 -121.26)"
       id="path28672" />
    <path
       class="cls-3"
       d="M689.17,505.88c3.09,5,2.34,8.27,4.78,14.41s9.58,12.45,16.78,14.38,19.11,12,19.11,12-7.94-12.08-11.72-16.16-11.13-6.17-14-8.1S694.24,508.18,689.17,505.88Z"
       transform="translate(-445.5 -121.26)"
       id="path28674" />
    <path
       class="cls-2"
       d="M710.95,448.25v0s0,0,0,0c-1.42,2.56-4.45,11.36-6.72,18.28a88.43,88.43,0,0,1-7.86,17.34c-3.5,5.94-7.78,13.26-9.13,15.81-.15.27-.25.49-.32.64Z"
       transform="translate(-445.5 -121.26)"
       id="path28676" />
    <path
       class="cls-2"
       d="M686.88,500.56l.09-.11a2.58,2.58,0,0,0,.26-.74,10,10,0,0,0,.2-1.51c.27-4.2-.59-12.55,0-17.2.72-5.93,4.93-10,11.64-20.35,6.52-10.13,11.65-12.31,11.91-12.4h0Z"
       transform="translate(-445.5 -121.26)"
       id="path28678" />
    <path
       class="cls-3"
       d="M686.87,500.56c3.62-4.64,6.94-5.08,11.85-9.49s8.34-13.31,7.64-20.74S711,448.24,711,448.24s-8.56,11.65-11.07,16.61-1.91,12.58-2.7,16S687.26,495,686.87,500.56Z"
       transform="translate(-445.5 -121.26)"
       id="path28680" />
    <path
       class="cls-2"
       d="M744.42,481.69s-5.15-2.21-17.21.55-17.88,2.7-22.54,6.44-11.88,13.46-14,13.63c-1.34.11,9.82-3,18.42-5.3a88.78,88.78,0,0,0,17.74-6.92c6.48-3.37,14.85-7.59,17.62-8.4Z"
       transform="translate(-445.5 -121.26)"
       id="path28682" />
    <path
       class="cls-3"
       d="M690.84,502.16A10,10,0,0,1,692.7,501h0c5.56-2.75,16.64-4,19.1-5.59,2.94-1.88,7.84-7.74,13.09-9.55,5.1-1.75,18.64-4,19.48-4.15h0l0,0c-.82.41-14.13,7-18.67,12.58-4.69,5.8-13.36,9.78-20,9.51s-9.28-2.27-15.11-1.48Z"
       transform="translate(-445.5 -121.26)"
       id="path28684" />
    <path
       class="cls-2"
       d="M683.58,499.11a2,2,0,0,0-.39-.89h0a10.07,10.07,0,0,0-.94-1.18c-2.83-3.13-9.37-8.33-12.29-12-3.74-4.65-3.68-10.49-6.44-22.54s-.55-17.2-.55-17.2a.15.15,0,0,0,0,0h0c.83,2.8,5,11.12,8.38,17.57a88.58,88.58,0,0,1,6.92,17.74c1.79,6.6,4,14.72,4.91,17.53h0c.1.3.18.53.24.7Z"
       transform="translate(-445.5 -121.26)"
       id="path28686" />
    <path
       class="cls-3"
       d="M683.59,499.11c-.79-5.83,1.21-8.51,1.48-15.11s-3.7-15.26-9.5-20S663,445.33,663,445.33s2.35,14.26,4.16,19.52S674.8,475,676.68,478,679.88,495,683.59,499.11Z"
       transform="translate(-445.5 -121.26)"
       id="path28688" />
    <path
       class="cls-2"
       d="M663.75,496.17c6.17,2.94,13.78,6.53,16.49,7.68a9.51,9.51,0,0,0-1.48-.05c-4.22.1-12.45,1.7-17.11,1.55-6-.19-10.35-4-21.3-9.79-10.67-5.6-13.29-10.51-13.42-10.77h0c2.67,1.2,11.71,3.42,18.8,5.07A89.14,89.14,0,0,1,663.75,496.17Z"
       transform="translate(-445.5 -121.26)"
       id="path28690" />
    <path
       class="cls-2"
       d="M681.18,504.14h-.24l-.7-.28A2.11,2.11,0,0,1,681.18,504.14Z"
       transform="translate(-445.5 -121.26)"
       id="path28692" />
    <path
       class="cls-3"
       d="M681.18,504.14h-.24a9.47,9.47,0,0,1-2.17-.33c-6-1.53-15.25-7.78-18.14-8.19-3.46-.49-11,.78-16.17-1.27-5-2-16.76-9.09-17.49-9.53h0s15.07,4,22.41,2.62,16.5,1.27,21.33,5.77S676.24,500.94,681.18,504.14Z"
       transform="translate(-445.5 -121.26)"
       id="path28694" />
    <path
       class="cls-2"
       d="M522.34,485.44s5.57.63,16.31-5.5,16.34-7.75,19.72-12.68,7.48-16.32,9.49-17.11c1.25-.49-8.55,5.68-16.1,10.4a88.78,88.78,0,0,0-15,11.76c-5.23,5.1-12,11.56-14.44,13.13Z"
       transform="translate(-445.5 -121.26)"
       id="path28696" />
    <path
       class="cls-3"
       d="M567.74,450.34a9.47,9.47,0,0,1-1.46,1.67c-4.52,4.25-14.77,8.67-16.68,10.88-2.27,2.65-5.26,9.68-9.77,12.93s-17.49,9.63-17.49,9.63S533.8,474.88,536.62,468s9.95-13.21,16.35-14.87,9.54-.51,14.9-2.95Z"
       transform="translate(-445.5 -121.26)"
       id="path28698" />
    <path
       class="cls-2"
       d="M566.22,445.82a2,2,0,0,0-1-.06,9.65,9.65,0,0,0-1.47.29h0c-4.07,1.05-11.73,4.47-16.3,5.39-5.86,1.17-11-1.59-23-4.69S509,439.28,509,439.28h0c2.88.55,12.19.67,19.46.67a88.92,88.92,0,0,1,18.94,2c6.7,1.47,15,3.24,17.83,3.74l.71.12h0Z"
       transform="translate(-445.5 -121.26)"
       id="path28700" />
    <path
       class="cls-3"
       d="M566.22,445.82c-5.54-2-7-5-12.72-8.29s-15.25-3.76-22.08-.78S509,439.28,509,439.28s13.74,4.5,19.24,5.32,12.55-2.12,16-2.42S560.82,447.19,566.22,445.82Z"
       transform="translate(-445.5 -121.26)"
       id="path28702" />
    <path
       class="cls-2"
       d="M571.54,452.6a2.11,2.11,0,0,0-.06.94,9.75,9.75,0,0,0,.29,1.48,0,0,0,0,0,0,0c1.05,4.07,4.48,11.72,5.39,16.3,1.17,5.86-1.59,11-4.7,23S565,509.82,565,509.82h0s0,0,0,0c.56-2.88.68-12.2.68-19.46a89.26,89.26,0,0,1,2-18.93c1.47-6.71,3.25-15,3.74-17.85.05-.29.09-.53.12-.7h0Z"
       transform="translate(-445.5 -121.26)"
       id="path28704" />
    <path
       class="cls-3"
       d="M571.54,452.6c-2,5.54-5,7-8.29,12.72s-3.76,15.25-.78,22.08S565,509.82,565,509.82s4.5-13.74,5.32-19.24-2.12-12.55-2.42-16S572.92,458,571.54,452.6Z"
       transform="translate(-445.5 -121.26)"
       id="path28706" />
    <path
       class="cls-2"
       d="M630.19,433.7h0s0,0,0,0c-2.89.48-11.66,3.61-18.48,6.14a88.43,88.43,0,0,1-18.46,4.67c-6.82,1-15.22,2.19-18.05,2.72-.3.05-.54.11-.7.14Z"
       transform="translate(-445.5 -121.26)"
       id="path28708" />
    <path
       class="cls-2"
       d="M574.28,447.49h.14a2.58,2.58,0,0,0,.74-.26,10,10,0,0,0,1.31-.78c3.45-2.41,9.44-8.29,13.43-10.74,5.08-3.14,10.85-2.35,23.16-3.59,12-1.22,16.89,1.44,17.13,1.58h0Z"
       transform="translate(-445.5 -121.26)"
       id="path28710" />
    <path
       class="cls-3"
       d="M574.28,447.49c5.89-.06,8.3,2.26,14.81,3.35s15.6-1.78,21-7S630.2,433.7,630.2,433.7s-14.45.57-19.89,1.71-11,6.35-14.18,7.85S578.86,444.32,574.28,447.49Z"
       transform="translate(-445.5 -121.26)"
       id="path28712" />
    <path
       class="cls-2"
       d="M624.91,480.72s-1.48-5.41-11.16-13.11-13.26-12.3-19.09-13.61-17.93-.9-19.41-2.47c-.92-1,8.45,5.83,15.63,11.1a88.78,88.78,0,0,0,16.47,9.55c6.68,3,15.19,6.87,17.55,8.54Z"
       transform="translate(-445.5 -121.26)"
       id="path28714" />
    <path
       class="cls-3"
       d="M575.5,451.58a10,10,0,0,1,2.07.72h0c5.62,2.63,13.52,10.5,16.28,11.45,3.3,1.13,10.94,1.3,15.63,4.28s14.76,12.07,15.4,12.64l0,0,0,0c-.83-.39-14.26-6.71-21.48-6.76-7.46,0-16-4.35-19.87-9.67s-4-8.67-8.27-12.73Z"
       transform="translate(-445.5 -121.26)"
       id="path28716" />
    <path
       class="cls-2"
       d="M573.36,444a2,2,0,0,0,.45-.86h0a10.07,10.07,0,0,0,.33-1.47c.69-4.16.67-12.52,1.69-17.06,1.3-5.83,5.91-9.42,13.6-19.09s13.11-11.16,13.11-11.16l0,0h0c-1.67,2.4-5.56,10.86-8.51,17.51a88.58,88.58,0,0,1-9.55,16.47c-4,5.51-9,12.32-10.64,14.76h0l-.4.62Z"
       transform="translate(-445.5 -121.26)"
       id="path28718" />
    <path
       class="cls-3"
       d="M573.36,444c4.07-4.26,7.41-4.36,12.74-8.26s9.62-12.41,9.67-19.87,6.78-21.52,6.78-21.52-9.68,10.73-12.67,15.42-3.15,12.33-4.29,15.63S574.3,438.52,573.36,444Z"
       transform="translate(-445.5 -121.26)"
       id="path28720" />
    <path
       class="cls-2"
       d="M563.29,426.67c1.55,6.66,3.49,14.85,4.28,17.68a9.51,9.51,0,0,0-.88-1.19c-2.71-3.23-9.09-8.67-11.88-12.41-3.57-4.79-3.3-10.61-5.63-22.75-2.28-11.83-.07-16.94.06-17.21v0c.73,2.83,4.63,11.29,7.76,17.86A89.14,89.14,0,0,1,563.29,426.67Z"
       transform="translate(-445.5 -121.26)"
       id="path28722" />
    <path
       class="cls-2"
       d="M567.93,445.27l-.15-.2c-.06-.17-.13-.41-.22-.72A2.11,2.11,0,0,1,567.93,445.27Z"
       transform="translate(-445.5 -121.26)"
       id="path28724" />
    <path
       class="cls-3"
       d="M567.93,445.27l-.15-.2a9.47,9.47,0,0,1-1.1-1.91c-2.56-5.65-3.43-16.77-4.91-19.29-1.77-3-7.46-8.11-9.08-13.43-1.56-5.15-3.34-18.77-3.45-19.62v0h0s6.29,14.26,11.92,19.15,9.3,13.69,8.79,20.28S567.36,439.41,567.93,445.27Z"
       transform="translate(-445.5 -121.26)"
       id="path28726" />
    <path
       class="cls-2"
       d="M483.52,309.42s3,4.75,14.47,9.32,16.25,7.94,22.21,7.51,17.42-4.32,19.29-3.25c1.17.67-9.77-3.14-18.17-6.11a88.78,88.78,0,0,0-18.53-4.38c-7.25-.91-16.53-2.19-19.27-3.1Z"
       transform="translate(-445.5 -121.26)"
       id="path28728" />
    <path
       class="cls-3"
       d="M539.27,323a9.47,9.47,0,0,1-2.21-.1c-6.14-.88-16-6.15-18.9-6.26-3.49-.13-10.85,1.92-16.2.42s-18.43-7.67-18.43-7.67,15.4,2.38,22.56.27,16.53-.46,21.81,3.51,6.35,7.14,11.59,9.81Z"
       transform="translate(-445.5 -121.26)"
       id="path28730" />
    <path
       class="cls-2"
       d="M541.85,319a2,2,0,0,0-.55-.79,9.65,9.65,0,0,0-1.14-1h0c-3.36-2.53-10.81-6.38-14.38-9.39-4.56-3.85-5.62-9.59-10.65-20.88s-3.84-16.78-3.84-16.78h0s0,0,0,0c1.36,2.59,7.08,10,11.61,15.63A88.92,88.92,0,0,1,533.11,302c3,6.15,6.79,13.72,8.19,16.28l.35.63h0Z"
       transform="translate(-445.5 -121.26)"
       id="path28732" />
    <path
       class="cls-3"
       d="M541.85,319c-1.9-5.57-.45-8.59-1.45-15.12s-6.57-14.27-13.16-17.75-16-15.95-16-15.95,5.05,13.55,7.83,18.36,9.48,8.49,11.89,11S537.41,315.66,541.85,319Z"
       transform="translate(-445.5 -121.26)"
       id="path28734" />
    <path
       class="cls-2"
       d="M539.87,327.41a2.11,2.11,0,0,0-.78.54,9.75,9.75,0,0,0-1,1.15v0c-2.53,3.36-6.37,10.81-9.38,14.38-3.85,4.56-9.59,5.62-20.89,10.65S491.05,358,491.05,358h0c2.6-1.36,10-7.07,15.64-11.61a89.26,89.26,0,0,1,16.07-10.21c6.16-3,13.74-6.79,16.29-8.2l.62-.34h0Z"
       transform="translate(-445.5 -121.26)"
       id="path28736" />
    <path
       class="cls-3"
       d="M539.87,327.42c-5.57,1.9-8.59.45-15.12,1.45S510.49,335.43,507,342s-15.95,16-15.95,16,13.55-5.05,18.36-7.83,8.49-9.48,11-11.89S536.5,331.86,539.87,327.42Z"
       transform="translate(-445.5 -121.26)"
       id="path28738" />
    <path
       class="cls-2"
       d="M591.21,361.48h0c-2.18-2-10.09-6.87-16.32-10.62a88.43,88.43,0,0,1-15.16-11.53c-5-4.73-11.2-10.53-13.38-12.42-.23-.2-.42-.36-.55-.46Z"
       transform="translate(-445.5 -121.26)"
       id="path28740" />
    <path
       class="cls-2"
       d="M545.57,326.37l.09.11a2.58,2.58,0,0,0,.67.42,10,10,0,0,0,1.43.53c4,1.2,12.37,2.21,16.77,3.8,5.62,2,8.6,7,17.25,15.87,8.42,8.61,9.41,14.1,9.44,14.38h0Z"
       transform="translate(-445.5 -121.26)"
       id="path28742" />
    <path
       class="cls-3"
       d="M545.57,326.37c3.72,4.56,3.41,7.9,6.62,13.67s11.12,11.09,18.52,12.06,20.51,9.39,20.51,9.39-9.45-10.94-13.73-14.48-11.84-4.66-15-6.19S550.9,328,545.57,326.37Z"
       transform="translate(-445.5 -121.26)"
       id="path28744" />
    <path
       class="cls-2"
       d="M551.16,386.67s3.3-4.53,3.29-16.9,1.35-18-1.26-23.41S542.71,331.79,543,329.65c.19-1.33.71,10.24,1.07,19.14a88.78,88.78,0,0,0,2.8,18.83c1.85,7.07,4.1,16.16,4.27,19Z"
       transform="translate(-445.5 -121.26)"
       id="path28746" />
    <path
       class="cls-3"
       d="M543.13,329.88a10,10,0,0,1,.73,2.07h0c1.44,6,.22,17.12,1.2,19.86,1.18,3.29,5.8,9.36,6.4,14.89.58,5.36-.23,19.07-.28,19.92a.15.15,0,0,1,0,0,.37.37,0,0,1,0,0c-.22-.89-3.65-15.33-8.11-21-4.62-5.86-6.56-15.2-4.83-21.57s4.28-8.54,4.8-14.4Z"
       transform="translate(-445.5 -121.26)"
       id="path28748" />
    <path
       class="cls-2"
       d="M547.71,323.48a2,2,0,0,0,1-.18h0a10.07,10.07,0,0,0,1.36-.66c3.68-2.06,10.2-7.29,14.39-9.32,5.37-2.62,11-1.26,23.41-1.27s16.9,3.29,16.9,3.29h0c-2.92.18-12,2.43-19,4.26a88.58,88.58,0,0,1-18.83,2.8c-6.83.28-15.24.64-18.18.88h0l-.73.07Z"
       transform="translate(-445.5 -121.26)"
       id="path28750" />
    <path
       class="cls-3"
       d="M547.71,323.49c5.86.53,8,3.08,14.4,4.81s15.7-.21,21.57-4.83,21-8.12,21-8.12-14.43-.88-20-.29-11.61,5.22-14.9,6.4S552.59,320.79,547.71,323.49Z"
       transform="translate(-445.5 -121.26)"
       id="path28752" />
    <path
       class="cls-2"
       d="M555,304.8c-4.24,5.36-9.43,12-11.16,14.37a9.51,9.51,0,0,0,.38-1.43c.84-4.13,1.11-12.51,2.29-17,1.52-5.78,6.24-9.2,14.28-18.59,7.83-9.15,13.2-10.61,13.49-10.68v0c-1.76,2.34-5.94,10.66-9.13,17.2A89.14,89.14,0,0,1,555,304.8Z"
       transform="translate(-445.5 -121.26)"
       id="path28754" />
    <path
       class="cls-2"
       d="M543.35,320a2.28,2.28,0,0,1,.06-.24l.43-.62A2.11,2.11,0,0,1,543.35,320Z"
       transform="translate(-445.5 -121.26)"
       id="path28756" />
    <path
       class="cls-3"
       d="M543.35,320a2.28,2.28,0,0,1,.06-.24,9.47,9.47,0,0,1,.81-2c2.83-5.52,11-13.14,12-15.86,1.25-3.26,1.69-10.9,4.84-15.48s12.59-14.32,13.19-14.93v0h0s-7.23,13.81-7.54,21.26-4.91,15.8-10.37,19.51S547.57,315.92,543.35,320Z"
       transform="translate(-445.5 -121.26)"
       id="path28758" />
    <path
       class="cls-2"
       d="M596.93,169.32s-1.85,5.29,1.73,17.13,3.92,17.66,8,22,14.24,10.93,14.57,13.06c.2,1.33-3.64-9.6-6.55-18a88.78,88.78,0,0,0-8.13-17.22c-3.81-6.24-8.59-14.29-9.59-17Z"
       transform="translate(-445.5 -121.26)"
       id="path28760" />
    <path
       class="cls-3"
       d="M621,221.39a9.47,9.47,0,0,1-1.3-1.8c-3.14-5.35-5.16-16.33-6.89-18.68-2.08-2.81-8.27-7.29-10.43-12.41s-5.49-19.19-5.49-19.19,7.74,13.53,13.86,17.81,10.67,12.64,10.86,19.24-1.63,9.42-.44,15.18Z"
       transform="translate(-445.5 -121.26)"
       id="path28762" />
    <path
       class="cls-2"
       d="M625.79,220.92a2,2,0,0,0,.28-.92,9.65,9.65,0,0,0,0-1.49,0,0,0,0,1,0,0c-.12-4.21-1.75-12.43-1.62-17.09.17-6,4-10.37,9.69-21.35s10.72-13.47,10.72-13.47h0l0,0c-1.18,2.68-3.37,11.74-5,18.82a88.92,88.92,0,0,1-6.21,18c-2.92,6.2-6.49,13.86-7.62,16.55l-.27.66h0Z"
       transform="translate(-445.5 -121.26)"
       id="path28764" />
    <path
       class="cls-3"
       d="M625.79,220.92c3.17-5,6.44-5.7,10.91-10.56s7.06-14,5.68-21.36,2.52-22.42,2.52-22.42-7.44,12.39-9.47,17.57-.73,12.71-1.2,16.17S625.65,215.35,625.79,220.92Z"
       transform="translate(-445.5 -121.26)"
       id="path28766" />
    <path
       class="cls-2"
       d="M618,224.6a2.11,2.11,0,0,0-.91-.27,9.75,9.75,0,0,0-1.51,0h0c-4.21.12-12.43,1.76-17.09,1.63-6-.17-10.37-4-21.35-9.69s-13.47-10.72-13.47-10.72h0l0,0c2.68,1.19,11.74,3.38,18.83,5a89.26,89.26,0,0,1,18,6.2c6.21,2.93,13.88,6.5,16.57,7.62l.65.27H618Z"
       transform="translate(-445.5 -121.26)"
       id="path28768" />
    <path
       class="cls-3"
       d="M618,224.6c-5-3.17-5.7-6.44-10.56-10.91s-14-7.06-21.36-5.68-22.42-2.52-22.42-2.52,12.39,7.44,17.57,9.47,12.71.73,16.17,1.2S612.42,224.74,618,224.6Z"
       transform="translate(-445.5 -121.26)"
       id="path28770" />
    <path
       class="cls-2"
       d="M623.37,286s0,0,0,0,0,0,0,0c.17-2.92-.92-12.17-1.88-19.38a88.43,88.43,0,0,1-.44-19c.58-6.87,1.25-15.32,1.37-18.2,0-.31,0-.55,0-.71Z"
       transform="translate(-445.5 -121.26)"
       id="path28772" />
    <path
       class="cls-2"
       d="M622.36,228.4l0,.14a2.58,2.58,0,0,0,.09.78,10,10,0,0,0,.47,1.45c1.58,3.9,6,11.05,7.48,15.48,1.93,5.65-.13,11.11-1.66,23.38-1.48,12-5.16,16.14-5.35,16.35h0Z"
       transform="translate(-445.5 -121.26)"
       id="path28774" />
    <path
       class="cls-3"
       d="M622.37,228.4c-1.25,5.75-4,7.59-6.56,13.7s-1.74,15.61,2.11,22S623.37,286,623.37,286s2.66-14.21,2.76-19.77-3.74-12.17-4.5-15.57S624.43,233.58,622.37,228.4Z"
       transform="translate(-445.5 -121.26)"
       id="path28776" />
    <path
       class="cls-2"
       d="M578.7,270.37s5.6-.24,15.26-8,14.94-10.19,17.51-15.58,4.86-17.28,6.73-18.37c1.16-.68-7.56,6.94-14.3,12.77a88.78,88.78,0,0,0-13,13.94c-4.38,5.85-10.08,13.28-12.23,15.21Z"
       transform="translate(-445.5 -121.26)"
       id="path28778" />
    <path
       class="cls-3"
       d="M618.1,228.68a10,10,0,0,1-1.17,1.86h0c-3.82,4.89-13.24,10.84-14.78,13.32-1.84,3-3.7,10.38-7.65,14.28s-15.06,11.71-15.75,12.2l0,0,0,0c.56-.73,9.71-12.41,11.36-19.43,1.7-7.26,7.79-14.6,13.85-17.22s9.34-2,14.25-5.23Z"
       transform="translate(-445.5 -121.26)"
       id="path28780" />
    <path
       class="cls-2"
       d="M626,228.28a2,2,0,0,0,.74.63h0a10.07,10.07,0,0,0,1.36.65c3.91,1.6,12.06,3.44,16.26,5.44,5.39,2.57,7.87,7.85,15.58,17.51s8,15.26,8,15.26l0,0h0c-2-2.16-9.35-7.84-15.17-12.2a88.58,88.58,0,0,1-13.93-13c-4.48-5.17-10-11.52-12-13.66h0l-.52-.53Z"
       transform="translate(-445.5 -121.26)"
       id="path28782" />
    <path
       class="cls-3"
       d="M626,228.28c3.24,4.91,2.6,8.2,5.22,14.26s10,12.14,17.22,13.85,19.47,11.39,19.47,11.39S659.56,256,655.65,252s-11.32-5.82-14.29-7.66S631.1,230.42,626,228.28Z"
       transform="translate(-445.5 -121.26)"
       id="path28784" />
    <path
       class="cls-2"
       d="M645.1,222.33c-6.84,0-15.25.1-18.19.23a9.51,9.51,0,0,0,1.35-.59C632,220,638.74,215,643,213.14c5.46-2.42,11.08-.86,23.43-.42,12,.41,16.53,3.7,16.76,3.88h0c-2.93.08-12,2-19.14,3.59A89.14,89.14,0,0,1,645.1,222.33Z"
       transform="translate(-445.5 -121.26)"
       id="path28786" />
    <path
       class="cls-2"
       d="M625.94,222.71l.22-.1.75-.05A2.11,2.11,0,0,1,625.94,222.71Z"
       transform="translate(-445.5 -121.26)"
       id="path28788" />
    <path
       class="cls-3"
       d="M625.94,222.71l.22-.1a9.47,9.47,0,0,1,2.1-.64c6.08-1.23,17.11.39,19.89-.49,3.33-1.06,9.57-5.47,15.12-5.87,5.37-.38,19,.92,19.9,1h0s-15.31,3-21.32,7.36-15.41,6-21.72,4.06S631.78,223.45,625.94,222.71Z"
       transform="translate(-445.5 -121.26)"
       id="path28790" />
    <path
       class="cls-2"
       d="M777.17,170.64s-5.29,1.85-12.31,12-11.36,14.08-12.26,20,.34,17.95-1.13,19.53c-.91,1,5.24-8.83,10-16.36a88.78,88.78,0,0,0,8.4-17.09c2.5-6.87,5.81-15.63,7.31-18.1Z"
       transform="translate(-445.5 -121.26)"
       id="path28792" />
    <path
       class="cls-3"
       d="M751.49,222a9.47,9.47,0,0,1,.59-2.14c2.23-5.79,9.55-14.22,10.31-17,.9-3.37.54-11,3.2-15.89s11.58-16.26,11.58-16.26-5.75,14.49-5.28,21.94-3.23,16.22-8.28,20.49-8.38,4.6-12.14,9.12Z"
       transform="translate(-445.5 -121.26)"
       id="path28794" />
    <path
       class="cls-2"
       d="M754.82,225.38a2,2,0,0,0,.89-.36,9.65,9.65,0,0,0,1.2-.9h0c3.22-2.71,8.63-9.12,12.35-11.93,4.77-3.59,10.6-3.34,22.73-5.74s17.21,0,17.21,0h0c-2.83.75-11.28,4.68-17.82,7.84a88.92,88.92,0,0,1-18,6.37c-6.67,1.58-14.88,3.57-17.69,4.37l-.69.2h0Z"
       transform="translate(-445.5 -121.26)"
       id="path28796" />
    <path
       class="cls-3"
       d="M754.83,225.38c5.86-.61,8.47,1.48,15.06,2s15.37-3.23,20.24-8.88,19.1-12,19.1-12-14.33,1.91-19.64,3.55-10.39,7.35-13.39,9.14S759.09,221.8,754.83,225.38Z"
       transform="translate(-445.5 -121.26)"
       id="path28798" />
    <path
       class="cls-2"
       d="M747.09,221.58a2.11,2.11,0,0,0-.35-.88,9.75,9.75,0,0,0-.9-1.21v0c-2.71-3.22-9.12-8.62-11.93-12.34-3.59-4.77-3.34-10.6-5.73-22.74s0-17.21,0-17.21h0a0,0,0,0,0,0,0c.74,2.84,4.68,11.28,7.83,17.83A89.26,89.26,0,0,1,742.37,203c1.59,6.68,3.57,14.9,4.37,17.7.08.28.15.52.2.68h0Z"
       transform="translate(-445.5 -121.26)"
       id="path28800" />
    <path
       class="cls-3"
       d="M747.08,221.58c-.61-5.86,1.48-8.47,2-15.06s-3.23-15.37-8.88-20.24-12-19.1-12-19.1,1.91,14.33,3.55,19.64,7.35,10.39,9.14,13.39S743.51,217.31,747.08,221.58Z"
       transform="translate(-445.5 -121.26)"
       id="path28802" />
    <path
       class="cls-2"
       d="M702.45,264.05h0s0,0,0,0c2.39-1.69,8.94-8.31,14-13.55a88.43,88.43,0,0,1,14.61-12.21c5.73-3.83,12.76-8.57,15.08-10.28.25-.18.44-.33.57-.43Z"
       transform="translate(-445.5 -121.26)"
       id="path28804" />
    <path
       class="cls-2"
       d="M746.84,227.36l-.13.06a2.58,2.58,0,0,0-.56.55,10,10,0,0,0-.84,1.27c-2.07,3.67-4.91,11.57-7.44,15.5-3.22,5-8.76,6.83-19.31,13.28-10.27,6.29-15.84,6-16.12,6h0Z"
       transform="translate(-445.5 -121.26)"
       id="path28806" />
    <path
       class="cls-3"
       d="M746.84,227.37c-5.28,2.61-8.46,1.56-14.8,3.41s-13.29,8.38-15.88,15.37-13.72,17.91-13.72,17.91,12.77-6.78,17.18-10.17,7.18-10.51,9.37-13.23S744.08,232.21,746.84,227.37Z"
       transform="translate(-445.5 -121.26)"
       id="path28808" />
    <path
       class="cls-2"
       d="M686.8,219.4s3.68,4.23,15.74,7,17.28,5.33,23.1,4,16.54-7,18.56-6.19c1.26.48-10.14-1.59-18.9-3.22a88.78,88.78,0,0,0-19-1.46c-7.3.23-16.67.4-19.52-.08Z"
       transform="translate(-445.5 -121.26)"
       id="path28810" />
    <path
       class="cls-3"
       d="M744,224.21a10,10,0,0,1-2.18.25h0c-6.2.06-16.74-3.59-19.63-3.25-3.46.41-10.42,3.57-15.94,2.92-5.35-.63-18.54-4.47-19.36-4.71h0c.92,0,15.75-.14,22.28-3.23,6.74-3.2,16.27-3,22.1.09s7.38,6.07,13,7.88Z"
       transform="translate(-445.5 -121.26)"
       id="path28812" />
    <path
       class="cls-2"
       d="M749.18,230.1a2,2,0,0,0,0,1h0a10.07,10.07,0,0,0,.34,1.47c1.19,4.05,4.83,11.57,5.88,16.11,1.36,5.82-1.23,11.05-4,23.1s-7,15.74-7,15.74a.15.15,0,0,0,0,0h0c.47-2.88.3-12.2.07-19.47A88.58,88.58,0,0,1,746,249c1.25-6.72,2.77-15,3.19-17.92h0c0-.31.07-.56.09-.73Z"
       transform="translate(-445.5 -121.26)"
       id="path28814" />
    <path
       class="cls-3"
       d="M749.17,230.1c-1.82,5.6-4.79,7.14-7.89,13s-3.29,15.36-.09,22.1,3.23,22.33,3.23,22.33,4.07-13.87,4.72-19.39-2.51-12.48-2.92-15.95S750.71,235.45,749.17,230.1Z"
       transform="translate(-445.5 -121.26)"
       id="path28816" />
    <path
       class="cls-2"
       d="M765.77,241.35c-4.28-5.33-9.58-11.86-11.52-14.07a9.51,9.51,0,0,0,1.31.69c3.84,1.73,12,3.87,16.09,6,5.3,2.76,7.58,8.13,14.94,18.06,7.18,9.67,7.41,15.23,7.41,15.53l0,0c-1.89-2.24-9.07-8.17-14.74-12.73A89.14,89.14,0,0,1,765.77,241.35Z"
       transform="translate(-445.5 -121.26)"
       id="path28818" />
    <path
       class="cls-2"
       d="M753.52,226.61l.22.11.51.55A2.11,2.11,0,0,1,753.52,226.61Z"
       transform="translate(-445.5 -121.26)"
       id="path28820" />
    <path
       class="cls-3"
       d="M753.52,226.61l.22.11a9.47,9.47,0,0,1,1.81,1.24c4.76,4,10.36,13.62,12.79,15.25,2.9,1.94,10.25,4.07,14,8.16s11.16,15.46,11.62,16.18l0,0h0s-11.86-10.12-19.05-12.08-14.31-8.3-16.72-14.45S756.58,231.64,753.52,226.61Z"
       transform="translate(-445.5 -121.26)"
       id="path28822" />
    <path
       class="cls-2"
       d="M888.52,312.38s-4.75-3-17.08-2.12-18.09-.1-23.27,2.87-13.82,11.45-16,11.29c-1.34-.1,10.17-1.41,19-2.38a88.78,88.78,0,0,0,18.6-4.09c6.93-2.33,15.84-5.2,18.7-5.57Z"
       transform="translate(-445.5 -121.26)"
       id="path28824" />
    <path
       class="cls-3"
       d="M832.38,324.31a9.47,9.47,0,0,1,2-.87c5.91-1.87,17.07-1.4,19.75-2.56,3.2-1.4,8.94-6.44,14.42-7.41s19.93-1.08,19.93-1.08-14.91,4.54-20.45,9.55-14.7,7.59-21.18,6.3-8.82-3.68-14.7-3.81Z"
       transform="translate(-445.5 -121.26)"
       id="path28826" />
    <path
       class="cls-2"
       d="M831.79,329a2,2,0,0,0,.83.47,9.65,9.65,0,0,0,1.45.38h0c4.13.82,12.51,1.06,17,2.22,5.78,1.49,9.22,6.2,18.66,14.19s10.74,13.45,10.74,13.45h0l0,0c-2.35-1.75-10.69-5.89-17.24-9a88.92,88.92,0,0,1-16.17-10.06c-5.4-4.23-12.07-9.41-14.44-11.11l-.59-.41h0Z"
       transform="translate(-445.5 -121.26)"
       id="path28828" />
    <path
       class="cls-3"
       d="M831.79,329c4.13,4.2,4.13,7.54,7.86,13s12.11,10,19.56,10.29,21.3,7.44,21.3,7.44-10.43-10-15-13.14-12.23-3.54-15.49-4.77S837.25,330.15,831.79,329Z"
       transform="translate(-445.5 -121.26)"
       id="path28830" />
    <path
       class="cls-2"
       d="M829.94,320.62a2.11,2.11,0,0,0,.47-.82,9.75,9.75,0,0,0,.38-1.46,0,0,0,0,0,0,0c.82-4.13,1-12.51,2.21-17,1.49-5.78,6.2-9.22,14.2-18.66s13.45-10.74,13.45-10.74h0l0,0c-1.76,2.35-5.9,10.69-9.06,17.24a89.26,89.26,0,0,1-10.05,16.17c-4.24,5.41-9.43,12.08-11.12,14.45l-.41.58h0Z"
       transform="translate(-445.5 -121.26)"
       id="path28832" />
    <path
       class="cls-3"
       d="M829.94,320.62c4.2-4.13,7.54-4.13,13-7.86s10-12.11,10.29-19.56,7.44-21.3,7.44-21.3-10,10.43-13.14,15-3.54,12.23-4.77,15.49S831,315.16,829.94,320.62Z"
       transform="translate(-445.5 -121.26)"
       id="path28834" />
    <path
       class="cls-2"
       d="M768.9,312.21h0c2.81.82,12.07,1.81,19.32,2.49a88.43,88.43,0,0,1,18.66,3.81c6.57,2.09,14.66,4.63,17.44,5.38.3.08.53.14.69.17Z"
       transform="translate(-445.5 -121.26)"
       id="path28836" />
    <path
       class="cls-2"
       d="M825.26,324l-.13-.06a2.58,2.58,0,0,0-.78-.09,10,10,0,0,0-1.52.14c-4.15.67-12.11,3.37-16.76,3.85-5.94.62-10.8-2.59-22.43-6.82-11.32-4.1-14.59-8.62-14.74-8.86h0Z"
       transform="translate(-445.5 -121.26)"
       id="path28838" />
    <path
       class="cls-3"
       d="M825.26,324c-5.33-2.5-6.5-5.64-11.89-9.44s-14.83-5.17-21.92-2.83-22.56.44-22.56.44,13.26,5.76,18.66,7.09,12.69-.94,16.18-.92S819.75,324.9,825.26,324Z"
       transform="translate(-445.5 -121.26)"
       id="path28840" />
    <path
       class="cls-2"
       d="M794.05,272.13s-1,5.52,4.37,16.65,6.61,16.83,11.29,20.54,15.76,8.59,16.41,10.65c.41,1.28-5.08-8.92-9.27-16.78a88.78,88.78,0,0,0-10.7-15.75c-4.73-5.57-10.7-12.79-12.11-15.31Z"
       transform="translate(-445.5 -121.26)"
       id="path28842" />
    <path
       class="cls-3"
       d="M825.93,319.82a10,10,0,0,1-1.55-1.55h0c-3.92-4.81-7.63-15.32-9.7-17.38-2.48-2.45-9.29-5.92-12.22-10.64s-8.06-17.28-8.39-18.07l0,0,0,0c.58.71,9.94,12.23,16.42,15.4,6.7,3.28,12.5,10.84,13.71,17.34s-.15,9.55,1.92,15.06Z"
       transform="translate(-445.5 -121.26)"
       id="path28844" />
    <path
       class="cls-2"
       d="M824.58,327.57a2,2,0,0,0-.78.58h0a10.07,10.07,0,0,0-.94,1.18c-2.43,3.45-6,11-8.92,14.64-3.7,4.69-9.41,5.93-20.54,11.3s-16.65,4.36-16.65,4.36l0,0h0c2.55-1.43,9.72-7.38,15.27-12.08a88.58,88.58,0,0,1,15.75-10.7c6-3.21,13.45-7.19,16-8.68h0l.63-.39Z"
       transform="translate(-445.5 -121.26)"
       id="path28846" />
    <path
       class="cls-3"
       d="M824.57,327.56c-5.51,2.07-8.57.71-15.06,1.92s-14.06,7-17.33,13.71-15.44,16.45-15.44,16.45,13.38-5.47,18.11-8.4S803,341.49,805.49,339,821.35,332.1,824.57,327.56Z"
       transform="translate(-445.5 -121.26)"
       id="path28848" />
    <path
       class="cls-2"
       d="M826.12,347.56c1.49-6.67,3.3-14.89,3.82-17.78a9.51,9.51,0,0,0,.28,1.45c1,4.09,4.43,11.76,5.32,16.33,1.14,5.86-1.63,11-4.8,22.94-3.08,11.64-7.29,15.29-7.52,15.48,0,0,0,0,0,0,.57-2.87.73-12.18.76-19.46A89.14,89.14,0,0,1,826.12,347.56Z"
       transform="translate(-445.5 -121.26)"
       id="path28850" />
    <path
       class="cls-2"
       d="M830,328.79a2.28,2.28,0,0,1,0,.24c0,.18-.06.43-.12.74A2.11,2.11,0,0,1,830,328.79Z"
       transform="translate(-445.5 -121.26)"
       id="path28852" />
    <path
       class="cls-3"
       d="M830,328.79a2.28,2.28,0,0,1,0,.24,9.47,9.47,0,0,1,.16,2.19c-.15,6.2-4.19,16.6-3.95,19.51.29,3.48,3.2,10.55,2.35,16-.83,5.32-5.13,18.36-5.4,19.18,0,0,0,0,0,0h0s.52-15.58-2.43-22.43-2.44-16.37.88-22.08S828,334.32,830,328.79Z"
       transform="translate(-445.5 -121.26)"
       id="path28854" />
    <path
       class="cls-2"
       d="M847.13,487.81s-.63-5.57-9-14.68-11.2-14.2-16.75-16.4-17.57-3.66-18.79-5.45c-.76-1.11,7.44,7.07,13.72,13.39a88.78,88.78,0,0,0,14.79,12c6.14,4,13.94,9.15,16,11.15Z"
       transform="translate(-445.5 -121.26)"
       id="path28856" />
    <path
       class="cls-3"
       d="M802.8,451.36a9.47,9.47,0,0,1,2,1.05c5.15,3.46,11.73,12.47,14.32,13.84,3.09,1.63,10.61,3,14.78,6.65s13.28,14.91,13.28,14.91-12.85-8.83-20.21-10-15.1-6.76-18.13-12.63-2.62-9.19-6.19-13.87Z"
       transform="translate(-445.5 -121.26)"
       id="path28858" />
    <path
       class="cls-2"
       d="M798.73,453.84a2,2,0,0,0,.15.95,9.65,9.65,0,0,0,.61,1.37v0c1.93,3.74,7,10.44,8.88,14.7,2.44,5.45.9,11.08.54,23.44s-3.82,16.78-3.82,16.78h0a0,0,0,0,0,0,0c-.1-2.93-2.06-12-3.68-19.12A88.92,88.92,0,0,1,799.2,473c-.06-6.86-.17-15.3-.32-18.22,0-.3,0-.54,0-.72h0Z"
       transform="translate(-445.5 -121.26)"
       id="path28860" />
    <path
       class="cls-3"
       d="M798.73,453.85c-.71,5.84-3.33,7.93-5.25,14.25s-.27,15.7,4.15,21.7,7.46,21.29,7.46,21.29,1.33-14.4.91-19.94-4.86-11.76-5.93-15.09S801.27,458.81,798.73,453.85Z"
       transform="translate(-445.5 -121.26)"
       id="path28862" />
    <path
       class="cls-2"
       d="M804.16,447.15a2.11,2.11,0,0,0,.93-.15,9.75,9.75,0,0,0,1.38-.61h0c3.74-1.93,10.43-7,14.69-8.88,5.45-2.44,11.08-.9,23.44-.53s16.78,3.82,16.78,3.82h0c-2.93.09-12,2.05-19.13,3.67a89.26,89.26,0,0,1-18.91,2.22c-6.87.06-15.32.16-18.23.32l-.7,0h0Z"
       transform="translate(-445.5 -121.26)"
       id="path28864" />
    <path
       class="cls-3"
       d="M804.16,447.15c5.84.71,7.93,3.33,14.25,5.25s15.7.27,21.7-4.15,21.29-7.46,21.29-7.46-14.4-1.33-19.94-.91-11.76,4.86-15.09,5.93S809.12,444.61,804.16,447.15Z"
       transform="translate(-445.5 -121.26)"
       id="path28866" />
    <path
       class="cls-2"
       d="M772.68,394.18v0s0,0,0,0c1.11,2.71,6.11,10.57,10.1,16.65a88.43,88.43,0,0,1,8.66,17c2.46,6.44,5.52,14.35,6.67,17,.12.28.22.5.3.65Z"
       transform="translate(-445.5 -121.26)"
       id="path28868" />
    <path
       class="cls-2"
       d="M798.57,445.62l0-.14a2.58,2.58,0,0,0-.42-.67,10,10,0,0,0-1.06-1.1c-3.11-2.83-10.18-7.36-13.46-10.7-4.19-4.25-4.7-10.06-8.65-21.78-3.85-11.41-2.36-16.78-2.27-17h0Z"
       transform="translate(-445.5 -121.26)"
       id="path28870" />
    <path
       class="cls-3"
       d="M798.57,445.62c-1.37-5.73.36-8.59,0-15.19s-5.21-14.82-11.45-18.9-14.4-17.36-14.4-17.36,3.77,14,6.09,19,8.65,9.34,10.81,12.08S794.46,441.85,798.57,445.62Z"
       transform="translate(-445.5 -121.26)"
       id="path28872" />
    <path
       class="cls-2"
       d="M819.7,388.86s-4.94,2.65-10.3,13.79-9,15.67-9,21.64,3.11,17.68,1.91,19.47c-.75,1.12,3.81-9.53,7.34-17.71a88.78,88.78,0,0,0,5.65-18.19c1.41-7.17,3.32-16.34,4.42-19Z"
       transform="translate(-445.5 -121.26)"
       id="path28874" />
    <path
       class="cls-3"
       d="M802.29,443.52a10,10,0,0,1,.24-2.18h0c1.32-6.06,7.23-15.52,7.54-18.42.37-3.47-1.17-11,.7-16.19,1.81-5.08,8.49-17.08,8.9-17.82l0,0v0c-.19.9-3.37,15.39-1.81,22.44,1.62,7.28-.68,16.54-5,21.53s-7.56,5.84-10.57,10.89Z"
       transform="translate(-445.5 -121.26)"
       id="path28876" />
    <path
       class="cls-2"
       d="M795.39,447.29a2,2,0,0,0-.94-.25h0a10.07,10.07,0,0,0-1.51,0c-4.21.26-12.36,2.14-17,2.15-6,0-10.5-3.66-21.64-9s-13.79-10.3-13.79-10.3l0,0h0c2.71,1.1,11.83,3,19,4.4a88.58,88.58,0,0,1,18.18,5.65c6.27,2.72,14,6,16.76,7.09h0l.69.25Z"
       transform="translate(-445.5 -121.26)"
       id="path28878" />
    <path
       class="cls-3"
       d="M795.39,447.28c-5.05-3-5.9-6.26-10.89-10.58s-14.24-6.62-21.52-5-22.49-1.82-22.49-1.82,12.62,7.05,17.86,8.92,12.72.33,16.2.7S789.82,447.59,795.39,447.28Z"
       transform="translate(-445.5 -121.26)"
       id="path28880" />
    <path
       class="cls-2"
       d="M780.72,461c6.15-3,13.7-6.7,16.29-8.1a9.51,9.51,0,0,0-1,1.12c-2.55,3.36-6.43,10.79-9.45,14.34-3.87,4.55-9.61,5.58-20.93,10.55-11,4.85-16.5,3.83-16.79,3.77l0,0c2.6-1.34,10-7,15.69-11.54A89.14,89.14,0,0,1,780.72,461Z"
       transform="translate(-445.5 -121.26)"
       id="path28882" />
    <path
       class="cls-2"
       d="M797.82,452.3l-.16.19-.65.37A2.11,2.11,0,0,1,797.82,452.3Z"
       transform="translate(-445.5 -121.26)"
       id="path28884" />
    <path
       class="cls-3"
       d="M797.82,452.3l-.16.19A9.47,9.47,0,0,1,796,454c-4.94,3.75-15.59,7.07-17.71,9.08-2.54,2.4-6.25,9.08-11.08,11.84-4.67,2.67-17.55,7.44-18.36,7.73l0,0h0s12.5-9.31,16-15.89,11.28-12.11,17.81-13.08S792.24,454.17,797.82,452.3Z"
       transform="translate(-445.5 -121.26)"
       id="path28886" />
    <path
       class="cls-2"
       d="M684.16,564.83s4-4,5.87-16.18,4.12-17.61,2.38-23.32-8.09-16-7.46-18.09c.4-1.29-.89,10.22-1.91,19.07a88.78,88.78,0,0,0-.15,19c.73,7.27,1.54,16.6,1.27,19.47Z"
       transform="translate(-445.5 -121.26)"
       id="path28888" />
    <path
       class="cls-3"
       d="M685,507.45a9.47,9.47,0,0,1,.39,2.18c.51,6.18-2.44,17-1.89,19.82.65,3.43,4.29,10.15,4,15.7s-3.38,19.67-3.38,19.67-1.11-15.55-4.76-22.06-4.13-16-1.43-22,5.55-7.78,7-13.49Z"
       transform="translate(-445.5 -121.26)"
       id="path28890" />
    <path
       class="cls-2"
       d="M680.55,505.82a2,2,0,0,0-.65.71,9.65,9.65,0,0,0-.69,1.33v0c-1.72,3.84-3.81,12-6,16.1-2.74,5.31-8.1,7.61-18,15s-15.5,7.48-15.5,7.48h0l0,0c2.23-1.9,8.13-9.11,12.66-14.8a88.92,88.92,0,0,1,13.41-13.53c5.32-4.32,11.86-9.67,14-11.61l.53-.48h0Z"
       transform="translate(-445.5 -121.26)"
       id="path28892" />
    <path
       class="cls-3"
       d="M680.54,505.82c-5,3.09-8.27,2.34-14.41,4.78s-12.45,9.58-14.38,16.78-12,19.11-12,19.11,12.08-7.94,16.16-11.72,6.17-11.13,8.1-14S678.25,510.9,680.54,505.82Z"
       transform="translate(-445.5 -121.26)"
       id="path28894" />
    <path
       class="cls-2"
       d="M689.16,505.89a2.11,2.11,0,0,0,.7.64,9.75,9.75,0,0,0,1.34.7h0c3.84,1.72,12,3.81,16.1,5.94,5.31,2.74,7.61,8.1,15,18s7.48,15.5,7.48,15.5h0l0,0c-1.9-2.23-9.11-8.14-14.8-12.67a89.26,89.26,0,0,1-13.53-13.4c-4.33-5.33-9.68-11.88-11.62-14.05l-.47-.52h0Z"
       transform="translate(-445.5 -121.26)"
       id="path28896" />
    <path
       class="cls-3"
       d="M689.17,505.88c3.09,5,2.34,8.27,4.78,14.41s9.58,12.45,16.78,14.38,19.11,12,19.11,12-7.94-12.08-11.72-16.16-11.13-6.17-14-8.1S694.24,508.18,689.17,505.88Z"
       transform="translate(-445.5 -121.26)"
       id="path28898" />
    <path
       class="cls-2"
       d="M710.95,448.25v0s0,0,0,0c-1.42,2.56-4.45,11.36-6.72,18.28a88.43,88.43,0,0,1-7.86,17.34c-3.5,5.94-7.78,13.26-9.13,15.81-.15.27-.25.49-.32.64Z"
       transform="translate(-445.5 -121.26)"
       id="path28900" />
    <path
       class="cls-2"
       d="M686.88,500.56l.09-.11a2.58,2.58,0,0,0,.26-.74,10,10,0,0,0,.2-1.51c.27-4.2-.59-12.55,0-17.2.72-5.93,4.93-10,11.64-20.35,6.52-10.13,11.65-12.31,11.91-12.4h0Z"
       transform="translate(-445.5 -121.26)"
       id="path28902" />
    <path
       class="cls-3"
       d="M686.87,500.56c3.62-4.64,6.94-5.08,11.85-9.49s8.34-13.31,7.64-20.74S711,448.24,711,448.24s-8.56,11.65-11.07,16.61-1.91,12.58-2.7,16S687.26,495,686.87,500.56Z"
       transform="translate(-445.5 -121.26)"
       id="path28904" />
    <path
       class="cls-2"
       d="M744.42,481.69s-5.15-2.21-17.21.55-17.88,2.7-22.54,6.44-11.88,13.46-14,13.63c-1.34.11,9.82-3,18.42-5.3a88.78,88.78,0,0,0,17.74-6.92c6.48-3.37,14.85-7.59,17.62-8.4Z"
       transform="translate(-445.5 -121.26)"
       id="path28906" />
    <path
       class="cls-3"
       d="M690.84,502.16A10,10,0,0,1,692.7,501h0c5.56-2.75,16.64-4,19.1-5.59,2.94-1.88,7.84-7.74,13.09-9.55,5.1-1.75,18.64-4,19.48-4.15h0l0,0c-.82.41-14.13,7-18.67,12.58-4.69,5.8-13.36,9.78-20,9.51s-9.28-2.27-15.11-1.48Z"
       transform="translate(-445.5 -121.26)"
       id="path28908" />
    <path
       class="cls-2"
       d="M683.58,499.11a2,2,0,0,0-.39-.89h0a10.07,10.07,0,0,0-.94-1.18c-2.83-3.13-9.37-8.33-12.29-12-3.74-4.65-3.68-10.49-6.44-22.54s-.55-17.2-.55-17.2a.15.15,0,0,0,0,0h0c.83,2.8,5,11.12,8.38,17.57a88.58,88.58,0,0,1,6.92,17.74c1.79,6.6,4,14.72,4.91,17.53h0c.1.3.18.53.24.7Z"
       transform="translate(-445.5 -121.26)"
       id="path28910" />
    <path
       class="cls-3"
       d="M683.59,499.11c-.79-5.83,1.21-8.51,1.48-15.11s-3.7-15.26-9.5-20S663,445.33,663,445.33s2.35,14.26,4.16,19.52S674.8,475,676.68,478,679.88,495,683.59,499.11Z"
       transform="translate(-445.5 -121.26)"
       id="path28912" />
    <path
       class="cls-2"
       d="M663.75,496.17c6.17,2.94,13.78,6.53,16.49,7.68a9.51,9.51,0,0,0-1.48-.05c-4.22.1-12.45,1.7-17.11,1.55-6-.19-10.35-4-21.3-9.79-10.67-5.6-13.29-10.51-13.42-10.77h0c2.67,1.2,11.71,3.42,18.8,5.07A89.14,89.14,0,0,1,663.75,496.17Z"
       transform="translate(-445.5 -121.26)"
       id="path28914" />
    <path
       class="cls-2"
       d="M681.18,504.14h-.24l-.7-.28A2.11,2.11,0,0,1,681.18,504.14Z"
       transform="translate(-445.5 -121.26)"
       id="path28916" />
    <path
       class="cls-3"
       d="M681.18,504.14h-.24a9.47,9.47,0,0,1-2.17-.33c-6-1.53-15.25-7.78-18.14-8.19-3.46-.49-11,.78-16.17-1.27-5-2-16.76-9.09-17.49-9.53h0s15.07,4,22.41,2.62,16.5,1.27,21.33,5.77S676.24,500.94,681.18,504.14Z"
       transform="translate(-445.5 -121.26)"
       id="path28918" />
  </g>
  <g
     id="Layer_3"
     data-name="Layer 3">
    <path
       class="cls-4"
       d="M927,122.76V328.6a313.88,313.88,0,0,1-2.28,38c-.11.93-.24,1.86-.36,2.79,0,.2,0,.4-.08.59-.09.74-.19,1.47-.31,2.2-.46,3.37-1,6.69-1.6,10-.07.44-.15.87-.23,1.31-.16.8-.29,1.6-.45,2.4s-.34,1.79-.51,2.69l-.45,2.22-.24,1.15c-.15.71-.3,1.44-.46,2.15-.54,2.37-1.07,4.71-1.61,7l-.58,2.32-.52,2q-1.53,5.88-3.27,11.61c-.29,1-.59,1.94-.9,2.92l-.6,1.88c-.2.63-.4,1.24-.61,1.86-.37,1.09-.73,2.17-1.1,3.25s-.68,2-1,3c-.47,1.28-.93,2.56-1.39,3.81-.36,1-.73,2-1.11,3l-.19.5c-.43,1.14-.87,2.25-1.32,3.36s-.87,2.17-1.31,3.2c0,.15-.12.28-.18.42-.4,1-.8,2-1.25,3s-.76,1.75-1.13,2.62l-.66,1.49c-.48,1.07-1,2.11-1.44,3.15s-.9,2-1.36,2.93l-1,2.12c-.29.63-.6,1.25-.91,1.87-.63,1.33-1.31,2.64-2,4q-2.52,5-5.19,9.77l-2,3.57-.12.21c-1.4,2.44-2.82,4.86-4.28,7.24a.41.41,0,0,1,0,.09c-.71,1.2-1.46,2.4-2.18,3.54-.11.16-.2.32-.3.47s-.31.5-.47.74c-.4.64-.81,1.28-1.22,1.92l-.65,1c-.65,1-1.31,2-2,3l-.13.18c-.65,1-1.31,2-2,3l-.45.67q-2.25,3.29-4.54,6.46l-.31.43c-.8,1.07-1.54,2.14-2.31,3.19s-1.66,2.23-2.5,3.32c-1.52,2-3.06,4-4.61,6l-.81,1q-1.09,1.39-2.22,2.76L854,526.61l-.57.69c-.4.47-.79.93-1.2,1.39a4.16,4.16,0,0,1-.27.32c-.31.37-.62.73-.94,1.09-1.23,1.44-2.46,2.87-3.73,4.29-.65.75-1.32,1.5-2,2.24s-1.52,1.69-2.29,2.51-1.47,1.6-2.22,2.4q-3,3.2-5.93,6.24-2.76,2.82-5.53,5.59l-.83.82c-.64.64-1.29,1.27-1.93,1.89-.92.89-1.85,1.78-2.79,2.66l-2.28,2.12c-.68.65-1.36,1.28-2,1.91q-14.52,13.32-30.16,25.31c-1,.77-2,1.52-3,2.28q-9.86,7.43-20.1,14.31-1.56,1.05-3.12,2.07c-1,.65-2,1.29-3,1.92a0,0,0,0,1,0,0l-.18.12h0l-2.24,1.45c-.86.55-1.72,1.1-2.57,1.6l-1.74,1.09c-3.67,2.31-7.25,4.48-10.73,6.54l-2.41,1.4-2.36,1.37-2.33,1.34-2.23,1.29c-8.34,4.68-15.9,8.59-22.38,11.76l-1.6.8c-10.64,5.15-18.12,8.22-21,9.35l-.42.17-.61.24-.14,0h-.08l-.23-.09-.21,0-1.07-.42-.54-.23c-.87-.34-2-.8-3.37-1.38l-.46-.18c-1.76-.8-3.89-1.67-6.33-2.77l-1.39-.61a442.25,442.25,0,0,1-39.75-20.6c-.8-.44-1.6-.92-2.35-1.38q-7.23-4.26-14.29-8.78-5.26-3.36-10.42-6.85c-.75-.51-1.49-1-2.23-1.53-.57-.38-1.13-.76-1.69-1.16q-8.21-5.66-16.15-11.66l-2.63-2-.61-.47c-.77-.6-1.55-1.2-2.33-1.82l-2.37-1.86-.44-.35c-6.19-4.92-12.43-10.15-18.64-15.69L558.08,566q-2.31-2.05-4.59-4.2l-1.67-1.57L550,558.54l-2-1.94c-1.12-1.07-2.23-2.17-3.33-3.27-.85-.79-1.69-1.66-2.52-2.5l-.24-.26c-.84-.83-1.67-1.67-2.5-2.51l-.34-.36c-.55-.56-1.09-1.12-1.63-1.69l-1-1.06-1-1-.13-.15-2.1-2.25c-1.12-1.2-2.24-2.41-3.34-3.64h0c-1.11-1.23-2.21-2.46-3.31-3.71l-1.31-1.5-.74-.84c-.57-.65-1.12-1.29-1.66-1.94q-1-1.2-2-2.4-4.28-5.1-8.39-10.48c-.76-1-1.5-1.93-2.24-2.92-1.89-2.47-3.73-5-5.57-7.55-.55-.8-1.12-1.59-1.68-2.39-.13-.16-.24-.34-.36-.5-.59-.86-1.19-1.7-1.77-2.56l-1.54-2.28a1,1,0,0,1-.12-.17c-.39-.57-.77-1.14-1.15-1.72s-.79-1.17-1.18-1.77l-1-1.54a1,1,0,0,0-.15-.24l-2.22-3.48-.22-.36-.88-1.43-1.22-2-.32-.53c-.17-.27-.34-.56-.51-.85-.46-.76-.94-1.56-1.38-2.33l-.64-1.1c-.5-.84-1-1.67-1.49-2.57q-4.61-8-8.77-16.46c-.35-.69-.69-1.38-1-2.09-.22-.44-.44-.88-.65-1.35-.43-.87-.8-1.74-1.25-2.63a25.91,25.91,0,0,1-1.15-2.47l-.23-.48c-.27-.58-.53-1.16-.81-1.75l-.26-.57c-.27-.59-.52-1.19-.8-1.78q-1.44-3.25-2.79-6.57c-.42-1-.8-2-1.23-3.08-.1-.25-.21-.52-.31-.79-.4-1-.8-2-1.16-3s-.69-1.82-1-2.74l-.24-.65c-.17-.44-.33-.91-.49-1.35q-1-2.7-1.9-5.44c-.21-.6-.4-1.2-.6-1.8-.26-.8-.51-1.54-.75-2.32-.14-.41-.27-.8-.4-1.22-.25-.8-.49-1.59-.75-2.39-.31-1-.61-2.06-.92-3.11-.19-.64-.39-1.28-.57-1.95-.37-1.29-.74-2.58-1.09-3.89-.19-.68-.37-1.35-.55-2-.13-.5-.27-1-.4-1.51-.32-1.22-.62-2.45-.92-3.7-.18-.7-.34-1.4-.52-2.11-.07-.28-.13-.56-.19-.85-.37-1.55-.72-3.11-1.07-4.69-.26-1.16-.5-2.33-.74-3.5-.13-.71-.29-1.43-.42-2.14s-.32-1.59-.48-2.45a1.86,1.86,0,0,0-.09-.47c-.16-.8-.3-1.64-.45-2.48s-.32-1.84-.48-2.77-.29-1.8-.45-2.71q-.57-3.7-1.07-7.47c-.17-1.23-.33-2.47-.48-3.71A312.7,312.7,0,0,1,447,328.58V122.76Z"
       transform="translate(-445.5 -121.26)"
       id="path28921" />
  </g>
  <path
     id="shine"
     d="M 1.5800418,0.70901859 V 207.0859 c 0,229.66454 239.9200082,319.6031 239.9200082,319.6031 0,0 239.92,-89.93856 239.92,-319.6031 V 0.70901859 Z"
     style="fill:url(#rg);stroke:#000000;stroke-width:2.41218" />
</svg>
