<?xml version="1.0" encoding="UTF-8" standalone="no"?>
<svg
   viewBox="0 0 483 527.48"
   version="1.1"
   id="svg49730"
   sodipodi:docname="House Swann GoT.svg"
   inkscape:version="1.2.1 (9c6d41e410, 2022-07-14)"
   xmlns:inkscape="http://www.inkscape.org/namespaces/inkscape"
   xmlns:sodipodi="http://sodipodi.sourceforge.net/DTD/sodipodi-0.dtd"
   xmlns="http://www.w3.org/2000/svg"
   xmlns:svg="http://www.w3.org/2000/svg">
  <sodipodi:namedview
     id="namedview49732"
     pagecolor="#ffffff"
     bordercolor="#000000"
     borderopacity="0.25"
     inkscape:showpageshadow="2"
     inkscape:pageopacity="0.0"
     inkscape:pagecheckerboard="0"
     inkscape:deskcolor="#d1d1d1"
     showgrid="false"
     inkscape:zoom="1.12203"
     inkscape:cx="169.33593"
     inkscape:cy="273.61122"
     inkscape:window-width="1920"
     inkscape:window-height="1017"
     inkscape:window-x="-8"
     inkscape:window-y="-8"
     inkscape:window-maximized="1"
     inkscape:current-layer="svg49730" />
  <defs
     id="defs49692">
    <style
       id="style49690">.cls-1{fill:#f6f1e7;}.cls-2{fill:#242320;}.cls-3{fill:none;stroke:#000;stroke-width:3px;}</style>
    <radialGradient
       id="rg"
       gradientUnits="userSpaceOnUse"
       cx="220"
       cy="220"
       r="405"
       gradientTransform="matrix(0.80510068,0,0,0.80302287,0.01472594,-0.89702486)">
      <stop
         style="stop-color:#ffffff;stop-opacity:.3"
         offset="0"
         id="stop753" />
      <stop
         style="stop-color:#ffffff;stop-opacity:.2"
         offset=".2"
         id="stop755" />
      <stop
         style="stop-color:#666666;stop-opacity:.1"
         offset=".6"
         id="stop757" />
      <stop
         style="stop-color:#000000;stop-opacity:.13"
         offset="1"
         id="stop759" />
    </radialGradient>
  </defs>
  <title
     id="title49694">House Swann</title>
  <g
     id="Layer_2"
     data-name="Layer 2">
    <path
       class="cls-1"
       d="M927,122.76V328.6a314.37,314.37,0,0,1-2.28,38c-.11.93-.24,1.86-.36,2.79s-.24,1.86-.39,2.79q-.7,5.05-1.61,10c-.07.44-.15.87-.23,1.31-.15.8-.29,1.6-.45,2.39s-.34,1.8-.51,2.69l-.45,2.22-.24,1.16c-.15.71-.3,1.44-.47,2.15q-.8,3.55-1.61,7l-.58,2.32-.52,2q-1.52,5.88-3.27,11.61c-.29,1-.59,1.94-.9,2.92l-.6,1.88c-.19.63-.39,1.25-.6,1.86l-1.1,3.26c-.37,1.09-.68,2-1,3-.47,1.28-.92,2.55-1.39,3.81-.36,1-.73,2-1.11,3l-.19.49c-.43,1.14-.87,2.25-1.32,3.37s-.87,2.16-1.32,3.19a3.35,3.35,0,0,1-.18.42c-.4,1-.8,2-1.25,3s-.75,1.75-1.13,2.62l-.66,1.49c-.47,1.07-.95,2.12-1.44,3.15s-.9,2-1.36,2.93l-1,2.12c-.3.63-.6,1.25-.91,1.88-.63,1.32-1.31,2.64-2,4q-2.53,5-5.19,9.77l-2,3.57-.11.21q-2.13,3.71-4.33,7.33c-.71,1.2-1.46,2.39-2.18,3.54-.1.16-.19.31-.3.46-.55.89-1.12,1.78-1.69,2.66l-.66,1c-.65,1-1.31,2-2,3l-.13.18c-.66,1-1.32,2-2,3l-.45.67q-2.26,3.28-4.54,6.46l-.31.42c-.8,1.07-1.54,2.14-2.31,3.19s-1.66,2.23-2.5,3.32q-2.29,3-4.61,6l-.8,1c-.73.93-1.48,1.85-2.22,2.76L854,526.61l-.57.69L851,530.1q-2.83,3.32-5.72,6.53c-.75.85-1.52,1.69-2.29,2.51l-2.22,2.39q-3,3.19-5.93,6.24-2.76,2.83-5.53,5.59c-.91.91-1.84,1.82-2.76,2.71s-1.85,1.78-2.78,2.67l-2.28,2.11c-.68.65-1.36,1.28-2.05,1.91a448.64,448.64,0,0,1-61.76,47.47c-.86.55-1.73,1.1-2.58,1.6q-6.42,4.07-12.46,7.63l-2.41,1.4-2.36,1.36-2.34,1.35-2.22,1.28c-8.35,4.68-15.91,8.59-22.38,11.76l-1.61.8c-10.63,5.15-18.11,8.22-21,9.35l-.42.18-.61.23-.14.06h-.08l-.23-.1-.21,0-1.07-.42-.55-.23c-.87-.34-2-.8-3.36-1.38l-.47-.18c-1.76-.8-3.88-1.67-6.33-2.77l-1.39-.61a443.16,443.16,0,0,1-39.74-20.6c-.8-.45-1.61-.92-2.36-1.38a473.14,473.14,0,0,1-44.78-30l-2.62-2c-1-.75-2-1.52-2.95-2.29l-2.81-2.21c-6.19-4.92-12.43-10.15-18.64-15.69L558.08,566q-2.3-2.05-4.59-4.2l-1.67-1.57L550,558.54l-2-1.94c-1.12-1.07-2.24-2.16-3.34-3.26-.84-.8-1.69-1.67-2.52-2.51l-.24-.26q-1.25-1.25-2.5-2.51c-.66-.68-1.32-1.36-2-2l-2-2.07-.13-.15-2.1-2.24q-3.36-3.61-6.66-7.36c-.68-.8-1.36-1.55-2-2.35-.57-.65-1.12-1.28-1.66-1.94l-2-2.39q-4.26-5.11-8.39-10.48-1.13-1.45-2.24-2.92c-1.89-2.47-3.73-5-5.57-7.55l-1.68-2.39c-.13-.16-.24-.34-.36-.5-.59-.85-1.19-1.7-1.77-2.55-.95-1.38-1.89-2.77-2.82-4.17q-1.11-1.64-2.18-3.31l-.15-.24-2.22-3.47c-.07-.13-.15-.24-.22-.37-.71-1.14-1.41-2.27-2.1-3.4s-1.49-2.46-2.21-3.7-1.44-2.39-2.13-3.67q-4.6-8-8.77-16.47c-.35-.69-.69-1.38-1-2.08-.22-.44-.44-.89-.65-1.35-.43-.87-.8-1.75-1.25-2.63a27.17,27.17,0,0,1-1.15-2.47l-.23-.48c-.26-.58-.52-1.16-.8-1.75l-.26-.57c-.26-.58-.52-1.18-.8-1.77q-1.44-3.26-2.78-6.58c-.42-1-.8-2-1.23-3.07-.1-.26-.21-.53-.31-.8-.4-1-.8-2-1.16-3s-.68-1.82-1-2.74l-.23-.65c-.18-.45-.34-.91-.5-1.36q-1-2.69-1.89-5.44c-.21-.6-.4-1.21-.6-1.8-.26-.8-.51-1.54-.75-2.31-.14-.42-.26-.8-.39-1.22-.26-.8-.5-1.6-.75-2.39-.31-1-.61-2.06-.92-3.1-.18-.65-.39-1.28-.57-2-.37-1.28-.74-2.58-1.08-3.89-.19-.68-.37-1.35-.55-2-.13-.5-.26-1-.39-1.51-.32-1.22-.63-2.46-.92-3.7-.18-.7-.35-1.4-.52-2.11-.07-.29-.13-.57-.19-.85-.37-1.55-.71-3.11-1.07-4.69-.26-1.16-.5-2.33-.74-3.5-.14-.71-.29-1.43-.43-2.14s-.32-1.6-.47-2.45a2.13,2.13,0,0,0-.1-.47c-.15-.8-.3-1.64-.45-2.48s-.31-1.84-.47-2.77-.3-1.8-.45-2.71q-.87-5.52-1.56-11.17A314.73,314.73,0,0,1,447,328.58V122.76Z"
       transform="translate(-445.5 -121.26)"
       id="path49696" />
  </g>
  <g
     id="Layer_4"
     data-name="Layer 4">
    <path
       class="cls-2"
       d="M926.33,349.18q-.55,8.75-1.61,17.44c-.11.93-.24,1.86-.36,2.79,0,.2,0,.4-.08.59-.09.74-.19,1.47-.31,2.2-.46,3.37-1,6.69-1.6,10-.07.44-.15.87-.23,1.31v0c-.16.79-.29,1.59-.45,2.38s-.34,1.79-.51,2.69l-.45,2.22-.24,1.15c-.15.71-.3,1.44-.46,2.15-.54,2.37-1.07,4.71-1.61,7l-.58,2.32-.52,2q-1.53,5.88-3.27,11.61c-.29,1-.59,1.94-.9,2.92l-.6,1.88c-.2.63-.4,1.24-.61,1.86-.37,1.09-.73,2.17-1.1,3.25s-.68,2-1,3c-.47,1.28-.93,2.56-1.39,3.81-.36,1-.73,2-1.11,3l-.19.5c-.43,1.14-.87,2.25-1.32,3.36s-.87,2.17-1.31,3.2c0,.15-.12.28-.18.42-.4,1-.8,2-1.25,3s-.76,1.75-1.13,2.62l-.66,1.49c-.48,1.07-1,2.11-1.44,3.15s-.9,2-1.36,2.93l-1,2.12c-.29.63-.6,1.25-.91,1.87-.63,1.33-1.31,2.64-2,4q-2.52,5-5.19,9.77l-2,3.57-.12.21c-1.42,2.47-2.86,4.92-4.33,7.33-.71,1.2-1.46,2.4-2.18,3.54-.11.16-.2.32-.3.47-.55.89-1.12,1.78-1.69,2.66l-.65,1c-.65,1-1.31,2-2,3l-.13.18c-.65,1-1.31,2-2,3l-.45.67q-2.25,3.29-4.54,6.46l-.31.43c-.8,1.07-1.54,2.14-2.31,3.19s-1.66,2.23-2.5,3.32c-1.52,2-3.06,4-4.61,6l-.81,1q-1.09,1.39-2.22,2.76L854,526.61l-.57.69c-.8.94-1.6,1.87-2.41,2.8q-2.82,3.32-5.72,6.53c-.75.85-1.52,1.69-2.29,2.51s-1.47,1.6-2.22,2.4q-3,3.2-5.93,6.24-2.76,2.82-5.53,5.59c-.92.91-1.84,1.82-2.76,2.71s-1.85,1.78-2.79,2.66l-2.28,2.12c-.68.65-1.36,1.28-2,1.91a449.24,449.24,0,0,1-61.76,47.47c-.86.55-1.72,1.1-2.57,1.6q-6.43,4.06-12.47,7.63l-2.41,1.4-2.36,1.37-2.33,1.34-2.23,1.29c-8.34,4.68-15.9,8.59-22.38,11.76l-1.6.8c-10.64,5.15-18.12,8.22-21,9.35l-.42.17-.61.24-.14,0h-.08l-.23-.09-.21,0-1.07-.42-.54-.23c-.87-.34-2-.8-3.37-1.38l-.46-.18c-1.76-.8-3.89-1.67-6.33-2.77l-1.39-.61a442.25,442.25,0,0,1-39.75-20.6c-.8-.44-1.6-.92-2.35-1.38a474,474,0,0,1-44.78-30l-2.63-2c-1-.75-2-1.51-2.94-2.29l-2.81-2.21c-6.19-4.92-12.43-10.15-18.64-15.69L558.08,566q-2.31-2.05-4.59-4.2l-1.67-1.57L550,558.54l-2-1.94c-1.12-1.07-2.23-2.17-3.33-3.27-.85-.79-1.69-1.66-2.52-2.5l-.24-.26c-.84-.83-1.67-1.67-2.5-2.51-.66-.68-1.32-1.36-2-2l-2-2.06-.13-.15-2.1-2.25q-3.36-3.6-6.66-7.36c-.68-.79-1.36-1.54-2.05-2.34-.57-.65-1.12-1.29-1.66-1.94q-1-1.2-2-2.4-4.28-5.1-8.39-10.48c-.76-1-1.5-1.93-2.24-2.92-1.89-2.47-3.73-5-5.57-7.55-.55-.8-1.12-1.59-1.68-2.39-.13-.16-.24-.34-.36-.5-.59-.86-1.19-1.7-1.77-2.56-.94-1.38-1.89-2.77-2.81-4.17-.74-1.09-1.47-2.2-2.19-3.31a1,1,0,0,0-.15-.24l-2.22-3.48-.22-.36c-.7-1.14-1.41-2.27-2.1-3.4s-1.49-2.46-2.21-3.71-1.43-2.39-2.13-3.67q-4.61-8-8.77-16.46c-.35-.69-.69-1.38-1-2.09-.22-.44-.44-.88-.65-1.35-.43-.87-.8-1.74-1.25-2.63a25.91,25.91,0,0,1-1.15-2.47l-.23-.48c-.27-.58-.53-1.16-.81-1.75l-.26-.57c-.27-.59-.52-1.19-.8-1.78q-1.44-3.25-2.79-6.57c-.42-1-.8-2-1.23-3.08-.1-.25-.21-.52-.31-.79-.4-1-.8-2-1.16-3s-.69-1.82-1-2.74l-.24-.65c-.17-.44-.33-.91-.49-1.35q-1-2.7-1.9-5.44c-.21-.6-.4-1.2-.6-1.8-.26-.8-.51-1.54-.75-2.32-.14-.41-.27-.8-.4-1.22-.25-.8-.49-1.59-.75-2.39-.31-1-.61-2.06-.92-3.11-.19-.64-.39-1.28-.57-1.95-.37-1.29-.74-2.58-1.09-3.89-.19-.68-.37-1.35-.55-2-.13-.5-.27-1-.4-1.51-.32-1.22-.62-2.45-.92-3.7-.18-.7-.34-1.4-.52-2.11-.07-.28-.13-.56-.19-.85-.37-1.55-.72-3.11-1.07-4.69-.26-1.16-.5-2.33-.74-3.5-.13-.71-.29-1.43-.42-2.14s-.32-1.59-.48-2.45a1.86,1.86,0,0,0-.09-.47c-.12-.62-.24-1.27-.35-1.93,0-.18-.07-.37-.1-.55-.16-.84-.32-1.84-.48-2.77s-.29-1.8-.45-2.71q-.57-3.7-1.07-7.47c-.17-1.23-.33-2.47-.48-3.71q-1-8.54-1.58-17.11Z"
       transform="translate(-445.5 -121.26)"
       id="path49699" />
  </g>
  <g
     id="Layer_5"
     data-name="Layer 5">
    <path
       class="cls-1"
       d="M684.45,552.75c-21,2.48-40.77-1.2-59.31-11.62-5.58-3.14-11.56-5.54-16.92-9.14-8.53-5.75-16.23-12.24-21.8-21.09-3.21-5.1-7.55-8-14.24-7.68s-12-4-17.53-7.16a70.26,70.26,0,0,0-6.29-3.74c8.17,12.42,17.66,23.53,30.94,31.09-2.88,1.1-5.13-.24-8.79-.73,6.23,6.75,12.56,11.49,18.76,16.43,2.24,1.78,8.28,1.49,5.17,7.36-.19.35,1.21,1.63,2,2.38,5.09,5,10.29,10,15.25,15.13,1.78,1.85,3.77,1.71,5.9,1.72,39.06.13,78.11.14,117.17.47,14.1.12,28.17,1.24,42.3-.27,6-.64,9.52-3,12.17-8.45,8.87-18.09,8.79-36.82,5.17-56-1.65-8.76-6.13-15.85-10.77-23.38C774.29,462.91,765,447.4,766,428.19c.45-8.68,5-15,9.08-21.79,1-1.66,2.42-.82,3.76-.17a77.27,77.27,0,0,0,7.8,3.52c1.78.63,4.32,2.63,5.37-.67.9-2.8,0-5.42-3.26-6.31-2.23-.6-4.69-.68-6-3-.7-1.3-2.36-2.41-.92-4.26,1.1-1.41,2.47-2.27,4.16-1.79,5,1.41,10.16,1.77,15.25,2.59,2.73.44,5.78,1.92,2.28,5.8-1.84,2,.55,3.84,1.57,5.59.68,1.17,2.09,2.36.7,3.75-1.19,1.18-2.29-.29-3.38-.64-1.41-.44-3-2.24-4.06,0-.9,1.9.6,3.41,2.24,4.31a104,104,0,0,0,23,9.06c-2.38-4.78-6.3-7.12-9-10.48-3.11-3.88-6.8-7.38-5.45-13.24.69-3-1.53-5.06-3.81-6.58-9.87-6.62-20.47-10.91-32.68-9.76-8,.75-13.75,5.33-17.76,11.67-4.69,7.41-6.89,15.81-8.24,24.57-3,19.49,4.76,36.43,11.8,53.57,3.33,8.11,8.15,15.48,12.64,23,5.67,9.49,5.76,19.68,3.82,30.09-1.06,5.65-5.13,9.26-9.27,12.74-1.63,1.37-2.9.8-4.72-.17-11.57-6.16-21.79-14.35-32.72-21.45-16.12-10.47-32.72-20.22-52.3-22-26.46-2.42-52.83-1.74-78.71,5.39-10.34,2.84-10.72,3-3.66,11.47,16.64,19.93,38,32.09,63.52,36.72a159.69,159.69,0,0,0,26.15,2.09c2.75-.32,5.57.56,8.28-.48a119.62,119.62,0,0,0,22.91-6.57c5.25-2.2,9.85-2.35,14.45,1a12.93,12.93,0,0,0,3.43,1.71c1.45.18,2.76,1,3.27.86a27.25,27.25,0,0,1-4.9-1.39c-1-.44-1.78-1.1-2.76-1.5a16,16,0,0,0-13.83-.47,109.77,109.77,0,0,1-20.37,5.84C690.79,552.16,687.32,551.05,684.45,552.75Z"
       transform="translate(-445.5 -121.26)"
       id="path49702" />
    <path
       class="cls-2"
       d="M691.73,550.59c-2.85.27-5.8-.26-8.5,1.12l1.21,1c3.33.54,6.46-.53,9.65-1.16C694,549.59,692.81,550.25,691.73,550.59Z"
       transform="translate(-445.5 -121.26)"
       id="path49704" />
    <path
       class="cls-1"
       d="M784.29,397.43a1.63,1.63,0,0,0,1.49,1.77,1.69,1.69,0,0,0,2.17-1.59,1.51,1.51,0,0,0-1.48-1.73C785.27,395.76,784.47,396.14,784.29,397.43Z"
       transform="translate(-445.5 -121.26)"
       id="path49706" />
    <path
       class="cls-2"
       d="M691.73,550.59l2.36,1a72.29,72.29,0,0,0,17.39-4.71c5.72-2.33,11.16-2.72,16.83-.37,1.26.56,1.43-.12,1.29-1.15-4.34-4.43-8.76-4.9-14.69-2.26C707.55,546.38,699.5,548.16,691.73,550.59Z"
       transform="translate(-445.5 -121.26)"
       id="path49708" />
    <path
       class="cls-2"
       d="M730.56,547.55c2.68,1.58,5.4,1.7,8.67.41l-6.48-1.33C732.12,547.16,731,546.62,730.56,547.55Z"
       transform="translate(-445.5 -121.26)"
       id="path49710" />
    <path
       class="cls-2"
       d="M730.56,547.55l2.2-.93-3.15-1.27-1.29,1.15C728.79,547.46,729.66,547.54,730.56,547.55Z"
       transform="translate(-445.5 -121.26)"
       id="path49712" />
    <path
       class="cls-2"
       d="M687.55,320.33c21,2.48,40.77-1.2,59.31-11.62,5.58-3.14,11.56-5.54,16.92-9.14,8.53-5.75,16.23-12.24,21.8-21.09,3.21-5.1,7.55-8,14.24-7.68s12-4,17.53-7.16a70.26,70.26,0,0,1,6.29-3.74C815.46,272.31,806,283.42,792.69,291c2.88,1.1,5.13-.24,8.79-.73-6.23,6.75-12.56,11.49-18.76,16.43-2.24,1.78-8.28,1.49-5.17,7.36.19.35-1.21,1.63-2,2.38-5.09,5-10.29,10-15.25,15.13-1.78,1.85-3.77,1.71-5.9,1.72-39.06.13-78.11.14-117.17.47-14.1.12-28.17,1.24-42.3-.27-6-.64-9.52-3-12.17-8.45-8.87-18.09-8.79-36.82-5.17-56,1.65-8.76,6.13-15.85,10.77-23.38C597.71,230.49,607,215,606,195.78c-.45-8.68-5-15-9.08-21.79-1-1.66-2.42-.82-3.76-.17a77.27,77.27,0,0,1-7.8,3.52c-1.78.63-4.32,2.63-5.37-.67-.9-2.8,0-5.42,3.26-6.31,2.23-.6,4.69-.68,6-3,.7-1.3,2.36-2.41.92-4.26-1.1-1.41-2.47-2.27-4.16-1.79-5,1.41-10.16,1.77-15.25,2.59-2.73.44-5.78,1.92-2.28,5.8,1.84,2-.55,3.84-1.57,5.59-.68,1.17-2.09,2.36-.7,3.75,1.19,1.18,2.29-.29,3.38-.64,1.41-.44,3-2.24,4.06,0,.9,1.9-.6,3.41-2.24,4.31a104,104,0,0,1-23,9.06c2.38-4.78,6.3-7.12,9-10.48,3.11-3.88,6.8-7.38,5.45-13.24-.69-3,1.53-5.06,3.81-6.58,9.87-6.62,20.47-10.91,32.68-9.76,8,.75,13.75,5.33,17.76,11.67,4.69,7.41,6.89,15.81,8.24,24.57,3,19.49-4.76,36.43-11.8,53.57-3.33,8.11-8.15,15.48-12.64,23-5.67,9.49-5.76,19.68-3.82,30.09,1.06,5.65,5.13,9.26,9.27,12.74,1.63,1.37,2.9.8,4.72-.17,11.57-6.16,21.79-14.35,32.72-21.45,16.12-10.47,32.72-20.22,52.3-22,26.46-2.42,52.83-1.74,78.71,5.39,10.34,2.84,10.72,3,3.66,11.47-16.64,19.93-38,32.09-63.52,36.72a159.69,159.69,0,0,1-26.15,2.09c-2.75-.32-5.57.56-8.28-.48a119.62,119.62,0,0,1-22.91-6.57c-5.25-2.2-9.85-2.35-14.45,1A12.93,12.93,0,0,1,639.7,315c-1.45.18-2.76,1-3.27.86a27.25,27.25,0,0,0,4.9-1.39c1-.44,1.78-1.1,2.76-1.5a16,16,0,0,1,13.83-.47,109.77,109.77,0,0,0,20.37,5.84C681.21,319.75,684.68,318.64,687.55,320.33Z"
       transform="translate(-445.5 -121.26)"
       id="path49714" />
    <path
       class="cls-1"
       d="M680.27,318.18c2.85.27,5.8-.26,8.5,1.12l-1.21,1c-3.33.54-6.46-.53-9.65-1.16C678,317.17,679.19,317.83,680.27,318.18Z"
       transform="translate(-445.5 -121.26)"
       id="path49716" />
    <path
       class="cls-2"
       d="M587.71,165a1.63,1.63,0,0,1-1.49,1.77,1.69,1.69,0,0,1-2.17-1.59,1.51,1.51,0,0,1,1.48-1.73C586.73,163.34,587.53,163.73,587.71,165Z"
       transform="translate(-445.5 -121.26)"
       id="path49718" />
    <path
       class="cls-1"
       d="M680.27,318.18l-2.36,1a72.29,72.29,0,0,1-17.39-4.71c-5.72-2.33-11.16-2.72-16.83-.37-1.26.56-1.43-.12-1.29-1.15,4.34-4.43,8.76-4.9,14.69-2.26C664.45,314,672.5,315.75,680.27,318.18Z"
       transform="translate(-445.5 -121.26)"
       id="path49720" />
    <path
       class="cls-1"
       d="M641.44,315.14c-2.68,1.58-5.4,1.7-8.67.41l6.48-1.33C639.88,314.75,641,314.2,641.44,315.14Z"
       transform="translate(-445.5 -121.26)"
       id="path49722" />
    <path
       class="cls-1"
       d="M641.44,315.14l-2.2-.93,3.15-1.27,1.29,1.15C643.21,315,642.34,315.12,641.44,315.14Z"
       transform="translate(-445.5 -121.26)"
       id="path49724" />
  </g>
  <g
     id="Layer_3"
     data-name="Layer 3">
    <path
       class="cls-3"
       d="M927,122.76V328.6q0,10.3-.67,20.58-.55,8.75-1.61,17.44c-.11.93-.24,1.86-.36,2.79,0,.2,0,.4-.08.59-.09.74-.19,1.47-.31,2.2-.46,3.37-1,6.69-1.6,10-.07.44-.15.87-.23,1.31v0c-.16.79-.29,1.59-.45,2.38s-.34,1.79-.51,2.69l-.45,2.22-.24,1.15c-.15.71-.3,1.44-.46,2.15-.54,2.37-1.07,4.71-1.61,7l-.58,2.32-.52,2q-1.53,5.88-3.27,11.61c-.29,1-.59,1.94-.9,2.92l-.6,1.88c-.2.63-.4,1.24-.61,1.86-.37,1.09-.73,2.17-1.1,3.25s-.68,2-1,3c-.47,1.28-.93,2.56-1.39,3.81-.36,1-.73,2-1.11,3l-.19.5c-.43,1.14-.87,2.25-1.32,3.36s-.87,2.17-1.31,3.2c0,.15-.12.28-.18.42-.4,1-.8,2-1.25,3s-.76,1.75-1.13,2.62l-.66,1.49c-.48,1.07-1,2.11-1.44,3.15s-.9,2-1.36,2.93l-1,2.12c-.29.63-.6,1.25-.91,1.87-.63,1.33-1.31,2.64-2,4q-2.52,5-5.19,9.77l-2,3.57-.12.21c-1.42,2.47-2.86,4.92-4.33,7.33-.71,1.2-1.46,2.4-2.18,3.54-.11.16-.2.32-.3.47-.55.89-1.12,1.78-1.69,2.66l-.65,1c-.65,1-1.31,2-2,3l-.13.18c-.65,1-1.31,2-2,3l-.45.67q-2.25,3.29-4.54,6.46l-.31.43c-.8,1.07-1.54,2.14-2.31,3.19s-1.66,2.23-2.5,3.32c-1.52,2-3.06,4-4.61,6l-.81,1q-1.09,1.39-2.22,2.76L854,526.61l-.57.69c-.8.94-1.6,1.87-2.41,2.8q-2.82,3.32-5.72,6.53c-.75.85-1.52,1.69-2.29,2.51s-1.47,1.6-2.22,2.4q-3,3.2-5.93,6.24-2.76,2.82-5.53,5.59c-.92.91-1.84,1.82-2.76,2.71s-1.85,1.78-2.79,2.66l-2.28,2.12c-.68.65-1.36,1.28-2,1.91a449.24,449.24,0,0,1-61.76,47.47c-.86.55-1.72,1.1-2.57,1.6q-6.43,4.06-12.47,7.63l-2.41,1.4-2.36,1.37-2.33,1.34-2.23,1.29c-8.34,4.68-15.9,8.59-22.38,11.76l-1.6.8c-10.64,5.15-18.12,8.22-21,9.35l-.42.17-.61.24-.14,0h-.08l-.23-.09-.21,0-1.07-.42-.54-.23c-.87-.34-2-.8-3.37-1.38l-.46-.18c-1.76-.8-3.89-1.67-6.33-2.77l-1.39-.61a442.25,442.25,0,0,1-39.75-20.6c-.8-.44-1.6-.92-2.35-1.38a474,474,0,0,1-44.78-30l-2.63-2c-1-.75-2-1.51-2.94-2.29l-2.81-2.21c-6.19-4.92-12.43-10.15-18.64-15.69L558.08,566q-2.31-2.05-4.59-4.2l-1.67-1.57L550,558.54l-2-1.94c-1.12-1.07-2.23-2.17-3.33-3.27-.85-.79-1.69-1.66-2.52-2.5l-.24-.26c-.84-.83-1.67-1.67-2.5-2.51-.66-.68-1.32-1.36-2-2l-2-2.06-.13-.15-2.1-2.25q-3.36-3.6-6.66-7.36c-.68-.79-1.36-1.54-2.05-2.34-.57-.65-1.12-1.29-1.66-1.94q-1-1.2-2-2.4-4.28-5.1-8.39-10.48c-.76-1-1.5-1.93-2.24-2.92-1.89-2.47-3.73-5-5.57-7.55-.55-.8-1.12-1.59-1.68-2.39-.13-.16-.24-.34-.36-.5-.59-.86-1.19-1.7-1.77-2.56-.94-1.38-1.89-2.77-2.81-4.17-.74-1.09-1.47-2.2-2.19-3.31a1,1,0,0,0-.15-.24l-2.22-3.48-.22-.36c-.7-1.14-1.41-2.27-2.1-3.4s-1.49-2.46-2.21-3.71-1.43-2.39-2.13-3.67q-4.61-8-8.77-16.46c-.35-.69-.69-1.38-1-2.09-.22-.44-.44-.88-.65-1.35-.43-.87-.8-1.74-1.25-2.63a25.91,25.91,0,0,1-1.15-2.47l-.23-.48c-.27-.58-.53-1.16-.81-1.75l-.26-.57c-.27-.59-.52-1.19-.8-1.78q-1.44-3.25-2.79-6.57c-.42-1-.8-2-1.23-3.08-.1-.25-.21-.52-.31-.79-.4-1-.8-2-1.16-3s-.69-1.82-1-2.74l-.24-.65c-.17-.44-.33-.91-.49-1.35q-1-2.7-1.9-5.44c-.21-.6-.4-1.2-.6-1.8-.26-.8-.51-1.54-.75-2.32-.14-.41-.27-.8-.4-1.22-.25-.8-.49-1.59-.75-2.39-.31-1-.61-2.06-.92-3.11-.19-.64-.39-1.28-.57-1.95-.37-1.29-.74-2.58-1.09-3.89-.19-.68-.37-1.35-.55-2-.13-.5-.27-1-.4-1.51-.32-1.22-.62-2.45-.92-3.7-.18-.7-.34-1.4-.52-2.11-.07-.28-.13-.56-.19-.85-.37-1.55-.72-3.11-1.07-4.69-.26-1.16-.5-2.33-.74-3.5-.13-.71-.29-1.43-.42-2.14s-.32-1.59-.48-2.45a1.86,1.86,0,0,0-.09-.47c-.12-.62-.24-1.27-.35-1.93,0-.18-.07-.37-.1-.55-.16-.84-.32-1.84-.48-2.77s-.29-1.8-.45-2.71q-.57-3.7-1.07-7.47c-.17-1.23-.33-2.47-.48-3.71q-1-8.54-1.58-17.11-.68-10.29-.67-20.6V122.76Z"
       transform="translate(-445.5 -121.26)"
       id="path49727" />
  </g>
  <path
     id="shine"
     d="M 1.6249271,0.70902114 V 207.0859 c 0,229.66454 239.9200029,319.6031 239.9200029,319.6031 0,0 239.92,-89.93856 239.92,-319.6031 V 0.70902114 Z"
     style="fill:url(#rg);stroke:#000000;stroke-width:2.41218" />
</svg>
