<?xml version="1.0" encoding="UTF-8" standalone="no"?>
<svg
   viewBox="0 0 483 527.48"
   version="1.1"
   id="svg29642"
   sodipodi:docname="House Swyft.svg"
   inkscape:version="1.2.1 (9c6d41e410, 2022-07-14)"
   xmlns:inkscape="http://www.inkscape.org/namespaces/inkscape"
   xmlns:sodipodi="http://sodipodi.sourceforge.net/DTD/sodipodi-0.dtd"
   xmlns="http://www.w3.org/2000/svg"
   xmlns:svg="http://www.w3.org/2000/svg">
  <sodipodi:namedview
     id="namedview29644"
     pagecolor="#ffffff"
     bordercolor="#000000"
     borderopacity="0.25"
     inkscape:showpageshadow="2"
     inkscape:pageopacity="0.0"
     inkscape:pagecheckerboard="0"
     inkscape:deskcolor="#d1d1d1"
     showgrid="false"
     inkscape:zoom="1.12203"
     inkscape:cx="171.11842"
     inkscape:cy="288.76233"
     inkscape:window-width="1920"
     inkscape:window-height="1017"
     inkscape:window-x="-8"
     inkscape:window-y="-8"
     inkscape:window-maximized="1"
     inkscape:current-layer="svg29642" />
  <defs
     id="defs29605">
    <style
       id="style29603">.cls-1{fill:#f6d74e;}.cls-2{fill:#11366a;}.cls-3{fill:#bf191a;}.cls-4{fill:#375273;}.cls-5{fill:#f6dc50;}.cls-6{fill:#be191a;}.cls-7{fill:#fbf4e3;}.cls-8{fill:#f9f3e2;}.cls-9{fill:#eae0d3;}.cls-10{fill:#141415;}.cls-11{fill:none;stroke:#000;stroke-width:3px;}</style>
    <radialGradient
       id="rg"
       gradientUnits="userSpaceOnUse"
       cx="220"
       cy="220"
       r="405"
       gradientTransform="matrix(0.80510068,0,0,0.80302287,-0.03019965,-0.89702586)">
      <stop
         style="stop-color:#ffffff;stop-opacity:.3"
         offset="0"
         id="stop753" />
      <stop
         style="stop-color:#ffffff;stop-opacity:.2"
         offset=".2"
         id="stop755" />
      <stop
         style="stop-color:#666666;stop-opacity:.1"
         offset=".6"
         id="stop757" />
      <stop
         style="stop-color:#000000;stop-opacity:.13"
         offset="1"
         id="stop759" />
    </radialGradient>
  </defs>
  <title
     id="title29607">House Swyft</title>
  <g
     id="Layer_2"
     data-name="Layer 2">
    <path
       class="cls-1"
       d="M927,122.76V328.6a314.37,314.37,0,0,1-2.28,38c-.11.93-.24,1.86-.36,2.79s-.24,1.86-.39,2.79q-.7,5.05-1.61,10c-.07.44-.15.87-.23,1.31-.15.8-.29,1.6-.45,2.39s-.34,1.8-.51,2.69l-.45,2.22-.24,1.16c-.15.71-.3,1.44-.47,2.15q-.8,3.55-1.61,7l-.58,2.32-.52,2q-1.52,5.88-3.27,11.61c-.29,1-.59,1.94-.9,2.92l-.6,1.88c-.19.63-.39,1.25-.6,1.86l-1.1,3.26c-.37,1.09-.68,2-1,3-.47,1.28-.92,2.55-1.39,3.81-.36,1-.73,2-1.11,3l-.19.49c-.43,1.14-.87,2.25-1.32,3.37s-.87,2.16-1.32,3.19a3.35,3.35,0,0,1-.18.42c-.4,1-.8,2-1.25,3s-.75,1.75-1.13,2.62l-.66,1.49c-.47,1.07-.95,2.12-1.44,3.15s-.9,2-1.36,2.93l-1,2.12c-.3.63-.6,1.25-.91,1.88-.63,1.32-1.31,2.64-2,4q-2.53,5-5.19,9.77l-2,3.57-.11.21q-2.13,3.71-4.33,7.33c-.71,1.2-1.46,2.39-2.18,3.54-.1.16-.19.31-.3.46-.55.89-1.12,1.78-1.69,2.66l-.66,1c-.65,1-1.31,2-2,3l-.13.18c-.66,1-1.32,2-2,3l-.45.67q-2.26,3.28-4.54,6.46l-.31.42c-.8,1.07-1.54,2.14-2.31,3.19s-1.66,2.23-2.5,3.32q-2.29,3-4.61,6l-.8,1c-.73.93-1.48,1.85-2.22,2.76L854,526.61l-.57.69L851,530.1q-2.83,3.32-5.72,6.53c-.75.85-1.52,1.69-2.29,2.51l-2.22,2.39q-3,3.19-5.93,6.24-2.76,2.83-5.53,5.59c-.91.91-1.84,1.82-2.76,2.71s-1.85,1.78-2.78,2.67l-2.28,2.11c-.68.65-1.36,1.28-2.05,1.91a448.64,448.64,0,0,1-61.76,47.47c-.86.55-1.73,1.1-2.58,1.6q-6.42,4.07-12.46,7.63l-2.41,1.4-2.36,1.36-2.34,1.35-2.22,1.28c-8.35,4.68-15.91,8.59-22.38,11.76l-1.61.8c-10.63,5.15-18.11,8.22-21,9.35l-.42.18-.61.23-.14.06h-.08l-.23-.1-.21,0-1.07-.42-.55-.23c-.87-.34-2-.8-3.36-1.38l-.47-.18c-1.76-.8-3.88-1.67-6.33-2.77l-1.39-.61a443.16,443.16,0,0,1-39.74-20.6c-.8-.45-1.61-.92-2.36-1.38a473.14,473.14,0,0,1-44.78-30l-2.62-2c-1-.75-2-1.52-2.95-2.29l-2.81-2.21c-6.19-4.92-12.43-10.15-18.64-15.69L558.08,566q-2.3-2.05-4.59-4.2l-1.67-1.57L550,558.54l-2-1.94c-1.12-1.07-2.24-2.16-3.34-3.26-.84-.8-1.69-1.67-2.52-2.51l-.24-.26q-1.25-1.25-2.5-2.51c-.66-.68-1.32-1.36-2-2l-2-2.07-.13-.15-2.1-2.24q-3.36-3.61-6.66-7.36c-.68-.8-1.36-1.55-2-2.35-.57-.65-1.12-1.28-1.66-1.94l-2-2.39q-4.26-5.11-8.39-10.48-1.13-1.45-2.24-2.92c-1.89-2.47-3.73-5-5.57-7.55l-1.68-2.39c-.13-.16-.24-.34-.36-.5-.59-.85-1.19-1.7-1.77-2.55-.95-1.38-1.89-2.77-2.82-4.17q-1.11-1.64-2.18-3.31l-.15-.24-2.22-3.47c-.07-.13-.15-.24-.22-.37-.71-1.14-1.41-2.27-2.1-3.4s-1.49-2.46-2.21-3.7-1.44-2.39-2.13-3.67q-4.6-8-8.77-16.47c-.35-.69-.69-1.38-1-2.08-.22-.44-.44-.89-.65-1.35-.43-.87-.8-1.75-1.25-2.63a27.17,27.17,0,0,1-1.15-2.47l-.23-.48c-.26-.58-.52-1.16-.8-1.75l-.26-.57c-.26-.58-.52-1.18-.8-1.77q-1.44-3.26-2.78-6.58c-.42-1-.8-2-1.23-3.07-.1-.26-.21-.53-.31-.8-.4-1-.8-2-1.16-3s-.68-1.82-1-2.74l-.23-.65c-.18-.45-.34-.91-.5-1.36q-1-2.69-1.89-5.44c-.21-.6-.4-1.21-.6-1.8-.26-.8-.51-1.54-.75-2.31-.14-.42-.26-.8-.39-1.22-.26-.8-.5-1.6-.75-2.39-.31-1-.61-2.06-.92-3.1-.18-.65-.39-1.28-.57-2-.37-1.28-.74-2.58-1.08-3.89-.19-.68-.37-1.35-.55-2-.13-.5-.26-1-.39-1.51-.32-1.22-.63-2.46-.92-3.7-.18-.7-.35-1.4-.52-2.11-.07-.29-.13-.57-.19-.85-.37-1.55-.71-3.11-1.07-4.69-.26-1.16-.5-2.33-.74-3.5-.14-.71-.29-1.43-.43-2.14s-.32-1.6-.47-2.45a2.13,2.13,0,0,0-.1-.47c-.15-.8-.3-1.64-.45-2.48s-.31-1.84-.47-2.77-.3-1.8-.45-2.71q-.87-5.52-1.56-11.17A314.73,314.73,0,0,1,447,328.58V122.76Z"
       transform="translate(-445.5 -121.26)"
       id="path29609" />
  </g>
  <g
     id="Layer_4"
     data-name="Layer 4">
    <path
       class="cls-2"
       d="M609,240.35a49.91,49.91,0,0,0-13.79-11.75,1.28,1.28,0,0,1,0-1.58c1-1,2.45-1.54,3.35-2.67,1.75-2.2,1.61-3.79-1.58-4-2.86-.23-5.74.18-8.59-.35-1.17-.38-2.25-.85-2.31-2.33,2.54-2.68,5.86-1.41,8.86-1.77,1.59-.19,3.84.55,4.42-1.37s-1.23-3.36-2.74-4.5c-1.17-.88-2.68-1.17-3.84-2.1a1.35,1.35,0,0,1-.43-1q0-.58.15-.58l.05-.21c9.05-5.51,18.87-3.86,28.43-2.52a72.31,72.31,0,0,1,25.15,8.71,12.76,12.76,0,0,1,5.64,5.6c16.55,15.63,23.11,36.19,28.92,57.3,1.18,4.28-3.2,5-2.8,8.3.56,4.55.6,9.16.84,13.75.12,2.3.22,4.59.26,6.89,0,1.65.3,3.76-1.37,4.51-1.88.84-1.86-2.6-4.08-2.42-2.41,6.91-1.91,14.26-2.63,21.42a6.38,6.38,0,0,0,3.85,6.61,394.66,394.66,0,0,0,45.13,18c0-4.87-1.88-8.55-3.41-12.2-10.46-24.93-11.89-50.93-10-77.49,1.62-22.91,8.3-43.55,23-61.64,12.87-15.79,29.09-24,49.21-24.79,6.47-.27,13-.32,19.44-.25,11.6.11,21.3,2.86,27.53,14.45a148.61,148.61,0,0,1,16.91,50.6c-3.64-1.1-4.15-3.74-5.29-5.71-3.88-6.67-7.45-13.53-11.49-20.1-3.61-5.89-9-8.65-16.09-9.34-43.43-4.26-72.46,23.46-81.44,61.91-6.31,27-2.65,53.47,4.4,79.75a184.14,184.14,0,0,0,14,35.41c2.11,4.16,1.21,5-3.26,5.33-14.86,1.14-29-2.67-43.32-5.51-1.63-.32-3.21-1-5.15-.1.44,3.06,3,3.72,5.21,4.42,15.05,4.67,30.56,6.58,46.24,7.33,4.3.21,5.84-1.3,4.63-6-4-15.75-10.1-30.91-13.3-46.89-5.56-27.84-5.63-55.36,7.18-81.41,13-26.35,36.09-36.2,64.06-37.25,5.25-.2,8.68,2.24,12.11,6.23,13.56,15.77,19.48,34.2,20.43,54.6.1,2.24.5,4.45-1.09,6.5-2.67-1.13-2.48-3.4-2.63-5.32a20.43,20.43,0,0,0-2.1-7.82c-15.37-29.66-34.66-31.74-61.81-8.18-11.8,10.24-15.2,25.37-18.13,40.36-5.78,29.6,1.56,57.58,9.45,85.58.11.4.34.76.47,1.16,4.13,12.87,3,14-10.43,15-17,1.25-33.79,1.11-50.47-2.58-1.18-.26-2.46,0-5.58,0,5.92,5.5,12.06,6.68,17.81,7.38,17.1,2.09,34.21.93,51.27-1.13,6.24-.75,4.49-4.83,3.58-8.17A185.64,185.64,0,0,1,765,353.77c.32-16.39,3.23-32.24,10.61-47.22,7.05-14.31,18.86-22.42,33.07-28.06,3.44-1.36,6.11-.18,8.74,1.69,13.26,9.44,18,23,18.56,38.56.25,7,.35,13.91-3,20.63-2.44-1.64-2.14-3.69-2.45-5.41-1.8-9.95-8-16.34-18-18.3-5.37-1.05-8.78,2.38-11.66,5.92a89.48,89.48,0,0,0-19.7,43.35,162.66,162.66,0,0,0-1.38,31.91c.09,2.17-.49,4.59,2.74,7,.34-7,.66-13.29.95-19.55a70.49,70.49,0,0,1,12.74-38c5.1-7.28,10.24-10,15.49-7.77,7,3,14.47,8.37,14.19,17.93-.32,11-1.69,19.42-5,24.4-2-2.61-1.72-5.55-2-8.28-.49-4.48-2.69-7.49-7.24-8.17-5-.75-9.82-.4-12.2,5.11-7.08,16.38-9.89,33.36-7.41,51.19,1,7.08,4.52,10.74,11.55,11.79,3.09.46,6.54.69,9.78,3.49-9.94,5.26-21.11,4.06-31,8.27,1.45,2.48,4.42,1.73,5.13,4.49-4.39,3.51-9.8,1.59-14.71,2.32-1.57.23-3.6.12-4,2.2-.27,1.56,2.06,1.13,2.55,2.73-3.78,2.19-8,1-12,1.17-3.54.12-7.1-.35-10.65-.35-2.63,0-6.25-1-7.55,1.36-1.71,3.11,3.2,3.67,4.15,6.66-8.61-1.08-17-1.87-25.33-3.27-4.67-.78-7.92-1-6.81,5.26.31,1.73-.84,2.68-2.42,3.12a22.36,22.36,0,0,1-18.48,0c-5.78-5.14-7-13.47-12.69-18.75-1.25,1.18-.37,2.12-.2,3,.45,2.24,3.21,4.89.71,6.58-2.23,1.51-4.39-1.46-6.49-2.64s-3.85-2.31-5.94-3.57c-.41,1-.94,1.64-.8,2,2.16,6.07-.38,5.76-4.62,3.55-.84-.44-2-.25-3-.35A36.56,36.56,0,0,1,640,454.69a9.34,9.34,0,0,1-3.61-7c-1-10.3-7-17.64-14.75-23.77-1-.76-2.45-2.09-3.14-1.81-6.62,2.69-7.73-2.72-9.91-6.5-5.11-8.83-5.09-8.84-13.21-2.36a7.75,7.75,0,0,1-1.74.76c-3.24-18.91-6.44-37.68-9.67-56.45a41.68,41.68,0,0,1-1-4.89c-.3-6.28-3-8.89-11-5.16,8.28-13.05,17-23.65,22.4-36.19-.26-3.18,1.54-5.56,3.18-8,5.31-7.8,9.3-16.26,13.06-24.89C616.29,265.45,616.92,252.76,609,240.35Z"
       transform="translate(-445.5 -121.26)"
       id="path29612" />
    <path
       class="cls-3"
       d="M640,454.69a82.6,82.6,0,0,1,19.31,5.14c-9,12.35-16.28,25.08-14.22,41.44.68,5.42,4.69,7.47,7.45,11.21-3.23,0-6.21.23-9.13,0-5.43-.51-6,2.55-5,6.61,1.3,5.48,5.71,7.92,10.33,10.14,5.77,2.77,8.43,14,4.64,19.22-3.39,4.69-14,7.64-18,5-1.65-1.1-3.35-2.08-.81-4.17,4-3.27,5.94-11.69,2.7-14.85-3.84-3.74-6.77-8.46-11.65-11.19-6.43-3.6-9.85-2.39-11.67,4.76-.81,3.17-2.52,4-6.23,1.92,1.75,5.63,6.07,7.28,8.52,10.56-6.49,1.32-12.84-2.21-17.44-9.79-2.13-3.51-4.44-6.84-2.38-11.59,4-9.21,4.11-9.48,19.36-8-5.17-2.45-9-4-12.48-6-6.09-3.47-9.25,2.78-13.43,4.52-2.78,1.15.92,5.68,2.6,8.57-7.2-1.58-14.23-7.4-13-11.2,1.84-5.95,4.15-11.67,8.17-16.76,6.55-8.3,10.11,4,16.23,1.7-5-3.66-5.36-13.19-15.22-8.9,4.25-6.78,10.64-10.25,16.13-9.26,5.73,1,10.68,6.87,11.74,13.93.19,1.24.09,2.51.27,3.75.55,3.82,2.88,7.17,6.16,7.94,2.8.66,3.71-3.47,4.84-5.75,5.3-10.68,9-22,12.36-33.4A9.2,9.2,0,0,0,640,454.69Z"
       transform="translate(-445.5 -121.26)"
       id="path29614" />
    <path
       class="cls-3"
       d="M692.31,469.94H710.8c-.61,1.53-1.36,2.92-.76,4.77,2.45,7.59,5.54,14.89,10.27,21.33,3,4.07,7.41,5.93,12.73,6.32-1.69,2.88-4.49,3.56-6.45,5.27-1.37,1.2-3.54,2.14-3.09,4.33.5,2.45,2.56,3.83,4.93,4.28a19.78,19.78,0,0,0,14-2c3.94-2.28,6.7-1,9,2.38a65.86,65.86,0,0,1,4.26,6.93c5.46,10.87-3.19,24.42-16.43,24.77,3.52-4.31,5.37-8.47,1.94-13.57-2.44-3.63-5.37-5.31-9.47-4.29a131.06,131.06,0,0,0-15.55,4.62c-7.53,2.9-11.56,9.32-11,16.64.11,1.42,1.3,2,2.58,2.27,2.79.55,5.59,1.07,9.65,1.84-7,4.63-13.46,4.06-19.84,2-4-1.28-7.66-3.31-12-1.64-1.64.63-3.31-.08-4.77-1-7-4.32-6.45-21.2.79-25.07,1.28-.69,2.72-1.11,4-1.84,1.9-1.11,4.83-1.47,4.9-4.24.05-2.26-2.07-3.4-4-4.41-2.64-1.41-4.89-.63-6.88,1.17a44.92,44.92,0,0,0-3.65,4.55c.08-7.64,1.08-13.48,4.79-18.66,2.67-3.73,5.4-3.68,7.62.38,2.61,4.78,5.25,9.53,11.91,7.19,5.28-1.86,6.58-6.61,4.44-15A114.72,114.72,0,0,0,692.31,469.94Z"
       transform="translate(-445.5 -121.26)"
       id="path29616" />
    <path
       class="cls-3"
       d="M651.86,217.86c-18.13-12-37.78-16.41-59.23-11.79,2.45-2.43.67-4.54-.51-6.7-2.3-4.2-4.79-8.34-4.44-13.43s2.95-8.06,7.93-9c4.18-.79,7.25.28,7.13,5.12-.14,5.57,2.76,4.73,5.88,2.94,2.7-1.55,5-3.71,7.68-5.36,5.51-3.42,8-2.69,10.21,3.48,1.23,3.46,3.26,3.58,5.74,2.29,3.14-1.62,6.07-3.66,9-5.57,4.28-2.75,7.85-1.93,9.49,2.81s4,3.88,7,1.87c2.75-1.87,5.27-4.15,8.17-5.73,3.68-2,6.65-1.34,6.83,3.56s2.78,4.35,5.78,2.71c2.73-1.5,5.24-3.43,8-4.87,1.64-.86,3.66-1.29,5.29.19s.91,3.44.19,5.2c-2.5,6.16-7.28,10.11-13,12.94-6.52,3.23-13.28,6-19.74,9.33C655.34,209.89,651.94,212.75,651.86,217.86Z"
       transform="translate(-445.5 -121.26)"
       id="path29618" />
    <path
       class="cls-3"
       d="M609,240.35c8.16,8.28,9.42,18.15,6.33,28.82-4.44,15.32-12,29.12-21,42.18-9.51-3.94-17.8-8.89-19.91-20.28-2-10.61,3-21.79,12.54-26.84,5.14-2.72,10.41-5.23,15.44-8.14C608.46,252.57,611.2,247.43,609,240.35Z"
       transform="translate(-445.5 -121.26)"
       id="path29620" />
    <path
       class="cls-4"
       d="M586.47,217.68l2.63,1.1c-2.58,5-7.67,2.31-10.47,4,5.28-.14,11.88-1.41,16.66,4.32l0,1.48c-6.52-1.2-13-2.5-19.56-3.56-4.48-.73-5.16-2.66-2.57-6.22,4.88-6.7,11.65-10.43,19.47-12.53l.2,1.43c-.71,3-3.67,3.05-5.75,4.08a36.43,36.43,0,0,0-9.07,6.68C580.45,218.57,583.2,215,586.47,217.68Z"
       transform="translate(-445.5 -121.26)"
       id="path29622" />
    <path
       class="cls-5"
       d="M640.54,342c-14.36,13.91-10.76,23.62-4.14,36.75,10.46,20.76,26.05,36.54,47.33,46.45a58.29,58.29,0,0,0,23.06,5c21,.64,42.12,3.48,62.94-1.91,4.63-1.2,9.25-2.62,13.11-5.64,1.51-1.18,2.95-3,4.38-.11,1.19,2.36,1,4.49-1.9,5.54-7.83,2.82-15.56,5.94-23.88,7.11-23.77,3.35-47.84,4.58-70.63-3.38-27.14-9.48-47.85-27.68-60.25-54.16-3.46-7.4-5.5-15.45-2.52-23.67C630.21,348,633.67,343.06,640.54,342Z"
       transform="translate(-445.5 -121.26)"
       id="path29624" />
    <path
       class="cls-6"
       d="M613.83,217.09c4.28-.73,8.56-1.47,12.85-2.19,6.38-1.07,11.26,3.42,10.57,9.87a17.91,17.91,0,0,1-1.51,5.38c-3.72,8.22-7.74,9.09-14.09,2.74-4.41-4.41-8.35-9.3-12.5-14C610.2,217,611.69,216.24,613.83,217.09Z"
       transform="translate(-445.5 -121.26)"
       id="path29626" />
    <path
       class="cls-7"
       d="M586.47,217.68l-11.79,3.21c3.61-6.25,5.9-7.91,18.1-13.19,6.26-1.64,7.74,3.39,9.57,7.3,1.12,2.4-1.33,2.36-2.94,2.4C595.1,217.53,590.78,217.6,586.47,217.68Z"
       transform="translate(-445.5 -121.26)"
       id="path29628" />
    <path
       class="cls-8"
       d="M595.29,227.12c-5.92-2.86-12.39-3-19-3.81,3.84-3.26,8.83-2.56,12.86-4.53,2.51,0,5.1-.42,7.5.1,2,.42,6-2.43,5.64,1.79C602,223.77,601.06,228.76,595.29,227.12Z"
       transform="translate(-445.5 -121.26)"
       id="path29630" />
    <path
       class="cls-9"
       d="M613.83,217.09l-4.67,1.83c-3.11-.92-4.22-2.4-1.41-5a4.38,4.38,0,0,0,5.41-2.63c1.18,0,2.76-.7,3.35.73C617.57,214.6,614.86,215.47,613.83,217.09Z"
       transform="translate(-445.5 -121.26)"
       id="path29632" />
    <path
       class="cls-10"
       d="M613.16,211.31c.8,1.6,1.27,3.22-.67,4.3-2.1,1.16-3.52-.09-4.74-1.67A5.81,5.81,0,0,1,613.16,211.31Z"
       transform="translate(-445.5 -121.26)"
       id="path29634" />
    <path
       class="cls-1"
       d="M699.29,532.73c0,3.63-2.4,5.3-4,7.4-2,2.68-3.91,5.42-4.5,8.82-.27,1.58,0,3.8-2.48,3.49s-2.55-2.39-2.42-4.36C686.36,541.69,692.09,534.92,699.29,532.73Z"
       transform="translate(-445.5 -121.26)"
       id="path29636" />
  </g>
  <g
     id="Layer_3"
     data-name="Layer 3">
    <path
       class="cls-11"
       d="M927,122.76V328.6a313.88,313.88,0,0,1-2.28,38c-.11.93-.24,1.86-.36,2.79,0,.2,0,.4-.08.59-.09.74-.19,1.47-.31,2.2-.46,3.37-1,6.69-1.6,10-.07.44-.15.87-.23,1.31-.16.8-.29,1.6-.45,2.4s-.34,1.79-.51,2.69l-.45,2.22-.24,1.15c-.15.71-.3,1.44-.46,2.15-.54,2.37-1.07,4.71-1.61,7l-.58,2.32-.52,2q-1.53,5.88-3.27,11.61c-.29,1-.59,1.94-.9,2.92l-.6,1.88c-.2.63-.4,1.24-.61,1.86-.37,1.09-.73,2.17-1.1,3.25s-.68,2-1,3c-.47,1.28-.93,2.56-1.39,3.81-.36,1-.73,2-1.11,3l-.19.5c-.43,1.14-.87,2.25-1.32,3.36s-.87,2.17-1.31,3.2c0,.15-.12.28-.18.42-.4,1-.8,2-1.25,3s-.76,1.75-1.13,2.62l-.66,1.49c-.48,1.07-1,2.11-1.44,3.15s-.9,2-1.36,2.93l-1,2.12c-.29.63-.6,1.25-.91,1.87-.63,1.33-1.31,2.64-2,4q-2.52,5-5.19,9.77l-2,3.57-.12.21c-1.42,2.47-2.86,4.92-4.33,7.33-.71,1.2-1.46,2.4-2.18,3.54-.11.16-.2.32-.3.47-.55.89-1.12,1.78-1.69,2.66l-.65,1c-.65,1-1.31,2-2,3l-.13.18c-.65,1-1.31,2-2,3l-.45.67q-2.25,3.29-4.54,6.46l-.31.43c-.8,1.07-1.54,2.14-2.31,3.19s-1.66,2.23-2.5,3.32c-1.52,2-3.06,4-4.61,6l-.81,1q-1.09,1.39-2.22,2.76L854,526.61l-.57.69c-.8.94-1.6,1.87-2.41,2.8q-2.82,3.32-5.72,6.53c-.75.85-1.52,1.69-2.29,2.51s-1.47,1.6-2.22,2.4q-3,3.2-5.93,6.24-2.76,2.82-5.53,5.59c-.92.91-1.84,1.82-2.76,2.71s-1.85,1.78-2.79,2.66l-2.28,2.12c-.68.65-1.36,1.28-2,1.91a449.24,449.24,0,0,1-61.76,47.47c-.86.55-1.72,1.1-2.57,1.6q-6.43,4.06-12.47,7.63l-2.41,1.4-2.36,1.37-2.33,1.34-2.23,1.29c-8.34,4.68-15.9,8.59-22.38,11.76l-1.6.8c-10.64,5.15-18.12,8.22-21,9.35l-.42.17-.61.24-.14,0h-.08l-.23-.09-.21,0-1.07-.42-.54-.23c-.87-.34-2-.8-3.37-1.38l-.46-.18c-1.76-.8-3.89-1.67-6.33-2.77l-1.39-.61a442.25,442.25,0,0,1-39.75-20.6c-.8-.44-1.6-.92-2.35-1.38a474,474,0,0,1-44.78-30l-2.63-2c-1-.75-2-1.51-2.94-2.29l-2.81-2.21c-6.19-4.92-12.43-10.15-18.64-15.69L558.08,566q-2.31-2.05-4.59-4.2l-1.67-1.57L550,558.54l-2-1.94c-1.12-1.07-2.23-2.17-3.33-3.27-.85-.79-1.69-1.66-2.52-2.5l-.24-.26c-.84-.83-1.67-1.67-2.5-2.51-.66-.68-1.32-1.36-2-2l-2-2.06-.13-.15-2.1-2.25q-3.36-3.6-6.66-7.36c-.68-.79-1.36-1.54-2.05-2.34-.57-.65-1.12-1.29-1.66-1.94q-1-1.2-2-2.4-4.28-5.1-8.39-10.48c-.76-1-1.5-1.93-2.24-2.92-1.89-2.47-3.73-5-5.57-7.55-.55-.8-1.12-1.59-1.68-2.39-.13-.16-.24-.34-.36-.5-.59-.86-1.19-1.7-1.77-2.56-.94-1.38-1.89-2.77-2.81-4.17-.74-1.09-1.47-2.2-2.19-3.31a1,1,0,0,0-.15-.24l-2.22-3.48-.22-.36c-.7-1.14-1.41-2.27-2.1-3.4s-1.49-2.46-2.21-3.71-1.43-2.39-2.13-3.67q-4.61-8-8.77-16.46c-.35-.69-.69-1.38-1-2.09-.22-.44-.44-.88-.65-1.35-.43-.87-.8-1.74-1.25-2.63a25.91,25.91,0,0,1-1.15-2.47l-.23-.48c-.27-.58-.53-1.16-.81-1.75l-.26-.57c-.27-.59-.52-1.19-.8-1.78q-1.44-3.25-2.79-6.57c-.42-1-.8-2-1.23-3.08-.1-.25-.21-.52-.31-.79-.4-1-.8-2-1.16-3s-.69-1.82-1-2.74l-.24-.65c-.17-.44-.33-.91-.49-1.35q-1-2.7-1.9-5.44c-.21-.6-.4-1.2-.6-1.8-.26-.8-.51-1.54-.75-2.32-.14-.41-.27-.8-.4-1.22-.25-.8-.49-1.59-.75-2.39-.31-1-.61-2.06-.92-3.11-.19-.64-.39-1.28-.57-1.95-.37-1.29-.74-2.58-1.09-3.89-.19-.68-.37-1.35-.55-2-.13-.5-.27-1-.4-1.51-.32-1.22-.62-2.45-.92-3.7-.18-.7-.34-1.4-.52-2.11-.07-.28-.13-.56-.19-.85-.37-1.55-.72-3.11-1.07-4.69-.26-1.16-.5-2.33-.74-3.5-.13-.71-.29-1.43-.42-2.14s-.32-1.59-.48-2.45a1.86,1.86,0,0,0-.09-.47c-.16-.8-.3-1.64-.45-2.48s-.32-1.84-.48-2.77-.29-1.8-.45-2.71q-.57-3.7-1.07-7.47c-.17-1.23-.33-2.47-.48-3.71A312.7,312.7,0,0,1,447,328.58V122.76Z"
       transform="translate(-445.5 -121.26)"
       id="path29639" />
  </g>
  <path
     id="shine"
     d="M 1.5800015,0.70901914 V 207.0859 C 1.5800015,436.75044 241.5,526.689 241.5,526.689 c 0,0 239.92,-89.93856 239.92,-319.6031 V 0.70901914 Z"
     style="fill:url(#rg);stroke:#000000;stroke-width:2.41218" />
</svg>
