<?xml version="1.0" encoding="UTF-8" standalone="no"?>
<svg
   viewBox="0 0 483 527.48"
   version="1.1"
   id="svg30262"
   sodipodi:docname="House Tarbeck.svg"
   inkscape:version="1.2.1 (9c6d41e410, 2022-07-14)"
   xmlns:inkscape="http://www.inkscape.org/namespaces/inkscape"
   xmlns:sodipodi="http://sodipodi.sourceforge.net/DTD/sodipodi-0.dtd"
   xmlns="http://www.w3.org/2000/svg"
   xmlns:svg="http://www.w3.org/2000/svg">
  <sodipodi:namedview
     id="namedview30264"
     pagecolor="#ffffff"
     bordercolor="#000000"
     borderopacity="0.25"
     inkscape:showpageshadow="2"
     inkscape:pageopacity="0.0"
     inkscape:pagecheckerboard="0"
     inkscape:deskcolor="#d1d1d1"
     showgrid="false"
     inkscape:zoom="1.12203"
     inkscape:cx="140.8162"
     inkscape:cy="272.71997"
     inkscape:window-width="1920"
     inkscape:window-height="1017"
     inkscape:window-x="-8"
     inkscape:window-y="-8"
     inkscape:window-maximized="1"
     inkscape:current-layer="svg30262" />
  <defs
     id="defs30208">
    <style
       id="style30206">.cls-1,.cls-3{fill:#f1f1f1;}.cls-1,.cls-2,.cls-3,.cls-4{stroke:#000;}.cls-1{stroke-miterlimit:10;}.cls-1,.cls-4{stroke-width:3px;}.cls-2{fill:#1f4497;}.cls-2,.cls-3{stroke-linecap:round;stroke-linejoin:round;}.cls-4{fill:none;}</style>
    <radialGradient
       id="rg"
       gradientUnits="userSpaceOnUse"
       cx="220"
       cy="220"
       r="405"
       gradientTransform="matrix(0.80510068,0,0,0.80302287,0.049801,-0.642923)">
      <stop
         style="stop-color:#ffffff;stop-opacity:.3"
         offset="0"
         id="stop753" />
      <stop
         style="stop-color:#ffffff;stop-opacity:.2"
         offset=".2"
         id="stop755" />
      <stop
         style="stop-color:#666666;stop-opacity:.1"
         offset=".6"
         id="stop757" />
      <stop
         style="stop-color:#000000;stop-opacity:.13"
         offset="1"
         id="stop759" />
    </radialGradient>
  </defs>
  <title
     id="title30210">House Tarbeck</title>
  <g
     id="Layer_2"
     data-name="Layer 2">
    <path
       class="cls-1"
       d="M927,122.76V328.6a314.37,314.37,0,0,1-2.28,38c-.11.93-.24,1.86-.36,2.79s-.24,1.86-.39,2.79q-.7,5.05-1.61,10c-.07.44-.15.87-.23,1.31-.15.8-.29,1.6-.45,2.39s-.34,1.8-.51,2.69l-.45,2.22-.24,1.16c-.15.71-.3,1.44-.47,2.15q-.8,3.55-1.61,7l-.58,2.32-.52,2q-1.52,5.88-3.27,11.61c-.29,1-.59,1.94-.9,2.92l-.6,1.88c-.19.63-.39,1.25-.6,1.86l-1.1,3.26c-.37,1.09-.68,2-1,3-.47,1.28-.92,2.55-1.39,3.81-.36,1-.73,2-1.11,3l-.19.49c-.43,1.14-.87,2.25-1.32,3.37s-.87,2.16-1.32,3.19a3.35,3.35,0,0,1-.18.42c-.4,1-.8,2-1.25,3s-.75,1.75-1.13,2.62l-.66,1.49c-.47,1.07-.95,2.12-1.44,3.15s-.9,2-1.36,2.93l-1,2.12c-.3.63-.6,1.25-.91,1.88-.63,1.32-1.31,2.64-2,4q-2.53,5-5.19,9.77l-2,3.57-.11.21q-2.13,3.71-4.33,7.33c-.71,1.2-1.46,2.39-2.18,3.54-.1.16-.19.31-.3.46-.55.89-1.12,1.78-1.69,2.66l-.66,1c-.65,1-1.31,2-2,3l-.13.18c-.66,1-1.32,2-2,3l-.45.67q-2.26,3.28-4.54,6.46l-.31.42c-.8,1.07-1.54,2.14-2.31,3.19s-1.66,2.23-2.5,3.32q-2.29,3-4.61,6l-.8,1c-.73.93-1.48,1.85-2.22,2.76L854,526.61l-.57.69L851,530.1q-2.83,3.32-5.72,6.53c-.75.85-1.52,1.69-2.29,2.51l-2.22,2.39q-3,3.19-5.93,6.24-2.76,2.83-5.53,5.59c-.91.91-1.84,1.82-2.76,2.71s-1.85,1.78-2.78,2.67l-2.28,2.11c-.68.65-1.36,1.28-2.05,1.91a448.64,448.64,0,0,1-61.76,47.47c-.86.55-1.73,1.1-2.58,1.6q-6.42,4.07-12.46,7.63l-2.41,1.4-2.36,1.36-2.34,1.35-2.22,1.28c-8.35,4.68-15.91,8.59-22.38,11.76l-1.61.8c-10.63,5.15-18.11,8.22-21,9.35l-.42.18-.61.23-.14.06h-.08l-.23-.1-.21,0-1.07-.42-.55-.23c-.87-.34-2-.8-3.36-1.38l-.47-.18c-1.76-.8-3.88-1.67-6.33-2.77l-1.39-.61a443.16,443.16,0,0,1-39.74-20.6c-.8-.45-1.61-.92-2.36-1.38a473.14,473.14,0,0,1-44.78-30l-2.62-2c-1-.75-2-1.52-2.95-2.29l-2.81-2.21c-6.19-4.92-12.43-10.15-18.64-15.69L558.08,566q-2.3-2.05-4.59-4.2l-1.67-1.57L550,558.54l-2-1.94c-1.12-1.07-2.24-2.16-3.34-3.26-.84-.8-1.69-1.67-2.52-2.51l-.24-.26q-1.25-1.25-2.5-2.51c-.66-.68-1.32-1.36-2-2l-2-2.07-.13-.15-2.1-2.24q-3.36-3.61-6.66-7.36c-.68-.8-1.36-1.55-2-2.35-.57-.65-1.12-1.28-1.66-1.94l-2-2.39q-4.26-5.11-8.39-10.48-1.13-1.45-2.24-2.92c-1.89-2.47-3.73-5-5.57-7.55l-1.68-2.39c-.13-.16-.24-.34-.36-.5-.59-.85-1.19-1.7-1.77-2.55-.95-1.38-1.89-2.77-2.82-4.17q-1.11-1.64-2.18-3.31l-.15-.24-2.22-3.47c-.07-.13-.15-.24-.22-.37-.71-1.14-1.41-2.27-2.1-3.4s-1.49-2.46-2.21-3.7-1.44-2.39-2.13-3.67q-4.6-8-8.77-16.47c-.35-.69-.69-1.38-1-2.08-.22-.44-.44-.89-.65-1.35-.43-.87-.8-1.75-1.25-2.63a27.17,27.17,0,0,1-1.15-2.47l-.23-.48c-.26-.58-.52-1.16-.8-1.75l-.26-.57c-.26-.58-.52-1.18-.8-1.77q-1.44-3.26-2.78-6.58c-.42-1-.8-2-1.23-3.07-.1-.26-.21-.53-.31-.8-.4-1-.8-2-1.16-3s-.68-1.82-1-2.74l-.23-.65c-.18-.45-.34-.91-.5-1.36q-1-2.69-1.89-5.44c-.21-.6-.4-1.21-.6-1.8-.26-.8-.51-1.54-.75-2.31-.14-.42-.26-.8-.39-1.22-.26-.8-.5-1.6-.75-2.39-.31-1-.61-2.06-.92-3.1-.18-.65-.39-1.28-.57-2-.37-1.28-.74-2.58-1.08-3.89-.19-.68-.37-1.35-.55-2-.13-.5-.26-1-.39-1.51-.32-1.22-.63-2.46-.92-3.7-.18-.7-.35-1.4-.52-2.11-.07-.29-.13-.57-.19-.85-.37-1.55-.71-3.11-1.07-4.69-.26-1.16-.5-2.33-.74-3.5-.14-.71-.29-1.43-.43-2.14s-.32-1.6-.47-2.45a2.13,2.13,0,0,0-.1-.47c-.15-.8-.3-1.64-.45-2.48s-.31-1.84-.47-2.77-.3-1.8-.45-2.71q-.87-5.52-1.56-11.17A314.73,314.73,0,0,1,447,328.58V122.76Z"
       transform="translate(-445.5 -121.26)"
       id="path30212" />
  </g>
  <g
     id="Layer_6"
     data-name="Layer 6">
    <polygon
       class="cls-2"
       points="1.5 47.41 205.14 209.37 210.07 169.62 129.5 1.5 1.5 1.5 1.5 47.41"
       id="polygon30215" />
    <path
       class="cls-2"
       d="M687,151.88V122.76H801L719.18,294.19S689.37,240.67,688.68,238,687,151.88,687,151.88Z"
       transform="translate(-445.5 -121.26)"
       id="path30217" />
    <polygon
       class="cls-2"
       points="403.94 109.67 481.5 46.74 481.5 184.24 306.05 223.94 359.74 145.28 403.94 109.67"
       id="polygon30219" />
    <path
       class="cls-2"
       d="M870.34,401.7l45.38,9.65s-18,60.19-45.38,94L740.84,401.7,773,393Z"
       transform="translate(-445.5 -121.26)"
       id="path30221" />
    <path
       class="cls-2"
       d="M776.28,545.87,796,582.79S762.68,613,687.09,647.24V424.5l67,74.41Z"
       transform="translate(-445.5 -121.26)"
       id="path30223" />
    <path
       class="cls-2"
       d="M502.89,504.17l137.39-106L612,519,579.36,584S547.78,564.84,502.89,504.17Z"
       transform="translate(-445.5 -121.26)"
       id="path30225" />
    <path
       class="cls-2"
       d="M481.44,407.5l-22.8,5.27S444,378,447,303l165,39L555.3,390.61Z"
       transform="translate(-445.5 -121.26)"
       id="path30227" />
  </g>
  <g
     id="Layer_5"
     data-name="Layer 5">
    <polygon
       class="cls-2"
       points="210.07 168.24 242.5 26.24 242.5 238.83 210.07 168.24"
       id="polygon30230" />
    <polygon
       class="cls-3"
       points="242.5 238.83 276 168.07 242.5 26.24 242.5 238.83"
       id="polygon30232" />
    <polygon
       class="cls-2"
       points="166.59 221.55 77.11 106.26 242.68 239.61 166.59 221.55"
       id="polygon30234" />
    <polygon
       class="cls-3"
       points="242.68 239.61 209.38 168.15 77.11 106.26 242.68 239.61"
       id="polygon30236" />
    <polygon
       class="cls-3"
       points="318.7 221.55 408.18 106.26 242.61 239.61 318.7 221.55"
       id="polygon30238" />
    <polygon
       class="cls-2"
       points="242.61 239.61 275.91 168.15 408.18 106.26 242.61 239.61"
       id="polygon30240" />
    <polygon
       class="cls-3"
       points="304.25 287.4 450.18 286.24 242.94 238.85 304.25 287.4"
       id="polygon30242" />
    <polygon
       class="cls-2"
       points="242.94 238.85 319.67 220.73 450.18 286.24 242.94 238.85"
       id="polygon30244" />
    <polygon
       class="cls-2"
       points="181.87 287.4 35.94 286.24 243.18 238.85 181.87 287.4"
       id="polygon30246" />
    <polygon
       class="cls-3"
       points="243.18 238.85 166.46 220.73 35.94 286.24 243.18 238.85"
       id="polygon30248" />
    <polygon
       class="cls-2"
       points="242.77 317.21 150.75 430.48 243.13 239.01 242.77 317.21"
       id="polygon30250" />
    <polygon
       class="cls-3"
       points="243.13 239.01 181.06 287.63 150.75 430.48 243.13 239.01"
       id="polygon30252" />
    <polygon
       class="cls-3"
       points="242.59 316.86 333.73 430.83 242.84 238.65 242.59 316.86"
       id="polygon30254" />
    <polygon
       class="cls-2"
       points="242.84 238.65 304.52 287.75 333.73 430.83 242.84 238.65"
       id="polygon30256" />
  </g>
  <g
     id="Layer_3"
     data-name="Layer 3">
    <path
       class="cls-4"
       d="M927,122.76V328.6a313.88,313.88,0,0,1-2.28,38c-.11.93-.24,1.86-.36,2.79,0,.2,0,.4-.08.59-.09.74-.19,1.47-.31,2.2-.46,3.37-1,6.69-1.6,10-.07.44-.15.87-.23,1.31-.16.8-.29,1.6-.45,2.4s-.34,1.79-.51,2.69l-.45,2.22-.24,1.15c-.15.71-.3,1.44-.46,2.15-.54,2.37-1.07,4.71-1.61,7l-.58,2.32-.52,2q-1.53,5.88-3.27,11.61c-.29,1-.59,1.94-.9,2.92l-.6,1.88c-.2.63-.4,1.24-.61,1.86-.37,1.09-.73,2.17-1.1,3.25s-.68,2-1,3c-.47,1.28-.93,2.56-1.39,3.81-.36,1-.73,2-1.11,3l-.19.5c-.43,1.14-.87,2.25-1.32,3.36s-.87,2.17-1.31,3.2c0,.15-.12.28-.18.42-.4,1-.8,2-1.25,3s-.76,1.75-1.13,2.62l-.66,1.49c-.48,1.07-1,2.11-1.44,3.15s-.9,2-1.36,2.93l-1,2.12c-.29.63-.6,1.25-.91,1.87-.63,1.33-1.31,2.64-2,4q-2.52,5-5.19,9.77l-2,3.57-.12.21c-1.42,2.47-2.86,4.92-4.33,7.33-.71,1.2-1.46,2.4-2.18,3.54-.11.16-.2.32-.3.47-.55.89-1.12,1.78-1.69,2.66l-.65,1c-.65,1-1.31,2-2,3l-.13.18c-.65,1-1.31,2-2,3l-.45.67q-2.25,3.29-4.54,6.46l-.31.43c-.8,1.07-1.54,2.14-2.31,3.19s-1.66,2.23-2.5,3.32c-1.52,2-3.06,4-4.61,6l-.81,1q-1.09,1.39-2.22,2.76L854,526.61l-.57.69c-.8.94-1.6,1.87-2.41,2.8q-2.82,3.32-5.72,6.53c-.75.85-1.52,1.69-2.29,2.51s-1.47,1.6-2.22,2.4q-3,3.2-5.93,6.24-2.76,2.82-5.53,5.59c-.92.91-1.84,1.82-2.76,2.71s-1.85,1.78-2.79,2.66l-2.28,2.12c-.68.65-1.36,1.28-2,1.91a449.24,449.24,0,0,1-61.76,47.47c-.86.55-1.72,1.1-2.57,1.6q-6.43,4.06-12.47,7.63l-2.41,1.4-2.36,1.37-2.33,1.34-2.23,1.29c-8.34,4.68-15.9,8.59-22.38,11.76l-1.6.8c-10.64,5.15-18.12,8.22-21,9.35l-.42.17-.61.24-.14,0h-.08l-.23-.09-.21,0-1.07-.42-.54-.23c-.87-.34-2-.8-3.37-1.38l-.46-.18c-1.76-.8-3.89-1.67-6.33-2.77l-1.39-.61a442.25,442.25,0,0,1-39.75-20.6c-.8-.44-1.6-.92-2.35-1.38a474,474,0,0,1-44.78-30l-2.63-2c-1-.75-2-1.51-2.94-2.29l-2.81-2.21c-6.19-4.92-12.43-10.15-18.64-15.69L558.08,566q-2.31-2.05-4.59-4.2l-1.67-1.57L550,558.54l-2-1.94c-1.12-1.07-2.23-2.17-3.33-3.27-.85-.79-1.69-1.66-2.52-2.5l-.24-.26c-.84-.83-1.67-1.67-2.5-2.51-.66-.68-1.32-1.36-2-2l-2-2.06-.13-.15-2.1-2.25q-3.36-3.6-6.66-7.36c-.68-.79-1.36-1.54-2.05-2.34-.57-.65-1.12-1.29-1.66-1.94q-1-1.2-2-2.4-4.28-5.1-8.39-10.48c-.76-1-1.5-1.93-2.24-2.92-1.89-2.47-3.73-5-5.57-7.55-.55-.8-1.12-1.59-1.68-2.39-.13-.16-.24-.34-.36-.5-.59-.86-1.19-1.7-1.77-2.56-.94-1.38-1.89-2.77-2.81-4.17-.74-1.09-1.47-2.2-2.19-3.31a1,1,0,0,0-.15-.24l-2.22-3.48-.22-.36c-.7-1.14-1.41-2.27-2.1-3.4s-1.49-2.46-2.21-3.71-1.43-2.39-2.13-3.67q-4.61-8-8.77-16.46c-.35-.69-.69-1.38-1-2.09-.22-.44-.44-.88-.65-1.35-.43-.87-.8-1.74-1.25-2.63a25.91,25.91,0,0,1-1.15-2.47l-.23-.48c-.27-.58-.53-1.16-.81-1.75l-.26-.57c-.27-.59-.52-1.19-.8-1.78q-1.44-3.25-2.79-6.57c-.42-1-.8-2-1.23-3.08-.1-.25-.21-.52-.31-.79-.4-1-.8-2-1.16-3s-.69-1.82-1-2.74l-.24-.65c-.17-.44-.33-.91-.49-1.35q-1-2.7-1.9-5.44c-.21-.6-.4-1.2-.6-1.8-.26-.8-.51-1.54-.75-2.32-.14-.41-.27-.8-.4-1.22-.25-.8-.49-1.59-.75-2.39-.31-1-.61-2.06-.92-3.11-.19-.64-.39-1.28-.57-1.95-.37-1.29-.74-2.58-1.09-3.89-.19-.68-.37-1.35-.55-2-.13-.5-.27-1-.4-1.51-.32-1.22-.62-2.45-.92-3.7-.18-.7-.34-1.4-.52-2.11-.07-.28-.13-.56-.19-.85-.37-1.55-.72-3.11-1.07-4.69-.26-1.16-.5-2.33-.74-3.5-.13-.71-.29-1.43-.42-2.14s-.32-1.59-.48-2.45a1.86,1.86,0,0,0-.09-.47c-.16-.8-.3-1.64-.45-2.48s-.32-1.84-.48-2.77-.29-1.8-.45-2.71q-.57-3.7-1.07-7.47c-.17-1.23-.33-2.47-.48-3.71A312.7,312.7,0,0,1,447,328.58V122.76Z"
       transform="translate(-445.5 -121.26)"
       id="path30259" />
  </g>
  <path
     id="shine"
     d="M 1.6600022,0.963123 V 207.34 c 0,229.66454 239.9199978,319.6031 239.9199978,319.6031 0,0 239.92,-89.93856 239.92,-319.6031 V 0.963123 Z"
     style="fill:url(#rg);stroke:#000000;stroke-width:2.41218" />
</svg>
