<?xml version="1.0" encoding="UTF-8" standalone="no"?>
<svg
   viewBox="0 0 483 527.48"
   version="1.1"
   id="svg30943"
   sodipodi:docname="House Tarly.svg"
   inkscape:version="1.2.1 (9c6d41e410, 2022-07-14)"
   xmlns:inkscape="http://www.inkscape.org/namespaces/inkscape"
   xmlns:sodipodi="http://sodipodi.sourceforge.net/DTD/sodipodi-0.dtd"
   xmlns="http://www.w3.org/2000/svg"
   xmlns:svg="http://www.w3.org/2000/svg">
  <sodipodi:namedview
     id="namedview30945"
     pagecolor="#ffffff"
     bordercolor="#000000"
     borderopacity="0.25"
     inkscape:showpageshadow="2"
     inkscape:pageopacity="0.0"
     inkscape:pagecheckerboard="0"
     inkscape:deskcolor="#d1d1d1"
     showgrid="false"
     inkscape:zoom="0.79339504"
     inkscape:cx="112.17615"
     inkscape:cy="296.19545"
     inkscape:window-width="1920"
     inkscape:window-height="1017"
     inkscape:window-x="-8"
     inkscape:window-y="-8"
     inkscape:window-maximized="1"
     inkscape:current-layer="svg30943" />
  <defs
     id="defs30837">
    <style
       id="style30835">.cls-1{fill:#626b1f;}.cls-2{fill:#54110b;stroke-miterlimit:10;}.cls-2,.cls-3,.cls-4,.cls-5{stroke:#000;}.cls-3{fill:#c82519;}.cls-3,.cls-4{stroke-linecap:round;stroke-linejoin:round;}.cls-4,.cls-5{fill:none;}.cls-5{stroke-width:3px;}</style>
    <radialGradient
       id="rg"
       gradientUnits="userSpaceOnUse"
       cx="220"
       cy="220"
       r="405"
       gradientTransform="matrix(0.80510068,0,0,0.80302287,-0.03015744,-0.92201209)">
      <stop
         style="stop-color:#ffffff;stop-opacity:.3"
         offset="0"
         id="stop753" />
      <stop
         style="stop-color:#ffffff;stop-opacity:.2"
         offset=".2"
         id="stop755" />
      <stop
         style="stop-color:#666666;stop-opacity:.1"
         offset=".6"
         id="stop757" />
      <stop
         style="stop-color:#000000;stop-opacity:.13"
         offset="1"
         id="stop759" />
    </radialGradient>
  </defs>
  <title
     id="title30839">House Tarly</title>
  <g
     id="Layer_2"
     data-name="Layer 2">
    <path
       class="cls-1"
       d="M927,122.76V328.6a314.37,314.37,0,0,1-2.28,38c-.11.93-.24,1.86-.36,2.79s-.24,1.86-.39,2.79q-.7,5.05-1.61,10c-.07.44-.15.87-.23,1.31-.15.8-.29,1.6-.45,2.39s-.34,1.8-.51,2.69l-.45,2.22-.24,1.16c-.15.71-.3,1.44-.47,2.15q-.8,3.55-1.61,7l-.58,2.32-.52,2q-1.52,5.88-3.27,11.61c-.29,1-.59,1.94-.9,2.92l-.6,1.88c-.19.63-.39,1.25-.6,1.86l-1.1,3.26c-.37,1.09-.68,2-1,3-.47,1.28-.92,2.55-1.39,3.81-.36,1-.73,2-1.11,3l-.19.49c-.43,1.14-.87,2.25-1.32,3.37s-.87,2.16-1.32,3.19a3.35,3.35,0,0,1-.18.42c-.4,1-.8,2-1.25,3s-.75,1.75-1.13,2.62l-.66,1.49c-.47,1.07-.95,2.12-1.44,3.15s-.9,2-1.36,2.93l-1,2.12c-.3.63-.6,1.25-.91,1.88-.63,1.32-1.31,2.64-2,4q-2.53,5-5.19,9.77l-2,3.57-.11.21q-2.13,3.71-4.33,7.33c-.71,1.2-1.46,2.39-2.18,3.54-.1.16-.19.31-.3.46-.55.89-1.12,1.78-1.69,2.66l-.66,1c-.65,1-1.31,2-2,3l-.13.18c-.66,1-1.32,2-2,3l-.45.67q-2.26,3.28-4.54,6.46l-.31.42c-.8,1.07-1.54,2.14-2.31,3.19s-1.66,2.23-2.5,3.32q-2.29,3-4.61,6l-.8,1c-.73.93-1.48,1.85-2.22,2.76L854,526.61l-.57.69L851,530.1q-2.83,3.32-5.72,6.53c-.75.85-1.52,1.69-2.29,2.51l-2.22,2.39q-3,3.19-5.93,6.24-2.76,2.83-5.53,5.59c-.91.91-1.84,1.82-2.76,2.71s-1.85,1.78-2.78,2.67l-2.28,2.11c-.68.65-1.36,1.28-2.05,1.91a448.64,448.64,0,0,1-61.76,47.47c-.86.55-1.73,1.1-2.58,1.6q-6.42,4.07-12.46,7.63l-2.41,1.4-2.36,1.36-2.34,1.35-2.22,1.28c-8.35,4.68-15.91,8.59-22.38,11.76l-1.61.8c-10.63,5.15-18.11,8.22-21,9.35l-.42.18-.61.23-.14.06h-.08l-.23-.1-.21,0-1.07-.42-.55-.23c-.87-.34-2-.8-3.36-1.38l-.47-.18c-1.76-.8-3.88-1.67-6.33-2.77l-1.39-.61a443.16,443.16,0,0,1-39.74-20.6c-.8-.45-1.61-.92-2.36-1.38a473.14,473.14,0,0,1-44.78-30l-2.62-2c-1-.75-2-1.52-2.95-2.29l-2.81-2.21c-6.19-4.92-12.43-10.15-18.64-15.69L558.08,566q-2.3-2.05-4.59-4.2l-1.67-1.57L550,558.54l-2-1.94c-1.12-1.07-2.24-2.16-3.34-3.26-.84-.8-1.69-1.67-2.52-2.51l-.24-.26q-1.25-1.25-2.5-2.51c-.66-.68-1.32-1.36-2-2l-2-2.07-.13-.15-2.1-2.24q-3.36-3.61-6.66-7.36c-.68-.8-1.36-1.55-2-2.35-.57-.65-1.12-1.28-1.66-1.94l-2-2.39q-4.26-5.11-8.39-10.48-1.13-1.45-2.24-2.92c-1.89-2.47-3.73-5-5.57-7.55l-1.68-2.39c-.13-.16-.24-.34-.36-.5-.59-.85-1.19-1.7-1.77-2.55-.95-1.38-1.89-2.77-2.82-4.17q-1.11-1.64-2.18-3.31l-.15-.24-2.22-3.47c-.07-.13-.15-.24-.22-.37-.71-1.14-1.41-2.27-2.1-3.4s-1.49-2.46-2.21-3.7-1.44-2.39-2.13-3.67q-4.6-8-8.77-16.47c-.35-.69-.69-1.38-1-2.08-.22-.44-.44-.89-.65-1.35-.43-.87-.8-1.75-1.25-2.63a27.17,27.17,0,0,1-1.15-2.47l-.23-.48c-.26-.58-.52-1.16-.8-1.75l-.26-.57c-.26-.58-.52-1.18-.8-1.77q-1.44-3.26-2.78-6.58c-.42-1-.8-2-1.23-3.07-.1-.26-.21-.53-.31-.8-.4-1-.8-2-1.16-3s-.68-1.82-1-2.74l-.23-.65c-.18-.45-.34-.91-.5-1.36q-1-2.69-1.89-5.44c-.21-.6-.4-1.21-.6-1.8-.26-.8-.51-1.54-.75-2.31-.14-.42-.26-.8-.39-1.22-.26-.8-.5-1.6-.75-2.39-.31-1-.61-2.06-.92-3.1-.18-.65-.39-1.28-.57-2-.37-1.28-.74-2.58-1.08-3.89-.19-.68-.37-1.35-.55-2-.13-.5-.26-1-.39-1.51-.32-1.22-.63-2.46-.92-3.7-.18-.7-.35-1.4-.52-2.11-.07-.29-.13-.57-.19-.85-.37-1.55-.71-3.11-1.07-4.69-.26-1.16-.5-2.33-.74-3.5-.14-.71-.29-1.43-.43-2.14s-.32-1.6-.47-2.45a2.13,2.13,0,0,0-.1-.47c-.15-.8-.3-1.64-.45-2.48s-.31-1.84-.47-2.77-.3-1.8-.45-2.71q-.87-5.52-1.56-11.17A314.73,314.73,0,0,1,447,328.58V122.76Z"
       transform="translate(-445.5 -121.26)"
       id="path30841" />
  </g>
  <g
     id="Layer_9"
     data-name="Layer 9">
    <path
       class="cls-2"
       d="M732.83,370.7s5.25-19.87,6.83-24.29c0,0,2.83-1.25,2.25,2.25s-5.75,22.07-5.75,22.07Z"
       transform="translate(-445.5 -121.26)"
       id="path30844" />
    <path
       class="cls-2"
       d="M723.08,369.83s1.51-15.75,4.26-23.3a3.24,3.24,0,0,1,1.57-1.83c.77-.38,1.52.27,1.43,2.21-.17,3.5-4.73,23.29-4.73,23.29l-2.52-.37"
       transform="translate(-445.5 -121.26)"
       id="path30846" />
    <path
       class="cls-2"
       d="M719.24,368.85s1.1-21.73,3-24.24,1.67,1,1.67,1-1.9,17.89-2.82,23.79-1.86-.56-1.86-.56"
       transform="translate(-445.5 -121.26)"
       id="path30848" />
  </g>
  <g
     id="Layer_5"
     data-name="Layer 5">
    <path
       class="cls-3"
       d="M775.25,517.12c-2.63-1.12-8.75-12.12-11.13-20.5s-19.62-50.87-19.62-50.87,3.12-1.37,3-2.75-4.26-11.11-13.6-26.72c-.14-.22-.27-.44-.4-.66-9.62-16-12.75-40.87-15.12-47.12s-7.26-2.38-5.88-15.75-4-9.75-2.25-16.5a28,28,0,0,0,.25-12.63l19.62-.24c10.63-3.38,14-11.5,14-11.5,12.5-4.13,19-13.76,18.5-14.76s-7.87-7.87-16.12-9.87-40.38-1.13-43.5-1.13c-1.68,0-3.65-1.16-5.82-2.46a29.91,29.91,0,0,0-5.93-3C686.75,279.12,680,283,680,283l-16-5-86.46-27.2c5.11-27.77,4-20.91,16.38-46.63,11.08-23,35.24-43.37,38.5-46.5s2.24-5.37-.88-5.24-4.25,2.5-19.88,16.87-20.68,27.25-20.68,27.25c-6.82,10.56-10.32,19.44-15.06,31.88s-4.82,21.06-4.82,21.06a25.87,25.87,0,0,0-2.12-2.81,6.36,6.36,0,0,0-4-2.17c-5.24-.68-14.45.1-14.45.1s12,9.82,15.86,8.13,4.26,0,4.26,0c-3.43,2-1.43,5.43-1.43,5.43-2.38,1.07-1.57,4.57-1.57,4.57-2.24,1.5-.81,4.31-.81,4.31-.43,3.44.69,4.75.69,4.75a90.89,90.89,0,0,0,3,31c4.62,17,29.46,62.65,34.88,66,2.62,1.63,4.29-.11,4.51-1.49a4.44,4.44,0,0,0-.91-3.36c-17.56-23.34-28.77-52.74-31.73-64.57-3-12-2.25-25.08-2.25-25.08,9.75,4.13,13.12,5.63,16,8.63s3.5,3.24,6.25,4.12,35.87,20.75,35.87,20.75c24.5,20.13,9.63,6.87,19.38,35.63s12.5,21.37,11.75,23.37-1,4.63-.13,5.75a16.35,16.35,0,0,1,1.63,2.75c-12.13,21-14,33.87-20.75,48.75s-5.5,20.5-5.5,20.5-4,10.12-7.25,32.12C630.1,491.18,627,505.07,624,513a32.54,32.54,0,0,1-11.84,15.35c-10.13,7-19.35,3.7-22.16,6-1.81,1.5-1.53,2.86-.8,3.86a4.25,4.25,0,0,0,3.43,1.61H616.2a4.39,4.39,0,0,0,2-.49c11.86-6,12.69.67,17.44,1.89a6.29,6.29,0,0,0,3.29,0,6.36,6.36,0,0,0,4.46-6.57C643,527.4,642,523,642,519.75c0-3.63-2.38-14.37,8.38-30.37s17.06-37,17.06-37c14.19,3.5,35.94,1.12,35.94,1.12-3.63,24.88,7.12,24.12,14.12,22.12s6.5-10.74,6.5-10.74,1.38,4.74,19.5,29.37S756.88,525,756.88,525c-7,10.25-17.26,11-21.13,12s-4.25,5.25-1.63,5.62,21.88-2,24.76-2.37,4.87-2.75,13.62-3.13,11.75-5.37,11.88-8.5S777.88,518.25,775.25,517.12ZM653.75,284.67c-4,1.58-59.58-15.09-62.83-20.75a23.91,23.91,0,0,0-7.17-8.09L661,279.92C654.67,282.42,657.75,283.08,653.75,284.67Z"
       transform="translate(-445.5 -121.26)"
       id="path30851" />
    <path
       class="cls-3"
       d="M739.75,389.38c-2.87,9.56-5.62,25.51-5.85,26.9-.14-.22-.27-.44-.4-.66-9.62-16-12.75-40.87-15.12-47.12,6.63,3,22.74,2.12,22.74,2.12A44.09,44.09,0,0,1,739.75,389.38Z"
       transform="translate(-445.5 -121.26)"
       id="path30853" />
    <path
       class="cls-3"
       d="M735,362.44s-2.42-4.38-1.24-11.69,5.11-2,5.11-2Z"
       transform="translate(-445.5 -121.26)"
       id="path30855" />
    <path
       class="cls-3"
       d="M738.18,363.4s4.95-2.15,6.2-7.34,3-7.19-2.38-7.37Z"
       transform="translate(-445.5 -121.26)"
       id="path30857" />
    <path
       class="cls-3"
       d="M727.13,363.4s5.5-2,6.37-9.59-3.19-7.69-3.19-7.69Z"
       transform="translate(-445.5 -121.26)"
       id="path30859" />
    <path
       class="cls-3"
       d="M719.24,362.44s-3.55-5.07-2.61-10.76,2.7-6.76,5.16-6.07Z"
       transform="translate(-445.5 -121.26)"
       id="path30861" />
    <path
       class="cls-3"
       d="M723.93,361.31s-1.46-.41-.85-5.27,1.24-10.61,1.24-10.61,2.34-1.5,3.52.19C727.83,345.62,724.57,354.75,723.93,361.31Z"
       transform="translate(-445.5 -121.26)"
       id="path30863" />
    <line
       class="cls-3"
       x1="125.56"
       y1="128.18"
       x2="132"
       y2="129.49"
       id="line30865" />
  </g>
  <g
     id="Layer_7"
     data-name="Layer 7">
    <path
       class="cls-3"
       d="M711,273s-3.38,4.88-13.38,6.88l-.44,3.78a29.91,29.91,0,0,0-5.93-3C686.75,279.12,680,283,680,283l-16-5-.58-.45s3-2.88,2.12-9.12c0,0-4.12-2.38-6.25-1.63,0,0,4.37-16,9.25-24.75a51,51,0,0,1,20.38-19.88s12.5,11.38,15.5,24.13S708,267.5,711,273Z"
       transform="translate(-445.5 -121.26)"
       id="path30868" />
  </g>
  <g
     id="Layer_8"
     data-name="Layer 8">
    <path
       class="cls-4"
       d="M668.5,242s13.26,2.2,19.35,2.49a2,2,0,0,1,1.93,2.3c-1.34,11.16,1.47,33.83,1.47,33.83"
       transform="translate(-445.5 -121.26)"
       id="path30871" />
    <path
       class="cls-4"
       d="M687.85,244.49a162.63,162.63,0,0,0,17,3.6"
       transform="translate(-445.5 -121.26)"
       id="path30873" />
    <path
       class="cls-4"
       d="M672.15,236.43a227.1,227.1,0,0,1,30.68,5.07"
       transform="translate(-445.5 -121.26)"
       id="path30875" />
    <path
       class="cls-4"
       d="M672.15,250.58s5.08.22,3,3.5C673.48,256.75,670.14,251.83,672.15,250.58Z"
       transform="translate(-445.5 -121.26)"
       id="path30877" />
    <path
       class="cls-4"
       d="M672.15,250.58s-6.32,1.33-3.65,12.75a5.46,5.46,0,0,0,3.65,4.25c3.35,1.25,6.6,5,8.35,3.83s3.78-2.92,7.35-3.08"
       transform="translate(-445.5 -121.26)"
       id="path30879" />
    <path
       class="cls-4"
       d="M665.5,268.38a9.25,9.25,0,0,0,6.65-.8"
       transform="translate(-445.5 -121.26)"
       id="path30881" />
    <path
       class="cls-4"
       d="M665.32,273.58s4.82-.25,6.83,4"
       transform="translate(-445.5 -121.26)"
       id="path30883" />
    <path
       class="cls-4"
       d="M660.54,279.78s10.45,2.47,15.12,5.56c0,0-.67,3.83-6.83,4S656,288,654.37,284.41"
       transform="translate(-445.5 -121.26)"
       id="path30885" />
    <path
       class="cls-4"
       d="M680,283c-5.91,3.47-1.51,8.58.55,10.53a.39.39,0,0,0,.65-.35c-.46-2.6-.82-8.81,5.8-10.18"
       transform="translate(-445.5 -121.26)"
       id="path30887" />
    <line
       class="cls-4"
       x1="230.16"
       y1="164.07"
       x2="231.64"
       y2="164.85"
       id="line30889" />
    <path
       class="cls-4"
       d="M681.2,293.18s.28,2.15,3.36,2.35a1,1,0,0,0,1.1-1.22c-.52-2.64-1.13-8.82,4.22-9.75"
       transform="translate(-445.5 -121.26)"
       id="path30891" />
    <path
       class="cls-4"
       d="M685.54,292.5a18.1,18.1,0,0,0,4,3.66.87.87,0,0,0,1.35-.79,4.52,4.52,0,0,0-1-2.87c-1.31-1.19.06-3.31,1.38-2.81s1.56,4.88,11.88,5.85"
       transform="translate(-445.5 -121.26)"
       id="path30893" />
    <path
       class="cls-4"
       d="M690.73,296a5.27,5.27,0,0,0,5.14,2.78c3.81-.19,8.08-.55,11.64,2.17,3.38,2.58,12.36,4.39,12.36,4.39s-.19-8.67,11.19-19.27"
       transform="translate(-445.5 -121.26)"
       id="path30895" />
    <path
       class="cls-4"
       d="M719.88,305.31a171,171,0,0,0,24.62,6.44"
       transform="translate(-445.5 -121.26)"
       id="path30897" />
    <path
       class="cls-4"
       d="M710.5,323.62s-4.44-1.32-6.87,0c0,0,.18-8.72,7.74-20.73"
       transform="translate(-445.5 -121.26)"
       id="path30899" />
    <path
       class="cls-4"
       d="M597.25,287s-2.32-9.43,7-16.15"
       transform="translate(-445.5 -121.26)"
       id="path30901" />
    <line
       class="cls-4"
       x1="124.95"
       y1="131.53"
       x2="138.43"
       y2="134.69"
       id="line30903" />
    <path
       class="cls-4"
       d="M567.5,271.75s5.58-.92,6.5,0a4.33,4.33,0,0,1,1,2.5"
       transform="translate(-445.5 -121.26)"
       id="path30905" />
    <path
       class="cls-4"
       d="M574,271.75s0-8.75,4.5-12a10.84,10.84,0,0,1,2.33,4.92c.42,2.75,1.75,2.42,1.75,2.42"
       transform="translate(-445.5 -121.26)"
       id="path30907" />
    <path
       class="cls-4"
       d="M578.5,259.75a79.74,79.74,0,0,1-9.1-6.06"
       transform="translate(-445.5 -121.26)"
       id="path30909" />
    <path
       class="cls-4"
       d="M569.19,258.12s3.91,2.29,7,4.24"
       transform="translate(-445.5 -121.26)"
       id="path30911" />
    <path
       class="cls-4"
       d="M567.62,262.69a38.69,38.69,0,0,1,7.38,2.6"
       transform="translate(-445.5 -121.26)"
       id="path30913" />
    <path
       class="cls-4"
       d="M566.81,267a51.87,51.87,0,0,1,7.33,2.63"
       transform="translate(-445.5 -121.26)"
       id="path30915" />
    <path
       class="cls-4"
       d="M725.42,415.42s10.83,15.83,13.42,24.5c0,0-51.83,20.21-95.21-1.92"
       transform="translate(-445.5 -121.26)"
       id="path30917" />
    <path
       class="cls-4"
       d="M663.25,410.13s6.17,11.42,10,13.13c4.19,1.87,11.71,16.4,11.38,17.88"
       transform="translate(-445.5 -121.26)"
       id="path30919" />
    <path
       class="cls-4"
       d="M661.5,400.38a3.45,3.45,0,0,0,.88,3"
       transform="translate(-445.5 -121.26)"
       id="path30921" />
    <path
       class="cls-4"
       d="M709,408.63s1-9.5,5.5-14.5,6.6-14.72,6.6-14.72"
       transform="translate(-445.5 -121.26)"
       id="path30923" />
    <path
       class="cls-4"
       d="M639.5,444.5s8.51,1.89,27.94,7.88"
       transform="translate(-445.5 -121.26)"
       id="path30925" />
    <path
       class="cls-4"
       d="M703.38,453.5s12.12-.87,15.24-1.75,17.88-5.75,25.88-6"
       transform="translate(-445.5 -121.26)"
       id="path30927" />
    <path
       class="cls-4"
       d="M717.62,452s3.64,8.21,6.63,13.52"
       transform="translate(-445.5 -121.26)"
       id="path30929" />
    <path
       class="cls-4"
       d="M689.88,353.5s7.25-7.75,11.25-8.87,8.83-6.88,8.83-6.88"
       transform="translate(-445.5 -121.26)"
       id="path30931" />
    <path
       class="cls-4"
       d="M664.25,366.75s11.95,2.63,21.29,1.63,26.89-14.87,26.89-14.87"
       transform="translate(-445.5 -121.26)"
       id="path30933" />
    <path
       class="cls-4"
       d="M665.75,375.25s21.29-.11,47.64-12.81"
       transform="translate(-445.5 -121.26)"
       id="path30935" />
    <path
       class="cls-4"
       d="M670.63,362.44s14.39,5,24.76,2.32"
       transform="translate(-445.5 -121.26)"
       id="path30937" />
  </g>
  <g
     id="Layer_3"
     data-name="Layer 3">
    <path
       class="cls-5"
       d="M927,122.76V328.6a313.88,313.88,0,0,1-2.28,38c-.11.93-.24,1.86-.36,2.79,0,.2,0,.4-.08.59-.09.74-.19,1.47-.31,2.2-.46,3.37-1,6.69-1.6,10-.07.44-.15.87-.23,1.31-.16.8-.29,1.6-.45,2.4s-.34,1.79-.51,2.69l-.45,2.22-.24,1.15c-.15.71-.3,1.44-.46,2.15-.54,2.37-1.07,4.71-1.61,7l-.58,2.32-.52,2q-1.53,5.88-3.27,11.61c-.29,1-.59,1.94-.9,2.92l-.6,1.88c-.2.63-.4,1.24-.61,1.86-.37,1.09-.73,2.17-1.1,3.25s-.68,2-1,3c-.47,1.28-.93,2.56-1.39,3.81-.36,1-.73,2-1.11,3l-.19.5c-.43,1.14-.87,2.25-1.32,3.36s-.87,2.17-1.31,3.2c0,.15-.12.28-.18.42-.4,1-.8,2-1.25,3s-.76,1.75-1.13,2.62l-.66,1.49c-.48,1.07-1,2.11-1.44,3.15s-.9,2-1.36,2.93l-1,2.12c-.29.63-.6,1.25-.91,1.87-.63,1.33-1.31,2.64-2,4q-2.52,5-5.19,9.77l-2,3.57-.12.21c-1.42,2.47-2.86,4.92-4.33,7.33-.71,1.2-1.46,2.4-2.18,3.54-.11.16-.2.32-.3.47-.55.89-1.12,1.78-1.69,2.66l-.65,1c-.65,1-1.31,2-2,3l-.13.18c-.65,1-1.31,2-2,3l-.45.67q-2.25,3.29-4.54,6.46l-.31.43c-.8,1.07-1.54,2.14-2.31,3.19s-1.66,2.23-2.5,3.32c-1.52,2-3.06,4-4.61,6l-.81,1q-1.09,1.39-2.22,2.76L854,526.61l-.57.69c-.8.94-1.6,1.87-2.41,2.8q-2.82,3.32-5.72,6.53c-.75.85-1.52,1.69-2.29,2.51s-1.47,1.6-2.22,2.4q-3,3.2-5.93,6.24-2.76,2.82-5.53,5.59c-.92.91-1.84,1.82-2.76,2.71s-1.85,1.78-2.79,2.66l-2.28,2.12c-.68.65-1.36,1.28-2,1.91a449.24,449.24,0,0,1-61.76,47.47c-.86.55-1.72,1.1-2.57,1.6q-6.43,4.06-12.47,7.63l-2.41,1.4-2.36,1.37-2.33,1.34-2.23,1.29c-8.34,4.68-15.9,8.59-22.38,11.76l-1.6.8c-10.64,5.15-18.12,8.22-21,9.35l-.42.17-.61.24-.14,0h-.08l-.23-.09-.21,0-1.07-.42-.54-.23c-.87-.34-2-.8-3.37-1.38l-.46-.18c-1.76-.8-3.89-1.67-6.33-2.77l-1.39-.61a442.25,442.25,0,0,1-39.75-20.6c-.8-.44-1.6-.92-2.35-1.38a474,474,0,0,1-44.78-30l-2.63-2c-1-.75-2-1.51-2.94-2.29l-2.81-2.21c-6.19-4.92-12.43-10.15-18.64-15.69L558.08,566q-2.31-2.05-4.59-4.2l-1.67-1.57L550,558.54l-2-1.94c-1.12-1.07-2.23-2.17-3.33-3.27-.85-.79-1.69-1.66-2.52-2.5l-.24-.26c-.84-.83-1.67-1.67-2.5-2.51-.66-.68-1.32-1.36-2-2l-2-2.06-.13-.15-2.1-2.25q-3.36-3.6-6.66-7.36c-.68-.79-1.36-1.54-2.05-2.34-.57-.65-1.12-1.29-1.66-1.94q-1-1.2-2-2.4-4.28-5.1-8.39-10.48c-.76-1-1.5-1.93-2.24-2.92-1.89-2.47-3.73-5-5.57-7.55-.55-.8-1.12-1.59-1.68-2.39-.13-.16-.24-.34-.36-.5-.59-.86-1.19-1.7-1.77-2.56-.94-1.38-1.89-2.77-2.81-4.17-.74-1.09-1.47-2.2-2.19-3.31a1,1,0,0,0-.15-.24l-2.22-3.48-.22-.36c-.7-1.14-1.41-2.27-2.1-3.4s-1.49-2.46-2.21-3.71-1.43-2.39-2.13-3.67q-4.61-8-8.77-16.46c-.35-.69-.69-1.38-1-2.09-.22-.44-.44-.88-.65-1.35-.43-.87-.8-1.74-1.25-2.63a25.91,25.91,0,0,1-1.15-2.47l-.23-.48c-.27-.58-.53-1.16-.81-1.75l-.26-.57c-.27-.59-.52-1.19-.8-1.78q-1.44-3.25-2.79-6.57c-.42-1-.8-2-1.23-3.08-.1-.25-.21-.52-.31-.79-.4-1-.8-2-1.16-3s-.69-1.82-1-2.74l-.24-.65c-.17-.44-.33-.91-.49-1.35q-1-2.7-1.9-5.44c-.21-.6-.4-1.2-.6-1.8-.26-.8-.51-1.54-.75-2.32-.14-.41-.27-.8-.4-1.22-.25-.8-.49-1.59-.75-2.39-.31-1-.61-2.06-.92-3.11-.19-.64-.39-1.28-.57-1.95-.37-1.29-.74-2.58-1.09-3.89-.19-.68-.37-1.35-.55-2-.13-.5-.27-1-.4-1.51-.32-1.22-.62-2.45-.92-3.7-.18-.7-.34-1.4-.52-2.11-.07-.28-.13-.56-.19-.85-.37-1.55-.72-3.11-1.07-4.69-.26-1.16-.5-2.33-.74-3.5-.13-.71-.29-1.43-.42-2.14s-.32-1.59-.48-2.45a1.86,1.86,0,0,0-.09-.47c-.16-.8-.3-1.64-.45-2.48s-.32-1.84-.48-2.77-.29-1.8-.45-2.71q-.57-3.7-1.07-7.47c-.17-1.23-.33-2.47-.48-3.71A312.7,312.7,0,0,1,447,328.58V122.76Z"
       transform="translate(-445.5 -121.26)"
       id="path30940" />
  </g>
  <path
     id="shine"
     d="M 1.5800438,0.68403291 V 207.06091 c 0,229.66455 239.9199962,319.6031 239.9199962,319.6031 0,0 239.92,-89.93856 239.92,-319.6031 V 0.68403291 Z"
     style="fill:url(#rg);stroke:#000000;stroke-width:2.41218" />
</svg>
