<?xml version="1.0" encoding="UTF-8" standalone="no"?>
<svg
   viewBox="0 0 483 527.48"
   version="1.1"
   id="svg2208"
   sodipodi:docname="House Tarth GoT.svg"
   inkscape:version="1.2.1 (9c6d41e410, 2022-07-14)"
   xmlns:inkscape="http://www.inkscape.org/namespaces/inkscape"
   xmlns:sodipodi="http://sodipodi.sourceforge.net/DTD/sodipodi-0.dtd"
   xmlns="http://www.w3.org/2000/svg"
   xmlns:svg="http://www.w3.org/2000/svg">
  <sodipodi:namedview
     id="namedview2210"
     pagecolor="#ffffff"
     bordercolor="#000000"
     borderopacity="0.25"
     inkscape:showpageshadow="2"
     inkscape:pageopacity="0.0"
     inkscape:pagecheckerboard="0"
     inkscape:deskcolor="#d1d1d1"
     showgrid="false"
     inkscape:zoom="1.12203"
     inkscape:cx="220.13671"
     inkscape:cy="213.89802"
     inkscape:window-width="1920"
     inkscape:window-height="1017"
     inkscape:window-x="-8"
     inkscape:window-y="-8"
     inkscape:window-maximized="1"
     inkscape:current-layer="svg2208" />
  <defs
     id="defs2182">
    <style
       id="style2180">.cls-1{fill:#ad432f;}.cls-2{fill:#21224f;}.cls-3{fill:#dcd023;}.cls-4{fill:#d8d7dd;}.cls-5{fill:none;stroke:#000;stroke-width:3px;}</style>
    <radialGradient
       id="rg"
       gradientUnits="userSpaceOnUse"
       cx="220"
       cy="220"
       r="405"
       gradientTransform="matrix(0.80510068,0,0,0.80302287,-0.030201,-0.9020136)">
      <stop
         style="stop-color:#ffffff;stop-opacity:.3"
         offset="0"
         id="stop753" />
      <stop
         style="stop-color:#ffffff;stop-opacity:.2"
         offset=".2"
         id="stop755" />
      <stop
         style="stop-color:#666666;stop-opacity:.1"
         offset=".6"
         id="stop757" />
      <stop
         style="stop-color:#000000;stop-opacity:.13"
         offset="1"
         id="stop759" />
    </radialGradient>
  </defs>
  <title
     id="title2184">House Tarth</title>
  <g
     id="Layer_2"
     data-name="Layer 2">
    <path
       class="cls-1"
       d="M927,122.76V328.6a314.37,314.37,0,0,1-2.28,38c-.11.93-.24,1.86-.36,2.79s-.24,1.86-.39,2.79q-.7,5.05-1.61,10c-.07.44-.15.87-.23,1.31-.15.8-.29,1.6-.45,2.39s-.34,1.8-.51,2.69l-.45,2.22-.24,1.16c-.15.71-.3,1.44-.47,2.15q-.8,3.55-1.61,7l-.58,2.32-.52,2q-1.52,5.88-3.27,11.61c-.29,1-.59,1.94-.9,2.92l-.6,1.88c-.19.63-.39,1.25-.6,1.86l-1.1,3.26c-.37,1.09-.68,2-1,3-.47,1.28-.92,2.55-1.39,3.81-.36,1-.73,2-1.11,3l-.19.49c-.43,1.14-.87,2.25-1.32,3.37s-.87,2.16-1.32,3.19a3.35,3.35,0,0,1-.18.42c-.4,1-.8,2-1.25,3s-.75,1.75-1.13,2.62l-.66,1.49c-.47,1.07-.95,2.12-1.44,3.15s-.9,2-1.36,2.93l-1,2.12c-.3.63-.6,1.25-.91,1.88-.63,1.32-1.31,2.64-2,4q-2.53,5-5.19,9.77l-2,3.57-.11.21q-2.13,3.71-4.33,7.33c-.71,1.2-1.46,2.39-2.18,3.54-.1.16-.19.31-.3.46-.55.89-1.12,1.78-1.69,2.66l-.66,1c-.65,1-1.31,2-2,3l-.13.18c-.66,1-1.32,2-2,3l-.45.67q-2.26,3.28-4.54,6.46l-.31.42c-.8,1.07-1.54,2.14-2.31,3.19s-1.66,2.23-2.5,3.32q-2.29,3-4.61,6l-.8,1c-.73.93-1.48,1.85-2.22,2.76L854,526.61l-.57.69L851,530.1q-2.83,3.32-5.72,6.53c-.75.85-1.52,1.69-2.29,2.51l-2.22,2.39q-3,3.19-5.93,6.24-2.76,2.83-5.53,5.59c-.91.91-1.84,1.82-2.76,2.71s-1.85,1.78-2.78,2.67l-2.28,2.11c-.68.65-1.36,1.28-2.05,1.91a448.64,448.64,0,0,1-61.76,47.47c-.86.55-1.73,1.1-2.58,1.6q-6.42,4.07-12.46,7.63l-2.41,1.4-2.36,1.36-2.34,1.35-2.22,1.28c-8.35,4.68-15.91,8.59-22.38,11.76l-1.61.8c-10.63,5.15-18.11,8.22-21,9.35l-.42.18-.61.23-.14.06h-.08l-.23-.1-.21,0-1.07-.42-.55-.23c-.87-.34-2-.8-3.36-1.38l-.47-.18c-1.76-.8-3.88-1.67-6.33-2.77l-1.39-.61a443.16,443.16,0,0,1-39.74-20.6c-.8-.45-1.61-.92-2.36-1.38a473.14,473.14,0,0,1-44.78-30l-2.62-2c-1-.75-2-1.52-2.95-2.29l-2.81-2.21c-6.19-4.92-12.43-10.15-18.64-15.69L558.08,566q-2.3-2.05-4.59-4.2l-1.67-1.57L550,558.54l-2-1.94c-1.12-1.07-2.24-2.16-3.34-3.26-.84-.8-1.69-1.67-2.52-2.51l-.24-.26q-1.25-1.25-2.5-2.51c-.66-.68-1.32-1.36-2-2l-2-2.07-.13-.15-2.1-2.24q-3.36-3.61-6.66-7.36c-.68-.8-1.36-1.55-2-2.35-.57-.65-1.12-1.28-1.66-1.94l-2-2.39q-4.26-5.11-8.39-10.48-1.13-1.45-2.24-2.92c-1.89-2.47-3.73-5-5.57-7.55l-1.68-2.39c-.13-.16-.24-.34-.36-.5-.59-.85-1.19-1.7-1.77-2.55-.95-1.38-1.89-2.77-2.82-4.17q-1.11-1.64-2.18-3.31l-.15-.24-2.22-3.47c-.07-.13-.15-.24-.22-.37-.71-1.14-1.41-2.27-2.1-3.4s-1.49-2.46-2.21-3.7-1.44-2.39-2.13-3.67q-4.6-8-8.77-16.47c-.35-.69-.69-1.38-1-2.08-.22-.44-.44-.89-.65-1.35-.43-.87-.8-1.75-1.25-2.63a27.17,27.17,0,0,1-1.15-2.47l-.23-.48c-.26-.58-.52-1.16-.8-1.75l-.26-.57c-.26-.58-.52-1.18-.8-1.77q-1.44-3.26-2.78-6.58c-.42-1-.8-2-1.23-3.07-.1-.26-.21-.53-.31-.8-.4-1-.8-2-1.16-3s-.68-1.82-1-2.74l-.23-.65c-.18-.45-.34-.91-.5-1.36q-1-2.69-1.89-5.44c-.21-.6-.4-1.21-.6-1.8-.26-.8-.51-1.54-.75-2.31-.14-.42-.26-.8-.39-1.22-.26-.8-.5-1.6-.75-2.39-.31-1-.61-2.06-.92-3.1-.18-.65-.39-1.28-.57-2-.37-1.28-.74-2.58-1.08-3.89-.19-.68-.37-1.35-.55-2-.13-.5-.26-1-.39-1.51-.32-1.22-.63-2.46-.92-3.7-.18-.7-.35-1.4-.52-2.11-.07-.29-.13-.57-.19-.85-.37-1.55-.71-3.11-1.07-4.69-.26-1.16-.5-2.33-.74-3.5-.14-.71-.29-1.43-.43-2.14s-.32-1.6-.47-2.45a2.13,2.13,0,0,0-.1-.47c-.15-.8-.3-1.64-.45-2.48s-.31-1.84-.47-2.77-.3-1.8-.45-2.71q-.87-5.52-1.56-11.17A314.73,314.73,0,0,1,447,328.58V122.76Z"
       transform="translate(-445.5 -121.26)"
       id="path2186" />
  </g>
  <g
     id="Layer_4"
     data-name="Layer 4">
    <path
       class="cls-2"
       d="M925.53,359.09c-.23,2.51-.51,5-.81,7.53-.11.93-.24,1.86-.36,2.79,0,.2,0,.4-.08.59-.09.74-.19,1.47-.31,2.2-.46,3.37-1,6.69-1.6,10-.07.44-.15.87-.23,1.31-.16.8-.29,1.6-.45,2.4s-.34,1.79-.51,2.69l-.45,2.22-.24,1.15c-.15.71-.3,1.44-.46,2.15-.54,2.37-1.07,4.71-1.61,7l-.58,2.32-.52,2q-1.53,5.88-3.27,11.61c-.29,1-.59,1.94-.9,2.92l-.6,1.88c-.2.63-.4,1.24-.61,1.86-.37,1.09-.73,2.17-1.1,3.25s-.68,2-1,3c-.47,1.28-.93,2.56-1.39,3.81-.36,1-.73,2-1.11,3l-.19.5c-.43,1.14-.87,2.25-1.32,3.36s-.87,2.17-1.31,3.2c0,.15-.12.28-.18.42-.4,1-.8,2-1.25,3s-.76,1.75-1.13,2.62l-.66,1.49c-.48,1.07-1,2.11-1.44,3.15s-.9,2-1.36,2.93l-1,2.12c-.29.63-.6,1.25-.91,1.87-.63,1.33-1.31,2.64-2,4q-2.52,5-5.19,9.77l-2,3.57-.12.21c-1.42,2.47-2.86,4.92-4.33,7.33-.71,1.2-1.46,2.4-2.18,3.54-.11.16-.2.32-.3.47-.55.89-1.12,1.78-1.69,2.66l-.65,1c-.65,1-1.31,2-2,3l-.13.18c-.65,1-1.31,2-2,3l-.45.67q-2.25,3.29-4.54,6.46l-.31.43c-.8,1.07-1.54,2.14-2.31,3.19s-1.66,2.23-2.5,3.32c-1.52,2-3.06,4-4.61,6l-.81,1q-1.09,1.39-2.22,2.76L854,526.61l-.57.69c-.8.94-1.6,1.87-2.41,2.8q-2.82,3.32-5.72,6.53c-.75.85-1.52,1.69-2.29,2.51s-1.47,1.6-2.22,2.4q-3,3.2-5.93,6.24-2.76,2.82-5.53,5.59c-.92.91-1.84,1.82-2.76,2.71s-1.85,1.78-2.79,2.66l-2.28,2.12c-.68.65-1.36,1.28-2,1.91a449.24,449.24,0,0,1-61.76,47.47c-.86.55-1.72,1.1-2.57,1.6q-6.43,4.06-12.47,7.63l-2.41,1.4-2.36,1.37-2.33,1.34-2.23,1.29c-8.34,4.68-15.9,8.59-22.38,11.76l-1.6.8c-10.64,5.15-18.12,8.22-21,9.35l-.42.17-.61.24-.14,0h-.08l-.09,0V359.09Z"
       transform="translate(-445.5 -121.26)"
       id="path2189" />
    <path
       class="cls-2"
       d="M687,122.76V359.09H448.48Q447,343.88,447,328.58V122.76Z"
       transform="translate(-445.5 -121.26)"
       id="path2191" />
  </g>
  <g
     id="Layer_5"
     data-name="Layer 5">
    <path
       class="cls-3"
       d="M813.62,298.9c-8.52.45-15.37,5-22.21,9.34a34.19,34.19,0,0,1-25.26,5.09c-3.31-.59-6.1.58-9.74,2.85,15.23,3,28.46,10.75,43.94,5.66,7-2.3,14.28.45,20.84,3.93l7.56,6.21c-2.39,1.92-4.22,1-5.85.26-8.94-4.16-17.83-4.51-26.4.7-8,4.84-16.06,1.87-24.16,1a66.94,66.94,0,0,0-17.94-.09c2.75,3.17,6,2.92,8.67,4,6.91,2.89,12.94,7.3,19.42,10.92,3.78,2.11,7.62,3.53,12.07,2.9,12.2-1.73,21,4.21,28.72,12.74.56,1.18.43,2-1.12,1.89-6.49-2.2-12.27-6.16-19.35-7a38.31,38.31,0,0,0-11.56.39c-11.78,2.13-21.76-3-31.87-7.76-3.18-1.51-6.45-3.88-10.56-1.81.9,2.93,3.74,3.23,5.62,4.48,6.74,4.47,11.39,11.08,17.13,16.54,4.84,4.6,10.68,6.17,16.47,8.07,8.61,2.83,12.23,9.25,14.27,17.37-2.1.56-2.85-1-3.8-1.81-6-5-12.61-8.49-20.55-9.05-9.57-.68-17-5.53-23.38-12.22a19.89,19.89,0,0,0-12.31-6.6c7.05,6.12,10.34,12.84,13.24,20,2.09,5.18,7.11,8.18,12,10.76,10,5.25,17.52,12.56,19.51,24.28.57,1.3.83,2.73-.16,3.79-.68.73-1.49-.06-2-.77-3.33-3.86-6.32-8-10.23-11.39-4.34-3.78-8.84-7-14.41-8.65-7.47-2.14-11.79-8-16.28-13.72-3-3.74-5.86-7.54-9-11.16-1.71-2-3.82-3.64-8.17-4,6.65,6.23,6.56,13.6,7,20.93a21.92,21.92,0,0,0,8.35,16c10.58,8.59,15.11,19.67,13.82,33.19-1.9,2.33-2.48.84-2.93-1-4.13-10.13-9.27-19.54-19.06-25.37-6-3.6-9-9-10.84-15.61-1.94-7.14-4.64-14.08-10.74-19-.86-.29-1.72-1.23-2.62-.5-.43.35,0,1.17.29,1.75,2.91,6,2.47,11.92.77,18.33-1.85,7-.3,14.19,3.07,20.57,5,9.4,7.83,18.91,4.7,29.55-1.15,3.92.73,7.69,1.28,11.52a2,2,0,0,1-2.26.1c-4.52-4.4-7.42-9.9-7.11-16,.4-8-2.15-14.91-5.49-21.81-2.74-5.67-3.54-11.6-3.41-18,.12-5.84-.38-12-4.28-17.43-2.71,3.08-1.06,6.79-2.32,10.06-4.61,12-6.8,24.46-3,37.18a21.71,21.71,0,0,1-.56,15c-1.16,2.89-2.43,5.87-2.46,9.15,0,2-1.54,2.59-3.3,2.64a18.69,18.69,0,0,1-1.16-15.87c2.25-6,.53-11.64-1.31-17-3.37-9.89-2.7-19.13,1.31-28.74,1.47-3.51.24-8.15.24-13.75-4.83,4.55-5,9.67-7.39,13.57-.82,1.34-.92,3.16-1.86,4.37a39.7,39.7,0,0,0-8.51,24.52c-.21,10-6.52,17.63-13.41,24.49-2.2.82-3,.28-2-2,2.16-5.43,4.35-10.85,6.45-16.3a29.7,29.7,0,0,0,1.49-15.15,57.07,57.07,0,0,1-.4-12.2c.32-4.27,1.75-8.2,5.28-11.23,4.75-4.07,5-9.92,5.19-15.61a5.17,5.17,0,0,0-2.35-4.55c-2.73,1.8-1.55,4.88-2.47,7.25-2.79,7.14-8.32,11.34-14.74,14.64-7,3.58-10.82,9.8-13.25,16.65-3,8.55-8.47,15-15.11,20.77a11.72,11.72,0,0,1-3.66,2.1c-2.15.77-5.06,1.88-6.22-.57-.89-1.89,2-2.87,3.54-3.94,5.14-3.57,8.19-8.59,10.63-14.25,3.07-7.14,4.7-14.89,9.11-21.46,2.08-3.11,4.21-6.24,7.47-8.15,4.72-2.76,7.56-6.65,8.34-12.92-9.08,7.12-19.75,10.33-29.13,16a26.53,26.53,0,0,0-9.46,10.65c-3.47,6.63-9.34,10.48-15.58,13.91-2.76,1.51-5.66,2-8.52-.3,1.33-2.42,4-3.2,6-4.15,7.78-3.63,11.7-10.41,14.32-17.74,3.18-8.89,9.07-14.61,17.4-18.17,5.27-2.25,9.47-5.5,11.89-10.78.49-1.07,1.58-2.32.47-3.42s-2.4.18-3.19.85c-6.48,5.48-13.89,7.87-22.39,8.49-8.19.59-14,6.32-19.66,11.78-2.16,2.08-4.2,4.48-6.75,5.95-4.81,2.77-8.69.39-12.7-3.51,4.44-1.34,8.67-1.09,12.33-3.64,4.6-3.21,7.15-7.88,10.09-12.2,5-7.39,11.74-11.09,20.41-12.89,5.57-1.15,10.51-4.63,13.33-12.26-9.8,4.63-18.89,2.31-27.79,3-4.54.37-8.48,2.61-12.25,4.91-8.27,5-16.73,7.23-26.33,3.91A27.23,27.23,0,0,0,551,361c3.41-3.86,6.66-4.56,10-4.28,9.42.81,17.67-1.8,25.64-6.85s16.92-8.57,26.81-9c3.77-.14,7.69-1.15,10.32-4.5-2.25-1.53-5,.14-7.27-1a35.21,35.21,0,0,1-14-2.25c-8.73-3.38-17.47-1.68-26,.35a28.2,28.2,0,0,1-14.65-.77,70.46,70.46,0,0,0-12.87-3c-1.17-.11-4.23.44-2.76-2.79,2.12-.06,4.26-.27,6.38-.16,11.43.59,22.49-.47,33.38-4.69,9.21-3.58,19-3.45,28.81-1.78a16.8,16.8,0,0,0,6.37-.44c-12.33-3.38-20.94-15.73-35.59-13.73-6.18.84-12-2.17-17.59-4.94-4.89-2.43-9.52-5.48-15-6.49-.92-.17-1.92-.43-1.8-1.5s1.05-1.32,2-1.41c3.36-.3,6.78-.66,9.93.81,10.61,5,21.6,6,33.09,4,8.11-1.44,15.8.62,23.15,4.06,1,.45,1.84,1.27,2.83,1.41,2.36.33,5.9,1.45,6.76-.71.95-2.38-2.84-2.24-4.47-3.25-3.88-2.4-6.61-5.86-9.16-9.44a21.08,21.08,0,0,0-14.32-9.1c-8.07-1.4-14.78-5.55-20.3-11.74a64.74,64.74,0,0,0-13.12-11.56c0-2.34,0-2.34,4.34-1a37.61,37.61,0,0,1,5.76,2.6,71.42,71.42,0,0,0,29.23,11.61c8.23,1.23,13.33,7.51,19.53,12,1.85,1.35,3.77,2.61,5.67,3.89,1.69,1.14,4,2.15,5.22.4,1.35-2-1.66-2.57-2.62-3.87a9.46,9.46,0,0,0-3.26-3.09c-2.94-13.09-13-20-23.36-26.48-5.26-3.27-7.61-8.78-11-13.49-2.56-3.61-4.59-7.6-8.61-9.92-.76-.44-1.73-1.07-1.23-2a3,3,0,0,1,2.17-1.2,9.69,9.69,0,0,1,7.59,3.23,116.94,116.94,0,0,0,23.38,19c2.58,1.56,5.39,2.61,7.92,4.23,4.84,3.11,9.16,6.59,11.56,12.07,1.74,4,4.77,6.71,10.37,8.7-5.12-7-5.94-13.93-6.37-21-.39-6.46-3.83-11.4-8.87-15.08-7.57-5.54-12.31-12.43-12.82-22.1a30.68,30.68,0,0,0-5.33-16.57c6.4,2.6,10.74,7.32,12.41,13.64,2.39,9,8.48,15.27,15.31,20.45A39.75,39.75,0,0,1,659.18,253c1.36,4.44,2.35,9.24,8.2,12.79-5.07-9.51-2.36-17.92-.9-26.41,1.15-6.71-2.83-12.3-4.82-18.26-2.69-8.06-5.65-15.93-3.91-24.7.67-3.38-1.45-6.52-1.66-9.87-.08-1.2-2-2.72.2-3.57,1.52-.57,2.58.78,3.56,1.8,4.12,4.27,5.34,9.92,5.21,15.25-.28,11.4,3.58,21,9.83,30.17,3.46,5.07,2.64,11.2,2.69,17,0,1.16-.47,2.49,1.26,4,2.61-7.69,6-15,4.7-23-1.94-12-1.63-23.5,3.42-34.68,1.15-.7,1.15-3.13,2.93-2.55,1.5.5,1.27,2.34,1.29,3.76a7.22,7.22,0,0,1,0,1.59c-2.19,10.06.62,19.32,3.49,28.9,1.76,5.87.5,12.66.56,19,0,3.9,0,7.79.41,11.92,3.42-6.91,9.43-11.86,13.17-18.47,2.77-4.9,3.55-10.42,3.54-15.87,0-9.84,3.93-17.39,11.76-23.1,2.6.3,1.4,1.92,1.12,3.22-2.67,6.87-2.68,13.72-2.08,21.16.89,11.06-2.77,21.63-9.27,30.87-3.4,4.84-3.56,10-2.48,16.38,4.65-5.77,7-12.33,12.75-15.71,10.09-5.94,14.64-15,17.27-26,1.87-7.82,8.54-12.32,15.6-15.74a4.51,4.51,0,0,1,2.09-.26,9.48,9.48,0,0,1,1.81.42c.23,1.78-1,2.43-1.79,3.32-5,5.58-8.89,11.17-8.89,19.61,0,9.73-5.76,17.61-12.66,24.4-2.92,2.88-6.06,5.71-6.56,10.5,6.37-6,14.82-7.9,22-12.16,4-2.39,5.52-7.39,7.2-11.55,3.89-9.68,21.5-16.59,29.48-14.82-1.41,2.57-4.14,3.31-6.3,4.6-8.27,4.93-13.59,12.16-17.21,20.88-3.35,8.08-9.38,13.54-17,17.49-4.17,2.16-8.35,4.54-8.47,10.7,6.26-5.74,14-6,21.63-7.22,7.19-1.2,13-5.5,18.37-10.22,8.19-7.21,17.89-8.86,28.32-7.92.61.05,1.17.59,2.54,1.32-7.88,2-15.26,2.92-21.37,7.5a24.15,24.15,0,0,0-5.83,6c-5.1,7.62-11.1,14.14-20.71,16.17-5.32,1.12-9.57,4.27-13.73,8.56,2.84,1.29,5.05.06,7-.43,8.45-2.13,16.91.76,25.41-.51,7.94-1.19,15.06-4.93,23-6.15a34,34,0,0,1,22,3.65c.41,2.29-1.4,1.45-2.33,1.53C821.18,298.76,817.37,298,813.62,298.9Z"
       transform="translate(-445.5 -121.26)"
       id="path2194" />
    <path
       class="cls-3"
       d="M896.37,175.52c-3,.16-5.42,1.76-7.83,3.29a12,12,0,0,1-8.9,1.79,4.7,4.7,0,0,0-3.43,1c5.36,1.06,10,3.79,15.48,2,2.46-.81,5,.16,7.34,1.38l2.66,2.19a1.68,1.68,0,0,1-2.06.09,9.36,9.36,0,0,0-9.3.25c-2.81,1.7-5.66.66-8.51.34a23.58,23.58,0,0,0-6.32,0c1,1.12,2.12,1,3.05,1.42a69.21,69.21,0,0,1,6.84,3.85,6.6,6.6,0,0,0,4.25,1c4.3-.61,7.41,1.48,10.12,4.49.2.42.15.69-.4.67-2.29-.78-4.32-2.17-6.82-2.47a13.49,13.49,0,0,0-4.07.14c-4.15.75-7.67-1-11.23-2.73-1.12-.53-2.27-1.37-3.72-.64.32,1,1.32,1.14,2,1.58,2.37,1.58,4,3.9,6,5.82,1.71,1.62,3.76,2.17,5.8,2.84,3,1,4.31,3.26,5,6.12-.74.2-1-.36-1.34-.64a12.6,12.6,0,0,0-7.24-3.19c-3.37-.24-6-1.95-8.24-4.31a7,7,0,0,0-4.34-2.32,16.94,16.94,0,0,1,4.66,7c.74,1.82,2.51,2.88,4.24,3.79,3.54,1.85,6.17,4.42,6.87,8.55a1.18,1.18,0,0,1-.05,1.33c-.24.26-.53,0-.71-.27a37.39,37.39,0,0,0-3.6-4,13.42,13.42,0,0,0-5.08-3c-2.63-.76-4.15-2.83-5.73-4.83-1-1.32-2.06-2.66-3.16-3.93a3.75,3.75,0,0,0-2.88-1.4c2.34,2.19,2.31,4.79,2.48,7.37a7.72,7.72,0,0,0,2.94,5.63,12.66,12.66,0,0,1,4.87,11.69c-.67.82-.87.3-1-.36-1.45-3.57-3.27-6.88-6.71-8.94a8.5,8.5,0,0,1-3.82-5.5c-.68-2.52-1.63-5-3.78-6.68-.3-.1-.6-.43-.92-.17-.15.12,0,.41.1.62a8.87,8.87,0,0,1,.27,6.46,10,10,0,0,0,1.08,7.25c1.75,3.31,2.76,6.66,1.66,10.41-.41,1.38.26,2.71.45,4.06a.7.7,0,0,1-.8,0,7.39,7.39,0,0,1-2.5-5.65,15.49,15.49,0,0,0-1.93-7.68,13.51,13.51,0,0,1-1.2-6.33,9.72,9.72,0,0,0-1.51-6.14c-1,1.09-.37,2.39-.82,3.54-1.62,4.21-2.4,8.62-1.06,13.1a7.65,7.65,0,0,1-.2,5.27,8.93,8.93,0,0,0-.87,3.22c0,.72-.54.91-1.16.93a6.58,6.58,0,0,1-.41-5.59c.79-2.11.19-4.1-.46-6a13.64,13.64,0,0,1,.46-10.13c.52-1.24.08-2.87.08-4.84-1.7,1.6-1.76,3.41-2.6,4.78-.29.47-.32,1.11-.65,1.54a14,14,0,0,0-3,8.64c-.07,3.53-2.3,6.21-4.72,8.63-.77.29-1.06.1-.71-.72.76-1.91,1.53-3.82,2.27-5.74a10.46,10.46,0,0,0,.52-5.34,20.1,20.1,0,0,1-.14-4.3,5.49,5.49,0,0,1,1.86-4c1.67-1.44,1.77-3.5,1.83-5.5a1.82,1.82,0,0,0-.83-1.6c-1,.63-.55,1.72-.87,2.55a9.94,9.94,0,0,1-5.19,5.16,9.9,9.9,0,0,0-4.67,5.87,17.28,17.28,0,0,1-5.32,7.32,4.13,4.13,0,0,1-1.29.74c-.76.27-1.78.66-2.19-.2-.31-.66.71-1,1.25-1.39a11.09,11.09,0,0,0,3.74-5c1.08-2.51,1.66-5.24,3.21-7.56a8.65,8.65,0,0,1,2.63-2.87,5.67,5.67,0,0,0,2.94-4.55c-3.2,2.51-7,3.64-10.26,5.62a9.35,9.35,0,0,0-3.33,3.75c-1.22,2.34-3.29,3.69-5.49,4.9a2.49,2.49,0,0,1-3-.11,4,4,0,0,1,2.11-1.46c2.74-1.28,4.12-3.67,5-6.25a10.52,10.52,0,0,1,6.13-6.4,7.55,7.55,0,0,0,4.19-3.8c.17-.38.56-.82.17-1.2s-.85.06-1.12.3a13.13,13.13,0,0,1-7.89,3c-2.89.21-4.93,2.23-6.92,4.15a13.3,13.3,0,0,1-2.38,2.09c-1.7,1-3.06.14-4.47-1.24,1.57-.47,3.06-.38,4.34-1.28a14.94,14.94,0,0,0,3.56-4.3,10.69,10.69,0,0,1,7.19-4.54,6.2,6.2,0,0,0,4.7-4.32c-3.45,1.63-6.65.81-9.79,1.07a10,10,0,0,0-4.32,1.73c-2.91,1.77-5.89,2.55-9.27,1.38a9.59,9.59,0,0,0-4.38-.46,3.87,3.87,0,0,1,3.52-1.51,14.11,14.11,0,0,0,9-2.41,18.86,18.86,0,0,1,9.44-3.15,4.61,4.61,0,0,0,3.64-1.59c-.79-.54-1.75.05-2.56-.37a12.4,12.4,0,0,1-4.95-.79c-3.08-1.19-6.16-.59-9.18.12a9.94,9.94,0,0,1-5.16-.27,24.82,24.82,0,0,0-4.53-1c-.41,0-1.49.16-1-1,.75,0,1.5-.1,2.25-.06a27.82,27.82,0,0,0,11.76-1.65,18.93,18.93,0,0,1,10.15-.63,5.92,5.92,0,0,0,2.24-.15c-4.34-1.19-7.38-5.54-12.54-4.83-2.18.3-4.23-.76-6.2-1.74a20.4,20.4,0,0,0-5.29-2.29c-.33-.06-.68-.15-.63-.53s.37-.47.7-.49a6.64,6.64,0,0,1,3.5.29,19,19,0,0,0,11.66,1.41,13.47,13.47,0,0,1,8.15,1.43,4,4,0,0,0,1,.5c.83.12,2.08.51,2.38-.25s-1-.79-1.58-1.15a11.56,11.56,0,0,1-3.23-3.33,7.43,7.43,0,0,0-5-3.21,12.27,12.27,0,0,1-7.15-4.13,22.8,22.8,0,0,0-4.62-4.07c0-.83,0-.83,1.53-.37a13.25,13.25,0,0,1,2,.91,25.16,25.16,0,0,0,10.3,4.09c2.9.43,4.7,2.64,6.88,4.23.65.47,1.33.92,2,1.37s1.42.76,1.84.14-.58-.91-.92-1.36a3.33,3.33,0,0,0-1.15-1.09c-1-4.61-4.56-7-8.23-9.33-1.85-1.15-2.68-3.09-3.86-4.75-.9-1.27-1.62-2.68-3-3.49-.27-.15-.61-.38-.43-.7a1.05,1.05,0,0,1,.77-.42,3.41,3.41,0,0,1,2.67,1.14,41.2,41.2,0,0,0,8.24,6.7c.91.55,1.9.92,2.79,1.49a9.84,9.84,0,0,1,4.07,4.25,5.6,5.6,0,0,0,3.65,3.06,12.83,12.83,0,0,1-2.24-7.39,7,7,0,0,0-3.12-5.31,9.93,9.93,0,0,1-4.52-7.78,10.81,10.81,0,0,0-1.88-5.84,7,7,0,0,1,4.37,4.81c.84,3.19,3,5.38,5.39,7.2a14,14,0,0,1,5.17,7.29c.48,1.57.83,3.26,2.89,4.51-1.79-3.35-.83-6.31-.32-9.3.41-2.36-1-4.33-1.7-6.43-.95-2.84-2-5.61-1.38-8.7.24-1.19-.51-2.3-.59-3.48,0-.42-.72-1,.07-1.26.53-.2.91.27,1.26.63a7.27,7.27,0,0,1,1.83,5.37,17.58,17.58,0,0,0,3.46,10.63c1.22,1.79.93,3.95.95,6a1.4,1.4,0,0,0,.44,1.4c.92-2.71,2.11-5.28,1.65-8.09a20.74,20.74,0,0,1,1.21-12.22c.4-.25.41-1.1,1-.9s.45.83.45,1.33a2.54,2.54,0,0,1,0,.56c-.77,3.54.22,6.81,1.23,10.18.62,2.07.18,4.46.2,6.7,0,1.37,0,2.75.14,4.2,1.2-2.44,3.32-4.18,4.64-6.51a11.16,11.16,0,0,0,1.25-5.59,9.49,9.49,0,0,1,4.14-8.14c.92.11.49.68.39,1.14a16.26,16.26,0,0,0-.73,7.45,16.56,16.56,0,0,1-3.27,10.88c-1.2,1.7-1.25,3.51-.87,5.77,1.64-2,2.47-4.34,4.49-5.53,3.55-2.09,5.16-5.28,6.08-9.17.66-2.75,3-4.34,5.49-5.54a1.59,1.59,0,0,1,.74-.09,3.34,3.34,0,0,1,.64.15c.08.63-.35.86-.63,1.17-1.78,2-3.13,3.93-3.13,6.91,0,3.43-2,6.2-4.46,8.6-1,1-2.13,2-2.31,3.7,2.24-2.12,5.22-2.78,7.74-4.28,1.41-.84,1.95-2.6,2.53-4.07,1.37-3.41,7.57-5.84,10.39-5.22-.5.91-1.46,1.17-2.22,1.62a14.74,14.74,0,0,0-6.06,7.36,12.14,12.14,0,0,1-6,6.16c-1.47.76-2.94,1.6-3,3.77,2.2-2,4.95-2.1,7.62-2.54a13.36,13.36,0,0,0,6.47-3.6c2.89-2.54,6.3-3.12,10-2.79.21,0,.41.21.89.46-2.78.7-5.38,1-7.53,2.64a8.51,8.51,0,0,0-2.05,2.12c-1.8,2.68-3.91,5-7.29,5.7a9.54,9.54,0,0,0-4.84,3,3.26,3.26,0,0,0,2.47-.15c3-.75,6,.27,9-.18,2.8-.42,5.31-1.74,8.09-2.17a12,12,0,0,1,7.77,1.29c.15.81-.49.51-.82.54A26.29,26.29,0,0,0,896.37,175.52Z"
       transform="translate(-445.5 -121.26)"
       id="path2196" />
    <path
       class="cls-3"
       d="M604.68,479.8c-3,.16-5.42,1.76-7.83,3.29a12,12,0,0,1-8.9,1.79,4.7,4.7,0,0,0-3.43,1c5.36,1.06,10,3.79,15.48,2,2.46-.81,5,.16,7.34,1.38l2.66,2.19a1.68,1.68,0,0,1-2.06.09,9.36,9.36,0,0,0-9.3.25c-2.81,1.7-5.66.66-8.51.34a23.58,23.58,0,0,0-6.32,0c1,1.12,2.12,1,3.05,1.42a69.21,69.21,0,0,1,6.84,3.85,6.6,6.6,0,0,0,4.25,1c4.3-.61,7.41,1.48,10.12,4.49.2.42.15.69-.4.67-2.29-.78-4.32-2.17-6.82-2.47a13.49,13.49,0,0,0-4.07.14c-4.15.75-7.67-1-11.23-2.73-1.12-.53-2.27-1.37-3.72-.64.32,1,1.32,1.14,2,1.58,2.37,1.58,4,3.9,6,5.82,1.71,1.62,3.76,2.17,5.8,2.84,3,1,4.31,3.26,5,6.12-.74.2-1-.36-1.34-.64a12.6,12.6,0,0,0-7.24-3.19c-3.37-.24-6-1.95-8.24-4.31a7,7,0,0,0-4.34-2.32,16.94,16.94,0,0,1,4.66,7c.74,1.82,2.51,2.88,4.24,3.79,3.54,1.85,6.17,4.42,6.87,8.55a1.18,1.18,0,0,1-.05,1.33c-.24.26-.53,0-.71-.27a37.39,37.39,0,0,0-3.6-4,13.42,13.42,0,0,0-5.08-3c-2.63-.76-4.15-2.83-5.73-4.83-1-1.32-2.06-2.66-3.16-3.93a3.75,3.75,0,0,0-2.88-1.4c2.34,2.19,2.31,4.79,2.48,7.37a7.72,7.72,0,0,0,2.94,5.63,12.66,12.66,0,0,1,4.87,11.69c-.67.82-.87.3-1-.36-1.45-3.57-3.27-6.88-6.71-8.94a8.5,8.5,0,0,1-3.82-5.5c-.68-2.52-1.63-5-3.78-6.68-.3-.1-.6-.43-.92-.17-.15.12,0,.41.1.62a8.87,8.87,0,0,1,.27,6.46,10,10,0,0,0,1.08,7.25c1.75,3.31,2.76,6.66,1.66,10.41-.41,1.38.26,2.71.45,4.06a.7.7,0,0,1-.8,0,7.39,7.39,0,0,1-2.5-5.65,15.49,15.49,0,0,0-1.93-7.68,13.51,13.51,0,0,1-1.2-6.33,9.72,9.72,0,0,0-1.51-6.14c-1,1.09-.37,2.39-.82,3.54-1.62,4.21-2.4,8.62-1.06,13.1a7.65,7.65,0,0,1-.2,5.27,8.93,8.93,0,0,0-.87,3.22c0,.72-.54.91-1.16.93a6.58,6.58,0,0,1-.41-5.59c.79-2.11.19-4.1-.46-6a13.64,13.64,0,0,1,.46-10.13c.52-1.24.08-2.87.08-4.84-1.7,1.6-1.76,3.41-2.6,4.78-.29.47-.32,1.11-.65,1.54a14,14,0,0,0-3,8.64c-.07,3.53-2.3,6.21-4.72,8.63-.77.29-1.06.1-.71-.72.76-1.91,1.53-3.82,2.27-5.74a10.46,10.46,0,0,0,.52-5.34,20.1,20.1,0,0,1-.14-4.3,5.49,5.49,0,0,1,1.86-4c1.67-1.44,1.77-3.5,1.83-5.5a1.82,1.82,0,0,0-.83-1.6c-1,.63-.55,1.72-.87,2.55a9.94,9.94,0,0,1-5.19,5.16,9.9,9.9,0,0,0-4.67,5.87,17.28,17.28,0,0,1-5.32,7.32,4.13,4.13,0,0,1-1.29.74c-.76.27-1.78.66-2.19-.2-.31-.66.71-1,1.25-1.39a11.09,11.09,0,0,0,3.74-5c1.08-2.51,1.66-5.24,3.21-7.56a8.65,8.65,0,0,1,2.63-2.87,5.67,5.67,0,0,0,2.94-4.55c-3.2,2.51-7,3.64-10.26,5.62a9.35,9.35,0,0,0-3.33,3.75c-1.22,2.34-3.29,3.69-5.49,4.9a2.49,2.49,0,0,1-3-.11,4,4,0,0,1,2.11-1.46c2.74-1.28,4.12-3.67,5-6.25a10.52,10.52,0,0,1,6.13-6.4,7.55,7.55,0,0,0,4.19-3.8c.17-.38.56-.82.17-1.2s-.85.06-1.12.3a13.13,13.13,0,0,1-7.89,3c-2.89.21-4.93,2.23-6.92,4.15a13.3,13.3,0,0,1-2.38,2.09c-1.7,1-3.06.14-4.47-1.24,1.57-.47,3.06-.38,4.34-1.28a14.94,14.94,0,0,0,3.56-4.3,10.69,10.69,0,0,1,7.19-4.54,6.2,6.2,0,0,0,4.7-4.32c-3.45,1.63-6.65.81-9.79,1.07a10,10,0,0,0-4.32,1.73c-2.91,1.77-5.89,2.55-9.27,1.38a9.59,9.59,0,0,0-4.38-.46,3.87,3.87,0,0,1,3.52-1.51,14.11,14.11,0,0,0,9-2.41,18.86,18.86,0,0,1,9.44-3.15,4.61,4.61,0,0,0,3.64-1.59c-.79-.54-1.75.05-2.56-.37a12.4,12.4,0,0,1-4.95-.79c-3.08-1.19-6.16-.59-9.18.12a9.94,9.94,0,0,1-5.16-.27,24.82,24.82,0,0,0-4.53-1c-.41,0-1.49.16-1-1,.75,0,1.5-.1,2.25-.06A27.82,27.82,0,0,0,524.45,488a18.93,18.93,0,0,1,10.15-.63,5.92,5.92,0,0,0,2.24-.15c-4.34-1.19-7.38-5.54-12.54-4.83-2.18.3-4.23-.76-6.2-1.74a20.4,20.4,0,0,0-5.29-2.29c-.33-.06-.68-.15-.63-.53s.37-.47.7-.49a6.64,6.64,0,0,1,3.5.29A19,19,0,0,0,528.05,479a13.47,13.47,0,0,1,8.15,1.43,4,4,0,0,0,1,.5c.83.12,2.08.51,2.38-.25s-1-.79-1.58-1.15a11.56,11.56,0,0,1-3.23-3.33,7.43,7.43,0,0,0-5-3.21,12.27,12.27,0,0,1-7.15-4.13,22.8,22.8,0,0,0-4.62-4.07c0-.83,0-.83,1.53-.37a13.25,13.25,0,0,1,2,.91,25.16,25.16,0,0,0,10.3,4.09c2.9.43,4.7,2.64,6.88,4.23.65.47,1.33.92,2,1.37s1.42.76,1.84.14-.58-.91-.92-1.36a3.33,3.33,0,0,0-1.15-1.09c-1-4.61-4.56-7-8.23-9.33-1.85-1.15-2.68-3.09-3.86-4.75-.9-1.27-1.62-2.68-3-3.49-.27-.15-.61-.38-.43-.7a1.05,1.05,0,0,1,.77-.42,3.41,3.41,0,0,1,2.67,1.14,41.2,41.2,0,0,0,8.24,6.7c.91.55,1.9.92,2.79,1.49a9.84,9.84,0,0,1,4.07,4.25,5.6,5.6,0,0,0,3.65,3.06,12.83,12.83,0,0,1-2.24-7.39,7,7,0,0,0-3.12-5.31,9.93,9.93,0,0,1-4.52-7.78,10.81,10.81,0,0,0-1.88-5.84,7,7,0,0,1,4.37,4.81c.84,3.19,3,5.38,5.39,7.2a14,14,0,0,1,5.17,7.29c.48,1.57.83,3.26,2.89,4.51-1.79-3.35-.83-6.31-.32-9.3.41-2.36-1-4.33-1.7-6.43-.95-2.84-2-5.61-1.38-8.7.24-1.19-.51-2.3-.59-3.48,0-.42-.72-1,.07-1.26.53-.2.91.27,1.26.63a7.27,7.27,0,0,1,1.83,5.37,17.58,17.58,0,0,0,3.46,10.63c1.22,1.79.93,3.95.95,6a1.4,1.4,0,0,0,.44,1.4c.92-2.71,2.11-5.28,1.65-8.09a20.74,20.74,0,0,1,1.21-12.22c.4-.25.41-1.1,1-.9s.45.83.45,1.33a2.54,2.54,0,0,1,0,.56c-.77,3.54.22,6.81,1.23,10.18.62,2.07.18,4.46.2,6.7,0,1.37,0,2.75.14,4.2,1.2-2.44,3.32-4.18,4.64-6.51A11.16,11.16,0,0,0,569,452.7a9.49,9.49,0,0,1,4.14-8.14c.92.11.49.68.39,1.14a16.26,16.26,0,0,0-.73,7.45A16.56,16.56,0,0,1,569.53,464c-1.2,1.7-1.25,3.51-.87,5.77,1.64-2,2.47-4.34,4.49-5.53,3.55-2.09,5.16-5.28,6.08-9.17.66-2.75,3-4.34,5.49-5.54a1.59,1.59,0,0,1,.74-.09,3.34,3.34,0,0,1,.64.15c.08.63-.35.86-.63,1.17-1.78,2-3.13,3.93-3.13,6.91,0,3.43-2,6.2-4.46,8.6-1,1-2.13,2-2.31,3.7,2.24-2.12,5.22-2.78,7.74-4.28,1.41-.84,1.95-2.6,2.53-4.07,1.37-3.41,7.57-5.84,10.39-5.22-.5.91-1.46,1.17-2.22,1.62a14.74,14.74,0,0,0-6.06,7.36,12.14,12.14,0,0,1-6,6.16c-1.47.76-2.94,1.6-3,3.77,2.2-2,4.95-2.1,7.62-2.54a13.36,13.36,0,0,0,6.47-3.6c2.89-2.54,6.3-3.12,10-2.79.21,0,.41.21.89.46-2.78.7-5.38,1-7.53,2.64a8.51,8.51,0,0,0-2.05,2.12c-1.8,2.68-3.91,5-7.29,5.7a9.54,9.54,0,0,0-4.84,3,3.26,3.26,0,0,0,2.47-.15c3-.75,6,.27,9-.18,2.8-.42,5.31-1.74,8.09-2.17a12,12,0,0,1,7.77,1.29c.15.81-.49.51-.82.54A26.29,26.29,0,0,0,604.68,479.8Z"
       transform="translate(-445.5 -121.26)"
       id="path2198" />
    <path
       class="cls-4"
       d="M532.15,163.86c-1.69.87-3.19-.07-4.72-.35-15.46-2.83-28.92,7.77-30.22,23.51-1.23,14.88,6.18,25.15,17.25,33.62,1.11.85,2.26,1.64,4.64,3.36-10.23,1.45-18.86,1-26.67-3.83-13.77-8.59-21.16-20.95-20.81-37.49.07-3,.43-6.09.26-9.11-.75-13.47,14.16-25.33,23.24-27.68,13.71-3.56,27.36,1.37,35,12.62C531.15,160.11,532.21,161.77,532.15,163.86Z"
       transform="translate(-445.5 -121.26)"
       id="path2200" />
    <path
       class="cls-4"
       d="M790.62,509.78a17.29,17.29,0,0,1,2.58,0c15,2.72,21.87-.14,29.46-12.29,5.57-8.92,4.52-23.19-2.16-32.46a43.35,43.35,0,0,0-12.15-11.95c-1.14-.71-3-1.33-2.61-3,.54-2.23,2.67-1.15,4.1-1.24,23.72-1.63,41.83,19.13,42,40.75,0,2.51-.08,5,0,7.52.24,18.6-15.49,30.06-29.63,32.08C810.08,530.91,795.9,522.28,790.62,509.78Z"
       transform="translate(-445.5 -121.26)"
       id="path2202" />
  </g>
  <g
     id="Layer_3"
     data-name="Layer 3">
    <path
       class="cls-5"
       d="M927,122.76V328.6q0,15.27-1.47,30.49c-.23,2.51-.51,5-.81,7.53-.11.93-.24,1.86-.36,2.79,0,.2,0,.4-.08.59-.09.74-.19,1.47-.31,2.2-.46,3.37-1,6.69-1.6,10-.07.44-.15.87-.23,1.31-.16.8-.29,1.6-.45,2.4s-.34,1.79-.51,2.69l-.45,2.22-.24,1.15c-.15.71-.3,1.44-.46,2.15-.54,2.37-1.07,4.71-1.61,7l-.58,2.32-.52,2q-1.53,5.88-3.27,11.61c-.29,1-.59,1.94-.9,2.92l-.6,1.88c-.2.63-.4,1.24-.61,1.86-.37,1.09-.73,2.17-1.1,3.25s-.68,2-1,3c-.47,1.28-.93,2.56-1.39,3.81-.36,1-.73,2-1.11,3l-.19.5c-.43,1.14-.87,2.25-1.32,3.36s-.87,2.17-1.31,3.2c0,.15-.12.28-.18.42-.4,1-.8,2-1.25,3s-.76,1.75-1.13,2.62l-.66,1.49c-.48,1.07-1,2.11-1.44,3.15s-.9,2-1.36,2.93l-1,2.12c-.29.63-.6,1.25-.91,1.87-.63,1.33-1.31,2.64-2,4q-2.52,5-5.19,9.77l-2,3.57-.12.21c-1.42,2.47-2.86,4.92-4.33,7.33-.71,1.2-1.46,2.4-2.18,3.54-.11.16-.2.32-.3.47-.55.89-1.12,1.78-1.69,2.66l-.65,1c-.65,1-1.31,2-2,3l-.13.18c-.65,1-1.31,2-2,3l-.45.67q-2.25,3.29-4.54,6.46l-.31.43c-.8,1.07-1.54,2.14-2.31,3.19s-1.66,2.23-2.5,3.32c-1.52,2-3.06,4-4.61,6l-.81,1q-1.09,1.39-2.22,2.76L854,526.61l-.57.69c-.8.94-1.6,1.87-2.41,2.8q-2.82,3.32-5.72,6.53c-.75.85-1.52,1.69-2.29,2.51s-1.47,1.6-2.22,2.4q-3,3.2-5.93,6.24-2.76,2.82-5.53,5.59c-.92.91-1.84,1.82-2.76,2.71s-1.85,1.78-2.79,2.66l-2.28,2.12c-.68.65-1.36,1.28-2,1.91a449.24,449.24,0,0,1-61.76,47.47c-.86.55-1.72,1.1-2.57,1.6q-6.43,4.06-12.47,7.63l-2.41,1.4-2.36,1.37-2.33,1.34-2.23,1.29c-8.34,4.68-15.9,8.59-22.38,11.76l-1.6.8c-10.64,5.15-18.12,8.22-21,9.35l-.42.17-.61.24-.14,0h-.08l-.09,0-.14,0-.21,0-1.07-.42-.54-.23c-.87-.34-2-.8-3.37-1.38l-.46-.18c-1.76-.8-3.89-1.67-6.33-2.77l-1.39-.61a442.25,442.25,0,0,1-39.75-20.6c-.8-.44-1.6-.92-2.35-1.38a474,474,0,0,1-44.78-30l-2.63-2c-1-.75-2-1.51-2.94-2.29l-2.81-2.21c-6.19-4.92-12.43-10.15-18.64-15.69L558.08,566q-2.31-2.05-4.59-4.2l-1.67-1.57L550,558.54l-2-1.94c-1.12-1.07-2.23-2.17-3.33-3.27-.85-.79-1.69-1.66-2.52-2.5l-.24-.26c-.84-.83-1.67-1.67-2.5-2.51-.66-.68-1.32-1.36-2-2l-2-2.06-.13-.15-2.1-2.25q-3.36-3.6-6.66-7.36c-.68-.79-1.36-1.54-2.05-2.34-.57-.65-1.12-1.29-1.66-1.94q-1-1.2-2-2.4-4.28-5.1-8.39-10.48c-.76-1-1.5-1.93-2.24-2.92-1.89-2.47-3.73-5-5.57-7.55-.55-.8-1.12-1.59-1.68-2.39-.13-.16-.24-.34-.36-.5-.59-.86-1.19-1.7-1.77-2.56-.94-1.38-1.89-2.77-2.81-4.17-.74-1.09-1.47-2.2-2.19-3.31a1,1,0,0,0-.15-.24l-2.22-3.48-.22-.36c-.7-1.14-1.41-2.27-2.1-3.4s-1.49-2.46-2.21-3.71-1.43-2.39-2.13-3.67q-4.61-8-8.77-16.46c-.35-.69-.69-1.38-1-2.09-.22-.44-.44-.88-.65-1.35-.43-.87-.8-1.74-1.25-2.63a25.91,25.91,0,0,1-1.15-2.47l-.23-.48c-.27-.58-.53-1.16-.81-1.75l-.26-.57c-.27-.59-.52-1.19-.8-1.78q-1.44-3.25-2.79-6.57c-.42-1-.8-2-1.23-3.08-.1-.25-.21-.52-.31-.79-.4-1-.8-2-1.16-3s-.69-1.82-1-2.74l-.24-.65c-.17-.44-.33-.91-.49-1.35q-1-2.7-1.9-5.44c-.21-.6-.4-1.2-.6-1.8-.26-.8-.51-1.54-.75-2.32-.14-.41-.27-.8-.4-1.22-.25-.8-.49-1.59-.75-2.39-.31-1-.61-2.06-.92-3.11-.19-.64-.39-1.28-.57-1.95-.37-1.29-.74-2.58-1.09-3.89-.19-.68-.37-1.35-.55-2-.13-.5-.27-1-.4-1.51-.32-1.22-.62-2.45-.92-3.7-.18-.7-.34-1.4-.52-2.11-.07-.28-.13-.56-.19-.85-.37-1.55-.72-3.11-1.07-4.69-.26-1.16-.5-2.33-.74-3.5-.13-.71-.29-1.43-.42-2.14s-.32-1.59-.48-2.45a1.86,1.86,0,0,0-.09-.47c-.16-.8-.3-1.64-.45-2.48s-.32-1.84-.48-2.77-.29-1.8-.45-2.71q-.57-3.7-1.07-7.47c-.17-1.23-.33-2.47-.48-3.71q-.43-3.6-.77-7.2Q447,343.88,447,328.58V122.76Z"
       transform="translate(-445.5 -121.26)"
       id="path2205" />
  </g>
  <path
     id="shine"
     d="M 1.5800002,0.7040314 V 207.08091 c 0,229.66454 239.9199998,319.6031 239.9199998,319.6031 0,0 239.92,-89.93856 239.92,-319.6031 V 0.7040314 Z"
     style="fill:url(#rg);stroke:#000000;stroke-width:2.41218" />
</svg>
