<?xml version="1.0" encoding="UTF-8" standalone="no"?>
<svg
   viewBox="0 0 483 527.48"
   version="1.1"
   id="svg32237"
   sodipodi:docname="House Towers of Harrenhal.svg"
   inkscape:version="1.2.1 (9c6d41e410, 2022-07-14)"
   xmlns:inkscape="http://www.inkscape.org/namespaces/inkscape"
   xmlns:sodipodi="http://sodipodi.sourceforge.net/DTD/sodipodi-0.dtd"
   xmlns="http://www.w3.org/2000/svg"
   xmlns:svg="http://www.w3.org/2000/svg">
  <sodipodi:namedview
     id="namedview32239"
     pagecolor="#ffffff"
     bordercolor="#000000"
     borderopacity="0.25"
     inkscape:showpageshadow="2"
     inkscape:pageopacity="0.0"
     inkscape:pagecheckerboard="0"
     inkscape:deskcolor="#d1d1d1"
     showgrid="false"
     inkscape:zoom="1.12203"
     inkscape:cx="174.68338"
     inkscape:cy="269.15501"
     inkscape:window-width="1920"
     inkscape:window-height="1017"
     inkscape:window-x="-8"
     inkscape:window-y="-8"
     inkscape:window-maximized="1"
     inkscape:current-layer="svg32237" />
  <defs
     id="defs32214">
    <style
       id="style32212">.cls-1,.cls-3{fill:#fff;stroke:#000;}.cls-1{stroke-width:3px;}.cls-2{fill:none;stroke:#850115;}.cls-2,.cls-3{stroke-width:10px;}</style>
    <radialGradient
       id="rg"
       gradientUnits="userSpaceOnUse"
       cx="220"
       cy="220"
       r="405"
       gradientTransform="matrix(0.80510068,0,0,0.80302287,-0.03020195,-0.94201591)">
      <stop
         style="stop-color:#ffffff;stop-opacity:.3"
         offset="0"
         id="stop753" />
      <stop
         style="stop-color:#ffffff;stop-opacity:.2"
         offset=".2"
         id="stop755" />
      <stop
         style="stop-color:#666666;stop-opacity:.1"
         offset=".6"
         id="stop757" />
      <stop
         style="stop-color:#000000;stop-opacity:.13"
         offset="1"
         id="stop759" />
    </radialGradient>
  </defs>
  <title
     id="title32216">House Towers</title>
  <g
     id="Layer_2"
     data-name="Layer 2">
    <path
       class="cls-1"
       d="M927,122.76V328.6a314.37,314.37,0,0,1-2.28,38c-.11.93-.24,1.86-.36,2.79s-.24,1.86-.39,2.79q-.7,5.05-1.61,10c-.07.44-.15.87-.23,1.31-.15.8-.29,1.6-.45,2.39s-.34,1.8-.51,2.69l-.45,2.22-.24,1.16c-.15.71-.3,1.44-.47,2.15q-.8,3.55-1.61,7l-.58,2.32-.52,2q-1.52,5.88-3.27,11.61c-.29,1-.59,1.94-.9,2.92l-.6,1.88c-.19.63-.39,1.25-.6,1.86l-1.1,3.26c-.37,1.09-.68,2-1,3-.47,1.28-.92,2.55-1.39,3.81-.36,1-.73,2-1.11,3l-.19.49c-.43,1.14-.87,2.25-1.32,3.37s-.87,2.16-1.32,3.19a3.35,3.35,0,0,1-.18.42c-.4,1-.8,2-1.25,3s-.75,1.75-1.13,2.62l-.66,1.49c-.47,1.07-.95,2.12-1.44,3.15s-.9,2-1.36,2.93l-1,2.12c-.3.63-.6,1.25-.91,1.88-.63,1.32-1.31,2.64-2,4q-2.53,5-5.19,9.77l-2,3.57-.11.21q-2.13,3.71-4.33,7.33c-.71,1.2-1.46,2.39-2.18,3.54-.1.16-.19.31-.3.46-.55.89-1.12,1.78-1.69,2.66l-.66,1c-.65,1-1.31,2-2,3l-.13.18c-.66,1-1.32,2-2,3l-.45.67q-2.26,3.28-4.54,6.46l-.31.42c-.8,1.07-1.54,2.14-2.31,3.19s-1.66,2.23-2.5,3.32q-2.29,3-4.61,6l-.8,1c-.73.93-1.48,1.85-2.22,2.76L854,526.61l-.57.69L851,530.1q-2.83,3.32-5.72,6.53c-.75.85-1.52,1.69-2.29,2.51l-2.22,2.39q-3,3.19-5.93,6.24-2.76,2.83-5.53,5.59c-.91.91-1.84,1.82-2.76,2.71s-1.85,1.78-2.78,2.67l-2.28,2.11c-.68.65-1.36,1.28-2.05,1.91a448.64,448.64,0,0,1-61.76,47.47c-.86.55-1.73,1.1-2.58,1.6q-6.42,4.07-12.46,7.63l-2.41,1.4-2.36,1.36-2.34,1.35-2.22,1.28c-8.35,4.68-15.91,8.59-22.38,11.76l-1.61.8c-10.63,5.15-18.11,8.22-21,9.35l-.42.18-.61.23-.14.06h-.08l-.23-.1-.21,0-1.07-.42-.55-.23c-.87-.34-2-.8-3.36-1.38l-.47-.18c-1.76-.8-3.88-1.67-6.33-2.77l-1.39-.61a443.16,443.16,0,0,1-39.74-20.6c-.8-.45-1.61-.92-2.36-1.38a473.14,473.14,0,0,1-44.78-30l-2.62-2c-1-.75-2-1.52-2.95-2.29l-2.81-2.21c-6.19-4.92-12.43-10.15-18.64-15.69L558.08,566q-2.3-2.05-4.59-4.2l-1.67-1.57L550,558.54l-2-1.94c-1.12-1.07-2.24-2.16-3.34-3.26-.84-.8-1.69-1.67-2.52-2.51l-.24-.26q-1.25-1.25-2.5-2.51c-.66-.68-1.32-1.36-2-2l-2-2.07-.13-.15-2.1-2.24q-3.36-3.61-6.66-7.36c-.68-.8-1.36-1.55-2-2.35-.57-.65-1.12-1.28-1.66-1.94l-2-2.39q-4.26-5.11-8.39-10.48-1.13-1.45-2.24-2.92c-1.89-2.47-3.73-5-5.57-7.55l-1.68-2.39c-.13-.16-.24-.34-.36-.5-.59-.85-1.19-1.7-1.77-2.55-.95-1.38-1.89-2.77-2.82-4.17q-1.11-1.64-2.18-3.31l-.15-.24-2.22-3.47c-.07-.13-.15-.24-.22-.37-.71-1.14-1.41-2.27-2.1-3.4s-1.49-2.46-2.21-3.7-1.44-2.39-2.13-3.67q-4.6-8-8.77-16.47c-.35-.69-.69-1.38-1-2.08-.22-.44-.44-.89-.65-1.35-.43-.87-.8-1.75-1.25-2.63a27.17,27.17,0,0,1-1.15-2.47l-.23-.48c-.26-.58-.52-1.16-.8-1.75l-.26-.57c-.26-.58-.52-1.18-.8-1.77q-1.44-3.26-2.78-6.58c-.42-1-.8-2-1.23-3.07-.1-.26-.21-.53-.31-.8-.4-1-.8-2-1.16-3s-.68-1.82-1-2.74l-.23-.65c-.18-.45-.34-.91-.5-1.36q-1-2.69-1.89-5.44c-.21-.6-.4-1.21-.6-1.8-.26-.8-.51-1.54-.75-2.31-.14-.42-.26-.8-.39-1.22-.26-.8-.5-1.6-.75-2.39-.31-1-.61-2.06-.92-3.1-.18-.65-.39-1.28-.57-2-.37-1.28-.74-2.58-1.08-3.89-.19-.68-.37-1.35-.55-2-.13-.5-.26-1-.39-1.51-.32-1.22-.63-2.46-.92-3.7-.18-.7-.35-1.4-.52-2.11-.07-.29-.13-.57-.19-.85-.37-1.55-.71-3.11-1.07-4.69-.26-1.16-.5-2.33-.74-3.5-.14-.71-.29-1.43-.43-2.14s-.32-1.6-.47-2.45a2.13,2.13,0,0,0-.1-.47c-.15-.8-.3-1.64-.45-2.48s-.31-1.84-.47-2.77-.3-1.8-.45-2.71q-.87-5.52-1.56-11.17A314.73,314.73,0,0,1,447,328.58V122.76Z"
       transform="translate(-445.5 -121.26)"
       id="path32218" />
  </g>
  <g
     id="Layer_3"
     data-name="Layer 3">
    <path
       class="cls-2"
       d="M894.5,158.27v178a271.8,271.8,0,0,1-2,32.87c-.1.81-.21,1.61-.31,2.42s-.21,1.61-.33,2.41q-.6,4.37-1.39,8.63c-.06.38-.13.75-.2,1.13-.13.69-.25,1.38-.39,2.07s-.29,1.55-.44,2.33l-.39,1.92-.21,1c-.13.61-.26,1.24-.4,1.86q-.69,3.07-1.39,6.07l-.5,2-.45,1.75q-1.32,5.09-2.83,10c-.25.84-.51,1.68-.78,2.53l-.52,1.62c-.17.55-.34,1.08-.52,1.61l-1,2.82c-.32.94-.59,1.71-.89,2.55-.4,1.1-.8,2.21-1.2,3.29-.31.86-.63,1.71-1,2.57l-.17.43c-.37,1-.75,1.95-1.14,2.91s-.75,1.87-1.14,2.76a2.9,2.9,0,0,1-.15.37c-.35.86-.69,1.71-1.08,2.57s-.65,1.51-1,2.26l-.57,1.29c-.41.92-.82,1.83-1.24,2.73s-.78,1.69-1.17,2.53l-.88,1.83c-.26.55-.52,1.08-.79,1.62-.55,1.15-1.13,2.28-1.7,3.45q-2.19,4.29-4.49,8.45L860.25,466l-.1.18q-1.85,3.21-3.75,6.34c-.62,1-1.26,2.07-1.89,3.06l-.26.4c-.48.77-1,1.54-1.46,2.3l-.57.88c-.56.88-1.13,1.75-1.71,2.6l-.11.16c-.57.86-1.14,1.71-1.72,2.57l-.39.58q-1.95,2.84-3.93,5.59l-.27.37c-.69.92-1.33,1.85-2,2.76s-1.44,1.93-2.16,2.87q-2,2.61-4,5.15l-.69.86c-.63.81-1.28,1.6-1.92,2.39l-2,2.39-.49.59-2.08,2.42q-2.45,2.87-4.95,5.64c-.65.74-1.32,1.46-2,2.17L820,520.34q-2.56,2.76-5.13,5.4-2.39,2.44-4.78,4.83c-.79.79-1.59,1.57-2.39,2.35s-1.6,1.54-2.41,2.3l-2,1.83c-.59.56-1.18,1.1-1.78,1.65a387.89,387.89,0,0,1-53.4,41c-.74.48-1.49,1-2.23,1.38q-5.55,3.52-10.78,6.6L733,588.93l-2,1.18-2,1.17L727,592.39c-7.22,4-13.75,7.43-19.35,10.17l-1.39.69c-9.19,4.45-15.66,7.11-18.14,8.08l-.36.15-.53.2-.12,0h-.07l-.2-.08h-.18l-.92-.36-.47-.2c-.75-.3-1.72-.69-2.91-1.19l-.4-.16c-1.52-.69-3.36-1.44-5.47-2.39l-1.2-.52A383.15,383.15,0,0,1,641,589c-.69-.39-1.39-.79-2-1.19a409.08,409.08,0,0,1-38.71-25.93l-2.27-1.73c-.85-.65-1.7-1.31-2.55-2L593,556.25c-5.35-4.26-10.75-8.78-16.11-13.57l-1.31-1.18q-2-1.77-4-3.63l-1.44-1.36L568.54,535l-1.75-1.68c-1-.92-1.94-1.87-2.89-2.82-.73-.69-1.46-1.44-2.18-2.17l-.21-.22L559.36,526l-1.7-1.77-1.72-1.79-.11-.13L554,520.36q-2.91-3.12-5.76-6.36c-.59-.69-1.18-1.34-1.77-2s-1-1.11-1.44-1.68l-1.77-2.07q-3.68-4.42-7.25-9.06-1-1.25-1.94-2.53c-1.63-2.14-3.23-4.31-4.82-6.53L527.82,488c-.11-.14-.21-.29-.31-.43-.51-.74-1-1.47-1.53-2.21-.82-1.19-1.64-2.39-2.44-3.61q-1-1.41-1.89-2.86l-.13-.21-1.92-3c-.06-.11-.13-.21-.19-.32-.61-1-1.22-2-1.82-2.94s-1.29-2.13-1.91-3.2-1.24-2.07-1.85-3.17q-4-6.9-7.58-14.24c-.3-.59-.6-1.19-.89-1.8-.19-.38-.38-.77-.56-1.17-.37-.75-.69-1.51-1.08-2.28a23.49,23.49,0,0,1-1-2.14l-.2-.41c-.23-.5-.45-1-.69-1.51l-.23-.5c-.23-.5-.45-1-.69-1.53q-1.24-2.82-2.41-5.69c-.36-.88-.69-1.77-1.06-2.66l-.27-.69c-.35-.86-.69-1.74-1-2.6s-.59-1.57-.88-2.37l-.2-.56c-.15-.39-.29-.79-.43-1.17q-.84-2.33-1.64-4.7c-.18-.52-.35-1-.52-1.56l-.65-2c-.12-.36-.23-.69-.34-1.06-.22-.69-.43-1.38-.65-2.07-.27-.88-.53-1.78-.8-2.68-.16-.56-.33-1.11-.49-1.69-.32-1.11-.64-2.23-.94-3.36-.17-.59-.32-1.17-.48-1.75-.11-.43-.23-.86-.34-1.3-.28-1.06-.54-2.13-.8-3.2-.16-.61-.3-1.21-.45-1.82-.06-.25-.11-.49-.17-.74-.32-1.34-.62-2.69-.92-4.06-.22-1-.43-2-.64-3-.12-.61-.25-1.24-.37-1.85s-.28-1.38-.41-2.12a1.84,1.84,0,0,0-.08-.41c-.13-.69-.26-1.42-.39-2.15s-.27-1.59-.41-2.39-.26-1.56-.39-2.35q-.75-4.77-1.35-9.66a272.12,272.12,0,0,1-1.94-32.61v-178Z"
       transform="translate(-445.5 -121.26)"
       id="path32221" />
    <path
       class="cls-3"
       d="M873.78,180.91V341.1A244.66,244.66,0,0,1,872,370.69c-.09.73-.19,1.45-.28,2.17s-.19,1.45-.3,2.17q-.54,3.93-1.25,7.76c-.06.34-.12.68-.18,1-.12.62-.22,1.24-.35,1.86s-.26,1.4-.39,2.09l-.35,1.73-.19.9c-.12.55-.23,1.12-.36,1.67q-.62,2.76-1.25,5.46l-.45,1.81-.41,1.58q-1.19,4.58-2.55,9c-.22.76-.46,1.51-.7,2.27l-.47,1.46c-.15.49-.31,1-.47,1.45l-.86,2.53c-.29.84-.53,1.54-.8,2.3-.36,1-.72,2-1.08,3-.28.78-.57,1.54-.86,2.31l-.15.39c-.33.89-.67,1.75-1,2.62s-.67,1.68-1,2.48a2.61,2.61,0,0,1-.14.33c-.31.78-.62,1.54-1,2.31s-.59,1.36-.88,2l-.51,1.16c-.37.83-.74,1.65-1.12,2.45s-.7,1.52-1.06,2.28L850.8,443c-.23.49-.47,1-.71,1.46-.49,1-1,2.06-1.53,3.11q-2,3.86-4,7.6l-1.57,2.78-.09.16q-1.66,2.89-3.37,5.71c-.56.93-1.14,1.86-1.7,2.76l-.23.36c-.43.7-.87,1.39-1.31,2.07l-.51.8c-.51.79-1,1.58-1.54,2.34l-.1.14c-.51.77-1,1.54-1.55,2.31l-.35.52q-1.76,2.55-3.54,5l-.24.33c-.62.83-1.2,1.66-1.8,2.48s-1.29,1.73-1.94,2.58q-1.78,2.35-3.59,4.63l-.62.78c-.57.73-1.15,1.44-1.73,2.15L817,495.21l-.44.53-1.87,2.18q-2.2,2.58-4.45,5.08c-.59.66-1.19,1.32-1.78,2l-1.73,1.86q-2.3,2.48-4.62,4.86-2.15,2.2-4.3,4.35c-.71.71-1.43,1.42-2.15,2.11s-1.44,1.39-2.17,2.07l-1.77,1.65c-.53.5-1.06,1-1.6,1.48A349.16,349.16,0,0,1,742,560.3c-.67.43-1.34.86-2,1.24q-5,3.17-9.7,5.94l-1.87,1.09-1.84,1.06-1.82,1-1.73,1c-6.5,3.64-12.38,6.68-17.42,9.16l-1.25.62c-8.28,4-14.1,6.4-16.33,7.27l-.32.14-.47.18-.11,0h-.06l-.18-.07h-.16l-.83-.32-.42-.18c-.67-.27-1.55-.62-2.62-1.07l-.36-.14c-1.37-.62-3-1.3-4.93-2.16l-1.08-.47a344.89,344.89,0,0,1-30.93-16c-.62-.35-1.25-.71-1.84-1.07a368.23,368.23,0,0,1-34.85-23.34l-2-1.56-2.29-1.78-2.19-1.72c-4.82-3.83-9.68-7.9-14.5-12.21l-1.18-1.06q-1.79-1.6-3.57-3.27l-1.3-1.22-1.42-1.33-1.57-1.51c-.87-.83-1.74-1.68-2.6-2.54-.66-.62-1.31-1.3-2-2l-.19-.2-1.94-2-1.53-1.59L569,508.7l-.1-.12-1.64-1.75q-2.62-2.81-5.18-5.73c-.53-.62-1.06-1.21-1.59-1.83s-.87-1-1.29-1.51l-1.59-1.86q-3.32-4-6.53-8.16-.88-1.13-1.74-2.27c-1.47-1.93-2.9-3.88-4.33-5.88l-1.31-1.86c-.1-.12-.19-.26-.28-.39-.46-.66-.92-1.32-1.37-2-.74-1.07-1.47-2.16-2.19-3.25q-.86-1.27-1.7-2.58l-.12-.19-1.73-2.7c-.06-.1-.12-.19-.17-.29-.55-.89-1.1-1.76-1.64-2.65s-1.16-1.91-1.72-2.88-1.12-1.86-1.66-2.86q-3.58-6.21-6.83-12.81c-.27-.53-.54-1.07-.8-1.62-.17-.34-.34-.69-.51-1-.33-.68-.62-1.36-1-2a21.15,21.15,0,0,1-.89-1.93l-.18-.37c-.21-.45-.41-.9-.62-1.36l-.21-.45c-.21-.45-.41-.92-.62-1.38q-1.12-2.53-2.17-5.12c-.32-.8-.62-1.59-1-2.39l-.24-.62c-.31-.78-.62-1.57-.91-2.34s-.53-1.42-.79-2.13l-.18-.5c-.14-.35-.26-.71-.39-1.06q-.76-2.09-1.47-4.23c-.16-.47-.31-.94-.47-1.4l-.59-1.8c-.11-.32-.21-.62-.31-1-.2-.62-.39-1.24-.59-1.86-.24-.8-.47-1.6-.72-2.42-.14-.5-.3-1-.44-1.52-.29-1-.57-2-.84-3-.15-.53-.29-1-.43-1.58s-.21-.78-.31-1.17c-.25-1-.49-1.91-.72-2.88-.14-.55-.27-1.09-.41-1.64-.06-.22-.1-.44-.15-.66-.29-1.21-.56-2.42-.83-3.65-.2-.9-.39-1.81-.57-2.72-.11-.55-.22-1.11-.33-1.66s-.25-1.24-.37-1.91a1.66,1.66,0,0,0-.07-.37c-.12-.62-.23-1.28-.35-1.93s-.24-1.43-.37-2.16-.23-1.4-.35-2.11q-.67-4.29-1.21-8.7a244.94,244.94,0,0,1-1.75-29.35V180.91Z"
       transform="translate(-445.5 -121.26)"
       id="path32223" />
  </g>
  <g
     id="Layer_4"
     data-name="Layer 4">
    <path
       d="M733.32,374.18c2.37-6,.65-14.45,11.62-14.33,10.61.12,9.07,8.71,12,14.34l1.38-.41c.25-2.23.6-4.46.72-6.7.22-4.24,2.46-5.87,6.56-5.56,9.32.7,16,7.7,16,16.92a99.15,99.15,0,0,0,.06,10c.73,7.14-.33,13.11-7.7,16.59-1.27.6-2.24,3.44-2.11,5.16q2.42,31.6,5.36,63.16a8.87,8.87,0,0,0,3,5.54c8.1,6.39,11.52,15.36,13.11,24.88.46,2.72-2.18,7.36-4.75,9a79.7,79.7,0,0,1-38.11,12.39,84.52,84.52,0,0,1-46.93-10.76c-5.58-3.08-6.92-7.36-5.78-12.94A42.45,42.45,0,0,1,709,479.48a14.48,14.48,0,0,0,3.85-8.51c1.23-20.14.16-40.45,5.16-60.31.46-1.82-1.6-5.26-3.45-6.47-4.9-3.21-6.94-7.08-6.29-12.95.57-5.14.11-10.38.44-15.56.53-8.39,9.21-15.56,17.45-14.09,1.73.31,3.59,2.79,4.4,4.69,1,2.25.84,5,1.18,7.47Z"
       transform="translate(-445.5 -121.26)"
       id="path32226" />
    <path
       d="M641.84,373c.28-2.48.6-5,.85-7.45.35-3.61,2.21-5.12,5.91-5,9.54.31,16,6.89,16,16.51,0,3.71-.24,7.44.05,11.13.52,6.45-.15,12-6.72,15.56-1.48.8-2.45,4.07-2.31,6.11q2.08,30.25,4.78,60.46c.24,2.64,1.56,5.9,3.5,7.56,7.18,6.13,10.42,14.25,12.67,22.91,1.3,5-.44,8.74-5.2,11.61-17.43,10.51-36.52,14.3-56.14,11.1-10.84-1.77-21-7.74-31.35-12.24-1.45-.63-2.44-3.63-2.63-5.63-.93-10.1,3.16-18.56,9.94-25.57a16.46,16.46,0,0,0,5.1-11.08c1.5-19.95,3.56-39.85,5-59.81.15-2.1-1.86-5.14-3.76-6.46-4.09-2.84-5.87-6.07-5.44-11.11.47-5.53-.08-11.14.28-16.69.58-9.08,8-15.43,17-14.26,1.67.22,3.63,2.63,4.36,4.46,1,2.41.86,5.25,1.43,9.51,5-5.93,1.29-16.22,12.82-15.79,10.64.39,10,8.19,12.1,14.72Z"
       transform="translate(-445.5 -121.26)"
       id="path32228" />
    <path
       d="M815.43,205.61c.28-2.44.63-4.88.81-7.34.28-3.81,2.36-5.1,6-4.76,10.1.93,15.05,5.62,16,15.77a134.4,134.4,0,0,1,.31,14.46c-.09,5.29-1.76,9.63-7,12.28a7.11,7.11,0,0,0-3.21,5.57q2.54,31.6,5.84,63.14c.24,2.28,2.22,4.66,4,6.45C845.61,319,850.32,328,849.33,339c-.2,2.21-2.67,4.95-4.82,6.15-27.3,15.33-55,15.56-83,1.81-7.37-3.62-9.2-7.05-7.51-15.18,1.73-8.34,5.36-15.94,12.17-21.3,3.08-2.42,3.75-5,3.85-8.53.4-13,.73-26,1.59-38.91a179.79,179.79,0,0,1,3.08-20.82c.54-2.92.58-4.83-2.6-6.21-5.68-2.47-8.38-6.72-7.54-13.27.59-4.57.2-9.26.35-13.9.36-11,8.85-15.35,18-15.42,1.57,0,3.74,2.58,4.59,4.45,1.08,2.38,1.11,5.24,2.27,8.09,3.21-5.84,1.3-14.87,12.39-14.6,10.39.26,9.35,8.6,11.8,14.76Z"
       transform="translate(-445.5 -121.26)"
       id="path32230" />
    <path
       d="M559.14,205.75c4.67-4.8,1.06-13.57,11.33-14.32,11.53-.84,11.64,7.56,13.27,15.34l1.89-.62c.33-2.53.79-5,1-7.59.32-4.26,2.38-5.86,6.64-5.14,10.58,1.79,15.07,6.88,15.3,17.74.08,4.08-.36,8.2.11,12.23.69,6-1.73,9.8-6.9,12.61a6.49,6.49,0,0,0-2.85,5q2.08,31,4.81,62a12.79,12.79,0,0,0,3.65,7.36c7.69,7.46,12.65,16.08,12,27-.15,2.51-1.86,5.93-3.91,7.15-23.2,13.8-47.68,16.21-73.1,6.92a66,66,0,0,1-14-6.76c-2.23-1.48-4.47-4.86-4.48-7.4-.06-10.68,4.24-19.55,12.44-26.72,2-1.78,3.24-5.32,3.51-8.18,1.69-17.72,3-35.47,4.47-53.21a37.09,37.09,0,0,1,.84-6c.94-3.69-.35-6.24-3.73-7.63-4.44-1.82-6-5.37-6-9.73-.05-6.3-.19-12.63.3-18.9.67-8.6,9.71-15.43,17.85-13.4,1.71.43,3.21,3.13,4.06,5.1C558.56,200.78,558.67,203.34,559.14,205.75Z"
       transform="translate(-445.5 -121.26)"
       id="path32232" />
    <path
       d="M673.54,205.92c4.24-5.45,1.59-14.84,13.07-14.58,10.85.24,9.23,9,11.91,15.06l1.57-.41c.33-2.61.71-5.21,1-7.82.33-3.36,2.08-4.95,5.48-4.9,9.66.12,16.37,6.74,16.37,16.24,0,5.57-.21,11.15.07,16.7.19,3.78-.85,6.5-4.35,8.11-4.4,2-5.19,5.45-4.76,10.08,1.77,19.21,3.28,38.44,4.67,57.69.3,4.17,1.89,6.74,5,9.73,6.94,6.68,11.35,15.29,11.32,25.17,0,2.65-2.65,6.25-5.1,7.77-12.19,7.56-25.61,11.16-40,12-15.78.93-30.07-3.33-43.8-10.36-6.28-3.21-7.85-6.38-6.51-13.66a42.82,42.82,0,0,1,11.8-22.26,12.59,12.59,0,0,0,3.24-7c1.92-20.28,3.4-40.61,5.35-60.89.44-4.52-2.05-6.64-5.11-8.27-3.5-1.87-4.47-4.41-4.31-8.13.28-6.48-.11-13,.31-19.47.55-8.4,9.09-15.11,17.26-13.26,1.87.42,3.43,3.67,4.45,5.93C673.31,201.33,673.21,203.73,673.54,205.92Z"
       transform="translate(-445.5 -121.26)"
       id="path32234" />
  </g>
  <path
     id="shine"
     d="M 1.5799992,0.66402955 V 207.04091 c 0,229.66454 239.9200008,319.6031 239.9200008,319.6031 0,0 239.92,-89.93856 239.92,-319.6031 V 0.66402955 Z"
     style="fill:url(#rg);stroke:#000000;stroke-width:2.41218" />
</svg>
