<?xml version="1.0" encoding="UTF-8" standalone="no"?>
<svg
   viewBox="0 0 483 527.48"
   version="1.1"
   id="svg3828"
   sodipodi:docname="House Umber GoT.svg"
   inkscape:version="1.2.1 (9c6d41e410, 2022-07-14)"
   xmlns:inkscape="http://www.inkscape.org/namespaces/inkscape"
   xmlns:sodipodi="http://sodipodi.sourceforge.net/DTD/sodipodi-0.dtd"
   xmlns="http://www.w3.org/2000/svg"
   xmlns:svg="http://www.w3.org/2000/svg">
  <sodipodi:namedview
     id="namedview3830"
     pagecolor="#ffffff"
     bordercolor="#000000"
     borderopacity="0.25"
     inkscape:showpageshadow="2"
     inkscape:pageopacity="0.0"
     inkscape:pagecheckerboard="0"
     inkscape:deskcolor="#d1d1d1"
     showgrid="false"
     inkscape:zoom="0.79339504"
     inkscape:cx="152.50915"
     inkscape:cy="210.48783"
     inkscape:window-width="1920"
     inkscape:window-height="1017"
     inkscape:window-x="-8"
     inkscape:window-y="-8"
     inkscape:window-maximized="1"
     inkscape:current-layer="svg3828" />
  <defs
     id="defs3658">
    <style
       id="style3656">.cls-1,.cls-3{fill:#a61d21;}.cls-1{stroke:#000;stroke-width:3px;}.cls-2{fill:#2e2929;}.cls-4{fill:#cccbcb;}.cls-5{fill:#cbcaca;}.cls-6{fill:#cccaca;}.cls-7{fill:#a51d21;}.cls-8{fill:#cbc9c9;}.cls-9{fill:#cccbca;}.cls-10{fill:#cac9c9;}.cls-11{fill:#bdbaba;}.cls-12{fill:#c1bebe;}.cls-13{fill:#c9c7c7;}.cls-14{fill:#c9c8c8;}.cls-15{fill:#cac8c8;}.cls-16{fill:#c7c5c5;}.cls-17{fill:#c9c7c8;}.cls-18{fill:#a41d21;}.cls-19{fill:#c7c6c6;}.cls-20{fill:#c8c6c6;}.cls-21{fill:#c6c4c4;}.cls-22{fill:#c4c2c2;}.cls-23{fill:#a9a4a4;}.cls-24{fill:#c8c4c4;}.cls-25{fill:#453e3e;}.cls-26{fill:#9c9697;}.cls-27{fill:#726869;}.cls-28{fill:#9b9595;}.cls-29{fill:#7b7272;}.cls-30{fill:#afaaab;}.cls-31{fill:#c5c1c1;}.cls-32{fill:#b8b3b3;}.cls-33{fill:#b7b3b3;}.cls-34{fill:#9d9797;}.cls-35{fill:#ada7a8;}</style>
    <radialGradient
       id="rg"
       gradientUnits="userSpaceOnUse"
       cx="220"
       cy="220"
       r="405"
       gradientTransform="matrix(0.80510068,0,0,0.80302287,-0.0302021,-0.9020136)">
      <stop
         style="stop-color:#ffffff;stop-opacity:.3"
         offset="0"
         id="stop753" />
      <stop
         style="stop-color:#ffffff;stop-opacity:.2"
         offset=".2"
         id="stop755" />
      <stop
         style="stop-color:#666666;stop-opacity:.1"
         offset=".6"
         id="stop757" />
      <stop
         style="stop-color:#000000;stop-opacity:.13"
         offset="1"
         id="stop759" />
    </radialGradient>
  </defs>
  <title
     id="title3660">House Umber</title>
  <g
     id="Layer_2"
     data-name="Layer 2">
    <path
       class="cls-1"
       d="M927,122.76V328.6a314.37,314.37,0,0,1-2.28,38c-.11.93-.24,1.86-.36,2.79s-.24,1.86-.39,2.79q-.7,5.05-1.61,10c-.07.44-.15.87-.23,1.31-.15.8-.29,1.6-.45,2.39s-.34,1.8-.51,2.69l-.45,2.22-.24,1.16c-.15.71-.3,1.44-.47,2.15q-.8,3.55-1.61,7l-.58,2.32-.52,2q-1.52,5.88-3.27,11.61c-.29,1-.59,1.94-.9,2.92l-.6,1.88c-.19.63-.39,1.25-.6,1.86l-1.1,3.26c-.37,1.09-.68,2-1,3-.47,1.28-.92,2.55-1.39,3.81-.36,1-.73,2-1.11,3l-.19.49c-.43,1.14-.87,2.25-1.32,3.37s-.87,2.16-1.32,3.19a3.35,3.35,0,0,1-.18.42c-.4,1-.8,2-1.25,3s-.75,1.75-1.13,2.62l-.66,1.49c-.47,1.07-.95,2.12-1.44,3.15s-.9,2-1.36,2.93l-1,2.12c-.3.63-.6,1.25-.91,1.88-.63,1.32-1.31,2.64-2,4q-2.53,5-5.19,9.77l-2,3.57-.11.21q-2.13,3.71-4.33,7.33c-.71,1.2-1.46,2.39-2.18,3.54-.1.16-.19.31-.3.46-.55.89-1.12,1.78-1.69,2.66l-.66,1c-.65,1-1.31,2-2,3l-.13.18c-.66,1-1.32,2-2,3l-.45.67q-2.26,3.28-4.54,6.46l-.31.42c-.8,1.07-1.54,2.14-2.31,3.19s-1.66,2.23-2.5,3.32q-2.29,3-4.61,6l-.8,1c-.73.93-1.48,1.85-2.22,2.76L854,526.61l-.57.69L851,530.1q-2.83,3.32-5.72,6.53c-.75.85-1.52,1.69-2.29,2.51l-2.22,2.39q-3,3.19-5.93,6.24-2.76,2.83-5.53,5.59c-.91.91-1.84,1.82-2.76,2.71s-1.85,1.78-2.78,2.67l-2.28,2.11c-.68.65-1.36,1.28-2.05,1.91a448.64,448.64,0,0,1-61.76,47.47c-.86.55-1.73,1.1-2.58,1.6q-6.42,4.07-12.46,7.63l-2.41,1.4-2.36,1.36-2.34,1.35-2.22,1.28c-8.35,4.68-15.91,8.59-22.38,11.76l-1.61.8c-10.63,5.15-18.11,8.22-21,9.35l-.42.18-.61.23-.14.06h-.08l-.23-.1-.21,0-1.07-.42-.55-.23c-.87-.34-2-.8-3.36-1.38l-.47-.18c-1.76-.8-3.88-1.67-6.33-2.77l-1.39-.61a443.16,443.16,0,0,1-39.74-20.6c-.8-.45-1.61-.92-2.36-1.38a473.14,473.14,0,0,1-44.78-30l-2.62-2c-1-.75-2-1.52-2.95-2.29l-2.81-2.21c-6.19-4.92-12.43-10.15-18.64-15.69L558.08,566q-2.3-2.05-4.59-4.2l-1.67-1.57L550,558.54l-2-1.94c-1.12-1.07-2.24-2.16-3.34-3.26-.84-.8-1.69-1.67-2.52-2.51l-.24-.26q-1.25-1.25-2.5-2.51c-.66-.68-1.32-1.36-2-2l-2-2.07-.13-.15-2.1-2.24q-3.36-3.61-6.66-7.36c-.68-.8-1.36-1.55-2-2.35-.57-.65-1.12-1.28-1.66-1.94l-2-2.39q-4.26-5.11-8.39-10.48-1.13-1.45-2.24-2.92c-1.89-2.47-3.73-5-5.57-7.55l-1.68-2.39c-.13-.16-.24-.34-.36-.5-.59-.85-1.19-1.7-1.77-2.55-.95-1.38-1.89-2.77-2.82-4.17q-1.11-1.64-2.18-3.31l-.15-.24-2.22-3.47c-.07-.13-.15-.24-.22-.37-.71-1.14-1.41-2.27-2.1-3.4s-1.49-2.46-2.21-3.7-1.44-2.39-2.13-3.67q-4.6-8-8.77-16.47c-.35-.69-.69-1.38-1-2.08-.22-.44-.44-.89-.65-1.35-.43-.87-.8-1.75-1.25-2.63a27.17,27.17,0,0,1-1.15-2.47l-.23-.48c-.26-.58-.52-1.16-.8-1.75l-.26-.57c-.26-.58-.52-1.18-.8-1.77q-1.44-3.26-2.78-6.58c-.42-1-.8-2-1.23-3.07-.1-.26-.21-.53-.31-.8-.4-1-.8-2-1.16-3s-.68-1.82-1-2.74l-.23-.65c-.18-.45-.34-.91-.5-1.36q-1-2.69-1.89-5.44c-.21-.6-.4-1.21-.6-1.8-.26-.8-.51-1.54-.75-2.31-.14-.42-.26-.8-.39-1.22-.26-.8-.5-1.6-.75-2.39-.31-1-.61-2.06-.92-3.1-.18-.65-.39-1.28-.57-2-.37-1.28-.74-2.58-1.08-3.89-.19-.68-.37-1.35-.55-2-.13-.5-.26-1-.39-1.51-.32-1.22-.63-2.46-.92-3.7-.18-.7-.35-1.4-.52-2.11-.07-.29-.13-.57-.19-.85-.37-1.55-.71-3.11-1.07-4.69-.26-1.16-.5-2.33-.74-3.5-.14-.71-.29-1.43-.43-2.14s-.32-1.6-.47-2.45a2.13,2.13,0,0,0-.1-.47c-.15-.8-.3-1.64-.45-2.48s-.31-1.84-.47-2.77-.3-1.8-.45-2.71q-.87-5.52-1.56-11.17A314.73,314.73,0,0,1,447,328.58V122.76Z"
       transform="translate(-445.5 -121.26)"
       id="path3662" />
  </g>
  <g
     id="Guideline">
    <path
       class="cls-2"
       d="M803.27,462.6c-.62,11.57,4.37,20.93,13.52,28.07,3.1,2.42,3.77,5.69,4.26,8.85a5.57,5.57,0,0,1-7.14,6.35c-4.29-1.3-7.83.64-11.44,2-3,1.07-4.83.59-7-1.61C784.22,494.5,780.3,481,785,465.2c1.41-4.75-1-10.19-5.71-10.6-9.93-.86-14.9-7.25-18.72-15.18a4.78,4.78,0,0,0-4.08-3.14c-10.6-1.74-18-7.38-20.73-18.12-.38-1.49-.54-2.89-2-3.81-6.12-3.82-10.23-9.38-13.2-15.82-1-2.17-2.41-3-4.8-3.06-7.27-.3-13.16-3.19-16.42-10.07-1-2.08-2.45-2.62-4.54-2.46-6.28.47-12.45.08-18.24-2.74a3.89,3.89,0,0,0-1.6-.5c-3.08,0-14.08,11.15-14.22,14.34-.49,11.46-6.41,18.05-17.66,19.79-2.58.4-5.26.67-6.88,3.28-3.6,5.78-9.06,9.58-14.67,13-2.93,1.81-4.31,3.81-4,7.3,1.32,14-8,21.43-21.53,21.49-7.68,0-8,.76-5.21,7.73,3.56,8.91,1.67,18.27,1.68,27.46,0,.52-.44,1.5-.59,1.48-6.48-.74-9.26,7.43-16.11,6.47-3.35-.47-4.58-1.11-4.53-4.57.13-8.87.19-17.76-.17-26.62-.7-17.15-4.76-17.43-19.7-11.52-2.57,1-4.5,1.93-7.34,1-4.25-1.39-8.52-2.54-13,.39-2.56,1.67-5.41.2-7.46-2.24s-1-4.38.52-6.58c6-8.86,18.86-13.44,31.38-10.79,3.84.81,7.58,2.17,11.35,3.3,4.5,1.34,8.34-1.59,8.22-6.29-.27-10.26,6.74-18.8,17.68-20.82,2.93-.54,4.34-1.74,6-4,4.43-6,10.47-10.27,16.76-14.14,2.68-1.65,4.18-3.4,4.59-7,1.46-12.73,11.78-18,23.58-17.86,3.46,0,5.68-.47,7.73-2.94a9.49,9.49,0,0,1,2.43-2.36c5.24-2.9,6.06-6.93,3.35-12a2.59,2.59,0,0,1-.19-1.11c-.23-8.12-1.47-15.35-9.69-20.07-3.53-2-4.61-7.28-4.66-11.72,0-3.09-.87-5.42-3.28-7.37a31.25,31.25,0,0,1-8.87-11.62c-2.29-5.2-5.81-7.78-11.11-9.08-7.31-1.79-12.47-6.18-14-13.89a4.87,4.87,0,0,0-2.94-3.77c-7.34-3.59-11-10-13.09-17.52-1.59-5.68-4.52-6.53-9-3.05-12.33,9.48-26.32,11.41-41.23,8.56-3.31-.63-6.63-1.4-3.87-6.16.53-.92-.44-2.59-.25-3.85.4-2.69-3.11-6.37,0-7.74,4.39-1.92,8.85-5.12,14.42-2.92,7.45,2.93,15.19,4.24,23.21,2.33,3.83-.91,5.92-2.74,6.68-7.12,2.41-13.87-1.31-25.38-11.9-34.55a12.12,12.12,0,0,1-4.2-9.46c-.11-5.12,2.58-7.46,7.42-6.09,3.85,1.09,7.2-.19,10.36-1.54,4.15-1.78,6.76-.49,9.2,2.7,9.25,12.15,12.7,25.44,8,40.33-1.59,5,.14,9.39,5.31,10.38,9.14,1.75,14.67,7.24,18,15.41,1,2.37,2.49,3.14,5,3.72,9.88,2.3,17.2,7.69,19.18,18.3a7.3,7.3,0,0,0,3.27,4.86,33.69,33.69,0,0,1,11.29,14.6c1,2.6,2.21,3.83,5.16,4.17,6.79.78,12.83,3.2,15.89,10.05.75,1.69,1.82,1.88,3.61,1.68,3.35-.38,7.09-1.2,10.08-.16,6.4,2.23,11,1.17,16-3.59,2.57-2.45,4.26-4.2,4-7.78-.64-8.89,7.48-20.49,18.28-19.66,2,.15,3.94-.15,4.86-2.15,3.17-6.92,9.44-10.68,15.27-14.75,2.89-2,3.68-4.1,3.59-7.46-.39-14.53,6.7-21.61,21.6-22,6.42-.15,6.87-1.29,4.48-7.14-3.64-8.92-4.14-18.27-2.34-27.74.1-.55.24-1.55.41-1.56,6.39-.43,9.69-8.4,17-6.82,2.53.54,3,1.61,3.05,3.72.34,9.23.83,18.45,1.12,27.68.44,14.12,6.47,18.06,18.66,11.07a12.78,12.78,0,0,1,11.52-1.1c3.24,1.07,6.11,1.07,9-1.19,3.17-2.46,5.93-.56,8.54,1.56,3,2.46,1.23,4.55-.3,6.79-7.65,11.17-18.87,12.87-31.07,11.47A41,41,0,0,1,807.72,252a6.22,6.22,0,0,0-8.71,5.87c-.31,13.12-5.36,19.29-18.13,21.93a5.22,5.22,0,0,0-3.64,2.22,64.86,64.86,0,0,1-18.52,17.22c-1.95,1.22-3,2.39-3.08,4.81-.72,13.95-11.13,19.82-22.39,19.67-6.37-.08-8.8,4.2-12.41,7.49-1.07,1-.29,2,.21,3a33.94,33.94,0,0,1,3,17.62c-.21,2.87.31,4.71,3.26,6.3A19.46,19.46,0,0,1,737.84,374a11.54,11.54,0,0,0,4.16,8.32,29.93,29.93,0,0,1,8.63,11.09c2.23,5.08,6,7.06,10.83,8.71,6.59,2.25,12.19,6.14,14.42,13.26A5.66,5.66,0,0,0,779.1,419a25.21,25.21,0,0,1,13.42,16.6c1.86,6.91,4.53,7.31,10.31,2.83,12-9.34,25.74-12,40.52-9,2.91.58,6.65,1.11,3.85,6.23-1,1.8.43,5.1,1.17,7.6.84,2.86-.24,3.95-2.82,5-5.58,2.23-11,3.34-16.83.76-4.78-2.1-10.05-1.7-15.1-1.19C804.8,448.67,803.35,450.91,803.27,462.6Z"
       transform="translate(-445.5 -121.26)"
       id="path3665" />
    <path
       class="cls-3"
       d="M699.55,327.84c-1.79,2.21-4.84,4.05-2.94,7.59,1.78,3.32,5,3.89,8.3,3.45,4.61-.6,8,0,8.83,5.61,1.1,7.24,0,10.5-5.42,12.8a16.69,16.69,0,0,0-9.14,8.73c-3.09,6.83-5.8,8.18-13.09,6.29-3.4-.88-8-.75-6.33-7.09.85-3.24-2.73-5-5.61-4.9-6.4.32-6.77-4.41-7.54-8.51-.83-4.41-.73-8.39,5.31-9.85,4.74-1.15,7.71-5.14,9.61-9.7,3-7.18,5.67-8.46,13.36-6.4C696.48,326.3,698.23,326.46,699.55,327.84Z"
       transform="translate(-445.5 -121.26)"
       id="path3667" />
    <path
       class="cls-4"
       d="M581.5,242.24a45.51,45.51,0,0,0-.39-17.91,35,35,0,0,0-12.74-20.14c-1.76-1.42-3.16-3.15-2.66-5.25.61-2.58,3.16-1,4.81-1.42s3.57-.32,4.87-1.2c5.73-3.91,8.59-.67,11.57,3.87,8.92,13.61,8.93,26-.37,38.2C585.4,239.95,584.42,241.94,581.5,242.24Z"
       transform="translate(-445.5 -121.26)"
       id="path3669" />
    <path
       class="cls-4"
       d="M801,454.64c0,3.65-.12,7.15,0,10.63.45,11,5.21,19.88,13.81,26.66,1.88,1.49,3.74,3.07,3.19,5.49s-3.18.92-4.79,1.46c-1.42.47-2.94.66-4.32,1.21-7.63,3.05-7.62,3.08-12.41-3.8-9-13-9-26.29,0-38.13C797.58,456.75,798.43,454.95,801,454.64Z"
       transform="translate(-445.5 -121.26)"
       id="path3671" />
    <path
       class="cls-5"
       d="M803.56,247.49c-2.2-1.45-4.42-2.86-6.59-4.35-1.61-1.11-3.11-1.55-1.64-4.62,2.06-4.31-2.32-5.77-5.27-5.45-3.5.38-4.31-1.41-5.19-3.72a48.13,48.13,0,0,1-2.43-23.9c.17-1.29.19-2.91,2.05-2.75,2.93.25,4.34-1.85,6.08-3.52.91-.88,1.61-2.38,3.18-1.82s1,2.24,1.06,3.43c.45,7.7.79,15.41,1.22,23.12C796.51,232.37,799.56,239.94,803.56,247.49Z"
       transform="translate(-445.5 -121.26)"
       id="path3673" />
    <path
       class="cls-4"
       d="M570.17,448.83c2.59,1.79,5.21,3.53,7.76,5.38,1,.7,2.19,1.15,1,3-3.19,5,1.07,6.28,4.26,6.29,3.52,0,4.57,1.7,5.56,4.28,3,7.86,1.95,16,1.71,24.07,0,1.27-.64,2.31-2,2.2-3.11-.25-4.73,1.92-6.61,3.75-.92.89-1.85,2.22-3.34,1.38-1.14-.64-.68-2-.7-3.08-.17-8.1.21-16.19-.58-24.31A59,59,0,0,0,570.17,448.83Z"
       transform="translate(-445.5 -121.26)"
       id="path3675" />
    <path
       class="cls-4"
       d="M798.47,446.11c8.91-11.55,29.8-18.43,43.08-15.08,6,1.51,3.41,7.08,3.06,8.8-.7,3.46-5.12,5.16-9.07,4.11-7.71-2.06-15.4-3.21-23.41-2.24C807.45,442.27,803.21,444,798.47,446.11Z"
       transform="translate(-445.5 -121.26)"
       id="path3677" />
    <path
       class="cls-6"
       d="M573.78,254l7.67-1.32c-1.94,4.11-5.35,5.72-8.5,7.4-9.1,4.86-19,5.8-29.09,5.15-2.35-.15-6.55-.69-6.21-2.19.69-3-2.28-6.52.28-8.49s5.5-4.06,9.32-2.48a20.41,20.41,0,0,0,8.77,1.91C561.94,254,567.86,253.3,573.78,254Z"
       transform="translate(-445.5 -121.26)"
       id="path3679" />
    <path
       class="cls-7"
       d="M607.39,438.58c-.73,4.54-2.35,8.72-6.94,10.76-2.88,1.28-6.09,2.88-6.86-2.66-.41-3-3.2-4.68-6-5.47-2.94-.85-3.31-2.75-2.85-5.16.81-4.25,3.37-6.83,7.51-8.29,3.78-1.34,6,.1,8,3a10.27,10.27,0,0,0,4.82,3.79C607,435.29,607.91,436.44,607.39,438.58Z"
       transform="translate(-445.5 -121.26)"
       id="path3681" />
    <path
       class="cls-3"
       d="M779.53,269.65a4.06,4.06,0,0,1-4.46-2.28c-.92-1.67-2.27-3.32-4.1-3.71-5.73-1.22-4.42-5-3.24-8.56,1.51-4.51,4.64-9.61,9.36-7.77,4.9,1.91,9.5,6.47,12.39,11C792.08,262.46,785.48,269.46,779.53,269.65Z"
       transform="translate(-445.5 -121.26)"
       id="path3683" />
    <path
       class="cls-5"
       d="M704.24,337.34c-2.09-.37-5-.51-5.64-3.33-.78-3.39,2.6-2.94,4.45-3.76,9.71-4.26,18.44-9.52,22-20.41.57-1.72,1.51-3.9,3.88-3.19,2.19.66,3,2.66,2.78,5C731,320.09,712.83,337.27,704.24,337.34Z"
       transform="translate(-445.5 -121.26)"
       id="path3685" />
    <path
       class="cls-5"
       d="M643.91,386.06a25.42,25.42,0,0,1,2.05-4.54,56.37,56.37,0,0,1,18.27-17.42c3.36-2,7-2.82,10.86-1.51a3.23,3.23,0,0,1,2.54,3.32c-.08,1.61-1.27,2-2.63,2.42-10.9,3.61-20.3,9.09-24.68,20.57-.63,1.64-1.77,3.32-3.71,2.79C644.33,391.08,643.64,389,643.91,386.06Z"
       transform="translate(-445.5 -121.26)"
       id="path3687" />
    <path
       class="cls-5"
       d="M709.33,324.05c-2.32,2.1-4.23,3.48-7.81,1.74-11.15-5.42-22.39-3.11-30.66,6.22-2.53,2.85-4.92,3.54-8.29,2.32C669.77,317.21,695.22,311.22,709.33,324.05Z"
       transform="translate(-445.5 -121.26)"
       id="path3689" />
    <path
       class="cls-5"
       d="M670.11,373.14c2.7-2.38,5.26-2.62,8.69-1,10.6,5.11,21.27,3.19,29.76-4.85A31.62,31.62,0,0,1,711,365c1.82-1.39,4.48-1.75,5.78-.44,1.7,1.72-.8,3.28-1.89,4.58C703.29,383.06,682.91,384.88,670.11,373.14Z"
       transform="translate(-445.5 -121.26)"
       id="path3691" />
    <path
       class="cls-8"
       d="M754.15,411.46c-1.43,4.56-4.68,5-8.25,4.75-12.35-.93-25.74-15.21-25.87-27.55a8.92,8.92,0,0,1,2.41-6.74c1.46-1.46,3.34-3.42,5.28-2.16s-.33,3-.88,4.42c-2.66,7-.9,13.11,4.11,18.17C737.19,408.66,744.36,413.32,754.15,411.46Z"
       transform="translate(-445.5 -121.26)"
       id="path3693" />
    <path
       class="cls-8"
       d="M764,272.44c4.38-1,8-.55,11.72-.41,13.46.5,19.88-9.12,14.13-21.17-.93-1.94-2.26-4.3-.1-5.41,1.72-.89,2.95,1.78,3.93,3.24,4,5.92,4.79,12.43,1.65,18.77-3.25,6.54-9,9.94-16.42,10.25A20.72,20.72,0,0,1,764,272.44Z"
       transform="translate(-445.5 -121.26)"
       id="path3695" />
    <path
       class="cls-5"
       d="M610,424.6c-3.3,1.58-6.65.74-10,.48-14.43-1.16-21,7.76-15.62,21.14.74,1.82,1.17,3.52,0,5.27-7.75-4.79-9.71-16.05-4.22-24.12C586.65,417.8,599.59,416.57,610,424.6Z"
       transform="translate(-445.5 -121.26)"
       id="path3697" />
    <path
       class="cls-8"
       d="M627.62,286.55c1-4,3.66-4.43,6.55-4.44,13-.07,27.89,16.51,26.55,29.48-.46,4.44-2.42,6.37-9,8.16,4.45-8.48,5.28-16.43-1.52-23.5C644.12,290,637.19,285.53,627.62,286.55Z"
       transform="translate(-445.5 -121.26)"
       id="path3699" />
    <path
       class="cls-8"
       d="M630.32,397.43c6.08,1.75,8.25,4.89,7.22,10.31a23.9,23.9,0,0,1-7.79,13.41,54.39,54.39,0,0,1-17,11c-4.28,1.65-8,1.06-11.37-3.87,9.64,1.3,16.6-2.36,22.64-8.48S633.33,406.7,630.32,397.43Z"
       transform="translate(-445.5 -121.26)"
       id="path3701" />
    <path
       class="cls-9"
       d="M652.51,308.4c.64,2.66-.6,4.35-1.51,6.2-5.18,10.48,2.58,22.67,14.36,22.68a7.45,7.45,0,0,0,6.42-2.78c2.07-2.58,4.26-5.19,7.84-6.13-.68,7-5.17,11.5-12.22,12.59-9.65,1.49-18.29-3.18-21.54-11.65S644.59,314,652.51,308.4Z"
       transform="translate(-445.5 -121.26)"
       id="path3703" />
    <path
       class="cls-10"
       d="M744.9,300.2c-5.46-.83-7.53-3.48-7.35-8.16a18.86,18.86,0,0,1,3.52-10.54,49.05,49.05,0,0,1,20.63-16.14c4.82-2.1,6.74-1.34,11.3,3.38-9.23-.72-16.19,2.79-22.12,9S742.08,291.18,744.9,300.2Z"
       transform="translate(-445.5 -121.26)"
       id="path3705" />
    <path
       class="cls-7"
       d="M746.66,305.46c.1,3.9-7.55,10.31-11.27,9.58-1.67-.32-1.45-1.18-1.33-2.41.5-5.08-1.61-8.07-7-7.94-3,.07-3.14-1.64-2.55-3.65a10.77,10.77,0,0,1,7.24-7.36c1.25-.43,3-.7,3.3,1,1,5.27,5.19,6.49,9.27,8C745.68,303.16,746.75,303.82,746.66,305.46Z"
       transform="translate(-445.5 -121.26)"
       id="path3707" />
    <path
       class="cls-7"
       d="M641.51,386.66c.42,3.93,1.47,7.77,6.37,7.44,3.4-.23,2.83,1.64,2.53,3.32-.79,4.43-4.1,6.45-8,7.69-2,.62-2.05-.91-2.46-2.15a10.71,10.71,0,0,0-8.36-7.51c-1.68-.37-2.7-.9-2.74-2.83-.08-4,7.76-10.38,11.76-9.51C643.28,383.7,641.52,385.37,641.51,386.66Z"
       transform="translate(-445.5 -121.26)"
       id="path3709" />
    <path
       class="cls-8"
       d="M700.44,369.79c2.92-8.53,8.41-12.24,16.85-11.84,9.28.44,15.91,5.53,17.88,13.74,2,8.5,0,14.38-6.41,17.91-1.33-2.68.73-4.66,1.42-6.89,1.9-6.15.35-11.71-3.52-16.43-3.74-4.56-9-4.92-14.53-3.9-2.69.5-4.15,2.4-5.94,4A11.14,11.14,0,0,1,700.44,369.79Z"
       transform="translate(-445.5 -121.26)"
       id="path3711" />
    <path
       class="cls-11"
       d="M837.38,448.57c-3.51.38-6.55-1.44-9.83-2.14-14.71-3.15-26.83,1.13-34.31,12.35-8,12.05-7.79,25.87.82,38.05,2.13,3,4.6,5.8,6.93,8.7-2.37,1.78-3.32-.11-4.43-1.2a38,38,0,0,1-4.94-48.24c6.57-9.71,16.51-12.68,27.53-12.58a45.6,45.6,0,0,1,17.12,3.22C837.18,447,837.76,447.5,837.38,448.57Z"
       transform="translate(-445.5 -121.26)"
       id="path3713" />
    <path
       class="cls-12"
       d="M548.59,248c5.43,1.53,10.85,3.06,16.58,3,12-.18,20.86-5.72,26.51-16.21,6.4-11.89,5.45-23.51-2-34.64-2-3-4.27-5.81-6.85-9.3,8.32,2.37,15.59,17.3,15.21,29.6-.54,17.52-10,28.53-28,32.44a11.06,11.06,0,0,1-9.24,0,58.93,58.93,0,0,1-14.58-3.72C546.15,247,547.42,247.58,548.59,248Z"
       transform="translate(-445.5 -121.26)"
       id="path3715" />
    <path
       class="cls-8"
       d="M612.69,267.57c1.35,3.42.09,6.14.06,8.86-.11,8.61,6,14.49,14.62,13.86,2.24-.16,4.49-.35,6.73-.32a2.69,2.69,0,0,1,2.71,2.4,2.45,2.45,0,0,1-1.3,2.79c-4.52,2.9-18.23-.44-24.19-5.93-4.58-4.22-5.43-11.6-1.9-17.63A34.93,34.93,0,0,1,612.69,267.57Z"
       transform="translate(-445.5 -121.26)"
       id="path3717" />
    <path
       class="cls-7"
       d="M728.4,374.14c.21,2.26-1.35,2.78-3.07,3.32a10.06,10.06,0,0,0-6.53,5.81c-.55,1.28-.55,3.34-2.76,2.79-3.47-.86-6-3.29-7.87-6.09-1.53-2.29,1.49-2.43,2.49-3.5,2.43-2.61,5.57-4.77,7.31-7.76,2.59-4.45,4.48-3.27,7.07-.34A14.28,14.28,0,0,1,728.4,374.14Z"
       transform="translate(-445.5 -121.26)"
       id="path3719" />
    <path
       class="cls-13"
       d="M615.31,274.89c2-17.93-5.51-26.24-23.27-24.9,5.89-6.4,14.95-6.1,21-.5C621.52,257.27,622.77,266.34,615.31,274.89Z"
       transform="translate(-445.5 -121.26)"
       id="path3721" />
    <path
       class="cls-7"
       d="M756.86,428.38c-3.06-.88-5.91-2-7.83-4.39s-4.67-5.54,1.69-6c2.4-.17,4-1.81,5-4,.85-1.82.91-4.79,4.47-2.91,3.29,1.73,7.15,3.84,6.08,7.63-1,3.48-4.36,6.33-6.87,9.3C759,428.52,757.66,428.28,756.86,428.38Z"
       transform="translate(-445.5 -121.26)"
       id="path3723" />
    <path
       class="cls-7"
       d="M635.2,278.34c0,1.79-1.43,1.39-2.43,1.48-3.71.35-6.32,2-7.51,5.72-.93,2.92-2.78,2.4-4.84,1.07-6-3.88-6.33-6.48-1.24-12.29,1.69-1.93,2.24-5.71,6.17-4.56a14.37,14.37,0,0,1,9.37,7.54C634.9,277.65,635,278,635.2,278.34Z"
       transform="translate(-445.5 -121.26)"
       id="path3725" />
    <path
       class="cls-14"
       d="M810.86,242.72c5-1.33,10.09-2.1,14.24-5.21,1.24-.93,2.5-.38,3.78-.11,5.1,1.06,10.26,4,15.18-1.12C837.22,248.35,821.86,251.14,810.86,242.72Z"
       transform="translate(-445.5 -121.26)"
       id="path3727" />
    <path
       class="cls-15"
       d="M768.79,430.54a19.68,19.68,0,0,1,.21-7.22c1.36-9.32-5.67-16.5-15.11-15.59-2.23.22-4.48.39-6.73.4a2.49,2.49,0,0,1-2.64-2.39c-.22-1.58.58-2.39,1.93-3,8.26-3.72,29.39,6.23,27.82,16.93A17.34,17.34,0,0,1,768.79,430.54Z"
       transform="translate(-445.5 -121.26)"
       id="path3729" />
    <path
       class="cls-15"
       d="M563.23,453.4c-5.69,1.28-10.7,2.1-15,5-1.57,1.07-3.29-.08-4.89-.54-4.67-1.35-9.36-3.54-13.6,1.47C535.35,447.79,552.21,444.41,563.23,453.4Z"
       transform="translate(-445.5 -121.26)"
       id="path3731" />
    <path
       class="cls-5"
       d="M766.22,423.71c-.59,7.18.37,13.3,4.9,18.7,5,5.94,12,4,18.46,5.16-4,6-12.94,6.3-19.44,1.23C761,441.65,759,431.24,766.22,423.71Z"
       transform="translate(-445.5 -121.26)"
       id="path3733" />
    <path
       class="cls-7"
       d="M658.88,333.22c-4-1.55-5.47-4.84-6.64-8.21s2-3,3.63-3.71a14.68,14.68,0,0,0,5.57-4.62c1-1.3.73-4.37,3.47-3.48a13.82,13.82,0,0,1,7.22,5.17c.71,1-.12,1.79-.88,2.32A33.62,33.62,0,0,0,660.5,332C660.2,332.57,659.4,332.85,658.88,333.22Z"
       transform="translate(-445.5 -121.26)"
       id="path3735" />
    <path
       class="cls-7"
       d="M765.79,278c-.06,3.62-10.13,13.1-13.89,13.09-3,0-5.3-3.6-3.75-6.09,2.6-4.16,5.51-8.12,9.83-10.68C760.55,272.85,765.84,275.45,765.79,278Z"
       transform="translate(-445.5 -121.26)"
       id="path3737" />
    <path
       class="cls-7"
       d="M623,406.38c2.7-.06,5.33,3.75,4.06,5.93a34.6,34.6,0,0,1-8.93,10c-3,2.31-5.57,1.2-8.06-.92-3.13-2.65,0-4.45,1.11-6.12C614.15,411,618.49,408.35,623,406.38Z"
       transform="translate(-445.5 -121.26)"
       id="path3739" />
    <path
       class="cls-16"
       d="M746.34,291.06c6.91,5.32,8.63,12,5.48,19.76-3,7.3-11.21,11.43-21.23,10.51.26-2.9,1.7-3.88,4.64-4.14,11.57-1.05,16.57-9.82,11.65-20.17A8.49,8.49,0,0,1,746.34,291.06Z"
       transform="translate(-445.5 -121.26)"
       id="path3741" />
    <path
       class="cls-14"
       d="M655.61,384c7.24,11.06,0,26.92-12.33,27.84-1.4.11-3.7,1.25-3.94-1.59-.15-1.79,1.07-2.36,2.74-2.9,9-2.92,11.07-6,10.75-15.21C652.72,388.76,652.72,388.76,655.61,384Z"
       transform="translate(-445.5 -121.26)"
       id="path3743" />
    <path
       class="cls-17"
       d="M645.38,377.51c-.68,2.16-1.9,3.06-4.33,3.32-12.41,1.36-17.13,9.06-12.68,20.35a7,7,0,0,1,.36,4.94c-6.08-3-8.32-10.62-5.38-18.26C626.43,379.86,636.29,375.17,645.38,377.51Z"
       transform="translate(-445.5 -121.26)"
       id="path3745" />
    <path
       class="cls-13"
       d="M719.67,315.26c-3.77-6.89-3.53-13.37-.55-19.81a14.74,14.74,0,0,1,12.81-8.88c1.21-.1,3.26-1.17,3.51,1.35.18,1.79-1,2.4-2.62,3-8.8,3.24-10.83,6.49-10,15.64C723.12,309.77,722.07,312.35,719.67,315.26Z"
       transform="translate(-445.5 -121.26)"
       id="path3747" />
    <path
       class="cls-10"
       d="M615.26,439.54c-.14,11.3-9.15,18.87-20.15,17.19-.8-.12-2.12.27-2-1.19.1-1.1.49-2.42,1.85-2.5,10.18-.56,13.79-7.13,14.94-16.07a3,3,0,0,1,3.88-2.42C616.65,435.29,614.54,438.08,615.26,439.54Z"
       transform="translate(-445.5 -121.26)"
       id="path3749" />
    <path
       class="cls-15"
       d="M777.19,240.39c1.07.4,3.28-1,3.28,1.52,0,1.81-1.57,2.3-3.2,2.48-8.17.87-11.3,6.41-12.58,13.65a14,14,0,0,1-.7,3.27,3.39,3.39,0,0,1-3.82,1.74c-1.54-.2-1-1.76-1.12-2.76C757.66,248.26,764.53,240.68,777.19,240.39Z"
       transform="translate(-445.5 -121.26)"
       id="path3751" />
    <path
       class="cls-18"
       d="M602.89,252.93c5.69,1,8.16,5,9.6,9.29,1.24,3.66-3.88,4.49-4.91,7.45-.08.22-1.11.39-1.47.19-3.73-2.08-6.73-4.9-8.17-9-1.21-3.46,2.88-4.47,3.56-7.13C601.61,253.25,602.67,253,602.89,252.93Z"
       transform="translate(-445.5 -121.26)"
       id="path3753" />
    <path
       class="cls-7"
       d="M779.13,444.25c-3.89-.24-10.4-7.2-9.52-10,.93-2.93,3-5.67,6.13-6.5,2.09-.56,9.9,8.51,8.8,10C782.82,440.12,782.22,443.87,779.13,444.25Z"
       transform="translate(-445.5 -121.26)"
       id="path3755" />
    <path
       class="cls-19"
       d="M805.8,242.23c11.3,10.26,25.59,10.3,37.25.08,1-.87,1.86-1.88,2.84-2.76.75-.68,1.43-2.14,2.67-1,1,1,.23,2.11-.4,3a29,29,0,0,1-2.11,2.66c-10.46,12-32.9,12.68-41.77-1.85A1.1,1.1,0,0,1,805.8,242.23Z"
       transform="translate(-445.5 -121.26)"
       id="path3757" />
    <path
       class="cls-19"
       d="M568.83,454.74c-12.77-12-27-11.88-40.18.17-1,.89-1.88,3.24-3.45,1.86-1.78-1.55.27-3,1.25-4.26,10.94-13.88,34.82-12.92,42.49.65A1.06,1.06,0,0,1,568.83,454.74Z"
       transform="translate(-445.5 -121.26)"
       id="path3759" />
    <path
       class="cls-15"
       d="M770.74,278.73c1.1.48,3.19.74,4,1.9s-.83,2.68-1.85,3.76c-4.44,4.65-9,9.13-14.62,12.43-1.34.79-2.66,2.41-4.09-.17-1.17-2.1-1-3.18,1.23-4.4,5.22-2.84,9.59-6.61,12.26-12.14C768.43,278.47,768.72,278.61,770.74,278.73Z"
       transform="translate(-445.5 -121.26)"
       id="path3761" />
    <path
       class="cls-15"
       d="M604.92,418.76c-1.5-.58-3.86-.78-4.79-2-1.12-1.51,1-2.84,2.12-4a61.45,61.45,0,0,1,14.86-12c1.41-.78,2.77-2,4.08.52,1.17,2.27.63,3.29-1.48,4.3-5.4,2.56-9.76,6.23-12.45,11.74C606.52,418.83,606.26,418.7,604.92,418.76Z"
       transform="translate(-445.5 -121.26)"
       id="path3763" />
    <path
       class="cls-18"
       d="M738.41,405.12c-2.74-.2-10-8-9.6-10.31a5.79,5.79,0,0,1,5.39-4.91c2.36-.26,9.44,8.86,8.6,11.09C742,403,740,404.29,738.41,405.12Z"
       transform="translate(-445.5 -121.26)"
       id="path3765" />
    <path
       class="cls-18"
       d="M652.28,304.32c-.16,2.24-2.71,2.62-4,4.12s-2.34.48-3.37-.5a26.13,26.13,0,0,1-6.06-8.1c-1.18-2.61.31-3.76,1.89-5.21,1.85-1.7,3.31-1.1,4.92.32A20.78,20.78,0,0,1,652.28,304.32Z"
       transform="translate(-445.5 -121.26)"
       id="path3767" />
    <path
       class="cls-15"
       d="M722.13,348.89c-.07,1.5-.15,3-.2,4.5-.09,2.43-1.65,2.44-3.51,2.35S715.78,355,716,353a24,24,0,0,0-1.8-13.76c-1.38-2.85.74-3.76,2.51-4.65,2.21-1.11,2.39,1.14,2.95,2.31A25.46,25.46,0,0,1,722.13,348.89Z"
       transform="translate(-445.5 -121.26)"
       id="path3769" />
    <path
       class="cls-19"
       d="M664.23,348.19a25.8,25.8,0,0,0,1.69,9.3c1.1,2.85-.5,3.61-2.55,4.47-2.73,1.13-2.72-1.19-3.18-2.59a27.64,27.64,0,0,1-1.73-11c.19-2.18-1-5,3.23-5.06C666.35,343.22,664.32,346.08,664.23,348.19Z"
       transform="translate(-445.5 -121.26)"
       id="path3771" />
    <path
       class="cls-16"
       d="M633.52,298.24c1.58-.37,2.62-.26,3,1.16,1.29,4.49,4.16,7.89,7.43,11.05,1.74,1.69.21,3.34-.63,4.5-1.46,2-2.59-.06-3.46-.94a60.66,60.66,0,0,1-8.62-11.73C629.06,298.62,630.94,298.22,633.52,298.24Z"
       transform="translate(-445.5 -121.26)"
       id="path3773" />
    <path
       class="cls-13"
       d="M643.16,281.28c-2.45-.41-4.62-.48-5.77-3.4-2.12-5.41-6.27-8.8-11.84-10.37-1.34-.38-2.73-.62-2.5-2.37.28-2.09,1.94-1.28,3.11-1.15C634.37,264.89,642,272.6,643.16,281.28Z"
       transform="translate(-445.5 -121.26)"
       id="path3775" />
    <path
       class="cls-20"
       d="M751.43,399.22c-4.17,1.77-6.56,1.18-8.06-3a15.22,15.22,0,0,0-4.75-6.18c-3-2.45-3.28-4.62-.24-7.49C744.12,386.77,748,392.53,751.43,399.22Z"
       transform="translate(-445.5 -121.26)"
       id="path3777" />
    <path
       class="cls-20"
       d="M756,434.08c-6.32-.41-15-6.94-16.8-12.75-.38-1.21-1.32-3,0-3.61a3.38,3.38,0,0,1,4.38,1.37c2.78,6.32,7.12,10.51,14.12,11.65a1.7,1.7,0,0,1,1.42,2.09C758.75,434.9,757.14,434,756,434.08Z"
       transform="translate(-445.5 -121.26)"
       id="path3779" />
    <path
       class="cls-21"
       d="M665.11,305.71c5.41.72,10.19,2.71,13.21,7.59.63,1,2.43,2.59,0,3.66-1.41.63-2.91,1.91-4.53,0-2.58-3.05-5.53-5.62-9.54-6.76-1.56-.45-1.44-2.08-1.34-3.38S664.18,305.76,665.11,305.71Z"
       transform="translate(-445.5 -121.26)"
       id="path3781" />
    <path
       class="cls-16"
       d="M700.79,383c7.2-.8,11,4.77,16.44,6.52.55.18.93,2.09.73,3s-1.54.87-2.44.73C709.14,392.36,703.62,390.13,700.79,383Z"
       transform="translate(-445.5 -121.26)"
       id="path3783" />
    <path
       class="cls-22"
       d="M790.59,436.91c-.06.12-.26,1-.47,1-.88,0-2.29,0-2.56-.46a31.54,31.54,0,0,0-11.18-12.38c-1.23-.75-.25-2.09-.12-3.13.18-1.39,1.09-1,2.06-.78C782.81,422.23,790.72,432,790.59,436.91Z"
       transform="translate(-445.5 -121.26)"
       id="path3785" />
    <path
       class="cls-20"
       d="M671.4,377.79c0,1.6-8,8.32-9.76,8.6-2.61.42-2.13-2.12-3.13-3.23-1.36-1.51-.58-2.81.84-3.69,2.74-1.69,4.62-5.31,8.46-4.51C669.22,375.25,670.35,376.92,671.4,377.79Z"
       transform="translate(-445.5 -121.26)"
       id="path3787" />
    <path
       class="cls-21"
       d="M585,442.58c4.91,1.88,7.76,3.69,7.15,7.82-.72,4.9-3.19,8.84-8,10.82a2.62,2.62,0,0,1-3.43-1.21c-.7-1.39.72-1.94,1.54-2.54C587.08,453.87,589.08,449.54,585,442.58Z"
       transform="translate(-445.5 -121.26)"
       id="path3789" />
    <path
       class="cls-21"
       d="M789.31,254.27c-5.43-1.86-8.23-3.91-7.48-8.25.8-4.61,3-8.57,7.61-10.49a2.57,2.57,0,0,1,3.44,1.11c.71,1.41-.79,1.91-1.54,2.59C787.13,243.09,784.12,247.19,789.31,254.27Z"
       transform="translate(-445.5 -121.26)"
       id="path3791" />
    <path
       class="cls-16"
       d="M605.87,273.58c-.51,1.81-.56,4-3.49,2.27a22,22,0,0,1-10.57-14.48c-.19-.81-.66-2,.7-2.23.65-.12,1.82.09,2,.51,2.68,5.21,6,9.85,11.11,12.94C605.86,272.73,605.81,273.28,605.87,273.58Z"
       transform="translate(-445.5 -121.26)"
       id="path3793" />
    <path
       class="cls-21"
       d="M715,311.79c1.57,1.3,2.92,3.63,2.66,5.46a6,6,0,0,1-5.51,4.81,5.39,5.39,0,0,1-4.9-3.8C707,317.26,713.53,311.66,715,311.79Z"
       transform="translate(-445.5 -121.26)"
       id="path3795" />
    <path
       class="cls-23"
       d="M574.23,464.79c2.18,11.39,1.27,22.87,1.49,34.32l-2,.11-.51-33.41C572.76,464.69,573.23,464.47,574.23,464.79Z"
       transform="translate(-445.5 -121.26)"
       id="path3797" />
    <path
       class="cls-24"
       d="M799.15,230.81c-2.06-10.91-1.5-22-2.2-32.95l1.51-.12,1.74,32.16C800.53,231,800.17,231.28,799.15,230.81Z"
       transform="translate(-445.5 -121.26)"
       id="path3799" />
    <path
       class="cls-11"
       d="M593,256.78c-1.31-.55-3.25-1.26-5.11-2.16-1.16-.56-2.56-1.23-1.26-2.94.81-1.06,1.54-2.21,3.21-1.46s3.48,1.43,5.2,2.19c1.22.53,3.64-.1,3.19,2.16S595.75,257.08,593,256.78Z"
       transform="translate(-445.5 -121.26)"
       id="path3801" />
    <path
       class="cls-22"
       d="M788.92,440.39c1.34.48,3.31,1,5.14,1.89,1,.46,2.88.8,1.86,2.66-.82,1.49-1.83,2.79-4,1.67-1.46-.76-3.18-1-4.68-1.71-1.18-.56-3.56.11-3.32-2S786.28,440.35,788.92,440.39Z"
       transform="translate(-445.5 -121.26)"
       id="path3803" />
    <path
       class="cls-25"
       d="M560.81,252.85h9.24c1,1.23,2.49.74,3.73,1.13a31.94,31.94,0,0,1-17.76,0C557.59,253.43,559.47,254.31,560.81,252.85Z"
       transform="translate(-445.5 -121.26)"
       id="path3805" />
    <path
       class="cls-26"
       d="M548.59,248c-.86.24-1.88.13-2.36,1.15-3.6-.68-6.29,3.26-10.09,1.67C540,248.66,543.67,245.87,548.59,248Z"
       transform="translate(-445.5 -121.26)"
       id="path3807" />
    <path
       class="cls-27"
       d="M799.15,230.81l1-.9c1.7,4.18,2.93,8.58,5.6,12.32l-1.53.17C800.81,239.31,800.57,234.8,799.15,230.81Z"
       transform="translate(-445.5 -121.26)"
       id="path3809" />
    <path
       class="cls-28"
       d="M837.38,448.57l-1.11-1.85c2.56.12,4.62-1.24,6.83-2.21,1-.43,2.37-2.22,3.14-.13.63,1.71-1.27,2-2.45,2.34C841.67,447.4,839.51,448,837.38,448.57Z"
       transform="translate(-445.5 -121.26)"
       id="path3811" />
    <path
       class="cls-29"
       d="M574.23,464.79l-1,1-4.35-11.07.11-1.58C571.87,456.51,573,460.66,574.23,464.79Z"
       transform="translate(-445.5 -121.26)"
       id="path3813" />
    <path
       class="cls-30"
       d="M801.88,249.85c-.89,1-1.94,2-3.27,1.71a2.56,2.56,0,0,1-1.84-3c.1-1.36,1.22-1.77,2.42-1.2S801.68,248.27,801.88,249.85Z"
       transform="translate(-445.5 -121.26)"
       id="path3815" />
    <path
       class="cls-31"
       d="M810.57,502.75c2.19-2,4.58-1.82,6.89-1.36.77.16.51,1.41,0,1.79C815.08,504.83,813,503,810.57,502.75Z"
       transform="translate(-445.5 -121.26)"
       id="path3817" />
    <path
       class="cls-32"
       d="M574.14,194c-.73.53-.87.72-1,.73-2.32.16-4.69,1.42-6.91-.24a1.78,1.78,0,0,1,.44-1.44C569.11,191.64,571.2,193.34,574.14,194Z"
       transform="translate(-445.5 -121.26)"
       id="path3819" />
    <path
       class="cls-33"
       d="M575.56,449.3c-1.3-.27-2.68-.82-3.06-2.09-.44-1.43,1.1-1.78,2.08-2.05,1.84-.51,2.15,1,2.5,2.27S576.63,449.08,575.56,449.3Z"
       transform="translate(-445.5 -121.26)"
       id="path3821" />
    <path
       class="cls-34"
       d="M595.3,239.6a3.37,3.37,0,0,1,2.63,2.52c.23,1.21-.91,1.41-1.84,1.43-1.24,0-2.18-.5-2.27-1.85A2,2,0,0,1,595.3,239.6Z"
       transform="translate(-445.5 -121.26)"
       id="path3823" />
    <path
       class="cls-35"
       d="M787.36,457.55a3.44,3.44,0,0,1-2.49-2.07c-.67-1.35.61-1.61,1.4-1.76a2,2,0,0,1,2.45,1.68A1.85,1.85,0,0,1,787.36,457.55Z"
       transform="translate(-445.5 -121.26)"
       id="path3825" />
  </g>
  <path
     id="shine"
     d="M 1.5799991,0.7040314 V 207.08091 c 0,229.66454 239.9200009,319.6031 239.9200009,319.6031 0,0 239.92,-89.93856 239.92,-319.6031 V 0.7040314 Z"
     style="fill:url(#rg);stroke:#000000;stroke-width:2.41218" />
</svg>
