<?xml version="1.0" encoding="UTF-8" standalone="no"?>
<svg
   viewBox="0 0 483 527.48"
   version="1.1"
   id="svg4906"
   sodipodi:docname="House Velaryon HotD.svg"
   inkscape:version="1.2.1 (9c6d41e410, 2022-07-14)"
   xmlns:inkscape="http://www.inkscape.org/namespaces/inkscape"
   xmlns:sodipodi="http://sodipodi.sourceforge.net/DTD/sodipodi-0.dtd"
   xmlns="http://www.w3.org/2000/svg"
   xmlns:svg="http://www.w3.org/2000/svg">
  <sodipodi:namedview
     id="namedview4908"
     pagecolor="#ffffff"
     bordercolor="#000000"
     borderopacity="0.25"
     inkscape:showpageshadow="2"
     inkscape:pageopacity="0.0"
     inkscape:pagecheckerboard="0"
     inkscape:deskcolor="#d1d1d1"
     showgrid="false"
     inkscape:zoom="1.12203"
     inkscape:cx="216.57174"
     inkscape:cy="238.85279"
     inkscape:window-width="1920"
     inkscape:window-height="1017"
     inkscape:window-x="-8"
     inkscape:window-y="-8"
     inkscape:window-maximized="1"
     inkscape:current-layer="svg4906" />
  <defs
     id="defs4460">
    <style
       id="style4458">.cls-1,.cls-3{fill:#1b5152;}.cls-1{stroke:#000;stroke-width:3px;}.cls-2{fill:#e1e1e1;}</style>
    <radialGradient
       id="rg"
       gradientUnits="userSpaceOnUse"
       cx="220"
       cy="220"
       r="405"
       gradientTransform="matrix(0.80510068,0,0,0.80302287,0.59778724,-0.89702086)">
      <stop
         style="stop-color:#ffffff;stop-opacity:.3"
         offset="0"
         id="stop753" />
      <stop
         style="stop-color:#ffffff;stop-opacity:.2"
         offset=".2"
         id="stop755" />
      <stop
         style="stop-color:#666666;stop-opacity:.1"
         offset=".6"
         id="stop757" />
      <stop
         style="stop-color:#000000;stop-opacity:.13"
         offset="1"
         id="stop759" />
    </radialGradient>
  </defs>
  <title
     id="title4462">Velaryon-Shield</title>
  <g
     id="Layer_4"
     data-name="Layer 4">
    <path
       class="cls-1"
       d="M923,121.76V327.6a314.37,314.37,0,0,1-2.28,38c-.11.93-.24,1.86-.36,2.79s-.24,1.86-.39,2.79q-.7,5.05-1.61,10c-.07.44-.15.87-.23,1.31-.15.8-.29,1.6-.45,2.39s-.34,1.8-.51,2.69l-.45,2.22-.24,1.16c-.15.71-.3,1.44-.47,2.15q-.8,3.55-1.61,7l-.58,2.32-.52,2q-1.52,5.88-3.27,11.61c-.29,1-.59,1.94-.9,2.92l-.6,1.88c-.19.63-.39,1.25-.6,1.86l-1.1,3.26c-.37,1.09-.68,2-1,3-.47,1.28-.92,2.55-1.39,3.81-.36,1-.73,2-1.11,3l-.19.49c-.43,1.14-.87,2.25-1.32,3.37s-.87,2.16-1.32,3.19a3.35,3.35,0,0,1-.18.42c-.4,1-.8,2-1.25,3s-.75,1.75-1.13,2.62l-.66,1.49c-.47,1.07-.95,2.12-1.44,3.15s-.9,2-1.36,2.93l-1,2.12c-.3.63-.6,1.25-.91,1.88-.63,1.32-1.31,2.64-2,4q-2.53,5-5.19,9.77l-2,3.57-.11.21q-2.13,3.71-4.33,7.33c-.71,1.2-1.46,2.39-2.18,3.54-.1.16-.19.31-.3.46-.55.89-1.12,1.78-1.69,2.66l-.66,1c-.65,1-1.31,2-2,3l-.13.18c-.66,1-1.32,2-2,3l-.45.67q-2.26,3.28-4.54,6.46l-.31.42c-.8,1.07-1.54,2.14-2.31,3.19s-1.66,2.23-2.5,3.32q-2.29,3-4.61,6l-.8,1c-.73.93-1.48,1.85-2.22,2.76L850,525.61l-.57.69L847,529.1q-2.83,3.32-5.72,6.53c-.75.85-1.52,1.69-2.29,2.51l-2.22,2.39q-3,3.19-5.93,6.24-2.76,2.83-5.53,5.59c-.91.91-1.84,1.82-2.76,2.71s-1.85,1.78-2.78,2.67l-2.28,2.11c-.68.65-1.36,1.28-2.05,1.91a448.64,448.64,0,0,1-61.76,47.47c-.86.55-1.73,1.1-2.58,1.6q-6.42,4.07-12.46,7.63l-2.41,1.4-2.36,1.36-2.34,1.35-2.22,1.28c-8.35,4.68-15.91,8.59-22.38,11.76l-1.61.8c-10.63,5.15-18.11,8.22-21,9.35l-.42.18-.61.23-.14.06h-.08l-.23-.1-.21,0-1.07-.42-.55-.23c-.87-.34-2-.8-3.36-1.38l-.47-.18c-1.76-.8-3.88-1.67-6.33-2.77l-1.39-.61a443.16,443.16,0,0,1-39.74-20.6c-.8-.45-1.61-.92-2.36-1.38a473.14,473.14,0,0,1-44.78-30l-2.62-2c-1-.75-2-1.52-2.95-2.29l-2.81-2.21c-6.19-4.92-12.43-10.15-18.64-15.69L554.08,565q-2.3-2.05-4.59-4.2l-1.67-1.57L546,557.54l-2-1.94c-1.12-1.07-2.24-2.16-3.34-3.26-.84-.8-1.69-1.67-2.52-2.51l-.24-.26q-1.25-1.25-2.5-2.51c-.66-.68-1.32-1.36-2-2l-2-2.07-.13-.15-2.1-2.24q-3.36-3.61-6.66-7.36c-.68-.8-1.36-1.55-2-2.35-.57-.65-1.12-1.28-1.66-1.94l-2-2.39q-4.26-5.11-8.39-10.48-1.13-1.45-2.24-2.92c-1.89-2.47-3.73-5-5.57-7.55l-1.68-2.39c-.13-.16-.24-.34-.36-.5-.59-.85-1.19-1.7-1.77-2.55-.95-1.38-1.89-2.77-2.82-4.17q-1.11-1.64-2.18-3.31l-.15-.24-2.22-3.47c-.07-.13-.15-.24-.22-.37-.71-1.14-1.41-2.27-2.1-3.4s-1.49-2.46-2.21-3.7-1.44-2.39-2.13-3.67q-4.6-8-8.77-16.47c-.35-.69-.69-1.38-1-2.08-.22-.44-.44-.89-.65-1.35-.43-.87-.8-1.75-1.25-2.63a27.17,27.17,0,0,1-1.15-2.47l-.23-.48c-.26-.58-.52-1.16-.8-1.75l-.26-.57c-.26-.58-.52-1.18-.8-1.77q-1.44-3.26-2.78-6.58c-.42-1-.8-2-1.23-3.07-.1-.26-.21-.53-.31-.8-.4-1-.8-2-1.16-3s-.68-1.82-1-2.74l-.23-.65c-.18-.45-.34-.91-.5-1.36q-1-2.69-1.89-5.44c-.21-.6-.4-1.21-.6-1.8-.26-.8-.51-1.54-.75-2.31-.14-.42-.26-.8-.39-1.22-.26-.8-.5-1.6-.75-2.39-.31-1-.61-2.06-.92-3.1-.18-.65-.39-1.28-.57-2-.37-1.28-.74-2.58-1.08-3.89-.19-.68-.37-1.35-.55-2-.13-.5-.26-1-.39-1.51-.32-1.22-.63-2.46-.92-3.7-.18-.7-.35-1.4-.52-2.11-.07-.29-.13-.57-.19-.85-.37-1.55-.71-3.11-1.07-4.69-.26-1.16-.5-2.33-.74-3.5-.14-.71-.29-1.43-.43-2.14s-.32-1.6-.47-2.45a2.13,2.13,0,0,0-.1-.47c-.15-.8-.3-1.64-.45-2.48s-.31-1.84-.47-2.77-.3-1.8-.45-2.71q-.87-5.52-1.56-11.17A314.73,314.73,0,0,1,443,327.58V121.76Z"
       transform="translate(-441.5 -120.26)"
       id="path4464" />
  </g>
  <g
     id="Layer_3"
     data-name="Layer 3">
    <path
       class="cls-2"
       d="M624.5,235.67s-4,1.17-7.33-6.5,1.67-11.5,4.67-11.33S647,207.67,650,204.17s7.5-9,10-9,5.33-2,5.83,0-1.5,4.17,0,5.17,4.83,2.83,8,2,8.5-.83,9.17-.5,2-1.83,3.5-1.67,4.17,2.67,5.5,2.67,3,0,3.67.5,1.5,4,1.67,5.33.33,14.17,0,15.67-.83,3-.5,3.67,1.83,0,1.83-1.83.67-1.17.67-4.17V211.5c0-1.33-.5-2.17-.83-4s-.33-3.17-.5-4.33a4.13,4.13,0,0,0-2.67-3.17,30.06,30.06,0,0,0-4.5-1.17c-1.33-.33-2.5-2-3.83-2s-6.83.17-7.67.17-6.33-4.5-8.67-4.5-7.83,1.17-9.17,0,.5-4.83,4.5-7,3-8.5,2-8.5-4,4-7.33,3.17-5.5-3.17-5.67-5,2,1.5,5.67.83,6.67-6.83,9.67-7.17,5.17-1.33,6.17,1,1.33,2.83,2,3,6-3.17,8.83-5.5,5.17-7.67,6.5-8.67,2.5,1,3,2.67,3.5,5.17,3.5,6.67,1.33,2.83,0,4.83-2.33,3.33-2.5,4.83,1.17.5,2-.83,1.67.17,3.83,1.67,3.17,3.5,6.17,4.5,4.83,1.17,6.5,2.67,2.5,5.83,1.17,7.83-2.5,5.33-1,6.83,6,5.83,6.17,7.17-3.67.33-6.67,1.17-1.33,1.5.17,1.83,1.33,0,3.33.17,4.67.33,5-1.17-2.67-5.83-4.33-7.5-1.17-5.5.17-8.67-.33-9.5-5-11.17S705.17,179,705,177.5s-2.5-4.67,1.83-4.83,8.83-3.33,14.5-2.17,8.33,8.33,12.17,7,8.33-7.67,14.5-6.5,5.17,3.33,5.17,3.33-6-.33-9.67,4-9,5.33-9.67,5.17a22.16,22.16,0,0,0,8.17,2c3.83,0,11.33-1,13.5,0s4.17,5,4.17,5-10.17,2.67-16.33,2.17c0,0-.17,1.67,4,2.17s12.17,2.17,14.17,6a16.49,16.49,0,0,0,5.17,5.83s-6,1-7.83.67-4.17-5-6.67-5.17c0,0,0,.67,2.33,3.17s4.17,6.17,8.33,7.33,8.17,6.33,9.33,9.67,0,3.67,0,3.67-4.83-.17-5.83-1.17-2.33-5.5-3.83-6.17-7-2.33-7.67-5.17-4.67-4.67-5.33-4.83,1.67,7.83,4.67,8.83,7.5,2.67,8.5,4.17,3,3.67,4.33,6.5,1.87,9,5.69,10.33c0,0-4.85,2.5-7.35,0s-5-8.67-7.67-9l-2.26-.28-.41-.05s2.5,2,4,3.17,2.83,6.22,4.17,7.28.5,5.22,2.5,6.39a18.85,18.85,0,0,0,5.33,2.5c1.67.33.33,4-2.83,4s-6.5-.33-6.5-3.17-4-7.83-5.67-8.33c0,0,1.5,2.67,2.83,5.67s.5,9.67,1.83,11.5,4,5,4,5-4.33,1.67-5.5,0-3.83-10.33-6.33-11.5c0,0,.17,8.5,1.33,11.33s3.5,10.33,5.5,11.5c0,0-6.67.83-8.83-2.83s-3.17-5.5-6.17-5.67a21.84,21.84,0,0,1,3.5,4.33c1.5,2.5.33,6.5-.17,7.33a12.7,12.7,0,0,0-1.67,4.83c0,1.5.83,4.67.83,6s-4-.33-3.5-2.17.33-8.17-2.17-11.5c0,0-1.5,9.33,0,12s3.67,3.33,4.33,5.17a21.75,21.75,0,0,1,.67,5.5s-3.33-3.33-4.83-3.67-3-3.67-3.83-6.67a4.66,4.66,0,0,0-3.17-3.5s2.33,6.17,2.33,9.67-1,6.83,2.17,8.67,3,3.5,3,3.5-3.83,1.5-6-1.33-5.83-10.17-7.67-10.83a57.15,57.15,0,0,1,2.5,6.17,31.77,31.77,0,0,0,4.83,8.5c.83,1,0,8.5,1.33,9.17s4,2.17,2.83,6.33c0,0-5.5-.5-7.33-3.67s-.67-10.67-8.33-13a14.88,14.88,0,0,1,3.5,4.5c.83,2.17,2.33,6.83,1.67,8.33-.51,1.15-.73,4.38-.8,5.8a.73.73,0,0,1-.74.7H726.9a.74.74,0,0,1-.74-.72c0-1.56-.31-5.17-2-6-2.17-1-7-2.33-7.17-4.17s-4-2.17-4-2.17,3.17,3,3.33,5.17,2.67,7.5,3.83,7.83S724.5,328,723.5,329s-7,.5-8-2.33-8-8.17-10.17-8.67-2-2.86,4.67-3.17c0,0-2.67-4.17-5.33-4.67s1.83-6.33,5.5-6,8.67.33,8.67.33-7.67-7.33-8.17-8.17,19.83-26,21.83-34.33,10.33-18.67,8.83-35.5-9.67-33-10.5-34.5a45,45,0,0,0-4.33-5.17s2.83,4.17,2.67,5.67-2.67,2.17-2,4,1.17,4.67,1.83,6.33,1.67,4.5.83,6.67-2.5,4.5-3.17,4.5-3,9-5,11.33-13.83,15.83-29.5,14.83-21-9.5-21-9.5-5.67,7-11.67,7.83-13.17,1.33-15.67,4.17-7.67,4.67-11,3.67c0,0,4.33-9.5,7.83-11s5.5-2.17,6.17-4.17-3.33-4.67-6.17-3.67S626.83,236,624.5,235.67Z"
       transform="translate(-441.5 -120.26)"
       id="path4467" />
    <path
       class="cls-2"
       d="M631.5,292.17s-6-23.17,10.33-33c15.43-9.29,27.74-13.37,31.86-20.12a1.41,1.41,0,0,1,1.9-.5l3.65,2.06a1.42,1.42,0,0,1,.33,2.21l-1.07,1.12s8.83.6,11.83,0,17.33-3.27,20.17-6.1,12-9.17,14.83-15.33,3.5-9.5,5.67-11-1.67-11-1.67-13a20.42,20.42,0,0,1,.17-3s4.33,6.33,4.67,9.83,3.17,4.83,3.17,12.5,1.5,19.5,0,23.17-8,26.17-16.5,36.5-13.67,17.83-13.67,17.83-11.83-12.33-30.33-13-39.67,10.5-39.67,10.5,4.5-8,10.33-9.5,17.83-1.17,21.5-8.17a36.17,36.17,0,0,1-12.33,3.17c-7.5.67-17.5,5.17-18.67,7.67a69.52,69.52,0,0,1-5.17,7.83Z"
       transform="translate(-441.5 -120.26)"
       id="path4469" />
    <path
       class="cls-2"
       d="M616.54,271.34a1.7,1.7,0,0,0,.27-2c-2.11-4-10-18.57-11-18.85-1.17-.33-2.5,1-2.5,1s2.33-10.67,0-13.83-10.83-9.67-18.5-5.83-10.17,10.67-18.17,12.83-20.33,9.5-21,11S535,262.5,533.5,264.5s-7.33,12.33-12,17.5l.17,17.33s5.5-.33,8.17-4,10.83-9.83,16.5-9.33V273s3.5.5,5.33-.83a25.42,25.42,0,0,0,5.67-5c1.83-2.33,25.5-15.33,27.33-15.33s.67,5.83,0,6.67-1.5,9.67,0,11.83,3.33,9.33,6.67,11.17,3.5,7.67,4.5,7.67,5.33-5.17,7.33-8.5C605,277.65,613.45,274.51,616.54,271.34Z"
       transform="translate(-441.5 -120.26)"
       id="path4471" />
    <path
       class="cls-2"
       d="M709.38,302.14a.35.35,0,0,0,.27-.62c-4.45-3.59-20.53-15.86-32.48-15.86-14,0-25.5,2.17-43.17,12.5s-20.67,12.33-26.33,11.33-10.83-8-13.67-18.67-15.5-17.33-19.67-17.33S564.5,276,561.67,289s-12.67,35.33-13.5,35.67-7.17,8.5-7.83,14.17a86.8,86.8,0,0,0,0,13.83,71.86,71.86,0,0,1-3.17,10.83c-2,5,10.67,18.33,14.67,21.67,0,0,1-8.83,1.5-11.33s4.67-8.5,6.5-9.33S553,356.67,553,353a21.3,21.3,0,0,0-1.33-7s2.33.67,4.33-2.17,1.83-13,1.67-13.67-2.83-4.5-5-3.67c0,0,3.17-3,5.67,1.33a33.24,33.24,0,0,0,4.5-8.5c1.67-4.83,8.5-14.5,9.33-18a18.39,18.39,0,0,1,2.67-6,77.85,77.85,0,0,1,2.5,13.17c.33,5.5,8.67,28.5,8.83,30.5s11.5-2.33,15.17-1.5,16.45,3,22.56,11.67,7.44,9.17,7.44,9.17,7.67-9,13-9.83,6-3.17,6-3.17,4.17-6.33,11-6.17c0,0,2.83-.83,3-6.67s11.5-6.67,11.5-6.67-.5-8.67,11.33-8.83a13.78,13.78,0,0,0,5.17-5.83c1.5-3.67,7-3.83,8.33-4.17S705.21,301.74,709.38,302.14Z"
       transform="translate(-441.5 -120.26)"
       id="path4473" />
    <path
       class="cls-2"
       d="M592.38,346.12a2.86,2.86,0,0,1,2.18-3.79c5.18-.95,15.68-2,21.51,3.51,7.94,7.5,11.94,14.83,15.44,15.67s5.67-10.1,12.17-10,6.83-2.87,6.83-2.87,21.67,20.83,28.17,24.5,34.5,27.33,38.5,33.5,15.83,17.67,19,32.83,2.67,34.5-9.33,52.83-32.83,33.17-45,35.33-37.83,8-62.33-7.67c0,0,1.5,4.17,10,8s35,9,56.83.67S725,502.83,734,485.83s7.67-49.83.83-59.67S716.67,397.33,698.17,384s-45.83-38.33-45.83-38.33,5-5.87,10.83-4.1c0,0,3.17-12.9,14.83-10.07,0,0,4-13.17,14.67-9.5,0,0-.92-5.83,1.71-7a33.76,33.76,0,0,1,5.79-1.83s-2.83,11.33-2.5,15.33,5.5,19.33,13.83,28.5,31,29.67,35.67,39.5,12.67,17.83,13.5,42.5-2.17,39.33-15.17,61.5-23,38.5-59.5,48.33-70.17-.17-84.17-16.83-20.67-37.83-17.33-59.67,18.83-37,20.33-37.67S603,441,603.67,445.5a71.14,71.14,0,0,0,3,12c.5,1-1-9-1-10.83s0-10.67,1.5-12.83,11-9.67,11-9.67,1.83.5,1,2.67c0,0,4.5-4.5,6.83-5.83s6-3.33,8-3.17a72.06,72.06,0,0,0,10.67-.33c1.17-.33.17-1.83.17-1.83s-10,1.5-10.67-.33,20.33-8.67,22.67-8,14.67,6.83,14.33,8-24.17,7.67-43.5,27c0,0-.5-.83,1.5-5.5,0,0-8.67,10-9.83,15.67s-6.83,22,1.33,36.67c0,0,.5,1.17-1,1.33,0,0-.17,1.33-.17,1.83s.83,2.17-1.5,1.33c0,0,21,20.83,44.5,16.67s35.67-20,35.67-20,6.83,7.5,15,11.83c0,0-5.33-8-3-23.17s5-41.67-31.17-64-40.83-8.17-71.33-44.5C607.67,370.5,595.92,355.68,592.38,346.12Z"
       transform="translate(-441.5 -120.26)"
       id="path4475" />
    <path
       class="cls-2"
       d="M753.8,373.61a26.33,26.33,0,0,0-12.68-4.73,26.8,26.8,0,0,1,11.5-8.12s1.13-7-2.62-11.62c0,0,1.38-2.87,3-3.12s2.5-1.12,3.38,0,3-2.37,4.42-1.62,2.83-1.62,4.08-.87,3.5,1,3.75,1.63-1.37,2.75-1.62,4.63-.62,1.25-.25,1.88,4.25-1.12,4.13.5-2.12,5.88-2.87,7.13,4.25.88,4.69.63-2.44,4.13-.81,4.75,4.13-1.62,5.63-1.87,7.88-1.12,7.25,1.88-3.38,4.5-12.06,3.75c-8.44-.73-7.14,4.44-17.27,5.65A2.33,2.33,0,0,1,753.8,373.61Z"
       transform="translate(-441.5 -120.26)"
       id="path4477" />
    <path
       class="cls-2"
       d="M753,343.35s-.37,2.52-2.25,1.52-1.37-13.5,0-19.25,6.25-17.87,6.38-31.25c0,0,.25-2.37,2-2.12s1.5,3.75,2.25,5.38.75,2.63,0,4.75-.62,8.71-2.37,10.79-.87,2.55-1.87,5.5-1.91,6.33-1.39,9.33a57.15,57.15,0,0,0,3.27-8.62,28.6,28.6,0,0,1,4-8.62c1.17-1.87.29-3.12.54-4.87s.08-7.87.08-7.87,3.17,1.13,3.42,3.75,0,11.42,0,11.42-1.62,8-2.87,8.83-3.78,8.38-3.33,10.63c0,0,2.2-4.5,3.08-7s5.63-9.25,6.13-11,1.38-10.75,1.5-11.37,2.75,1.75,3.38,3.75,0,9.88,0,9.88-3.25,7.38-3.87,8-4.5,6.38-4.87,8.88l-.37,2.5h0a51.89,51.89,0,0,0,4-6.12c1-2.12,3-6.25,4.25-7.75s2-5.62,3.5-5.62,1.75,3,1.75,4.63a35.26,35.26,0,0,1-1.75,9.25c-1.12,3.13-3.12,5-3.5,6.63s-1.13,4-1.31,4.63a44.64,44.64,0,0,0,0,5s9.28-6,12.11-5.62,5.71.13,7.71.63,1.13,2,0,2.13-6.29-.12-7.71,1-5.92,3.25-6.67,4.38-1.62,2.22-1.62,2.22a21.58,21.58,0,0,0,4.12-2.6c3.13-2.25,20.5-5.25,26.13-.37s-12.5,2.75-15.25,3.88-7.12,1.13-9.62,3.75a17.65,17.65,0,0,0,6.13-.87c4-1.12,18.25-.62,20.88-1S823,347.25,825,346.63s2.5,1.25,2.13,2.5-2.5,5.75-4.12,6.63-5.5,3.38-8,3.5-15.62-.75-20.5,1a64.64,64.64,0,0,0,10,1c4.63,0,9.88,1.13,14.5-.75s11.25-10.75,12.13-13.12,10.38-9.75,11.75-9.62-1.62,9.13-5,12.75-9.25,13.13-29.37,16.25-22,0-22,0,.38-6-1-6.37-5.75.25-7.75.88-3.12,1.38-3.62,1.13-.37-2.48.13-3.68-3.5-.82-3.5-.82,1.13-5.62,1.25-6.87-3.5-.87-3.5-.87.63-3.5,1.25-5.62.75-3,.63-3.75-1,1-1.87,1.5-1.5,1.13-2,.5a5.54,5.54,0,0,1-.71-1.64.35.35,0,0,0-.59-.16,4.62,4.62,0,0,1-2.24,1.3,2.42,2.42,0,0,1-2.16-.5,8.4,8.4,0,0,0-2.92,1.6c-1.87,1.4-1.5.23-2.75,0A5.41,5.41,0,0,0,753,343.35Z"
       transform="translate(-441.5 -120.26)"
       id="path4479" />
    <path
       class="cls-2"
       d="M614.85,240.86A8.14,8.14,0,0,0,618,242.4a8.65,8.65,0,0,0,6.63-1.07c4.17-2.75,14.5-12,18.75-11.92s-.92,2.67-.92,2.67-9.65,4.83-12.08,9.08-5.67,7.92-7.67,7.92-7.33-2.25-8.5-6.33C613.54,240.25,614.21,240.38,614.85,240.86Z"
       transform="translate(-441.5 -120.26)"
       id="path4481" />
    <path
       class="cls-2"
       d="M667,493a.27.27,0,0,0,.47-.2,27.15,27.15,0,0,1,1.82-12.68c3-7.83,11.67-7.67,19.17-18s2.5-27.33,0-34.33-14.67-10.67-14.67-10.67,3.17,12.33,1.5,21.17S665,459,662,469.33c-2.3,7.92,1.38,17.42,3.22,21.41Z"
       transform="translate(-441.5 -120.26)"
       id="path4483" />
    <path
       class="cls-2"
       d="M707.65,492.9a1.18,1.18,0,0,1-2,.92,46.87,46.87,0,0,1-7.92-9.2c-3.5-5.75-5-18.12-3.12-27.75,1.66-8.54,1.26-19.25-.21-23.91a.59.59,0,0,1,.88-.68c2,1.2,5.49,3.8,6.7,8,1.75,6,6.75,8.88,6.63,17.88C708.51,466.21,707.19,483.56,707.65,492.9Z"
       transform="translate(-441.5 -120.26)"
       id="path4485" />
    <path
       class="cls-2"
       d="M617.88,305.38c-.36.12-8.75,3.75-12.62,0S598,295.09,599,290.13s14.41-13.62,18-15.75,10.61-4,11-3-1.89,4.75-4.63,5.38-11.84,9.83-15,12.32a6.83,6.83,0,0,0-2.37,4.3s4.38-3.5,6.13-5.37,11.13-7.87,13-7.87,1.36,3.88-1.76,4.88-6.87,3.5-8.37,5.75a18.19,18.19,0,0,1-4.78,4.14.13.13,0,0,0,.11.23c2-.53,6.82-2,8.3-3.87,1.88-2.37,6.25-1.37,6.13-.37s-6.34,3-7.73,4.46-3,1.17-3.07,2.79-.8,3.88,0,4.25,1.71-2.08,3.07-3,6.23-1.58,7.36-3.46a5.06,5.06,0,0,1,3.13-2.25s2.38,0-.5,2.63S620,304.67,617.88,305.38Z"
       transform="translate(-441.5 -120.26)"
       id="path4487" />
    <path
       class="cls-2"
       d="M703.67,338s6.17,14.17,8,16,10.17,12.11,12.67,14.14,17.5,16.69,21.17,21.86,13.67,17.5,16.17,29.67,4.83,30.67,0,46.5-13.33,38.33-16.17,42.17-16.17,19.17-17.83,20.33,8.5,4.33,11.5-2.17,5.33-13.83,7.33-14,.33,4,1,4.33,4.67-1.83,5.17-4.33-.67-7.67-.5-9.67,2-5.33,3.5-3.67.5,6,1.67,6.33,4.83-1.83,5-3.83.59-17.5-1.54-19.33,2.34-5.5,3.69-2.67,1.52,8.67,2,8.67,4.67-4,4.67-7,2.67-14,0-17-5-7.69-4.17-9.18,5.5-1.49,6.33,2.18,2.33,7,3.5,7.17,2.33-2.17,2.33-4.67-1.67-19-11-23.17c0,0-.33-8.17,9.67-1s-3.5-14.83-9.5-17.67-6.33-5-2.17-6.5c0,0,2.83,1.67,6,3.67s.5-10.83-10.67-13-1.67-10.67,5.33-4.17c0,0,1.67-8.5-8.5-11.33s-12.83-2.83-14.5-5,5-5.67,8.33-4.17,3.75-3.67-9.63-6.5c0,0-11.54-.17-12.54-1.83s-3.17-5,4.33-5.83-7.67-6.5-10.17-6.33-10-.83-9.83-4.33,5.67-3,10.17-2.33-5.33-7.67-8.67-8.17S705,335.83,703.67,338Z"
       transform="translate(-441.5 -120.26)"
       id="path4489" />
    <path
       class="cls-2"
       d="M704,170.81a.94.94,0,0,1-1.48-.53c-.42-1.82-1.12-4.89-1.54-6.65-.62-2.62-3.25-6.62-.87-6.87s11.25,3.13,14,.88S725.88,151,729,152.38s-3.12,1.63-4.25,3.38-6.62,11.13-7.75,11.88S708.75,167.46,704,170.81Z"
       transform="translate(-441.5 -120.26)"
       id="path4491" />
  </g>
  <g
     id="Layer_5"
     data-name="Layer 5">
    <path
       class="cls-3"
       d="M603.66,353.77c3.54.37,7.54-.69,8.6-4.51a.5.5,0,0,0-1-.27c-.94,3.41-4.57,4.09-7.63,3.77-.64-.07-.63.93,0,1Z"
       transform="translate(-441.5 -120.26)"
       id="path4494" />
    <path
       class="cls-3"
       d="M603,361.74c2.84.27,5.42.29,7.81-1.44a9.6,9.6,0,0,0,4.1-5.68c.13-.63-.84-.9-1-.27a8.55,8.55,0,0,1-3.76,5.14c-2.24,1.58-4.58,1.5-7.19,1.25-.64-.06-.64.94,0,1Z"
       transform="translate(-441.5 -120.26)"
       id="path4496" />
    <path
       class="cls-3"
       d="M611.67,363.12c3,.32,5.41.62,7.91-1.44a10.49,10.49,0,0,0,3.43-7c.08-.64-.92-.63-1,0a9.13,9.13,0,0,1-3.75,6.73c-2.13,1.38-4.23,1-6.59.72-.64-.07-.63.93,0,1Z"
       transform="translate(-441.5 -120.26)"
       id="path4498" />
    <path
       class="cls-3"
       d="M610.67,371.6c2.38.13,6.17,1,8.26-.63,1.9-1.49,2.43-5.23,3.18-7.35.21-.61-.75-.87-1-.27-.7,2-1.44,6.38-3.62,7.24-2,.77-4.82.12-6.85,0-.64,0-.64,1,0,1Z"
       transform="translate(-441.5 -120.26)"
       id="path4500" />
    <path
       class="cls-3"
       d="M619.24,374.06c2.64.66,5.55,1.19,7.79-.76s2.68-5,3-7.8c.08-.64-.92-.63-1,0-.28,2.29-.59,4.95-2.3,6.67-2,2.05-4.73,1.54-7.25.92a.5.5,0,0,0-.27,1Z"
       transform="translate(-441.5 -120.26)"
       id="path4502" />
    <path
       class="cls-3"
       d="M631.71,366.08a8.38,8.38,0,0,0,9.78-6.95c.1-.63-.86-.9-1-.27a7.39,7.39,0,0,1-8.55,6.25c-.63-.1-.9.87-.27,1Z"
       transform="translate(-441.5 -120.26)"
       id="path4504" />
    <path
       class="cls-3"
       d="M638.36,365.81c2.79.38,7,1.24,9.57-.47s3.28-4.93,3.28-7.67a.5.5,0,0,0-1,0c0,2.77-1,6.54-4.12,7.38-2.24.6-5.23.09-7.46-.21-.63-.09-.9.88-.27,1Z"
       transform="translate(-441.5 -120.26)"
       id="path4506" />
    <path
       class="cls-3"
       d="M626.43,373.72a9.29,9.29,0,0,0,8.93.33c3.2-1.67,4.67-5,5.95-8.18.24-.6-.73-.86-1-.27-1.07,2.68-2.29,5.62-4.85,7.22a8.31,8.31,0,0,1-8.56,0,.5.5,0,0,0-.5.86Z"
       transform="translate(-441.5 -120.26)"
       id="path4508" />
    <path
       class="cls-3"
       d="M618.78,379.89a8.91,8.91,0,0,0,7.24,1.52c3-.86,2.73-4.45,4.32-6.49.39-.5-.31-1.22-.71-.71-1.07,1.39-1.17,3.05-2,4.55-1.51,2.63-6,2.14-8.11.43-.5-.4-1.21.3-.71.71Z"
       transform="translate(-441.5 -120.26)"
       id="path4510" />
    <path
       class="cls-3"
       d="M625.53,381.28c2,1.65,3,2.84,5.61,2.93s3.78-.88,5.8-2.28a6.68,6.68,0,0,0,1.2-10.06c-.41-.49-1.12.22-.71.71,2.88,3.43,1.23,7.2-2.22,9.27a6.72,6.72,0,0,1-4.07,1.36c-2.15-.19-3.35-1.33-4.9-2.64-.49-.41-1.2.29-.71.71Z"
       transform="translate(-441.5 -120.26)"
       id="path4512" />
    <path
       class="cls-3"
       d="M648.06,365.11c1.29,1.66,1.71,5.45.58,7.23-1.31,2.07-4.56,2.29-6.81,2.34a.5.5,0,0,0,0,1c2.58-.07,6.59-.38,7.92-3,1.15-2.32.57-6.23-1-8.23-.4-.51-1.1.21-.71.71Z"
       transform="translate(-441.5 -120.26)"
       id="path4514" />
    <path
       class="cls-3"
       d="M649.81,367.32a7.89,7.89,0,0,0,7.87-.39c2.31-1.69,1.49-5.29,1.49-7.76a.5.5,0,0,0-1,0c0,1.8.67,5.36-.75,6.7-1.84,1.74-5,1.58-7.11.59-.58-.27-1.09.59-.5.86Z"
       transform="translate(-441.5 -120.26)"
       id="path4516" />
    <path
       class="cls-3"
       d="M635.37,383.36c1.35.44,2.26,1.53,3.57,2a8.59,8.59,0,0,0,2.57.47c1.8.11,3.69,0,5.15-1.14,3.32-2.66,2.45-7.77,2.53-11.46a.5.5,0,0,0-1,0c-.07,3.36.84,8.25-2.16,10.64-1.64,1.31-4.71,1.27-6.62.55-1.37-.52-2.36-1.6-3.77-2.06-.61-.2-.88.77-.27,1Z"
       transform="translate(-441.5 -120.26)"
       id="path4518" />
    <path
       class="cls-3"
       d="M638.38,385c-.33,2.15-1.31,4.4-3.77,4.65-1.63.17-3.55,0-4.75-1.21a.5.5,0,0,0-.71.71c1.55,1.56,4.31,1.87,6.4,1.42,2.32-.5,3.47-3.18,3.8-5.3.1-.63-.87-.9-1-.27Z"
       transform="translate(-441.5 -120.26)"
       id="path4520" />
    <path
       class="cls-3"
       d="M646.08,384.51c.64,2.3.78,5-.95,6.94-1.59,1.74-3.86,1.51-6,1.59-.64,0-.64,1,0,1,2.66-.1,5.25,0,7-2.27s1.59-5,.89-7.53a.5.5,0,0,0-1,.27Z"
       transform="translate(-441.5 -120.26)"
       id="path4522" />
    <path
       class="cls-3"
       d="M648.76,377c3.1.65,6.33-.34,9.08-1.82,2.28-1.23,2.73-4.46,2.66-6.83a.5.5,0,0,0-1,0c.07,2.64-.58,5.29-3.15,6.4-2.35,1-4.74,1.82-7.32,1.28-.63-.13-.9.83-.27,1Z"
       transform="translate(-441.5 -120.26)"
       id="path4524" />
    <path
       class="cls-3"
       d="M657.5,376c2.11,2.86,7.16,3.43,10,1.25,2.25-1.75,6.09-6.4,2.51-8.7-.54-.35-1,.52-.5.86,2.87,1.83-1.38,6.38-3.1,7.41-2.29,1.37-6.44.78-8-1.33-.38-.51-1.25,0-.86.5Z"
       transform="translate(-441.5 -120.26)"
       id="path4526" />
    <path
       class="cls-3"
       d="M658.6,377c1.27,2.44-.81,5.91-2.45,7.74-2.24,2.49-5.63,2-8.47.83-.59-.25-.85.72-.27,1,3.19,1.32,7.2,1.76,9.55-1.19,1.87-2.35,4.06-5.85,2.5-8.85-.3-.57-1.16-.07-.86.5Z"
       transform="translate(-441.5 -120.26)"
       id="path4528" />
    <path
       class="cls-3"
       d="M667.67,376.63c.73,3.17,1.48,8.35-2.32,9.66a9,9,0,0,1-8.34-.84c-.52-.38-1,.49-.5.86,3,2.17,7.28,2.07,10.48.39,3.43-1.8,2.37-7.22,1.66-10.33-.14-.63-1.11-.36-1,.27Z"
       transform="translate(-441.5 -120.26)"
       id="path4530" />
    <path
       class="cls-3"
       d="M658.29,387.23c.33,1.76-1.61,4.15-2.76,5.3a7.46,7.46,0,0,1-2.13,1.65,13.47,13.47,0,0,1-4,.61c-.64.05-.64,1.06,0,1a15.83,15.83,0,0,0,4-.5,8.73,8.73,0,0,0,3.07-2.25c1.4-1.47,3.23-3.94,2.83-6.07-.12-.63-1.08-.36-1,.27Z"
       transform="translate(-441.5 -120.26)"
       id="path4532" />
    <path
       class="cls-3"
       d="M668.75,379.6a6.08,6.08,0,0,0,6.36-1.66c1.53-1.91.63-4.45-.67-6.19-.38-.51-1.25,0-.86.5,1.08,1.46,2.1,3.73.56,5.28a5.2,5.2,0,0,1-5.12,1.1c-.61-.21-.87.75-.27,1Z"
       transform="translate(-441.5 -120.26)"
       id="path4534" />
    <path
       class="cls-3"
       d="M678.12,380.89c.55,2.68-.43,7-3.4,7.9-2.3.71-4.88-.36-7.22-.46-.64,0-.64,1,0,1,3,.14,6.87,1.75,9.44-.64,2-1.89,2.68-5.47,2.15-8.07-.13-.63-1.09-.36-1,.27Z"
       transform="translate(-441.5 -120.26)"
       id="path4536" />
    <path
       class="cls-3"
       d="M668.72,389.76c.45,5.72-6.48,8.14-11,6.59-.61-.21-.87.76-.27,1,2.58.89,6.22.84,8.5-.79s4-4,3.75-6.77c-.05-.64-1.05-.64-1,0Z"
       transform="translate(-441.5 -120.26)"
       id="path4538" />
    <path
       class="cls-3"
       d="M665.76,396.13c.24,1.67,1,4.07.17,5.62-.68,1.23-3.95,2.41-5.18,1.26-.47-.44-1.18.27-.71.71,1.4,1.31,4.65.62,6-.5,2.09-1.72,1-5.11.67-7.35-.09-.63-1.06-.36-1,.27Z"
       transform="translate(-441.5 -120.26)"
       id="path4540" />
    <path
       class="cls-3"
       d="M677.88,391.13a9.32,9.32,0,0,1-3.32,6.57c-2,1.37-5.14.81-7.44.75a.5.5,0,0,0,0,1c2.66.07,6.14.71,8.35-1.17a10.64,10.64,0,0,0,3.4-7.15c0-.64-1-.64-1,0Z"
       transform="translate(-441.5 -120.26)"
       id="path4542" />
    <path
       class="cls-3"
       d="M678.76,392.35c2.6-.47,6.17-.86,8.39-2.44,1.75-1.25,1.78-3.54,2-5.48.08-.64-.92-.63-1,0a16.49,16.49,0,0,1-.49,3c-.54,1.63-1.94,2.09-3.42,2.56a45.92,45.92,0,0,1-5.78,1.37c-.63.11-.36,1.08.27,1Z"
       transform="translate(-441.5 -120.26)"
       id="path4544" />
    <path
       class="cls-3"
       d="M685.66,390.91c1.42,2.09,2.8,4.4,5.72,4,3.32-.44,3.63-3.47,4.59-6,.22-.6-.74-.87-1-.27-.74,2-.84,4.61-3.36,5.25s-3.89-1.66-5.12-3.46c-.36-.53-1.23,0-.86.5Z"
       transform="translate(-441.5 -120.26)"
       id="path4546" />
    <path
       class="cls-3"
       d="M687.6,394c-.62,2.46-1.75,5.65-4.2,6.72s-6.34.39-7.77-2.21c-.31-.56-1.17-.06-.86.5,1.54,2.8,5.39,3.72,8.39,3.13s4.73-5.22,5.41-7.88a.5.5,0,0,0-1-.27Z"
       transform="translate(-441.5 -120.26)"
       id="path4548" />
    <path
       class="cls-3"
       d="M676.4,400.82a13.45,13.45,0,0,1-1.55,3.65c-1.08,1.73-3.41,1.3-5.08.85a.5.5,0,0,0-.27,1c1.51.4,4,1,5.36-.18s2.06-3.38,2.5-5a.5.5,0,0,0-1-.27Z"
       transform="translate(-441.5 -120.26)"
       id="path4550" />
    <path
       class="cls-3"
       d="M695.9,394.62c.14,2-1,5.12-2.88,6.17s-5.37.18-7.19-1c-.54-.35-1,.52-.5.86,2.06,1.33,6,2.4,8.31,1,2.11-1.25,3.43-4.75,3.27-7.09,0-.64-1-.64-1,0Z"
       transform="translate(-441.5 -120.26)"
       id="path4552" />
    <path
       class="cls-3"
       d="M686.2,401.43c.23,2.36-1,4.78-2.2,6.8a3.55,3.55,0,0,1-3.2,1.85,5.71,5.71,0,0,1-3.73-.91c-.53-.37-1,.5-.5.86,1.83,1.27,5.66,1.82,7.37.08a12.77,12.77,0,0,0,2-3.63,9.61,9.61,0,0,0,1.21-5.06c-.06-.63-1.06-.64-1,0Z"
       transform="translate(-441.5 -120.26)"
       id="path4554" />
    <path
       class="cls-3"
       d="M693,401.67c1.53,2.72,6.91,2.91,8.78.47,1.54-2,3.17-7.29-.12-8.42-.61-.21-.87.76-.27,1,2.21.76.66,5.17-.16,6.47-1.3,2.07-6.09,2.3-7.38,0a.5.5,0,0,0-.86.5Z"
       transform="translate(-441.5 -120.26)"
       id="path4556" />
    <path
       class="cls-3"
       d="M694.16,403.19a11.9,11.9,0,0,1-2,6.28c-1.12,2-4,1.4-6,1.3-.64,0-.64,1,0,1,2,.1,5,.8,6.37-1a12.64,12.64,0,0,0,2.6-7.57c0-.64-1-.64-1,0Z"
       transform="translate(-441.5 -120.26)"
       id="path4558" />
    <path
       class="cls-3"
       d="M692.68,409.68c1.09,1.19.5,3.81-.21,5.1-1,1.75-2.75,2.09-4.6,2.09a.5.5,0,0,0,0,1c2.57,0,4.67-.6,5.69-3.1.7-1.72,1.21-4.28-.17-5.8-.43-.48-1.14.23-.71.71Z"
       transform="translate(-441.5 -120.26)"
       id="path4560" />
    <path
       class="cls-3"
       d="M694,412.27c2.5.65,6,.54,8-1.37.9-.85,1-2.27,1.21-3.44a6.83,6.83,0,0,0-.52-4.19c-.29-.58-1.15-.07-.86.5.89,1.8.78,5.68-1.09,6.81a8.52,8.52,0,0,1-6.46.72.5.5,0,0,0-.27,1Z"
       transform="translate(-441.5 -120.26)"
       id="path4562" />
    <path
       class="cls-3"
       d="M700.79,411.51a5.3,5.3,0,0,1-.63,6,4.69,4.69,0,0,1-2.74,2,7.6,7.6,0,0,1-3-.23c-.63-.13-.9.83-.27,1,2.89.6,5,.34,6.84-2.12a6.29,6.29,0,0,0,.7-7.17c-.31-.56-1.17-.06-.86.5Z"
       transform="translate(-441.5 -120.26)"
       id="path4564" />
    <path
       class="cls-3"
       d="M701.88,413.21a13.58,13.58,0,0,0,7.84-2.22c2-1.47,1.89-4.25,1.74-6.5,0-.64-1-.64-1,0,.17,2.47.16,4.94-2.27,6.23a13.51,13.51,0,0,1-6.31,1.48.5.5,0,0,0,0,1Z"
       transform="translate(-441.5 -120.26)"
       id="path4566" />
    <path
       class="cls-3"
       d="M700.37,418.74c2.21,2.86,5.59,3.59,8.45,1.39s3.94-5.42,2.08-8.61a.5.5,0,0,0-.86.5,5.37,5.37,0,0,1-1.41,7c-1.43,1.15-2.77,1.86-4.61,1.19a6.65,6.65,0,0,1-3-2.16c-.39-.51-1.1.2-.71.71Z"
       transform="translate(-441.5 -120.26)"
       id="path4568" />
    <path
       class="cls-3"
       d="M709.77,419.46c.51,1.82,1.16,5.22-.39,6.68s-4.84,1.22-6.83.68a.5.5,0,0,0-.27,1c2.3.62,5.92.91,7.84-.86s1.22-5.57.62-7.73a.5.5,0,0,0-1,.27Z"
       transform="translate(-441.5 -120.26)"
       id="path4570" />
    <path
       class="cls-3"
       d="M720.63,418.18c0,5.1-6.48,3.45-9.45,2.7a.5.5,0,0,0-.27,1c3.64.92,10.7,2.21,10.71-3.66a.5.5,0,0,0-1,0Z"
       transform="translate(-441.5 -120.26)"
       id="path4572" />
    <path
       class="cls-3"
       d="M719.37,422.06a7.2,7.2,0,0,1-1.71,6.34c-1.81,1.88-4.8,1.09-6.64-.31-.51-.39-1,.48-.5.86,2,1.52,5.41,2.36,7.5.51a8.18,8.18,0,0,0,2.32-7.67c-.12-.63-1.09-.36-1,.27Z"
       transform="translate(-441.5 -120.26)"
       id="path4574" />
    <path
       class="cls-3"
       d="M717.4,429.74c.62,3,.28,7-3.12,8.14-2.58.88-5.36-1.33-7.44-2.63-.55-.34-1,.52-.5.86,2.79,1.74,6.21,4.24,9.47,2.11,2.94-1.92,3.22-5.62,2.55-8.75-.13-.63-1.1-.36-1,.27Z"
       transform="translate(-441.5 -120.26)"
       id="path4576" />
    <path
       class="cls-3"
       d="M718.15,432.5c2.57,1.79,5.38,2.5,8.09.7,2.05-1.37,3.77-3.35,3-6a.5.5,0,0,0-1,.27c.68,2.27-1.16,4.16-3,5.15-2.28,1.2-4.57.38-6.57-1-.53-.37-1,.5-.5.86Z"
       transform="translate(-441.5 -120.26)"
       id="path4578" />
    <path
       class="cls-3"
       d="M724.65,433.64a7.42,7.42,0,0,1-1.56,6.24c-1.87,2-4.11,1.53-5.95-.21-.47-.44-1.18.26-.71.71,1.92,1.83,4.3,2.7,6.62.91s3.06-5.09,2.57-7.91c-.11-.63-1.07-.36-1,.27Z"
       transform="translate(-441.5 -120.26)"
       id="path4580" />
    <path
       class="cls-3"
       d="M721.44,441.94c0,2.36-.34,5-3.16,5.55-2.36.44-4.37-1.08-5.94-2.65a.5.5,0,0,0-.71.71c2,2,4.73,3.77,7.65,2.73,2.73-1,3.11-3.78,3.15-6.33a.5.5,0,0,0-1,0Z"
       transform="translate(-441.5 -120.26)"
       id="path4582" />
    <path
       class="cls-3"
       d="M722,443.45c2.35,1.63,4.83,4,8,3.26,2.62-.62,3.88-4.32,4.35-6.63.13-.63-.84-.9-1-.27-.51,2.51-1.71,5.86-4.73,5.95-2.3.07-4.33-1.94-6.12-3.18-.53-.37-1,.5-.5.86Z"
       transform="translate(-441.5 -120.26)"
       id="path4584" />
    <path
       class="cls-3"
       d="M728.73,446.32c-.12,2.55-2.26,5.77-4.92,6-3,.29-4.66-1.17-5.68-3.8-.23-.59-1.2-.34-1,.27,1.31,3.4,3.56,5,7.33,4.48,2.95-.43,5.1-4.22,5.23-7,0-.64-1-.64-1,0Z"
       transform="translate(-441.5 -120.26)"
       id="path4586" />
    <path
       class="cls-3"
       d="M723.63,453.5a7.89,7.89,0,0,0,6.2,5.34c3,.6,5.13-2,6.79-4,.4-.5-.31-1.21-.71-.71-1.39,1.74-2.9,3.7-5.29,3.72a6.75,6.75,0,0,1-6-4.58c-.19-.61-1.16-.35-1,.27Z"
       transform="translate(-441.5 -120.26)"
       id="path4588" />
    <path
       class="cls-3"
       d="M724.92,455.55c-2,1.2-3.42,2.7-5.92,2.77a3.83,3.83,0,0,1-3.34-1.24,21,21,0,0,1-1.64-2.46c-.36-.53-1.22,0-.86.5,1.3,2,2.09,4,4.64,4.17,3.36.23,4.89-1.24,7.62-2.87a.5.5,0,0,0-.5-.86Z"
       transform="translate(-441.5 -120.26)"
       id="path4590" />
    <path
       class="cls-3"
       d="M718.39,459.74a7.16,7.16,0,0,0,6.9,5.44,6.77,6.77,0,0,0,3.85-1.2c2-1.46,1.38-3.39,2.49-5.33a.5.5,0,0,0-.86-.5c-1.36,2.37-.72,5.08-4.15,5.88a6.13,6.13,0,0,1-7.27-4.55.5.5,0,0,0-1,.27Z"
       transform="translate(-441.5 -120.26)"
       id="path4592" />
    <path
       class="cls-3"
       d="M723.76,465c-.06,2.33-1.53,5.2-4.28,4.37a10.38,10.38,0,0,1-4.57-3.3c-.42-.49-1.12.22-.71.71,1.42,1.66,4.49,4.38,6.94,3.88s3.55-3.57,3.61-5.66a.5.5,0,0,0-1,0Z"
       transform="translate(-441.5 -120.26)"
       id="path4594" />
    <path
       class="cls-3"
       d="M723.94,467.25a12,12,0,0,0,6.32,2.89c3,.37,4.06-.58,6.36-2.34.5-.39,0-1.26-.5-.86-1.7,1.31-2.86,2.42-5.11,2.28a10.87,10.87,0,0,1-6.35-2.67c-.49-.41-1.2.29-.71.71Z"
       transform="translate(-441.5 -120.26)"
       id="path4596" />
    <path
       class="cls-3"
       d="M730,470.18a14.12,14.12,0,0,1-.89,3.25c-.77,1.41-2.4,1.59-3.88,1.52-2.83-.13-4.26-1.89-4.63-4.59-.09-.63-1.05-.36-1,.27.43,3.14,2.37,5.24,5.6,5.32a6.23,6.23,0,0,0,3.78-.73c1.41-1,1.57-3.23,2-4.78a.5.5,0,0,0-1-.27Z"
       transform="translate(-441.5 -120.26)"
       id="path4598" />
    <path
       class="cls-3"
       d="M722.78,475.18c-.05,2.09-2.12,4.22-4.3,3.73-1.93-.43-3-2.9-4-4.41-.36-.53-1.22,0-.86.5,1.51,2.25,3,5.47,6.27,4.92a5.12,5.12,0,0,0,3.91-4.74.5.5,0,0,0-1,0Z"
       transform="translate(-441.5 -120.26)"
       id="path4600" />
    <path
       class="cls-3"
       d="M722.85,475.44c.4.71.05,1.48.08,2.24a5.3,5.3,0,0,0,.48,1.94,5.64,5.64,0,0,0,2.69,2.77c2.65,1.25,6-1.37,7.78-3.13.46-.45-.24-1.15-.71-.71a14.32,14.32,0,0,1-3,2.14,6.56,6.56,0,0,1-2,1,3.88,3.88,0,0,1-3.32-1.54,4.89,4.89,0,0,1-.89-3.51,2.65,2.65,0,0,0-.31-1.68.5.5,0,0,0-.86.5Z"
       transform="translate(-441.5 -120.26)"
       id="path4602" />
    <path
       class="cls-3"
       d="M716.68,479.7c-.24,2.49.11,5.1,2.9,5.81s5.49-1.12,7.36-3.12c.44-.47-.27-1.18-.71-.71-1.41,1.51-3.14,3-5.32,3-3,0-3.46-2.52-3.23-5,.06-.64-.94-.64-1,0Z"
       transform="translate(-441.5 -120.26)"
       id="path4604" />
    <path
       class="cls-3"
       d="M718.55,485.25c-.21.94-.37,1.83-1.47,2.2a4.39,4.39,0,0,1-2.25,0c-1.67-.44-2.51-2.27-3.18-3.74-.26-.59-1.13-.08-.86.5,1,2.14,2.27,4.34,4.85,4.36,2.26,0,3.39-.85,3.87-3,.14-.63-.82-.89-1-.27Z"
       transform="translate(-441.5 -120.26)"
       id="path4606" />
    <path
       class="cls-3"
       d="M718.13,487.63c.87,1.54,1.95,3.68,3.8,4.21a4.17,4.17,0,0,0,4.31-1.53c.41-.49-.29-1.2-.71-.71-1,1.16-2.58,1.88-4,1-1.14-.73-1.9-2.3-2.54-3.44a.5.5,0,0,0-.86.5Z"
       transform="translate(-441.5 -120.26)"
       id="path4608" />
    <path
       class="cls-3"
       d="M720.64,490.86c-.25,1.76-3,3-4.6,2.42-2.06-.69-2.32-3.45-1.76-5.25.19-.62-.78-.88-1-.27-.68,2.2-.2,5.84,2.45,6.54,2.15.57,5.51-.8,5.84-3.17.09-.63-.88-.9-1-.27Z"
       transform="translate(-441.5 -120.26)"
       id="path4610" />
    <path
       class="cls-3"
       d="M714.37,493.61c.2,1.6,0,4.4,1.79,5.19,2,.89,3.65-.26,5.37-1.22a.5.5,0,0,0-.5-.86c-1.29.73-2.59,1.74-4.15,1.26s-1.33-3.08-1.49-4.37c-.08-.63-1.08-.64-1,0Z"
       transform="translate(-441.5 -120.26)"
       id="path4612" />
    <path
       class="cls-3"
       d="M698.13,495.62c.57,1.71,1.35,4.09,3.14,4.85,1.4.59,3.82,1.16,4.47-.68.22-.61-.75-.87-1-.27-.51,1.44-3.58-.1-4.06-.75a12.11,12.11,0,0,1-1.61-3.42c-.2-.61-1.17-.35-1,.27Z"
       transform="translate(-441.5 -120.26)"
       id="path4614" />
    <path
       class="cls-3"
       d="M703.76,501.16c.74,1.64.6,4.5,2.49,5.37s4.31,0,5.84-1.09c.53-.36,0-1.23-.5-.86-1.33.92-4.44,2.2-5.62.35a8.46,8.46,0,0,1-.62-2.33,12.52,12.52,0,0,0-.72-1.93c-.27-.59-1.13-.08-.86.5Z"
       transform="translate(-441.5 -120.26)"
       id="path4616" />
    <path
       class="cls-3"
       d="M699.16,498.49c-1.53,1.66-2.85,4.48-.82,6.34,1.69,1.55,5.66,1.31,7.4,0,.5-.39,0-1.25-.5-.86a6.44,6.44,0,0,1-5.18.66c-2.81-.93-1.61-3.85-.18-5.41.44-.47-.27-1.18-.71-.71Z"
       transform="translate(-441.5 -120.26)"
       id="path4618" />
    <path
       class="cls-3"
       d="M698.34,504.62c-.07,1-1.84,1.28-2.52,1.25a5.08,5.08,0,0,1-3.11-1.22,4.36,4.36,0,0,1-.39-6.09c.42-.49-.29-1.2-.71-.71a5.37,5.37,0,0,0,1,8,6,6,0,0,0,4.43.94,2.84,2.84,0,0,0,2.28-2.17c0-.64-1-.64-1,0Z"
       transform="translate(-441.5 -120.26)"
       id="path4620" />
    <path
       class="cls-3"
       d="M696.08,506.93c.64.67.63,2.52.82,3.42a3,3,0,0,0,1,2.05c1.4,1,3.87.58,5.38.15a.5.5,0,0,0-.27-1,8.53,8.53,0,0,1-2.64.36c-1.25,0-2.13-.27-2.41-1.61s-.22-3.17-1.13-4.11c-.45-.47-1.15.24-.71.71Z"
       transform="translate(-441.5 -120.26)"
       id="path4622" />
    <path
       class="cls-3"
       d="M684.81,501.42c-.61,2-2.19,6.26-.08,7.88a5,5,0,0,0,3.35.79c1.33-.19,2-1.54,3.09-2.16.56-.31.06-1.17-.5-.86a8.65,8.65,0,0,0-1.59,1.26,2.6,2.6,0,0,1-3.7-.07c-.69-.67-.65-.93-.59-1.83a15.8,15.8,0,0,1,.26-1.79,27.15,27.15,0,0,1,.74-3c.19-.62-.78-.88-1-.27Z"
       transform="translate(-441.5 -120.26)"
       id="path4624" />
    <path
       class="cls-3"
       d="M689.19,509a5.76,5.76,0,0,0,3.89,3.14c1.61.38,3.46.67,4.95-.18a.5.5,0,0,0-.5-.86c-1.2.68-2.88.4-4.18.08a4.92,4.92,0,0,1-3.29-2.68.5.5,0,0,0-.86.5Z"
       transform="translate(-441.5 -120.26)"
       id="path4626" />
    <path
       class="cls-3"
       d="M683.86,507.68a5.4,5.4,0,0,0-2.5,1.7A3.75,3.75,0,0,0,681,512c.22,1.81,1.39,3.53,3.38,3.44.64,0,.64-1,0-1-1.63.08-2.31-1.47-2.42-2.85a2.76,2.76,0,0,1,2.13-2.94c.6-.22.34-1.18-.27-1Z"
       transform="translate(-441.5 -120.26)"
       id="path4628" />
    <path
       class="cls-3"
       d="M686.85,512.5c-.17,1.53-.37,3.32.94,4.41.92.77,2.85,1.41,4,.76a.5.5,0,0,0-.5-.86c-.81.47-2.63-.31-3.12-1-.65-.88-.39-2.31-.28-3.33.07-.64-.93-.63-1,0Z"
       transform="translate(-441.5 -120.26)"
       id="path4630" />
    <path
       class="cls-3"
       d="M681.18,512.94c-1.26,2-3.38,3.41-2.4,6.09a5.25,5.25,0,0,0,5.19,3c.63-.09.36-1.06-.27-1a3.82,3.82,0,0,1-4.1-3.7c.12-1.58,1.62-2.67,2.44-4,.35-.55-.52-1-.86-.5Z"
       transform="translate(-441.5 -120.26)"
       id="path4632" />
    <path
       class="cls-3"
       d="M672.32,512.63a4.4,4.4,0,0,0,1.46,4.39c1.48,1.19,3.5,1.18,5.29,1.13a.5.5,0,0,0,0-1,8.43,8.43,0,0,1-4-.5,3.38,3.38,0,0,1-1.77-3.75c.13-.63-.83-.9-1-.27Z"
       transform="translate(-441.5 -120.26)"
       id="path4634" />
    <path
       class="cls-3"
       d="M667.48,517.48c-1.33,1.56-2.69,3.9-1.52,5.91a5,5,0,0,0,5.29,2.64.5.5,0,0,0-.27-1,4,4,0,0,1-4.16-2.18c-.89-1.61.33-3.49,1.36-4.7.42-.49-.29-1.2-.71-.71Z"
       transform="translate(-441.5 -120.26)"
       id="path4636" />
    <path
       class="cls-3"
       d="M663,513.94c-.34.54-1,.91-1.4,1.42a6.17,6.17,0,0,0-.7,1.19,4,4,0,0,0-.62,2.52c.42,1.86,3.13,2.79,4.75,3.14.63.13.9-.83.27-1-1.63-.35-4.35-1.2-3.89-3.34.34-1.56,1.68-2.23,2.46-3.46.34-.55-.52-1-.86-.5Z"
       transform="translate(-441.5 -120.26)"
       id="path4638" />
    <path
       class="cls-3"
       d="M655.39,520c-.33,1.16-.86,2.49-.29,3.67s1.58,1.27,2.65,1.4c.64.07.63-.93,0-1-.92-.11-1.79-.34-1.88-1.42a6.83,6.83,0,0,1,.49-2.38.5.5,0,0,0-1-.27Z"
       transform="translate(-441.5 -120.26)"
       id="path4640" />
    <path
       class="cls-3"
       d="M651.14,517.29a3.33,3.33,0,0,0-.63,2.82,3.56,3.56,0,0,0,1.81,2.13.5.5,0,0,0,.5-.86,2.74,2.74,0,0,1-1.26-1.26,2.33,2.33,0,0,1,.28-2.12c.46-.45-.25-1.16-.71-.71Z"
       transform="translate(-441.5 -120.26)"
       id="path4642" />
    <path
       class="cls-3"
       d="M646.08,519.41c-1.13,2.07-2.54,5.76.78,6.56.63.15.89-.81.27-1-2.52-.61-1-3.65-.19-5.09.31-.56-.55-1.07-.86-.5Z"
       transform="translate(-441.5 -120.26)"
       id="path4644" />
    <path
       class="cls-3"
       d="M642.38,514.95c-1.4.3-3.19,4.24-1.32,4.87.61.21.87-.76.27-1-.29-.1.28-1.56.37-1.75.17-.36.52-1.1.95-1.19.63-.14.36-1.1-.27-1Z"
       transform="translate(-441.5 -120.26)"
       id="path4646" />
    <path
       class="cls-3"
       d="M659.55,347c2,2.16,5.29,1.94,7.68.58a9,9,0,0,0,4.28-8.11.5.5,0,0,0-1,0,8.09,8.09,0,0,1-3.23,6.9c-2,1.42-5.18,1.94-7-.07-.43-.48-1.14.23-.71.71Z"
       transform="translate(-441.5 -120.26)"
       id="path4648" />
    <path
       class="cls-3"
       d="M671.17,339.79c3.76.3,7.67.4,10.74-2.13,2.58-2.13,2.2-4.71,2.19-7.82a.5.5,0,0,0-1,0c0,1.15.11,2.35,0,3.5a5.34,5.34,0,0,1-3,4.38c-2.68,1.57-5.94,1.31-8.91,1.07-.64-.05-.64.95,0,1Z"
       transform="translate(-441.5 -120.26)"
       id="path4650" />
    <path
       class="cls-3"
       d="M683.8,331.53a10.43,10.43,0,0,0,8.43-1.08c2.63-1.48,2.46-5.21,2.9-7.83.11-.63-.86-.9-1-.27-.37,2.21-.33,5.92-2.44,7.23a9.35,9.35,0,0,1-7.66,1c-.61-.21-.87.75-.27,1Z"
       transform="translate(-441.5 -120.26)"
       id="path4652" />
    <path
       class="cls-3"
       d="M680.24,338.69c1,3.3,4.67,4.29,7.76,3.22,3.24-1.13,5.39-6,5.39-9.15a.5.5,0,0,0-1,0,10.52,10.52,0,0,1-3,6.89c-2.15,2.34-7.17,2.28-8.19-1.23a.5.5,0,0,0-1,.27Z"
       transform="translate(-441.5 -120.26)"
       id="path4654" />
    <path
       class="cls-3"
       d="M682.13,341.54c-1.67,4.38-5.72,9.6-10.82,6.41-.55-.34-1,.52-.5.86,5.72,3.58,10.39-2,12.29-7,.23-.6-.74-.86-1-.27Z"
       transform="translate(-441.5 -120.26)"
       id="path4656" />
    <path
       class="cls-3"
       d="M678,349.22a8.93,8.93,0,0,0,10.37,2.54c4.31-1.87,4.42-5.2,4.69-9.35,0-.64-1-.64-1,0-.24,3.64-.27,6.74-4.08,8.41a7.9,7.9,0,0,1-9.27-2.31c-.42-.49-1.13.22-.71.71Z"
       transform="translate(-441.5 -120.26)"
       id="path4658" />
    <path
       class="cls-3"
       d="M680.44,351.5a8.31,8.31,0,0,1-4.4,6.73c-2.54,1.2-5.27.31-7.78-.51-.61-.2-.88.77-.27,1,3.09,1,6.59,2,9.48-.11a9.61,9.61,0,0,0,4-7.08c0-.64-1-.64-1,0Z"
       transform="translate(-441.5 -120.26)"
       id="path4660" />
    <path
       class="cls-3"
       d="M677.93,358.63c2.74,2.8,7.09,4.18,10.84,2.6,4.46-1.87,3.7-7,2.64-10.74a.5.5,0,0,0-1,.27c1,3.55,1.86,8.53-2.82,9.81a9.22,9.22,0,0,1-9-2.65c-.45-.46-1.16.25-.71.71Z"
       transform="translate(-441.5 -120.26)"
       id="path4662" />
    <path
       class="cls-3"
       d="M691.75,353.07c2.23.13,5.4,0,7.26-1.45s1.25-4.68,1.3-6.62a.5.5,0,0,0-1,0c0,2,.51,5.18-1.66,6.19a12.41,12.41,0,0,1-5.89.87c-.64,0-.64,1,0,1Z"
       transform="translate(-441.5 -120.26)"
       id="path4664" />
    <path
       class="cls-3"
       d="M689.21,361.39a6,6,0,0,0,8.05.79c3.47-2.46,3.88-5.29,3.56-9.35-.05-.64-1.05-.64-1,0,.22,2.78.34,5.38-1.84,7.44-2.41,2.27-5.57,3.09-8.06.41-.44-.47-1.15.24-.71.71Z"
       transform="translate(-441.5 -120.26)"
       id="path4666" />
    <path
       class="cls-3"
       d="M689.73,362.38a11.48,11.48,0,0,1-1.9,4.6c-1.46,1.83-4.34,1.69-6.19.53-.55-.34-1,.52-.5.86a6.86,6.86,0,0,0,6.23.47c2-1.07,2.87-4.22,3.32-6.2.14-.63-.82-.89-1-.27Z"
       transform="translate(-441.5 -120.26)"
       id="path4668" />
    <path
       class="cls-3"
       d="M699.16,363.44a6.76,6.76,0,0,1-3.42,7.12c-2.12,1.12-5.37,1.42-7.26-.27-.48-.43-1.19.28-.71.71,2.22,2,5.94,1.79,8.47.43a7.81,7.81,0,0,0,3.88-8.25c-.09-.63-1.05-.36-1,.27Z"
       transform="translate(-441.5 -120.26)"
       id="path4670" />
    <path
       class="cls-3"
       d="M699.69,364a11,11,0,0,0,7.77-1c2.52-1.5,2.57-4.23,2.29-6.88-.07-.63-1.07-.64-1,0,.27,2.55.3,5-2.35,6.3A10.14,10.14,0,0,1,700,363c-.63-.13-.9.84-.27,1Z"
       transform="translate(-441.5 -120.26)"
       id="path4672" />
    <path
       class="cls-3"
       d="M707.33,363.57a6.56,6.56,0,0,1-2.69,8.71c-3.1,1.64-6.06.25-8.58-1.68-.51-.39-1,.48-.5.86,3.23,2.47,7.21,3.69,10.73.94a7.61,7.61,0,0,0,1.9-9.34c-.27-.58-1.14-.07-.86.5Z"
       transform="translate(-441.5 -120.26)"
       id="path4674" />
    <path
       class="cls-3"
       d="M706.15,372.69a5.88,5.88,0,0,1-8.33,8.21c-.52-.38-1,.49-.5.86a6.87,6.87,0,0,0,9.7-9.58c-.37-.52-1.24,0-.86.5Z"
       transform="translate(-441.5 -120.26)"
       id="path4676" />
    <path
       class="cls-3"
       d="M755.07,328.13c0,2.14-.31,4.7.29,6.77a.5.5,0,0,0,1-.27c-.57-2-.23-4.46-.25-6.51a.5.5,0,0,0-1,0Z"
       transform="translate(-441.5 -120.26)"
       id="path4678" />
    <path
       class="cls-3"
       d="M760.43,332.75l-.41,2.74c-.09.63.87.9,1,.27l.41-2.74c.09-.63-.87-.9-1-.27Z"
       transform="translate(-441.5 -120.26)"
       id="path4680" />
    <path
       class="cls-3"
       d="M707.36,374.31c2.54.74,6.3.91,8.48-.94s1.8-6.12,1.72-8.55c0-.64-1-.64-1,0,.08,2.19.42,6.52-1.61,8s-5.14,1.19-7.32.56a.5.5,0,0,0-.27,1Z"
       transform="translate(-441.5 -120.26)"
       id="path4682" />
    <path
       class="cls-3"
       d="M706.19,381.62c3.49,1.13,7.89,2.09,10.81-.84,2.55-2.56,1.56-6.79.57-9.83-.2-.61-1.16-.35-1,.27.87,2.68,1.93,6.57-.31,8.86-2.61,2.68-6.74,1.59-9.83.58-.61-.2-.88.77-.27,1Z"
       transform="translate(-441.5 -120.26)"
       id="path4684" />
    <path
       class="cls-3"
       d="M716.19,380.93c1.07,3,1.31,6.44-1.61,8.5a10.76,10.76,0,0,1-7.09,1.61c-.64-.06-.64.94,0,1,2.85.29,6.28-.4,8.43-2.4,2.57-2.4,2.33-5.92,1.23-9-.21-.6-1.18-.34-1,.27Z"
       transform="translate(-441.5 -120.26)"
       id="path4686" />
    <path
       class="cls-3"
       d="M725.64,374.51a9.88,9.88,0,0,1-1.78,6.76c-1.74,2.36-3.93,1.84-6.37,1.11a.5.5,0,0,0-.27,1c2.55.75,4.85,1.35,6.89-.8a10.54,10.54,0,0,0,2.53-8c-.06-.63-1.07-.64-1,0Z"
       transform="translate(-441.5 -120.26)"
       id="path4688" />
    <path
       class="cls-3"
       d="M715.25,390c2.71,2.2,6.7,3.32,9.61.77s1.51-6.58-.4-9.15c-.38-.51-1.25,0-.86.5,1.46,2,2.81,5.18,1.07,7.38-2.26,2.85-6.3,1.75-8.72-.21-.5-.4-1.21.3-.71.71Z"
       transform="translate(-441.5 -120.26)"
       id="path4690" />
    <path
       class="cls-3"
       d="M723.77,391.71c2.64,1.65,6.07,2.19,8.66.11a10.38,10.38,0,0,0,2.76-3.57c.73-1.67.25-3.15-.43-4.74-.25-.59-1.11-.08-.86.5a4.67,4.67,0,0,1-.32,5,8.21,8.21,0,0,1-2.34,2.43c-2.24,1.36-4.88.71-7-.6-.55-.34-1,.52-.5.86Z"
       transform="translate(-441.5 -120.26)"
       id="path4692" />
    <path
       class="cls-3"
       d="M725.71,392.67c.11,1.94.25,4.09-.91,5.77-1.48,2.14-4.49,1.56-6.67,1.09-.63-.14-.9.83-.27,1,2.31.5,5.28,1.07,7.15-.76s1.83-4.63,1.7-7.06c0-.64-1-.64-1,0Z"
       transform="translate(-441.5 -120.26)"
       id="path4694" />
    <path
       class="cls-3"
       d="M724.38,400.34c2.36,1,8.19,2.77,9.87-.19a9.12,9.12,0,0,0-.58-9.49c-.38-.51-1.25,0-.86.5a7.9,7.9,0,0,1,1.12,7c-1,3.89-6.33,2.54-9,1.35-.58-.26-1.09.61-.5.86Z"
       transform="translate(-441.5 -120.26)"
       id="path4696" />
    <path
       class="cls-3"
       d="M733.05,401.11c2,1.76,5.37,1.88,7.78.88,2-.84,3.09-3.73,3.25-5.73.05-.64-.95-.64-1,0-.15,1.93-1.25,4.2-3.14,5a6.57,6.57,0,0,1-6.17-.81c-.48-.43-1.19.28-.71.71Z"
       transform="translate(-441.5 -120.26)"
       id="path4698" />
    <path
       class="cls-3"
       d="M733.88,402.15c.12,1.62-1.42,3.36-2.67,4.23-1.73,1.21-4.17,1.09-6.16.72-.63-.12-.9.85-.27,1,2.28.43,5.07.56,7.05-.86,1.48-1.06,3.18-3.14,3-5.05,0-.64-1-.64-1,0Z"
       transform="translate(-441.5 -120.26)"
       id="path4700" />
    <path
       class="cls-3"
       d="M740.32,402.34c1.42,2.12,1.86,6.16-.78,7.67s-6.1-1.29-8.06-2.82c-.5-.39-1.21.31-.71.71,2.41,1.88,6.65,5.11,9.71,2.65,2.6-2.1,2.42-6.17.71-8.72-.36-.53-1.22,0-.86.5Z"
       transform="translate(-441.5 -120.26)"
       id="path4702" />
    <path
       class="cls-3"
       d="M739.44,411.27c2.14,1.75.27,4.7-1.66,5.63a7.43,7.43,0,0,1-5.88-.17c-.6-.23-.86.74-.27,1,2.69,1,5.9,1.17,8.12-.94,1.68-1.6,2.41-4.54.4-6.18-.49-.4-1.21.3-.71.71Z"
       transform="translate(-441.5 -120.26)"
       id="path4704" />
    <path
       class="cls-3"
       d="M741,413.08c2.42.26,5.3.95,7.6-.21s2.77-3.68,3.16-5.91c.11-.63-.85-.9-1-.27-.41,2.34-1,5-3.65,5.63-2,.48-4.19,0-6.15-.25-.64-.07-.63.93,0,1Z"
       transform="translate(-441.5 -120.26)"
       id="path4706" />
    <path
       class="cls-3"
       d="M747.88,413.33c.23,1.29.52,2.75-.13,4a7.43,7.43,0,0,1-3,2.58c-3,1.66-4.82-.49-6.92-2.34-.48-.42-1.19.28-.71.71,2.57,2.26,4.66,4.47,8.13,2.5,3.28-1.87,4.23-4.06,3.58-7.7-.11-.63-1.08-.36-1,.27Z"
       transform="translate(-441.5 -120.26)"
       id="path4708" />
    <path
       class="cls-3"
       d="M744.57,421c.89,1.62.61,5.34-1,6.4-1.78,1.17-4.79-.28-6.68-.82a.5.5,0,0,0-.27,1c2.46.7,6.06,2.51,8.13.14a7.29,7.29,0,0,0,.69-7.19c-.31-.56-1.17-.06-.86.5Z"
       transform="translate(-441.5 -120.26)"
       id="path4710" />
    <path
       class="cls-3"
       d="M745.79,424c2.3.9,5.57,2.3,7.87.68s2.3-4.33,2.22-6.72c0-.64-1-.64-1,0,.07,2.09.08,4.81-2,6s-4.83-.13-6.81-.91c-.6-.24-.86.73-.27,1Z"
       transform="translate(-441.5 -120.26)"
       id="path4712" />
    <path
       class="cls-3"
       d="M751.53,425.41c1.16,2.89-.75,5.34-3.72,5.44-2.34.08-2.85-1.42-4.34-2.79-.47-.44-1.18.27-.71.71,1,.88,1.55,2.26,2.8,2.81a6.41,6.41,0,0,0,4.34-.08,4.75,4.75,0,0,0,2.6-6.34c-.24-.59-1.2-.33-1,.27Z"
       transform="translate(-441.5 -120.26)"
       id="path4714" />
    <path
       class="cls-3"
       d="M748.4,431.61a4.87,4.87,0,0,1,.06,1.54,4.51,4.51,0,0,1-1.45,3.67c-2.33,1.75-4.72-.34-6.35-2a.5.5,0,0,0-.71.71c2,2,4.87,4.18,7.63,2.13a4.91,4.91,0,0,0,1.77-3.29c.12-.79.4-2.56-.1-3.28-.36-.52-1.23,0-.86.5Z"
       transform="translate(-441.5 -120.26)"
       id="path4716" />
    <path
       class="cls-3"
       d="M749,435.15c2,.82,4.78,1.82,7,1.44,1.89-.33,2.59-3,3-4.53a.5.5,0,0,0-1-.27c-.55,2.19-1.34,4-3.86,3.72a18.13,18.13,0,0,1-4.85-1.32c-.59-.25-.85.72-.27,1Z"
       transform="translate(-441.5 -120.26)"
       id="path4718" />
    <path
       class="cls-3"
       d="M744.57,438.28c.74,3.08,2.56,4.92,5.87,4.84a5.14,5.14,0,0,0,3.54-1.4c1.42-1.31,1.36-3.34,2.16-5,.27-.58-.59-1.09-.86-.5-1,2.15-.93,5.06-3.69,5.82-3.06.84-5.36-1.13-6-4-.15-.63-1.11-.36-1,.27Z"
       transform="translate(-441.5 -120.26)"
       id="path4720" />
    <path
       class="cls-3"
       d="M750.83,443a8.87,8.87,0,0,1-1.13,3.41c-1.2,1.83-3.9,1.7-5.43.49-1.34-1-2.2-2.5-3.69-3.38a.5.5,0,0,0-.5.86c2.71,1.59,3.61,4.67,7.23,4.37,3-.25,4-2.77,4.49-5.5.1-.63-.86-.9-1-.27Z"
       transform="translate(-441.5 -120.26)"
       id="path4722" />
    <path
       class="cls-3"
       d="M750.67,446.18c1.91.93,4,2.3,6.26,2.06,2-.22,3-1.86,4.09-3.42.36-.53-.5-1-.86-.5-1.23,1.79-2.34,3.39-4.84,2.8a21,21,0,0,1-4.14-1.81c-.58-.28-1.08.58-.5.86Z"
       transform="translate(-441.5 -120.26)"
       id="path4724" />
    <path
       class="cls-3"
       d="M745.94,448.46c.35,1.26.53,3,1.56,3.89a5.92,5.92,0,0,0,3.64,1.24,5.35,5.35,0,0,0,3.69-1c1.11-1,1.34-3,1.62-4.43.13-.63-.83-.9-1-.27a13.65,13.65,0,0,1-.64,2.54,3.58,3.58,0,0,1-3.71,2.18,3.91,3.91,0,0,1-3.11-1.34,8.53,8.53,0,0,1-1.12-3.05.5.5,0,0,0-1,.27Z"
       transform="translate(-441.5 -120.26)"
       id="path4726" />
    <path
       class="cls-3"
       d="M750.57,453.25c.11,1.68-1.36,4.92-3.24,5.07-2.15.17-3.15-2.71-4-4.3-.31-.57-1.17-.06-.86.5,1.06,1.95,2.47,5.47,5.32,4.87,2.27-.48,3.94-4,3.81-6.14,0-.64-1-.64-1,0Z"
       transform="translate(-441.5 -120.26)"
       id="path4728" />
    <path
       class="cls-3"
       d="M750.43,456.82c1.51,1.32,3.52,2.6,5.6,2.63,2.31,0,2.76-2,4.56-3.05a.5.5,0,0,0-.5-.86c-1.18.67-1.84,1.77-3,2.45-2,1.17-4.45-.54-6-1.87-.48-.42-1.19.28-.71.71Z"
       transform="translate(-441.5 -120.26)"
       id="path4730" />
    <path
       class="cls-3"
       d="M754.15,459.33c.27,1.7-1.7,5.43-3.87,4.88-1.11-.28-1.94-1.58-2.94-2.14-.56-.31-1.07.55-.5.86,1.75,1,3,3.17,5.26,2a6.18,6.18,0,0,0,3-5.84c-.1-.63-1.06-.36-1,.27Z"
       transform="translate(-441.5 -120.26)"
       id="path4732" />
    <path
       class="cls-3"
       d="M748.95,464.62a7.22,7.22,0,0,1-.55,1.46,2.26,2.26,0,0,1-1.15,1.2q-.79.87-1.78-.06c-1.56-.59-1.25-1-2.07-2.14a6.55,6.55,0,0,0-3.26-2.48c-.62-.19-.88.77-.27,1,2.27.72,2.53,2.63,3.89,4.2a2.81,2.81,0,0,0,1.91,1c2.34.21,3.66-2,4.23-3.9a.5.5,0,0,0-1-.27Z"
       transform="translate(-441.5 -120.26)"
       id="path4734" />
    <path
       class="cls-3"
       d="M748.13,467.45c1.42,1.39,3.6,3.61,5.64,4s3-2.06,3.88-3.38c.36-.54-.51-1-.86-.5s-.84,1.23-1.29,1.83c-.78,1-1.66,1.15-2.88.46a19.47,19.47,0,0,1-3.79-3.06c-.46-.45-1.17.26-.71.71Z"
       transform="translate(-441.5 -120.26)"
       id="path4736" />
    <path
       class="cls-3"
       d="M752.76,471.42c-.27,2.24-3.67,4.86-5.63,3-1.58-1.53-1.38-4.24-1.3-6.25,0-.64-1-.64-1,0-.1,2.67-.1,7.15,3.27,7.91,2.57.58,5.37-2.24,5.66-4.61.08-.64-.92-.63-1,0Z"
       transform="translate(-441.5 -120.26)"
       id="path4738" />
    <path
       class="cls-3"
       d="M746.81,475.55c-.88,2.45-4.08,4.45-5.45,1.15a13.37,13.37,0,0,0-2.05-3.49c-.41-.5-1.11.21-.71.71a20.17,20.17,0,0,1,2.19,4,2.66,2.66,0,0,0,2.13,1.59c2.3.28,4.14-1.73,4.85-3.71.22-.61-.75-.87-1-.27Z"
       transform="translate(-441.5 -120.26)"
       id="path4740" />
    <path
       class="cls-3"
       d="M745.76,477.83c.62,1.59,1.35,3.25,3.06,3.92,2.21.87,4.19-.62,6.35-.9.63-.08.64-1.08,0-1a37.82,37.82,0,0,0-3.73,1c-2.64.62-3.88-1.18-4.71-3.32-.23-.59-1.2-.33-1,.27Z"
       transform="translate(-441.5 -120.26)"
       id="path4742" />
    <path
       class="cls-3"
       d="M741,478.8c-.21,2.48,0,5.89,2.9,6.73,2.55.74,4.85-2,6.18-3.79.39-.52-.48-1-.86-.5-1.07,1.44-3.05,3.86-5,3.27-2.41-.72-2.36-3.67-2.18-5.71.06-.64-.95-.64-1,0Z"
       transform="translate(-441.5 -120.26)"
       id="path4744" />
    <path
       class="cls-3"
       d="M735.06,483.06c1.06,2,1.81,5,4.44,5.28a5.3,5.3,0,0,0,5.17-2.88c.3-.57-.56-1.07-.86-.5a4.25,4.25,0,0,1-4.65,2.32c-1.6-.44-2.51-3.33-3.24-4.72-.3-.57-1.16-.07-.86.5Z"
       transform="translate(-441.5 -120.26)"
       id="path4746" />
    <path
       class="cls-3"
       d="M742.34,487.58c.21,1.38.66,4.09,2.12,4.78,1.81.85,4-.89,5.74-1,.64,0,.64-1,0-1-1.39.08-2.53.77-3.86,1.05-2.3.49-2.78-2.37-3-4.11-.09-.63-1.06-.36-1,.27Z"
       transform="translate(-441.5 -120.26)"
       id="path4748" />
    <path
       class="cls-3"
       d="M737.63,487.74c.11,2.39-1.71,6,1,7.62a4.24,4.24,0,0,0,3.58.1,5.6,5.6,0,0,0,1.58-.83c.58-.46,1-1.47,1.74-1.72s.34-1.18-.27-1a2.51,2.51,0,0,0-1.18.83c-1,1.19-2.27,2.25-4,2-3.33-.51-1.36-4.93-1.46-7,0-.64-1-.64-1,0Z"
       transform="translate(-441.5 -120.26)"
       id="path4750" />
    <path
       class="cls-3"
       d="M730.65,491.8c1,1.69.68,5.19,3,5.76a5.23,5.23,0,0,0,2.82-.16c1.09-.41,1.74-1.46,2.84-1.85.6-.21.34-1.18-.27-1-1.49.52-2.56,2.35-4.29,2.05-2.63-.46-2.2-3.51-3.27-5.34a.5.5,0,0,0-.86.5Z"
       transform="translate(-441.5 -120.26)"
       id="path4752" />
    <path
       class="cls-3"
       d="M736.8,496.78c.06,1.74.35,4.17,1.84,5.32a3.08,3.08,0,0,0,2.21.62,3.3,3.3,0,0,0,1.05-.29c.53-.25,1.18-1.07,1.76-1s.9-.87.27-1c-1.53-.23-2.32,1.6-3.92,1.2-1.87-.47-2.15-3.34-2.21-4.9,0-.64-1-.64-1,0Z"
       transform="translate(-441.5 -120.26)"
       id="path4754" />
    <path
       class="cls-3"
       d="M731.66,495.71c-1,2.26-2,5.31.09,7.32a4.12,4.12,0,0,0,3.06,1.07,4.8,4.8,0,0,0,1.69-.35c.92-.4,1.42-1.19,2.5-1.31.63-.07.64-1.07,0-1-1.88.2-3,2-5,1.6-3.47-.62-2.43-4.6-1.45-6.82.26-.58-.6-1.09-.86-.5Z"
       transform="translate(-441.5 -120.26)"
       id="path4756" />
    <path
       class="cls-3"
       d="M732.13,503.11a5,5,0,0,1-.77,2.19,2.66,2.66,0,0,1-3,.57c-1.75-.76-1.79-2.94-1.8-4.57a.5.5,0,0,0-1,0c0,2.22.36,5.13,3,5.68s4.06-1.16,4.54-3.61c.12-.63-.84-.9-1-.27Z"
       transform="translate(-441.5 -120.26)"
       id="path4758" />
    <path
       class="cls-3"
       d="M731.48,506.06c1.5,1.4,1.12,3.89,2.7,5.17s3.16-.05,4.83-.54a.5.5,0,0,0-.27-1c-.81.23-1.48.78-2.28,1-1.41.42-2.14-.71-2.5-1.88a7.43,7.43,0,0,0-1.78-3.51c-.47-.44-1.18.27-.71.71Z"
       transform="translate(-441.5 -120.26)"
       id="path4760" />
    <path
       class="cls-3"
       d="M726.49,506c-.37,2.14-1,5.59,1.1,7.06a5.12,5.12,0,0,0,3.49.67c1.64-.26,2.07-1.69,3.48-2.26.59-.24.33-1.2-.27-1a4.22,4.22,0,0,0-1.49,1.06,3.4,3.4,0,0,1-3.23,1.14c-3.13-.5-2.51-4.12-2.11-6.44.11-.63-.85-.9-1-.27Z"
       transform="translate(-441.5 -120.26)"
       id="path4762" />
    <path
       class="cls-3"
       d="M727.1,512.94a2.69,2.69,0,0,1-4.08,1.73c-1.28-.85-1.49-2.93-1.53-4.34a.5.5,0,0,0-1,0c0,2,.51,5,2.84,5.6a3.62,3.62,0,0,0,4.74-2.72c.13-.63-.83-.9-1-.27Z"
       transform="translate(-441.5 -120.26)"
       id="path4764" />
    <path
       class="cls-3"
       d="M725.31,515.74c.71,1.39,1.08,3.15,2.44,4.1s3.32.72,5,.37c.63-.13.36-1.1-.27-1-1.65.35-3.64.68-4.78-.9a22.68,22.68,0,0,1-1.49-3.12c-.29-.57-1.16-.07-.86.5Z"
       transform="translate(-441.5 -120.26)"
       id="path4766" />
    <path
       class="cls-3"
       d="M721.86,514.86c-1.11,1.2-2.75,3.23-.67,4.3a12.24,12.24,0,0,0,3.67,1.09,4.17,4.17,0,0,0,1.23.08c.47-.07.95-.59,1.36-.61.64,0,.64-1,0-1a2.06,2.06,0,0,0-.87.3,4,4,0,0,1-2.85,0c-.52-.14-1.87-.34-2.18-.76a1.59,1.59,0,0,1,.06-1.5,6.07,6.07,0,0,1,1-1.17c.44-.47-.27-1.18-.71-.71Z"
       transform="translate(-441.5 -120.26)"
       id="path4768" />
    <path
       class="cls-3"
       d="M713.5,512.33c1.17,1.86.08,4.81,1.76,6.46a3.51,3.51,0,0,0,2.57.84c1.19-.11,2-1.24,3.2-1.09.64.08.63-.92,0-1a3,3,0,0,0-1.89.45c-1.51.83-3.18.76-3.73-1.08-.48-1.61-.14-3.63-1.05-5.09-.34-.54-1.21,0-.86.5Z"
       transform="translate(-441.5 -120.26)"
       id="path4770" />
    <path
       class="cls-3"
       d="M717.65,519.34c.17,2,.29,4.5,1.8,6a3.41,3.41,0,0,0,2,1c1.31.13,2.23-.95,3.54-.93a.5.5,0,0,0,0-1c-1.73,0-3.32,1.71-4.83.25-1.29-1.25-1.37-3.62-1.51-5.28-.05-.64-1.05-.64-1,0Z"
       transform="translate(-441.5 -120.26)"
       id="path4772" />
    <path
       class="cls-3"
       d="M712.61,520.62c.41,1.57.07,3.12,1.32,4.41s3,1.21,4.56,1.1c.64,0,.64-1,0-1-1.48.1-3.28.21-4.17-1.24-.67-1.07-.43-2.35-.74-3.53a.5.5,0,0,0-1,.27Z"
       transform="translate(-441.5 -120.26)"
       id="path4774" />
    <path
       class="cls-3"
       d="M706.94,520.29c0,1.33-.13,2.67-.11,4a2.2,2.2,0,0,0,.58,1.68c1.19,1.22,3.35,1.47,4.93,1.26.63-.08.64-1.08,0-1-1.2.16-3.36.11-4.22-1-.48-.59-.27-1.77-.25-2.47l.07-2.5a.5.5,0,0,0-1,0Z"
       transform="translate(-441.5 -120.26)"
       id="path4776" />
    <path
       class="cls-3"
       d="M700.76,523.7c-1.47,2.06-4.34,7.05-.42,8,1.23.3,2.91.53,4-.19,1.88-1.22,2.33-3.74,4.37-4.87.56-.31.06-1.18-.5-.86-2,1.13-2.8,4.22-4.84,5a4.35,4.35,0,0,1-2.25.07c-1.46-.24-1.85-.63-1.55-2.38a11,11,0,0,1,2.05-4.23c.37-.52-.49-1-.86-.5Z"
       transform="translate(-441.5 -120.26)"
       id="path4778" />
    <path
       class="cls-3"
       d="M704.62,530.72a3.27,3.27,0,0,0,1.79,2.79,6.46,6.46,0,0,0,4.3.46.5.5,0,0,0-.27-1,5.32,5.32,0,0,1-3.28-.28c-1.13-.39-1.38-1.17-1.58-2.27-.11-.63-1.08-.36-1,.27Z"
       transform="translate(-441.5 -120.26)"
       id="path4780" />
    <path
       class="cls-3"
       d="M700.06,530.93c-.92,1.87-2.87,3.73-5.13,2.83s-2.65-3.56-2.05-5.7a.5.5,0,0,0-1-.27c-.72,2.59-.16,5.8,2.62,6.9s5.24-.93,6.39-3.26c.28-.58-.58-1.08-.86-.5Z"
       transform="translate(-441.5 -120.26)"
       id="path4782" />
    <path
       class="cls-3"
       d="M697.53,534.38c.41,1.78.62,3.53,2.48,4.31a6.56,6.56,0,0,0,2.35.51c1,0,1.45-.77,2.33-1.08.6-.21.34-1.17-.27-1a6,6,0,0,0-1.18.68A2.67,2.67,0,0,1,701,538c-1.92-.52-2.11-2.14-2.5-3.84-.15-.63-1.11-.36-1,.27Z"
       transform="translate(-441.5 -120.26)"
       id="path4784" />
    <path
       class="cls-3"
       d="M691.85,531.11c-.36,1-2,1.77-2.63,2.7a3.12,3.12,0,0,0-.55,2.88,6,6,0,0,0,5.58,3.31c.63-.08.64-1.08,0-1a4.32,4.32,0,0,1-3.09-1c-1.42-1-2.13-2.43-.84-3.93.8-.92,2.09-1.48,2.5-2.66.21-.61-.76-.87-1-.27Z"
       transform="translate(-441.5 -120.26)"
       id="path4786" />
    <path
       class="cls-3"
       d="M683.77,531c-1.17,1.15-2.22,3.54-1,5,1.37,1.66,4.65,1.21,6.49,1,.64-.06.64-1.06,0-1a14.75,14.75,0,0,1-4.52-.07c-2.23-.52-1.5-3-.25-4.27.46-.45-.25-1.16-.71-.71Z"
       transform="translate(-441.5 -120.26)"
       id="path4788" />
    <path
       class="cls-3"
       d="M682.72,534.19c-1.27.84-3.13,2.8-2.6,4.5.6,1.93,3.49,2.8,5.25,2.83a.5.5,0,0,0,0-1,5.15,5.15,0,0,1-3.95-1.66c-1-1.36.72-3.1,1.8-3.81.53-.35,0-1.22-.5-.86Z"
       transform="translate(-441.5 -120.26)"
       id="path4790" />
    <path
       class="cls-3"
       d="M674.93,532.44c-.26,1.49-.72,3.65.38,4.92s3.43,1.65,5.07,1.74c.64,0,.64-1,0-1a7.22,7.22,0,0,1-4.14-1.22c-1-.91-.54-3-.34-4.17.11-.63-.85-.9-1-.27Z"
       transform="translate(-441.5 -120.26)"
       id="path4792" />
    <path
       class="cls-3"
       d="M672.58,538.71c0,1.27-.16,2.7.65,3.78s2.33,1.24,3.64,1.21a.5.5,0,0,0,0-1c-1.06,0-2.43,0-3-1a6.7,6.7,0,0,1-.3-2.95.5.5,0,0,0-1,0Z"
       transform="translate(-441.5 -120.26)"
       id="path4794" />
    <path
       class="cls-3"
       d="M667.85,535.6c-.15,1.43-.24,3.09.82,4.23s2.65,1.09,4,.78c.63-.14.36-1.1-.27-1-1.17.26-2.61.32-3.31-.86a5.19,5.19,0,0,1-.29-3.19c.07-.64-.93-.63-1,0Z"
       transform="translate(-441.5 -120.26)"
       id="path4796" />
    <path
       class="cls-3"
       d="M661.08,534.79c-1.25,1.49-2.83,4.81-.72,6.28,2.65,1.85,6-.88,8.51-1.54a.5.5,0,0,0-.27-1c-1.69.45-3.15,1.36-4.8,1.86a3,3,0,0,1-1.68.16,2.44,2.44,0,0,1-1.7-2.06,5.19,5.19,0,0,1,1.35-3c.41-.49-.29-1.2-.71-.71Z"
       transform="translate(-441.5 -120.26)"
       id="path4798" />
    <path
       class="cls-3"
       d="M664.8,540.58c.07,1.21.19,2.9,1.12,3.8.5.49,1.17.72,1.67,1.23a7.75,7.75,0,0,0,1.48,1.38c.55.34,1.05-.53.5-.86-.82-.51-1.28-1.4-2.08-1.94a2.74,2.74,0,0,1-1.3-1.35,7.28,7.28,0,0,1-.39-2.26c0-.64-1-.64-1,0Z"
       transform="translate(-441.5 -120.26)"
       id="path4800" />
    <path
       class="cls-3"
       d="M659.55,538c-2.29.79-5.29,2.84-5,5.61.25,2.59,2.88,3.66,5.15,3.88.64.06.64-.94,0-1-1.84-.18-4.1-1.05-4.1-3.2s2.4-3.68,4.23-4.31c.6-.21.34-1.18-.27-1Z"
       transform="translate(-441.5 -120.26)"
       id="path4802" />
    <path
       class="cls-3"
       d="M651.42,536a4.18,4.18,0,0,0-1.82,4.88c.7,1.88,3.59,2.3,5.28,2.22.64,0,.64-1,0-1a5.18,5.18,0,0,1-3.85-1c-1.14-1.13-.5-3.56.9-4.2.58-.27.08-1.13-.5-.86Z"
       transform="translate(-441.5 -120.26)"
       id="path4804" />
    <path
       class="cls-3"
       d="M644.29,537c-1.21,1.15-2.6,3-2.53,4.76s1.76,2.88,3.27,3.59c.58.27,1.09-.59.5-.86-1.4-.66-3.08-1.55-2.68-3.4a7,7,0,0,1,2.15-3.37c.47-.44-.24-1.15-.71-.71Z"
       transform="translate(-441.5 -120.26)"
       id="path4806" />
    <path
       class="cls-3"
       d="M640.43,535.95a4.66,4.66,0,0,0-1.66,4.12c.23,1.73,2.28,1.77,3.67,1.64.63-.06.64-1.06,0-1-1.21.12-2.83.16-2.69-1.49a3.78,3.78,0,0,1,1.39-2.57c.49-.42-.22-1.12-.71-.71Z"
       transform="translate(-441.5 -120.26)"
       id="path4808" />
    <path
       class="cls-3"
       d="M634.87,535.05a2.84,2.84,0,0,0-2.37,3,3.39,3.39,0,0,0,2.67,2.62c.63.13.9-.84.27-1a2.5,2.5,0,0,1-1.82-1.41c-.51-1.14.51-2,1.52-2.28a.5.5,0,0,0-.27-1Z"
       transform="translate(-441.5 -120.26)"
       id="path4810" />
    <path
       class="cls-3"
       d="M631.54,532.49c-1,.63-1.83,1.46-1.44,2.7a3.86,3.86,0,0,0,2.44,2.41c.61.22.87-.75.27-1a2.85,2.85,0,0,1-1.6-1.38c-.47-.93.1-1.43.84-1.9.54-.35,0-1.21-.5-.86Z"
       transform="translate(-441.5 -120.26)"
       id="path4812" />
    <path
       class="cls-3"
       d="M697.13,188.85a13.31,13.31,0,0,1,6.5,1.58,6.76,6.76,0,0,1,4,6.23c.25,3.42.09,6.94,1.1,10.26.19.61,1.15.35,1-.27a34.15,34.15,0,0,1-1-8.17c-.1-1.88,0-4-.94-5.75-2-3.49-6.92-4.87-10.62-4.88a.5.5,0,0,0,0,1Z"
       transform="translate(-441.5 -120.26)"
       id="path4814" />
    <path
       class="cls-3"
       d="M695.1,199.88c.37-1.54.53-2.87,2.17-3.38s3,.32,4,1.68,1.63,4,2,5.82c.73,3.38.49,6.82,2,10,.28.58,1.14.07.86-.5-1.46-3.07-1.19-6.51-1.91-9.77-.46-2.09-1-4.83-2.42-6.52-1-1.15-3.49-2.75-5.08-2.26s-2.28,3.27-2.62,4.66c-.15.63.81.89,1,.27Z"
       transform="translate(-441.5 -120.26)"
       id="path4816" />
    <path
       class="cls-3"
       d="M667,189.18a17.85,17.85,0,0,1,10.36-2.5l-.43-.75c-.47,1.09-2.35.29-2.81,1.64a1.83,1.83,0,0,0,.8,2,3.34,3.34,0,0,0,2.58.6c.54-.15.77-.52,1.19-.84.05,0,4.2-2.37,4.18-1.66,0,.19-2,1.11-2.32,1.79a2.48,2.48,0,0,0,.18,2.23,3.2,3.2,0,0,0,3.24,1.33,7.74,7.74,0,0,0,1.72-.61,8.85,8.85,0,0,1,5.41-.64l-.35-.62c-.34,1-2.06,1.13-2.54,2.28a2.72,2.72,0,0,0,.19,2.31c.27.58,1.13.08.86-.5-.88-1.94,2-2.44,2.45-3.81a.5.5,0,0,0-.35-.62,9.5,9.5,0,0,0-3.69-.12c-.64.12-1.16.36-1.77.54l-.72.32q-3.89,1.94-2.41-2.56c.52-.53,2.28-.77,1.1-2s-3.67.08-4.66.67c-.18.11-1.06.84-1.24.94-.71.38-3.39.91-1.6-1.18.44-.51,1.06-.2,1.42-1a.51.51,0,0,0-.43-.75,18.83,18.83,0,0,0-10.86,2.64.5.5,0,0,0,.5.86Z"
       transform="translate(-441.5 -120.26)"
       id="path4818" />
    <path
       class="cls-3"
       d="M668.38,177.39c.84-.17,1.48-.74,2.3-.94a3.24,3.24,0,0,1,2.8.68c.49.4,1.21-.3.71-.71a4.36,4.36,0,0,0-2.69-1.06c-1.31,0-2.17.81-3.39,1.06-.63.13-.36,1.09.27,1Z"
       transform="translate(-441.5 -120.26)"
       id="path4820" />
    <path
       class="cls-3"
       d="M677.86,173.27c-.86,3.92,2.05,7.17,5.79,8,1.35.29,2,.1,2.3-1.29a11.18,11.18,0,0,0,0-1.58,4.4,4.4,0,0,1,1.52-2.91c1-1,2.14-1.78,3.21-2.65.5-.41-.21-1.11-.71-.71-1.8,1.47-4.51,3-5,5.49-.19,1,.24,1.33-.56,2.11s-1.54.41-2.66-.21a5.4,5.4,0,0,1-3-6c.14-.63-.83-.9-1-.27Z"
       transform="translate(-441.5 -120.26)"
       id="path4822" />
    <path
       class="cls-3"
       d="M684.89,180.78a1.51,1.51,0,0,0,.37,1.28.62.62,0,0,0,1-.27,3,3,0,0,0,0-1.63c-.06-.49-.14-1-.18-1.47s-1-.64-1,0c0,.41.09.81.14,1.22s.32,1.21.1,1.53l.3-.23-.09,0,.49.13c-.13-.13-.1-.41-.08-.57.08-.64-.92-.63-1,0Z"
       transform="translate(-441.5 -120.26)"
       id="path4824" />
    <path
       class="cls-3"
       d="M685.19,180.68l-.84-.2c-.63-.15-.89.82-.27,1l.84.2c.63.15.89-.82.27-1Z"
       transform="translate(-441.5 -120.26)"
       id="path4826" />
    <path
       class="cls-3"
       d="M683.83,180.85a19,19,0,0,0,1.09-1.63c.35-.56.77-1.06,1.12-1.62s-.52-1-.86-.5-.69.95-1,1.44-.65,1.1-1,1.61.31,1.22.71.71Z"
       transform="translate(-441.5 -120.26)"
       id="path4828" />
    <path
       class="cls-3"
       d="M718.53,211.72c.67,1.21,1.2,2.48,2.51,3.11a11.85,11.85,0,0,0,4.13.94c.64.05.64-.95,0-1a11.75,11.75,0,0,1-3.41-.72c-1.27-.51-1.73-1.71-2.36-2.84-.31-.56-1.18-.06-.86.5Z"
       transform="translate(-441.5 -120.26)"
       id="path4830" />
    <path
       class="cls-3"
       d="M664.74,198.29c-1.43.8-2.19,2.52-3.05,3.85l-3.91,6.05c-.35.54.52,1,.86.5l3.09-4.78c1-1.47,2-3.89,3.52-4.76a.5.5,0,0,0-.5-.86Z"
       transform="translate(-441.5 -120.26)"
       id="path4832" />
    <path
       class="cls-3"
       d="M666.17,201.19a38.14,38.14,0,0,1-3.43,5.1,8.32,8.32,0,0,0-2,4c-.09.63.88.9,1,.27.25-1.82,1.38-3.11,2.47-4.51a32.29,32.29,0,0,0,2.83-4.34c.31-.57-.56-1.07-.86-.5Z"
       transform="translate(-441.5 -120.26)"
       id="path4834" />
    <path
       class="cls-3"
       d="M669.34,201.83c-.44,0-.56.24-.78.58a18.68,18.68,0,0,0-1.4,2.73,12.32,12.32,0,0,1-1,2.07,3.6,3.6,0,0,0-.79,2c0,.64,1,.64,1,0,.06-1,1.06-2,1.47-2.92.27-.63.52-1.25.83-1.85a10.78,10.78,0,0,0,.71-1.56.5.5,0,0,0,0-1Z"
       transform="translate(-441.5 -120.26)"
       id="path4836" />
    <path
       class="cls-3"
       d="M671.19,202.83c-1.17,2.84-2.64,5.84-3,8.92-.07.64.93.63,1,0,.34-3,1.83-5.91,3-8.66.24-.59-.72-.85-1-.27Z"
       transform="translate(-441.5 -120.26)"
       id="path4838" />
    <path
       class="cls-3"
       d="M627.75,220.51a19.19,19.19,0,0,0,7.83-2.22c3.13-1.46,6.25-3,9.26-4.65,5-2.83,9.72-6.28,12.79-11.25.34-.55-.53-1.05-.86-.5-3,4.82-7.56,8.14-12.43,10.89-2.37,1.33-4.8,2.53-7.25,3.7-3,1.42-6,3-9.34,3a.5.5,0,0,0,0,1Z"
       transform="translate(-441.5 -120.26)"
       id="path4840" />
    <path
       class="cls-3"
       d="M640.43,242.72a8,8,0,0,0,1.79-1.74,9.29,9.29,0,0,1,4.31-3.25c3-1.07,5.94-1.15,9-1.54,5-.63,9.27-3.37,13.27-6.17.52-.37,0-1.23-.5-.86-.72.51-1.4.74-2.07,1.29a18.58,18.58,0,0,1-3.83,2.43,26.53,26.53,0,0,1-10,2.51,23.18,23.18,0,0,0-6.89,1.67,9.39,9.39,0,0,0-2.35,1.37c-1.24,1-1.91,2.51-3.24,3.43-.52.37,0,1.23.5.86Z"
       transform="translate(-441.5 -120.26)"
       id="path4842" />
    <path
       class="cls-3"
       d="M644.31,239c1.22-.58,2.68-.46,4-.66,1.62-.25,3.27-.69,4.86-1.1a53.87,53.87,0,0,0,10-3.65c.58-.28.07-1.14-.5-.86a53.91,53.91,0,0,1-11.43,3.94c-2.34.54-5.27.43-7.44,1.47-.58.28-.07,1.14.5.86Z"
       transform="translate(-441.5 -120.26)"
       id="path4844" />
    <path
       class="cls-3"
       d="M646.63,238.07l4.16-.93c.63-.14.36-1.1-.27-1l-4.16.93c-.63.14-.36,1.1.27,1Z"
       transform="translate(-441.5 -120.26)"
       id="path4846" />
    <path
       class="cls-3"
       d="M651.17,237.08h.75a.5.5,0,0,0,0-1h-.75a.5.5,0,0,0,0,1Z"
       transform="translate(-441.5 -120.26)"
       id="path4848" />
    <path
       class="cls-3"
       d="M677.31,233.25c3,2,6.52,2.47,10.06,2.75,4.21.32,8.31.46,12.39-.78a116.79,116.79,0,0,0,11.86-4.27,15.47,15.47,0,0,0,7.44-6.59.5.5,0,0,0-.86-.5,15.32,15.32,0,0,1-8.4,6.73c-3.4,1.28-6.83,2.6-10.3,3.66-3.73,1.14-7.48,1.07-11.33.8-3.64-.25-7.23-.6-10.35-2.67-.54-.36-1,.51-.5.86Z"
       transform="translate(-441.5 -120.26)"
       id="path4850" />
    <path
       class="cls-3"
       d="M687.84,236c5.79,1.67,11.35-.06,16.69-2.31.58-.25.33-1.21-.27-1-5.15,2.17-10.55,3.92-16.15,2.31a.5.5,0,0,0-.27,1Z"
       transform="translate(-441.5 -120.26)"
       id="path4852" />
    <path
       class="cls-3"
       d="M690.71,543.61c-10.81,2.92-22,3-33.14,3.08-5.43,0-11.2.59-16.58-.29a83.71,83.71,0,0,1-15.87-4.71c-.6-.23-.86.74-.27,1a81.09,81.09,0,0,0,16.26,4.77c5.36.81,11,.28,16.45.26,11.21,0,22.51-.17,33.4-3.11a.5.5,0,0,0-.27-1Z"
       transform="translate(-441.5 -120.26)"
       id="path4854" />
    <path
       class="cls-3"
       d="M625.21,541.7a40.94,40.94,0,0,1-9.78-5.29,66.09,66.09,0,0,1-8.5-6.77c-2.3-2.3-4.38-5-6.55-7.49s-3.44-5.74-6-8c-.48-.42-1.19.28-.71.71,2.77,2.43,4.09,6,6.62,8.63s4.38,5.58,7,7.86c5.27,4.52,11,8.93,17.62,11.31.61.22.87-.75.27-1Z"
       transform="translate(-441.5 -120.26)"
       id="path4856" />
    <path
       class="cls-3"
       d="M655.78,547.93a9,9,0,0,0,3.94,1.08c1.51,0,3-.68,4.49-.91,3.68-.55,7.43-.54,11.13-.88.64-.06.64-1.06,0-1-3,.28-6,.34-9,.63-3.49.34-6.69,1.81-10.06.21-.58-.28-1.09.59-.5.86Z"
       transform="translate(-441.5 -120.26)"
       id="path4858" />
    <path
       class="cls-3"
       d="M658.46,548.21a14.51,14.51,0,0,0,3.38.29c.64,0,.64-1,0-1a13.35,13.35,0,0,1-3.11-.25c-.63-.13-.9.84-.27,1Z"
       transform="translate(-441.5 -120.26)"
       id="path4860" />
    <path
       class="cls-3"
       d="M620.76,520.63c-4.17-3.49-7.13-7.95-11.19-11.56-.48-.43-1.19.28-.71.71,4.06,3.61,7,8.07,11.19,11.56.49.41,1.2-.29.71-.71Z"
       transform="translate(-441.5 -120.26)"
       id="path4862" />
    <path
       class="cls-3"
       d="M608.7,508.87c-3.91.85-7.65-.74-10.77-3s-4.7-5.32-6.39-8.6c-1.53-2.95-2.09-6.15-3.46-9.12a5.59,5.59,0,0,0-4.72-3.6c-.64,0-.64,1,0,1,4.34.32,4.66,6.35,6,9.48a37.05,37.05,0,0,0,5,8.92c3.4,4.09,9.26,7.08,14.6,5.91.63-.14.36-1.1-.27-1Z"
       transform="translate(-441.5 -120.26)"
       id="path4864" />
    <path
       class="cls-3"
       d="M606.14,508.92a20.06,20.06,0,0,0-5.2-6.19c-3.16-2.45-4.59-6-5.75-9.72-1.84-5.87-2.8-12-6.37-17.18-.36-.53-1.23,0-.86.5,3.83,5.53,4.6,12.24,6.77,18.46a20,20,0,0,0,3.79,7.17c1,1.08,2.31,1.78,3.38,2.78a19.77,19.77,0,0,1,3.37,4.67.5.5,0,0,0,.86-.5Z"
       transform="translate(-441.5 -120.26)"
       id="path4866" />
    <path
       class="cls-3"
       d="M594.57,494.21c1.5,2.47,4.6,7.73,8.37,6.49,1.32-.44,1-1.57.67-2.76-.77-3-2.06-5.87-2.86-8.87a90.76,90.76,0,0,1-1.9-9.28c-.46-2.94-1.58-5.49-2.32-8.34-.68-2.64-.69-5.39-2.22-7.74a20.39,20.39,0,0,0-5.24-4.92c-.52-.38-1,.48-.5.86,2,1.45,4.09,3,5.27,5.21,1.08,2,1.11,4.26,1.62,6.43s1.52,4.08,2,6.22.64,4.05,1,6.07a89.94,89.94,0,0,0,3.63,13.09c.21.61,1,2.57.08,3.07s-3.12-1.15-3.77-1.82a22.74,22.74,0,0,1-3-4.23.5.5,0,0,0-.86.5Z"
       transform="translate(-441.5 -120.26)"
       id="path4868" />
    <path
       class="cls-3"
       d="M619.22,493.22c-3.09-1-4.48-4.88-5.93-7.52a22.34,22.34,0,0,1-3-9.06c-.21-2-.23-4.63-1.67-6.16-.52-.56-.64-.48-1.28-.78-.89-.42-.47.29-1.57-.57s-.76-1.5-.75-2.92a4.17,4.17,0,0,0-2.18-4c-.73-.37-1.45-.2-2.15-.42-1.53-.48-1.76-1.65-2.12-3.13-.47-1.89-2.06-1.88-3.34-3-1.53-1.38-.86-3.65-2.21-5.26-.41-.49-1.12.22-.71.71,1.32,1.56.42,4,1.9,5.43.81.8,1.67.94,2.51,1.83,1.17,1.25.66,1.71,1.19,3,.79,2,2.37.92,3.92,1.52,3.75,1.46.61,5.33,3,7.34.46.39.86.33,1.4.48,1.4.4,1.92.63,2.36,1.94a13,13,0,0,1,.49,2.37c.36,2.57.39,5.07,1.41,7.5a64.6,64.6,0,0,0,4,7.54c1.1,1.86,2.29,3.4,4.39,4.11.61.21.87-.76.27-1Z"
       transform="translate(-441.5 -120.26)"
       id="path4870" />
    <path
       class="cls-3"
       d="M594,448.61c1.56.14,3.06.91,4.64,1.13a17.64,17.64,0,0,0,4.8,0c.63-.08.64-1.09,0-1a16.63,16.63,0,0,1-5.35-.08c-1.39-.26-2.68-.91-4.09-1-.64-.06-.64.94,0,1Z"
       transform="translate(-441.5 -120.26)"
       id="path4872" />
    <path
       class="cls-3"
       d="M620.08,490.7c-6-6.6-7-14.78-7.06-23.36,0-4.23.15-8.15,1.67-12.15,1.41-3.71,2.86-7.46,4.5-11.07,3.55-7.83,10.51-13.31,16.57-19.13a94.09,94.09,0,0,0,7.08-6.91c.41-.49-.29-1.2-.71-.71a87,87,0,0,1-6.52,6.37c-3.24,3.11-6.5,6.21-9.72,9.35a36.09,36.09,0,0,0-8.07,11.67c-1.55,3.61-3.07,7.27-4.4,11s-1.44,7.59-1.41,11.6c.08,8.86,1.18,17.27,7.35,24.07.43.48,1.14-.23.71-.71Z"
       transform="translate(-441.5 -120.26)"
       id="path4874" />
    <path
       class="cls-3"
       d="M621.13,432.79a89.14,89.14,0,0,1,7.45-7.27c3-2.53,6.37-4.72,9.58-7,.52-.37,0-1.24-.5-.86-3,2.18-6.19,4.27-9.11,6.62a82.89,82.89,0,0,0-8.12,7.82c-.44.47.26,1.18.71.71Z"
       transform="translate(-441.5 -120.26)"
       id="path4876" />
    <path
       class="cls-3"
       d="M618.57,426.9a28.51,28.51,0,0,0-5,6c-.36.54.51,1,.86.5a27.58,27.58,0,0,1,4.86-5.8c.49-.42-.22-1.13-.71-.71Z"
       transform="translate(-441.5 -120.26)"
       id="path4878" />
    <path
       class="cls-3"
       d="M629.3,438a8.94,8.94,0,0,0,2.94-3.07,28.07,28.07,0,0,1,5.66-5.72c3.86-3,8-5.63,11.94-8.61.5-.39,0-1.25-.5-.86-3.81,2.91-7.86,5.48-11.66,8.39a33.43,33.43,0,0,0-4.41,3.94c-1.48,1.62-2.52,4-4.47,5.07-.57.3-.06,1.17.5.86Z"
       transform="translate(-441.5 -120.26)"
       id="path4880" />
  </g>
  <g
     id="Layer_6"
     data-name="Layer 6">
    <path
       class="cls-3"
       d="M666,478.25s3.14-13,7.76-19.05,10.5-17.11,8.63-25.09-3.31-9.58-3.31-9.58a13.77,13.77,0,0,1,5.17,11.58c-.23,7.89-1.51,18.49-8.35,25.43S666,478.25,666,478.25Z"
       transform="translate(-441.5 -120.26)"
       id="path4883" />
    <path
       class="cls-3"
       d="M702.42,485.16s-4.22-10.1-3.57-16.13,4-16.35,0-25.28c0,0,4,4.47,4,8.92S701,479.56,702.42,485.16Z"
       transform="translate(-441.5 -120.26)"
       id="path4885" />
    <path
       class="cls-3"
       d="M633.33,348.15c-.07.14,1.33-7.15,5.16-8.07s4.55-2.17,6.11-4.58,7.07-5.17,8.94-5.17,3.63-13.46,14.58-12.25a16.16,16.16,0,0,0,4.1-6.33c1.28-3.83,9.78-3.42,10.78-3.42s5.64-7.17,12.78-5.17c0,0-4.13,1.92-6.49,3.33s-2.4,4.58-5.68,5.17-9.11.75-10.52,5.58-1.33,5.08-6.92,4.75-8.67,10.92-9.42,11.83-7.25-.33-9.08,2.42-4.25,5.51-5.83,5.42S635.83,343.06,633.33,348.15Z"
       transform="translate(-441.5 -120.26)"
       id="path4887" />
    <path
       class="cls-3"
       d="M639,278.88s5.5-7.93,11.75-7.78,16-.72,18.75-3c0,0-3.87,5.63-12.75,6.38S642.75,276.25,639,278.88Z"
       transform="translate(-441.5 -120.26)"
       id="path4889" />
    <path
       class="cls-3"
       d="M645.09,267.25s6.78-6.75,13.91-6.75,8.63,2.63,17,.88a9.56,9.56,0,0,1-6.5,4.25C665.25,266.13,654.06,263.38,645.09,267.25Z"
       transform="translate(-441.5 -120.26)"
       id="path4891" />
    <path
       class="cls-3"
       d="M658.5,257s5.25-5.25,11-3.75,9.88,3.61,16,1.74c0,0-2,4.13-8.25,3.38S662.88,255.63,658.5,257Z"
       transform="translate(-441.5 -120.26)"
       id="path4893" />
    <path
       class="cls-3"
       d="M669.5,249.88s3.75-3.37,12.25-2.25,10.75,1,10.75,1a12.63,12.63,0,0,1-8.29,3C679.5,251.38,674.75,249.13,669.5,249.88Z"
       transform="translate(-441.5 -120.26)"
       id="path4895" />
    <path
       class="cls-3"
       d="M702,284.5s28.42-26.5,30.13-63.75c0,0,.47,21.12-2.12,28.33C726.63,258.47,718.38,275.5,702,284.5Z"
       transform="translate(-441.5 -120.26)"
       id="path4897" />
    <path
       class="cls-3"
       d="M558.5,315s8.33-16.5,8.83-24.33,10.31-15.5,16.32-1.58,1.25,39.23,35.72,33.41c0,0-13.54,5.49-23.54,0s-12.5-37.16-19.83-38-8,13.17-9.5,17.33S558.5,315,558.5,315Z"
       transform="translate(-441.5 -120.26)"
       id="path4899" />
    <path
       class="cls-3"
       d="M543.17,265.83s8.17-3.83,11.33-8.67,17.17-8,26.83-15.17,18.17-.83,16.83,4.5-3.35,16.77,1.67,24.6c0,0-6-5.6-6.83-10.6s4.33-12.8,1.83-16.56-9.83-2.73-12.17,0S569,252.17,566.33,254s-9.83,2.93-10.67,4.47S551,264.5,543.17,265.83Z"
       transform="translate(-441.5 -120.26)"
       id="path4901" />
    <path
       class="cls-3"
       d="M620.67,225.25s-.25-3.33-.33-4.17c0,0,1.92-.17,1.58,2.08S620.92,224,620.67,225.25Z"
       transform="translate(-441.5 -120.26)"
       id="path4903" />
  </g>
  <path
     id="shine"
     d="M 2.2079882,0.70902414 V 207.0859 c 0,229.66454 239.9200018,319.6031 239.9200018,319.6031 0,0 239.92,-89.93856 239.92,-319.60309 V 0.70902414 Z"
     style="fill:url(#rg);stroke:#000000;stroke-width:2.41218" />
</svg>
