<?xml version="1.0" encoding="UTF-8" standalone="no"?>
<svg
   viewBox="0 0 483 527.48"
   version="1.1"
   id="svg34469"
   sodipodi:docname="House Waynwood.svg"
   inkscape:version="1.2.1 (9c6d41e410, 2022-07-14)"
   xmlns:inkscape="http://www.inkscape.org/namespaces/inkscape"
   xmlns:sodipodi="http://sodipodi.sourceforge.net/DTD/sodipodi-0.dtd"
   xmlns="http://www.w3.org/2000/svg"
   xmlns:svg="http://www.w3.org/2000/svg">
  <sodipodi:namedview
     id="namedview34471"
     pagecolor="#ffffff"
     bordercolor="#000000"
     borderopacity="0.25"
     inkscape:showpageshadow="2"
     inkscape:pageopacity="0.0"
     inkscape:pagecheckerboard="0"
     inkscape:deskcolor="#d1d1d1"
     showgrid="false"
     inkscape:zoom="1.12203"
     inkscape:cx="167.55345"
     inkscape:cy="266.48128"
     inkscape:window-width="1920"
     inkscape:window-height="1017"
     inkscape:window-x="-8"
     inkscape:window-y="-8"
     inkscape:window-maximized="1"
     inkscape:current-layer="svg34469" />
  <defs
     id="defs34418">
    <style
       id="style34416">.cls-1{fill:#7f8931;}.cls-2{fill:none;stroke:#000;stroke-width:3px;}</style>
    <radialGradient
       id="rg"
       gradientUnits="userSpaceOnUse"
       cx="220"
       cy="220"
       r="405"
       gradientTransform="matrix(0.80510068,0,0,0.80302287,-0.03015889,-0.9220166)">
      <stop
         style="stop-color:#ffffff;stop-opacity:.3"
         offset="0"
         id="stop753" />
      <stop
         style="stop-color:#ffffff;stop-opacity:.2"
         offset=".2"
         id="stop755" />
      <stop
         style="stop-color:#666666;stop-opacity:.1"
         offset=".6"
         id="stop757" />
      <stop
         style="stop-color:#000000;stop-opacity:.13"
         offset="1"
         id="stop759" />
    </radialGradient>
  </defs>
  <title
     id="title34420">House Waynwood</title>
  <g
     id="Layer_2"
     data-name="Layer 2">
    <path
       class="cls-1"
       d="M927,122.76V328.6a314.37,314.37,0,0,1-2.28,38c-.11.93-.24,1.86-.36,2.79s-.24,1.86-.39,2.79q-.7,5.05-1.61,10c-.07.44-.15.87-.23,1.31-.15.8-.29,1.6-.45,2.39s-.34,1.8-.51,2.69l-.45,2.22-.24,1.16c-.15.71-.3,1.44-.47,2.15q-.8,3.55-1.61,7l-.58,2.32-.52,2q-1.52,5.88-3.27,11.61c-.29,1-.59,1.94-.9,2.92l-.6,1.88c-.19.63-.39,1.25-.6,1.86l-1.1,3.26c-.37,1.09-.68,2-1,3-.47,1.28-.92,2.55-1.39,3.81-.36,1-.73,2-1.11,3l-.19.49c-.43,1.14-.87,2.25-1.32,3.37s-.87,2.16-1.32,3.19a3.35,3.35,0,0,1-.18.42c-.4,1-.8,2-1.25,3s-.75,1.75-1.13,2.62l-.66,1.49c-.47,1.07-.95,2.12-1.44,3.15s-.9,2-1.36,2.93l-1,2.12c-.3.63-.6,1.25-.91,1.88-.63,1.32-1.31,2.64-2,4q-2.53,5-5.19,9.77l-2,3.57-.11.21q-2.13,3.71-4.33,7.33c-.71,1.2-1.46,2.39-2.18,3.54-.1.16-.19.31-.3.46-.55.89-1.12,1.78-1.69,2.66l-.66,1c-.65,1-1.31,2-2,3l-.13.18c-.66,1-1.32,2-2,3l-.45.67q-2.26,3.28-4.54,6.46l-.31.42c-.8,1.07-1.54,2.14-2.31,3.19s-1.66,2.23-2.5,3.32q-2.29,3-4.61,6l-.8,1c-.73.93-1.48,1.85-2.22,2.76L854,526.61l-.57.69L851,530.1q-2.83,3.32-5.72,6.53c-.75.85-1.52,1.69-2.29,2.51l-2.22,2.39q-3,3.19-5.93,6.24-2.76,2.83-5.53,5.59c-.91.91-1.84,1.82-2.76,2.71s-1.85,1.78-2.78,2.67l-2.28,2.11c-.68.65-1.36,1.28-2.05,1.91a448.64,448.64,0,0,1-61.76,47.47c-.86.55-1.73,1.1-2.58,1.6q-6.42,4.07-12.46,7.63l-2.41,1.4-2.36,1.36-2.34,1.35-2.22,1.28c-8.35,4.68-15.91,8.59-22.38,11.76l-1.61.8c-10.63,5.15-18.11,8.22-21,9.35l-.42.18-.61.23-.14.06h-.08l-.23-.1-.21,0-1.07-.42-.55-.23c-.87-.34-2-.8-3.36-1.38l-.47-.18c-1.76-.8-3.88-1.67-6.33-2.77l-1.39-.61a443.16,443.16,0,0,1-39.74-20.6c-.8-.45-1.61-.92-2.36-1.38a473.14,473.14,0,0,1-44.78-30l-2.62-2c-1-.75-2-1.52-2.95-2.29l-2.81-2.21c-6.19-4.92-12.43-10.15-18.64-15.69L558.08,566q-2.3-2.05-4.59-4.2l-1.67-1.57L550,558.54l-2-1.94c-1.12-1.07-2.24-2.16-3.34-3.26-.84-.8-1.69-1.67-2.52-2.51l-.24-.26q-1.25-1.25-2.5-2.51c-.66-.68-1.32-1.36-2-2l-2-2.07-.13-.15-2.1-2.24q-3.36-3.61-6.66-7.36c-.68-.8-1.36-1.55-2-2.35-.57-.65-1.12-1.28-1.66-1.94l-2-2.39q-4.26-5.11-8.39-10.48-1.13-1.45-2.24-2.92c-1.89-2.47-3.73-5-5.57-7.55l-1.68-2.39c-.13-.16-.24-.34-.36-.5-.59-.85-1.19-1.7-1.77-2.55-.95-1.38-1.89-2.77-2.82-4.17q-1.11-1.64-2.18-3.31l-.15-.24-2.22-3.47c-.07-.13-.15-.24-.22-.37-.71-1.14-1.41-2.27-2.1-3.4s-1.49-2.46-2.21-3.7-1.44-2.39-2.13-3.67q-4.6-8-8.77-16.47c-.35-.69-.69-1.38-1-2.08-.22-.44-.44-.89-.65-1.35-.43-.87-.8-1.75-1.25-2.63a27.17,27.17,0,0,1-1.15-2.47l-.23-.48c-.26-.58-.52-1.16-.8-1.75l-.26-.57c-.26-.58-.52-1.18-.8-1.77q-1.44-3.26-2.78-6.58c-.42-1-.8-2-1.23-3.07-.1-.26-.21-.53-.31-.8-.4-1-.8-2-1.16-3s-.68-1.82-1-2.74l-.23-.65c-.18-.45-.34-.91-.5-1.36q-1-2.69-1.89-5.44c-.21-.6-.4-1.21-.6-1.8-.26-.8-.51-1.54-.75-2.31-.14-.42-.26-.8-.39-1.22-.26-.8-.5-1.6-.75-2.39-.31-1-.61-2.06-.92-3.1-.18-.65-.39-1.28-.57-2-.37-1.28-.74-2.58-1.08-3.89-.19-.68-.37-1.35-.55-2-.13-.5-.26-1-.39-1.51-.32-1.22-.63-2.46-.92-3.7-.18-.7-.35-1.4-.52-2.11-.07-.29-.13-.57-.19-.85-.37-1.55-.71-3.11-1.07-4.69-.26-1.16-.5-2.33-.74-3.5-.14-.71-.29-1.43-.43-2.14s-.32-1.6-.47-2.45a2.13,2.13,0,0,0-.1-.47c-.15-.8-.3-1.64-.45-2.48s-.31-1.84-.47-2.77-.3-1.8-.45-2.71q-.87-5.52-1.56-11.17A314.73,314.73,0,0,1,447,328.58V122.76Z"
       transform="translate(-445.5 -121.26)"
       id="path34422" />
  </g>
  <g
     id="Layer_4"
     data-name="Layer 4">
    <path
       d="M698,321.79c7.73,1.36,13.58,6,19.24,11a3.38,3.38,0,0,1,2.09,1.3,72.58,72.58,0,0,0,6.25,7.76c.74,1,1,2,.14,3.12-1.85,2.76.67,4.92,1.29,7.18,2.53,9.14.24,17.64-3.14,27.71,3.07-3.62,4.83-2.34,7-.69,15.23,11.8,30.61,23.42,45.87,35.19,11.47,8.85,22.77,17.91,34.28,26.69a24.32,24.32,0,0,1,5.06,5c-1.12.78-1.38,2.29-2.53,3,1.21-.72,1.46-2.22,2.45-3.12,5.17-6.62,10.39-13.21,15.47-19.9.71-.93,1.27-2.76,2.36-2,4.66,3.38,8.46-.69,12.41-1.51,4.21-.87,5.16.15,4.92,3.81-.31,4.55-.42,8.76,5.83,9.42,2.45.26,1.21,1.74.63,3.32-4.22,11.5-11,21.48-18.35,31.07a181,181,0,0,1-40.91,39.73c-18.15,12.56-37.6,22.23-59.1,28.18a205,205,0,0,1-42.86,6.68,183.77,183.77,0,0,1-69.07-9.06,205.66,205.66,0,0,1-46.73-22.66,172.93,172.93,0,0,1-47.52-45.31,188.17,188.17,0,0,1-34.72-121.39c1-19.28,6-37.82,13.21-55.92a176.66,176.66,0,0,1,40.38-61.12,189.33,189.33,0,0,1,48.29-34.68c11.41-5.72,23.3-9.95,35.14-14.35,5.89-2.19,12.47-2.52,19.68-3.87-5.94,5.45-5.95,5.89.89,8.15,2.29.76,4.39,1.41,4.5,3.92.2,4.83,2.72,7.45,7,9.19,1.21.49,3.85.41,3.15,3.28-.62,2.55-1.08,4.79-4.2,5.77-6.38,2-12.93,3.59-18.85,6.87-11.48,4-22.85,8.41-34.54,11.72-5.42,1.54-10.51,3.84-15.9,5.37-2.64.75-4.09,3-5.77,5-7.86,9.58-14.12,20.37-22.06,29.31,2.15-1.17,3.91.66,5.75,1.91,12.94,8.74,25.63,17.83,38.43,26.77,4.88,3.41,9.95,6.54,13.67,11.33l32.54,22.7c1.6,1.12,2.84,1.31,4.74,0a38.2,38.2,0,0,1,27.63-6.9C693.77,322.67,695.7,323.49,698,321.79Z"
       transform="translate(-445.5 -121.26)"
       id="path34425" />
    <path
       class="cls-1"
       d="M627.1,305.06q-17.34-12.12-34.68-24.24c-6.81-4.77-13.69-9.48-20.37-14.43-3.18-2.36-13.09,15.88-15.86,16,3.5-8.56,21-31.53,27.77-39.55a61.6,61.6,0,0,0,6.82-9.72,7.44,7.44,0,0,1,4-3.28c16.73-5.68,33.57-11.05,50.4-16.45a6.47,6.47,0,0,1,2.36.19l-.08-.12c-.18,3.33-3.25,3-5.18,3.87-3.5,1.58-4.56,3.53-3.53,7.52,6.64,25.71,14.79,51,22,76.51.58,2,1.63,4.2-.11,6.26-1.92,2.9-3,5.85-1.13,9.28.49.9,1.45,2.25.2,3.24a3,3,0,0,1-3.86-.26c-6.77-5.22-15.49-7.54-21.06-14.62C632.77,302.74,629.72,303.75,627.1,305.06Z"
       transform="translate(-445.5 -121.26)"
       id="path34427" />
    <path
       d="M660.66,307.67c-4.94-16.88-9.93-33.74-14.82-50.63-3.42-11.79-6.66-23.64-10.1-35.42-.68-2.32.29-3.31,2.18-4.09,3.18-1.31,6.34-2.67,9.51-4a7.36,7.36,0,0,1,3.42,4.77c2.74,14.56,9.78,27.68,14,41.78s9.42,28.11,14.24,42.14c1.16,3.38,2.57,6.68,3.77,10,1.38,3.87,1.68,7.14-3.91,7.6a24.66,24.66,0,0,0-5.74,1.62c-7.77,2.65-7.76,2.66-10.16-5.89C662.27,312.94,661.44,310.31,660.66,307.67Z"
       transform="translate(-445.5 -121.26)"
       id="path34429" />
    <path
       d="M727.59,232.48c.65,2.87,1.63,4.86,1.38,6.68-.31,2.19.63,2.7,2.13,2.38,5.29-1.14,3.75,2.14,3,4.59-4,12.22-6.92,24.77-11,36.9-4.21,12.57-7.25,25.45-11.38,38-.9,2.72-1.41,3.67-4.19,2.17A36.5,36.5,0,0,0,695,319.53c-2.27-.32-4.07-1.14-2.86-4.23,7.36-18.67,13.88-37.65,20.64-56.54,2.38-6.66,4.88-13.28,7.12-20C721.07,235.33,726,236.68,727.59,232.48Z"
       transform="translate(-445.5 -121.26)"
       id="path34431" />
    <path
       d="M725.77,345l-.6-2.48c-2.5-2.66-3.57-6.48-6.88-8.47l-1-1.23c-1.7-3.33-1-5.09,2.5-7.37,12.42-8,24.55-16.52,36.44-25.31,5.58-4.13,11-6.79,17.84-4.05-2.93,8-2.93,8,4.17,9.42-7.93,7.51-17,13.16-25.31,19.67C744.09,332,735.32,339,725.77,345Z"
       transform="translate(-445.5 -121.26)"
       id="path34433" />
    <path
       d="M788.9,369.35c-11.08,0-22.16-.09-33.23,0-7.14.08-14.27.36-21.4.8-3.75.23-5.56-.68-5-4.9.4-3.11.86-6.63-.17-9.42-2.6-7.07,2.08-6.43,5.92-5.84,11,1.7,22.22,0,33.27,1.59,3,.43,6-.82,9.32-.26,5.91,1,8.2,4.29,5.82,9.77-.88,2-.2,3.31,1.78,4.16,1.41.61,2.74,1.41,4.11,2.13Z"
       transform="translate(-445.5 -121.26)"
       id="path34435" />
    <path
       d="M698,321.79c-.15,2.52-1.88,2.67-3.8,2.51-2.25-.19-2.18-1.88-2.23-3.48C694.16,320.29,696.09,321.1,698,321.79Z"
       transform="translate(-445.5 -121.26)"
       id="path34437" />
    <path
       class="cls-1"
       d="M563.22,449.54c-6.85-5.64-10-14.12-16-20.52a89.51,89.51,0,0,1-9-12.39c-2.39-3.7-4.53-7.2-4.26-12.34.68-13.13.26-26.31.27-39.48,0-3.18.78-16.09,1.57-19.31.2,1.43-.25,12.59-.19,14,.34,8.12.32,8.12,8.26,8.26,23,.42,46,1.09,69,1.43,10.12.15,20.31.61,30.47.93,3.39.11,4.92-.59,3.42-4.46-1.08-2.8-.32-5.76.48-8.77,1.53-5.74.15-7.26-5.71-7.16-23.26.4-46.51.82-69.74,2.23-11.86.72-23.82-1-35.66,1.1-2.34.42-1.88-1.54-1.89-2.8-.05-12,.14-23.91-.14-35.86-.14-6,4.78-8.89,7.45-13,5-7.84,11.13-15,16.52-22.6,1.61-2.28,2.34-2.94,4.89-.94,23.28,18.24,46.54,36.51,70.17,54.29,5.36,4,9.66,9.94,17,11.24,1.91.34.47,1.9.29,2.81-1.8,8.87-2.91,17.77-.64,26.7.67,2.63-.93,3.62-2.52,4.82-27.41,20.79-54.65,41.82-82.41,62.15-5,3.65-2,6.37-1.68,9.72Z"
       transform="translate(-445.5 -121.26)"
       id="path34439" />
    <path
       class="cls-1"
       d="M563.15,449.6c4.53,7,8.67,3.82,13.85.23,23.61-16.34,47.52-32.25,71.3-48.34a48,48,0,0,0,4.22-3.33c7.83-6.69,9.56-6.68,18.75.89-5.45-3.91-6.38-.52-7.51,3.42-5,17.39-9.7,34.85-15.27,52-4.23,13-7.43,26.39-12.14,39.22-2.21,6-2.54,9.85,3.81,12.51l.06-.08c-8-1.38-15.59-4.12-23.11-7a85.52,85.52,0,0,0-11.46-3.13c-11-2.49-17.49-10.27-23.5-18.88-5.88-8.41-12-16.62-18-25a9.81,9.81,0,0,1-.91-2.73Z"
       transform="translate(-445.5 -121.26)"
       id="path34441" />
    <path
       class="cls-1"
       d="M745.37,503.84c-2.24.24-3.14-.06-3.75-2.21-6.4-22.48-12.67-45-19.71-67.3-3.69-11.7-6.92-23.54-10.82-35.15-1.1-3.28.09-4.53,2.1-6.44,2.85-2.71,3.12,1.13,4,1.73,26.53,17.81,52.88,35.88,79.27,53.9,1.6,1.09,2.78,2.58,4.61,3.52,7.77,4,7.83,5,2.76,11.84-5.38,7.3-11,14.45-15.69,22.2-3.74,6.23-10,6.77-15.6,8.84C763.44,498.14,754.13,501,745.37,503.84Z"
       transform="translate(-445.5 -121.26)"
       id="path34443" />
    <path
       class="cls-1"
       d="M624.79,500.42c1.38.13,18.3,5.75,19.47,6.31,3.22,1.55,4-.14,4.9-2.79q12-34.41,24.32-68.73c3.44-9.64,6.06-19.58,10.44-28.88.12-5.87,3.82-4.51,7.29-3.62q11.1,31.91,22.21,63.83c4.49,12.87,8.88,25.79,13.7,38.54,1.16,3.07.67,4.62-2.09,5.42-10.42,3-20.73,6.32-30.88,10.15-6.28,2.37-12.15.06-17.89-2-10.36-3.76-20.79-7.26-31.45-10C644.83,508.57,625.71,501.68,624.79,500.42Z"
       transform="translate(-445.5 -121.26)"
       id="path34445" />
    <path
       class="cls-1"
       d="M688.81,342.44c10.06.38,18.07,8.46,17.54,17.74-.64,11.23-10.14,18.34-17.77,17.92-10.2-.56-17.86-6.51-17.74-19C670.94,349.26,679,342.08,688.81,342.44Z"
       transform="translate(-445.5 -121.26)"
       id="path34447" />
    <path
       class="cls-1"
       d="M691.23,402.71c-3.15-.24-6.42-.73-7.3,3.62.32-3.37-2.41-3.5-4.53-4.31-2-.75-18.54-7.21-20.4-10.24,4.31.73,22.13,9.3,26,9.48,4.06.19,23.94-6.15,28.37-6.43C711.65,397.06,693.37,402.53,691.23,402.71Z"
       transform="translate(-445.5 -121.26)"
       id="path34449" />
    <path
       class="cls-1"
       d="M714.33,328.67c5.24.43,12,14.25,13.39,17.83C723.8,345,716,332,714.33,328.67Z"
       transform="translate(-445.5 -121.26)"
       id="path34451" />
    <path
       class="cls-1"
       d="M816.67,444.63c.11,3.63-11.31,15.28-13.67,17.15C803,461.77,812.55,449.26,816.67,444.63Z"
       transform="translate(-445.5 -121.26)"
       id="path34453" />
    <path
       class="cls-1"
       d="M647.83,347.67c-.41-4.22,15.13-20.24,16.33-22.33C663.85,327.92,650.56,345.37,647.83,347.67Z"
       transform="translate(-445.5 -121.26)"
       id="path34455" />
    <path
       class="cls-1"
       d="M714.33,393.27s8.9-13.78,10.79-17.11c0,0-2.74,11-10,18.67Z"
       transform="translate(-445.5 -121.26)"
       id="path34457" />
    <path
       class="cls-1"
       d="M724.33,507.58S742,502.25,745.58,501s-5.17,7.67-21.92,8.92S724.33,507.58,724.33,507.58Z"
       transform="translate(-445.5 -121.26)"
       id="path34459" />
    <path
       class="cls-1"
       d="M560.19,444.63a83.55,83.55,0,0,0,8.5,11.88,25.67,25.67,0,0,1-9.06-11.31C556.75,437.81,560.19,444.63,560.19,444.63Z"
       transform="translate(-445.5 -121.26)"
       id="path34461" />
    <path
       class="cls-1"
       d="M648.75,373.25s2,3.63,2.33,5.75c0,0-4.83-2.87-4.7-5.12S648.75,373.25,648.75,373.25Z"
       transform="translate(-445.5 -121.26)"
       id="path34463" />
  </g>
  <g
     id="Layer_3"
     data-name="Layer 3">
    <path
       class="cls-2"
       d="M927,122.76V328.6a313.88,313.88,0,0,1-2.28,38c-.11.93-.24,1.86-.36,2.79,0,.2,0,.4-.08.59-.09.74-.19,1.47-.31,2.2-.46,3.37-1,6.69-1.6,10-.07.44-.15.87-.23,1.31-.16.8-.29,1.6-.45,2.4s-.34,1.79-.51,2.69l-.45,2.22-.24,1.15c-.15.71-.3,1.44-.46,2.15-.54,2.37-1.07,4.71-1.61,7l-.58,2.32-.52,2q-1.53,5.88-3.27,11.61c-.29,1-.59,1.94-.9,2.92l-.6,1.88c-.2.63-.4,1.24-.61,1.86-.37,1.09-.73,2.17-1.1,3.25s-.68,2-1,3c-.47,1.28-.93,2.56-1.39,3.81-.36,1-.73,2-1.11,3l-.19.5c-.43,1.14-.87,2.25-1.32,3.36s-.87,2.17-1.31,3.2c0,.15-.12.28-.18.42-.4,1-.8,2-1.25,3s-.76,1.75-1.13,2.62l-.66,1.49c-.48,1.07-1,2.11-1.44,3.15s-.9,2-1.36,2.93l-1,2.12c-.29.63-.6,1.25-.91,1.87-.63,1.33-1.31,2.64-2,4q-2.52,5-5.19,9.77l-2,3.57-.12.21c-1.42,2.47-2.86,4.92-4.33,7.33-.71,1.2-1.46,2.4-2.18,3.54-.11.16-.2.32-.3.47-.55.89-1.12,1.78-1.69,2.66l-.65,1c-.65,1-1.31,2-2,3l-.13.18c-.65,1-1.31,2-2,3l-.45.67q-2.25,3.29-4.54,6.46l-.31.43c-.8,1.07-1.54,2.14-2.31,3.19s-1.66,2.23-2.5,3.32c-1.52,2-3.06,4-4.61,6l-.81,1q-1.09,1.39-2.22,2.76L854,526.61l-.57.69c-.8.94-1.6,1.87-2.41,2.8q-2.82,3.32-5.72,6.53c-.75.85-1.52,1.69-2.29,2.51s-1.47,1.6-2.22,2.4q-3,3.2-5.93,6.24-2.76,2.82-5.53,5.59c-.92.91-1.84,1.82-2.76,2.71s-1.85,1.78-2.79,2.66l-2.28,2.12c-.68.65-1.36,1.28-2,1.91a449.24,449.24,0,0,1-61.76,47.47c-.86.55-1.72,1.1-2.57,1.6q-6.43,4.06-12.47,7.63l-2.41,1.4-2.36,1.37-2.33,1.34-2.23,1.29c-8.34,4.68-15.9,8.59-22.38,11.76l-1.6.8c-10.64,5.15-18.12,8.22-21,9.35l-.42.17-.61.24-.14,0h-.08l-.23-.09-.21,0-1.07-.42-.54-.23c-.87-.34-2-.8-3.37-1.38l-.46-.18c-1.76-.8-3.89-1.67-6.33-2.77l-1.39-.61a442.25,442.25,0,0,1-39.75-20.6c-.8-.44-1.6-.92-2.35-1.38a474,474,0,0,1-44.78-30l-2.63-2c-1-.75-2-1.51-2.94-2.29l-2.81-2.21c-6.19-4.92-12.43-10.15-18.64-15.69L558.08,566q-2.31-2.05-4.59-4.2l-1.67-1.57L550,558.54l-2-1.94c-1.12-1.07-2.23-2.17-3.33-3.27-.85-.79-1.69-1.66-2.52-2.5l-.24-.26c-.84-.83-1.67-1.67-2.5-2.51-.66-.68-1.32-1.36-2-2l-2-2.06-.13-.15-2.1-2.25q-3.36-3.6-6.66-7.36c-.68-.79-1.36-1.54-2.05-2.34-.57-.65-1.12-1.29-1.66-1.94q-1-1.2-2-2.4-4.28-5.1-8.39-10.48c-.76-1-1.5-1.93-2.24-2.92-1.89-2.47-3.73-5-5.57-7.55-.55-.8-1.12-1.59-1.68-2.39-.13-.16-.24-.34-.36-.5-.59-.86-1.19-1.7-1.77-2.56-.94-1.38-1.89-2.77-2.81-4.17-.74-1.09-1.47-2.2-2.19-3.31a1,1,0,0,0-.15-.24l-2.22-3.48-.22-.36c-.7-1.14-1.41-2.27-2.1-3.4s-1.49-2.46-2.21-3.71-1.43-2.39-2.13-3.67q-4.61-8-8.77-16.46c-.35-.69-.69-1.38-1-2.09-.22-.44-.44-.88-.65-1.35-.43-.87-.8-1.74-1.25-2.63a25.91,25.91,0,0,1-1.15-2.47l-.23-.48c-.27-.58-.53-1.16-.81-1.75l-.26-.57c-.27-.59-.52-1.19-.8-1.78q-1.44-3.25-2.79-6.57c-.42-1-.8-2-1.23-3.08-.1-.25-.21-.52-.31-.79-.4-1-.8-2-1.16-3s-.69-1.82-1-2.74l-.24-.65c-.17-.44-.33-.91-.49-1.35q-1-2.7-1.9-5.44c-.21-.6-.4-1.2-.6-1.8-.26-.8-.51-1.54-.75-2.32-.14-.41-.27-.8-.4-1.22-.25-.8-.49-1.59-.75-2.39-.31-1-.61-2.06-.92-3.11-.19-.64-.39-1.28-.57-1.95-.37-1.29-.74-2.58-1.09-3.89-.19-.68-.37-1.35-.55-2-.13-.5-.27-1-.4-1.51-.32-1.22-.62-2.45-.92-3.7-.18-.7-.34-1.4-.52-2.11-.07-.28-.13-.56-.19-.85-.37-1.55-.72-3.11-1.07-4.69-.26-1.16-.5-2.33-.74-3.5-.13-.71-.29-1.43-.42-2.14s-.32-1.59-.48-2.45a1.86,1.86,0,0,0-.09-.47c-.16-.8-.3-1.64-.45-2.48s-.32-1.84-.48-2.77-.29-1.8-.45-2.71q-.57-3.7-1.07-7.47c-.17-1.23-.33-2.47-.48-3.71A312.7,312.7,0,0,1,447,328.58V122.76Z"
       transform="translate(-445.5 -121.26)"
       id="path34466" />
  </g>
  <path
     id="shine"
     d="M 1.5800422,0.6840284 V 207.06091 c 0,229.66454 239.9200078,319.6031 239.9200078,319.6031 0,0 239.92,-89.93856 239.92,-319.6031 V 0.6840284 Z"
     style="fill:url(#rg);stroke:#000000;stroke-width:2.41218" />
</svg>
