<?xml version="1.0" encoding="UTF-8" standalone="no"?>
<svg
   viewBox="0 0 483 527.48"
   version="1.1"
   id="svg5739"
   sodipodi:docname="House Whent GoT.svg"
   inkscape:version="1.2.1 (9c6d41e410, 2022-07-14)"
   xmlns:inkscape="http://www.inkscape.org/namespaces/inkscape"
   xmlns:sodipodi="http://sodipodi.sourceforge.net/DTD/sodipodi-0.dtd"
   xmlns="http://www.w3.org/2000/svg"
   xmlns:svg="http://www.w3.org/2000/svg">
  <sodipodi:namedview
     id="namedview5741"
     pagecolor="#ffffff"
     bordercolor="#000000"
     borderopacity="0.25"
     inkscape:showpageshadow="2"
     inkscape:pageopacity="0.0"
     inkscape:pagecheckerboard="0"
     inkscape:deskcolor="#d1d1d1"
     showgrid="false"
     inkscape:zoom="0.79339504"
     inkscape:cx="127.30102"
     inkscape:cy="263.42489"
     inkscape:window-width="1920"
     inkscape:window-height="1017"
     inkscape:window-x="-8"
     inkscape:window-y="-8"
     inkscape:window-maximized="1"
     inkscape:current-layer="svg5739" />
  <defs
     id="defs5677">
    <style
       id="style5675">.cls-1{fill:#ba6c38;stroke-width:3px;}.cls-1,.cls-3{stroke:#000;}.cls-2{fill:#221e1f;}.cls-3{fill:#fff;}</style>
    <radialGradient
       id="rg"
       gradientUnits="userSpaceOnUse"
       cx="220"
       cy="220"
       r="405"
       gradientTransform="matrix(0.80510068,0,0,0.80302287,-0.03016562,-0.89702186)">
      <stop
         style="stop-color:#ffffff;stop-opacity:.3"
         offset="0"
         id="stop753" />
      <stop
         style="stop-color:#ffffff;stop-opacity:.2"
         offset=".2"
         id="stop755" />
      <stop
         style="stop-color:#666666;stop-opacity:.1"
         offset=".6"
         id="stop757" />
      <stop
         style="stop-color:#000000;stop-opacity:.13"
         offset="1"
         id="stop759" />
    </radialGradient>
  </defs>
  <title
     id="title5679">House Whent</title>
  <g
     id="Layer_2"
     data-name="Layer 2">
    <path
       class="cls-1"
       d="M927,122.76V328.6a314.37,314.37,0,0,1-2.28,38c-.11.93-.24,1.86-.36,2.79s-.24,1.86-.39,2.79q-.7,5.05-1.61,10c-.07.44-.15.87-.23,1.31-.15.8-.29,1.6-.45,2.39s-.34,1.8-.51,2.69l-.45,2.22-.24,1.16c-.15.71-.3,1.44-.47,2.15q-.8,3.55-1.61,7l-.58,2.32-.52,2q-1.52,5.88-3.27,11.61c-.29,1-.59,1.94-.9,2.92l-.6,1.88c-.19.63-.39,1.25-.6,1.86l-1.1,3.26c-.37,1.09-.68,2-1,3-.47,1.28-.92,2.55-1.39,3.81-.36,1-.73,2-1.11,3l-.19.49c-.43,1.14-.87,2.25-1.32,3.37s-.87,2.16-1.32,3.19a3.35,3.35,0,0,1-.18.42c-.4,1-.8,2-1.25,3s-.75,1.75-1.13,2.62l-.66,1.49c-.47,1.07-.95,2.12-1.44,3.15s-.9,2-1.36,2.93l-1,2.12c-.3.63-.6,1.25-.91,1.88-.63,1.32-1.31,2.64-2,4q-2.53,5-5.19,9.77l-2,3.57-.11.21q-2.13,3.71-4.33,7.33c-.71,1.2-1.46,2.39-2.18,3.54-.1.16-.19.31-.3.46-.55.89-1.12,1.78-1.69,2.66l-.66,1c-.65,1-1.31,2-2,3l-.13.18c-.66,1-1.32,2-2,3l-.45.67q-2.26,3.28-4.54,6.46l-.31.42c-.8,1.07-1.54,2.14-2.31,3.19s-1.66,2.23-2.5,3.32q-2.29,3-4.61,6l-.8,1c-.73.93-1.48,1.85-2.22,2.76L854,526.61l-.57.69L851,530.1q-2.83,3.32-5.72,6.53c-.75.85-1.52,1.69-2.29,2.51l-2.22,2.39q-3,3.19-5.93,6.24-2.76,2.83-5.53,5.59c-.91.91-1.84,1.82-2.76,2.71s-1.85,1.78-2.78,2.67l-2.28,2.11c-.68.65-1.36,1.28-2.05,1.91a448.64,448.64,0,0,1-61.76,47.47c-.86.55-1.73,1.1-2.58,1.6q-6.42,4.07-12.46,7.63l-2.41,1.4-2.36,1.36-2.34,1.35-2.22,1.28c-8.35,4.68-15.91,8.59-22.38,11.76l-1.61.8c-10.63,5.15-18.11,8.22-21,9.35l-.42.18-.61.23-.14.06h-.08l-.23-.1-.21,0-1.07-.42-.55-.23c-.87-.34-2-.8-3.36-1.38l-.47-.18c-1.76-.8-3.88-1.67-6.33-2.77l-1.39-.61a443.16,443.16,0,0,1-39.74-20.6c-.8-.45-1.61-.92-2.36-1.38a473.14,473.14,0,0,1-44.78-30l-2.62-2c-1-.75-2-1.52-2.95-2.29l-2.81-2.21c-6.19-4.92-12.43-10.15-18.64-15.69L558.08,566q-2.3-2.05-4.59-4.2l-1.67-1.57L550,558.54l-2-1.94c-1.12-1.07-2.24-2.16-3.34-3.26-.84-.8-1.69-1.67-2.52-2.51l-.24-.26q-1.25-1.25-2.5-2.51c-.66-.68-1.32-1.36-2-2l-2-2.07-.13-.15-2.1-2.24q-3.36-3.61-6.66-7.36c-.68-.8-1.36-1.55-2-2.35-.57-.65-1.12-1.28-1.66-1.94l-2-2.39q-4.26-5.11-8.39-10.48-1.13-1.45-2.24-2.92c-1.89-2.47-3.73-5-5.57-7.55l-1.68-2.39c-.13-.16-.24-.34-.36-.5-.59-.85-1.19-1.7-1.77-2.55-.95-1.38-1.89-2.77-2.82-4.17q-1.11-1.64-2.18-3.31l-.15-.24-2.22-3.47c-.07-.13-.15-.24-.22-.37-.71-1.14-1.41-2.27-2.1-3.4s-1.49-2.46-2.21-3.7-1.44-2.39-2.13-3.67q-4.6-8-8.77-16.47c-.35-.69-.69-1.38-1-2.08-.22-.44-.44-.89-.65-1.35-.43-.87-.8-1.75-1.25-2.63a27.17,27.17,0,0,1-1.15-2.47l-.23-.48c-.26-.58-.52-1.16-.8-1.75l-.26-.57c-.26-.58-.52-1.18-.8-1.77q-1.44-3.26-2.78-6.58c-.42-1-.8-2-1.23-3.07-.1-.26-.21-.53-.31-.8-.4-1-.8-2-1.16-3s-.68-1.82-1-2.74l-.23-.65c-.18-.45-.34-.91-.5-1.36q-1-2.69-1.89-5.44c-.21-.6-.4-1.21-.6-1.8-.26-.8-.51-1.54-.75-2.31-.14-.42-.26-.8-.39-1.22-.26-.8-.5-1.6-.75-2.39-.31-1-.61-2.06-.92-3.1-.18-.65-.39-1.28-.57-2-.37-1.28-.74-2.58-1.08-3.89-.19-.68-.37-1.35-.55-2-.13-.5-.26-1-.39-1.51-.32-1.22-.63-2.46-.92-3.7-.18-.7-.35-1.4-.52-2.11-.07-.29-.13-.57-.19-.85-.37-1.55-.71-3.11-1.07-4.69-.26-1.16-.5-2.33-.74-3.5-.14-.71-.29-1.43-.43-2.14s-.32-1.6-.47-2.45a2.13,2.13,0,0,0-.1-.47c-.15-.8-.3-1.64-.45-2.48s-.31-1.84-.47-2.77-.3-1.8-.45-2.71q-.87-5.52-1.56-11.17A314.73,314.73,0,0,1,447,328.58V122.76Z"
       transform="translate(-445.5 -121.26)"
       id="path5681" />
  </g>
  <g
     id="Layer_3"
     data-name="Layer 3">
    <path
       class="cls-2"
       d="M696.66,229.16c-1.69-3.31-4.25-8.55-4.34-10.14-.14-1.91.48-6.48,2.35-7.62,2.09-1.3,5.51-.9,6.49,1a28.67,28.67,0,0,1,6.3,11.42c-.24-1.16-3.39-16.93,1.52-19.32a3.88,3.88,0,0,1,2.85-.26,9.37,9.37,0,0,1,4.49,4.4c.78,1.93.57,4.93,1,6.94l.45,8.3,2.92-7.23a16.45,16.45,0,0,1,2.09-3.81c.14-.18,1.22-2.24,1.39-2.41,1.42-1.55,3.69-.33,6,1.22,1.39.92,1.52,2.82,1.27,4.61a15.2,15.2,0,0,1-.92,3.36L728,226.17c2.8-1.45,6.93-5.21,8-8,7.15-18.54,4.5-35.35-4.55-52.16-4.37-8.13-13.3-14-22.64-18.13.39,2,1.13,4.38,1.27,5.27,1.16,7.7.8,13.21-4.4,19.5-1.36,1.64-2.49,4.16-4.58,3.83-1.93-.32-3.09-2.23-3.45-3.83-1.19-5.06-1.42-11.52-5.15-16-2.21,3.28-1.11,6-8,6.76s-6.85-4.2-9.29-6.52c-2.61,3.57-2.71,7.43-2.89,11.43-.38,8.68-2.18,9.79-9.14,4.52a13.88,13.88,0,0,1-3.61-4.25,29.61,29.61,0,0,1-4-15.6c.08-4.32-1.1-4.23-4.4-2.23-4.2,2.58-6.78,6.45-9.49,10.21-10.18,14.08-12,30.33-9.65,46.63.9,6.3,2.36,14.26,8.28,18.54.11-.17.38-.32.3-.48-2.59-5.71-2-12.67,3.39-14.29,4.94-1.49,8.66,7.15,10.72,10.15a20.62,20.62,0,0,1,.08-6.27c.86-3.22,1.75-10.32,6.4-9.91,6.9-1.51,3.25,17.44,3.25,17.44.66-.66,4.32-8.92,4.89-9.65,1.4-1.79,4.25-4,6.91-2.77s3.55,6.43,2.92,8.62c0,0-5.15,10.84-4.77,13.48a5.24,5.24,0,0,0,1.13,2s-1.88,2.38-3.21,2.38-6.87-2.92-12,4.79c0,0,1.82,1.51,4.52-1.87s6-1.33,6.31-.2-4.89,2.42-5,3.64-.48,4.93-.48,4.93,4.13-2.26,5-4.52a6.56,6.56,0,0,1,3-3.3s2.26,2.46,1.88,3.86-3.12,3.12-3.12,4.71,4.34-.48,5-2.74-2.55-6.58-2.17-7.53a17.89,17.89,0,0,1,1.61-2.58c3.1,3.51,8.21,8.37,9.77,12.09,0,0,5.59-7.76,9.22-12.85a25.36,25.36,0,0,1,2.15,3.33c.38.95-2.83,5.27-2.17,7.53s5,4.34,5,2.74-2.73-3.3-3.1-4.71,1.88-3.86,1.88-3.86a6.56,6.56,0,0,1,3,3.3c.86,2.26,5,4.52,5,4.52s-.36-3.69-.47-4.93-5.27-2.52-5-3.64,3.6-3.19,6.31.2,4.52,1.88,4.52,1.88c-5.18-7.73-10.74-4.8-12-4.8s-3.21-2.38-3.21-2.38S697.57,230.2,696.66,229.16Z"
       transform="translate(-445.5 -121.26)"
       id="path5684" />
    <path
       class="cls-2"
       d="M767.2,310c-1.69-3.31-4.25-8.55-4.34-10.14-.14-1.91.48-6.48,2.35-7.62,2.09-1.3,5.51-.9,6.49,1a28.67,28.67,0,0,1,6.3,11.42c-.24-1.16-3.39-16.93,1.52-19.32a3.88,3.88,0,0,1,2.85-.26,9.37,9.37,0,0,1,4.49,4.4c.78,1.93.57,4.93,1,6.94l.45,8.3,2.92-7.23a16.45,16.45,0,0,1,2.09-3.81c.14-.18,1.22-2.24,1.39-2.41,1.42-1.55,3.69-.33,6,1.22,1.39.92,1.52,2.82,1.27,4.61a15.2,15.2,0,0,1-.92,3.36L798.53,307c2.8-1.45,6.93-5.21,8-8,7.15-18.54,4.5-35.35-4.55-52.16-4.37-8.13-13.3-14-22.64-18.13.39,2,1.13,4.38,1.27,5.27,1.16,7.7.8,13.21-4.4,19.5-1.36,1.64-2.49,4.16-4.58,3.83-1.93-.32-3.09-2.23-3.45-3.83-1.19-5.06-1.42-11.52-5.15-16-2.21,3.28-1.11,6-8,6.76s-6.85-4.2-9.29-6.52c-2.61,3.57-2.71,7.43-2.89,11.43-.38,8.68-2.18,9.79-9.14,4.52a13.88,13.88,0,0,1-3.61-4.25,29.61,29.61,0,0,1-4-15.6c.08-4.32-1.1-4.23-4.4-2.23-4.2,2.58-6.78,6.45-9.49,10.21-10.18,14.08-12,30.33-9.65,46.63.9,6.3,2.36,14.26,8.28,18.54.11-.17.38-.32.3-.48-2.59-5.71-2-12.67,3.39-14.29,4.94-1.49,8.66,7.15,10.72,10.15a20.62,20.62,0,0,1,.08-6.27c.86-3.22,1.75-10.32,6.4-9.91,6.9-1.51,3.25,17.44,3.25,17.44.66-.66,4.32-8.92,4.89-9.65,1.4-1.79,4.25-4,6.91-2.77s3.55,6.43,2.92,8.62c0,0-5.15,10.84-4.77,13.48a5.24,5.24,0,0,0,1.13,2s-1.88,2.38-3.21,2.38-6.87-2.92-12,4.79c0,0,1.82,1.51,4.52-1.87s6-1.33,6.31-.2-4.89,2.42-5,3.64-.48,4.93-.48,4.93,4.13-2.26,5-4.52a6.56,6.56,0,0,1,3-3.3s2.26,2.46,1.88,3.86-3.12,3.12-3.12,4.71,4.34-.48,5-2.74-2.55-6.58-2.17-7.53a17.89,17.89,0,0,1,1.61-2.58c3.1,3.51,8.21,8.37,9.77,12.09,0,0,5.59-7.76,9.22-12.85a25.36,25.36,0,0,1,2.15,3.33c.38.95-2.83,5.27-2.17,7.53s5,4.34,5,2.74-2.73-3.3-3.1-4.71,1.88-3.86,1.88-3.86a6.56,6.56,0,0,1,3,3.3c.86,2.26,5,4.52,5,4.52s-.36-3.69-.47-4.93-5.27-2.52-5-3.64,3.6-3.19,6.31.2,4.52,1.88,4.52,1.88c-5.18-7.73-10.74-4.8-12-4.8s-3.21-2.38-3.21-2.38S768.11,311,767.2,310Z"
       transform="translate(-445.5 -121.26)"
       id="path5686" />
    <path
       class="cls-2"
       d="M696.66,389.81c-1.69-3.31-4.25-8.55-4.34-10.14-.14-1.91.48-6.48,2.35-7.62,2.09-1.3,5.51-.9,6.49,1a28.67,28.67,0,0,1,6.3,11.42c-.24-1.16-3.39-16.93,1.52-19.32a3.88,3.88,0,0,1,2.85-.26,9.37,9.37,0,0,1,4.49,4.4c.78,1.93.57,4.93,1,6.94l.45,8.3,2.92-7.23a16.45,16.45,0,0,1,2.09-3.81c.14-.18,1.22-2.24,1.39-2.41,1.42-1.55,3.69-.33,6,1.22,1.39.92,1.52,2.82,1.27,4.61a15.2,15.2,0,0,1-.92,3.36L728,386.83c2.8-1.45,6.93-5.21,8-8,7.15-18.54,4.5-35.35-4.55-52.16-4.37-8.13-13.3-14-22.64-18.13.39,2,1.13,4.38,1.27,5.27,1.16,7.7.8,13.21-4.4,19.5-1.36,1.64-2.49,4.16-4.58,3.83-1.93-.32-3.09-2.23-3.45-3.83-1.19-5.06-1.42-11.52-5.15-16-2.21,3.28-1.11,6-8,6.76s-6.85-4.2-9.29-6.52c-2.61,3.57-2.71,7.43-2.89,11.43-.38,8.68-2.18,9.79-9.14,4.52a13.88,13.88,0,0,1-3.61-4.25,29.61,29.61,0,0,1-4-15.6c.08-4.32-1.1-4.23-4.4-2.23-4.2,2.58-6.78,6.45-9.49,10.21-10.18,14.08-12,30.33-9.65,46.63.9,6.3,2.36,14.26,8.28,18.54.11-.17.38-.32.3-.48-2.59-5.71-2-12.67,3.39-14.29,4.94-1.49,8.66,7.15,10.72,10.15a20.62,20.62,0,0,1,.08-6.27c.86-3.22,1.75-10.32,6.4-9.91,6.9-1.51,3.25,17.44,3.25,17.44.66-.66,4.32-8.92,4.89-9.65,1.4-1.79,4.25-4,6.91-2.77s3.55,6.43,2.92,8.62c0,0-5.15,10.84-4.77,13.48a5.24,5.24,0,0,0,1.13,2s-1.88,2.38-3.21,2.38-6.87-2.92-12,4.79c0,0,1.82,1.51,4.52-1.87s6-1.33,6.31-.2-4.89,2.42-5,3.64-.48,4.93-.48,4.93,4.13-2.26,5-4.52a6.56,6.56,0,0,1,3-3.3s2.26,2.46,1.88,3.86-3.12,3.12-3.12,4.71,4.34-.48,5-2.74-2.55-6.58-2.17-7.53a17.89,17.89,0,0,1,1.61-2.58c3.1,3.51,8.21,8.37,9.77,12.09,0,0,5.59-7.76,9.22-12.85a25.36,25.36,0,0,1,2.15,3.33c.38.95-2.83,5.27-2.17,7.53s5,4.34,5,2.74-2.73-3.3-3.1-4.71,1.88-3.86,1.88-3.86a6.56,6.56,0,0,1,3,3.3c.86,2.26,5,4.52,5,4.52s-.36-3.69-.47-4.93-5.27-2.52-5-3.64,3.6-3.19,6.31.2,4.52,1.88,4.52,1.88c-5.18-7.73-10.74-4.8-12-4.8s-3.21-2.38-3.21-2.38S697.57,390.86,696.66,389.81Z"
       transform="translate(-445.5 -121.26)"
       id="path5688" />
    <path
       class="cls-2"
       d="M623.61,308.48c-1.69-3.31-4.25-8.55-4.34-10.14-.14-1.91.48-6.48,2.35-7.62,2.09-1.3,5.51-.9,6.49,1a28.67,28.67,0,0,1,6.3,11.42c-.24-1.16-3.39-16.93,1.52-19.32a3.88,3.88,0,0,1,2.85-.26,9.37,9.37,0,0,1,4.49,4.4c.78,1.93.57,4.93,1,6.94l.45,8.3,2.92-7.23a16.45,16.45,0,0,1,2.09-3.81c.14-.18,1.22-2.24,1.39-2.41,1.42-1.55,3.69-.33,6,1.22,1.39.92,1.52,2.82,1.27,4.61a15.2,15.2,0,0,1-.92,3.36l-2.52,6.52c2.8-1.45,6.93-5.21,8-8,7.15-18.54,4.5-35.35-4.55-52.16-4.37-8.13-13.3-14-22.64-18.13.39,2,1.13,4.38,1.27,5.27,1.16,7.7.8,13.21-4.4,19.5-1.36,1.64-2.49,4.16-4.58,3.83-1.93-.32-3.09-2.23-3.45-3.83-1.19-5.06-1.42-11.52-5.15-16-2.21,3.28-1.11,6-8,6.76s-6.85-4.2-9.29-6.52c-2.61,3.57-2.71,7.43-2.89,11.43-.38,8.68-2.18,9.79-9.14,4.52a13.88,13.88,0,0,1-3.61-4.25,29.61,29.61,0,0,1-4-15.6c.08-4.32-1.1-4.23-4.4-2.23-4.2,2.58-6.78,6.45-9.49,10.21-10.18,14.08-12,30.33-9.65,46.63.9,6.3,2.36,14.26,8.28,18.54.11-.17.38-.32.3-.48-2.59-5.71-2-12.67,3.39-14.29,4.94-1.49,8.66,7.15,10.72,10.15a20.62,20.62,0,0,1,.08-6.27c.86-3.22,1.75-10.32,6.4-9.91,6.9-1.51,3.25,17.44,3.25,17.44.66-.66,4.32-8.92,4.89-9.65,1.4-1.79,4.25-4,6.91-2.77s3.55,6.43,2.92,8.62c0,0-5.15,10.84-4.77,13.48a5.24,5.24,0,0,0,1.13,2s-1.88,2.38-3.21,2.38-6.87-2.92-12,4.79c0,0,1.82,1.51,4.52-1.87s6-1.33,6.31-.2-4.89,2.42-5,3.64-.48,4.93-.48,4.93,4.13-2.26,5-4.52a6.56,6.56,0,0,1,3-3.3s2.26,2.46,1.88,3.86-3.12,3.12-3.12,4.71,4.34-.48,5-2.74-2.55-6.58-2.17-7.53a17.89,17.89,0,0,1,1.61-2.58c3.1,3.51,8.21,8.37,9.77,12.09,0,0,5.59-7.76,9.22-12.85a25.36,25.36,0,0,1,2.15,3.33c.38.95-2.83,5.27-2.17,7.53s5,4.34,5,2.74-2.73-3.3-3.1-4.71,1.88-3.86,1.88-3.86a6.56,6.56,0,0,1,3,3.3c.86,2.26,5,4.52,5,4.52s-.36-3.69-.47-4.93-5.27-2.52-5-3.64,3.6-3.19,6.31.2,4.52,1.88,4.52,1.88c-5.18-7.73-10.74-4.8-12-4.8s-3.21-2.38-3.21-2.38S624.52,309.53,623.61,308.48Z"
       transform="translate(-445.5 -121.26)"
       id="path5690" />
    <path
       class="cls-2"
       d="M627.63,471.64c-1.69-3.31-4.25-8.55-4.34-10.14-.14-1.91.48-6.48,2.35-7.62,2.09-1.3,5.51-.9,6.49,1a28.67,28.67,0,0,1,6.3,11.42c-.24-1.16-3.39-16.93,1.52-19.32a3.88,3.88,0,0,1,2.85-.26,9.37,9.37,0,0,1,4.49,4.4c.78,1.93.57,4.93,1,6.94l.45,8.3,2.92-7.23a16.45,16.45,0,0,1,2.09-3.81c.14-.18,1.22-2.24,1.39-2.41,1.42-1.55,3.69-.33,6,1.22,1.39.92,1.52,2.82,1.27,4.61a15.2,15.2,0,0,1-.92,3.36L659,468.66c2.8-1.45,6.93-5.21,8-8,7.15-18.54,4.5-35.35-4.55-52.16-4.37-8.13-13.3-14-22.64-18.13.39,2,1.13,4.38,1.27,5.27,1.16,7.7.8,13.21-4.4,19.5-1.36,1.64-2.49,4.16-4.58,3.83-1.93-.32-3.09-2.23-3.45-3.83-1.19-5.06-1.42-11.52-5.15-16-2.21,3.28-1.11,6-8,6.76s-6.85-4.2-9.29-6.52c-2.61,3.57-2.71,7.43-2.89,11.43-.38,8.68-2.18,9.79-9.14,4.52a13.88,13.88,0,0,1-3.61-4.25,29.61,29.61,0,0,1-4-15.6c.08-4.32-1.1-4.23-4.4-2.23-4.2,2.58-6.78,6.45-9.49,10.21-10.18,14.08-12,30.33-9.65,46.63.9,6.3,2.36,14.26,8.28,18.54.11-.17.38-.32.3-.48-2.59-5.71-2-12.67,3.39-14.29,4.94-1.49,8.66,7.15,10.72,10.15a20.62,20.62,0,0,1,.08-6.27c.86-3.22,1.75-10.32,6.4-9.91,6.9-1.51,3.25,17.44,3.25,17.44.66-.66,4.32-8.92,4.89-9.65,1.4-1.79,4.25-4,6.91-2.77s3.55,6.43,2.92,8.62c0,0-5.15,10.84-4.77,13.48a5.24,5.24,0,0,0,1.13,2s-1.88,2.38-3.21,2.38-6.87-2.92-12,4.79c0,0,1.82,1.51,4.52-1.87s6-1.33,6.31-.2-4.89,2.42-5,3.64-.48,4.93-.48,4.93,4.13-2.26,5-4.52a6.56,6.56,0,0,1,3-3.3s2.26,2.46,1.88,3.86-3.12,3.12-3.12,4.71,4.34-.48,5-2.74-2.55-6.58-2.17-7.53a17.89,17.89,0,0,1,1.61-2.58c3.1,3.51,8.21,8.37,9.77,12.09,0,0,5.59-7.76,9.22-12.85a25.36,25.36,0,0,1,2.15,3.33c.38.95-2.83,5.27-2.17,7.53s5,4.34,5,2.74-2.73-3.3-3.1-4.71,1.88-3.86,1.88-3.86a6.56,6.56,0,0,1,3,3.3c.86,2.26,5,4.52,5,4.52s-.36-3.69-.47-4.93-5.27-2.52-5-3.64,3.6-3.19,6.31.2,4.52,1.88,4.52,1.88c-5.18-7.73-10.74-4.8-12-4.8s-3.21-2.38-3.21-2.38S628.54,472.69,627.63,471.64Z"
       transform="translate(-445.5 -121.26)"
       id="path5692" />
    <path
       class="cls-2"
       d="M554.08,389.81c-1.69-3.31-4.25-8.55-4.34-10.14-.14-1.91.48-6.48,2.35-7.62,2.09-1.3,5.51-.9,6.49,1a28.67,28.67,0,0,1,6.3,11.42c-.24-1.16-3.39-16.93,1.52-19.32a3.88,3.88,0,0,1,2.85-.26,9.37,9.37,0,0,1,4.49,4.4c.78,1.93.57,4.93,1,6.94l.45,8.3,2.92-7.23a16.45,16.45,0,0,1,2.09-3.81c.14-.18,1.22-2.24,1.39-2.41,1.42-1.55,3.69-.33,6,1.22,1.39.92,1.52,2.82,1.27,4.61a15.2,15.2,0,0,1-.92,3.36l-2.52,6.52c2.8-1.45,6.93-5.21,8-8,7.15-18.54,4.5-35.35-4.55-52.16-4.37-8.13-13.3-14-22.64-18.13.39,2,1.13,4.38,1.27,5.27,1.16,7.7.8,13.21-4.4,19.5-1.36,1.64-2.49,4.16-4.58,3.83-1.93-.32-3.09-2.23-3.45-3.83-1.19-5.06-1.42-11.52-5.15-16-2.21,3.28-1.11,6-8,6.76s-6.85-4.2-9.29-6.52c-2.61,3.57-2.71,7.43-2.89,11.43-.38,8.68-2.18,9.79-9.14,4.52a13.88,13.88,0,0,1-3.61-4.25,29.61,29.61,0,0,1-4-15.6c.08-4.32-1.1-4.23-4.4-2.23-4.2,2.58-6.78,6.45-9.49,10.21-10.18,14.08-12,30.33-9.65,46.63.9,6.3,2.36,14.26,8.28,18.54.11-.17.38-.32.3-.48-2.59-5.71-2-12.67,3.39-14.29,4.94-1.49,8.66,7.15,10.72,10.15a20.62,20.62,0,0,1,.08-6.27c.86-3.22,1.75-10.32,6.4-9.91,6.9-1.51,3.25,17.44,3.25,17.44.66-.66,4.32-8.92,4.89-9.65,1.4-1.79,4.25-4,6.91-2.77s3.55,6.43,2.92,8.62c0,0-5.15,10.84-4.77,13.48a5.24,5.24,0,0,0,1.13,2s-1.88,2.38-3.21,2.38-6.87-2.92-12,4.79c0,0,1.82,1.51,4.52-1.87s6-1.33,6.31-.2-4.89,2.42-5,3.64-.48,4.93-.48,4.93,4.13-2.26,5-4.52a6.56,6.56,0,0,1,3-3.3s2.26,2.46,1.88,3.86-3.12,3.12-3.12,4.71,4.34-.48,5-2.74-2.55-6.58-2.17-7.53a17.89,17.89,0,0,1,1.61-2.58c3.1,3.51,8.21,8.37,9.77,12.09,0,0,5.59-7.76,9.22-12.85a25.36,25.36,0,0,1,2.15,3.33c.38.95-2.83,5.27-2.17,7.53s5,4.34,5,2.74-2.73-3.3-3.1-4.71S557,401,557,401a6.56,6.56,0,0,1,3,3.3c.86,2.26,5,4.52,5,4.52s-.36-3.69-.47-4.93-5.27-2.52-5-3.64,3.6-3.19,6.31.2,4.52,1.88,4.52,1.88c-5.18-7.73-10.74-4.8-12-4.8s-3.21-2.38-3.21-2.38S555,390.86,554.08,389.81Z"
       transform="translate(-445.5 -121.26)"
       id="path5694" />
    <path
       class="cls-2"
       d="M770.87,471.64c-1.69-3.31-4.25-8.55-4.34-10.14-.14-1.91.48-6.48,2.35-7.62,2.09-1.3,5.51-.9,6.49,1a28.67,28.67,0,0,1,6.3,11.42c-.24-1.16-3.39-16.93,1.52-19.32a3.88,3.88,0,0,1,2.85-.26,9.37,9.37,0,0,1,4.49,4.4c.78,1.93.57,4.93,1,6.94l.45,8.3,2.92-7.23a16.45,16.45,0,0,1,2.09-3.81c.14-.18,1.22-2.24,1.39-2.41,1.42-1.55,3.69-.33,6,1.22,1.39.92,1.52,2.82,1.27,4.61a15.2,15.2,0,0,1-.92,3.36l-2.52,6.52c2.8-1.45,6.93-5.21,8-8,7.15-18.54,4.5-35.35-4.55-52.16-4.37-8.13-13.3-14-22.64-18.13.39,2,1.13,4.38,1.27,5.27,1.16,7.7.8,13.21-4.4,19.5-1.36,1.64-2.49,4.16-4.58,3.83-1.93-.32-3.09-2.23-3.45-3.83-1.19-5.06-1.42-11.52-5.15-16-2.21,3.28-1.11,6-8,6.76s-6.85-4.2-9.29-6.52c-2.61,3.57-2.71,7.43-2.89,11.43-.38,8.68-2.18,9.79-9.14,4.52a13.88,13.88,0,0,1-3.61-4.25,29.61,29.61,0,0,1-4-15.6c.08-4.32-1.1-4.23-4.4-2.23-4.2,2.58-6.78,6.45-9.49,10.21-10.18,14.08-12,30.33-9.65,46.63.9,6.3,2.36,14.26,8.28,18.54.11-.17.38-.32.3-.48-2.59-5.71-2-12.67,3.39-14.29,4.94-1.49,8.66,7.15,10.72,10.15a20.62,20.62,0,0,1,.08-6.27c.86-3.22,1.75-10.32,6.4-9.91,6.9-1.51,3.25,17.44,3.25,17.44.66-.66,4.32-8.92,4.89-9.65,1.4-1.79,4.25-4,6.91-2.77s3.55,6.43,2.92,8.62c0,0-5.15,10.84-4.77,13.48a5.24,5.24,0,0,0,1.13,2s-1.88,2.38-3.21,2.38-6.87-2.92-12,4.79c0,0,1.82,1.51,4.52-1.87s6-1.33,6.31-.2-4.89,2.42-5,3.64-.48,4.93-.48,4.93,4.13-2.26,5-4.52a6.56,6.56,0,0,1,3-3.3s2.26,2.46,1.88,3.86-3.12,3.12-3.12,4.71,4.34-.48,5-2.74-2.55-6.58-2.17-7.53A17.89,17.89,0,0,1,751,478.6c3.1,3.51,8.21,8.37,9.77,12.09,0,0,5.59-7.76,9.22-12.85a25.36,25.36,0,0,1,2.15,3.33c.38.95-2.83,5.27-2.17,7.53s5,4.34,5,2.74-2.73-3.3-3.1-4.71,1.88-3.86,1.88-3.86a6.56,6.56,0,0,1,3,3.3c.86,2.26,5,4.52,5,4.52s-.36-3.69-.47-4.93-5.27-2.52-5-3.64,3.6-3.19,6.31.2,4.52,1.88,4.52,1.88c-5.18-7.73-10.74-4.8-12-4.8s-3.21-2.38-3.21-2.38S771.78,472.69,770.87,471.64Z"
       transform="translate(-445.5 -121.26)"
       id="path5696" />
    <path
       class="cls-2"
       d="M841.16,389.81c-1.69-3.31-4.25-8.55-4.34-10.14-.14-1.91.48-6.48,2.35-7.62,2.09-1.3,5.51-.9,6.49,1a28.67,28.67,0,0,1,6.3,11.42c-.24-1.16-3.39-16.93,1.52-19.32a3.88,3.88,0,0,1,2.85-.26,9.37,9.37,0,0,1,4.49,4.4c.78,1.93.57,4.93,1,6.94l.45,8.3,2.92-7.23a16.45,16.45,0,0,1,2.09-3.81c.14-.18,1.22-2.24,1.39-2.41,1.42-1.55,3.69-.33,6,1.22,1.39.92,1.52,2.82,1.27,4.61a15.2,15.2,0,0,1-.92,3.36l-2.52,6.52c2.8-1.45,6.93-5.21,8-8,7.15-18.54,4.5-35.35-4.55-52.16-4.37-8.13-13.3-14-22.64-18.13.39,2,1.13,4.38,1.27,5.27,1.16,7.7.8,13.21-4.4,19.5-1.36,1.64-2.49,4.16-4.58,3.83-1.93-.32-3.09-2.23-3.45-3.83-1.19-5.06-1.42-11.52-5.15-16-2.21,3.28-1.11,6-8,6.76s-6.85-4.2-9.29-6.52c-2.61,3.57-2.71,7.43-2.89,11.43-.38,8.68-2.18,9.79-9.14,4.52a13.88,13.88,0,0,1-3.61-4.25,29.61,29.61,0,0,1-4-15.6c.08-4.32-1.1-4.23-4.4-2.23-4.2,2.58-6.78,6.45-9.49,10.21-10.18,14.08-12,30.33-9.65,46.63.9,6.3,2.36,14.26,8.28,18.54.11-.17.38-.32.3-.48-2.59-5.71-2-12.67,3.39-14.29,4.94-1.49,8.66,7.15,10.72,10.15a20.62,20.62,0,0,1,.08-6.27c.86-3.22,1.75-10.32,6.4-9.91,6.9-1.51,3.25,17.44,3.25,17.44.66-.66,4.32-8.92,4.89-9.65,1.4-1.79,4.25-4,6.91-2.77s3.55,6.43,2.92,8.62c0,0-5.15,10.84-4.77,13.48a5.24,5.24,0,0,0,1.13,2s-1.88,2.38-3.21,2.38-6.87-2.92-12,4.79c0,0,1.82,1.51,4.52-1.87s6-1.33,6.31-.2-4.89,2.42-5,3.64-.48,4.93-.48,4.93,4.13-2.26,5-4.52a6.56,6.56,0,0,1,3-3.3s2.26,2.46,1.88,3.86-3.12,3.12-3.12,4.71,4.34-.48,5-2.74-2.55-6.58-2.17-7.53a17.89,17.89,0,0,1,1.61-2.58c3.1,3.51,8.21,8.37,9.77,12.09,0,0,5.59-7.76,9.22-12.85a25.36,25.36,0,0,1,2.15,3.33c.38.95-2.83,5.27-2.17,7.53s5,4.34,5,2.74-2.73-3.3-3.1-4.71S844,401,844,401a6.56,6.56,0,0,1,3,3.3c.86,2.26,5,4.52,5,4.52s-.36-3.69-.47-4.93-5.27-2.52-5-3.64,3.6-3.19,6.31.2,4.52,1.88,4.52,1.88c-5.18-7.73-10.74-4.8-12-4.8s-3.21-2.38-3.21-2.38S842.07,390.86,841.16,389.81Z"
       transform="translate(-445.5 -121.26)"
       id="path5698" />
    <path
       class="cls-2"
       d="M703.19,552.72c-1.69-3.31-4.25-8.55-4.34-10.14-.14-1.91.48-6.48,2.35-7.62,2.09-1.3,5.51-.9,6.49,1a28.67,28.67,0,0,1,6.3,11.42c-.24-1.16-3.39-16.93,1.52-19.32a3.88,3.88,0,0,1,2.85-.26,9.37,9.37,0,0,1,4.49,4.4c.78,1.93.57,4.93,1,6.94l.45,8.3,2.92-7.23a16.45,16.45,0,0,1,2.09-3.81c.14-.18,1.22-2.24,1.39-2.41,1.42-1.55,3.69-.33,6,1.22,1.39.92,1.52,2.82,1.27,4.61a15.2,15.2,0,0,1-.92,3.36l-2.52,6.52c2.8-1.45,6.93-5.21,8-8,7.15-18.54,4.5-35.35-4.55-52.16-4.37-8.13-13.3-14-22.64-18.13.39,2,1.13,4.38,1.27,5.27,1.16,7.7.8,13.21-4.4,19.5-1.36,1.64-2.49,4.16-4.58,3.83-1.93-.32-3.09-2.23-3.45-3.83-1.19-5.06-1.42-11.52-5.15-16-2.21,3.28-1.11,6-8,6.76s-6.85-4.2-9.29-6.52c-2.61,3.57-2.71,7.43-2.89,11.43-.38,8.68-2.18,9.79-9.14,4.52a13.88,13.88,0,0,1-3.61-4.25,29.61,29.61,0,0,1-4-15.6c.08-4.32-1.1-4.23-4.4-2.23-4.2,2.58-6.78,6.45-9.49,10.21-10.18,14.08-12,30.33-9.65,46.63.9,6.3,2.36,14.26,8.28,18.54.11-.17.38-.32.3-.48-2.59-5.71-2-12.67,3.39-14.29,4.94-1.49,8.66,7.15,10.72,10.15a20.62,20.62,0,0,1,.08-6.27c.86-3.22,1.75-10.32,6.4-9.91,6.9-1.51,3.25,17.44,3.25,17.44.66-.66,4.32-8.92,4.89-9.65,1.4-1.79,4.25-4,6.91-2.77s3.55,6.43,2.92,8.62c0,0-5.15,10.84-4.77,13.48a5.24,5.24,0,0,0,1.13,2s-1.88,2.38-3.21,2.38-6.87-2.92-12,4.79c0,0,1.82,1.51,4.52-1.87s6-1.33,6.31-.2-4.89,2.42-5,3.64-.48,4.93-.48,4.93,4.13-2.26,5-4.52a6.56,6.56,0,0,1,3-3.3s2.26,2.46,1.88,3.86-3.12,3.12-3.12,4.71,4.34-.48,5-2.74-2.55-6.58-2.17-7.53a17.89,17.89,0,0,1,1.61-2.58c3.1,3.51,8.21,8.37,9.77,12.09,0,0,5.59-7.76,9.22-12.85a25.36,25.36,0,0,1,2.15,3.33c.38.95-2.83,5.27-2.17,7.53s5,4.34,5,2.74-2.73-3.3-3.1-4.71,1.88-3.86,1.88-3.86a6.56,6.56,0,0,1,3,3.3c.86,2.26,5,4.52,5,4.52s-.36-3.69-.47-4.93-5.27-2.52-5-3.64,3.6-3.19,6.31.2,4.52,1.88,4.52,1.88c-5.18-7.73-10.74-4.8-12-4.8s-3.21-2.38-3.21-2.38S704.1,553.77,703.19,552.72Z"
       transform="translate(-445.5 -121.26)"
       id="path5700" />
    <circle
       class="cls-3"
       cx="234.11"
       cy="51.61"
       r="3.44"
       id="circle5702" />
    <circle
       class="cls-3"
       cx="245.1"
       cy="51.61"
       r="3.44"
       id="circle5704" />
    <circle
       class="cls-3"
       cx="304.65"
       cy="132.44"
       r="3.44"
       id="circle5706" />
    <circle
       class="cls-3"
       cx="315.64"
       cy="132.44"
       r="3.44"
       id="circle5708" />
    <circle
       class="cls-3"
       cx="234.11"
       cy="212.26"
       r="3.44"
       id="circle5710" />
    <circle
       class="cls-3"
       cx="245.1"
       cy="212.26"
       r="3.44"
       id="circle5712" />
    <circle
       class="cls-3"
       cx="161.06"
       cy="130.93"
       r="3.44"
       id="circle5714" />
    <circle
       class="cls-3"
       cx="172.06"
       cy="130.93"
       r="3.44"
       id="circle5716" />
    <circle
       class="cls-3"
       cx="165.08"
       cy="294.09"
       r="3.44"
       id="circle5718" />
    <circle
       class="cls-3"
       cx="176.07"
       cy="294.09"
       r="3.44"
       id="circle5720" />
    <circle
       class="cls-3"
       cx="91.53"
       cy="212.26"
       r="3.44"
       id="circle5722" />
    <circle
       class="cls-3"
       cx="102.52"
       cy="212.26"
       r="3.44"
       id="circle5724" />
    <circle
       class="cls-3"
       cx="308.32"
       cy="294.09"
       r="3.44"
       id="circle5726" />
    <circle
       class="cls-3"
       cx="319.31"
       cy="294.09"
       r="3.44"
       id="circle5728" />
    <circle
       class="cls-3"
       cx="378.6"
       cy="212.26"
       r="3.44"
       id="circle5730" />
    <circle
       class="cls-3"
       cx="389.6"
       cy="212.26"
       r="3.44"
       id="circle5732" />
    <circle
       class="cls-3"
       cx="240.64"
       cy="375.17"
       r="3.44"
       id="circle5734" />
    <circle
       class="cls-3"
       cx="251.63"
       cy="375.17"
       r="3.44"
       id="circle5736" />
  </g>
  <path
     id="shine"
     d="M 1.5800356,0.70902414 V 207.0859 c 0,229.66454 239.9199944,319.6031 239.9199944,319.6031 0,0 239.92,-89.93856 239.92,-319.60309 V 0.70902414 Z"
     style="fill:url(#rg);stroke:#000000;stroke-width:2.41218" />
</svg>
